<svg width="24" height="24" viewBox="0 0 24 24" fill="none" xmlns="http://www.w3.org/2000/svg">
<g clip-path="url(#clip0_3157_57547)">
<path d="M19.8467 17.7133L13.18 5.04659C13.067 4.83144 12.8974 4.65127 12.6894 4.52554C12.4814 4.39982 12.243 4.33333 12 4.33325C11.757 4.33333 11.5186 4.39982 11.3106 4.52554C11.1027 4.65127 10.933 4.83144 10.82 5.04659L4.15334 17.7133C4.04234 17.9194 3.9876 18.1512 3.99462 18.3853C4.00164 18.6193 4.07018 18.8474 4.19334 19.0466C4.31483 19.2385 4.48332 19.3961 4.68283 19.5046C4.88233 19.6131 5.10625 19.6689 5.33334 19.6666H18.6667C18.8962 19.6665 19.1218 19.6072 19.3216 19.4944C19.5215 19.3816 19.6889 19.2191 19.8075 19.0227C19.9262 18.8262 19.9921 18.6025 19.999 18.3731C20.0059 18.1437 19.9534 17.9164 19.8467 17.7133ZM11.3333 9.66658C11.3333 9.48977 11.4036 9.3202 11.5286 9.19518C11.6536 9.07016 11.8232 8.99992 12 8.99992C12.1768 8.99992 12.3464 9.07016 12.4714 9.19518C12.5964 9.3202 12.6667 9.48977 12.6667 9.66658V13.6666C12.6667 13.8434 12.5964 14.013 12.4714 14.138C12.3464 14.263 12.1768 14.3333 12 14.3333C11.8232 14.3333 11.6536 14.263 11.5286 14.138C11.4036 14.013 11.3333 13.8434 11.3333 13.6666V9.66658ZM12.0333 17.3333C11.7708 17.3317 11.5189 17.229 11.3301 17.0465C11.1414 16.8639 11.0303 16.6156 11.02 16.3533C11.0156 16.2215 11.0376 16.0901 11.0847 15.967C11.1319 15.8438 11.2033 15.7314 11.2946 15.6363C11.386 15.5412 11.4955 15.4654 11.6166 15.4134C11.7378 15.3613 11.8681 15.3341 12 15.3333V15.3333C12.2626 15.3348 12.5145 15.4375 12.7032 15.62C12.892 15.8026 13.0031 16.0509 13.0133 16.3133C13.0178 16.445 12.9958 16.5764 12.9486 16.6995C12.9015 16.8227 12.8301 16.9351 12.7387 17.0302C12.6474 17.1253 12.5379 17.2011 12.4167 17.2531C12.2956 17.3052 12.1652 17.3324 12.0333 17.3333V17.3333Z" fill="#111827"/>
</g>
<defs>
<clipPath id="clip0_3157_57547">
<rect width="16" height="16" fill="white" transform="translate(4 4)"/>
</clipPath>
</defs>
</svg>
