<svg width="24" height="24" viewBox="0 0 24 24" fill="none" xmlns="http://www.w3.org/2000/svg">
<path d="M4.83329 15.3334H7.16663C7.21083 15.3334 7.25322 15.3159 7.28448 15.2846C7.31573 15.2533 7.33329 15.211 7.33329 15.1667V13.8334C7.33329 13.6566 7.26305 13.487 7.13803 13.362C7.01301 13.237 6.84344 13.1667 6.66663 13.1667H5.33329C5.15648 13.1667 4.98691 13.237 4.86189 13.362C4.73686 13.487 4.66663 13.6566 4.66663 13.8334V15.1667C4.66663 15.211 4.68419 15.2533 4.71544 15.2846C4.7467 15.3159 4.78909 15.3334 4.83329 15.3334Z" fill="black"/>
<path d="M9.33329 9.83325C9.15648 9.83325 8.98691 9.90349 8.86189 10.0285C8.73686 10.1535 8.66663 10.3231 8.66663 10.4999V15.1666C8.66663 15.2108 8.68419 15.2532 8.71544 15.2844C8.7467 15.3157 8.78909 15.3333 8.83329 15.3333H11.1666C11.2108 15.3333 11.2532 15.3157 11.2845 15.2844C11.3157 15.2532 11.3333 15.2108 11.3333 15.1666V10.4999C11.3333 10.3231 11.2631 10.1535 11.138 10.0285C11.013 9.90349 10.8434 9.83325 10.6666 9.83325H9.33329Z" fill="black"/>
<path d="M13.3333 11.1667C13.1565 11.1667 12.9869 11.237 12.8619 11.362C12.7369 11.487 12.6666 11.6566 12.6666 11.8334V15.1667C12.6666 15.211 12.6842 15.2533 12.7154 15.2846C12.7467 15.3159 12.7891 15.3334 12.8333 15.3334H15.1666C15.2108 15.3334 15.2532 15.3159 15.2845 15.2846C15.3157 15.2533 15.3333 15.211 15.3333 15.1667V11.8334C15.3333 11.6566 15.2631 11.487 15.138 11.362C15.013 11.237 14.8434 11.1667 14.6666 11.1667H13.3333Z" fill="black"/>
<path d="M16.8333 15.3333H19.1666C19.2108 15.3333 19.2532 15.3158 19.2845 15.2845C19.3157 15.2533 19.3333 15.2109 19.3333 15.1667V7.16667C19.3333 6.98986 19.2631 6.82029 19.138 6.69526C19.013 6.57024 18.8434 6.5 18.6666 6.5H17.3333C17.1565 6.5 16.9869 6.57024 16.8619 6.69526C16.7369 6.82029 16.6666 6.98986 16.6666 7.16667V15.1667C16.6666 15.2109 16.6842 15.2533 16.7154 15.2845C16.7467 15.3158 16.7891 15.3333 16.8333 15.3333Z" fill="black"/>
<path d="M4.66667 17.5001H19.3333C19.5101 17.5001 19.6797 17.4298 19.8047 17.3048C19.9298 17.1798 20 17.0102 20 16.8334C20.0003 16.7085 19.9654 16.586 19.8994 16.4799C19.8334 16.3738 19.7389 16.2884 19.6267 16.2334C19.5349 16.1902 19.4348 16.1675 19.3333 16.1667H4.66667C4.56521 16.1675 4.46513 16.1902 4.37333 16.2334C4.26113 16.2884 4.16664 16.3738 4.10063 16.4799C4.03462 16.586 3.99975 16.7085 4 16.8334C4 17.0102 4.07024 17.1798 4.19526 17.3048C4.32029 17.4298 4.48986 17.5001 4.66667 17.5001Z" fill="black"/>
</svg>
