<svg width="24" height="24" viewBox="0 0 24 24" fill="none" xmlns="http://www.w3.org/2000/svg">
<path d="M8.33806 19.6695C8.23094 19.5632 8.14591 19.4368 8.08789 19.2976C8.02987 19.1583 8 19.0089 8 18.858C8 18.7072 8.02987 18.5578 8.08789 18.4185C8.14591 18.2793 8.23094 18.1529 8.33806 18.0466L14.1781 12.2066C14.2057 12.18 14.2277 12.148 14.2427 12.1127C14.2577 12.0773 14.2655 12.0393 14.2655 12.0009C14.2655 11.9625 14.2577 11.9245 14.2427 11.8891C14.2277 11.8538 14.2057 11.8218 14.1781 11.7952L8.33806 5.95519C8.23094 5.84895 8.14591 5.72255 8.08789 5.58328C8.02987 5.44401 8 5.29463 8 5.14376C8 4.99289 8.02987 4.84351 8.08789 4.70425C8.14591 4.56498 8.23094 4.43858 8.33806 4.33233C8.55218 4.11948 8.84184 4 9.14377 4C9.4457 4 9.73536 4.11948 9.94948 4.33233L16.4066 10.7895C16.7249 11.1124 16.9033 11.5475 16.9033 12.0009C16.9033 12.4543 16.7249 12.8894 16.4066 13.2123L9.94948 19.6695C9.73536 19.8823 9.4457 20.0018 9.14377 20.0018C8.84184 20.0018 8.55218 19.8823 8.33806 19.6695Z" fill="#111827"/>
</svg>
