<svg width="24" height="24" viewBox="0 0 24 24" fill="none" xmlns="http://www.w3.org/2000/svg">
<path d="M19.6695 8.33806C19.5632 8.23094 19.4368 8.14591 19.2976 8.08789C19.1583 8.02987 19.0089 8 18.858 8C18.7072 8 18.5578 8.02987 18.4185 8.08789C18.2793 8.14591 18.1529 8.23094 18.0466 8.33806L12.2066 14.1781C12.18 14.2057 12.148 14.2277 12.1127 14.2427C12.0773 14.2577 12.0393 14.2655 12.0009 14.2655C11.9625 14.2655 11.9245 14.2577 11.8891 14.2427C11.8538 14.2277 11.8218 14.2057 11.7952 14.1781L5.95519 8.33806C5.84895 8.23094 5.72255 8.14591 5.58328 8.08789C5.44401 8.02987 5.29463 8 5.14376 8C4.99289 8 4.84351 8.02987 4.70425 8.08789C4.56498 8.14591 4.43858 8.23094 4.33233 8.33806C4.11948 8.55218 4 8.84184 4 9.14377C4 9.4457 4.11948 9.73536 4.33233 9.94948L10.7895 16.4066C11.1109 16.7277 11.5466 16.908 12.0009 16.908C12.4552 16.908 12.8909 16.7277 13.2123 16.4066L19.6695 9.94948C19.8823 9.73536 20.0018 9.4457 20.0018 9.14377C20.0018 8.84184 19.8823 8.55218 19.6695 8.33806Z" fill="black"/>
</svg>
