<svg width="24" height="24" viewBox="0 0 24 24" fill="none" xmlns="http://www.w3.org/2000/svg">
<path d="M17.0001 10H7.00008C6.91168 10 6.82689 10.0351 6.76438 10.0976C6.70187 10.1601 6.66675 10.2449 6.66675 10.3333V18.6667C6.66675 19.0203 6.80722 19.3594 7.05727 19.6095C7.30732 19.8595 7.64646 20 8.00008 20H16.0001C16.3537 20 16.6928 19.8595 16.9429 19.6095C17.1929 19.3594 17.3334 19.0203 17.3334 18.6667V10.3267C17.3317 10.2394 17.2958 10.1563 17.2335 10.0953C17.1711 10.0342 17.0873 9.99998 17.0001 10ZM10.8334 17.6667C10.8334 17.7993 10.7807 17.9265 10.687 18.0202C10.5932 18.114 10.466 18.1667 10.3334 18.1667C10.2008 18.1667 10.0736 18.114 9.97986 18.0202C9.88609 17.9265 9.83341 17.7993 9.83341 17.6667V11.9133C9.83341 11.7807 9.88609 11.6535 9.97986 11.5598C10.0736 11.466 10.2008 11.4133 10.3334 11.4133C10.466 11.4133 10.5932 11.466 10.687 11.5598C10.7807 11.6535 10.8334 11.7807 10.8334 11.9133V17.6667ZM14.1667 17.6667C14.1667 17.7993 14.1141 17.9265 14.0203 18.0202C13.9265 18.114 13.7994 18.1667 13.6667 18.1667C13.5341 18.1667 13.407 18.114 13.3132 18.0202C13.2194 17.9265 13.1667 17.7993 13.1667 17.6667V11.9133C13.1667 11.7807 13.2194 11.6535 13.3132 11.5598C13.407 11.466 13.5341 11.4133 13.6667 11.4133C13.7994 11.4133 13.9265 11.466 14.0203 11.5598C14.1141 11.6535 14.1667 11.7807 14.1667 11.9133V17.6667Z" fill="black"/>
<path d="M17.9467 7.23331C17.0821 6.83057 16.1513 6.58884 15.2 6.51997C15.0256 5.80285 14.6153 5.16511 14.035 4.70907C13.4547 4.25303 12.7381 4.00513 12 4.00513C11.262 4.00513 10.5454 4.25303 9.96507 4.70907C9.38478 5.16511 8.9745 5.80285 8.80004 6.51997C7.88056 6.59414 6.97959 6.81939 6.13337 7.18664C5.90887 7.28395 5.71548 7.44117 5.57438 7.64107C5.43327 7.84097 5.34989 8.07584 5.33337 8.31997C5.33337 8.49678 5.40361 8.66635 5.52864 8.79138C5.65366 8.9164 5.82323 8.98664 6.00004 8.98664H18C18.1769 8.98664 18.3464 8.9164 18.4714 8.79138C18.5965 8.66635 18.6667 8.49678 18.6667 8.31997C18.6594 8.08986 18.5882 7.86632 18.461 7.67439C18.3339 7.48247 18.1558 7.32974 17.9467 7.23331V7.23331ZM12 5.33331C12.3583 5.33034 12.7103 5.42734 13.0165 5.61342C13.3227 5.79949 13.571 6.06726 13.7334 6.38664C12.5789 6.3167 11.4212 6.3167 10.2667 6.38664C10.4253 6.06423 10.6727 5.79383 10.9798 5.60723C11.2868 5.42063 11.6408 5.3256 12 5.33331V5.33331Z" fill="black"/>
</svg>
