<svg width="24" height="24" viewBox="0 0 24 24" fill="none" xmlns="http://www.w3.org/2000/svg">
<path d="M12 4C10.4178 4 8.87103 4.46919 7.55544 5.34824C6.23985 6.22729 5.21447 7.47672 4.60897 8.93853C4.00347 10.4003 3.84504 12.0089 4.15372 13.5607C4.4624 15.1126 5.22433 16.538 6.34315 17.6569C7.46197 18.7757 8.88743 19.5376 10.4393 19.8463C11.9911 20.155 13.5997 19.9965 15.0615 19.391C16.5233 18.7855 17.7727 17.7602 18.6518 16.4446C19.5308 15.129 20 13.5823 20 12C20 9.87827 19.1571 7.84344 17.6569 6.34315C16.1566 4.84285 14.1217 4 12 4V4ZM16.62 9.46667L12.0533 15.66C12.0002 15.7324 11.933 15.7933 11.8557 15.8391C11.7784 15.8849 11.6927 15.9146 11.6037 15.9265C11.5146 15.9383 11.4241 15.932 11.3376 15.908C11.251 15.884 11.1702 15.8427 11.1 15.7867L7.84 13.18C7.77152 13.125 7.71458 13.057 7.67247 12.9799C7.63035 12.9028 7.60389 12.8181 7.59459 12.7308C7.5853 12.6434 7.59336 12.5551 7.61832 12.4709C7.64327 12.3867 7.68463 12.3082 7.74 12.24C7.85078 12.1056 8.00977 12.0198 8.18296 12.0012C8.35614 11.9825 8.52976 12.0323 8.66667 12.14L11.3867 14.3133L15.5467 8.66667C15.6516 8.5261 15.8078 8.43257 15.9813 8.40636C16.1547 8.38015 16.3315 8.42338 16.4733 8.52667C16.5453 8.57824 16.6064 8.64364 16.6528 8.71906C16.6993 8.79447 16.7302 8.87838 16.7439 8.9659C16.7575 9.05341 16.7536 9.14277 16.7323 9.22875C16.7111 9.31473 16.6729 9.39561 16.62 9.46667V9.46667Z" fill="#111827"/>
</svg>
