<svg width="24" height="24" viewBox="0 0 24 24" fill="none" xmlns="http://www.w3.org/2000/svg">
<path d="M13.5333 12.1201C13.5174 12.1051 13.5047 12.087 13.496 12.067C13.4873 12.0469 13.4828 12.0253 13.4828 12.0034C13.4828 11.9815 13.4873 11.9599 13.496 11.9398C13.5047 11.9198 13.5174 11.9017 13.5333 11.8867L19.7067 5.70672C19.8002 5.61433 19.8745 5.50429 19.9251 5.38299C19.9758 5.26168 20.0019 5.13152 20.0019 5.00006C20.0019 4.86859 19.9758 4.73843 19.9251 4.61713C19.8745 4.49582 19.8002 4.38578 19.7067 4.29339C19.5183 4.10774 19.2645 4.00366 19 4.00366C18.7355 4.00366 18.4817 4.10774 18.2933 4.29339L12.12 10.4667C12.1045 10.4829 12.0858 10.4957 12.0652 10.5044C12.0446 10.5132 12.0224 10.5177 12 10.5177C11.9776 10.5177 11.9554 10.5132 11.9348 10.5044C11.9142 10.4957 11.8956 10.4829 11.88 10.4667L5.70668 4.29339C5.51833 4.10774 5.26448 4.00366 5.00002 4.00366C4.73555 4.00366 4.4817 4.10774 4.29335 4.29339C4.19982 4.38578 4.12557 4.49582 4.07489 4.61713C4.0242 4.73843 3.99811 4.86859 3.99811 5.00006C3.99811 5.13152 4.0242 5.26168 4.07489 5.38299C4.12557 5.50429 4.19982 5.61433 4.29335 5.70672L10.4667 11.8867C10.4826 11.9017 10.4953 11.9198 10.504 11.9398C10.5127 11.9599 10.5172 11.9815 10.5172 12.0034C10.5172 12.0253 10.5127 12.0469 10.504 12.067C10.4953 12.087 10.4826 12.1051 10.4667 12.1201L4.29335 18.2934C4.19982 18.3858 4.12557 18.4958 4.07489 18.6171C4.0242 18.7384 3.99811 18.8686 3.99811 19.0001C3.99811 19.1315 4.0242 19.2617 4.07489 19.383C4.12557 19.5043 4.19982 19.6143 4.29335 19.7067C4.4817 19.8924 4.73555 19.9965 5.00002 19.9965C5.26448 19.9965 5.51833 19.8924 5.70668 19.7067L11.88 13.5334C11.8956 13.5173 11.9142 13.5044 11.9348 13.4957C11.9554 13.4869 11.9776 13.4824 12 13.4824C12.0224 13.4824 12.0446 13.4869 12.0652 13.4957C12.0858 13.5044 12.1045 13.5173 12.12 13.5334L18.2933 19.7067C18.4817 19.8924 18.7355 19.9965 19 19.9965C19.2645 19.9965 19.5183 19.8924 19.7067 19.7067C19.8002 19.6143 19.8745 19.5043 19.9251 19.383C19.9758 19.2617 20.0019 19.1315 20.0019 19.0001C20.0019 18.8686 19.9758 18.7384 19.9251 18.6171C19.8745 18.4958 19.8002 18.3858 19.7067 18.2934L13.5333 12.1201Z" fill="#111827"/>
</svg>
