<svg width="24" height="24" viewBox="0 0 24 24" fill="none" xmlns="http://www.w3.org/2000/svg">
<path d="M8.08668 11.6534H15C15.7252 11.5782 16.3975 11.2393 16.8891 10.7009C17.3808 10.1626 17.6575 9.46238 17.6667 8.73338C17.666 8.34431 17.5865 7.95942 17.4329 7.60193C17.2794 7.24444 17.055 6.92176 16.7733 6.65338C16.302 6.1999 15.696 5.91208 15.0467 5.83338C15.0237 5.82974 15.0018 5.82133 14.9823 5.8087C14.9627 5.79607 14.9461 5.7795 14.9333 5.76005C14.5652 5.21533 14.0684 4.76977 13.487 4.46279C12.9056 4.1558 12.2575 3.99687 11.6 4.00005C10.7478 3.9974 9.91781 4.2716 9.2349 4.78138C8.55198 5.29115 8.05311 6.00894 7.81334 6.82671C7.80318 6.85879 7.7839 6.88722 7.75786 6.90853C7.73181 6.92984 7.70013 6.94311 7.66667 6.94671C7.21093 7.00256 6.78067 7.18762 6.42667 7.48005C6.1528 7.70111 5.93297 7.98176 5.78394 8.30062C5.63491 8.61947 5.5606 8.96813 5.56667 9.32005C5.56015 9.62441 5.61593 9.9269 5.73057 10.2089C5.84521 10.4909 6.01631 10.7466 6.23334 10.96C6.74894 11.4043 7.40608 11.6502 8.08668 11.6534V11.6534ZM7.27334 8.51338C7.47479 8.34919 7.7268 8.25969 7.98668 8.26005C8.06431 8.25346 8.14237 8.25346 8.22001 8.26005C8.31016 8.27611 8.40266 8.27344 8.49173 8.25218C8.5808 8.23093 8.66454 8.19155 8.73772 8.13651C8.8109 8.08147 8.87196 8.01194 8.91709 7.93226C8.96221 7.85257 8.99044 7.76445 9.00001 7.67338C9.05423 7.02097 9.35569 6.41394 9.84273 5.97648C10.3298 5.53902 10.9655 5.30419 11.62 5.32005C12.1074 5.32147 12.5851 5.45645 13.0012 5.71033C13.4173 5.96421 13.7558 6.32726 13.98 6.76005C14.0364 6.87537 14.125 6.97194 14.2349 7.03817C14.3449 7.1044 14.4717 7.13746 14.6 7.13338C14.8286 7.12291 15.0569 7.15887 15.2711 7.23907C15.4854 7.31928 15.6812 7.44208 15.8467 7.60005C16.0004 7.7447 16.1228 7.91928 16.2065 8.11304C16.2902 8.30681 16.3334 8.51565 16.3333 8.72671C16.3194 9.12695 16.1613 9.50867 15.8881 9.80148C15.6149 10.0943 15.245 10.2785 14.8467 10.32H8.10001C7.75351 10.3094 7.41854 10.1931 7.14001 9.98671C6.97549 9.80468 6.88927 9.56518 6.90001 9.32005C6.89479 9.16576 6.92585 9.01239 6.99069 8.87229C7.05553 8.73219 7.15234 8.60926 7.27334 8.51338V8.51338Z" fill="black"/>
<path d="M17.6667 16.6533H5.66667C5.48986 16.6533 5.32029 16.7236 5.19526 16.8486C5.07024 16.9736 5 17.1432 5 17.32V19.32C5 19.4968 5.07024 19.6664 5.19526 19.7914C5.32029 19.9164 5.48986 19.9867 5.66667 19.9867H17.6667C17.8435 19.9867 18.013 19.9164 18.1381 19.7914C18.2631 19.6664 18.3333 19.4968 18.3333 19.32V17.32C18.3333 17.1432 18.2631 16.9736 18.1381 16.8486C18.013 16.7236 17.8435 16.6533 17.6667 16.6533ZM7.48667 18.9867C7.35481 18.9867 7.22592 18.9476 7.11629 18.8743C7.00665 18.801 6.92121 18.6969 6.87075 18.5751C6.82029 18.4533 6.80709 18.3192 6.83281 18.1899C6.85853 18.0606 6.92203 17.9418 7.01526 17.8486C7.1085 17.7553 7.22729 17.6919 7.35661 17.6661C7.48593 17.6404 7.61997 17.6536 7.74179 17.7041C7.86361 17.7545 7.96773 17.84 8.04098 17.9496C8.11423 18.0592 8.15333 18.1881 8.15333 18.32C8.15333 18.4968 8.0831 18.6664 7.95807 18.7914C7.83305 18.9164 7.66348 18.9867 7.48667 18.9867ZM10.1533 18.9867C10.0215 18.9867 9.89259 18.9476 9.78295 18.8743C9.67332 18.801 9.58787 18.6969 9.53741 18.5751C9.48696 18.4533 9.47375 18.3192 9.49948 18.1899C9.5252 18.0606 9.58869 17.9418 9.68193 17.8486C9.77516 17.7553 9.89395 17.6919 10.0233 17.6661C10.1526 17.6404 10.2866 17.6536 10.4085 17.7041C10.5303 17.7545 10.6344 17.84 10.7076 17.9496C10.7809 18.0592 10.82 18.1881 10.82 18.32C10.82 18.4945 10.7516 18.6621 10.6295 18.7867C10.5073 18.9114 10.3412 18.9832 10.1667 18.9867H10.1533Z" fill="black"/>
<path d="M17.6667 12.6533H5.66667C5.48986 12.6533 5.32029 12.7236 5.19526 12.8486C5.07024 12.9736 5 13.1432 5 13.32V15.32C5 15.4968 5.07024 15.6664 5.19526 15.7914C5.32029 15.9164 5.48986 15.9867 5.66667 15.9867H17.6667C17.8435 15.9867 18.013 15.9164 18.1381 15.7914C18.2631 15.6664 18.3333 15.4968 18.3333 15.32V13.32C18.3333 13.1432 18.2631 12.9736 18.1381 12.8486C18.013 12.7236 17.8435 12.6533 17.6667 12.6533ZM7.48667 14.9867C7.35481 14.9867 7.22592 14.9476 7.11629 14.8743C7.00665 14.801 6.92121 14.6969 6.87075 14.5751C6.82029 14.4533 6.80709 14.3192 6.83281 14.1899C6.85853 14.0606 6.92203 13.9418 7.01526 13.8486C7.1085 13.7553 7.22729 13.6919 7.35661 13.6661C7.48593 13.6404 7.61997 13.6536 7.74179 13.7041C7.86361 13.7545 7.96773 13.84 8.04098 13.9496C8.11423 14.0592 8.15333 14.1881 8.15333 14.32C8.15333 14.4968 8.0831 14.6664 7.95807 14.7914C7.83305 14.9164 7.66348 14.9867 7.48667 14.9867ZM10.1533 14.9867C10.0215 14.9867 9.89259 14.9476 9.78295 14.8743C9.67332 14.801 9.58787 14.6969 9.53741 14.5751C9.48696 14.4533 9.47375 14.3192 9.49948 14.1899C9.5252 14.0606 9.58869 13.9418 9.68193 13.8486C9.77516 13.7553 9.89395 13.6919 10.0233 13.6661C10.1526 13.6404 10.2866 13.6536 10.4085 13.7041C10.5303 13.7545 10.6344 13.84 10.7076 13.9496C10.7809 14.0592 10.82 14.1881 10.82 14.32C10.82 14.4945 10.7516 14.6621 10.6295 14.7867C10.5073 14.9114 10.3412 14.9832 10.1667 14.9867H10.1533Z" fill="black"/>
</svg>
