<svg width="24" height="24" viewBox="0 0 24 24" fill="none" xmlns="http://www.w3.org/2000/svg">
<path d="M18.9467 10.5068L18.1067 10.2068C17.985 10.1651 17.8738 10.0977 17.7806 10.0091C17.6874 9.92047 17.6144 9.8128 17.5667 9.69342C17.5154 9.57679 17.489 9.4508 17.489 9.32342C17.489 9.19604 17.5154 9.07004 17.5667 8.95342V8.95342L18 8.14008C18.1408 7.84525 18.1868 7.51401 18.1315 7.19198C18.0763 6.86995 17.9225 6.57297 17.6915 6.34193C17.4605 6.1109 17.1635 5.95717 16.8414 5.90191C16.5194 5.84666 16.1882 5.89261 15.8933 6.03342L15.08 6.42008C14.9629 6.46941 14.8371 6.49481 14.71 6.49481C14.5829 6.49481 14.4571 6.46941 14.34 6.42008C14.222 6.37015 14.1154 6.29643 14.0271 6.20353C13.9388 6.11062 13.8706 6.00052 13.8267 5.88008L13.5267 5.03342C13.4162 4.72584 13.2135 4.45987 12.9463 4.27184C12.679 4.08382 12.3601 3.98291 12.0333 3.98291C11.7065 3.98291 11.3877 4.08382 11.1204 4.27184C10.8531 4.45987 10.6504 4.72584 10.54 5.03342L10.2067 5.90008C10.1628 6.02052 10.0945 6.13062 10.0062 6.22353C9.91791 6.31643 9.8114 6.39015 9.69334 6.44008C9.57622 6.48941 9.45042 6.51481 9.32334 6.51481C9.19626 6.51481 9.07046 6.48941 8.95334 6.44008L8.14001 6.03342C7.84517 5.89261 7.51393 5.84666 7.1919 5.90191C6.86987 5.95717 6.57289 6.1109 6.34186 6.34193C6.11082 6.57297 5.95709 6.86995 5.90184 7.19198C5.84659 7.51401 5.89253 7.84525 6.03334 8.14008L6.42001 8.95342C6.47124 9.07004 6.49769 9.19604 6.49769 9.32342C6.49769 9.4508 6.47124 9.57679 6.42001 9.69342C6.37225 9.8128 6.29928 9.92047 6.20608 10.0091C6.11288 10.0977 6.00166 10.1651 5.88001 10.2068L5.04001 10.5068C4.73244 10.6172 4.46646 10.8199 4.27844 11.0872C4.09041 11.3545 3.9895 11.6733 3.9895 12.0001C3.9895 12.3269 4.09041 12.6457 4.27844 12.913C4.46646 13.1803 4.73244 13.383 5.04001 13.4934L5.88001 13.7934C6.00166 13.8351 6.11288 13.9025 6.20608 13.9911C6.29928 14.0797 6.37225 14.1874 6.42001 14.3068C6.47124 14.4234 6.49769 14.5494 6.49769 14.6768C6.49769 14.8041 6.47124 14.9301 6.42001 15.0468L6.03334 15.8601C5.88056 16.156 5.82517 16.4926 5.87509 16.8218C5.925 17.151 6.07766 17.4561 6.31127 17.6934C6.54489 17.9307 6.84751 18.0881 7.17592 18.1432C7.50434 18.1983 7.84176 18.1482 8.14001 18.0001L8.95334 17.6201C9.06953 17.5672 9.19569 17.5399 9.32334 17.5399C9.45099 17.5399 9.57716 17.5672 9.69334 17.6201C9.81205 17.669 9.91913 17.7423 10.0076 17.8354C10.096 17.9284 10.1639 18.0391 10.2067 18.1601L10.5067 19.0001C10.6171 19.3077 10.8198 19.5736 11.0871 19.7617C11.3544 19.9497 11.6732 20.0506 12 20.0506C12.3268 20.0506 12.6456 19.9497 12.9129 19.7617C13.1802 19.5736 13.3829 19.3077 13.4933 19.0001L13.7933 18.1601C13.8362 18.0391 13.904 17.9284 13.9924 17.8354C14.0809 17.7423 14.188 17.669 14.3067 17.6201C14.4229 17.5672 14.549 17.5399 14.6767 17.5399C14.8043 17.5399 14.9305 17.5672 15.0467 17.6201L15.86 18.0001C16.1592 18.161 16.5022 18.2213 16.8383 18.1719C17.1744 18.1225 17.4856 17.9661 17.7258 17.7259C17.966 17.4857 18.1224 17.1745 18.1718 16.8384C18.2212 16.5023 18.161 16.1592 18 15.8601L17.6133 15.0468C17.5621 14.9301 17.5357 14.8041 17.5357 14.6768C17.5357 14.5494 17.5621 14.4234 17.6133 14.3068C17.6611 14.1874 17.7341 14.0797 17.8273 13.9911C17.9205 13.9025 18.0317 13.8351 18.1533 13.7934L18.9933 13.4934C19.3009 13.383 19.5669 13.1803 19.7549 12.913C19.9429 12.6457 20.0439 12.3269 20.0439 12.0001C20.0439 11.6733 19.9429 11.3545 19.7549 11.0872C19.5669 10.8199 19.3009 10.6172 18.9933 10.5068H18.9467ZM12 15.1934C11.3714 15.1782 10.7598 14.9854 10.2361 14.6374C9.7123 14.2894 9.29765 13.8004 9.04001 13.2268C8.87836 12.8381 8.79498 12.4214 8.79464 12.0005C8.7943 11.5795 8.877 11.1627 9.03801 10.7738C9.19903 10.3849 9.43518 10.0315 9.73296 9.73405C10.0307 9.43656 10.3843 9.20073 10.7733 9.04008C11.5594 8.72625 12.437 8.73181 13.2191 9.05559C14.0011 9.37937 14.6258 9.99576 14.96 10.7734C15.1217 11.1621 15.205 11.5788 15.2054 11.9997C15.2057 12.4206 15.123 12.8375 14.962 13.2264C14.801 13.6153 14.5648 13.9686 14.2671 14.2661C13.9693 14.5636 13.6157 14.7994 13.2267 14.9601C12.8385 15.1225 12.4207 15.2019 12 15.1934V15.1934Z" fill="#111827"/>
</svg>
