<svg width="24" height="24" viewBox="0 0 24 24" fill="none" xmlns="http://www.w3.org/2000/svg">
<path d="M18.6667 8.22C18.6668 8.04406 18.6322 7.86983 18.5647 7.70735C18.4971 7.54488 18.3982 7.39737 18.2734 7.27333L15.3934 4.39333C15.2693 4.26855 15.1218 4.16956 14.9594 4.10205C14.7969 4.03454 14.6226 3.99986 14.4467 4H11.8334C11.7892 4 11.7468 4.01756 11.7155 4.04882C11.6843 4.08007 11.6667 4.12246 11.6667 4.16667V11.6C11.6668 11.6325 11.6574 11.6644 11.6396 11.6916C11.6219 11.7189 11.5965 11.7403 11.5667 11.7533C11.5351 11.7657 11.5006 11.7685 11.4674 11.7613C11.4342 11.7542 11.4038 11.7375 11.38 11.7133L10.12 10.4533C10.1045 10.4372 10.0859 10.4244 10.0652 10.4156C10.0446 10.4068 10.0224 10.4023 10 10.4023C9.97764 10.4023 9.95546 10.4068 9.93485 10.4156C9.91423 10.4244 9.89559 10.4372 9.88004 10.4533L8.62004 11.7133C8.5973 11.737 8.56809 11.7534 8.53608 11.7605C8.50406 11.7676 8.47065 11.7651 8.44004 11.7533C8.40898 11.7414 8.38222 11.7203 8.36321 11.693C8.3442 11.6657 8.33381 11.6333 8.33337 11.6V4.16667C8.33337 4.12246 8.31581 4.08007 8.28456 4.04882C8.2533 4.01756 8.21091 4 8.16671 4H6.66671C6.31309 4 5.97395 4.14048 5.7239 4.39052C5.47385 4.64057 5.33337 4.97971 5.33337 5.33333V18.6667C5.33337 19.0203 5.47385 19.3594 5.7239 19.6095C5.97395 19.8595 6.31309 20 6.66671 20H17.3334C17.687 20 18.0261 19.8595 18.2762 19.6095C18.5262 19.3594 18.6667 19.0203 18.6667 18.6667V8.22Z" fill="black"/>
</svg>
