<svg width="24" height="24" viewBox="0 0 24 24" fill="none" xmlns="http://www.w3.org/2000/svg">
<path d="M14.5333 20.0001H7.19995C6.66952 20.0001 6.16081 19.7894 5.78574 19.4143C5.41066 19.0393 5.19995 18.5306 5.19995 18.0001V13.6668C5.19995 13.49 5.27019 13.3204 5.39521 13.1954C5.52024 13.0704 5.68981 13.0001 5.86662 13.0001C6.04343 13.0001 6.213 13.0704 6.33802 13.1954C6.46305 13.3204 6.53328 13.49 6.53328 13.6668V18.0001C6.53328 18.1769 6.60352 18.3465 6.72855 18.4715C6.85357 18.5966 7.02314 18.6668 7.19995 18.6668H14.5333C14.7101 18.6668 14.8797 18.5966 15.0047 18.4715C15.1297 18.3465 15.1999 18.1769 15.1999 18.0001V13.6668C15.1999 13.49 15.2702 13.3204 15.3952 13.1954C15.5202 13.0704 15.6898 13.0001 15.8666 13.0001C16.0434 13.0001 16.213 13.0704 16.338 13.1954C16.463 13.3204 16.5333 13.49 16.5333 13.6668V18.0001C16.5333 18.5306 16.3226 19.0393 15.9475 19.4143C15.5724 19.7894 15.0637 20.0001 14.5333 20.0001V20.0001Z" fill="black"/>
<path d="M13.5333 17.3335H8.19999C8.02318 17.3335 7.85361 17.2632 7.72859 17.1382C7.60356 17.0132 7.53333 16.8436 7.53333 16.6668C7.53333 16.49 7.60356 16.3204 7.72859 16.1954C7.85361 16.0704 8.02318 16.0001 8.19999 16.0001H13.5333C13.7101 16.0001 13.8797 16.0704 14.0047 16.1954C14.1298 16.3204 14.2 16.49 14.2 16.6668C14.2 16.8436 14.1298 17.0132 14.0047 17.1382C13.8797 17.2632 13.7101 17.3335 13.5333 17.3335Z" fill="black"/>
<path d="M13.7866 15.5135C13.7402 15.52 13.693 15.52 13.6466 15.5135L8.43327 14.3935C8.25646 14.3572 8.10129 14.2522 8.0019 14.1016C7.9025 13.9509 7.86702 13.7669 7.90327 13.5901C7.93952 13.4133 8.04452 13.2581 8.19517 13.1588C8.34583 13.0594 8.52979 13.0239 8.7066 13.0601L13.9266 14.1668C14.0125 14.185 14.0939 14.22 14.1663 14.2698C14.2386 14.3195 14.3004 14.3831 14.3481 14.4568C14.3958 14.5305 14.4285 14.6129 14.4442 14.6993C14.46 14.7857 14.4585 14.8743 14.4399 14.9601C14.4133 15.1144 14.3333 15.2544 14.2138 15.3555C14.0944 15.4567 13.9431 15.5126 13.7866 15.5135Z" fill="black"/>
<path d="M14.4133 13.8134C14.3194 13.815 14.2263 13.7969 14.1399 13.76L9.26659 11.5934C9.18648 11.5579 9.11415 11.507 9.05371 11.4436C8.99327 11.3802 8.94591 11.3055 8.91434 11.2238C8.88276 11.1421 8.8676 11.0549 8.8697 10.9674C8.8718 10.8798 8.89113 10.7935 8.92659 10.7134C8.96205 10.6333 9.01293 10.5609 9.07635 10.5005C9.13976 10.44 9.21446 10.3927 9.29617 10.3611C9.37789 10.3295 9.46502 10.3144 9.5526 10.3165C9.64018 10.3186 9.72648 10.3379 9.80659 10.3734L14.6666 12.54C14.8044 12.6028 14.9168 12.7106 14.9852 12.8457C15.0535 12.9808 15.0739 13.1352 15.0428 13.2834C15.0118 13.4316 14.9312 13.5649 14.8144 13.6612C14.6975 13.7575 14.5513 13.8112 14.3999 13.8134H14.4133Z" fill="black"/>
<path d="M15.3732 12.2867C15.2336 12.2839 15.0983 12.2372 14.9866 12.1534L10.6666 9.02672C10.5917 8.97714 10.5275 8.91293 10.478 8.83794C10.4286 8.76295 10.3947 8.67873 10.3786 8.59035C10.3625 8.50196 10.3644 8.41123 10.3842 8.3236C10.4041 8.23597 10.4414 8.15325 10.494 8.08042C10.5466 8.00758 10.6134 7.94613 10.6903 7.89975C10.7673 7.85338 10.8528 7.82304 10.9418 7.81055C11.0308 7.79806 11.1214 7.80369 11.2081 7.82709C11.2948 7.85049 11.376 7.89118 11.4466 7.94672L15.7666 11.0801C15.9063 11.1839 15.9999 11.3383 16.0273 11.5102C16.0547 11.6821 16.0138 11.8579 15.9133 12.0001C15.8526 12.0874 15.772 12.1591 15.678 12.2089C15.5841 12.2588 15.4796 12.2855 15.3732 12.2867Z" fill="black"/>
<path d="M16.6667 10.9868C16.5736 10.9865 16.4817 10.9668 16.3967 10.929C16.3118 10.8911 16.2357 10.8358 16.1733 10.7668L12.5667 6.80675C12.4602 6.67422 12.4084 6.50603 12.4219 6.33658C12.4353 6.16713 12.513 6.00921 12.639 5.89512C12.765 5.78104 12.9299 5.71939 13.0998 5.72279C13.2698 5.72619 13.432 5.79438 13.5533 5.91342L17.1267 9.87342C17.2448 10.0044 17.3063 10.1769 17.2975 10.3531C17.2888 10.5292 17.2106 10.6948 17.08 10.8134C16.9664 10.9172 16.8203 10.9784 16.6667 10.9868Z" fill="black"/>
<path d="M18.14 10.0001C18.0225 10.0006 17.907 9.96997 17.8052 9.91144C17.7033 9.8529 17.6187 9.76849 17.56 9.66676L14.8933 5.05342C14.8455 4.97734 14.8136 4.89237 14.7994 4.80362C14.7853 4.71488 14.7892 4.6242 14.811 4.53702C14.8328 4.44984 14.872 4.36796 14.9263 4.29631C14.9805 4.22467 15.0487 4.16472 15.1267 4.12009C15.2789 4.03262 15.4596 4.00876 15.6293 4.05369C15.7991 4.09863 15.9443 4.20873 16.0333 4.36009L18.7 8.97342C18.7646 9.07407 18.8009 9.19023 18.8051 9.30973C18.8094 9.42923 18.7814 9.54768 18.7242 9.65266C18.6669 9.75764 18.5825 9.84528 18.4797 9.90641C18.3769 9.96753 18.2596 9.99989 18.14 10.0001Z" fill="black"/>
</svg>
