<svg width="24" height="24" viewBox="0 0 24 24" fill="none" xmlns="http://www.w3.org/2000/svg">
<path d="M4 19.3333C4 19.5101 4.07024 19.6797 4.19526 19.8047C4.32029 19.9298 4.48986 20 4.66667 20H8C8.13162 19.9993 8.26009 19.9597 8.36924 19.8862C8.47839 19.8126 8.56332 19.7084 8.61333 19.5867C8.66439 19.4653 8.67833 19.3315 8.65342 19.2021C8.6285 19.0728 8.56584 18.9538 8.47333 18.86L7.51333 17.9C7.49739 17.885 7.48468 17.867 7.476 17.8469C7.46731 17.8268 7.46283 17.8052 7.46283 17.7833C7.46283 17.7615 7.46731 17.7398 7.476 17.7198C7.48468 17.6997 7.49739 17.6816 7.51333 17.6667L10.2533 14.92C10.4089 14.7644 10.4963 14.5534 10.4963 14.3333C10.4963 14.1133 10.4089 13.9023 10.2533 13.7467C10.0977 13.5911 9.88671 13.5037 9.66667 13.5037C9.44662 13.5037 9.23559 13.5911 9.08 13.7467L6.33333 16.4867C6.31837 16.5026 6.3003 16.5153 6.28023 16.524C6.26017 16.5327 6.23853 16.5372 6.21667 16.5372C6.1948 16.5372 6.17317 16.5327 6.1531 16.524C6.13304 16.5153 6.11496 16.5026 6.1 16.4867L5.14 15.5267C5.04625 15.4342 4.9272 15.3715 4.79788 15.3466C4.66855 15.3217 4.53474 15.3356 4.41333 15.3867C4.29159 15.4367 4.18737 15.5216 4.11381 15.6308C4.04026 15.7399 4.00066 15.8684 4 16V19.3333Z" fill="black"/>
<path d="M20 4.66667C20 4.48986 19.9298 4.32029 19.8048 4.19526C19.6797 4.07024 19.5102 4 19.3334 4H16C15.8684 4.00066 15.7399 4.04026 15.6308 4.11381C15.5216 4.18737 15.4367 4.29159 15.3867 4.41333C15.3356 4.53474 15.3217 4.66855 15.3466 4.79788C15.3715 4.9272 15.4342 5.04625 15.5267 5.14L16.4867 6.1C16.5026 6.11496 16.5154 6.13304 16.524 6.1531C16.5327 6.17317 16.5372 6.1948 16.5372 6.21667C16.5372 6.23853 16.5327 6.26017 16.524 6.28023C16.5154 6.3003 16.5026 6.31837 16.4867 6.33333L13.7467 9.08C13.6693 9.15684 13.6079 9.24824 13.5659 9.34892C13.524 9.44961 13.5024 9.5576 13.5024 9.66667C13.5024 9.77573 13.524 9.88372 13.5659 9.98441C13.6079 10.0851 13.6693 10.1765 13.7467 10.2533C13.8231 10.3315 13.9143 10.3937 14.0151 10.4361C14.1158 10.4786 14.224 10.5004 14.3334 10.5004C14.4427 10.5004 14.5509 10.4786 14.6517 10.4361C14.7524 10.3937 14.8437 10.3315 14.92 10.2533L17.6667 7.51333C17.6817 7.49739 17.6997 7.48468 17.7198 7.476C17.7399 7.46731 17.7615 7.46283 17.7834 7.46283C17.8052 7.46283 17.8269 7.46731 17.8469 7.476C17.867 7.48468 17.8851 7.49739 17.9 7.51333L18.86 8.47333C18.9223 8.53512 18.9962 8.584 19.0774 8.61718C19.1587 8.65036 19.2456 8.66717 19.3334 8.66667C19.5102 8.66667 19.6797 8.59643 19.8048 8.4714C19.9298 8.34638 20 8.17681 20 8V4.66667Z" fill="black"/>
</svg>
