<svg width="24" height="24" viewBox="0 0 24 24" fill="none" xmlns="http://www.w3.org/2000/svg">
<path d="M15.3334 7.99995H17.9334C17.9664 7.99949 17.9985 7.98923 18.0257 7.97047C18.0529 7.95171 18.0739 7.92529 18.0861 7.89458C18.0982 7.86386 18.1009 7.83023 18.0939 7.79795C18.0869 7.76567 18.0705 7.7362 18.0467 7.71328L14.62 4.28662C14.5971 4.26283 14.5677 4.24639 14.5354 4.23939C14.5031 4.23238 14.4695 4.23513 14.4387 4.24727C14.408 4.25941 14.3816 4.28041 14.3629 4.30759C14.3441 4.33478 14.3338 4.36692 14.3334 4.39995V6.99995C14.3334 7.26517 14.4387 7.51952 14.6263 7.70706C14.8138 7.89459 15.0682 7.99995 15.3334 7.99995Z" fill="black"/>
<path d="M11.88 13C11.803 13 11.7267 13.0152 11.6555 13.0447C11.5843 13.0741 11.5196 13.1174 11.4652 13.1718C11.4107 13.2263 11.3675 13.291 11.338 13.3622C11.3085 13.4333 11.2933 13.5096 11.2933 13.5867V15.2533C11.3087 15.3973 11.3768 15.5305 11.4845 15.6272C11.5922 15.724 11.7319 15.7775 11.8767 15.7775C12.0214 15.7775 12.1611 15.724 12.2688 15.6272C12.3765 15.5305 12.4446 15.3973 12.46 15.2533V13.5867C12.4609 13.5099 12.4465 13.4338 12.4178 13.3627C12.389 13.2915 12.3464 13.2268 12.2925 13.1722C12.2386 13.1177 12.1743 13.0743 12.1035 13.0448C12.0327 13.0152 11.9567 13 11.88 13V13Z" fill="black"/>
<path d="M18.1667 8.66667H15.3333C14.8913 8.66667 14.4674 8.49107 14.1548 8.17851C13.8423 7.86595 13.6667 7.44203 13.6667 7V4.16667C13.6667 4.12246 13.6491 4.08007 13.6179 4.04882C13.5866 4.01756 13.5442 4 13.5 4H6.33333C5.97971 4 5.64057 4.14048 5.39052 4.39052C5.14048 4.64057 5 4.97971 5 5.33333V18.6667C5 19.0203 5.14048 19.3594 5.39052 19.6095C5.64057 19.8595 5.97971 20 6.33333 20H17C17.3536 20 17.6928 19.8595 17.9428 19.6095C18.1929 19.3594 18.3333 19.0203 18.3333 18.6667V8.83333C18.3333 8.78913 18.3158 8.74674 18.2845 8.71548C18.2533 8.68423 18.2109 8.66667 18.1667 8.66667ZM8.16667 13.8267L9.39333 14.6667C9.61281 14.8234 9.7775 15.0451 9.86413 15.3005C9.95075 15.5559 9.95494 15.8321 9.87609 16.09C9.79725 16.3479 9.63936 16.5745 9.42473 16.7378C9.2101 16.9011 8.94959 16.9928 8.68 17H7.54667C7.48753 17.0075 7.42747 17.0023 7.37048 16.9848C7.3135 16.9673 7.2609 16.9379 7.21617 16.8984C7.17144 16.859 7.13562 16.8105 7.11108 16.7562C7.08655 16.7019 7.07386 16.6429 7.07386 16.5833C7.07386 16.5237 7.08655 16.4648 7.11108 16.4105C7.13562 16.3561 7.17144 16.3076 7.21617 16.2682C7.2609 16.2288 7.3135 16.1994 7.37048 16.1819C7.42747 16.1644 7.48753 16.1592 7.54667 16.1667H8.68C8.73922 16.1667 8.79785 16.1549 8.85249 16.132C8.90712 16.1092 8.95666 16.0757 8.99822 16.0335C9.03979 15.9913 9.07255 15.9413 9.0946 15.8863C9.11665 15.8313 9.12755 15.7725 9.12667 15.7133C9.12624 15.6395 9.1078 15.5669 9.07295 15.5019C9.03809 15.4368 8.98788 15.3812 8.92667 15.34L7.7 14.52C7.472 14.3662 7.29927 14.1434 7.20716 13.8843C7.11505 13.6251 7.10839 13.3433 7.18817 13.0801C7.26795 12.8169 7.42997 12.5862 7.65046 12.4218C7.87095 12.2574 8.13831 12.168 8.41333 12.1667H9.54667C9.6481 12.1795 9.74136 12.2289 9.80896 12.3056C9.87656 12.3824 9.91386 12.4811 9.91386 12.5833C9.91386 12.6856 9.87656 12.7843 9.80896 12.861C9.74136 12.9377 9.6481 12.9871 9.54667 13H8.41333C8.29364 13.0017 8.17933 13.05 8.09468 13.1347C8.01004 13.2193 7.96172 13.3336 7.96 13.4533C7.95995 13.528 7.97889 13.6014 8.01505 13.6667C8.0512 13.732 8.10338 13.7871 8.16667 13.8267V13.8267ZM13.2933 15.2533C13.29 15.4901 13.2272 15.7223 13.1107 15.9285C12.9942 16.1346 12.8277 16.3082 12.6267 16.4333C12.6184 16.4395 12.6117 16.4476 12.607 16.4569C12.6024 16.4661 12.6 16.4763 12.6 16.4867C12.6 16.497 12.6024 16.5072 12.607 16.5165C12.6117 16.5257 12.6184 16.5338 12.6267 16.54L13.1133 16.9267C13.1975 16.9958 13.2515 17.095 13.2639 17.2032C13.2764 17.3114 13.2463 17.4202 13.18 17.5067C13.1116 17.5938 13.0116 17.6503 12.9018 17.664C12.7919 17.6778 12.681 17.6476 12.5933 17.58L11.3333 16.56C11.0711 16.4506 10.8476 16.2651 10.6919 16.0274C10.5363 15.7897 10.4555 15.5108 10.46 15.2267V13.56C10.4467 13.3658 10.4734 13.1709 10.5386 12.9875C10.6037 12.804 10.7059 12.6359 10.8388 12.4937C10.9716 12.3514 11.1323 12.2379 11.3109 12.1604C11.4894 12.0828 11.682 12.0428 11.8767 12.0428C12.0713 12.0428 12.2639 12.0828 12.4425 12.1604C12.621 12.2379 12.7817 12.3514 12.9146 12.4937C13.0474 12.6359 13.1496 12.804 13.2148 12.9875C13.2799 13.1709 13.3067 13.3658 13.2933 13.56V15.2533ZM16.2133 17H14.88C14.5929 17 14.3176 16.8864 14.114 16.6841C13.9104 16.4817 13.7951 16.207 13.7933 15.92V12.5867C13.7858 12.5275 13.791 12.4675 13.8085 12.4105C13.826 12.3535 13.8555 12.3009 13.8949 12.2562C13.9343 12.2114 13.9828 12.1756 14.0371 12.1511C14.0915 12.1265 14.1504 12.1139 14.21 12.1139C14.2696 12.1139 14.3285 12.1265 14.3829 12.1511C14.4372 12.1756 14.4857 12.2114 14.5251 12.2562C14.5645 12.3009 14.594 12.3535 14.6115 12.4105C14.629 12.4675 14.6342 12.5275 14.6267 12.5867V15.92C14.6284 15.986 14.6559 16.0488 14.7032 16.0948C14.7505 16.1409 14.814 16.1667 14.88 16.1667H16.2133C16.3148 16.1795 16.408 16.2289 16.4756 16.3056C16.5432 16.3824 16.5805 16.4811 16.5805 16.5833C16.5805 16.6856 16.5432 16.7843 16.4756 16.861C16.408 16.9377 16.3148 16.9871 16.2133 17V17Z" fill="black"/>
</svg>
