<svg width="24" height="24" viewBox="0 0 24 24" fill="none" xmlns="http://www.w3.org/2000/svg">
<path d="M18.2734 7.27333L15.3934 4.39333C15.2693 4.26855 15.1218 4.16956 14.9594 4.10205C14.7969 4.03454 14.6226 3.99986 14.4467 4H6.66671C6.31309 4 5.97395 4.14048 5.7239 4.39052C5.47385 4.64057 5.33337 4.97971 5.33337 5.33333V18.6667C5.33337 19.0203 5.47385 19.3594 5.7239 19.6095C5.97395 19.8595 6.31309 20 6.66671 20H17.3334C17.687 20 18.0261 19.8595 18.2762 19.6095C18.5262 19.3594 18.6667 19.0203 18.6667 18.6667V8.22C18.6668 8.04406 18.6322 7.86983 18.5647 7.70735C18.4971 7.54488 18.3982 7.39737 18.2734 7.27333V7.27333ZM15.1667 16.32C15.1667 16.74 13.8334 17.5 11.66 17.5C9.48671 17.5 8.17337 16.74 8.17337 16.3533V15.3733C8.17312 15.3451 8.18033 15.3174 8.19427 15.2928C8.20821 15.2683 8.22838 15.2479 8.25275 15.2337C8.27711 15.2195 8.3048 15.212 8.33301 15.2119C8.36122 15.2118 8.38895 15.2192 8.41337 15.2333C9.44018 15.6653 10.5463 15.8765 11.66 15.8533C12.7843 15.8691 13.8986 15.6417 14.9267 15.1867C14.9511 15.1726 14.9789 15.1652 15.0071 15.1652C15.0353 15.1653 15.063 15.1728 15.0873 15.187C15.1117 15.2012 15.1319 15.2216 15.1458 15.2462C15.1598 15.2707 15.167 15.2985 15.1667 15.3267V16.32ZM15.1667 13.6533C15.1667 14.0667 13.8334 14.8267 11.66 14.8267C9.48671 14.8267 8.17337 14.0667 8.17337 13.68V12.6667C8.17388 12.6386 8.18145 12.6112 8.19538 12.5868C8.20932 12.5625 8.22917 12.5421 8.25311 12.5274C8.27704 12.5128 8.30427 12.5045 8.33229 12.5032C8.3603 12.5019 8.38819 12.5077 8.41337 12.52C9.43868 12.9575 10.5456 13.1712 11.66 13.1467C12.7845 13.1657 13.8996 12.9381 14.9267 12.48C14.9519 12.4677 14.9798 12.4619 15.0078 12.4632C15.0358 12.4645 15.063 12.4728 15.087 12.4874C15.1109 12.5021 15.1308 12.5225 15.1447 12.5468C15.1586 12.5712 15.1662 12.5986 15.1667 12.6267V13.6533ZM11.66 12.1333C9.40671 12.1333 8.17337 11.3733 8.17337 10.9867C8.17337 10.6 9.40671 9.83333 11.66 9.83333C13.9134 9.83333 15.1667 10.58 15.1667 10.96C15.1667 11.34 13.8334 12.1333 11.66 12.1333Z" fill="#111827"/>
</svg>
