<svg width="24" height="24" viewBox="0 0 24 24" fill="none" xmlns="http://www.w3.org/2000/svg">
<path d="M18.6667 4H7.94C7.58695 4.00149 7.2489 4.14294 7 4.39333L4.39333 7C4.14294 7.2489 4.00149 7.58695 4 7.94V18.6667C4 19.0203 4.14048 19.3594 4.39052 19.6095C4.64057 19.8595 4.97971 20 5.33333 20H18.6667C19.0203 20 19.3594 19.8595 19.6095 19.6095C19.8595 19.3594 20 19.0203 20 18.6667V5.33333C20 4.97971 19.8595 4.64057 19.6095 4.39052C19.3594 4.14048 19.0203 4 18.6667 4V4ZM16.3333 5.33333C16.4217 5.33333 16.5065 5.36845 16.569 5.43096C16.6315 5.49348 16.6667 5.57826 16.6667 5.66667V8.33333C16.6667 8.59855 16.5613 8.8529 16.3738 9.04044C16.1862 9.22798 15.9319 9.33333 15.6667 9.33333H9C8.73478 9.33333 8.48043 9.22798 8.29289 9.04044C8.10536 8.8529 8 8.59855 8 8.33333V5.66667C8 5.57826 8.03512 5.49348 8.09763 5.43096C8.16014 5.36845 8.24493 5.33333 8.33333 5.33333H16.3333ZM7.33333 18.6667C7.24493 18.6667 7.16014 18.6315 7.09763 18.569C7.03512 18.5065 7 18.4217 7 18.3333V13C7 12.7348 7.10536 12.4804 7.29289 12.2929C7.48043 12.1054 7.73478 12 8 12H16.6667C16.9319 12 17.1862 12.1054 17.3738 12.2929C17.5613 12.4804 17.6667 12.7348 17.6667 13V18.3333C17.6667 18.4217 17.6315 18.5065 17.569 18.569C17.5065 18.6315 17.4217 18.6667 17.3333 18.6667H7.33333Z" fill="black"/>
<path d="M14 6.83337V7.83337C14 7.96598 14.0527 8.09316 14.1464 8.18693C14.2402 8.2807 14.3674 8.33337 14.5 8.33337C14.6326 8.33337 14.7598 8.2807 14.8536 8.18693C14.9473 8.09316 15 7.96598 15 7.83337V6.83337C15 6.70077 14.9473 6.57359 14.8536 6.47982C14.7598 6.38605 14.6326 6.33337 14.5 6.33337C14.3674 6.33337 14.2402 6.38605 14.1464 6.47982C14.0527 6.57359 14 6.70077 14 6.83337Z" fill="black"/>
<path d="M8.66669 14.8334H13C13.1326 14.8334 13.2598 14.7807 13.3536 14.6869C13.4473 14.5932 13.5 14.466 13.5 14.3334C13.5 14.2008 13.4473 14.0736 13.3536 13.9798C13.2598 13.8861 13.1326 13.8334 13 13.8334H8.66669C8.53408 13.8334 8.4069 13.8861 8.31313 13.9798C8.21937 14.0736 8.16669 14.2008 8.16669 14.3334C8.16669 14.466 8.21937 14.5932 8.31313 14.6869C8.4069 14.7807 8.53408 14.8334 8.66669 14.8334V14.8334Z" fill="black"/>
<path d="M8.66669 17.5H16C16.1326 17.5 16.2598 17.4473 16.3536 17.3536C16.4473 17.2598 16.5 17.1326 16.5 17C16.5 16.8674 16.4473 16.7402 16.3536 16.6464C16.2598 16.5527 16.1326 16.5 16 16.5H8.66669C8.53408 16.5 8.4069 16.5527 8.31313 16.6464C8.21937 16.7402 8.16669 16.8674 8.16669 17C8.16669 17.1326 8.21937 17.2598 8.31313 17.3536C8.4069 17.4473 8.53408 17.5 8.66669 17.5V17.5Z" fill="black"/>
</svg>
