<svg width="24" height="24" viewBox="0 0 24 24" fill="none" xmlns="http://www.w3.org/2000/svg">
<path d="M18.6667 4.00009H7C6.81515 3.99269 6.63078 4.02384 6.45862 4.09156C6.28646 4.15927 6.13028 4.26207 6 4.39342L4.39333 6.00009C4.14294 6.24899 4.00149 6.58704 4 6.94009V18.6668C4 19.0204 4.14048 19.3595 4.39052 19.6096C4.64057 19.8596 4.97971 20.0001 5.33333 20.0001H18.6667C19.0203 20.0001 19.3594 19.8596 19.6095 19.6096C19.8595 19.3595 20 19.0204 20 18.6668V5.33342C20 4.9798 19.8595 4.64066 19.6095 4.39061C19.3594 4.14057 19.0203 4.00009 18.6667 4.00009V4.00009ZM7.8 9.00009C7.5819 8.99312 7.37541 8.9002 7.22555 8.74159C7.07569 8.58299 6.99461 8.37156 7 8.15342V5.48676C7.00336 5.4449 7.02239 5.40586 7.05329 5.37743C7.08419 5.34901 7.12468 5.33329 7.16667 5.33342H16.8333C16.8775 5.33481 16.9198 5.35128 16.9533 5.38009C16.9821 5.41358 16.9986 5.45593 17 5.50009V8.16676C17.0019 8.38261 16.9192 8.59063 16.7697 8.74635C16.6202 8.90207 16.4157 8.99313 16.2 9.00009H7.8ZM14.3333 12.6668C14.3333 13.1282 14.1965 13.5794 13.9401 13.9631C13.6837 14.3468 13.3193 14.6459 12.8929 14.8225C12.4666 14.9991 11.9974 15.0453 11.5448 14.9553C11.0922 14.8652 10.6764 14.643 10.3501 14.3167C10.0238 13.9903 9.80153 13.5746 9.7115 13.122C9.62147 12.6693 9.66768 12.2002 9.84428 11.7738C10.0209 11.3475 10.32 10.9831 10.7037 10.7267C11.0874 10.4703 11.5385 10.3334 12 10.3334C12.6188 10.3334 13.2123 10.5793 13.6499 11.0168C14.0875 11.4544 14.3333 12.0479 14.3333 12.6668V12.6668ZM7 17.0001C7.02026 16.8067 7.11519 16.6288 7.2646 16.5043C7.414 16.3798 7.60609 16.3185 7.8 16.3334H16.2C16.3939 16.3185 16.586 16.3798 16.7354 16.5043C16.8848 16.6288 16.9797 16.8067 17 17.0001V18.5001C17 18.5443 16.9824 18.5867 16.9512 18.6179C16.9199 18.6492 16.8775 18.6668 16.8333 18.6668H7.16667C7.12246 18.6668 7.08007 18.6492 7.04882 18.6179C7.01756 18.5867 7 18.5443 7 18.5001V17.0001Z" fill="black"/>
<path d="M9.66669 5.66675H9.00002C8.81593 5.66675 8.66669 5.81599 8.66669 6.00008V8.00008C8.66669 8.18418 8.81593 8.33341 9.00002 8.33341H9.66669C9.85078 8.33341 10 8.18418 10 8.00008V6.00008C10 5.81599 9.85078 5.66675 9.66669 5.66675Z" fill="black"/>
</svg>
