<svg width="24" height="24" viewBox="0 0 24 24" fill="none" xmlns="http://www.w3.org/2000/svg">
<path d="M17.3333 8.33333H11C10.9099 8.33311 10.8236 8.29715 10.76 8.23333L9.86663 7.33333C9.77521 7.2322 9.66432 7.15055 9.54061 7.09327C9.41689 7.03599 9.28289 7.00427 9.14663 7H6.85996C6.54347 7 6.23994 7.12573 6.01615 7.34952C5.79235 7.57331 5.66663 7.87684 5.66663 8.19333V15.8067C5.66663 16.1232 5.79235 16.4267 6.01615 16.6505C6.23994 16.8743 6.54347 17 6.85996 17H17.14C17.4565 17 17.76 16.8743 17.9838 16.6505C18.2076 16.4267 18.3333 16.1232 18.3333 15.8067V9.33333C18.3333 9.06812 18.2279 8.81376 18.0404 8.62623C17.8529 8.43869 17.5985 8.33333 17.3333 8.33333Z" fill="black"/>
</svg>
