<svg width="24" height="24" viewBox="0 0 24 24" fill="none" xmlns="http://www.w3.org/2000/svg">
<path d="M21.368 11.4319L12.568 2.6319C12.4937 2.55692 12.4052 2.4974 12.3077 2.45679C12.2102 2.41617 12.1056 2.39526 12 2.39526C11.8944 2.39526 11.7899 2.41617 11.6924 2.45679C11.5949 2.4974 11.5064 2.55692 11.432 2.6319L2.63204 11.4319C2.52103 11.5444 2.44584 11.6873 2.41594 11.8425C2.38604 11.9976 2.40277 12.1582 2.46404 12.3039C2.52405 12.45 2.62597 12.5751 2.75695 12.6633C2.88793 12.7516 3.0421 12.7991 3.20004 12.7999H4.20004C4.25308 12.7999 4.30395 12.821 4.34146 12.8585C4.37897 12.896 4.40004 12.9469 4.40004 12.9999V20.7999C4.40004 21.0121 4.48432 21.2156 4.63435 21.3656C4.78438 21.5156 4.98787 21.5999 5.20004 21.5999H9.80004C9.85308 21.5999 9.90395 21.5788 9.94146 21.5413C9.97897 21.5038 10 21.4529 10 21.3999V17.5999C10 17.0695 10.2108 16.5608 10.5858 16.1857C10.9609 15.8106 11.4696 15.5999 12 15.5999C12.5305 15.5999 13.0392 15.8106 13.4143 16.1857C13.7893 16.5608 14 17.0695 14 17.5999V21.3999C14 21.4529 14.0211 21.5038 14.0586 21.5413C14.0961 21.5788 14.147 21.5999 14.2 21.5999H18.8C19.0122 21.5999 19.2157 21.5156 19.3657 21.3656C19.5158 21.2156 19.6 21.0121 19.6 20.7999V12.9999C19.6 12.9469 19.6211 12.896 19.6586 12.8585C19.6961 12.821 19.747 12.7999 19.8 12.7999H20.8C20.958 12.7991 21.1122 12.7516 21.2431 12.6633C21.3741 12.5751 21.476 12.45 21.536 12.3039C21.5973 12.1582 21.614 11.9976 21.5841 11.8425C21.5542 11.6873 21.479 11.5444 21.368 11.4319V11.4319Z" fill="black"/>
</svg>
