<svg width="320" height="320" viewBox="0 0 320 320" fill="none" xmlns="http://www.w3.org/2000/svg">
<g filter="url(#filter0_d_2623_16077)">
<rect x="35" y="117" width="249" height="60" rx="8" fill="white"/>
<rect x="35.5" y="117.5" width="248" height="59" rx="7.5" stroke="#D1D5DB"/>
</g>
<path d="M236 146L240 150L244 146" stroke="#4B5563" stroke-width="2" stroke-linecap="round" stroke-linejoin="round"/>
<rect x="53" y="133" width="28" height="28" rx="6" fill="#F0FDF4"/>
<g clip-path="url(#clip0_2623_16077)">
<path d="M71.375 152.25V150.792L73.8192 148.347C73.9057 148.261 73.9647 148.151 73.9886 148.031C74.0125 147.911 74.0003 147.786 73.9534 147.673C73.9066 147.56 73.8273 147.464 73.7255 147.396C73.6237 147.328 73.504 147.292 73.3817 147.292H67.6183C67.496 147.292 67.3763 147.328 67.2745 147.396C67.1727 147.464 67.0934 147.56 67.0465 147.673C66.9997 147.786 66.9875 147.911 67.0114 148.031C67.0353 148.151 67.0942 148.261 67.1808 148.347L69.625 150.792V154L71.375 152.25Z" fill="#166534"/>
<path d="M66.5625 148.966C66.517 148.923 66.476 148.877 66.44 148.826H65.0225V147.327H66.2475C66.341 147.108 66.4849 146.915 66.6674 146.763C66.8499 146.611 67.0658 146.504 67.2975 146.452H65.0225V144.958H67.385V146.417C67.4627 146.411 67.5407 146.411 67.6183 146.417H68.26V144.958H70.3017V146.417H71.1767V141.394C71.1767 141.025 71.0306 140.672 70.7704 140.41C70.5102 140.149 70.1571 140.002 69.7883 140H61.3942C61.0244 140 60.6698 140.147 60.4083 140.408C60.1469 140.67 60 141.024 60 141.394V148.312C60.0015 148.681 60.1491 149.034 60.4104 149.295C60.6717 149.555 61.0254 149.701 61.3942 149.701H67.2975L66.5625 148.966ZM68.26 142.584H70.3017V144.083H68.26V142.584ZM65.0225 142.584H67.385V144.083H65.0225V142.584ZM64.1475 148.826H61.3942C61.2575 148.826 61.1263 148.772 61.0291 148.676C60.9319 148.58 60.8765 148.449 60.875 148.312V147.327H64.1475V148.826ZM64.1475 146.452H60.875V144.958H64.1475V146.452ZM64.1475 144.083H60.875V142.584H64.1475V144.083Z" fill="#166534"/>
</g>
<path d="M92.1186 152V141.818H98.4325V143.141H93.6548V146.243H97.9801V147.56H93.6548V152H92.1186ZM100.202 152V144.364H101.689V152H100.202ZM100.953 143.185C100.695 143.185 100.473 143.099 100.287 142.927C100.105 142.751 100.013 142.542 100.013 142.3C100.013 142.055 100.105 141.846 100.287 141.674C100.473 141.498 100.695 141.411 100.953 141.411C101.212 141.411 101.432 141.498 101.614 141.674C101.8 141.846 101.893 142.055 101.893 142.3C101.893 142.542 101.8 142.751 101.614 142.927C101.432 143.099 101.212 143.185 100.953 143.185ZM105.175 141.818V152H103.689V141.818H105.175ZM110.74 144.364V145.557H106.569V144.364H110.74ZM107.687 142.534H109.174V149.758C109.174 150.046 109.217 150.263 109.303 150.409C109.389 150.552 109.5 150.649 109.636 150.702C109.775 150.752 109.926 150.777 110.088 150.777C110.208 150.777 110.312 150.769 110.402 150.752C110.491 150.736 110.561 150.722 110.61 150.712L110.879 151.94C110.793 151.973 110.67 152.007 110.511 152.04C110.352 152.076 110.153 152.096 109.914 152.099C109.523 152.106 109.159 152.036 108.821 151.891C108.483 151.745 108.209 151.519 108 151.214C107.792 150.91 107.687 150.527 107.687 150.066V142.534ZM115.593 152.154C114.841 152.154 114.193 151.993 113.649 151.672C113.109 151.347 112.691 150.891 112.396 150.305C112.105 149.715 111.959 149.024 111.959 148.232C111.959 147.449 112.105 146.76 112.396 146.163C112.691 145.567 113.102 145.101 113.629 144.766C114.16 144.432 114.78 144.264 115.489 144.264C115.92 144.264 116.337 144.335 116.742 144.478C117.146 144.621 117.509 144.844 117.83 145.149C118.152 145.454 118.405 145.85 118.591 146.337C118.777 146.821 118.869 147.41 118.869 148.102V148.629H112.799V147.516H117.413C117.413 147.125 117.333 146.778 117.174 146.477C117.015 146.172 116.791 145.931 116.503 145.756C116.218 145.58 115.883 145.492 115.499 145.492C115.081 145.492 114.717 145.595 114.405 145.8C114.097 146.003 113.858 146.268 113.689 146.596C113.523 146.921 113.441 147.274 113.441 147.655V148.525C113.441 149.035 113.53 149.469 113.709 149.827C113.891 150.185 114.145 150.459 114.47 150.648C114.794 150.833 115.174 150.926 115.608 150.926C115.89 150.926 116.147 150.886 116.379 150.807C116.611 150.724 116.811 150.601 116.98 150.439C117.149 150.277 117.279 150.076 117.368 149.837L118.775 150.091C118.662 150.505 118.46 150.868 118.169 151.18C117.88 151.488 117.517 151.728 117.08 151.901C116.646 152.07 116.15 152.154 115.593 152.154ZM120.519 152V144.364H121.956V145.577H122.035C122.174 145.166 122.42 144.843 122.771 144.607C123.126 144.369 123.527 144.249 123.974 144.249C124.067 144.249 124.176 144.253 124.302 144.259C124.431 144.266 124.533 144.274 124.605 144.284V145.706C124.546 145.689 124.44 145.671 124.287 145.651C124.135 145.628 123.982 145.616 123.83 145.616C123.479 145.616 123.165 145.691 122.89 145.84C122.618 145.986 122.403 146.19 122.244 146.452C122.085 146.71 122.005 147.005 122.005 147.337V152H120.519Z" fill="#111827"/>
<path d="M138 142C138 138.686 140.686 136 144 136H182C185.314 136 188 138.686 188 142V152C188 155.314 185.314 158 182 158H144C140.686 158 138 155.314 138 152V142Z" fill="#DCFCE7"/>
<path d="M144.959 151V142.273H150.371V143.406H146.276V146.065H149.983V147.195H146.276V151H144.959ZM151.888 151V144.455H153.162V151H151.888ZM152.531 143.445C152.31 143.445 152.119 143.371 151.96 143.223C151.804 143.072 151.726 142.893 151.726 142.686C151.726 142.476 151.804 142.297 151.96 142.149C152.119 141.999 152.31 141.923 152.531 141.923C152.753 141.923 152.942 141.999 153.098 142.149C153.257 142.297 153.337 142.476 153.337 142.686C153.337 142.893 153.257 143.072 153.098 143.223C152.942 143.371 152.753 143.445 152.531 143.445ZM156.15 142.273V151H154.876V142.273H156.15ZM160.92 144.455V145.477H157.344V144.455H160.92ZM158.303 142.886H159.577V149.078C159.577 149.325 159.614 149.511 159.688 149.636C159.762 149.759 159.857 149.842 159.974 149.888C160.093 149.93 160.222 149.952 160.362 149.952C160.464 149.952 160.553 149.945 160.63 149.93C160.707 149.916 160.766 149.905 160.809 149.896L161.039 150.949C160.965 150.977 160.86 151.006 160.724 151.034C160.587 151.065 160.417 151.082 160.212 151.085C159.877 151.091 159.565 151.031 159.275 150.906C158.985 150.781 158.751 150.588 158.572 150.327C158.393 150.065 158.303 149.737 158.303 149.342V142.886ZM165.08 151.132C164.435 151.132 163.88 150.994 163.414 150.719C162.951 150.44 162.593 150.05 162.34 149.547C162.09 149.041 161.965 148.449 161.965 147.77C161.965 147.099 162.09 146.509 162.34 145.997C162.593 145.486 162.945 145.087 163.397 144.8C163.851 144.513 164.382 144.369 164.99 144.369C165.36 144.369 165.718 144.43 166.064 144.553C166.411 144.675 166.722 144.866 166.998 145.128C167.273 145.389 167.49 145.729 167.65 146.146C167.809 146.561 167.888 147.065 167.888 147.659V148.111H162.685V147.156H166.64C166.64 146.821 166.571 146.524 166.435 146.266C166.299 146.004 166.107 145.798 165.86 145.648C165.615 145.497 165.328 145.422 164.999 145.422C164.641 145.422 164.328 145.51 164.061 145.686C163.797 145.859 163.593 146.087 163.448 146.368C163.306 146.646 163.235 146.949 163.235 147.276V148.021C163.235 148.459 163.311 148.831 163.465 149.138C163.621 149.445 163.838 149.679 164.117 149.841C164.395 150 164.721 150.08 165.093 150.08C165.334 150.08 165.554 150.045 165.753 149.977C165.952 149.906 166.124 149.801 166.269 149.662C166.414 149.523 166.525 149.351 166.601 149.146L167.807 149.364C167.711 149.719 167.537 150.03 167.287 150.297C167.04 150.561 166.729 150.767 166.354 150.915C165.982 151.06 165.557 151.132 165.08 151.132ZM169.302 151V144.455H170.533V145.494H170.602C170.721 145.142 170.931 144.865 171.232 144.663C171.536 144.459 171.88 144.357 172.263 144.357C172.343 144.357 172.437 144.359 172.545 144.365C172.656 144.371 172.742 144.378 172.805 144.386V145.605C172.754 145.591 172.663 145.575 172.532 145.558C172.401 145.538 172.271 145.528 172.14 145.528C171.839 145.528 171.57 145.592 171.335 145.72C171.102 145.845 170.917 146.02 170.781 146.244C170.644 146.466 170.576 146.719 170.576 147.003V151H169.302ZM180.377 142.273V151H179.056V143.594H179.005L176.917 144.957V143.696L179.094 142.273H180.377Z" fill="#166534"/>
<defs>
<filter id="filter0_d_2623_16077" x="33" y="116" width="253" height="64" filterUnits="userSpaceOnUse" color-interpolation-filters="sRGB">
<feFlood flood-opacity="0" result="BackgroundImageFix"/>
<feColorMatrix in="SourceAlpha" type="matrix" values="0 0 0 0 0 0 0 0 0 0 0 0 0 0 0 0 0 0 127 0" result="hardAlpha"/>
<feOffset dy="1"/>
<feGaussianBlur stdDeviation="1"/>
<feColorMatrix type="matrix" values="0 0 0 0 0 0 0 0 0 0 0 0 0 0 0 0 0 0 0.05 0"/>
<feBlend mode="normal" in2="BackgroundImageFix" result="effect1_dropShadow_2623_16077"/>
<feBlend mode="normal" in="SourceGraphic" in2="effect1_dropShadow_2623_16077" result="shape"/>
</filter>
<clipPath id="clip0_2623_16077">
<rect width="14" height="14" fill="white" transform="translate(60 140)"/>
</clipPath>
</defs>
</svg>
