<svg width="24" height="24" viewBox="0 0 24 24" fill="none" xmlns="http://www.w3.org/2000/svg">
<g clip-path="url(#clip0_3614_68475)">
<path d="M10.82 13.56C10.739 13.5261 10.6522 13.5086 10.5644 13.5083C10.4767 13.5081 10.3897 13.5252 10.3086 13.5586C10.2274 13.5921 10.1537 13.6412 10.0916 13.7032C10.0295 13.7652 9.98024 13.8389 9.94667 13.92C9.91494 14.0018 9.86736 14.0766 9.80667 14.14C9.74437 14.2018 9.6705 14.2507 9.58927 14.2839C9.50805 14.317 9.42107 14.3338 9.33333 14.3333H6.66667C6.31304 14.3333 5.97391 14.1929 5.72386 13.9428C5.47381 13.6928 5.33333 13.3536 5.33333 13V11C5.33333 10.6464 5.47381 10.3072 5.72386 10.0572C5.97391 9.80715 6.31304 9.66667 6.66667 9.66667H9.33333C9.42107 9.66616 9.50805 9.68298 9.58927 9.71616C9.6705 9.74933 9.74437 9.79822 9.80667 9.86C9.86736 9.92341 9.91494 9.99817 9.94667 10.08C10.0147 10.2436 10.145 10.3734 10.3088 10.4409C10.4726 10.5084 10.6564 10.5081 10.82 10.44C10.9836 10.3719 11.1134 10.2417 11.1809 10.0779C11.2484 9.91411 11.2481 9.73022 11.18 9.56667C11.0833 9.31682 10.9357 9.0898 10.7467 8.9C10.3687 8.53215 9.86073 8.32848 9.33333 8.33334H6.66667C5.95942 8.33334 5.28115 8.61429 4.78105 9.11439C4.28095 9.61448 4 10.2928 4 11L4 13C4 13.7072 4.28095 14.3855 4.78105 14.8856C5.28115 15.3857 5.95942 15.6667 6.66667 15.6667H9.33333C9.86359 15.6662 10.372 15.4552 10.7467 15.08C10.9343 14.889 11.0816 14.6623 11.18 14.4133C11.2423 14.2522 11.2395 14.0731 11.1724 13.914C11.1052 13.7548 10.9789 13.6279 10.82 13.56Z" fill="black"/>
<path d="M8 11.9999C8 12.1767 8.07024 12.3463 8.19526 12.4713C8.32029 12.5963 8.48986 12.6666 8.66667 12.6666H16C16.1768 12.6666 16.3464 12.5963 16.4714 12.4713C16.5964 12.3463 16.6667 12.1767 16.6667 11.9999C16.6667 11.8231 16.5964 11.6535 16.4714 11.5285C16.3464 11.4035 16.1768 11.3333 16 11.3333H8.66667C8.48986 11.3333 8.32029 11.4035 8.19526 11.5285C8.07024 11.6535 8 11.8231 8 11.9999Z" fill="black"/>
<path d="M17.3333 8.33325H14.6666C14.1364 8.33372 13.628 8.54474 13.2533 8.91992C13.0642 9.10972 12.9167 9.33674 12.82 9.58659C12.7519 9.75014 12.7516 9.93403 12.8191 10.0978C12.8866 10.2616 13.0164 10.3918 13.18 10.4599C13.3435 10.528 13.5274 10.5283 13.6912 10.4608C13.855 10.3933 13.9852 10.2635 14.0533 10.0999C14.085 10.0181 14.1326 9.94332 14.1933 9.87992C14.2539 9.81451 14.327 9.76192 14.4083 9.72528C14.4896 9.68864 14.5775 9.66868 14.6666 9.66659H17.3333C17.6869 9.66659 18.0261 9.80706 18.2761 10.0571C18.5262 10.3072 18.6666 10.6463 18.6666 10.9999V12.9999C18.6666 13.3535 18.5262 13.6927 18.2761 13.9427C18.0261 14.1928 17.6869 14.3333 17.3333 14.3333H14.6666C14.5789 14.3338 14.4919 14.3169 14.4107 14.2838C14.3295 14.2506 14.2556 14.2017 14.1933 14.1399C14.1326 14.0765 14.085 14.0018 14.0533 13.9199C13.9852 13.7564 13.855 13.6266 13.6912 13.559C13.5274 13.4915 13.3435 13.4918 13.18 13.5599C13.0164 13.628 12.8866 13.7582 12.8191 13.922C12.7516 14.0858 12.7519 14.2697 12.82 14.4333C12.9183 14.6822 13.0657 14.9089 13.2533 15.0999C13.6313 15.4678 14.1392 15.6714 14.6666 15.6666H17.3333C18.0405 15.6666 18.7188 15.3856 19.2189 14.8855C19.719 14.3854 20 13.7072 20 12.9999V10.9999C20 10.2927 19.719 9.6144 19.2189 9.1143C18.7188 8.6142 18.0405 8.33325 17.3333 8.33325Z" fill="black"/>
</g>
<defs>
<clipPath id="clip0_3614_68475">
<rect width="16" height="16" fill="white" transform="translate(4 4)"/>
</clipPath>
</defs>
</svg>
