<svg width="24" height="24" viewBox="0 0 24 24" fill="none" xmlns="http://www.w3.org/2000/svg">
<g clip-path="url(#clip0_3614_68413)">
<path d="M13.2534 18.3333H10.7534C10.6958 18.333 10.6392 18.3475 10.589 18.3756C10.5387 18.4036 10.4966 18.4442 10.4667 18.4933C10.4386 18.5419 10.4238 18.5971 10.4238 18.6533C10.4238 18.7095 10.4386 18.7647 10.4667 18.8133L10.6867 19.26C10.7961 19.4801 10.9642 19.6657 11.1724 19.7963C11.3806 19.9269 11.6209 19.9974 11.8667 20H12.1334C12.3826 20.0011 12.6271 19.9323 12.8392 19.8015C13.0513 19.6707 13.2225 19.4831 13.3334 19.26L13.5534 18.8133C13.5815 18.7647 13.5962 18.7095 13.5962 18.6533C13.5962 18.5971 13.5815 18.5419 13.5534 18.4933C13.5229 18.4417 13.4787 18.3994 13.4258 18.3712C13.3729 18.343 13.3132 18.3299 13.2534 18.3333V18.3333Z" fill="black"/>
<path d="M12 7C12.1769 7 12.3464 6.92976 12.4714 6.80474C12.5965 6.67971 12.6667 6.51014 12.6667 6.33333V4.66667C12.6667 4.48986 12.5965 4.32029 12.4714 4.19526C12.3464 4.07024 12.1769 4 12 4C11.8232 4 11.6537 4.07024 11.5286 4.19526C11.4036 4.32029 11.3334 4.48986 11.3334 4.66667V6.33333C11.3334 6.51014 11.4036 6.67971 11.5286 6.80474C11.6537 6.92976 11.8232 7 12 7Z" fill="black"/>
<path d="M18.1267 6.54005C18.0018 6.41589 17.8328 6.34619 17.6567 6.34619C17.4806 6.34619 17.3116 6.41589 17.1867 6.54005L16.0001 7.72005C15.9376 7.78203 15.888 7.85576 15.8541 7.937C15.8203 8.01824 15.8029 8.10538 15.8029 8.19339C15.8029 8.28139 15.8203 8.36853 15.8541 8.44977C15.888 8.53101 15.9376 8.60474 16.0001 8.66672C16.0623 8.72851 16.1362 8.77739 16.2175 8.81057C16.2987 8.84374 16.3857 8.86056 16.4734 8.86005C16.6483 8.85932 16.8159 8.78988 16.9401 8.66672L18.1201 7.48672C18.183 7.42519 18.2331 7.3518 18.2675 7.2708C18.3019 7.1898 18.32 7.10278 18.3206 7.01478C18.3212 6.92677 18.3044 6.83951 18.2711 6.75803C18.2379 6.67655 18.1888 6.60247 18.1267 6.54005Z" fill="black"/>
<path d="M19.3334 12H18C17.8232 12 17.6537 12.0702 17.5286 12.1953C17.4036 12.3203 17.3334 12.4899 17.3334 12.6667C17.3334 12.8435 17.4036 13.013 17.5286 13.1381C17.6537 13.2631 17.8232 13.3333 18 13.3333H19.3334C19.5102 13.3333 19.6798 13.2631 19.8048 13.1381C19.9298 13.013 20 12.8435 20 12.6667C20 12.4899 19.9298 12.3203 19.8048 12.1953C19.6798 12.0702 19.5102 12 19.3334 12Z" fill="black"/>
<path d="M7.99998 7.71994L6.81332 6.53994C6.68578 6.43073 6.52173 6.37366 6.35395 6.38014C6.18616 6.38662 6.027 6.45617 5.90828 6.5749C5.78955 6.69363 5.71999 6.85279 5.71351 7.02057C5.70703 7.18836 5.7641 7.35241 5.87332 7.47994L7.05332 8.66661C7.17749 8.78977 7.34509 8.85921 7.51998 8.85994C7.60884 8.86134 7.69708 8.84495 7.77951 8.81175C7.86194 8.77855 7.9369 8.7292 7.99998 8.66661C8.06247 8.60463 8.11207 8.5309 8.14591 8.44966C8.17976 8.36842 8.19718 8.28128 8.19718 8.19328C8.19718 8.10527 8.17976 8.01813 8.14591 7.93689C8.11207 7.85565 8.06247 7.78192 7.99998 7.71994Z" fill="black"/>
<path d="M6 12H4.66667C4.48986 12 4.32029 12.0702 4.19526 12.1953C4.07024 12.3203 4 12.4899 4 12.6667C4 12.8435 4.07024 13.013 4.19526 13.1381C4.32029 13.2631 4.48986 13.3333 4.66667 13.3333H6C6.17681 13.3333 6.34638 13.2631 6.4714 13.1381C6.59643 13.013 6.66667 12.8435 6.66667 12.6667C6.66667 12.4899 6.59643 12.3203 6.4714 12.1953C6.34638 12.0702 6.17681 12 6 12Z" fill="black"/>
<path d="M12 8C11.0785 8.00147 10.1814 8.29668 9.43911 8.84275C8.6968 9.38882 8.1479 10.1573 7.87215 11.0366C7.59639 11.9159 7.60813 12.8602 7.90566 13.7324C8.20319 14.6046 8.77103 15.3592 9.52668 15.8867C9.57064 15.9173 9.60639 15.9582 9.63081 16.0059C9.65522 16.0535 9.66754 16.1065 9.66668 16.16V16.6667C9.66668 16.8435 9.73692 17.013 9.86195 17.1381C9.98697 17.2631 10.1565 17.3333 10.3333 17.3333H13.6667C13.8435 17.3333 14.0131 17.2631 14.1381 17.1381C14.2631 17.013 14.3333 16.8435 14.3333 16.6667V16.16C14.3326 16.1057 14.3457 16.0522 14.3713 16.0044C14.397 15.9566 14.4344 15.9161 14.48 15.8867C15.2361 15.3589 15.8042 14.6037 16.1016 13.7308C16.3989 12.858 16.4102 11.9131 16.1335 11.0334C15.8569 10.1538 15.307 9.38535 14.5636 8.8398C13.8202 8.29424 12.9221 8.00005 12 8V8Z" fill="black"/>
</g>
<defs>
<clipPath id="clip0_3614_68413">
<rect width="16" height="16" fill="white" transform="translate(4 4)"/>
</clipPath>
</defs>
</svg>
