<svg width="24" height="24" viewBox="0 0 24 24" fill="none" xmlns="http://www.w3.org/2000/svg">
<g clip-path="url(#clip0_3614_68466)">
<path d="M17 10.3333H16.5V8.50001C16.5025 7.4179 16.1151 6.37109 15.4086 5.55141C14.7022 4.73173 13.724 4.19407 12.6533 4.03695C11.5827 3.87984 10.4913 4.11379 9.57909 4.69594C8.66691 5.27809 7.99505 6.16944 7.68663 7.20668C7.62297 7.41885 7.64621 7.64762 7.75124 7.84266C7.85626 8.03769 8.03445 8.18302 8.24663 8.24668C8.4588 8.31033 8.68757 8.28709 8.88261 8.18207C9.07764 8.07705 9.22297 7.89885 9.28663 7.68668C9.48237 7.03568 9.90564 6.47675 10.4792 6.11188C11.0528 5.74702 11.7384 5.60053 12.411 5.69916C13.0836 5.79779 13.6983 6.13495 14.143 6.64913C14.5877 7.1633 14.8327 7.82022 14.8333 8.50001V10C14.8333 10.0884 14.7982 10.1732 14.7357 10.2357C14.6731 10.2982 14.5884 10.3333 14.5 10.3333H6.99996C6.64634 10.3333 6.3072 10.4738 6.05715 10.7239C5.8071 10.9739 5.66663 11.3131 5.66663 11.6667V18.6667C5.66663 19.0203 5.8071 19.3594 6.05715 19.6095C6.3072 19.8595 6.64634 20 6.99996 20H17C17.3536 20 17.6927 19.8595 17.9428 19.6095C18.1928 19.3594 18.3333 19.0203 18.3333 18.6667V11.6667C18.3333 11.3131 18.1928 10.9739 17.9428 10.7239C17.6927 10.4738 17.3536 10.3333 17 10.3333ZM10.6666 14.3333C10.6666 13.9797 10.8071 13.6406 11.0572 13.3905C11.3072 13.1405 11.6463 13 12 13C12.3536 13 12.6927 13.1405 12.9428 13.3905C13.1928 13.6406 13.3333 13.9797 13.3333 14.3333C13.3319 14.566 13.2696 14.7943 13.1527 14.9955C13.0357 15.1966 12.8681 15.3637 12.6666 15.48V17C12.6666 17.1768 12.5964 17.3464 12.4714 17.4714C12.3463 17.5964 12.1768 17.6667 12 17.6667C11.8231 17.6667 11.6536 17.5964 11.5286 17.4714C11.4035 17.3464 11.3333 17.1768 11.3333 17V15.48C11.1318 15.3637 10.9642 15.1966 10.8473 14.9955C10.7303 14.7943 10.668 14.566 10.6666 14.3333Z" fill="black"/>
</g>
<defs>
<clipPath id="clip0_3614_68466">
<rect width="16" height="16" fill="white" transform="translate(4 4)"/>
</clipPath>
</defs>
</svg>
