<svg width="24" height="24" viewBox="0 0 24 24" fill="none" xmlns="http://www.w3.org/2000/svg">
<path d="M17 10.3333H16.5V8.5C16.5 7.30653 16.0259 6.16193 15.182 5.31802C14.3381 4.47411 13.1935 4 12 4C10.8065 4 9.66195 4.47411 8.81804 5.31802C7.97413 6.16193 7.50002 7.30653 7.50002 8.5V10.3333H7.00002C6.6464 10.3333 6.30726 10.4738 6.05721 10.7239C5.80716 10.9739 5.66669 11.313 5.66669 11.6667V18.6667C5.66669 19.0203 5.80716 19.3594 6.05721 19.6095C6.30726 19.8595 6.6464 20 7.00002 20H17C17.3536 20 17.6928 19.8595 17.9428 19.6095C18.1929 19.3594 18.3334 19.0203 18.3334 18.6667V11.6667C18.3334 11.313 18.1929 10.9739 17.9428 10.7239C17.6928 10.4738 17.3536 10.3333 17 10.3333ZM10.6667 14.3333C10.6667 13.9797 10.8072 13.6406 11.0572 13.3905C11.3073 13.1405 11.6464 13 12 13C12.3536 13 12.6928 13.1405 12.9428 13.3905C13.1929 13.6406 13.3334 13.9797 13.3334 14.3333C13.3319 14.566 13.2697 14.7943 13.1527 14.9954C13.0358 15.1966 12.8682 15.3637 12.6667 15.48V17C12.6667 17.1768 12.5964 17.3464 12.4714 17.4714C12.3464 17.5964 12.1768 17.6667 12 17.6667C11.8232 17.6667 11.6536 17.5964 11.5286 17.4714C11.4036 17.3464 11.3334 17.1768 11.3334 17V15.48C11.1318 15.3637 10.9643 15.1966 10.8473 14.9954C10.7304 14.7943 10.6681 14.566 10.6667 14.3333ZM9.16669 8.5C9.16669 7.74855 9.4652 7.02788 9.99655 6.49653C10.5279 5.96518 11.2486 5.66667 12 5.66667C12.7515 5.66667 13.4721 5.96518 14.0035 6.49653C14.5348 7.02788 14.8334 7.74855 14.8334 8.5V10C14.8334 10.0884 14.7982 10.1732 14.7357 10.2357C14.6732 10.2982 14.5884 10.3333 14.5 10.3333H9.50002C9.41161 10.3333 9.32683 10.2982 9.26432 10.2357C9.20181 10.1732 9.16669 10.0884 9.16669 10V8.5Z" fill="black"/>
</svg>
