<svg width="24" height="24" viewBox="0 0 24 24" fill="none" xmlns="http://www.w3.org/2000/svg">
<path d="M12 8.33333C13.1966 8.33333 14.1666 7.36328 14.1666 6.16667C14.1666 4.97005 13.1966 4 12 4C10.8034 4 9.83331 4.97005 9.83331 6.16667C9.83331 7.36328 10.8034 8.33333 12 8.33333Z" fill="black"/>
<path d="M12 14.1667C13.1966 14.1667 14.1666 13.1967 14.1666 12C14.1666 10.8034 13.1966 9.83337 12 9.83337C10.8034 9.83337 9.83331 10.8034 9.83331 12C9.83331 13.1967 10.8034 14.1667 12 14.1667Z" fill="black"/>
<path d="M12 20C13.1966 20 14.1666 19.0299 14.1666 17.8333C14.1666 16.6367 13.1966 15.6666 12 15.6666C10.8034 15.6666 9.83331 16.6367 9.83331 17.8333C9.83331 19.0299 10.8034 20 12 20Z" fill="black"/>
</svg>
