<svg width="24" height="24" viewBox="0 0 24 24" fill="none" xmlns="http://www.w3.org/2000/svg">
<path d="M14.0468 6.66668C14.0157 6.63448 13.9784 6.60898 13.9371 6.59178C13.8959 6.57458 13.8515 6.56604 13.8068 6.56668V6.56668C13.7198 6.56616 13.636 6.59966 13.5734 6.66002L6.29342 13.94C6.26218 13.971 6.23738 14.0079 6.22046 14.0485C6.20354 14.0891 6.19482 14.1327 6.19482 14.1767C6.19482 14.2207 6.20354 14.2643 6.22046 14.3049C6.23738 14.3455 6.26218 14.3824 6.29342 14.4134L9.58676 17.7067C9.65035 17.7705 9.73667 17.8065 9.82676 17.8067C9.87035 17.8064 9.91346 17.7975 9.95353 17.7803C9.99361 17.7631 10.0298 17.7381 10.0601 17.7067L17.3334 10.4334C17.3949 10.3699 17.4293 10.285 17.4293 10.1967C17.4293 10.1083 17.3949 10.0235 17.3334 9.96002L14.0468 6.66668Z" fill="#111827"/>
<path d="M5.62005 15.1999C5.57717 15.1599 5.5247 15.1318 5.46773 15.1181C5.41075 15.1044 5.3512 15.1056 5.29485 15.1217C5.23851 15.1378 5.18728 15.1682 5.14614 15.2099C5.105 15.2517 5.07534 15.3033 5.06005 15.3599L4.05338 19.5399C4.04004 19.5957 4.04164 19.6541 4.05803 19.7091C4.07441 19.7641 4.105 19.8138 4.14671 19.8532C4.18689 19.8939 4.23666 19.9237 4.29143 19.94C4.34619 19.9563 4.40418 19.9586 4.46005 19.9466L8.66671 18.9399C8.72404 18.9263 8.77662 18.8974 8.81887 18.8563C8.86112 18.8152 8.89147 18.7635 8.90671 18.7066C8.9222 18.6498 8.92298 18.59 8.90898 18.5329C8.89499 18.4757 8.86667 18.4231 8.82671 18.3799L5.62005 15.1999Z" fill="#111827"/>
<path d="M19.4667 5.94658L18.0534 4.53325C17.739 4.22301 17.315 4.04907 16.8734 4.04907C16.4317 4.04907 16.0078 4.22301 15.6934 4.53325L14.7534 5.47991C14.7215 5.50984 14.6961 5.54598 14.6787 5.58612C14.6613 5.62625 14.6523 5.66952 14.6523 5.71325C14.6523 5.75698 14.6613 5.80024 14.6787 5.84038C14.6961 5.88051 14.7215 5.91665 14.7534 5.94658L18.0534 9.27991C18.0833 9.3118 18.1194 9.33721 18.1596 9.35459C18.1997 9.37196 18.243 9.38093 18.2867 9.38093C18.3304 9.38093 18.3737 9.37196 18.4138 9.35459C18.454 9.33721 18.4901 9.3118 18.52 9.27991L19.4667 8.29991C19.7781 7.9875 19.953 7.56437 19.953 7.12325C19.953 6.68212 19.7781 6.25899 19.4667 5.94658V5.94658Z" fill="#111827"/>
</svg>
