<svg width="24" height="24" viewBox="0 0 24 24" fill="none" xmlns="http://www.w3.org/2000/svg">
<path d="M19.1666 12.6667C19.1666 12.4899 19.0964 12.3203 18.9714 12.1953C18.8464 12.0702 18.6768 12 18.5 12H18C16.8949 12 15.8351 12.439 15.0537 13.2204C14.2723 14.0018 13.8333 15.0616 13.8333 16.1667V16.6667C13.8333 17.1971 13.6226 17.7058 13.2475 18.0809C12.8724 18.456 12.3637 18.6667 11.8333 18.6667C11.3029 18.6667 10.7942 18.456 10.4191 18.0809C10.044 17.7058 9.8333 17.1971 9.8333 16.6667V15.4867C9.83416 15.4656 9.83915 15.445 9.848 15.4259C9.85684 15.4068 9.86936 15.3897 9.88484 15.3754C9.90032 15.3612 9.91846 15.3501 9.93821 15.3429C9.95797 15.3357 9.97895 15.3324 9.99997 15.3333C10.2385 15.2982 10.4565 15.1786 10.6144 14.9963C10.7722 14.814 10.8593 14.5811 10.86 14.34V13.1733C10.8595 13.1398 10.8695 13.107 10.8886 13.0795C10.9077 13.052 10.935 13.0312 10.9666 13.02C11.72 12.7454 12.3689 12.2427 12.823 11.5819C13.2771 10.9211 13.5138 10.135 13.5 9.33333V7.33333C13.5 7.06812 13.3946 6.81376 13.2071 6.62623C13.0195 6.43869 12.7652 6.33333 12.5 6.33333H12C11.9558 6.33333 11.9134 6.31577 11.8821 6.28452C11.8509 6.25326 11.8333 6.21087 11.8333 6.16667V4.66667C11.8333 4.48986 11.7631 4.32029 11.638 4.19526C11.513 4.07024 11.3434 4 11.1666 4C10.9898 4 10.8203 4.07024 10.6952 4.19526C10.5702 4.32029 10.5 4.48986 10.5 4.66667V6.16667C10.5 6.21087 10.4824 6.25326 10.4512 6.28452C10.4199 6.31577 10.3775 6.33333 10.3333 6.33333H7.99997C7.95577 6.33333 7.91338 6.31577 7.88212 6.28452C7.85086 6.25326 7.8333 6.21087 7.8333 6.16667V4.66667C7.8333 4.48986 7.76307 4.32029 7.63804 4.19526C7.51302 4.07024 7.34345 4 7.16664 4C6.98983 4 6.82026 4.07024 6.69523 4.19526C6.57021 4.32029 6.49997 4.48986 6.49997 4.66667V6.16667C6.49997 6.21087 6.48241 6.25326 6.45115 6.28452C6.4199 6.31577 6.37751 6.33333 6.3333 6.33333H5.8333C5.56809 6.33333 5.31373 6.43869 5.1262 6.62623C4.93866 6.81376 4.8333 7.06812 4.8333 7.33333V9.33333C4.82145 10.1382 5.06199 10.9267 5.52113 11.5879C5.98028 12.2491 6.63497 12.7499 7.3933 13.02C7.4249 13.0312 7.4522 13.052 7.47133 13.0795C7.49047 13.107 7.50049 13.1398 7.49997 13.1733V14.3333C7.49899 14.5756 7.58542 14.8101 7.74339 14.9938C7.90136 15.1775 8.12028 15.298 8.35997 15.3333C8.39885 15.3382 8.43458 15.3572 8.46039 15.3867C8.48619 15.4162 8.50028 15.4541 8.49997 15.4933V16.6667C8.49997 17.5507 8.85116 18.3986 9.47628 19.0237C10.1014 19.6488 10.9492 20 11.8333 20C12.7174 20 13.5652 19.6488 14.1903 19.0237C14.8154 18.3986 15.1666 17.5507 15.1666 16.6667V16.1667C15.1684 15.4158 15.4675 14.6961 15.9984 14.1651C16.5294 13.6342 17.2491 13.3351 18 13.3333H18.5C18.6768 13.3333 18.8464 13.2631 18.9714 13.1381C19.0964 13.013 19.1666 12.8435 19.1666 12.6667ZM11 8.66667C10.9982 8.79874 10.945 8.92491 10.8516 9.01831C10.7582 9.11171 10.632 9.16494 10.5 9.16667H7.8333C7.7007 9.16667 7.57352 9.11399 7.47975 9.02022C7.38598 8.92645 7.3333 8.79928 7.3333 8.66667C7.3333 8.53406 7.38598 8.40688 7.47975 8.31311C7.57352 8.21935 7.7007 8.16667 7.8333 8.16667H10.5C10.632 8.16839 10.7582 8.22163 10.8516 8.31502C10.945 8.40842 10.9982 8.5346 11 8.66667Z" fill="black"/>
</svg>
