<svg width="24" height="24" viewBox="0 0 24 24" fill="none" xmlns="http://www.w3.org/2000/svg">
<g clip-path="url(#clip0_3614_68544)">
<path d="M17.3371 10.9486C17.2807 10.9318 17.2303 10.8991 17.1918 10.8546C17.1534 10.81 17.1284 10.7554 17.12 10.6972C17.019 9.59076 16.5418 8.55241 15.768 7.75526C14.9941 6.95812 13.9703 6.45036 12.8674 6.31667C11.7645 6.18299 10.6491 6.43144 9.70714 7.02062C8.76524 7.60979 8.05378 8.50406 7.69141 9.5543C7.66743 9.60328 7.62994 9.64436 7.58336 9.67271C7.53678 9.70107 7.48307 9.7155 7.42855 9.7143C6.90326 9.74957 6.39007 9.88796 5.91826 10.1216C5.44646 10.3552 5.02528 10.6794 4.67879 11.0758C3.97901 11.8763 3.62589 12.922 3.69712 13.9829C3.76835 15.0437 4.25809 16.0329 5.05861 16.7326C5.85912 17.4324 6.90483 17.7855 7.9657 17.7143H16.5714C17.4104 17.7093 18.2184 17.3968 18.8425 16.836C19.4666 16.2752 19.8634 15.5051 19.9577 14.6714C20.0521 13.8377 19.8374 12.9983 19.3545 12.3122C18.8715 11.6262 18.1538 11.141 17.3371 10.9486V10.9486ZM14.16 13.3143L12.7314 15.6C12.6528 15.7227 12.5447 15.8237 12.4168 15.8936C12.289 15.9635 12.1457 16.0002 12 16.0002C11.8543 16.0002 11.7109 15.9635 11.5831 15.8936C11.4553 15.8237 11.3471 15.7227 11.2686 15.6L9.83998 13.3143C9.75793 13.1842 9.71242 13.0344 9.70821 12.8806C9.704 12.7268 9.74125 12.5747 9.81606 12.4403C9.89087 12.3059 10.0005 12.1941 10.1334 12.1166C10.2663 12.0391 10.4176 11.9989 10.5714 12H10.8571C10.9329 12 11.0056 11.9699 11.0592 11.9163C11.1127 11.8628 11.1428 11.7901 11.1428 11.7143V10C11.1428 9.77269 11.2331 9.55467 11.3939 9.39393C11.5546 9.23318 11.7727 9.14287 12 9.14287C12.2273 9.14287 12.4453 9.23318 12.6061 9.39393C12.7668 9.55467 12.8571 9.77269 12.8571 10V11.7143C12.8571 11.7901 12.8872 11.8628 12.9408 11.9163C12.9944 11.9699 13.0671 12 13.1428 12H13.4286C13.5824 11.9989 13.7337 12.0391 13.8666 12.1166C13.9995 12.1941 14.1091 12.3059 14.1839 12.4403C14.2587 12.5747 14.296 12.7268 14.2918 12.8806C14.2875 13.0344 14.242 13.1842 14.16 13.3143V13.3143Z" fill="black"/>
</g>
<defs>
<clipPath id="clip0_3614_68544">
<rect width="16" height="16" fill="white" transform="translate(4 4)"/>
</clipPath>
</defs>
</svg>
