<svg width="24" height="24" viewBox="0 0 24 24" fill="none" xmlns="http://www.w3.org/2000/svg">
<path d="M4.41333 19.5868C4.48927 19.6656 4.58045 19.7281 4.6813 19.7705C4.78216 19.8129 4.89059 19.8343 4.99999 19.8335C5.1094 19.8343 5.21782 19.8129 5.31868 19.7705C5.41953 19.7281 5.51071 19.6656 5.58666 19.5868L8.33333 16.8468C8.34829 16.8309 8.36636 16.8182 8.38643 16.8095C8.40649 16.8008 8.42813 16.7963 8.44999 16.7963C8.47186 16.7963 8.49349 16.8008 8.51356 16.8095C8.53362 16.8182 8.5517 16.8309 8.56666 16.8468L9.52666 17.8068C9.58895 17.8686 9.66283 17.9175 9.74405 17.9507C9.82528 17.9839 9.91225 18.0007 9.99999 18.0002C10.1768 18.0002 10.3464 17.9299 10.4714 17.8049C10.5964 17.6799 10.6667 17.5103 10.6667 17.3335V14.0002C10.6667 13.8234 10.5964 13.6538 10.4714 13.5288C10.3464 13.4037 10.1768 13.3335 9.99999 13.3335H6.66666C6.53504 13.3342 6.40656 13.3738 6.29742 13.4473C6.18827 13.5209 6.10334 13.6251 6.05333 13.7468C6.00227 13.8682 5.98832 14.002 6.01324 14.1314C6.03816 14.2607 6.10082 14.3797 6.19333 14.4735L7.15333 15.4335C7.16927 15.4485 7.18198 15.4665 7.19066 15.4866C7.19935 15.5067 7.20383 15.5283 7.20383 15.5502C7.20383 15.572 7.19935 15.5937 7.19066 15.6137C7.18198 15.6338 7.16927 15.6519 7.15333 15.6668L4.41333 18.4135C4.33592 18.4903 4.27449 18.5817 4.23257 18.6824C4.19065 18.7831 4.16907 18.8911 4.16907 19.0002C4.16907 19.1092 4.19065 19.2172 4.23257 19.3179C4.27449 19.4186 4.33592 19.51 4.41333 19.5868V19.5868Z" fill="black"/>
<path d="M19.5867 4.41345C19.5099 4.33605 19.4185 4.27461 19.3178 4.23269C19.2171 4.19077 19.1091 4.16919 19.0001 4.16919C18.891 4.16919 18.783 4.19077 18.6823 4.23269C18.5816 4.27461 18.4902 4.33605 18.4134 4.41345L15.6667 7.15345C15.6518 7.16939 15.6337 7.1821 15.6136 7.19079C15.5936 7.19947 15.5719 7.20395 15.5501 7.20395C15.5282 7.20395 15.5066 7.19947 15.4865 7.19079C15.4664 7.1821 15.4483 7.16939 15.4334 7.15345L14.4734 6.19345C14.3801 6.09943 14.261 6.03531 14.1312 6.00926C14.0013 5.98321 13.8667 5.99642 13.7444 6.0472C13.6221 6.09798 13.5177 6.18403 13.4445 6.29437C13.3713 6.40472 13.3326 6.53436 13.3334 6.66678V10.0001C13.3334 10.1769 13.4036 10.3465 13.5286 10.4715C13.6537 10.5965 13.8232 10.6668 14.0001 10.6668H17.3334C17.465 10.6661 17.5935 10.6265 17.7026 10.553C17.8118 10.4794 17.8967 10.3752 17.9467 10.2534C17.9978 10.132 18.0117 9.99823 17.9868 9.8689C17.9619 9.73958 17.8992 9.62053 17.8067 9.52678L16.8467 8.56678C16.8308 8.55182 16.8181 8.53375 16.8094 8.51368C16.8007 8.49361 16.7962 8.47198 16.7962 8.45011C16.7962 8.42825 16.8007 8.40662 16.8094 8.38655C16.8181 8.36648 16.8308 8.34841 16.8467 8.33345L19.5867 5.58678C19.6641 5.50994 19.7256 5.41854 19.7675 5.31786C19.8094 5.21717 19.831 5.10918 19.831 5.00011C19.831 4.89105 19.8094 4.78306 19.7675 4.68237C19.7256 4.58168 19.6641 4.49029 19.5867 4.41345V4.41345Z" fill="black"/>
</svg>
