<svg width="320" height="320" viewBox="0 0 320 320" fill="none" xmlns="http://www.w3.org/2000/svg">
<g filter="url(#filter0_dd_2623_16077)">
<rect x="33" y="130" width="253" height="60" rx="8" fill="white"/>
<rect x="33.5" y="130.5" width="252" height="59" rx="7.5" stroke="#C5C5C5"/>
</g>
<path d="M238 159L242 163L246 159" stroke="#4B5563" stroke-width="2" stroke-linecap="round" stroke-linejoin="round"/>
<rect x="51" y="146" width="28" height="28" rx="6" fill="#F8E8F2" fill-opacity="0.6"/>
<g clip-path="url(#clip0_2623_16077)">
<path d="M63.7517 162.826H63.0225V161.327H64.5392C64.9984 160.745 65.5879 160.28 66.26 159.967V158.958H68.3017V159.542C68.5958 159.547 68.8887 159.581 69.1767 159.641V155.394C69.1767 155.025 69.0306 154.672 68.7704 154.41C68.5102 154.149 68.1571 154.002 67.7883 154H59.3942C59.0244 154 58.6698 154.147 58.4083 154.408C58.1469 154.67 58 155.024 58 155.394V162.312C58.0015 162.681 58.1491 163.034 58.4104 163.295C58.6717 163.555 59.0254 163.701 59.3942 163.701H63.5708C63.6007 163.404 63.6613 163.11 63.7517 162.826V162.826ZM66.26 156.584H68.3017V158.083H66.26V156.584ZM63.0225 156.584H65.385V158.083H63.0225V156.584ZM63.0225 158.958H65.385V160.452H63.0225V158.958ZM62.1475 162.826H59.3942C59.2575 162.826 59.1263 162.772 59.0291 162.676C58.9319 162.58 58.8765 162.449 58.875 162.312V161.327H62.1475V162.826ZM62.1475 160.452H58.875V158.958H62.1475V160.452ZM62.1475 158.083H58.875V156.584H62.1475V158.083Z" fill="#BE185D"/>
<path d="M68.2083 160.417C67.4584 160.417 66.7253 160.639 66.1018 161.056C65.4783 161.472 64.9923 162.064 64.7053 162.757C64.4183 163.45 64.3432 164.213 64.4895 164.948C64.6358 165.684 64.997 166.359 65.5272 166.889C66.0575 167.42 66.7331 167.781 67.4686 167.927C68.2041 168.073 68.9665 167.998 69.6593 167.711C70.3522 167.424 70.9444 166.938 71.361 166.315C71.7776 165.691 72 164.958 72 164.208C71.9985 163.203 71.5985 162.24 70.8877 161.529C70.177 160.818 69.2135 160.418 68.2083 160.417V160.417ZM68.2083 166.833C67.6892 166.833 67.1816 166.679 66.75 166.391C66.3183 166.102 65.9818 165.693 65.7832 165.213C65.5845 164.733 65.5325 164.205 65.6338 163.696C65.7351 163.187 65.9851 162.719 66.3522 162.352C66.7193 161.985 67.187 161.735 67.6962 161.634C68.2054 161.532 68.7332 161.584 69.2129 161.783C69.6925 161.982 70.1025 162.318 70.3909 162.75C70.6794 163.182 70.8333 163.689 70.8333 164.208C70.8318 164.904 70.5547 165.571 70.0628 166.063C69.5708 166.555 68.9041 166.832 68.2083 166.833V166.833Z" fill="#BE185D"/>
<path d="M69.375 163.771H68.7917C68.753 163.771 68.7159 163.755 68.6885 163.728C68.6612 163.701 68.6458 163.664 68.6458 163.625V162.458C68.6458 162.342 68.5997 162.231 68.5177 162.149C68.4356 162.067 68.3244 162.021 68.2083 162.021C68.0923 162.021 67.981 162.067 67.899 162.149C67.8169 162.231 67.7708 162.342 67.7708 162.458V164.208C67.7723 164.324 67.8189 164.434 67.9006 164.516C67.9824 164.598 68.0928 164.644 68.2083 164.646H69.375C69.491 164.646 69.6023 164.6 69.6844 164.518C69.7664 164.436 69.8125 164.324 69.8125 164.208C69.8125 164.092 69.7664 163.981 69.6844 163.899C69.6023 163.817 69.491 163.771 69.375 163.771Z" fill="#BE185D"/>
</g>
<path d="M89.6165 156.141V154.818H97.4964V156.141H94.3196V165H92.7884V156.141H89.6165ZM99.1184 165V157.364H100.605V165H99.1184ZM99.8691 156.185C99.6106 156.185 99.3886 156.099 99.2029 155.927C99.0207 155.751 98.9295 155.542 98.9295 155.3C98.9295 155.055 99.0207 154.846 99.2029 154.674C99.3886 154.498 99.6106 154.411 99.8691 154.411C100.128 154.411 100.348 154.498 100.53 154.674C100.716 154.846 100.809 155.055 100.809 155.3C100.809 155.542 100.716 155.751 100.53 155.927C100.348 156.099 100.128 156.185 99.8691 156.185ZM102.605 165V157.364H104.032V158.607H104.126C104.285 158.186 104.545 157.857 104.907 157.622C105.268 157.384 105.7 157.264 106.204 157.264C106.715 157.264 107.142 157.384 107.487 157.622C107.835 157.861 108.092 158.189 108.257 158.607H108.337C108.519 158.199 108.809 157.874 109.207 157.632C109.605 157.387 110.079 157.264 110.629 157.264C111.322 157.264 111.887 157.481 112.324 157.915C112.765 158.35 112.985 159.004 112.985 159.879V165H111.499V160.018C111.499 159.501 111.358 159.127 111.076 158.895C110.795 158.663 110.458 158.547 110.067 158.547C109.583 158.547 109.207 158.696 108.939 158.994C108.67 159.289 108.536 159.669 108.536 160.133V165H107.054V159.924C107.054 159.51 106.925 159.177 106.667 158.925C106.408 158.673 106.072 158.547 105.657 158.547C105.376 158.547 105.115 158.621 104.877 158.771C104.641 158.916 104.451 159.12 104.305 159.382C104.163 159.644 104.091 159.947 104.091 160.292V165H102.605ZM118.269 165.154C117.517 165.154 116.869 164.993 116.325 164.672C115.785 164.347 115.367 163.891 115.072 163.305C114.781 162.715 114.635 162.024 114.635 161.232C114.635 160.449 114.781 159.76 115.072 159.163C115.367 158.567 115.778 158.101 116.305 157.766C116.836 157.432 117.455 157.264 118.165 157.264C118.595 157.264 119.013 157.335 119.417 157.478C119.822 157.621 120.185 157.844 120.506 158.149C120.828 158.454 121.081 158.85 121.267 159.337C121.452 159.821 121.545 160.41 121.545 161.102V161.629H115.475V160.516H120.089C120.089 160.125 120.009 159.778 119.85 159.477C119.691 159.172 119.467 158.931 119.179 158.756C118.894 158.58 118.559 158.492 118.175 158.492C117.757 158.492 117.392 158.595 117.081 158.8C116.773 159.003 116.534 159.268 116.365 159.596C116.199 159.921 116.116 160.274 116.116 160.655V161.525C116.116 162.035 116.206 162.469 116.385 162.827C116.567 163.185 116.821 163.459 117.145 163.648C117.47 163.833 117.85 163.926 118.284 163.926C118.566 163.926 118.823 163.886 119.055 163.807C119.287 163.724 119.487 163.601 119.656 163.439C119.825 163.277 119.954 163.076 120.044 162.837L121.451 163.091C121.338 163.505 121.136 163.868 120.844 164.18C120.556 164.488 120.193 164.728 119.756 164.901C119.321 165.07 118.826 165.154 118.269 165.154ZM127.019 165V154.818H133.333V156.141H128.555V159.243H132.881V160.56H128.555V165H127.019ZM135.103 165V157.364H136.589V165H135.103ZM135.854 156.185C135.595 156.185 135.373 156.099 135.187 155.927C135.005 155.751 134.914 155.542 134.914 155.3C134.914 155.055 135.005 154.846 135.187 154.674C135.373 154.498 135.595 154.411 135.854 154.411C136.112 154.411 136.332 154.498 136.515 154.674C136.7 154.846 136.793 155.055 136.793 155.3C136.793 155.542 136.7 155.751 136.515 155.927C136.332 156.099 136.112 156.185 135.854 156.185ZM140.076 154.818V165H138.589V154.818H140.076ZM145.64 157.364V158.557H141.469V157.364H145.64ZM142.588 155.534H144.074V162.758C144.074 163.046 144.117 163.263 144.203 163.409C144.289 163.552 144.401 163.649 144.536 163.702C144.676 163.752 144.826 163.777 144.989 163.777C145.108 163.777 145.213 163.769 145.302 163.752C145.392 163.736 145.461 163.722 145.511 163.712L145.779 164.94C145.693 164.973 145.57 165.007 145.411 165.04C145.252 165.076 145.053 165.096 144.815 165.099C144.424 165.106 144.059 165.036 143.721 164.891C143.383 164.745 143.11 164.519 142.901 164.214C142.692 163.91 142.588 163.527 142.588 163.066V155.534ZM150.494 165.154C149.741 165.154 149.093 164.993 148.55 164.672C148.009 164.347 147.592 163.891 147.297 163.305C147.005 162.715 146.859 162.024 146.859 161.232C146.859 160.449 147.005 159.76 147.297 159.163C147.592 158.567 148.003 158.101 148.53 157.766C149.06 157.432 149.68 157.264 150.389 157.264C150.82 157.264 151.238 157.335 151.642 157.478C152.046 157.621 152.409 157.844 152.731 158.149C153.052 158.454 153.306 158.85 153.491 159.337C153.677 159.821 153.77 160.41 153.77 161.102V161.629H147.7V160.516H152.313C152.313 160.125 152.234 159.778 152.075 159.477C151.915 159.172 151.692 158.931 151.403 158.756C151.118 158.58 150.784 158.492 150.399 158.492C149.982 158.492 149.617 158.595 149.305 158.8C148.997 159.003 148.759 159.268 148.589 159.596C148.424 159.921 148.341 160.274 148.341 160.655V161.525C148.341 162.035 148.43 162.469 148.609 162.827C148.792 163.185 149.045 163.459 149.37 163.648C149.695 163.833 150.074 163.926 150.509 163.926C150.79 163.926 151.047 163.886 151.279 163.807C151.511 163.724 151.712 163.601 151.881 163.439C152.05 163.277 152.179 163.076 152.268 162.837L153.675 163.091C153.563 163.505 153.361 163.868 153.069 164.18C152.781 164.488 152.418 164.728 151.98 164.901C151.546 165.07 151.05 165.154 150.494 165.154ZM155.419 165V157.364H156.856V158.577H156.936C157.075 158.166 157.32 157.843 157.671 157.607C158.026 157.369 158.427 157.249 158.874 157.249C158.967 157.249 159.077 157.253 159.203 157.259C159.332 157.266 159.433 157.274 159.506 157.284V158.706C159.446 158.689 159.34 158.671 159.188 158.651C159.035 158.628 158.883 158.616 158.73 158.616C158.379 158.616 158.066 158.691 157.791 158.84C157.519 158.986 157.303 159.19 157.144 159.452C156.985 159.71 156.906 160.005 156.906 160.337V165H155.419Z" fill="#111827"/>
<path d="M173 155C173 151.686 175.686 149 179 149H217C220.314 149 223 151.686 223 155V165C223 168.314 220.314 171 217 171H179C175.686 171 173 168.314 173 165V155Z" fill="#FCE7F3"/>
<path d="M179.959 164V155.273H185.371V156.406H181.276V159.065H184.983V160.195H181.276V164H179.959ZM186.888 164V157.455H188.162V164H186.888ZM187.531 156.445C187.31 156.445 187.119 156.371 186.96 156.223C186.804 156.072 186.726 155.893 186.726 155.686C186.726 155.476 186.804 155.297 186.96 155.149C187.119 154.999 187.31 154.923 187.531 154.923C187.753 154.923 187.942 154.999 188.098 155.149C188.257 155.297 188.337 155.476 188.337 155.686C188.337 155.893 188.257 156.072 188.098 156.223C187.942 156.371 187.753 156.445 187.531 156.445ZM191.15 155.273V164H189.876V155.273H191.15ZM195.92 157.455V158.477H192.344V157.455H195.92ZM193.303 155.886H194.577V162.078C194.577 162.325 194.614 162.511 194.688 162.636C194.762 162.759 194.857 162.842 194.974 162.888C195.093 162.93 195.222 162.952 195.362 162.952C195.464 162.952 195.553 162.945 195.63 162.93C195.707 162.916 195.766 162.905 195.809 162.896L196.039 163.949C195.965 163.977 195.86 164.006 195.724 164.034C195.587 164.065 195.417 164.082 195.212 164.085C194.877 164.091 194.565 164.031 194.275 163.906C193.985 163.781 193.751 163.588 193.572 163.327C193.393 163.065 193.303 162.737 193.303 162.342V155.886ZM200.08 164.132C199.435 164.132 198.88 163.994 198.414 163.719C197.951 163.44 197.593 163.05 197.34 162.547C197.09 162.041 196.965 161.449 196.965 160.77C196.965 160.099 197.09 159.509 197.34 158.997C197.593 158.486 197.945 158.087 198.397 157.8C198.851 157.513 199.382 157.369 199.99 157.369C200.36 157.369 200.718 157.43 201.064 157.553C201.411 157.675 201.722 157.866 201.998 158.128C202.273 158.389 202.49 158.729 202.65 159.146C202.809 159.561 202.888 160.065 202.888 160.659V161.111H197.685V160.156H201.64C201.64 159.821 201.571 159.524 201.435 159.266C201.299 159.004 201.107 158.798 200.86 158.648C200.615 158.497 200.328 158.422 199.999 158.422C199.641 158.422 199.328 158.51 199.061 158.686C198.797 158.859 198.593 159.087 198.448 159.368C198.306 159.646 198.235 159.949 198.235 160.276V161.021C198.235 161.459 198.311 161.831 198.465 162.138C198.621 162.445 198.838 162.679 199.117 162.841C199.395 163 199.721 163.08 200.093 163.08C200.334 163.08 200.554 163.045 200.753 162.977C200.952 162.906 201.124 162.801 201.269 162.662C201.414 162.523 201.525 162.351 201.601 162.146L202.807 162.364C202.711 162.719 202.537 163.03 202.287 163.297C202.04 163.561 201.729 163.767 201.354 163.915C200.982 164.06 200.557 164.132 200.08 164.132ZM204.302 164V157.455H205.533V158.494H205.602C205.721 158.142 205.931 157.865 206.232 157.663C206.536 157.459 206.88 157.357 207.263 157.357C207.343 157.357 207.437 157.359 207.545 157.365C207.656 157.371 207.742 157.378 207.805 157.386V158.605C207.754 158.591 207.663 158.575 207.532 158.558C207.401 158.538 207.271 158.528 207.14 158.528C206.839 158.528 206.57 158.592 206.335 158.72C206.102 158.845 205.917 159.02 205.781 159.244C205.644 159.466 205.576 159.719 205.576 160.003V164H204.302ZM215.377 155.273V164H214.056V156.594H214.005L211.917 157.957V156.696L214.094 155.273H215.377Z" fill="#9D174D"/>
<defs>
<filter id="filter0_dd_2623_16077" x="30" y="128" width="259" height="66" filterUnits="userSpaceOnUse" color-interpolation-filters="sRGB">
<feFlood flood-opacity="0" result="BackgroundImageFix"/>
<feColorMatrix in="SourceAlpha" type="matrix" values="0 0 0 0 0 0 0 0 0 0 0 0 0 0 0 0 0 0 127 0" result="hardAlpha"/>
<feOffset dy="1"/>
<feGaussianBlur stdDeviation="1"/>
<feComposite in2="hardAlpha" operator="out"/>
<feColorMatrix type="matrix" values="0 0 0 0 0 0 0 0 0 0 0 0 0 0 0 0 0 0 0.06 0"/>
<feBlend mode="normal" in2="BackgroundImageFix" result="effect1_dropShadow_2623_16077"/>
<feColorMatrix in="SourceAlpha" type="matrix" values="0 0 0 0 0 0 0 0 0 0 0 0 0 0 0 0 0 0 127 0" result="hardAlpha"/>
<feOffset dy="1"/>
<feGaussianBlur stdDeviation="1.5"/>
<feComposite in2="hardAlpha" operator="out"/>
<feColorMatrix type="matrix" values="0 0 0 0 0 0 0 0 0 0 0 0 0 0 0 0 0 0 0.1 0"/>
<feBlend mode="normal" in2="effect1_dropShadow_2623_16077" result="effect2_dropShadow_2623_16077"/>
<feBlend mode="normal" in="SourceGraphic" in2="effect2_dropShadow_2623_16077" result="shape"/>
</filter>
<clipPath id="clip0_2623_16077">
<rect width="14" height="14" fill="white" transform="translate(58 154)"/>
</clipPath>
</defs>
</svg>
