<svg width="320" height="320" viewBox="0 0 320 320" fill="none" xmlns="http://www.w3.org/2000/svg">
<rect x="34" y="129" width="253" height="63" rx="6" fill="#FCF2F2"/>
<g clip-path="url(#clip0_2623_16617)">
<path d="M52 156C53.1867 156 54.3467 155.648 55.3334 154.989C56.3201 154.33 57.0892 153.392 57.5433 152.296C57.9974 151.2 58.1162 149.993 57.8847 148.829C57.6532 147.666 57.0818 146.596 56.2426 145.757C55.4035 144.918 54.3344 144.347 53.1705 144.115C52.0067 143.884 50.8003 144.003 49.7039 144.457C48.6075 144.911 47.6705 145.68 47.0112 146.667C46.3519 147.653 46 148.813 46 150C46 151.591 46.6321 153.117 47.7574 154.243C48.8826 155.368 50.4087 156 52 156ZM49.525 148.23C49.4431 148.134 49.4003 148.011 49.4051 147.885C49.41 147.76 49.4622 147.64 49.5512 147.551C49.6403 147.462 49.7596 147.41 49.8855 147.405C50.0113 147.4 50.1343 147.443 50.23 147.525L51.91 149.205C51.9217 149.217 51.9356 149.227 51.9511 149.233C51.9666 149.24 51.9832 149.243 52 149.243C52.0168 149.243 52.0334 149.24 52.0489 149.233C52.0644 149.227 52.0783 149.217 52.09 149.205L53.77 147.525C53.8635 147.428 53.9916 147.372 54.1262 147.37C54.2607 147.368 54.3907 147.419 54.4875 147.512C54.5843 147.606 54.64 147.734 54.6423 147.869C54.6447 148.003 54.5935 148.133 54.5 148.23L52.82 149.91C52.8079 149.922 52.7983 149.936 52.7917 149.951C52.7851 149.967 52.7817 149.983 52.7817 150C52.7817 150.017 52.7851 150.033 52.7917 150.049C52.7983 150.064 52.8079 150.078 52.82 150.09L54.5 151.77C54.55 151.817 54.5898 151.873 54.617 151.936C54.6442 151.999 54.6583 152.067 54.6583 152.135C54.6583 152.203 54.6442 152.271 54.617 152.334C54.5898 152.397 54.55 152.453 54.5 152.5C54.4533 152.546 54.3979 152.583 54.337 152.608C54.276 152.633 54.2108 152.645 54.145 152.645C54.0138 152.644 53.8881 152.592 53.795 152.5L52.115 150.82C52.1033 150.808 52.0894 150.798 52.0739 150.792C52.0584 150.785 52.0418 150.782 52.025 150.782C52.0082 150.782 51.9916 150.785 51.9761 150.792C51.9606 150.798 51.9467 150.808 51.935 150.82L50.23 152.5C50.1369 152.592 50.0112 152.644 49.88 152.645C49.8142 152.645 49.749 152.633 49.688 152.608C49.6271 152.583 49.5717 152.546 49.525 152.5C49.4319 152.406 49.3796 152.28 49.3796 152.147C49.3796 152.015 49.4319 151.889 49.525 151.795L51.205 150.115C51.2171 150.103 51.2267 150.089 51.2333 150.074C51.2399 150.058 51.2433 150.042 51.2433 150.025C51.2433 150.008 51.2399 149.992 51.2333 149.976C51.2267 149.961 51.2171 149.947 51.205 149.935L49.525 148.23Z" fill="#F87171"/>
</g>
<path d="M65.4403 147.672V146.727H71.0689V147.672H68.7997V154H67.706V147.672H65.4403ZM73.2892 150.761V154H72.2275V146.727H73.275V149.433H73.3425C73.4703 149.14 73.6657 148.906 73.9284 148.734C74.1912 148.561 74.5345 148.474 74.9583 148.474C75.3323 148.474 75.659 148.551 75.9384 148.705C76.2201 148.859 76.4379 149.089 76.5918 149.394C76.748 149.697 76.8262 150.076 76.8262 150.531V154H75.7644V150.658C75.7644 150.258 75.6614 149.948 75.4554 149.728C75.2495 149.505 74.963 149.394 74.5961 149.394C74.3451 149.394 74.1202 149.447 73.9213 149.554C73.7248 149.661 73.5698 149.817 73.4561 150.023C73.3449 150.226 73.2892 150.473 73.2892 150.761ZM80.5939 154.11C80.0565 154.11 79.5937 153.995 79.2054 153.766C78.8195 153.534 78.5212 153.208 78.3105 152.789C78.1022 152.368 77.998 151.874 77.998 151.308C77.998 150.75 78.1022 150.257 78.3105 149.831C78.5212 149.405 78.8148 149.072 79.1912 148.833C79.57 148.594 80.0127 148.474 80.5194 148.474C80.8271 148.474 81.1254 148.525 81.4142 148.627C81.7031 148.729 81.9623 148.889 82.1919 149.107C82.4216 149.324 82.6027 149.607 82.7353 149.955C82.8678 150.301 82.9341 150.721 82.9341 151.216V151.592H78.5982V150.797H81.8936C81.8936 150.518 81.8368 150.27 81.7232 150.055C81.6096 149.837 81.4498 149.665 81.2438 149.54C81.0402 149.414 80.8011 149.352 80.5265 149.352C80.2282 149.352 79.9677 149.425 79.7452 149.572C79.525 149.716 79.3546 149.906 79.2338 150.14C79.1155 150.372 79.0563 150.624 79.0563 150.896V151.518C79.0563 151.882 79.1202 152.192 79.248 152.448C79.3783 152.704 79.5594 152.899 79.7914 153.034C80.0234 153.167 80.2944 153.233 80.6046 153.233C80.8058 153.233 80.9893 153.205 81.155 153.148C81.3207 153.089 81.464 153.001 81.5847 152.885C81.7054 152.769 81.7978 152.626 81.8617 152.455L82.8667 152.636C82.7862 152.932 82.6417 153.192 82.4334 153.414C82.2275 153.634 81.9682 153.806 81.6557 153.929C81.3456 154.05 80.9917 154.11 80.5939 154.11ZM84.1122 154V148.545H85.1385V149.412H85.1953C85.2947 149.118 85.4699 148.888 85.7209 148.719C85.9742 148.549 86.2607 148.464 86.5803 148.464C86.6465 148.464 86.7247 148.466 86.8146 148.471C86.907 148.476 86.9792 148.482 87.0312 148.489V149.504C86.9886 149.492 86.9129 149.479 86.804 149.465C86.6951 149.449 86.5862 149.44 86.4773 149.44C86.2263 149.44 86.0026 149.494 85.8061 149.6C85.612 149.704 85.4581 149.85 85.3445 150.037C85.2308 150.222 85.174 150.432 85.174 150.669V154H84.1122ZM90.1056 154.11C89.5682 154.11 89.1054 153.995 88.7172 153.766C88.3313 153.534 88.033 153.208 87.8223 152.789C87.6139 152.368 87.5098 151.874 87.5098 151.308C87.5098 150.75 87.6139 150.257 87.8223 149.831C88.033 149.405 88.3265 149.072 88.7029 148.833C89.0817 148.594 89.5244 148.474 90.0311 148.474C90.3388 148.474 90.6371 148.525 90.926 148.627C91.2148 148.729 91.474 148.889 91.7037 149.107C91.9333 149.324 92.1144 149.607 92.247 149.955C92.3796 150.301 92.4458 150.721 92.4458 151.216V151.592H88.1099V150.797H91.4054C91.4054 150.518 91.3485 150.27 91.2349 150.055C91.1213 149.837 90.9615 149.665 90.7555 149.54C90.5519 149.414 90.3128 149.352 90.0382 149.352C89.7399 149.352 89.4795 149.425 89.2569 149.572C89.0368 149.716 88.8663 149.906 88.7456 150.14C88.6272 150.372 88.568 150.624 88.568 150.896V151.518C88.568 151.882 88.6319 152.192 88.7598 152.448C88.89 152.704 89.0711 152.899 89.3031 153.034C89.5351 153.167 89.8062 153.233 90.1163 153.233C90.3175 153.233 90.501 153.205 90.6667 153.148C90.8324 153.089 90.9757 153.001 91.0964 152.885C91.2172 152.769 91.3095 152.626 91.3734 152.455L92.3784 152.636C92.2979 152.932 92.1535 153.192 91.9451 153.414C91.7392 153.634 91.4799 153.806 91.1674 153.929C90.8573 154.05 90.5034 154.11 90.1056 154.11ZM97.4529 154L95.8478 148.545H96.9451L98.014 152.551H98.0673L99.1397 148.545H100.237L101.302 152.533H101.356L102.417 148.545H103.515L101.913 154H100.83L99.7221 150.062H99.6404L98.5325 154H97.4529ZM106.707 154.11C106.17 154.11 105.707 153.995 105.319 153.766C104.933 153.534 104.635 153.208 104.424 152.789C104.215 152.368 104.111 151.874 104.111 151.308C104.111 150.75 104.215 150.257 104.424 149.831C104.635 149.405 104.928 149.072 105.305 148.833C105.683 148.594 106.126 148.474 106.633 148.474C106.94 148.474 107.239 148.525 107.528 148.627C107.816 148.729 108.076 148.889 108.305 149.107C108.535 149.324 108.716 149.607 108.849 149.955C108.981 150.301 109.047 150.721 109.047 151.216V151.592H104.711V150.797H108.007C108.007 150.518 107.95 150.27 107.836 150.055C107.723 149.837 107.563 149.665 107.357 149.54C107.153 149.414 106.914 149.352 106.64 149.352C106.341 149.352 106.081 149.425 105.858 149.572C105.638 149.716 105.468 149.906 105.347 150.14C105.229 150.372 105.17 150.624 105.17 150.896V151.518C105.17 151.882 105.233 152.192 105.361 152.448C105.492 152.704 105.673 152.899 105.905 153.034C106.137 153.167 106.408 153.233 106.718 153.233C106.919 153.233 107.103 153.205 107.268 153.148C107.434 153.089 107.577 153.001 107.698 152.885C107.819 152.769 107.911 152.626 107.975 152.455L108.98 152.636C108.899 152.932 108.755 153.192 108.547 153.414C108.341 153.634 108.081 153.806 107.769 153.929C107.459 154.05 107.105 154.11 106.707 154.11ZM110.225 154V148.545H111.252V149.412H111.309C111.408 149.118 111.583 148.888 111.834 148.719C112.087 148.549 112.374 148.464 112.694 148.464C112.76 148.464 112.838 148.466 112.928 148.471C113.02 148.476 113.092 148.482 113.145 148.489V149.504C113.102 149.492 113.026 149.479 112.917 149.465C112.808 149.449 112.699 149.44 112.591 149.44C112.34 149.44 112.116 149.494 111.919 149.6C111.725 149.704 111.571 149.85 111.458 150.037C111.344 150.222 111.287 150.432 111.287 150.669V154H110.225ZM116.219 154.11C115.682 154.11 115.219 153.995 114.83 153.766C114.445 153.534 114.146 153.208 113.936 152.789C113.727 152.368 113.623 151.874 113.623 151.308C113.623 150.75 113.727 150.257 113.936 149.831C114.146 149.405 114.44 149.072 114.816 148.833C115.195 148.594 115.638 148.474 116.144 148.474C116.452 148.474 116.75 148.525 117.039 148.627C117.328 148.729 117.587 148.889 117.817 149.107C118.047 149.324 118.228 149.607 118.36 149.955C118.493 150.301 118.559 150.721 118.559 151.216V151.592H114.223V150.797H117.519C117.519 150.518 117.462 150.27 117.348 150.055C117.235 149.837 117.075 149.665 116.869 149.54C116.665 149.414 116.426 149.352 116.151 149.352C115.853 149.352 115.593 149.425 115.37 149.572C115.15 149.716 114.98 149.906 114.859 150.14C114.74 150.372 114.681 150.624 114.681 150.896V151.518C114.681 151.882 114.745 152.192 114.873 152.448C115.003 152.704 115.184 152.899 115.416 153.034C115.648 153.167 115.919 153.233 116.23 153.233C116.431 153.233 116.614 153.205 116.78 153.148C116.946 153.089 117.089 153.001 117.21 152.885C117.33 152.769 117.423 152.626 117.487 152.455L118.492 152.636C118.411 152.932 118.267 153.192 118.058 153.414C117.852 153.634 117.593 153.806 117.281 153.929C116.971 154.05 116.617 154.11 116.219 154.11ZM123.971 154.121C123.625 154.121 123.313 154.057 123.034 153.929C122.754 153.799 122.533 153.611 122.369 153.364C122.209 153.118 122.128 152.816 122.128 152.459C122.128 152.151 122.187 151.898 122.306 151.699C122.424 151.5 122.584 151.343 122.785 151.227C122.986 151.111 123.211 151.023 123.46 150.964C123.708 150.905 123.962 150.86 124.22 150.829C124.546 150.791 124.811 150.76 125.015 150.737C125.219 150.71 125.367 150.669 125.459 150.612C125.551 150.555 125.597 150.463 125.597 150.335V150.31C125.597 150 125.51 149.76 125.335 149.589C125.162 149.419 124.904 149.334 124.561 149.334C124.203 149.334 123.921 149.413 123.715 149.572C123.512 149.728 123.371 149.902 123.293 150.094L122.295 149.866C122.413 149.535 122.586 149.268 122.813 149.064C123.043 148.858 123.307 148.709 123.605 148.616C123.904 148.522 124.217 148.474 124.546 148.474C124.764 148.474 124.995 148.5 125.239 148.553C125.485 148.602 125.715 148.695 125.928 148.83C126.143 148.964 126.32 149.157 126.457 149.408C126.594 149.657 126.663 149.98 126.663 150.378V154H125.626V153.254H125.583C125.515 153.392 125.412 153.527 125.274 153.659C125.137 153.792 124.961 153.902 124.745 153.989C124.53 154.077 124.272 154.121 123.971 154.121ZM124.202 153.268C124.495 153.268 124.746 153.21 124.955 153.094C125.165 152.978 125.325 152.827 125.434 152.64C125.545 152.451 125.601 152.248 125.601 152.033V151.33C125.563 151.367 125.49 151.403 125.381 151.436C125.274 151.467 125.152 151.494 125.015 151.518C124.878 151.539 124.744 151.559 124.614 151.578C124.484 151.595 124.375 151.609 124.287 151.621C124.081 151.647 123.893 151.691 123.722 151.752C123.554 151.814 123.419 151.902 123.318 152.018C123.218 152.132 123.169 152.284 123.169 152.473C123.169 152.736 123.266 152.935 123.46 153.07C123.654 153.202 123.901 153.268 124.202 153.268ZM129.139 150.761V154H128.077V148.545H129.096V149.433H129.164C129.289 149.144 129.486 148.912 129.753 148.737C130.023 148.562 130.363 148.474 130.772 148.474C131.144 148.474 131.47 148.553 131.749 148.709C132.028 148.863 132.245 149.092 132.399 149.398C132.553 149.703 132.63 150.081 132.63 150.531V154H131.568V150.658C131.568 150.263 131.465 149.954 131.259 149.732C131.053 149.507 130.77 149.394 130.41 149.394C130.164 149.394 129.945 149.447 129.753 149.554C129.564 149.661 129.413 149.817 129.302 150.023C129.193 150.226 129.139 150.473 129.139 150.761ZM139.051 154.11C138.514 154.11 138.051 153.995 137.662 153.766C137.277 153.534 136.978 153.208 136.768 152.789C136.559 152.368 136.455 151.874 136.455 151.308C136.455 150.75 136.559 150.257 136.768 149.831C136.978 149.405 137.272 149.072 137.648 148.833C138.027 148.594 138.47 148.474 138.976 148.474C139.284 148.474 139.582 148.525 139.871 148.627C140.16 148.729 140.419 148.889 140.649 149.107C140.879 149.324 141.06 149.607 141.192 149.955C141.325 150.301 141.391 150.721 141.391 151.216V151.592H137.055V150.797H140.351C140.351 150.518 140.294 150.27 140.18 150.055C140.067 149.837 139.907 149.665 139.701 149.54C139.497 149.414 139.258 149.352 138.983 149.352C138.685 149.352 138.425 149.425 138.202 149.572C137.982 149.716 137.812 149.906 137.691 150.14C137.573 150.372 137.513 150.624 137.513 150.896V151.518C137.513 151.882 137.577 152.192 137.705 152.448C137.835 152.704 138.016 152.899 138.248 153.034C138.48 153.167 138.751 153.233 139.062 153.233C139.263 153.233 139.446 153.205 139.612 153.148C139.778 153.089 139.921 153.001 140.042 152.885C140.162 152.769 140.255 152.626 140.319 152.455L141.324 152.636C141.243 152.932 141.099 153.192 140.89 153.414C140.684 153.634 140.425 153.806 140.113 153.929C139.803 154.05 139.449 154.11 139.051 154.11ZM142.569 154V148.545H143.596V149.412H143.652C143.752 149.118 143.927 148.888 144.178 148.719C144.431 148.549 144.718 148.464 145.037 148.464C145.104 148.464 145.182 148.466 145.272 148.471C145.364 148.476 145.436 148.482 145.488 148.489V149.504C145.446 149.492 145.37 149.479 145.261 149.465C145.152 149.449 145.043 149.44 144.934 149.44C144.683 149.44 144.46 149.494 144.263 149.6C144.069 149.704 143.915 149.85 143.801 150.037C143.688 150.222 143.631 150.432 143.631 150.669V154H142.569ZM146.407 154V148.545H147.433V149.412H147.49C147.59 149.118 147.765 148.888 148.016 148.719C148.269 148.549 148.556 148.464 148.875 148.464C148.941 148.464 149.02 148.466 149.11 148.471C149.202 148.476 149.274 148.482 149.326 148.489V149.504C149.284 149.492 149.208 149.479 149.099 149.465C148.99 149.449 148.881 149.44 148.772 149.44C148.521 149.44 148.298 149.494 148.101 149.6C147.907 149.704 147.753 149.85 147.639 150.037C147.526 150.222 147.469 150.432 147.469 150.669V154H146.407ZM152.347 154.11C151.836 154.11 151.39 153.993 151.009 153.759C150.627 153.524 150.331 153.196 150.121 152.775C149.91 152.353 149.805 151.861 149.805 151.298C149.805 150.732 149.91 150.237 150.121 149.813C150.331 149.389 150.627 149.06 151.009 148.826C151.39 148.592 151.836 148.474 152.347 148.474C152.859 148.474 153.305 148.592 153.686 148.826C154.067 149.06 154.363 149.389 154.574 149.813C154.785 150.237 154.89 150.732 154.89 151.298C154.89 151.861 154.785 152.353 154.574 152.775C154.363 153.196 154.067 153.524 153.686 153.759C153.305 153.993 152.859 154.11 152.347 154.11ZM152.351 153.219C152.682 153.219 152.957 153.131 153.175 152.956C153.393 152.781 153.554 152.548 153.658 152.256C153.764 151.965 153.817 151.644 153.817 151.294C153.817 150.946 153.764 150.626 153.658 150.335C153.554 150.042 153.393 149.806 153.175 149.629C152.957 149.451 152.682 149.362 152.351 149.362C152.017 149.362 151.74 149.451 151.52 149.629C151.302 149.806 151.14 150.042 151.033 150.335C150.929 150.626 150.877 150.946 150.877 151.294C150.877 151.644 150.929 151.965 151.033 152.256C151.14 152.548 151.302 152.781 151.52 152.956C151.74 153.131 152.017 153.219 152.351 153.219ZM156.075 154V148.545H157.101V149.412H157.158C157.258 149.118 157.433 148.888 157.684 148.719C157.937 148.549 158.224 148.464 158.543 148.464C158.609 148.464 158.688 148.466 158.778 148.471C158.87 148.476 158.942 148.482 158.994 148.489V149.504C158.952 149.492 158.876 149.479 158.767 149.465C158.658 149.449 158.549 149.44 158.44 149.44C158.189 149.44 157.965 149.494 157.769 149.6C157.575 149.704 157.421 149.85 157.307 150.037C157.194 150.222 157.137 150.432 157.137 150.669V154H156.075ZM163.742 154L162.137 148.545H163.234L164.303 152.551H164.356L165.429 148.545H166.526L167.591 152.533H167.645L168.706 148.545H169.804L168.202 154H167.119L166.011 150.062H165.93L164.822 154H163.742ZM170.811 154V148.545H171.873V154H170.811ZM171.348 147.704C171.163 147.704 171.004 147.642 170.872 147.519C170.742 147.394 170.676 147.245 170.676 147.072C170.676 146.897 170.742 146.747 170.872 146.624C171.004 146.499 171.163 146.436 171.348 146.436C171.532 146.436 171.69 146.499 171.82 146.624C171.953 146.747 172.019 146.897 172.019 147.072C172.019 147.245 171.953 147.394 171.82 147.519C171.69 147.642 171.532 147.704 171.348 147.704ZM175.848 148.545V149.398H172.868V148.545H175.848ZM173.667 147.239H174.729V152.398C174.729 152.604 174.76 152.759 174.822 152.864C174.883 152.965 174.962 153.035 175.059 153.073C175.159 153.109 175.267 153.126 175.383 153.126C175.468 153.126 175.542 153.121 175.606 153.109C175.67 153.097 175.72 153.087 175.756 153.08L175.947 153.957C175.886 153.981 175.798 154.005 175.684 154.028C175.571 154.054 175.429 154.069 175.258 154.071C174.979 154.076 174.719 154.026 174.477 153.922C174.236 153.818 174.04 153.657 173.891 153.439C173.742 153.221 173.667 152.948 173.667 152.619V147.239ZM178.201 150.761V154H177.14V146.727H178.187V149.433H178.255C178.382 149.14 178.578 148.906 178.841 148.734C179.103 148.561 179.447 148.474 179.87 148.474C180.244 148.474 180.571 148.551 180.85 148.705C181.132 148.859 181.35 149.089 181.504 149.394C181.66 149.697 181.738 150.076 181.738 150.531V154H180.676V150.658C180.676 150.258 180.574 149.948 180.368 149.728C180.162 149.505 179.875 149.394 179.508 149.394C179.257 149.394 179.032 149.447 178.833 149.554C178.637 149.661 178.482 149.817 178.368 150.023C178.257 150.226 178.201 150.473 178.201 150.761ZM186.473 156.045C186.314 156.045 186.17 156.032 186.04 156.006C185.909 155.983 185.812 155.957 185.748 155.928L186.004 155.058C186.198 155.11 186.371 155.133 186.523 155.126C186.674 155.119 186.808 155.062 186.924 154.955C187.042 154.849 187.146 154.675 187.236 154.433L187.368 154.071L185.372 148.545H186.508L187.89 152.778H187.947L189.328 148.545H190.468L188.22 154.728C188.116 155.012 187.983 155.252 187.822 155.449C187.661 155.648 187.47 155.797 187.247 155.896C187.024 155.996 186.766 156.045 186.473 156.045ZM193.578 154.11C193.066 154.11 192.62 153.993 192.239 153.759C191.858 153.524 191.562 153.196 191.351 152.775C191.141 152.353 191.035 151.861 191.035 151.298C191.035 150.732 191.141 150.237 191.351 149.813C191.562 149.389 191.858 149.06 192.239 148.826C192.62 148.592 193.066 148.474 193.578 148.474C194.089 148.474 194.535 148.592 194.917 148.826C195.298 149.06 195.594 149.389 195.804 149.813C196.015 150.237 196.12 150.732 196.12 151.298C196.12 151.861 196.015 152.353 195.804 152.775C195.594 153.196 195.298 153.524 194.917 153.759C194.535 153.993 194.089 154.11 193.578 154.11ZM193.581 153.219C193.913 153.219 194.187 153.131 194.405 152.956C194.623 152.781 194.784 152.548 194.888 152.256C194.995 151.965 195.048 151.644 195.048 151.294C195.048 150.946 194.995 150.626 194.888 150.335C194.784 150.042 194.623 149.806 194.405 149.629C194.187 149.451 193.913 149.362 193.581 149.362C193.248 149.362 192.971 149.451 192.75 149.629C192.533 149.806 192.37 150.042 192.264 150.335C192.16 150.626 192.108 150.946 192.108 151.294C192.108 151.644 192.16 151.965 192.264 152.256C192.37 152.548 192.533 152.781 192.75 152.956C192.971 153.131 193.248 153.219 193.581 153.219ZM200.761 151.738V148.545H201.826V154H200.782V153.055H200.725C200.6 153.347 200.399 153.589 200.122 153.783C199.847 153.975 199.505 154.071 199.095 154.071C198.745 154.071 198.435 153.994 198.165 153.84C197.897 153.684 197.687 153.453 197.533 153.148C197.381 152.842 197.306 152.465 197.306 152.015V148.545H198.367V151.887C198.367 152.259 198.47 152.555 198.676 152.775C198.882 152.995 199.15 153.105 199.479 153.105C199.678 153.105 199.875 153.055 200.072 152.956C200.271 152.857 200.435 152.706 200.566 152.505C200.698 152.304 200.763 152.048 200.761 151.738ZM203.253 154V148.545H204.279V149.412H204.336C204.435 149.118 204.611 148.888 204.862 148.719C205.115 148.549 205.401 148.464 205.721 148.464C205.787 148.464 205.865 148.466 205.955 148.471C206.048 148.476 206.12 148.482 206.172 148.489V149.504C206.129 149.492 206.054 149.479 205.945 149.465C205.836 149.449 205.727 149.44 205.618 149.44C205.367 149.44 205.143 149.494 204.947 149.6C204.753 149.704 204.599 149.85 204.485 150.037C204.371 150.222 204.315 150.432 204.315 150.669V154H203.253ZM213.825 149.877L212.862 150.048C212.822 149.924 212.758 149.807 212.67 149.696C212.585 149.585 212.469 149.494 212.322 149.423C212.176 149.352 211.992 149.316 211.772 149.316C211.471 149.316 211.22 149.384 211.019 149.518C210.818 149.651 210.717 149.823 210.717 150.033C210.717 150.216 210.785 150.362 210.92 150.474C211.055 150.585 211.272 150.676 211.573 150.747L212.44 150.946C212.942 151.062 213.316 151.241 213.562 151.482C213.808 151.724 213.931 152.037 213.931 152.423C213.931 152.75 213.836 153.041 213.647 153.297C213.46 153.55 213.198 153.749 212.862 153.893C212.528 154.038 212.141 154.11 211.701 154.11C211.09 154.11 210.592 153.98 210.206 153.719C209.82 153.457 209.583 153.084 209.496 152.601L210.522 152.445C210.586 152.712 210.717 152.915 210.916 153.052C211.115 153.187 211.374 153.254 211.694 153.254C212.042 153.254 212.32 153.182 212.528 153.038C212.737 152.891 212.841 152.712 212.841 152.501C212.841 152.331 212.777 152.188 212.649 152.072C212.524 151.956 212.331 151.868 212.07 151.809L211.147 151.607C210.638 151.491 210.262 151.306 210.018 151.053C209.776 150.799 209.656 150.478 209.656 150.09C209.656 149.768 209.746 149.487 209.925 149.245C210.105 149.004 210.354 148.815 210.671 148.68C210.988 148.543 211.352 148.474 211.761 148.474C212.351 148.474 212.815 148.602 213.153 148.858C213.492 149.111 213.716 149.451 213.825 149.877ZM218.554 151.738V148.545H219.619V154H218.575V153.055H218.518C218.393 153.347 218.192 153.589 217.915 153.783C217.64 153.975 217.298 154.071 216.888 154.071C216.538 154.071 216.228 153.994 215.958 153.84C215.69 153.684 215.48 153.453 215.326 153.148C215.174 152.842 215.099 152.465 215.099 152.015V148.545H216.16V151.887C216.16 152.259 216.263 152.555 216.469 152.775C216.675 152.995 216.943 153.105 217.272 153.105C217.471 153.105 217.668 153.055 217.865 152.956C218.064 152.857 218.228 152.706 218.358 152.505C218.491 152.304 218.556 152.048 218.554 151.738ZM221.131 154V146.727H222.193V149.43H222.257C222.318 149.316 222.407 149.185 222.523 149.036C222.639 148.886 222.8 148.756 223.006 148.645C223.212 148.531 223.484 148.474 223.823 148.474C224.263 148.474 224.656 148.586 225.002 148.808C225.347 149.031 225.618 149.352 225.815 149.771C226.014 150.19 226.113 150.694 226.113 151.283C226.113 151.873 226.015 152.378 225.819 152.8C225.622 153.219 225.352 153.542 225.009 153.769C224.666 153.994 224.274 154.107 223.833 154.107C223.502 154.107 223.231 154.051 223.02 153.94C222.812 153.828 222.649 153.698 222.53 153.549C222.412 153.4 222.321 153.267 222.257 153.151H222.168V154H221.131ZM222.172 151.273C222.172 151.656 222.227 151.992 222.338 152.281C222.45 152.57 222.611 152.796 222.821 152.96C223.032 153.121 223.29 153.201 223.596 153.201C223.913 153.201 224.178 153.117 224.391 152.949C224.604 152.778 224.765 152.548 224.874 152.256C224.985 151.965 225.041 151.637 225.041 151.273C225.041 150.913 224.986 150.59 224.877 150.303C224.771 150.017 224.61 149.791 224.395 149.625C224.181 149.459 223.915 149.376 223.596 149.376C223.288 149.376 223.027 149.456 222.814 149.614C222.604 149.773 222.444 149.994 222.335 150.278C222.226 150.562 222.172 150.894 222.172 151.273ZM227.306 154V148.545H228.325V149.433H228.392C228.506 149.133 228.692 148.898 228.95 148.73C229.208 148.56 229.517 148.474 229.877 148.474C230.241 148.474 230.547 148.56 230.793 148.73C231.041 148.901 231.225 149.135 231.343 149.433H231.4C231.53 149.142 231.737 148.91 232.021 148.737C232.306 148.562 232.644 148.474 233.037 148.474C233.532 148.474 233.936 148.629 234.248 148.94C234.563 149.25 234.72 149.717 234.72 150.342V154H233.659V150.442C233.659 150.072 233.558 149.805 233.357 149.639C233.155 149.473 232.915 149.391 232.636 149.391C232.29 149.391 232.021 149.497 231.83 149.71C231.638 149.921 231.542 150.192 231.542 150.523V154H230.484V150.374C230.484 150.078 230.392 149.84 230.207 149.661C230.022 149.481 229.782 149.391 229.486 149.391C229.285 149.391 229.099 149.444 228.928 149.55C228.76 149.655 228.624 149.8 228.52 149.987C228.418 150.174 228.367 150.391 228.367 150.637V154H227.306ZM236.143 154V148.545H237.205V154H236.143ZM236.68 147.704C236.495 147.704 236.336 147.642 236.204 147.519C236.074 147.394 236.009 147.245 236.009 147.072C236.009 146.897 236.074 146.747 236.204 146.624C236.336 146.499 236.495 146.436 236.68 146.436C236.864 146.436 237.022 146.499 237.152 146.624C237.285 146.747 237.351 146.897 237.351 147.072C237.351 147.245 237.285 147.394 237.152 147.519C237.022 147.642 236.864 147.704 236.68 147.704ZM242.721 149.877L241.759 150.048C241.718 149.924 241.655 149.807 241.567 149.696C241.482 149.585 241.366 149.494 241.219 149.423C241.072 149.352 240.889 149.316 240.669 149.316C240.368 149.316 240.117 149.384 239.916 149.518C239.714 149.651 239.614 149.823 239.614 150.033C239.614 150.216 239.681 150.362 239.816 150.474C239.951 150.585 240.169 150.676 240.47 150.747L241.336 150.946C241.838 151.062 242.212 151.241 242.458 151.482C242.704 151.724 242.828 152.037 242.828 152.423C242.828 152.75 242.733 153.041 242.544 153.297C242.356 153.55 242.095 153.749 241.759 153.893C241.425 154.038 241.038 154.11 240.597 154.11C239.987 154.11 239.488 153.98 239.102 153.719C238.717 153.457 238.48 153.084 238.392 152.601L239.419 152.445C239.482 152.712 239.614 152.915 239.813 153.052C240.012 153.187 240.271 153.254 240.59 153.254C240.938 153.254 241.217 153.182 241.425 153.038C241.633 152.891 241.737 152.712 241.737 152.501C241.737 152.331 241.673 152.188 241.546 152.072C241.42 151.956 241.227 151.868 240.967 151.809L240.044 151.607C239.535 151.491 239.158 151.306 238.914 151.053C238.673 150.799 238.552 150.478 238.552 150.09C238.552 149.768 238.642 149.487 238.822 149.245C239.002 149.004 239.25 148.815 239.568 148.68C239.885 148.543 240.248 148.474 240.658 148.474C241.247 148.474 241.711 148.602 242.05 148.858C242.388 149.111 242.612 149.451 242.721 149.877ZM248.082 149.877L247.12 150.048C247.08 149.924 247.016 149.807 246.928 149.696C246.843 149.585 246.727 149.494 246.58 149.423C246.433 149.352 246.25 149.316 246.03 149.316C245.729 149.316 245.478 149.384 245.277 149.518C245.076 149.651 244.975 149.823 244.975 150.033C244.975 150.216 245.043 150.362 245.178 150.474C245.313 150.585 245.53 150.676 245.831 150.747L246.697 150.946C247.199 151.062 247.573 151.241 247.82 151.482C248.066 151.724 248.189 152.037 248.189 152.423C248.189 152.75 248.094 153.041 247.905 153.297C247.718 153.55 247.456 153.749 247.12 153.893C246.786 154.038 246.399 154.11 245.959 154.11C245.348 154.11 244.85 153.98 244.464 153.719C244.078 153.457 243.841 153.084 243.754 152.601L244.78 152.445C244.844 152.712 244.975 152.915 245.174 153.052C245.373 153.187 245.632 153.254 245.952 153.254C246.3 153.254 246.578 153.182 246.786 153.038C246.995 152.891 247.099 152.712 247.099 152.501C247.099 152.331 247.035 152.188 246.907 152.072C246.781 151.956 246.589 151.868 246.328 151.809L245.405 151.607C244.896 151.491 244.519 151.306 244.276 151.053C244.034 150.799 243.913 150.478 243.913 150.09C243.913 149.768 244.003 149.487 244.183 149.245C244.363 149.004 244.612 148.815 244.929 148.68C245.246 148.543 245.61 148.474 246.019 148.474C246.609 148.474 247.073 148.602 247.411 148.858C247.75 149.111 247.973 149.451 248.082 149.877ZM249.356 154V148.545H250.418V154H249.356ZM249.893 147.704C249.708 147.704 249.549 147.642 249.417 147.519C249.287 147.394 249.221 147.245 249.221 147.072C249.221 146.897 249.287 146.747 249.417 146.624C249.549 146.499 249.708 146.436 249.893 146.436C250.077 146.436 250.235 146.499 250.365 146.624C250.497 146.747 250.564 146.897 250.564 147.072C250.564 147.245 250.497 147.394 250.365 147.519C250.235 147.642 250.077 147.704 249.893 147.704ZM254.144 154.11C253.633 154.11 253.187 153.993 252.805 153.759C252.424 153.524 252.128 153.196 251.918 152.775C251.707 152.353 251.602 151.861 251.602 151.298C251.602 150.732 251.707 150.237 251.918 149.813C252.128 149.389 252.424 149.06 252.805 148.826C253.187 148.592 253.633 148.474 254.144 148.474C254.656 148.474 255.102 148.592 255.483 148.826C255.864 149.06 256.16 149.389 256.371 149.813C256.581 150.237 256.687 150.732 256.687 151.298C256.687 151.861 256.581 152.353 256.371 152.775C256.16 153.196 255.864 153.524 255.483 153.759C255.102 153.993 254.656 154.11 254.144 154.11ZM254.148 153.219C254.479 153.219 254.754 153.131 254.972 152.956C255.189 152.781 255.35 152.548 255.455 152.256C255.561 151.965 255.614 151.644 255.614 151.294C255.614 150.946 255.561 150.626 255.455 150.335C255.35 150.042 255.189 149.806 254.972 149.629C254.754 149.451 254.479 149.362 254.148 149.362C253.814 149.362 253.537 149.451 253.317 149.629C253.099 149.806 252.937 150.042 252.83 150.335C252.726 150.626 252.674 150.946 252.674 151.294C252.674 151.644 252.726 151.965 252.83 152.256C252.937 152.548 253.099 152.781 253.317 152.956C253.537 153.131 253.814 153.219 254.148 153.219ZM258.934 150.761V154H257.872V148.545H258.891V149.433H258.959C259.084 149.144 259.281 148.912 259.548 148.737C259.818 148.562 260.158 148.474 260.567 148.474C260.939 148.474 261.265 148.553 261.544 148.709C261.823 148.863 262.04 149.092 262.194 149.398C262.348 149.703 262.425 150.081 262.425 150.531V154H261.363V150.658C261.363 150.263 261.26 149.954 261.054 149.732C260.848 149.507 260.565 149.394 260.205 149.394C259.959 149.394 259.74 149.447 259.548 149.554C259.359 149.661 259.208 149.817 259.097 150.023C258.988 150.226 258.934 150.473 258.934 150.761Z" fill="#991B1B"/>
<path d="M65.2557 165.727H66.2642L68.2812 169.122H68.3665L70.3835 165.727H71.392L68.7642 170.003V173H67.8835V170.003L65.2557 165.727ZM73.8619 173.114C73.3694 173.114 72.9374 172.996 72.5657 172.762C72.1964 172.528 71.9076 172.2 71.6992 171.778C71.4933 171.357 71.3903 170.865 71.3903 170.301C71.3903 169.733 71.4933 169.237 71.6992 168.813C71.9076 168.389 72.1964 168.06 72.5657 167.826C72.9374 167.592 73.3694 167.474 73.8619 167.474C74.3543 167.474 74.7852 167.592 75.1545 167.826C75.5262 168.06 75.815 168.389 76.021 168.813C76.2293 169.237 76.3335 169.733 76.3335 170.301C76.3335 170.865 76.2293 171.357 76.021 171.778C75.815 172.2 75.5262 172.528 75.1545 172.762C74.7852 172.996 74.3543 173.114 73.8619 173.114ZM73.8619 172.361C74.2359 172.361 74.5437 172.265 74.7852 172.073C75.0266 171.881 75.2054 171.629 75.3214 171.317C75.4374 171.004 75.4954 170.666 75.4954 170.301C75.4954 169.937 75.4374 169.597 75.3214 169.282C75.2054 168.967 75.0266 168.713 74.7852 168.518C74.5437 168.324 74.2359 168.227 73.8619 168.227C73.4878 168.227 73.18 168.324 72.9386 168.518C72.6971 168.713 72.5183 168.967 72.4023 169.282C72.2863 169.597 72.2283 169.937 72.2283 170.301C72.2283 170.666 72.2863 171.004 72.4023 171.317C72.5183 171.629 72.6971 171.881 72.9386 172.073C73.18 172.265 73.4878 172.361 73.8619 172.361ZM81.0502 170.77V167.545H81.8883V173H81.0502V172.077H80.9934C80.8656 172.354 80.6667 172.589 80.3968 172.783C80.127 172.975 79.786 173.071 79.3741 173.071C79.0332 173.071 78.7302 172.996 78.465 172.847C78.1999 172.696 77.9915 172.469 77.84 172.165C77.6885 171.86 77.6127 171.475 77.6127 171.011V167.545H78.4508V170.955C78.4508 171.352 78.5621 171.67 78.7846 171.906C79.0095 172.143 79.296 172.261 79.644 172.261C79.8523 172.261 80.0642 172.208 80.2797 172.102C80.4975 171.995 80.6797 171.832 80.8265 171.612C80.9757 171.391 81.0502 171.111 81.0502 170.77ZM83.4233 173V167.545H84.233V168.369H84.2898C84.3892 168.099 84.5691 167.88 84.8295 167.712C85.09 167.544 85.3835 167.46 85.7102 167.46C85.7718 167.46 85.8487 167.461 85.9411 167.464C86.0334 167.466 86.1032 167.47 86.1506 167.474V168.327C86.1222 168.32 86.0571 168.309 85.9553 168.295C85.8558 168.278 85.7505 168.27 85.6392 168.27C85.3741 168.27 85.1373 168.326 84.929 168.437C84.723 168.546 84.5597 168.697 84.4389 168.891C84.3205 169.083 84.2614 169.302 84.2614 169.548V173H83.4233ZM89.9565 175.045V167.545H90.7662V168.412H90.8656C90.9271 168.317 91.0124 168.196 91.1213 168.05C91.2325 167.901 91.3912 167.768 91.5971 167.652C91.8055 167.534 92.0872 167.474 92.4423 167.474C92.9016 167.474 93.3064 167.589 93.6568 167.819C94.0072 168.049 94.2806 168.374 94.4771 168.795C94.6736 169.217 94.7718 169.714 94.7718 170.287C94.7718 170.865 94.6736 171.365 94.4771 171.789C94.2806 172.21 94.0083 172.537 93.6603 172.769C93.3123 172.999 92.911 173.114 92.4565 173.114C92.1061 173.114 91.8256 173.056 91.6149 172.94C91.4042 172.821 91.242 172.687 91.1284 172.538C91.0147 172.387 90.9271 172.261 90.8656 172.162H90.7946V175.045H89.9565ZM90.7804 170.273C90.7804 170.685 90.8407 171.048 90.9615 171.363C91.0822 171.675 91.2586 171.92 91.4906 172.098C91.7226 172.273 92.0067 172.361 92.3429 172.361C92.6932 172.361 92.9856 172.268 93.22 172.084C93.4567 171.897 93.6343 171.646 93.7527 171.331C93.8734 171.014 93.9338 170.661 93.9338 170.273C93.9338 169.889 93.8746 169.544 93.7562 169.236C93.6402 168.926 93.4638 168.681 93.2271 168.501C92.9927 168.318 92.698 168.227 92.3429 168.227C92.002 168.227 91.7155 168.314 91.4835 168.487C91.2515 168.657 91.0763 168.896 90.9579 169.204C90.8395 169.509 90.7804 169.866 90.7804 170.273ZM97.6554 173.128C97.3097 173.128 96.996 173.063 96.7143 172.933C96.4326 172.8 96.2089 172.609 96.0431 172.361C95.8774 172.11 95.7946 171.807 95.7946 171.452C95.7946 171.139 95.8561 170.886 95.9792 170.692C96.1023 170.495 96.2669 170.341 96.4728 170.23C96.6788 170.119 96.9061 170.036 97.1547 169.982C97.4056 169.925 97.6577 169.88 97.911 169.847C98.2425 169.804 98.5112 169.772 98.7172 169.751C98.9255 169.727 99.077 169.688 99.1717 169.634C99.2688 169.579 99.3173 169.484 99.3173 169.349V169.321C99.3173 168.971 99.2214 168.698 99.0297 168.504C98.8403 168.31 98.5526 168.213 98.1667 168.213C97.7666 168.213 97.4529 168.301 97.2257 168.476C96.9984 168.651 96.8386 168.838 96.7463 169.037L95.9508 168.753C96.0929 168.421 96.2823 168.163 96.519 167.979C96.7581 167.792 97.0185 167.661 97.3002 167.588C97.5843 167.512 97.8637 167.474 98.1383 167.474C98.3135 167.474 98.5147 167.496 98.742 167.538C98.9717 167.579 99.193 167.663 99.4061 167.79C99.6215 167.918 99.8002 168.111 99.9423 168.369C100.084 168.627 100.155 168.973 100.155 169.406V173H99.3173V172.261H99.2747C99.2179 172.38 99.1232 172.506 98.9906 172.641C98.858 172.776 98.6816 172.891 98.4615 172.986C98.2413 173.08 97.9726 173.128 97.6554 173.128ZM97.7832 172.375C98.1146 172.375 98.394 172.31 98.6213 172.18C98.8509 172.049 99.0237 171.881 99.1397 171.675C99.2581 171.469 99.3173 171.253 99.3173 171.026V170.259C99.2818 170.301 99.2037 170.34 99.0829 170.376C98.9645 170.409 98.8272 170.438 98.671 170.464C98.5171 170.488 98.3668 170.509 98.22 170.528C98.0756 170.545 97.9584 170.559 97.8684 170.571C97.6506 170.599 97.447 170.646 97.2576 170.71C97.0706 170.771 96.9191 170.865 96.8031 170.99C96.6895 171.113 96.6326 171.281 96.6326 171.494C96.6326 171.786 96.7404 172.006 96.9558 172.155C97.1736 172.302 97.4494 172.375 97.7832 172.375ZM105.549 168.767L104.796 168.98C104.748 168.855 104.679 168.733 104.586 168.614C104.496 168.494 104.373 168.394 104.217 168.316C104.061 168.238 103.861 168.199 103.617 168.199C103.283 168.199 103.005 168.276 102.782 168.43C102.562 168.581 102.452 168.774 102.452 169.009C102.452 169.217 102.528 169.381 102.679 169.502C102.831 169.623 103.068 169.723 103.39 169.804L104.199 170.003C104.687 170.121 105.05 170.302 105.289 170.546C105.529 170.788 105.648 171.099 105.648 171.48C105.648 171.793 105.558 172.072 105.378 172.318C105.201 172.564 104.952 172.759 104.632 172.901C104.313 173.043 103.941 173.114 103.517 173.114C102.961 173.114 102.501 172.993 102.136 172.751C101.771 172.51 101.541 172.157 101.444 171.693L102.239 171.494C102.315 171.788 102.458 172.008 102.669 172.155C102.882 172.302 103.16 172.375 103.503 172.375C103.894 172.375 104.204 172.292 104.434 172.126C104.666 171.958 104.782 171.757 104.782 171.523C104.782 171.333 104.715 171.175 104.583 171.047C104.45 170.917 104.247 170.82 103.972 170.756L103.063 170.543C102.563 170.424 102.196 170.241 101.962 169.992C101.73 169.741 101.614 169.428 101.614 169.051C101.614 168.743 101.7 168.471 101.873 168.234C102.048 167.998 102.286 167.812 102.587 167.677C102.89 167.542 103.233 167.474 103.617 167.474C104.157 167.474 104.58 167.593 104.888 167.83C105.198 168.066 105.418 168.379 105.549 168.767ZM110.773 168.767L110.02 168.98C109.973 168.855 109.903 168.733 109.811 168.614C109.721 168.494 109.598 168.394 109.442 168.316C109.285 168.238 109.085 168.199 108.841 168.199C108.508 168.199 108.229 168.276 108.007 168.43C107.787 168.581 107.677 168.774 107.677 169.009C107.677 169.217 107.752 169.381 107.904 169.502C108.055 169.623 108.292 169.723 108.614 169.804L109.424 170.003C109.912 170.121 110.275 170.302 110.514 170.546C110.753 170.788 110.873 171.099 110.873 171.48C110.873 171.793 110.783 172.072 110.603 172.318C110.425 172.564 110.177 172.759 109.857 172.901C109.537 173.043 109.166 173.114 108.742 173.114C108.186 173.114 107.725 172.993 107.361 172.751C106.996 172.51 106.765 172.157 106.668 171.693L107.464 171.494C107.539 171.788 107.683 172.008 107.893 172.155C108.106 172.302 108.385 172.375 108.728 172.375C109.118 172.375 109.429 172.292 109.658 172.126C109.89 171.958 110.006 171.757 110.006 171.523C110.006 171.333 109.94 171.175 109.807 171.047C109.675 170.917 109.471 170.82 109.197 170.756L108.287 170.543C107.788 170.424 107.421 170.241 107.187 169.992C106.955 169.741 106.839 169.428 106.839 169.051C106.839 168.743 106.925 168.471 107.098 168.234C107.273 167.998 107.511 167.812 107.812 167.677C108.115 167.542 108.458 167.474 108.841 167.474C109.381 167.474 109.805 167.593 110.113 167.83C110.423 168.066 110.643 168.379 110.773 168.767ZM113.37 173L111.708 167.545H112.589L113.768 171.722H113.825L114.989 167.545H115.884L117.035 171.707H117.092L118.271 167.545H119.151L117.489 173H116.665L115.472 168.81H115.387L114.194 173H113.37ZM122.29 173.114C121.797 173.114 121.365 172.996 120.993 172.762C120.624 172.528 120.335 172.2 120.127 171.778C119.921 171.357 119.818 170.865 119.818 170.301C119.818 169.733 119.921 169.237 120.127 168.813C120.335 168.389 120.624 168.06 120.993 167.826C121.365 167.592 121.797 167.474 122.29 167.474C122.782 167.474 123.213 167.592 123.582 167.826C123.954 168.06 124.243 168.389 124.449 168.813C124.657 169.237 124.761 169.733 124.761 170.301C124.761 170.865 124.657 171.357 124.449 171.778C124.243 172.2 123.954 172.528 123.582 172.762C123.213 172.996 122.782 173.114 122.29 173.114ZM122.29 172.361C122.664 172.361 122.971 172.265 123.213 172.073C123.454 171.881 123.633 171.629 123.749 171.317C123.865 171.004 123.923 170.666 123.923 170.301C123.923 169.937 123.865 169.597 123.749 169.282C123.633 168.967 123.454 168.713 123.213 168.518C122.971 168.324 122.664 168.227 122.29 168.227C121.916 168.227 121.608 168.324 121.366 168.518C121.125 168.713 120.946 168.967 120.83 169.282C120.714 169.597 120.656 169.937 120.656 170.301C120.656 170.666 120.714 171.004 120.83 171.317C120.946 171.629 121.125 171.881 121.366 172.073C121.608 172.265 121.916 172.361 122.29 172.361ZM126.04 173V167.545H126.85V168.369H126.907C127.006 168.099 127.186 167.88 127.447 167.712C127.707 167.544 128.001 167.46 128.327 167.46C128.389 167.46 128.466 167.461 128.558 167.464C128.651 167.466 128.72 167.47 128.768 167.474V168.327C128.739 168.32 128.674 168.309 128.572 168.295C128.473 168.278 128.368 168.27 128.256 168.27C127.991 168.27 127.754 168.326 127.546 168.437C127.34 168.546 127.177 168.697 127.056 168.891C126.938 169.083 126.879 169.302 126.879 169.548V173H126.04ZM131.655 173.114C131.2 173.114 130.799 172.999 130.451 172.769C130.103 172.537 129.831 172.21 129.634 171.789C129.438 171.365 129.339 170.865 129.339 170.287C129.339 169.714 129.438 169.217 129.634 168.795C129.831 168.374 130.104 168.049 130.455 167.819C130.805 167.589 131.21 167.474 131.669 167.474C132.024 167.474 132.305 167.534 132.511 167.652C132.719 167.768 132.878 167.901 132.987 168.05C133.098 168.196 133.184 168.317 133.246 168.412H133.317V165.727H134.155V173H133.345V172.162H133.246C133.184 172.261 133.097 172.387 132.983 172.538C132.869 172.687 132.707 172.821 132.496 172.94C132.286 173.056 132.005 173.114 131.655 173.114ZM131.768 172.361C132.105 172.361 132.389 172.273 132.621 172.098C132.853 171.92 133.029 171.675 133.15 171.363C133.271 171.048 133.331 170.685 133.331 170.273C133.331 169.866 133.272 169.509 133.153 169.204C133.035 168.896 132.86 168.657 132.628 168.487C132.396 168.314 132.109 168.227 131.768 168.227C131.413 168.227 131.117 168.318 130.881 168.501C130.646 168.681 130.47 168.926 130.352 169.236C130.236 169.544 130.178 169.889 130.178 170.273C130.178 170.661 130.237 171.014 130.355 171.331C130.476 171.646 130.653 171.897 130.888 172.084C131.125 172.268 131.418 172.361 131.768 172.361ZM138.619 173V167.545H139.428V168.398H139.499C139.613 168.107 139.796 167.88 140.05 167.719C140.303 167.556 140.607 167.474 140.962 167.474C141.322 167.474 141.622 167.556 141.861 167.719C142.102 167.88 142.29 168.107 142.425 168.398H142.482C142.622 168.116 142.831 167.892 143.111 167.727C143.39 167.558 143.725 167.474 144.116 167.474C144.603 167.474 145.002 167.627 145.312 167.933C145.623 168.236 145.778 168.708 145.778 169.349V173H144.94V169.349C144.94 168.947 144.83 168.659 144.609 168.487C144.389 168.314 144.13 168.227 143.832 168.227C143.448 168.227 143.151 168.343 142.94 168.575C142.73 168.805 142.624 169.096 142.624 169.449V173H141.772V169.264C141.772 168.954 141.671 168.704 141.47 168.515C141.269 168.323 141.01 168.227 140.692 168.227C140.475 168.227 140.271 168.285 140.082 168.401C139.895 168.517 139.743 168.678 139.627 168.884C139.513 169.088 139.457 169.323 139.457 169.591V173H138.619ZM150.748 170.77V167.545H151.586V173H150.748V172.077H150.691C150.563 172.354 150.364 172.589 150.094 172.783C149.824 172.975 149.483 173.071 149.071 173.071C148.73 173.071 148.427 172.996 148.162 172.847C147.897 172.696 147.689 172.469 147.537 172.165C147.386 171.86 147.31 171.475 147.31 171.011V167.545H148.148V170.955C148.148 171.352 148.259 171.67 148.482 171.906C148.707 172.143 148.993 172.261 149.341 172.261C149.55 172.261 149.761 172.208 149.977 172.102C150.195 171.995 150.377 171.832 150.524 171.612C150.673 171.391 150.748 171.111 150.748 170.77ZM156.984 168.767L156.231 168.98C156.184 168.855 156.114 168.733 156.022 168.614C155.932 168.494 155.809 168.394 155.653 168.316C155.496 168.238 155.296 168.199 155.052 168.199C154.719 168.199 154.44 168.276 154.218 168.43C153.998 168.581 153.888 168.774 153.888 169.009C153.888 169.217 153.963 169.381 154.115 169.502C154.266 169.623 154.503 169.723 154.825 169.804L155.635 170.003C156.122 170.121 156.486 170.302 156.725 170.546C156.964 170.788 157.084 171.099 157.084 171.48C157.084 171.793 156.994 172.072 156.814 172.318C156.636 172.564 156.388 172.759 156.068 172.901C155.748 173.043 155.377 173.114 154.953 173.114C154.397 173.114 153.936 172.993 153.572 172.751C153.207 172.51 152.976 172.157 152.879 171.693L153.675 171.494C153.75 171.788 153.894 172.008 154.104 172.155C154.317 172.302 154.595 172.375 154.939 172.375C155.329 172.375 155.64 172.292 155.869 172.126C156.101 171.958 156.217 171.757 156.217 171.523C156.217 171.333 156.151 171.175 156.018 171.047C155.886 170.917 155.682 170.82 155.407 170.756L154.498 170.543C153.999 170.424 153.632 170.241 153.398 169.992C153.166 169.741 153.05 169.428 153.05 169.051C153.05 168.743 153.136 168.471 153.309 168.234C153.484 167.998 153.722 167.812 154.023 167.677C154.326 167.542 154.669 167.474 155.052 167.474C155.592 167.474 156.016 167.593 156.324 167.83C156.634 168.066 156.854 168.379 156.984 168.767ZM160.717 167.545V168.256H157.891V167.545H160.717ZM158.714 166.239H159.553V171.438C159.553 171.674 159.587 171.852 159.656 171.97C159.727 172.086 159.817 172.164 159.925 172.205C160.037 172.242 160.154 172.261 160.277 172.261C160.369 172.261 160.445 172.257 160.504 172.247C160.563 172.235 160.611 172.226 160.646 172.219L160.817 172.972C160.76 172.993 160.681 173.014 160.579 173.036C160.477 173.059 160.348 173.071 160.192 173.071C159.955 173.071 159.723 173.02 159.496 172.918C159.271 172.817 159.084 172.661 158.935 172.453C158.788 172.245 158.714 171.982 158.714 171.665V166.239ZM164.904 173V165.727H165.742V168.412H165.813C165.875 168.317 165.96 168.196 166.069 168.05C166.18 167.901 166.339 167.768 166.545 167.652C166.753 167.534 167.035 167.474 167.39 167.474C167.849 167.474 168.254 167.589 168.604 167.819C168.955 168.049 169.228 168.374 169.425 168.795C169.621 169.217 169.719 169.714 169.719 170.287C169.719 170.865 169.621 171.365 169.425 171.789C169.228 172.21 168.956 172.537 168.608 172.769C168.26 172.999 167.859 173.114 167.404 173.114C167.054 173.114 166.773 173.056 166.562 172.94C166.352 172.821 166.19 172.687 166.076 172.538C165.962 172.387 165.875 172.261 165.813 172.162H165.714V173H164.904ZM165.728 170.273C165.728 170.685 165.788 171.048 165.909 171.363C166.03 171.675 166.206 171.92 166.438 172.098C166.67 172.273 166.954 172.361 167.29 172.361C167.641 172.361 167.933 172.268 168.168 172.084C168.404 171.897 168.582 171.646 168.7 171.331C168.821 171.014 168.881 170.661 168.881 170.273C168.881 169.889 168.822 169.544 168.704 169.236C168.588 168.926 168.411 168.681 168.175 168.501C167.94 168.318 167.646 168.227 167.29 168.227C166.95 168.227 166.663 168.314 166.431 168.487C166.199 168.657 166.024 168.896 165.906 169.204C165.787 169.509 165.728 169.866 165.728 170.273ZM173.288 173.114C172.763 173.114 172.309 172.998 171.928 172.766C171.549 172.531 171.257 172.205 171.051 171.786C170.848 171.364 170.746 170.874 170.746 170.315C170.746 169.757 170.848 169.264 171.051 168.838C171.257 168.41 171.544 168.076 171.911 167.837C172.28 167.595 172.711 167.474 173.203 167.474C173.487 167.474 173.768 167.522 174.045 167.616C174.322 167.711 174.574 167.865 174.801 168.078C175.028 168.289 175.21 168.568 175.344 168.916C175.479 169.264 175.547 169.693 175.547 170.202V170.557H171.342V169.832H174.695C174.695 169.525 174.633 169.25 174.51 169.009C174.389 168.767 174.216 168.576 173.991 168.437C173.769 168.297 173.506 168.227 173.203 168.227C172.869 168.227 172.58 168.31 172.337 168.476C172.095 168.639 171.909 168.852 171.779 169.115C171.649 169.378 171.584 169.66 171.584 169.96V170.443C171.584 170.855 171.655 171.204 171.797 171.491C171.941 171.775 172.141 171.991 172.397 172.141C172.653 172.287 172.95 172.361 173.288 172.361C173.509 172.361 173.707 172.33 173.885 172.268C174.065 172.205 174.22 172.11 174.35 171.984C174.48 171.857 174.581 171.698 174.652 171.509L175.462 171.736C175.376 172.01 175.233 172.252 175.032 172.46C174.831 172.666 174.582 172.827 174.286 172.943C173.99 173.057 173.658 173.114 173.288 173.114ZM181.239 173.128C180.894 173.128 180.58 173.063 180.298 172.933C180.017 172.8 179.793 172.609 179.627 172.361C179.461 172.11 179.379 171.807 179.379 171.452C179.379 171.139 179.44 170.886 179.563 170.692C179.686 170.495 179.851 170.341 180.057 170.23C180.263 170.119 180.49 170.036 180.739 169.982C180.99 169.925 181.242 169.88 181.495 169.847C181.826 169.804 182.095 169.772 182.301 169.751C182.509 169.727 182.661 169.688 182.756 169.634C182.853 169.579 182.901 169.484 182.901 169.349V169.321C182.901 168.971 182.805 168.698 182.614 168.504C182.424 168.31 182.137 168.213 181.751 168.213C181.351 168.213 181.037 168.301 180.81 168.476C180.582 168.651 180.423 168.838 180.33 169.037L179.535 168.753C179.677 168.421 179.866 168.163 180.103 167.979C180.342 167.792 180.603 167.661 180.884 167.588C181.168 167.512 181.448 167.474 181.722 167.474C181.897 167.474 182.099 167.496 182.326 167.538C182.556 167.579 182.777 167.663 182.99 167.79C183.205 167.918 183.384 168.111 183.526 168.369C183.668 168.627 183.739 168.973 183.739 169.406V173H182.901V172.261H182.859C182.802 172.38 182.707 172.506 182.575 172.641C182.442 172.776 182.266 172.891 182.045 172.986C181.825 173.08 181.557 173.128 181.239 173.128ZM181.367 172.375C181.699 172.375 181.978 172.31 182.205 172.18C182.435 172.049 182.608 171.881 182.724 171.675C182.842 171.469 182.901 171.253 182.901 171.026V170.259C182.866 170.301 182.788 170.34 182.667 170.376C182.549 170.409 182.411 170.438 182.255 170.464C182.101 170.488 181.951 170.509 181.804 170.528C181.66 170.545 181.542 170.559 181.452 170.571C181.235 170.599 181.031 170.646 180.842 170.71C180.655 170.771 180.503 170.865 180.387 170.99C180.273 171.113 180.217 171.281 180.217 171.494C180.217 171.786 180.324 172.006 180.54 172.155C180.758 172.302 181.033 172.375 181.367 172.375ZM187.641 167.545V168.256H184.814V167.545H187.641ZM185.638 166.239H186.476V171.438C186.476 171.674 186.511 171.852 186.579 171.97C186.65 172.086 186.74 172.164 186.849 172.205C186.961 172.242 187.078 172.261 187.201 172.261C187.293 172.261 187.369 172.257 187.428 172.247C187.487 172.235 187.535 172.226 187.57 172.219L187.741 172.972C187.684 172.993 187.604 173.014 187.503 173.036C187.401 173.059 187.272 173.071 187.116 173.071C186.879 173.071 186.647 173.02 186.42 172.918C186.195 172.817 186.008 172.661 185.858 172.453C185.712 172.245 185.638 171.982 185.638 171.665V166.239ZM192.552 165.727V173H191.714V165.727H192.552ZM196.374 173.114C195.849 173.114 195.395 172.998 195.014 172.766C194.635 172.531 194.343 172.205 194.137 171.786C193.933 171.364 193.832 170.874 193.832 170.315C193.832 169.757 193.933 169.264 194.137 168.838C194.343 168.41 194.629 168.076 194.996 167.837C195.366 167.595 195.797 167.474 196.289 167.474C196.573 167.474 196.854 167.522 197.131 167.616C197.408 167.711 197.66 167.865 197.887 168.078C198.114 168.289 198.295 168.568 198.43 168.916C198.565 169.264 198.633 169.693 198.633 170.202V170.557H194.428V169.832H197.781C197.781 169.525 197.719 169.25 197.596 169.009C197.475 168.767 197.302 168.576 197.077 168.437C196.855 168.297 196.592 168.227 196.289 168.227C195.955 168.227 195.666 168.31 195.423 168.476C195.181 168.639 194.995 168.852 194.865 169.115C194.735 169.378 194.67 169.66 194.67 169.96V170.443C194.67 170.855 194.741 171.204 194.883 171.491C195.027 171.775 195.227 171.991 195.483 172.141C195.739 172.287 196.036 172.361 196.374 172.361C196.594 172.361 196.793 172.33 196.971 172.268C197.151 172.205 197.306 172.11 197.436 171.984C197.566 171.857 197.667 171.698 197.738 171.509L198.548 171.736C198.462 172.01 198.319 172.252 198.118 172.46C197.917 172.666 197.668 172.827 197.372 172.943C197.076 173.057 196.744 173.114 196.374 173.114ZM201.513 173.128C201.167 173.128 200.853 173.063 200.572 172.933C200.29 172.8 200.066 172.609 199.901 172.361C199.735 172.11 199.652 171.807 199.652 171.452C199.652 171.139 199.714 170.886 199.837 170.692C199.96 170.495 200.124 170.341 200.33 170.23C200.536 170.119 200.763 170.036 201.012 169.982C201.263 169.925 201.515 169.88 201.768 169.847C202.1 169.804 202.369 169.772 202.575 169.751C202.783 169.727 202.934 169.688 203.029 169.634C203.126 169.579 203.175 169.484 203.175 169.349V169.321C203.175 168.971 203.079 168.698 202.887 168.504C202.698 168.31 202.41 168.213 202.024 168.213C201.624 168.213 201.31 168.301 201.083 168.476C200.856 168.651 200.696 168.838 200.604 169.037L199.808 168.753C199.95 168.421 200.14 168.163 200.376 167.979C200.616 167.792 200.876 167.661 201.158 167.588C201.442 167.512 201.721 167.474 201.996 167.474C202.171 167.474 202.372 167.496 202.599 167.538C202.829 167.579 203.05 167.663 203.263 167.79C203.479 167.918 203.658 168.111 203.8 168.369C203.942 168.627 204.013 168.973 204.013 169.406V173H203.175V172.261H203.132C203.075 172.38 202.981 172.506 202.848 172.641C202.715 172.776 202.539 172.891 202.319 172.986C202.099 173.08 201.83 173.128 201.513 173.128ZM201.641 172.375C201.972 172.375 202.251 172.31 202.479 172.18C202.708 172.049 202.881 171.881 202.997 171.675C203.116 171.469 203.175 171.253 203.175 171.026V170.259C203.139 170.301 203.061 170.34 202.94 170.376C202.822 170.409 202.685 170.438 202.528 170.464C202.375 170.488 202.224 170.509 202.077 170.528C201.933 170.545 201.816 170.559 201.726 170.571C201.508 170.599 201.304 170.646 201.115 170.71C200.928 170.771 200.777 170.865 200.661 170.99C200.547 171.113 200.49 171.281 200.49 171.494C200.49 171.786 200.598 172.006 200.813 172.155C201.031 172.302 201.307 172.375 201.641 172.375ZM209.406 168.767L208.653 168.98C208.606 168.855 208.536 168.733 208.444 168.614C208.354 168.494 208.231 168.394 208.074 168.316C207.918 168.238 207.718 168.199 207.474 168.199C207.14 168.199 206.862 168.276 206.64 168.43C206.42 168.581 206.309 168.774 206.309 169.009C206.309 169.217 206.385 169.381 206.537 169.502C206.688 169.623 206.925 169.723 207.247 169.804L208.057 170.003C208.544 170.121 208.908 170.302 209.147 170.546C209.386 170.788 209.506 171.099 209.506 171.48C209.506 171.793 209.416 172.072 209.236 172.318C209.058 172.564 208.809 172.759 208.49 172.901C208.17 173.043 207.799 173.114 207.375 173.114C206.818 173.114 206.358 172.993 205.993 172.751C205.629 172.51 205.398 172.157 205.301 171.693L206.096 171.494C206.172 171.788 206.315 172.008 206.526 172.155C206.739 172.302 207.017 172.375 207.361 172.375C207.751 172.375 208.061 172.292 208.291 172.126C208.523 171.958 208.639 171.757 208.639 171.523C208.639 171.333 208.573 171.175 208.44 171.047C208.308 170.917 208.104 170.82 207.829 170.756L206.92 170.543C206.421 170.424 206.054 170.241 205.819 169.992C205.587 169.741 205.471 169.428 205.471 169.051C205.471 168.743 205.558 168.471 205.731 168.234C205.906 167.998 206.144 167.812 206.444 167.677C206.747 167.542 207.091 167.474 207.474 167.474C208.014 167.474 208.438 167.593 208.746 167.83C209.056 168.066 209.276 168.379 209.406 168.767ZM213.139 167.545V168.256H210.312V167.545H213.139ZM211.136 166.239H211.974V171.438C211.974 171.674 212.009 171.852 212.077 171.97C212.148 172.086 212.238 172.164 212.347 172.205C212.459 172.242 212.576 172.261 212.699 172.261C212.791 172.261 212.867 172.257 212.926 172.247C212.985 172.235 213.033 172.226 213.068 172.219L213.239 172.972C213.182 172.993 213.103 173.014 213.001 173.036C212.899 173.059 212.77 173.071 212.614 173.071C212.377 173.071 212.145 173.02 211.918 172.918C211.693 172.817 211.506 172.661 211.357 172.453C211.21 172.245 211.136 171.982 211.136 171.665V166.239ZM219.528 173.099C219.04 173.099 218.609 173.013 218.235 172.84C217.863 172.665 217.573 172.425 217.365 172.119C217.157 171.812 217.054 171.461 217.056 171.068C217.054 170.76 217.114 170.476 217.237 170.216C217.36 169.953 217.528 169.734 217.741 169.559C217.957 169.381 218.197 169.269 218.462 169.222V169.179C218.114 169.089 217.837 168.894 217.631 168.593C217.425 168.29 217.324 167.946 217.326 167.56C217.324 167.19 217.417 166.86 217.607 166.569C217.796 166.278 218.056 166.048 218.388 165.88C218.722 165.712 219.102 165.628 219.528 165.628C219.949 165.628 220.326 165.712 220.657 165.88C220.988 166.048 221.249 166.278 221.438 166.569C221.63 166.86 221.727 167.19 221.729 167.56C221.727 167.946 221.622 168.29 221.413 168.593C221.207 168.894 220.934 169.089 220.593 169.179V169.222C220.856 169.269 221.093 169.381 221.303 169.559C221.514 169.734 221.682 169.953 221.808 170.216C221.933 170.476 221.997 170.76 221.999 171.068C221.997 171.461 221.89 171.812 221.68 172.119C221.471 172.425 221.181 172.665 220.81 172.84C220.44 173.013 220.013 173.099 219.528 173.099ZM219.528 172.318C219.857 172.318 220.141 172.265 220.38 172.158C220.619 172.052 220.804 171.902 220.934 171.707C221.064 171.513 221.13 171.286 221.133 171.026C221.13 170.751 221.059 170.508 220.92 170.298C220.78 170.087 220.589 169.921 220.348 169.8C220.109 169.68 219.835 169.619 219.528 169.619C219.218 169.619 218.941 169.68 218.697 169.8C218.455 169.921 218.265 170.087 218.125 170.298C217.988 170.508 217.92 170.751 217.923 171.026C217.92 171.286 217.983 171.513 218.111 171.707C218.241 171.902 218.427 172.052 218.668 172.158C218.91 172.265 219.196 172.318 219.528 172.318ZM219.528 168.866C219.788 168.866 220.019 168.814 220.22 168.71C220.424 168.606 220.584 168.46 220.7 168.273C220.816 168.086 220.875 167.867 220.877 167.616C220.875 167.37 220.817 167.156 220.703 166.974C220.589 166.789 220.432 166.647 220.231 166.548C220.03 166.446 219.795 166.395 219.528 166.395C219.255 166.395 219.018 166.446 218.814 166.548C218.61 166.647 218.453 166.789 218.342 166.974C218.23 167.156 218.176 167.37 218.178 167.616C218.176 167.867 218.232 168.086 218.345 168.273C218.461 168.46 218.621 168.606 218.825 168.71C219.028 168.814 219.263 168.866 219.528 168.866ZM228.403 173.114C227.892 173.114 227.451 172.993 227.082 172.751C226.713 172.51 226.428 172.177 226.23 171.754C226.031 171.33 225.931 170.846 225.931 170.301C225.931 169.747 226.033 169.258 226.237 168.835C226.443 168.408 226.729 168.076 227.096 167.837C227.465 167.595 227.896 167.474 228.389 167.474C228.772 167.474 229.118 167.545 229.426 167.688C229.733 167.83 229.985 168.028 230.182 168.284C230.378 168.54 230.5 168.838 230.548 169.179H229.71C229.646 168.93 229.504 168.71 229.284 168.518C229.066 168.324 228.772 168.227 228.403 168.227C228.076 168.227 227.79 168.312 227.544 168.483C227.3 168.651 227.109 168.889 226.972 169.197C226.837 169.502 226.769 169.861 226.769 170.273C226.769 170.694 226.836 171.061 226.968 171.374C227.103 171.686 227.293 171.929 227.536 172.102C227.783 172.274 228.071 172.361 228.403 172.361C228.621 172.361 228.818 172.323 228.996 172.247C229.173 172.171 229.324 172.062 229.447 171.92C229.57 171.778 229.658 171.608 229.71 171.409H230.548C230.5 171.731 230.383 172.021 230.196 172.279C230.012 172.535 229.767 172.738 229.461 172.89C229.158 173.039 228.805 173.114 228.403 173.114ZM232.611 169.719V173H231.773V165.727H232.611V168.398H232.682C232.81 168.116 233.002 167.892 233.257 167.727C233.515 167.558 233.859 167.474 234.287 167.474C234.659 167.474 234.984 167.549 235.264 167.698C235.543 167.845 235.76 168.071 235.914 168.376C236.07 168.679 236.148 169.065 236.148 169.534V173H235.31V169.591C235.31 169.158 235.197 168.823 234.972 168.586C234.75 168.347 234.441 168.227 234.046 168.227C233.771 168.227 233.525 168.285 233.307 168.401C233.092 168.517 232.921 168.687 232.796 168.909C232.673 169.132 232.611 169.402 232.611 169.719ZM239.286 173.128C238.941 173.128 238.627 173.063 238.345 172.933C238.063 172.8 237.84 172.609 237.674 172.361C237.508 172.11 237.425 171.807 237.425 171.452C237.425 171.139 237.487 170.886 237.61 170.692C237.733 170.495 237.898 170.341 238.104 170.23C238.31 170.119 238.537 170.036 238.786 169.982C239.036 169.925 239.289 169.88 239.542 169.847C239.873 169.804 240.142 169.772 240.348 169.751C240.556 169.727 240.708 169.688 240.803 169.634C240.9 169.579 240.948 169.484 240.948 169.349V169.321C240.948 168.971 240.852 168.698 240.661 168.504C240.471 168.31 240.183 168.213 239.798 168.213C239.397 168.213 239.084 168.301 238.857 168.476C238.629 168.651 238.469 168.838 238.377 169.037L237.582 168.753C237.724 168.421 237.913 168.163 238.15 167.979C238.389 167.792 238.649 167.661 238.931 167.588C239.215 167.512 239.495 167.474 239.769 167.474C239.944 167.474 240.146 167.496 240.373 167.538C240.603 167.579 240.824 167.663 241.037 167.79C241.252 167.918 241.431 168.111 241.573 168.369C241.715 168.627 241.786 168.973 241.786 169.406V173H240.948V172.261H240.906C240.849 172.38 240.754 172.506 240.621 172.641C240.489 172.776 240.313 172.891 240.092 172.986C239.872 173.08 239.603 173.128 239.286 173.128ZM239.414 172.375C239.746 172.375 240.025 172.31 240.252 172.18C240.482 172.049 240.655 171.881 240.771 171.675C240.889 171.469 240.948 171.253 240.948 171.026V170.259C240.913 170.301 240.835 170.34 240.714 170.376C240.595 170.409 240.458 170.438 240.302 170.464C240.148 170.488 239.998 170.509 239.851 170.528C239.706 170.545 239.589 170.559 239.499 170.571C239.281 170.599 239.078 170.646 238.888 170.71C238.701 170.771 238.55 170.865 238.434 170.99C238.32 171.113 238.263 171.281 238.263 171.494C238.263 171.786 238.371 172.006 238.587 172.155C238.804 172.302 239.08 172.375 239.414 172.375ZM243.316 173V167.545H244.126V168.369H244.182C244.282 168.099 244.462 167.88 244.722 167.712C244.983 167.544 245.276 167.46 245.603 167.46C245.664 167.46 245.741 167.461 245.834 167.464C245.926 167.466 245.996 167.47 246.043 167.474V168.327C246.015 168.32 245.95 168.309 245.848 168.295C245.748 168.278 245.643 168.27 245.532 168.27C245.267 168.27 245.03 168.326 244.822 168.437C244.616 168.546 244.452 168.697 244.331 168.891C244.213 169.083 244.154 169.302 244.154 169.548V173H243.316ZM248.642 173.128C248.296 173.128 247.982 173.063 247.701 172.933C247.419 172.8 247.195 172.609 247.029 172.361C246.864 172.11 246.781 171.807 246.781 171.452C246.781 171.139 246.842 170.886 246.966 170.692C247.089 170.495 247.253 170.341 247.459 170.23C247.665 170.119 247.892 170.036 248.141 169.982C248.392 169.925 248.644 169.88 248.897 169.847C249.229 169.804 249.498 169.772 249.703 169.751C249.912 169.727 250.063 169.688 250.158 169.634C250.255 169.579 250.304 169.484 250.304 169.349V169.321C250.304 168.971 250.208 168.698 250.016 168.504C249.827 168.31 249.539 168.213 249.153 168.213C248.753 168.213 248.439 168.301 248.212 168.476C247.985 168.651 247.825 168.838 247.733 169.037L246.937 168.753C247.079 168.421 247.269 168.163 247.505 167.979C247.744 167.792 248.005 167.661 248.287 167.588C248.571 167.512 248.85 167.474 249.125 167.474C249.3 167.474 249.501 167.496 249.728 167.538C249.958 167.579 250.179 167.663 250.392 167.79C250.608 167.918 250.787 168.111 250.929 168.369C251.071 168.627 251.142 168.973 251.142 169.406V173H250.304V172.261H250.261C250.204 172.38 250.109 172.506 249.977 172.641C249.844 172.776 249.668 172.891 249.448 172.986C249.228 173.08 248.959 173.128 248.642 173.128ZM248.77 172.375C249.101 172.375 249.38 172.31 249.608 172.18C249.837 172.049 250.01 171.881 250.126 171.675C250.244 171.469 250.304 171.253 250.304 171.026V170.259C250.268 170.301 250.19 170.34 250.069 170.376C249.951 170.409 249.814 170.438 249.657 170.464C249.503 170.488 249.353 170.509 249.206 170.528C249.062 170.545 248.945 170.559 248.855 170.571C248.637 170.599 248.433 170.646 248.244 170.71C248.057 170.771 247.905 170.865 247.789 170.99C247.676 171.113 247.619 171.281 247.619 171.494C247.619 171.786 247.727 172.006 247.942 172.155C248.16 172.302 248.436 172.375 248.77 172.375ZM254.887 173.114C254.376 173.114 253.936 172.993 253.566 172.751C253.197 172.51 252.913 172.177 252.714 171.754C252.515 171.33 252.416 170.846 252.416 170.301C252.416 169.747 252.517 169.258 252.721 168.835C252.927 168.408 253.213 168.076 253.58 167.837C253.95 167.595 254.381 167.474 254.873 167.474C255.257 167.474 255.602 167.545 255.91 167.688C256.218 167.83 256.47 168.028 256.666 168.284C256.863 168.54 256.985 168.838 257.032 169.179H256.194C256.13 168.93 255.988 168.71 255.768 168.518C255.55 168.324 255.257 168.227 254.887 168.227C254.561 168.227 254.274 168.312 254.028 168.483C253.784 168.651 253.593 168.889 253.456 169.197C253.321 169.502 253.254 169.861 253.254 170.273C253.254 170.694 253.32 171.061 253.453 171.374C253.588 171.686 253.777 171.929 254.021 172.102C254.267 172.274 254.556 172.361 254.887 172.361C255.105 172.361 255.303 172.323 255.48 172.247C255.658 172.171 255.808 172.062 255.931 171.92C256.054 171.778 256.142 171.608 256.194 171.409H257.032C256.985 171.731 256.868 172.021 256.681 172.279C256.496 172.535 256.251 172.738 255.945 172.89C255.642 173.039 255.29 173.114 254.887 173.114ZM260.629 167.545V168.256H257.803V167.545H260.629ZM258.627 166.239H259.465V171.438C259.465 171.674 259.499 171.852 259.568 171.97C259.639 172.086 259.729 172.164 259.838 172.205C259.949 172.242 260.066 172.261 260.189 172.261C260.281 172.261 260.357 172.257 260.416 172.247C260.476 172.235 260.523 172.226 260.558 172.219L260.729 172.972C260.672 172.993 260.593 173.014 260.491 173.036C260.389 173.059 260.26 173.071 260.104 173.071C259.867 173.071 259.635 173.02 259.408 172.918C259.183 172.817 258.996 172.661 258.847 172.453C258.7 172.245 258.627 171.982 258.627 171.665V166.239ZM264.118 173.114C263.593 173.114 263.14 172.998 262.758 172.766C262.38 172.531 262.087 172.205 261.881 171.786C261.678 171.364 261.576 170.874 261.576 170.315C261.576 169.757 261.678 169.264 261.881 168.838C262.087 168.41 262.374 168.076 262.741 167.837C263.11 167.595 263.541 167.474 264.033 167.474C264.317 167.474 264.598 167.522 264.875 167.616C265.152 167.711 265.404 167.865 265.631 168.078C265.858 168.289 266.04 168.568 266.175 168.916C266.309 169.264 266.377 169.693 266.377 170.202V170.557H262.172V169.832H265.525C265.525 169.525 265.463 169.25 265.34 169.009C265.219 168.767 265.046 168.576 264.822 168.437C264.599 168.297 264.336 168.227 264.033 168.227C263.699 168.227 263.411 168.31 263.167 168.476C262.925 168.639 262.739 168.852 262.609 169.115C262.479 169.378 262.414 169.66 262.414 169.96V170.443C262.414 170.855 262.485 171.204 262.627 171.491C262.771 171.775 262.971 171.991 263.227 172.141C263.483 172.287 263.78 172.361 264.118 172.361C264.339 172.361 264.537 172.33 264.715 172.268C264.895 172.205 265.05 172.11 265.18 171.984C265.31 171.857 265.411 171.698 265.482 171.509L266.292 171.736C266.206 172.01 266.063 172.252 265.862 172.46C265.661 172.666 265.412 172.827 265.116 172.943C264.82 173.057 264.488 173.114 264.118 173.114ZM267.652 173V167.545H268.461V168.369H268.518C268.618 168.099 268.798 167.88 269.058 167.712C269.318 167.544 269.612 167.46 269.939 167.46C270 167.46 270.077 167.461 270.17 167.464C270.262 167.466 270.332 167.47 270.379 167.474V168.327C270.351 168.32 270.286 168.309 270.184 168.295C270.084 168.278 269.979 168.27 269.868 168.27C269.603 168.27 269.366 168.326 269.157 168.437C268.952 168.546 268.788 168.697 268.667 168.891C268.549 169.083 268.49 169.302 268.49 169.548V173H267.652ZM275.236 168.767L274.483 168.98C274.436 168.855 274.366 168.733 274.274 168.614C274.184 168.494 274.061 168.394 273.904 168.316C273.748 168.238 273.548 168.199 273.304 168.199C272.971 168.199 272.692 168.276 272.47 168.43C272.25 168.581 272.14 168.774 272.14 169.009C272.14 169.217 272.215 169.381 272.367 169.502C272.518 169.623 272.755 169.723 273.077 169.804L273.887 170.003C274.374 170.121 274.738 170.302 274.977 170.546C275.216 170.788 275.336 171.099 275.336 171.48C275.336 171.793 275.246 172.072 275.066 172.318C274.888 172.564 274.64 172.759 274.32 172.901C274 173.043 273.629 173.114 273.205 173.114C272.649 173.114 272.188 172.993 271.824 172.751C271.459 172.51 271.228 172.157 271.131 171.693L271.926 171.494C272.002 171.788 272.145 172.008 272.356 172.155C272.569 172.302 272.847 172.375 273.191 172.375C273.581 172.375 273.891 172.292 274.121 172.126C274.353 171.958 274.469 171.757 274.469 171.523C274.469 171.333 274.403 171.175 274.27 171.047C274.138 170.917 273.934 170.82 273.659 170.756L272.75 170.543C272.251 170.424 271.884 170.241 271.65 169.992C271.417 169.741 271.301 169.428 271.301 169.051C271.301 168.743 271.388 168.471 271.561 168.234C271.736 167.998 271.974 167.812 272.275 167.677C272.578 167.542 272.921 167.474 273.304 167.474C273.844 167.474 274.268 167.593 274.576 167.83C274.886 168.066 275.106 168.379 275.236 168.767Z" fill="#B91C1C"/>
<defs>
<clipPath id="clip0_2623_16617">
<rect width="12" height="12" fill="white" transform="translate(46 144)"/>
</clipPath>
</defs>
</svg>
