<svg width="320" height="320" viewBox="0 0 320 320" fill="none" xmlns="http://www.w3.org/2000/svg">
<path d="M30.026 159.574L23.426 152.974C23.3702 152.918 23.3039 152.873 23.2307 152.843C23.1576 152.812 23.0792 152.797 23 152.797C22.9208 152.797 22.8424 152.812 22.7693 152.843C22.6961 152.873 22.6298 152.918 22.574 152.974L15.974 159.574C15.8907 159.658 15.8343 159.766 15.8119 159.882C15.7895 159.998 15.8021 160.119 15.848 160.228C15.893 160.338 15.9694 160.431 16.0677 160.498C16.1659 160.564 16.2815 160.599 16.4 160.6H17.15C17.1898 160.6 17.2279 160.616 17.2561 160.644C17.2842 160.672 17.3 160.71 17.3 160.75V166.6C17.3 166.759 17.3632 166.912 17.4757 167.024C17.5883 167.137 17.7409 167.2 17.9 167.2H21.35C21.3898 167.2 21.4279 167.184 21.4561 167.156C21.4842 167.128 21.5 167.09 21.5 167.05V164.2C21.5 163.802 21.658 163.421 21.9393 163.139C22.2206 162.858 22.6022 162.7 23 162.7C23.3978 162.7 23.7794 162.858 24.0607 163.139C24.342 163.421 24.5 163.802 24.5 164.2V167.05C24.5 167.09 24.5158 167.128 24.5439 167.156C24.5721 167.184 24.6102 167.2 24.65 167.2H28.1C28.2591 167.2 28.4117 167.137 28.5243 167.024C28.6368 166.912 28.7 166.759 28.7 166.6V160.75C28.7 160.71 28.7158 160.672 28.7439 160.644C28.7721 160.616 28.8102 160.6 28.85 160.6H29.6C29.7185 160.599 29.8341 160.564 29.9323 160.498C30.0305 160.431 30.107 160.338 30.152 160.228C30.1979 160.119 30.2105 159.998 30.1881 159.882C30.1657 159.766 30.1093 159.658 30.026 159.574V159.574Z" fill="#9CA3AF"/>
<path d="M48.6733 154.341L45.392 166.531H44.3182L47.5994 154.341H48.6733Z" fill="#D1D5DB"/>
<path d="M62.1186 165V154.818H63.6548V163.678H68.2685V165H62.1186ZM69.9016 165V157.364H71.3881V165H69.9016ZM70.6523 156.185C70.3938 156.185 70.1718 156.099 69.9862 155.927C69.8039 155.751 69.7127 155.542 69.7127 155.3C69.7127 155.055 69.8039 154.846 69.9862 154.674C70.1718 154.498 70.3938 154.411 70.6523 154.411C70.9109 154.411 71.1313 154.498 71.3136 154.674C71.4992 154.846 71.592 155.055 71.592 155.3C71.592 155.542 71.4992 155.751 71.3136 155.927C71.1313 156.099 70.9109 156.185 70.6523 156.185ZM74.8745 160.466V165H73.388V157.364H74.8148V158.607H74.9093C75.0849 158.202 75.36 157.877 75.7346 157.632C76.1124 157.387 76.588 157.264 77.1614 157.264C77.6818 157.264 78.1375 157.374 78.5286 157.592C78.9197 157.808 79.223 158.129 79.4384 158.557C79.6538 158.984 79.7615 159.513 79.7615 160.143V165H78.275V160.322C78.275 159.768 78.1309 159.336 77.8425 159.024C77.5542 158.709 77.1581 158.552 76.6543 158.552C76.3096 158.552 76.003 158.626 75.7346 158.776C75.4694 158.925 75.2589 159.143 75.1032 159.432C74.9507 159.717 74.8745 160.062 74.8745 160.466ZM83.1223 162.41L83.1124 160.595H83.3709L86.4135 157.364H88.1934L84.7232 161.043H84.4895L83.1223 162.41ZM81.7551 165V154.818H83.2417V165H81.7551ZM86.5776 165L83.8432 161.371L84.8674 160.332L88.4022 165H86.5776Z" fill="#9CA3AF"/>
<path d="M105.673 154.341L102.392 166.531H101.318L104.599 154.341H105.673Z" fill="#D1D5DB"/>
<path d="M119.119 165V154.818H120.655V163.678H125.268V165H119.119ZM126.902 165V157.364H128.388V165H126.902ZM127.652 156.185C127.394 156.185 127.172 156.099 126.986 155.927C126.804 155.751 126.713 155.542 126.713 155.3C126.713 155.055 126.804 154.846 126.986 154.674C127.172 154.498 127.394 154.411 127.652 154.411C127.911 154.411 128.131 154.498 128.314 154.674C128.499 154.846 128.592 155.055 128.592 155.3C128.592 155.542 128.499 155.751 128.314 155.927C128.131 156.099 127.911 156.185 127.652 156.185ZM131.874 160.466V165H130.388V157.364H131.815V158.607H131.909C132.085 158.202 132.36 157.877 132.735 157.632C133.112 157.387 133.588 157.264 134.161 157.264C134.682 157.264 135.137 157.374 135.529 157.592C135.92 157.808 136.223 158.129 136.438 158.557C136.654 158.984 136.762 159.513 136.762 160.143V165H135.275V160.322C135.275 159.768 135.131 159.336 134.843 159.024C134.554 158.709 134.158 158.552 133.654 158.552C133.31 158.552 133.003 158.626 132.735 158.776C132.469 158.925 132.259 159.143 132.103 159.432C131.951 159.717 131.874 160.062 131.874 160.466ZM140.122 162.41L140.112 160.595H140.371L143.414 157.364H145.193L141.723 161.043H141.49L140.122 162.41ZM138.755 165V154.818H140.242V165H138.755ZM143.578 165L140.843 161.371L141.867 160.332L145.402 165H143.578Z" fill="#9CA3AF"/>
<path d="M162.673 154.341L159.392 166.531H158.318L161.599 154.341H162.673Z" fill="#D1D5DB"/>
<path d="M176.119 165V154.818H177.655V163.678H182.268V165H176.119ZM183.902 165V157.364H185.388V165H183.902ZM184.652 156.185C184.394 156.185 184.172 156.099 183.986 155.927C183.804 155.751 183.713 155.542 183.713 155.3C183.713 155.055 183.804 154.846 183.986 154.674C184.172 154.498 184.394 154.411 184.652 154.411C184.911 154.411 185.131 154.498 185.314 154.674C185.499 154.846 185.592 155.055 185.592 155.3C185.592 155.542 185.499 155.751 185.314 155.927C185.131 156.099 184.911 156.185 184.652 156.185ZM188.874 160.466V165H187.388V157.364H188.815V158.607H188.909C189.085 158.202 189.36 157.877 189.735 157.632C190.112 157.387 190.588 157.264 191.161 157.264C191.682 157.264 192.137 157.374 192.529 157.592C192.92 157.808 193.223 158.129 193.438 158.557C193.654 158.984 193.762 159.513 193.762 160.143V165H192.275V160.322C192.275 159.768 192.131 159.336 191.843 159.024C191.554 158.709 191.158 158.552 190.654 158.552C190.31 158.552 190.003 158.626 189.735 158.776C189.469 158.925 189.259 159.143 189.103 159.432C188.951 159.717 188.874 160.062 188.874 160.466ZM197.122 162.41L197.112 160.595H197.371L200.414 157.364H202.193L198.723 161.043H198.49L197.122 162.41ZM195.755 165V154.818H197.242V165H195.755ZM200.578 165L197.843 161.371L198.867 160.332L202.402 165H200.578Z" fill="#9CA3AF"/>
<path d="M219.673 154.341L216.392 166.531H215.318L218.599 154.341H219.673Z" fill="#D1D5DB"/>
<path d="M233.979 165H232.348L236.012 154.818H237.787L241.451 165H239.82L236.942 156.668H236.862L233.979 165ZM234.252 161.013H239.542V162.305H234.252V161.013ZM245.896 165.154C245.156 165.154 244.52 164.987 243.987 164.652C243.456 164.314 243.049 163.848 242.763 163.255C242.478 162.662 242.336 161.982 242.336 161.217C242.336 160.441 242.482 159.757 242.773 159.163C243.065 158.567 243.476 158.101 244.006 157.766C244.537 157.432 245.161 157.264 245.881 157.264C246.461 157.264 246.978 157.372 247.432 157.587C247.886 157.799 248.252 158.098 248.531 158.482C248.812 158.867 248.98 159.316 249.033 159.83H247.586C247.506 159.472 247.324 159.163 247.039 158.905C246.757 158.646 246.379 158.517 245.906 158.517C245.491 158.517 245.128 158.626 244.817 158.845C244.509 159.061 244.268 159.369 244.096 159.77C243.924 160.168 243.837 160.638 243.837 161.182C243.837 161.739 243.922 162.219 244.091 162.624C244.26 163.028 244.499 163.341 244.807 163.563C245.118 163.785 245.485 163.896 245.906 163.896C246.187 163.896 246.442 163.845 246.671 163.742C246.903 163.636 247.097 163.485 247.253 163.29C247.412 163.094 247.523 162.859 247.586 162.584H249.033C248.98 163.078 248.819 163.518 248.55 163.906C248.282 164.294 247.922 164.599 247.472 164.821C247.024 165.043 246.499 165.154 245.896 165.154ZM254.187 157.364V158.557H250.016V157.364H254.187ZM251.134 155.534H252.621V162.758C252.621 163.046 252.664 163.263 252.75 163.409C252.836 163.552 252.947 163.649 253.083 163.702C253.222 163.752 253.373 163.777 253.536 163.777C253.655 163.777 253.759 163.769 253.849 163.752C253.938 163.736 254.008 163.722 254.058 163.712L254.326 164.94C254.24 164.973 254.117 165.007 253.958 165.04C253.799 165.076 253.6 165.096 253.362 165.099C252.971 165.106 252.606 165.036 252.268 164.891C251.93 164.745 251.656 164.519 251.448 164.214C251.239 163.91 251.134 163.527 251.134 163.066V155.534ZM255.831 165V157.364H257.318V165H255.831ZM256.582 156.185C256.324 156.185 256.101 156.099 255.916 155.927C255.734 155.751 255.642 155.542 255.642 155.3C255.642 155.055 255.734 154.846 255.916 154.674C256.101 154.498 256.324 154.411 256.582 154.411C256.841 154.411 257.061 154.498 257.243 154.674C257.429 154.846 257.522 155.055 257.522 155.3C257.522 155.542 257.429 155.751 257.243 155.927C257.061 156.099 256.841 156.185 256.582 156.185ZM265.85 157.364L263.081 165H261.49L258.716 157.364H260.312L262.246 163.24H262.325L264.254 157.364H265.85ZM270.279 165.154C269.526 165.154 268.878 164.993 268.335 164.672C267.795 164.347 267.377 163.891 267.082 163.305C266.79 162.715 266.645 162.024 266.645 161.232C266.645 160.449 266.79 159.76 267.082 159.163C267.377 158.567 267.788 158.101 268.315 157.766C268.845 157.432 269.465 157.264 270.174 157.264C270.605 157.264 271.023 157.335 271.427 157.478C271.832 157.621 272.194 157.844 272.516 158.149C272.837 158.454 273.091 158.85 273.277 159.337C273.462 159.821 273.555 160.41 273.555 161.102V161.629H267.485V160.516H272.098C272.098 160.125 272.019 159.778 271.86 159.477C271.701 159.172 271.477 158.931 271.189 158.756C270.904 158.58 270.569 158.492 270.184 158.492C269.767 158.492 269.402 158.595 269.091 158.8C268.782 159.003 268.544 159.268 268.375 159.596C268.209 159.921 268.126 160.274 268.126 160.655V161.525C268.126 162.035 268.216 162.469 268.395 162.827C268.577 163.185 268.83 163.459 269.155 163.648C269.48 163.833 269.859 163.926 270.294 163.926C270.575 163.926 270.832 163.886 271.064 163.807C271.296 163.724 271.497 163.601 271.666 163.439C271.835 163.277 271.964 163.076 272.054 162.837L273.461 163.091C273.348 163.505 273.146 163.868 272.854 164.18C272.566 164.488 272.203 164.728 271.765 164.901C271.331 165.07 270.836 165.154 270.279 165.154ZM279.029 165V154.818H280.565V163.678H285.179V165H279.029ZM286.812 165V157.364H288.298V165H286.812ZM287.562 156.185C287.304 156.185 287.082 156.099 286.896 155.927C286.714 155.751 286.623 155.542 286.623 155.3C286.623 155.055 286.714 154.846 286.896 154.674C287.082 154.498 287.304 154.411 287.562 154.411C287.821 154.411 288.041 154.498 288.224 154.674C288.409 154.846 288.502 155.055 288.502 155.3C288.502 155.542 288.409 155.751 288.224 155.927C288.041 156.099 287.821 156.185 287.562 156.185ZM291.785 160.466V165H290.298V157.364H291.725V158.607H291.819C291.995 158.202 292.27 157.877 292.645 157.632C293.023 157.387 293.498 157.264 294.072 157.264C294.592 157.264 295.048 157.374 295.439 157.592C295.83 157.808 296.133 158.129 296.349 158.557C296.564 158.984 296.672 159.513 296.672 160.143V165H295.185V160.322C295.185 159.768 295.041 159.336 294.753 159.024C294.464 158.709 294.068 158.552 293.564 158.552C293.22 158.552 292.913 158.626 292.645 158.776C292.38 158.925 292.169 159.143 292.013 159.432C291.861 159.717 291.785 160.062 291.785 160.466ZM300.032 162.41L300.023 160.595H300.281L303.324 157.364H305.104L301.633 161.043H301.4L300.032 162.41ZM298.665 165V154.818H300.152V165H298.665ZM303.488 165L300.753 161.371L301.778 160.332L305.312 165H303.488Z" fill="#0080FF"/>
</svg>
