<svg width="320" height="320" viewBox="0 0 320 320" fill="none" xmlns="http://www.w3.org/2000/svg">
<g filter="url(#filter0_d_2623_16851)">
<path d="M121 147C121 143.686 123.686 141 127 141H194C197.314 141 200 143.686 200 147V173C200 176.314 197.314 179 194 179H127C123.686 179 121 176.314 121 173V147Z" fill="#0080FF"/>
<path d="M139.119 165V154.818H142.847C143.57 154.818 144.168 154.937 144.642 155.176C145.116 155.411 145.471 155.731 145.706 156.136C145.941 156.537 146.059 156.989 146.059 157.493C146.059 157.917 145.981 158.275 145.825 158.567C145.67 158.855 145.461 159.087 145.199 159.263C144.94 159.435 144.655 159.561 144.344 159.641V159.74C144.682 159.757 145.012 159.866 145.333 160.068C145.658 160.267 145.926 160.55 146.138 160.918C146.351 161.286 146.457 161.734 146.457 162.261C146.457 162.781 146.334 163.248 146.089 163.663C145.847 164.074 145.472 164.4 144.965 164.642C144.458 164.881 143.81 165 143.021 165H139.119ZM140.655 163.683H142.872C143.608 163.683 144.135 163.54 144.453 163.255C144.771 162.97 144.93 162.614 144.93 162.186C144.93 161.865 144.849 161.57 144.687 161.301C144.524 161.033 144.292 160.819 143.991 160.66C143.692 160.501 143.338 160.421 142.927 160.421H140.655V163.683ZM140.655 159.223H142.713C143.058 159.223 143.368 159.157 143.643 159.024C143.921 158.892 144.142 158.706 144.304 158.467C144.47 158.225 144.553 157.94 144.553 157.612C144.553 157.191 144.405 156.838 144.11 156.553C143.815 156.268 143.363 156.126 142.753 156.126H140.655V159.223ZM152.997 161.833V157.364H154.488V165H153.027V163.678H152.947C152.771 164.085 152.49 164.425 152.102 164.697C151.717 164.965 151.239 165.099 150.665 165.099C150.175 165.099 149.74 164.992 149.363 164.776C148.988 164.558 148.693 164.234 148.478 163.807C148.266 163.379 148.159 162.851 148.159 162.221V157.364H149.646V162.042C149.646 162.562 149.79 162.977 150.078 163.285C150.367 163.593 150.741 163.747 151.202 163.747C151.48 163.747 151.757 163.678 152.032 163.538C152.311 163.399 152.541 163.189 152.723 162.907C152.909 162.625 153 162.267 152.997 161.833ZM160.05 157.364V158.557H155.879V157.364H160.05ZM156.998 155.534H158.484V162.758C158.484 163.046 158.527 163.263 158.613 163.409C158.7 163.552 158.811 163.649 158.947 163.702C159.086 163.752 159.237 163.777 159.399 163.777C159.518 163.777 159.623 163.769 159.712 163.752C159.802 163.736 159.871 163.722 159.921 163.712L160.189 164.94C160.103 164.973 159.981 165.007 159.822 165.04C159.662 165.076 159.464 165.096 159.225 165.099C158.834 165.106 158.469 165.036 158.131 164.891C157.793 164.745 157.52 164.519 157.311 164.214C157.102 163.91 156.998 163.527 156.998 163.066V155.534ZM165.259 157.364V158.557H161.088V157.364H165.259ZM162.207 155.534H163.693V162.758C163.693 163.046 163.736 163.263 163.822 163.409C163.909 163.552 164.02 163.649 164.156 163.702C164.295 163.752 164.446 163.777 164.608 163.777C164.727 163.777 164.832 163.769 164.921 163.752C165.011 163.736 165.08 163.722 165.13 163.712L165.398 164.94C165.312 164.973 165.19 165.007 165.031 165.04C164.871 165.076 164.673 165.096 164.434 165.099C164.043 165.106 163.678 165.036 163.34 164.891C163.002 164.745 162.729 164.519 162.52 164.214C162.311 163.91 162.207 163.527 162.207 163.066V155.534ZM170.038 165.154C169.322 165.154 168.698 164.99 168.164 164.662C167.63 164.334 167.216 163.875 166.921 163.285C166.626 162.695 166.479 162.005 166.479 161.217C166.479 160.424 166.626 159.732 166.921 159.138C167.216 158.545 167.63 158.085 168.164 157.756C168.698 157.428 169.322 157.264 170.038 157.264C170.754 157.264 171.379 157.428 171.912 157.756C172.446 158.085 172.86 158.545 173.155 159.138C173.45 159.732 173.598 160.424 173.598 161.217C173.598 162.005 173.45 162.695 173.155 163.285C172.86 163.875 172.446 164.334 171.912 164.662C171.379 164.99 170.754 165.154 170.038 165.154ZM170.043 163.906C170.507 163.906 170.892 163.784 171.197 163.538C171.501 163.293 171.727 162.967 171.873 162.559C172.022 162.151 172.096 161.702 172.096 161.212C172.096 160.724 172.022 160.277 171.873 159.869C171.727 159.458 171.501 159.129 171.197 158.88C170.892 158.631 170.507 158.507 170.043 158.507C169.576 158.507 169.188 158.631 168.88 158.88C168.575 159.129 168.348 159.458 168.199 159.869C168.053 160.277 167.98 160.724 167.98 161.212C167.98 161.702 168.053 162.151 168.199 162.559C168.348 162.967 168.575 163.293 168.88 163.538C169.188 163.784 169.576 163.906 170.043 163.906ZM176.744 160.466V165H175.257V157.364H176.684V158.607H176.778C176.954 158.202 177.229 157.877 177.604 157.632C177.982 157.387 178.457 157.264 179.031 157.264C179.551 157.264 180.007 157.374 180.398 157.592C180.789 157.808 181.092 158.129 181.308 158.557C181.523 158.984 181.631 159.513 181.631 160.143V165H180.144V160.322C180.144 159.768 180 159.336 179.712 159.024C179.423 158.709 179.027 158.552 178.523 158.552C178.179 158.552 177.872 158.626 177.604 158.776C177.339 158.925 177.128 159.143 176.972 159.432C176.82 159.717 176.744 160.062 176.744 160.466Z" fill="white"/>
</g>
<defs>
<filter id="filter0_d_2623_16851" x="119" y="140" width="83" height="42" filterUnits="userSpaceOnUse" color-interpolation-filters="sRGB">
<feFlood flood-opacity="0" result="BackgroundImageFix"/>
<feColorMatrix in="SourceAlpha" type="matrix" values="0 0 0 0 0 0 0 0 0 0 0 0 0 0 0 0 0 0 127 0" result="hardAlpha"/>
<feOffset dy="1"/>
<feGaussianBlur stdDeviation="1"/>
<feColorMatrix type="matrix" values="0 0 0 0 0 0 0 0 0 0 0 0 0 0 0 0 0 0 0.05 0"/>
<feBlend mode="normal" in2="BackgroundImageFix" result="effect1_dropShadow_2623_16851"/>
<feBlend mode="normal" in="SourceGraphic" in2="effect1_dropShadow_2623_16851" result="shape"/>
</filter>
</defs>
</svg>
