<svg width="320" height="320" viewBox="0 0 320 320" fill="none" xmlns="http://www.w3.org/2000/svg">
<g filter="url(#filter0_d_2623_16880)">
<path d="M48 153C48 146.373 53.3726 141 60 141H261C267.627 141 273 146.373 273 153V168C273 174.627 267.627 180 261 180H60C53.3726 180 48 174.627 48 168V153Z" fill="white"/>
<path d="M48 147C48 143.686 50.6863 141 54 141H123V180H54C50.6863 180 48 177.314 48 174V147Z" fill="white"/>
<path d="M66.8331 155.818H68.5781L71.2379 160.447H71.3473L74.0071 155.818H75.7521L72.0582 162.003V166H70.527V162.003L66.8331 155.818ZM79.1167 166.154C78.3643 166.154 77.7163 165.993 77.1728 165.672C76.6325 165.347 76.2149 164.891 75.9199 164.305C75.6283 163.715 75.4824 163.024 75.4824 162.232C75.4824 161.449 75.6283 160.76 75.9199 160.163C76.2149 159.567 76.6259 159.101 77.1529 158.766C77.6832 158.432 78.303 158.264 79.0123 158.264C79.4431 158.264 79.8607 158.335 80.2651 158.478C80.6694 158.621 81.0324 158.844 81.3539 159.149C81.6754 159.454 81.9289 159.85 82.1145 160.337C82.3001 160.821 82.3929 161.41 82.3929 162.102V162.629H76.3226V161.516H80.9363C80.9363 161.125 80.8567 160.778 80.6976 160.477C80.5385 160.172 80.3148 159.931 80.0265 159.756C79.7414 159.58 79.4067 159.492 79.0222 159.492C78.6046 159.492 78.24 159.595 77.9284 159.8C77.6202 160.003 77.3816 160.268 77.2125 160.596C77.0468 160.921 76.964 161.274 76.964 161.655V162.525C76.964 163.035 77.0534 163.469 77.2324 163.827C77.4147 164.185 77.6683 164.459 77.9931 164.648C78.3179 164.833 78.6974 164.926 79.1316 164.926C79.4133 164.926 79.6702 164.886 79.9022 164.807C80.1342 164.724 80.3347 164.601 80.5037 164.439C80.6728 164.277 80.802 164.076 80.8915 163.837L82.2985 164.091C82.1858 164.505 81.9836 164.868 81.6919 165.18C81.4036 165.488 81.0407 165.728 80.6032 165.901C80.169 166.07 79.6735 166.154 79.1167 166.154ZM86.2646 166.169C85.7807 166.169 85.3432 166.08 84.9521 165.901C84.561 165.718 84.2511 165.455 84.0224 165.11C83.797 164.765 83.6843 164.343 83.6843 163.842C83.6843 163.411 83.7672 163.057 83.9329 162.778C84.0986 162.5 84.3223 162.28 84.604 162.117C84.8858 161.955 85.2006 161.832 85.5487 161.749C85.8967 161.666 86.2513 161.603 86.6126 161.56C87.07 161.507 87.4412 161.464 87.7262 161.431C88.0112 161.395 88.2184 161.337 88.3477 161.257C88.4769 161.178 88.5415 161.048 88.5415 160.869V160.835C88.5415 160.4 88.4189 160.064 88.1737 159.825C87.9317 159.587 87.5704 159.467 87.0898 159.467C86.5894 159.467 86.195 159.578 85.9066 159.8C85.6216 160.019 85.4244 160.263 85.315 160.531L83.918 160.213C84.0837 159.749 84.3256 159.375 84.6438 159.089C84.9653 158.801 85.3349 158.592 85.7525 158.463C86.1701 158.33 86.6093 158.264 87.07 158.264C87.3749 158.264 87.698 158.301 88.0394 158.374C88.3841 158.443 88.7056 158.572 89.0039 158.761C89.3055 158.95 89.5524 159.22 89.7447 159.572C89.9369 159.92 90.033 160.372 90.033 160.929V166H88.5813V164.956H88.5217C88.4255 165.148 88.2814 165.337 88.0891 165.523C87.8969 165.708 87.65 165.862 87.3484 165.985C87.0468 166.108 86.6855 166.169 86.2646 166.169ZM86.5877 164.976C86.9987 164.976 87.35 164.895 87.6417 164.732C87.9367 164.57 88.1604 164.358 88.3129 164.096C88.4686 163.831 88.5465 163.547 88.5465 163.246V162.261C88.4935 162.314 88.3907 162.364 88.2383 162.411C88.0891 162.454 87.9184 162.492 87.7262 162.525C87.534 162.555 87.3467 162.583 87.1644 162.609C86.9821 162.633 86.8297 162.652 86.707 162.669C86.4187 162.705 86.1552 162.767 85.9165 162.853C85.6812 162.939 85.4923 163.063 85.3498 163.226C85.2106 163.385 85.141 163.597 85.141 163.862C85.141 164.23 85.2769 164.509 85.5487 164.697C85.8204 164.883 86.1668 164.976 86.5877 164.976ZM92.013 166V158.364H93.4498V159.577H93.5293C93.6685 159.166 93.9138 158.843 94.2651 158.607C94.6197 158.369 95.0208 158.249 95.4682 158.249C95.561 158.249 95.6704 158.253 95.7963 158.259C95.9256 158.266 96.0267 158.274 96.0996 158.284V159.706C96.04 159.689 95.9339 159.671 95.7814 159.651C95.629 159.628 95.4765 159.616 95.324 159.616C94.9727 159.616 94.6595 159.691 94.3844 159.84C94.1126 159.986 93.8972 160.19 93.7381 160.452C93.579 160.71 93.4995 161.005 93.4995 161.337V166H92.013ZM103.108 160.228L101.761 160.467C101.705 160.294 101.615 160.13 101.493 159.974C101.373 159.819 101.211 159.691 101.005 159.592C100.8 159.492 100.543 159.442 100.235 159.442C99.8138 159.442 99.4625 159.537 99.1808 159.726C98.899 159.911 98.7582 160.152 98.7582 160.447C98.7582 160.702 98.8526 160.907 99.0415 161.063C99.2305 161.219 99.5354 161.347 99.9563 161.446L101.169 161.724C101.872 161.887 102.396 162.137 102.74 162.475C103.085 162.813 103.257 163.252 103.257 163.793C103.257 164.25 103.125 164.658 102.86 165.016C102.598 165.37 102.232 165.649 101.761 165.851C101.294 166.053 100.752 166.154 100.135 166.154C99.2802 166.154 98.5825 165.972 98.0423 165.607C97.502 165.239 97.1706 164.717 97.0479 164.041L98.4847 163.822C98.5742 164.197 98.7582 164.48 99.0366 164.673C99.315 164.862 99.6779 164.956 100.125 164.956C100.613 164.956 101.002 164.855 101.294 164.653C101.585 164.447 101.731 164.197 101.731 163.902C101.731 163.663 101.642 163.463 101.463 163.3C101.287 163.138 101.017 163.015 100.652 162.933L99.3597 162.649C98.6471 162.487 98.1201 162.228 97.7788 161.874C97.4407 161.519 97.2717 161.07 97.2717 160.526C97.2717 160.076 97.3976 159.681 97.6495 159.343C97.9014 159.005 98.2494 158.741 98.6935 158.553C99.1377 158.36 99.6464 158.264 100.22 158.264C101.045 158.264 101.695 158.443 102.169 158.801C102.643 159.156 102.956 159.631 103.108 160.228Z" fill="#374151"/>
<path d="M48 147C48 143.686 50.6863 141 54 141H123V180H54C50.6863 180 48 177.314 48 174V147Z" stroke="#D1D5DB"/>
<path d="M123 141H198V180H123V141Z" fill="white"/>
<path d="M136.119 155.818H137.983L141.224 163.733H141.344L144.585 155.818H146.45V166H144.988V158.632H144.893L141.891 165.985H140.678L137.675 158.627H137.58V166H136.119V155.818ZM151.78 166.154C151.064 166.154 150.44 165.99 149.906 165.662C149.372 165.334 148.958 164.875 148.663 164.285C148.368 163.695 148.221 163.005 148.221 162.217C148.221 161.424 148.368 160.732 148.663 160.138C148.958 159.545 149.372 159.085 149.906 158.756C150.44 158.428 151.064 158.264 151.78 158.264C152.496 158.264 153.121 158.428 153.655 158.756C154.188 159.085 154.603 159.545 154.898 160.138C155.193 160.732 155.34 161.424 155.34 162.217C155.34 163.005 155.193 163.695 154.898 164.285C154.603 164.875 154.188 165.334 153.655 165.662C153.121 165.99 152.496 166.154 151.78 166.154ZM151.785 164.906C152.249 164.906 152.634 164.784 152.939 164.538C153.244 164.293 153.469 163.967 153.615 163.559C153.764 163.151 153.839 162.702 153.839 162.212C153.839 161.724 153.764 161.277 153.615 160.869C153.469 160.458 153.244 160.129 152.939 159.88C152.634 159.631 152.249 159.507 151.785 159.507C151.318 159.507 150.93 159.631 150.622 159.88C150.317 160.129 150.09 160.458 149.941 160.869C149.795 161.277 149.722 161.724 149.722 162.212C149.722 162.702 149.795 163.151 149.941 163.559C150.09 163.967 150.317 164.293 150.622 164.538C150.93 164.784 151.318 164.906 151.785 164.906ZM158.486 161.466V166H156.999V158.364H158.426V159.607H158.521C158.696 159.202 158.971 158.877 159.346 158.632C159.724 158.387 160.199 158.264 160.773 158.264C161.293 158.264 161.749 158.374 162.14 158.592C162.531 158.808 162.834 159.129 163.05 159.557C163.265 159.984 163.373 160.513 163.373 161.143V166H161.886V161.322C161.886 160.768 161.742 160.336 161.454 160.024C161.165 159.709 160.769 159.552 160.266 159.552C159.921 159.552 159.614 159.626 159.346 159.776C159.081 159.925 158.87 160.143 158.714 160.432C158.562 160.717 158.486 161.062 158.486 161.466ZM168.931 158.364V159.557H164.76V158.364H168.931ZM165.879 156.534H167.365V163.758C167.365 164.046 167.408 164.263 167.494 164.409C167.58 164.552 167.692 164.649 167.827 164.702C167.967 164.752 168.117 164.777 168.28 164.777C168.399 164.777 168.504 164.769 168.593 164.752C168.683 164.736 168.752 164.722 168.802 164.712L169.07 165.94C168.984 165.973 168.862 166.007 168.702 166.04C168.543 166.076 168.344 166.096 168.106 166.099C167.715 166.106 167.35 166.036 167.012 165.891C166.674 165.745 166.401 165.519 166.192 165.214C165.983 164.91 165.879 164.527 165.879 164.066V156.534ZM172.226 161.466V166H170.74V155.818H172.206V159.607H172.301C172.48 159.196 172.753 158.869 173.121 158.627C173.489 158.385 173.969 158.264 174.563 158.264C175.086 158.264 175.544 158.372 175.935 158.587C176.329 158.803 176.634 159.124 176.85 159.552C177.068 159.976 177.178 160.506 177.178 161.143V166H175.691V161.322C175.691 160.762 175.547 160.327 175.259 160.019C174.97 159.708 174.569 159.552 174.056 159.552C173.704 159.552 173.389 159.626 173.111 159.776C172.836 159.925 172.619 160.143 172.46 160.432C172.304 160.717 172.226 161.062 172.226 161.466ZM184.884 160.228L183.536 160.467C183.48 160.294 183.391 160.13 183.268 159.974C183.149 159.819 182.986 159.691 182.781 159.592C182.575 159.492 182.318 159.442 182.01 159.442C181.589 159.442 181.238 159.537 180.956 159.726C180.674 159.911 180.534 160.152 180.534 160.447C180.534 160.702 180.628 160.907 180.817 161.063C181.006 161.219 181.311 161.347 181.732 161.446L182.945 161.724C183.647 161.887 184.171 162.137 184.516 162.475C184.86 162.813 185.033 163.252 185.033 163.793C185.033 164.25 184.9 164.658 184.635 165.016C184.373 165.37 184.007 165.649 183.536 165.851C183.069 166.053 182.527 166.154 181.911 166.154C181.056 166.154 180.358 165.972 179.818 165.607C179.277 165.239 178.946 164.717 178.823 164.041L180.26 163.822C180.35 164.197 180.534 164.48 180.812 164.673C181.09 164.862 181.453 164.956 181.901 164.956C182.388 164.956 182.777 164.855 183.069 164.653C183.361 164.447 183.507 164.197 183.507 163.902C183.507 163.663 183.417 163.463 183.238 163.3C183.062 163.138 182.792 163.015 182.428 162.933L181.135 162.649C180.423 162.487 179.896 162.228 179.554 161.874C179.216 161.519 179.047 161.07 179.047 160.526C179.047 160.076 179.173 159.681 179.425 159.343C179.677 159.005 180.025 158.741 180.469 158.553C180.913 158.36 181.422 158.264 181.995 158.264C182.82 158.264 183.47 158.443 183.944 158.801C184.418 159.156 184.731 159.631 184.884 160.228Z" fill="#374151"/>
<path d="M123 141H198V180H123V141Z" stroke="#D1D5DB"/>
<path d="M198 141H267C270.314 141 273 143.686 273 147V174C273 177.314 270.314 180 267 180H198V141Z" fill="white"/>
<path d="M222.915 166H219.619V155.818H223.019C224.017 155.818 224.874 156.022 225.589 156.43C226.305 156.834 226.854 157.416 227.235 158.175C227.62 158.93 227.812 159.837 227.812 160.894C227.812 161.955 227.618 162.866 227.23 163.629C226.846 164.391 226.289 164.978 225.56 165.388C224.83 165.796 223.949 166 222.915 166ZM221.155 164.658H222.83C223.606 164.658 224.25 164.512 224.764 164.22C225.278 163.925 225.662 163.499 225.918 162.942C226.173 162.382 226.3 161.7 226.3 160.894C226.3 160.095 226.173 159.418 225.918 158.861C225.666 158.304 225.29 157.881 224.789 157.593C224.289 157.305 223.667 157.161 222.925 157.161H221.155V164.658ZM231.825 166.169C231.341 166.169 230.904 166.08 230.513 165.901C230.122 165.718 229.812 165.455 229.583 165.11C229.358 164.765 229.245 164.343 229.245 163.842C229.245 163.411 229.328 163.057 229.493 162.778C229.659 162.5 229.883 162.28 230.165 162.117C230.446 161.955 230.761 161.832 231.109 161.749C231.457 161.666 231.812 161.603 232.173 161.56C232.631 161.507 233.002 161.464 233.287 161.431C233.572 161.395 233.779 161.337 233.908 161.257C234.037 161.178 234.102 161.048 234.102 160.869V160.835C234.102 160.4 233.979 160.064 233.734 159.825C233.492 159.587 233.131 159.467 232.65 159.467C232.15 159.467 231.756 159.578 231.467 159.8C231.182 160.019 230.985 160.263 230.876 160.531L229.479 160.213C229.644 159.749 229.886 159.375 230.204 159.089C230.526 158.801 230.895 158.592 231.313 158.463C231.731 158.33 232.17 158.264 232.631 158.264C232.935 158.264 233.259 158.301 233.6 158.374C233.945 158.443 234.266 158.572 234.564 158.761C234.866 158.95 235.113 159.22 235.305 159.572C235.497 159.92 235.594 160.372 235.594 160.929V166H234.142V164.956H234.082C233.986 165.148 233.842 165.337 233.65 165.523C233.457 165.708 233.211 165.862 232.909 165.985C232.607 166.108 232.246 166.169 231.825 166.169ZM232.148 164.976C232.559 164.976 232.911 164.895 233.202 164.732C233.497 164.57 233.721 164.358 233.873 164.096C234.029 163.831 234.107 163.547 234.107 163.246V162.261C234.054 162.314 233.951 162.364 233.799 162.411C233.65 162.454 233.479 162.492 233.287 162.525C233.095 162.555 232.907 162.583 232.725 162.609C232.543 162.633 232.39 162.652 232.268 162.669C231.979 162.705 231.716 162.767 231.477 162.853C231.242 162.939 231.053 163.063 230.91 163.226C230.771 163.385 230.702 163.597 230.702 163.862C230.702 164.23 230.837 164.509 231.109 164.697C231.381 164.883 231.727 164.976 232.148 164.976ZM238.24 168.864C238.018 168.864 237.815 168.845 237.633 168.809C237.451 168.776 237.315 168.739 237.225 168.7L237.583 167.482C237.855 167.554 238.097 167.586 238.309 167.576C238.521 167.566 238.709 167.487 238.871 167.337C239.037 167.188 239.183 166.945 239.309 166.607L239.493 166.099L236.699 158.364H238.289L240.223 164.29H240.303L242.237 158.364H243.833L240.686 167.019C240.54 167.417 240.354 167.753 240.129 168.028C239.904 168.307 239.635 168.516 239.324 168.655C239.012 168.794 238.651 168.864 238.24 168.864ZM250.952 160.228L249.605 160.467C249.548 160.294 249.459 160.13 249.336 159.974C249.217 159.819 249.055 159.691 248.849 159.592C248.644 159.492 248.387 159.442 248.078 159.442C247.658 159.442 247.306 159.537 247.025 159.726C246.743 159.911 246.602 160.152 246.602 160.447C246.602 160.702 246.696 160.907 246.885 161.063C247.074 161.219 247.379 161.347 247.8 161.446L249.013 161.724C249.716 161.887 250.239 162.137 250.584 162.475C250.929 162.813 251.101 163.252 251.101 163.793C251.101 164.25 250.969 164.658 250.703 165.016C250.442 165.37 250.075 165.649 249.605 165.851C249.137 166.053 248.596 166.154 247.979 166.154C247.124 166.154 246.426 165.972 245.886 165.607C245.346 165.239 245.014 164.717 244.892 164.041L246.328 163.822C246.418 164.197 246.602 164.48 246.88 164.673C247.159 164.862 247.522 164.956 247.969 164.956C248.456 164.956 248.846 164.855 249.137 164.653C249.429 164.447 249.575 164.197 249.575 163.902C249.575 163.663 249.485 163.463 249.306 163.3C249.131 163.138 248.861 163.015 248.496 162.933L247.203 162.649C246.491 162.487 245.964 162.228 245.623 161.874C245.284 161.519 245.115 161.07 245.115 160.526C245.115 160.076 245.241 159.681 245.493 159.343C245.745 159.005 246.093 158.741 246.537 158.553C246.981 158.36 247.49 158.264 248.064 158.264C248.889 158.264 249.538 158.443 250.012 158.801C250.486 159.156 250.8 159.631 250.952 160.228Z" fill="#374151"/>
<path d="M198 141H267C270.314 141 273 143.686 273 147V174C273 177.314 270.314 180 267 180H198V141Z" stroke="#D1D5DB"/>
</g>
<defs>
<filter id="filter0_d_2623_16880" x="45.5" y="139.5" width="230" height="44" filterUnits="userSpaceOnUse" color-interpolation-filters="sRGB">
<feFlood flood-opacity="0" result="BackgroundImageFix"/>
<feColorMatrix in="SourceAlpha" type="matrix" values="0 0 0 0 0 0 0 0 0 0 0 0 0 0 0 0 0 0 127 0" result="hardAlpha"/>
<feOffset dy="1"/>
<feGaussianBlur stdDeviation="1"/>
<feColorMatrix type="matrix" values="0 0 0 0 0 0 0 0 0 0 0 0 0 0 0 0 0 0 0.05 0"/>
<feBlend mode="normal" in2="BackgroundImageFix" result="effect1_dropShadow_2623_16880"/>
<feBlend mode="normal" in="SourceGraphic" in2="effect1_dropShadow_2623_16880" result="shape"/>
</filter>
</defs>
</svg>
