<svg width="320" height="320" viewBox="0 0 320 320" fill="none" xmlns="http://www.w3.org/2000/svg">
<g filter="url(#filter0_dd_2623_16892)">
<rect x="70" y="67" width="180" height="187" rx="6" fill="white"/>
</g>
<path d="M91.6037 93.6719C91.5639 93.2997 91.3963 93.0099 91.1009 92.8026C90.8082 92.5952 90.4276 92.4915 89.9588 92.4915C89.6293 92.4915 89.3466 92.5412 89.1108 92.6406C88.875 92.7401 88.6946 92.875 88.5696 93.0455C88.4446 93.2159 88.3807 93.4105 88.3778 93.6293C88.3778 93.8111 88.419 93.9687 88.5014 94.1023C88.5866 94.2358 88.7017 94.3494 88.8466 94.4432C88.9915 94.5341 89.152 94.6108 89.3281 94.6733C89.5043 94.7358 89.6818 94.7884 89.8608 94.831L90.679 95.0355C91.0085 95.1122 91.3253 95.2159 91.6293 95.3466C91.9361 95.4773 92.2102 95.642 92.4517 95.8409C92.696 96.0398 92.8892 96.2798 93.0312 96.5611C93.1733 96.8423 93.2443 97.1719 93.2443 97.5497C93.2443 98.0611 93.1136 98.5114 92.8523 98.9006C92.5909 99.2869 92.2131 99.5895 91.7188 99.8082C91.2273 100.024 90.6321 100.132 89.9332 100.132C89.2543 100.132 88.6648 100.027 88.1648 99.8168C87.6676 99.6065 87.2784 99.2997 86.9972 98.8963C86.7188 98.4929 86.5682 98.0014 86.5455 97.4219H88.1009C88.1236 97.7259 88.2173 97.9787 88.3821 98.1804C88.5469 98.3821 88.7614 98.5327 89.0256 98.6321C89.2926 98.7315 89.5909 98.7812 89.9205 98.7812C90.2642 98.7812 90.5653 98.7301 90.8239 98.6278C91.0852 98.5227 91.2898 98.3778 91.4375 98.1932C91.5852 98.0057 91.6605 97.7869 91.6634 97.5369C91.6605 97.3097 91.5938 97.1222 91.4631 96.9744C91.3324 96.8239 91.1491 96.6989 90.9134 96.5994C90.6804 96.4972 90.4077 96.4062 90.0952 96.3267L89.1023 96.071C88.3835 95.8864 87.8153 95.6065 87.3977 95.2315C86.983 94.8537 86.7756 94.3523 86.7756 93.7273C86.7756 93.2131 86.9148 92.7628 87.1932 92.3764C87.4744 91.9901 87.8565 91.6903 88.3395 91.4773C88.8224 91.2614 89.3693 91.1534 89.9801 91.1534C90.5994 91.1534 91.142 91.2614 91.608 91.4773C92.0767 91.6903 92.4446 91.9872 92.7116 92.3679C92.9787 92.7457 93.1165 93.1804 93.125 93.6719H91.6037ZM95.6339 100H93.9464L97.0188 91.2727H98.9705L102.047 100H100.36L98.0288 93.0625H97.9606L95.6339 100ZM95.6893 96.5781H100.292V97.848H95.6893V96.5781ZM103.197 100V91.2727H104.778V98.6747H108.621V100H103.197ZM109.994 100V91.2727H115.67V92.598H111.575V94.9673H115.376V96.2926H111.575V98.6747H115.704V100H109.994ZM122.026 93.6719C121.986 93.2997 121.818 93.0099 121.523 92.8026C121.23 92.5952 120.849 92.4915 120.381 92.4915C120.051 92.4915 119.768 92.5412 119.533 92.6406C119.297 92.7401 119.116 92.875 118.991 93.0455C118.866 93.2159 118.803 93.4105 118.8 93.6293C118.8 93.8111 118.841 93.9687 118.923 94.1023C119.009 94.2358 119.124 94.3494 119.268 94.4432C119.413 94.5341 119.574 94.6108 119.75 94.6733C119.926 94.7358 120.104 94.7884 120.283 94.831L121.101 95.0355C121.43 95.1122 121.747 95.2159 122.051 95.3466C122.358 95.4773 122.632 95.642 122.874 95.8409C123.118 96.0398 123.311 96.2798 123.453 96.5611C123.595 96.8423 123.666 97.1719 123.666 97.5497C123.666 98.0611 123.536 98.5114 123.274 98.9006C123.013 99.2869 122.635 99.5895 122.141 99.8082C121.649 100.024 121.054 100.132 120.355 100.132C119.676 100.132 119.087 100.027 118.587 99.8168C118.089 99.6065 117.7 99.2997 117.419 98.8963C117.141 98.4929 116.99 98.0014 116.967 97.4219H118.523C118.545 97.7259 118.639 97.9787 118.804 98.1804C118.969 98.3821 119.183 98.5327 119.447 98.6321C119.714 98.7315 120.013 98.7812 120.342 98.7812C120.686 98.7812 120.987 98.7301 121.246 98.6278C121.507 98.5227 121.712 98.3778 121.859 98.1932C122.007 98.0057 122.082 97.7869 122.085 97.5369C122.082 97.3097 122.016 97.1222 121.885 96.9744C121.754 96.8239 121.571 96.6989 121.335 96.5994C121.102 96.4972 120.83 96.4062 120.517 96.3267L119.524 96.071C118.805 95.8864 118.237 95.6065 117.82 95.2315C117.405 94.8537 117.197 94.3523 117.197 93.7273C117.197 93.2131 117.337 92.7628 117.615 92.3764C117.896 91.9901 118.278 91.6903 118.761 91.4773C119.244 91.2614 119.791 91.1534 120.402 91.1534C121.021 91.1534 121.564 91.2614 122.03 91.4773C122.499 91.6903 122.866 91.9872 123.134 92.3679C123.401 92.7457 123.538 93.1804 123.547 93.6719H122.026ZM128.052 100V91.2727H131.393C132.024 91.2727 132.548 91.3722 132.966 91.571C133.386 91.767 133.7 92.0355 133.907 92.3764C134.118 92.7173 134.223 93.1037 134.223 93.5355C134.223 93.8906 134.154 94.1946 134.018 94.4474C133.882 94.6974 133.699 94.9006 133.468 95.0568C133.238 95.2131 132.981 95.3253 132.697 95.3935V95.4787C133.007 95.4957 133.304 95.5909 133.588 95.7642C133.875 95.9347 134.109 96.1761 134.291 96.4886C134.473 96.8011 134.564 97.179 134.564 97.6222C134.564 98.0739 134.454 98.4801 134.235 98.8409C134.017 99.1989 133.687 99.4815 133.247 99.6889C132.806 99.8963 132.252 100 131.585 100H128.052ZM129.633 98.679H131.333C131.907 98.679 132.321 98.5696 132.574 98.3509C132.829 98.1293 132.957 97.8452 132.957 97.4986C132.957 97.2401 132.893 97.0071 132.765 96.7997C132.637 96.5895 132.456 96.4247 132.22 96.3054C131.984 96.1832 131.703 96.1222 131.376 96.1222H129.633V98.679ZM129.633 94.9844H131.197C131.47 94.9844 131.716 94.9347 131.934 94.8352C132.153 94.733 132.325 94.5895 132.45 94.4048C132.578 94.2173 132.642 93.9957 132.642 93.7401C132.642 93.402 132.522 93.1236 132.284 92.9048C132.048 92.6861 131.697 92.5767 131.231 92.5767H129.633V94.9844ZM135.342 91.2727H137.128L139.263 95.1335H139.348L141.483 91.2727H143.268L140.094 96.7443V100H138.517V96.7443L135.342 91.2727ZM148.485 100H146.798L149.87 91.2727H151.822L154.899 100H153.211L150.88 93.0625H150.812L148.485 100ZM148.541 96.5781H153.143V97.848H148.541V96.5781ZM161.55 91.2727H163.131V96.9744C163.131 97.5994 162.983 98.1491 162.688 98.6236C162.395 99.098 161.983 99.4687 161.452 99.7358C160.92 100 160.3 100.132 159.589 100.132C158.876 100.132 158.254 100 157.723 99.7358C157.192 99.4687 156.78 99.098 156.487 98.6236C156.195 98.1491 156.048 97.5994 156.048 96.9744V91.2727H157.629V96.8423C157.629 97.206 157.709 97.5298 157.868 97.8139C158.03 98.098 158.257 98.321 158.55 98.483C158.842 98.642 159.189 98.7216 159.589 98.7216C159.99 98.7216 160.337 98.642 160.629 98.483C160.925 98.321 161.152 98.098 161.311 97.8139C161.47 97.5298 161.55 97.206 161.55 96.8423V91.2727ZM167.806 100H164.849V91.2727H167.866C168.733 91.2727 169.477 91.4474 170.099 91.7969C170.724 92.1435 171.204 92.642 171.539 93.2926C171.875 93.9432 172.042 94.7216 172.042 95.6278C172.042 96.5369 171.873 97.3182 171.535 97.9716C171.2 98.625 170.716 99.1264 170.082 99.4759C169.451 99.8253 168.693 100 167.806 100ZM166.43 98.6321H167.73C168.338 98.6321 168.845 98.5213 169.251 98.2997C169.657 98.0753 169.963 97.7415 170.167 97.2983C170.372 96.8523 170.474 96.2955 170.474 95.6278C170.474 94.9602 170.372 94.4062 170.167 93.9659C169.963 93.5227 169.66 93.1918 169.26 92.973C168.862 92.7514 168.368 92.6406 167.777 92.6406H166.43V98.6321ZM175.125 91.2727V100H173.544V91.2727H175.125ZM176.837 100V91.2727H182.513V92.598H178.418V94.9673H182.219V96.2926H178.418V98.6747H182.548V100H176.837ZM191.298 91.2727V100H189.892L185.78 94.0554H185.707V100H184.126V91.2727H185.541L189.649 97.2216H189.726V91.2727H191.298ZM200.491 94.2173H198.897C198.852 93.956 198.768 93.7244 198.646 93.5227C198.524 93.3182 198.372 93.1449 198.19 93.0028C198.008 92.8608 197.801 92.7543 197.568 92.6832C197.338 92.6094 197.089 92.5724 196.822 92.5724C196.348 92.5724 195.927 92.6918 195.561 92.9304C195.194 93.1662 194.907 93.5128 194.7 93.9702C194.493 94.4247 194.389 94.9801 194.389 95.6364C194.389 96.304 194.493 96.8665 194.7 97.3239C194.91 97.7784 195.197 98.1222 195.561 98.3551C195.927 98.5852 196.346 98.7003 196.818 98.7003C197.079 98.7003 197.324 98.6662 197.551 98.598C197.781 98.527 197.987 98.4233 198.169 98.2869C198.353 98.1506 198.508 97.983 198.633 97.7841C198.761 97.5852 198.849 97.358 198.897 97.1023L200.491 97.1108C200.431 97.5256 200.302 97.9148 200.103 98.2784C199.907 98.642 199.65 98.9631 199.332 99.2415C199.014 99.517 198.642 99.733 198.216 99.8892C197.789 100.043 197.316 100.119 196.797 100.119C196.029 100.119 195.345 99.9418 194.743 99.5866C194.14 99.2315 193.666 98.7188 193.319 98.0483C192.973 97.3778 192.799 96.5739 192.799 95.6364C192.799 94.696 192.974 93.892 193.324 93.2244C193.673 92.554 194.149 92.0412 194.751 91.6861C195.353 91.331 196.035 91.1534 196.797 91.1534C197.282 91.1534 197.734 91.2216 198.152 91.358C198.569 91.4943 198.941 91.6946 199.268 91.9588C199.595 92.2202 199.863 92.5412 200.074 92.9219C200.287 93.2997 200.426 93.7315 200.491 94.2173ZM201.939 100V91.2727H207.615V92.598H203.52V94.9673H207.321V96.2926H203.52V98.6747H207.649V100H201.939Z" fill="#9CA3AF"/>
<path d="M86.4773 112.598V111.273H93.4403V112.598H90.7429V120H89.1747V112.598H86.4773ZM96.6204 120.128C95.9812 120.128 95.4272 119.987 94.9585 119.706C94.4897 119.425 94.1261 119.031 93.8675 118.526C93.6119 118.02 93.484 117.429 93.484 116.753C93.484 116.077 93.6119 115.484 93.8675 114.976C94.1261 114.467 94.4897 114.072 94.9585 113.791C95.4272 113.51 95.9812 113.369 96.6204 113.369C97.2596 113.369 97.8136 113.51 98.2823 113.791C98.7511 114.072 99.1133 114.467 99.369 114.976C99.6275 115.484 99.7567 116.077 99.7567 116.753C99.7567 117.429 99.6275 118.02 99.369 118.526C99.1133 119.031 98.7511 119.425 98.2823 119.706C97.8136 119.987 97.2596 120.128 96.6204 120.128ZM96.6289 118.892C96.9755 118.892 97.2653 118.797 97.4982 118.607C97.7312 118.413 97.9045 118.155 98.0181 117.831C98.1346 117.507 98.1928 117.146 98.1928 116.749C98.1928 116.348 98.1346 115.986 98.0181 115.662C97.9045 115.335 97.7312 115.075 97.4982 114.882C97.2653 114.689 96.9755 114.592 96.6289 114.592C96.2738 114.592 95.9783 114.689 95.7425 114.882C95.5096 115.075 95.3349 115.335 95.2184 115.662C95.1048 115.986 95.0479 116.348 95.0479 116.749C95.0479 117.146 95.1048 117.507 95.2184 117.831C95.3349 118.155 95.5096 118.413 95.7425 118.607C95.9783 118.797 96.2738 118.892 96.6289 118.892ZM104.335 113.455V114.648H100.572V113.455H104.335ZM101.501 111.886H103.043V118.031C103.043 118.239 103.075 118.398 103.137 118.509C103.202 118.616 103.288 118.69 103.393 118.73C103.498 118.77 103.614 118.79 103.742 118.79C103.839 118.79 103.927 118.783 104.006 118.768C104.089 118.754 104.151 118.741 104.194 118.73L104.454 119.936C104.371 119.964 104.254 119.996 104.1 120.03C103.95 120.064 103.765 120.084 103.546 120.089C103.16 120.101 102.812 120.043 102.502 119.915C102.192 119.784 101.947 119.582 101.765 119.31C101.586 119.037 101.498 118.696 101.501 118.287V111.886ZM107.508 120.132C107.093 120.132 106.72 120.058 106.387 119.911C106.058 119.76 105.797 119.538 105.603 119.246C105.413 118.953 105.318 118.592 105.318 118.163C105.318 117.794 105.386 117.489 105.522 117.247C105.659 117.006 105.845 116.812 106.081 116.668C106.316 116.523 106.582 116.413 106.877 116.339C107.176 116.263 107.484 116.207 107.802 116.173C108.186 116.134 108.497 116.098 108.735 116.067C108.974 116.033 109.147 115.982 109.255 115.913C109.366 115.842 109.422 115.733 109.422 115.585V115.56C109.422 115.239 109.326 114.99 109.136 114.814C108.946 114.638 108.672 114.55 108.314 114.55C107.936 114.55 107.636 114.632 107.414 114.797C107.196 114.962 107.048 115.156 106.971 115.381L105.531 115.176C105.645 114.778 105.832 114.446 106.093 114.179C106.355 113.909 106.674 113.707 107.052 113.574C107.43 113.438 107.848 113.369 108.305 113.369C108.62 113.369 108.934 113.406 109.247 113.48C109.559 113.554 109.845 113.676 110.103 113.847C110.362 114.014 110.569 114.243 110.725 114.533C110.885 114.822 110.964 115.185 110.964 115.619V120H109.481V119.101H109.43C109.336 119.283 109.204 119.453 109.034 119.612C108.866 119.768 108.654 119.895 108.399 119.991C108.146 120.085 107.849 120.132 107.508 120.132ZM107.909 118.999C108.218 118.999 108.487 118.937 108.714 118.815C108.941 118.69 109.116 118.526 109.238 118.321C109.363 118.116 109.426 117.893 109.426 117.652V116.881C109.377 116.92 109.295 116.957 109.179 116.991C109.065 117.026 108.937 117.055 108.795 117.081C108.653 117.107 108.512 117.129 108.373 117.149C108.234 117.169 108.113 117.186 108.011 117.2C107.781 117.232 107.575 117.283 107.393 117.354C107.211 117.425 107.068 117.524 106.963 117.652C106.858 117.777 106.805 117.939 106.805 118.138C106.805 118.422 106.909 118.636 107.116 118.781C107.324 118.926 107.588 118.999 107.909 118.999ZM114.058 111.273V120H112.515V111.273H114.058ZM122.793 117.247V113.455H124.335V120H122.839V118.837H122.771C122.624 119.203 122.381 119.503 122.043 119.736C121.707 119.969 121.294 120.085 120.803 120.085C120.374 120.085 119.994 119.99 119.665 119.8C119.338 119.607 119.082 119.327 118.898 118.96C118.713 118.591 118.621 118.145 118.621 117.622V113.455H120.163V117.384C120.163 117.798 120.277 118.128 120.504 118.372C120.732 118.616 121.03 118.739 121.399 118.739C121.626 118.739 121.847 118.683 122.06 118.572C122.273 118.462 122.447 118.297 122.584 118.078C122.723 117.857 122.793 117.58 122.793 117.247ZM131.095 115.185L129.689 115.338C129.649 115.196 129.579 115.062 129.48 114.938C129.383 114.812 129.252 114.712 129.088 114.635C128.923 114.558 128.721 114.52 128.483 114.52C128.162 114.52 127.892 114.589 127.673 114.729C127.457 114.868 127.35 115.048 127.353 115.27C127.35 115.46 127.42 115.615 127.562 115.734C127.707 115.854 127.946 115.952 128.278 116.028L129.395 116.267C130.014 116.401 130.474 116.612 130.775 116.902C131.079 117.192 131.233 117.571 131.235 118.04C131.233 118.452 131.112 118.815 130.873 119.131C130.637 119.443 130.309 119.687 129.889 119.864C129.468 120.04 128.985 120.128 128.44 120.128C127.639 120.128 126.994 119.96 126.505 119.625C126.017 119.287 125.725 118.817 125.632 118.214L127.136 118.07C127.204 118.365 127.349 118.588 127.571 118.739C127.792 118.889 128.081 118.964 128.436 118.964C128.802 118.964 129.096 118.889 129.318 118.739C129.542 118.588 129.654 118.402 129.654 118.18C129.654 117.993 129.582 117.838 129.437 117.716C129.295 117.594 129.074 117.5 128.772 117.435L127.656 117.2C127.028 117.07 126.564 116.849 126.262 116.54C125.961 116.227 125.812 115.832 125.815 115.355C125.812 114.952 125.922 114.602 126.143 114.307C126.368 114.009 126.679 113.778 127.076 113.616C127.477 113.452 127.939 113.369 128.461 113.369C129.228 113.369 129.832 113.533 130.272 113.859C130.716 114.186 130.99 114.628 131.095 115.185ZM136.745 113.455L138.066 115.871L139.409 113.455H141.041L139.068 116.727L141.075 120H139.451L138.066 117.643L136.694 120H135.058L137.052 116.727L135.109 113.455H136.745ZM144.843 120.128C144.204 120.128 143.65 119.987 143.181 119.706C142.712 119.425 142.349 119.031 142.09 118.526C141.835 118.02 141.707 117.429 141.707 116.753C141.707 116.077 141.835 115.484 142.09 114.976C142.349 114.467 142.712 114.072 143.181 113.791C143.65 113.51 144.204 113.369 144.843 113.369C145.482 113.369 146.036 113.51 146.505 113.791C146.974 114.072 147.336 114.467 147.592 114.976C147.85 115.484 147.979 116.077 147.979 116.753C147.979 117.429 147.85 118.02 147.592 118.526C147.336 119.031 146.974 119.425 146.505 119.706C146.036 119.987 145.482 120.128 144.843 120.128ZM144.852 118.892C145.198 118.892 145.488 118.797 145.721 118.607C145.954 118.413 146.127 118.155 146.241 117.831C146.357 117.507 146.415 117.146 146.415 116.749C146.415 116.348 146.357 115.986 146.241 115.662C146.127 115.335 145.954 115.075 145.721 114.882C145.488 114.689 145.198 114.592 144.852 114.592C144.496 114.592 144.201 114.689 143.965 114.882C143.732 115.075 143.558 115.335 143.441 115.662C143.327 115.986 143.271 116.348 143.271 116.749C143.271 117.146 143.327 117.507 143.441 117.831C143.558 118.155 143.732 118.413 143.965 118.607C144.201 118.797 144.496 118.892 144.852 118.892ZM151.172 120.132C150.757 120.132 150.384 120.058 150.051 119.911C149.722 119.76 149.461 119.538 149.267 119.246C149.077 118.953 148.982 118.592 148.982 118.163C148.982 117.794 149.05 117.489 149.186 117.247C149.323 117.006 149.509 116.812 149.745 116.668C149.98 116.523 150.246 116.413 150.542 116.339C150.84 116.263 151.148 116.207 151.466 116.173C151.85 116.134 152.161 116.098 152.4 116.067C152.638 116.033 152.811 115.982 152.919 115.913C153.03 115.842 153.086 115.733 153.086 115.585V115.56C153.086 115.239 152.99 114.99 152.8 114.814C152.61 114.638 152.336 114.55 151.978 114.55C151.6 114.55 151.3 114.632 151.078 114.797C150.86 114.962 150.712 115.156 150.635 115.381L149.195 115.176C149.309 114.778 149.496 114.446 149.757 114.179C150.019 113.909 150.338 113.707 150.716 113.574C151.094 113.438 151.512 113.369 151.969 113.369C152.284 113.369 152.598 113.406 152.911 113.48C153.223 113.554 153.509 113.676 153.767 113.847C154.026 114.014 154.233 114.243 154.39 114.533C154.549 114.822 154.628 115.185 154.628 115.619V120H153.145V119.101H153.094C153 119.283 152.868 119.453 152.698 119.612C152.53 119.768 152.319 119.895 152.063 119.991C151.81 120.085 151.513 120.132 151.172 120.132ZM151.573 118.999C151.882 118.999 152.151 118.937 152.378 118.815C152.605 118.69 152.78 118.526 152.902 118.321C153.027 118.116 153.09 117.893 153.09 117.652V116.881C153.042 116.92 152.959 116.957 152.843 116.991C152.729 117.026 152.601 117.055 152.459 117.081C152.317 117.107 152.176 117.129 152.037 117.149C151.898 117.169 151.777 117.186 151.675 117.2C151.445 117.232 151.239 117.283 151.057 117.354C150.875 117.425 150.732 117.524 150.627 117.652C150.522 117.777 150.469 117.939 150.469 118.138C150.469 118.422 150.573 118.636 150.78 118.781C150.988 118.926 151.252 118.999 151.573 118.999ZM159.034 120.128C158.381 120.128 157.82 119.984 157.351 119.697C156.885 119.411 156.526 119.014 156.273 118.509C156.023 118 155.898 117.415 155.898 116.753C155.898 116.088 156.026 115.501 156.282 114.993C156.537 114.482 156.898 114.084 157.364 113.8C157.833 113.513 158.387 113.369 159.026 113.369C159.557 113.369 160.027 113.467 160.436 113.663C160.848 113.857 161.176 114.131 161.421 114.486C161.665 114.838 161.804 115.25 161.838 115.722H160.364C160.304 115.406 160.162 115.143 159.938 114.933C159.716 114.72 159.419 114.614 159.047 114.614C158.732 114.614 158.455 114.699 158.216 114.869C157.978 115.037 157.792 115.278 157.658 115.594C157.527 115.909 157.462 116.287 157.462 116.727C157.462 117.173 157.527 117.557 157.658 117.878C157.789 118.196 157.972 118.442 158.208 118.615C158.446 118.786 158.726 118.871 159.047 118.871C159.275 118.871 159.478 118.828 159.657 118.743C159.838 118.655 159.99 118.528 160.113 118.364C160.235 118.199 160.319 117.999 160.364 117.763H161.838C161.801 118.226 161.665 118.636 161.429 118.994C161.194 119.349 160.873 119.628 160.466 119.83C160.06 120.028 159.583 120.128 159.034 120.128ZM166.082 120V113.455H167.624V120H166.082ZM166.857 112.526C166.613 112.526 166.403 112.445 166.227 112.283C166.05 112.118 165.962 111.92 165.962 111.69C165.962 111.457 166.05 111.26 166.227 111.098C166.403 110.933 166.613 110.851 166.857 110.851C167.104 110.851 167.315 110.933 167.488 111.098C167.664 111.26 167.752 111.457 167.752 111.69C167.752 111.92 167.664 112.118 167.488 112.283C167.315 112.445 167.104 112.526 166.857 112.526ZM170.753 116.165V120H169.211V113.455H170.685V114.567H170.762C170.912 114.2 171.152 113.909 171.482 113.693C171.814 113.477 172.225 113.369 172.713 113.369C173.165 113.369 173.559 113.466 173.894 113.659C174.232 113.852 174.493 114.132 174.678 114.499C174.865 114.865 174.958 115.31 174.955 115.832V120H173.412V116.071C173.412 115.634 173.299 115.291 173.071 115.044C172.847 114.797 172.536 114.673 172.138 114.673C171.868 114.673 171.628 114.733 171.418 114.852C171.211 114.969 171.047 115.138 170.928 115.359C170.811 115.581 170.753 115.849 170.753 116.165ZM179.378 120.128C178.725 120.128 178.164 119.984 177.695 119.697C177.229 119.411 176.87 119.014 176.617 118.509C176.367 118 176.242 117.415 176.242 116.753C176.242 116.088 176.37 115.501 176.625 114.993C176.881 114.482 177.242 114.084 177.708 113.8C178.176 113.513 178.73 113.369 179.37 113.369C179.901 113.369 180.371 113.467 180.78 113.663C181.192 113.857 181.52 114.131 181.765 114.486C182.009 114.838 182.148 115.25 182.182 115.722H180.708C180.648 115.406 180.506 115.143 180.282 114.933C180.06 114.72 179.763 114.614 179.391 114.614C179.076 114.614 178.799 114.699 178.56 114.869C178.321 115.037 178.135 115.278 178.002 115.594C177.871 115.909 177.806 116.287 177.806 116.727C177.806 117.173 177.871 117.557 178.002 117.878C178.132 118.196 178.316 118.442 178.551 118.615C178.79 118.786 179.07 118.871 179.391 118.871C179.618 118.871 179.821 118.828 180 118.743C180.182 118.655 180.334 118.528 180.456 118.364C180.578 118.199 180.662 117.999 180.708 117.763H182.182C182.145 118.226 182.009 118.636 181.773 118.994C181.537 119.349 181.216 119.628 180.81 119.83C180.404 120.028 179.926 120.128 179.378 120.128ZM184.991 111.273V120H183.449V111.273H184.991ZM192.409 120.128C191.756 120.128 191.195 119.984 190.726 119.697C190.26 119.411 189.901 119.014 189.648 118.509C189.398 118 189.273 117.415 189.273 116.753C189.273 116.088 189.401 115.501 189.657 114.993C189.912 114.482 190.273 114.084 190.739 113.8C191.208 113.513 191.762 113.369 192.401 113.369C192.932 113.369 193.402 113.467 193.811 113.663C194.223 113.857 194.551 114.131 194.796 114.486C195.04 114.838 195.179 115.25 195.213 115.722H193.739C193.679 115.406 193.537 115.143 193.313 114.933C193.091 114.72 192.794 114.614 192.422 114.614C192.107 114.614 191.83 114.699 191.591 114.869C191.353 115.037 191.167 115.278 191.033 115.594C190.902 115.909 190.837 116.287 190.837 116.727C190.837 117.173 190.902 117.557 191.033 117.878C191.164 118.196 191.347 118.442 191.583 118.615C191.821 118.786 192.101 118.871 192.422 118.871C192.65 118.871 192.853 118.828 193.032 118.743C193.213 118.655 193.365 118.528 193.488 118.364C193.61 118.199 193.694 117.999 193.739 117.763H195.213C195.176 118.226 195.04 118.636 194.804 118.994C194.569 119.349 194.248 119.628 193.841 119.83C193.435 120.028 192.958 120.128 192.409 120.128ZM199.335 120.128C198.696 120.128 198.142 119.987 197.673 119.706C197.205 119.425 196.841 119.031 196.582 118.526C196.327 118.02 196.199 117.429 196.199 116.753C196.199 116.077 196.327 115.484 196.582 114.976C196.841 114.467 197.205 114.072 197.673 113.791C198.142 113.51 198.696 113.369 199.335 113.369C199.974 113.369 200.528 113.51 200.997 113.791C201.466 114.072 201.828 114.467 202.084 114.976C202.342 115.484 202.472 116.077 202.472 116.753C202.472 117.429 202.342 118.02 202.084 118.526C201.828 119.031 201.466 119.425 200.997 119.706C200.528 119.987 199.974 120.128 199.335 120.128ZM199.344 118.892C199.69 118.892 199.98 118.797 200.213 118.607C200.446 118.413 200.619 118.155 200.733 117.831C200.849 117.507 200.908 117.146 200.908 116.749C200.908 116.348 200.849 115.986 200.733 115.662C200.619 115.335 200.446 115.075 200.213 114.882C199.98 114.689 199.69 114.592 199.344 114.592C198.989 114.592 198.693 114.689 198.457 114.882C198.224 115.075 198.05 115.335 197.933 115.662C197.82 115.986 197.763 116.348 197.763 116.749C197.763 117.146 197.82 117.507 197.933 117.831C198.05 118.155 198.224 118.413 198.457 118.607C198.693 118.797 198.989 118.892 199.344 118.892ZM205.324 116.165V120H203.781V113.455H205.255V114.567H205.332C205.483 114.2 205.723 113.909 206.052 113.693C206.385 113.477 206.795 113.369 207.284 113.369C207.735 113.369 208.129 113.466 208.464 113.659C208.802 113.852 209.064 114.132 209.248 114.499C209.436 114.865 209.528 115.31 209.525 115.832V120H207.983V116.071C207.983 115.634 207.869 115.291 207.642 115.044C207.417 114.797 207.106 114.673 206.708 114.673C206.439 114.673 206.199 114.733 205.988 114.852C205.781 114.969 205.618 115.138 205.498 115.359C205.382 115.581 205.324 115.849 205.324 116.165ZM216.706 113.455L214.375 120H212.67L210.339 113.455H211.984L213.488 118.317H213.556L215.065 113.455H216.706Z" fill="#0080FF"/>
<path d="M97.3622 181.455V146.909H99.5753V181.455H97.3622ZM103.745 157.961C103.619 156.782 103.088 155.865 102.153 155.208C101.226 154.551 100.021 154.223 98.5362 154.223C97.4927 154.223 96.5975 154.38 95.8509 154.695C95.1042 155.01 94.5329 155.437 94.1371 155.977C93.7412 156.517 93.5388 157.133 93.5298 157.826C93.5298 158.402 93.6603 158.901 93.9212 159.324C94.1911 159.747 94.5554 160.107 95.0142 160.403C95.473 160.691 95.9813 160.934 96.5391 161.132C97.0968 161.33 97.6591 161.496 98.2259 161.631L100.817 162.279C101.86 162.522 102.863 162.85 103.826 163.264C104.798 163.678 105.666 164.2 106.43 164.83C107.204 165.459 107.816 166.219 108.266 167.11C108.715 168.001 108.94 169.044 108.94 170.241C108.94 171.86 108.527 173.286 107.699 174.518C106.871 175.742 105.675 176.7 104.109 177.393C102.553 178.076 100.668 178.418 98.4553 178.418C96.3052 178.418 94.4384 178.085 92.8551 177.42C91.2808 176.754 90.0483 175.782 89.1577 174.505C88.276 173.228 87.7992 171.671 87.7273 169.836H92.6527C92.7247 170.799 93.0215 171.599 93.5433 172.238C94.0651 172.877 94.7443 173.353 95.581 173.668C96.4266 173.983 97.3712 174.141 98.4148 174.141C99.5033 174.141 100.457 173.979 101.276 173.655C102.103 173.322 102.751 172.863 103.219 172.278C103.687 171.685 103.925 170.992 103.934 170.2C103.925 169.481 103.714 168.887 103.3 168.419C102.886 167.942 102.306 167.546 101.559 167.232C100.821 166.908 99.9576 166.62 98.968 166.368L95.8239 165.558C93.5478 164.973 91.7486 164.087 90.4261 162.9C89.1127 161.703 88.456 160.116 88.456 158.136C88.456 156.508 88.8968 155.082 89.7784 153.859C90.669 152.635 91.879 151.686 93.4084 151.011C94.9377 150.328 96.6695 149.986 98.6037 149.986C100.565 149.986 102.283 150.328 103.759 151.011C105.243 151.686 106.408 152.626 107.254 153.832C108.099 155.028 108.536 156.405 108.562 157.961H103.745ZM113.134 178V174.384L122.728 164.978C123.646 164.051 124.41 163.228 125.022 162.509C125.634 161.789 126.093 161.092 126.399 160.417C126.704 159.742 126.857 159.022 126.857 158.258C126.857 157.385 126.66 156.638 126.264 156.018C125.868 155.388 125.324 154.902 124.631 154.56C123.938 154.219 123.151 154.048 122.269 154.048C121.361 154.048 120.565 154.237 119.881 154.614C119.197 154.983 118.666 155.509 118.289 156.193C117.92 156.877 117.735 157.691 117.735 158.636H112.972C112.972 156.881 113.372 155.357 114.173 154.061C114.973 152.766 116.075 151.763 117.479 151.052C118.891 150.341 120.511 149.986 122.337 149.986C124.19 149.986 125.818 150.332 127.222 151.025C128.625 151.718 129.714 152.667 130.487 153.872C131.27 155.078 131.661 156.454 131.661 158.001C131.661 159.036 131.463 160.053 131.068 161.051C130.672 162.05 129.975 163.156 128.976 164.371C127.986 165.585 126.597 167.056 124.806 168.783L120.043 173.628V173.817H132.08V178H113.134ZM146.343 178.378C144.544 178.378 142.934 178.04 141.512 177.366C140.091 176.682 138.962 175.746 138.125 174.559C137.298 173.371 136.857 172.013 136.803 170.484H141.661C141.751 171.617 142.241 172.544 143.132 173.263C144.022 173.974 145.093 174.33 146.343 174.33C147.324 174.33 148.196 174.105 148.961 173.655C149.726 173.205 150.329 172.58 150.769 171.779C151.21 170.978 151.426 170.065 151.417 169.04C151.426 167.996 151.206 167.07 150.756 166.26C150.306 165.45 149.69 164.816 148.907 164.357C148.124 163.889 147.225 163.656 146.208 163.656C145.381 163.647 144.566 163.799 143.766 164.114C142.965 164.429 142.331 164.843 141.863 165.356L137.343 164.614L138.786 150.364H154.818V154.547H142.929L142.133 161.874H142.295C142.808 161.272 143.532 160.772 144.468 160.376C145.403 159.972 146.429 159.769 147.544 159.769C149.218 159.769 150.711 160.165 152.024 160.957C153.338 161.739 154.372 162.819 155.128 164.195C155.884 165.572 156.262 167.146 156.262 168.918C156.262 170.745 155.839 172.373 154.993 173.803C154.156 175.225 152.991 176.345 151.498 177.163C150.014 177.973 148.295 178.378 146.343 178.378ZM162.918 178.297C162.099 178.297 161.397 178.009 160.812 177.433C160.228 176.857 159.94 176.156 159.949 175.328C159.94 174.518 160.228 173.826 160.812 173.25C161.397 172.674 162.099 172.386 162.918 172.386C163.709 172.386 164.397 172.674 164.982 173.25C165.576 173.826 165.877 174.518 165.886 175.328C165.877 175.877 165.733 176.376 165.455 176.826C165.185 177.276 164.825 177.636 164.375 177.906C163.934 178.166 163.448 178.297 162.918 178.297ZM179.866 178.378C177.923 178.378 176.196 178.045 174.685 177.379C173.182 176.714 171.995 175.787 171.122 174.599C170.25 173.412 169.786 172.04 169.732 170.484H174.806C174.851 171.23 175.098 171.883 175.548 172.44C175.998 172.989 176.596 173.416 177.343 173.722C178.09 174.028 178.926 174.181 179.853 174.181C180.843 174.181 181.72 174.01 182.484 173.668C183.249 173.317 183.847 172.832 184.279 172.211C184.711 171.59 184.922 170.875 184.913 170.065C184.922 169.229 184.706 168.491 184.266 167.852C183.825 167.214 183.186 166.714 182.349 166.354C181.522 165.995 180.523 165.815 179.354 165.815H176.911V161.955H179.354C180.316 161.955 181.157 161.789 181.877 161.456C182.606 161.123 183.177 160.655 183.591 160.053C184.005 159.441 184.207 158.735 184.198 157.934C184.207 157.151 184.032 156.472 183.672 155.896C183.321 155.312 182.822 154.857 182.174 154.533C181.535 154.21 180.784 154.048 179.92 154.048C179.075 154.048 178.292 154.201 177.572 154.506C176.853 154.812 176.272 155.249 175.832 155.815C175.391 156.373 175.157 157.039 175.13 157.812H170.312C170.348 156.265 170.794 154.907 171.648 153.737C172.512 152.559 173.664 151.641 175.103 150.984C176.542 150.319 178.157 149.986 179.947 149.986C181.792 149.986 183.393 150.332 184.751 151.025C186.119 151.709 187.176 152.631 187.923 153.791C188.669 154.952 189.043 156.234 189.043 157.637C189.052 159.193 188.593 160.498 187.666 161.55C186.749 162.603 185.543 163.291 184.05 163.615V163.831C185.993 164.101 187.482 164.821 188.516 165.99C189.56 167.151 190.077 168.594 190.068 170.322C190.068 171.869 189.627 173.254 188.746 174.478C187.873 175.692 186.668 176.646 185.129 177.339C183.6 178.031 181.846 178.378 179.866 178.378ZM194.97 178V150.364H199.976V163.062H200.314L211.096 150.364H217.209L206.521 162.765L217.303 178H211.285L203.04 166.152L199.976 169.768V178H194.97Z" fill="#111827"/>
<path d="M86 212C86 205.373 91.3726 200 98 200H138.286C144.913 200 150.286 205.373 150.286 212V212C150.286 218.627 144.913 224 138.286 224H98C91.3726 224 86 218.627 86 212V212Z" fill="#FEE2E2"/>
<path d="M96 216L92.5359 210L99.4641 210L96 216Z" fill="#991B1B"/>
<path d="M109.878 216.119C109.293 216.119 108.77 216.018 108.31 215.817C107.852 215.615 107.49 215.335 107.223 214.977C106.959 214.616 106.817 214.199 106.797 213.724H108.135C108.152 213.983 108.239 214.207 108.395 214.398C108.554 214.585 108.761 214.73 109.017 214.832C109.273 214.935 109.557 214.986 109.869 214.986C110.213 214.986 110.517 214.926 110.781 214.807C111.048 214.687 111.257 214.521 111.408 214.308C111.558 214.092 111.634 213.844 111.634 213.562C111.634 213.27 111.558 213.013 111.408 212.791C111.26 212.567 111.043 212.391 110.756 212.263C110.472 212.135 110.128 212.071 109.724 212.071H108.987V210.997H109.724C110.048 210.997 110.332 210.939 110.577 210.822C110.824 210.706 111.017 210.544 111.156 210.337C111.295 210.126 111.365 209.881 111.365 209.599C111.365 209.33 111.304 209.095 111.182 208.896C111.063 208.695 110.892 208.537 110.67 208.423C110.452 208.31 110.193 208.253 109.895 208.253C109.611 208.253 109.345 208.305 109.098 208.411C108.854 208.513 108.655 208.661 108.501 208.854C108.348 209.044 108.266 209.273 108.254 209.54H106.98C106.994 209.068 107.134 208.653 107.398 208.295C107.665 207.937 108.017 207.658 108.455 207.456C108.892 207.254 109.378 207.153 109.912 207.153C110.472 207.153 110.955 207.263 111.361 207.482C111.77 207.697 112.085 207.986 112.307 208.347C112.531 208.707 112.642 209.102 112.639 209.531C112.642 210.02 112.506 210.435 112.23 210.776C111.957 211.116 111.594 211.345 111.139 211.462V211.53C111.719 211.618 112.168 211.848 112.486 212.22C112.807 212.592 112.966 213.054 112.963 213.605C112.966 214.085 112.832 214.516 112.562 214.896C112.295 215.277 111.93 215.577 111.467 215.795C111.004 216.011 110.474 216.119 109.878 216.119ZM117.612 216.145C116.939 216.142 116.364 215.964 115.886 215.612C115.409 215.26 115.044 214.747 114.791 214.074C114.538 213.401 114.412 212.589 114.412 211.641C114.412 210.695 114.538 209.886 114.791 209.216C115.047 208.545 115.413 208.034 115.891 207.682C116.371 207.33 116.945 207.153 117.612 207.153C118.28 207.153 118.852 207.331 119.33 207.686C119.807 208.038 120.172 208.55 120.425 209.22C120.68 209.888 120.808 210.695 120.808 211.641C120.808 212.592 120.682 213.405 120.429 214.078C120.176 214.749 119.811 215.261 119.334 215.616C118.857 215.969 118.283 216.145 117.612 216.145ZM117.612 215.007C118.203 215.007 118.665 214.719 118.997 214.142C119.332 213.565 119.5 212.732 119.5 211.641C119.5 210.916 119.423 210.304 119.27 209.804C119.119 209.301 118.902 208.92 118.618 208.662C118.337 208.401 118.001 208.27 117.612 208.27C117.024 208.27 116.563 208.56 116.227 209.139C115.892 209.719 115.723 210.553 115.72 211.641C115.72 212.368 115.795 212.983 115.946 213.486C116.099 213.986 116.317 214.365 116.598 214.624C116.879 214.879 117.217 215.007 117.612 215.007ZM122.86 216.081C122.627 216.081 122.427 215.999 122.259 215.834C122.092 215.666 122.008 215.464 122.008 215.229C122.008 214.996 122.092 214.797 122.259 214.632C122.427 214.464 122.627 214.381 122.86 214.381C123.093 214.381 123.293 214.464 123.461 214.632C123.629 214.797 123.712 214.996 123.712 215.229C123.712 215.385 123.673 215.528 123.593 215.659C123.516 215.787 123.414 215.889 123.286 215.966C123.158 216.043 123.016 216.081 122.86 216.081ZM127.658 207.273V216H126.337V208.594H126.286L124.198 209.957V208.696L126.376 207.273H127.658ZM134.575 214.364V213.903C134.575 213.574 134.643 213.273 134.779 213C134.918 212.724 135.12 212.504 135.384 212.339C135.651 212.172 135.974 212.088 136.352 212.088C136.738 212.088 137.062 212.17 137.323 212.335C137.585 212.5 137.782 212.72 137.915 212.996C138.052 213.271 138.12 213.574 138.12 213.903V214.364C138.12 214.693 138.052 214.996 137.915 215.271C137.779 215.544 137.579 215.764 137.315 215.932C137.053 216.097 136.732 216.179 136.352 216.179C135.968 216.179 135.644 216.097 135.38 215.932C135.116 215.764 134.915 215.544 134.779 215.271C134.643 214.996 134.575 214.693 134.575 214.364ZM135.567 213.903V214.364C135.567 214.608 135.626 214.83 135.742 215.028C135.859 215.227 136.062 215.327 136.352 215.327C136.638 215.327 136.839 215.227 136.952 215.028C137.066 214.83 137.123 214.608 137.123 214.364V213.903C137.123 213.659 137.067 213.437 136.957 213.239C136.849 213.04 136.647 212.94 136.352 212.94C136.067 212.94 135.866 213.04 135.746 213.239C135.627 213.437 135.567 213.659 135.567 213.903ZM130.185 209.369V208.909C130.185 208.58 130.254 208.277 130.39 208.001C130.529 207.726 130.731 207.506 130.995 207.341C131.262 207.176 131.585 207.094 131.962 207.094C132.349 207.094 132.673 207.176 132.934 207.341C133.195 207.506 133.393 207.726 133.526 208.001C133.66 208.277 133.727 208.58 133.727 208.909V209.369C133.727 209.699 133.658 210.001 133.522 210.277C133.388 210.55 133.19 210.77 132.925 210.938C132.664 211.102 132.343 211.185 131.962 211.185C131.576 211.185 131.251 211.102 130.987 210.938C130.725 210.77 130.526 210.55 130.39 210.277C130.254 210.001 130.185 209.699 130.185 209.369ZM131.183 208.909V209.369C131.183 209.614 131.239 209.835 131.353 210.034C131.469 210.233 131.673 210.332 131.962 210.332C132.246 210.332 132.445 210.233 132.559 210.034C132.675 209.835 132.734 209.614 132.734 209.369V208.909C132.734 208.665 132.678 208.443 132.567 208.244C132.457 208.045 132.255 207.946 131.962 207.946C131.678 207.946 131.477 208.045 131.357 208.244C131.241 208.443 131.183 208.665 131.183 208.909ZM130.59 216L136.59 207.273H137.609L131.609 216H130.59Z" fill="#991B1B"/>
<defs>
<filter id="filter0_dd_2623_16892" x="67" y="65" width="186" height="193" filterUnits="userSpaceOnUse" color-interpolation-filters="sRGB">
<feFlood flood-opacity="0" result="BackgroundImageFix"/>
<feColorMatrix in="SourceAlpha" type="matrix" values="0 0 0 0 0 0 0 0 0 0 0 0 0 0 0 0 0 0 127 0" result="hardAlpha"/>
<feOffset dy="1"/>
<feGaussianBlur stdDeviation="1"/>
<feColorMatrix type="matrix" values="0 0 0 0 0 0 0 0 0 0 0 0 0 0 0 0 0 0 0.06 0"/>
<feBlend mode="normal" in2="BackgroundImageFix" result="effect1_dropShadow_2623_16892"/>
<feColorMatrix in="SourceAlpha" type="matrix" values="0 0 0 0 0 0 0 0 0 0 0 0 0 0 0 0 0 0 127 0" result="hardAlpha"/>
<feOffset dy="1"/>
<feGaussianBlur stdDeviation="1.5"/>
<feColorMatrix type="matrix" values="0 0 0 0 0 0 0 0 0 0 0 0 0 0 0 0 0 0 0.1 0"/>
<feBlend mode="normal" in2="effect1_dropShadow_2623_16892" result="effect2_dropShadow_2623_16892"/>
<feBlend mode="normal" in="SourceGraphic" in2="effect2_dropShadow_2623_16892" result="shape"/>
</filter>
</defs>
</svg>
