<svg width="320" height="320" viewBox="0 0 320 320" fill="none" xmlns="http://www.w3.org/2000/svg">
<path d="M29 136C29 133.791 30.7909 132 33 132H41C43.2091 132 45 133.791 45 136V144C45 146.209 43.2091 148 41 148H33C30.7909 148 29 146.209 29 144V136Z" fill="white"/>
<path d="M33 133H41V131H33V133ZM44 136V144H46V136H44ZM41 147H33V149H41V147ZM30 144V136H28V144H30ZM33 147C31.3431 147 30 145.657 30 144H28C28 146.761 30.2386 149 33 149V147ZM44 144C44 145.657 42.6569 147 41 147V149C43.7614 149 46 146.761 46 144H44ZM41 133C42.6569 133 44 134.343 44 136H46C46 133.239 43.7614 131 41 131V133ZM33 131C30.2386 131 28 133.239 28 136H30C30 134.343 31.3431 133 33 133V131Z" fill="#D1D5DB"/>
<path d="M66.5753 138.129H65.0241C64.9645 137.798 64.8535 137.506 64.6911 137.254C64.5286 137.002 64.3298 136.789 64.0945 136.613C63.8591 136.437 63.5956 136.305 63.304 136.215C63.0156 136.126 62.709 136.081 62.3842 136.081C61.7976 136.081 61.2723 136.228 60.8082 136.523C60.3475 136.818 59.983 137.251 59.7145 137.821C59.4493 138.391 59.3168 139.087 59.3168 139.909C59.3168 140.738 59.4493 141.437 59.7145 142.007C59.983 142.577 60.3492 143.008 60.8132 143.3C61.2772 143.591 61.7992 143.737 62.3793 143.737C62.7008 143.737 63.0057 143.694 63.294 143.608C63.5857 143.518 63.8492 143.388 64.0845 143.215C64.3198 143.043 64.5187 142.832 64.6811 142.584C64.8468 142.332 64.9612 142.044 65.0241 141.719L66.5753 141.724C66.4924 142.224 66.3317 142.685 66.093 143.106C65.8577 143.523 65.5545 143.885 65.1832 144.19C64.8153 144.491 64.3944 144.725 63.9205 144.891C63.4465 145.056 62.9295 145.139 62.3693 145.139C61.4877 145.139 60.7022 144.93 60.0128 144.513C59.3234 144.092 58.7798 143.49 58.3821 142.708C57.9877 141.926 57.7905 140.993 57.7905 139.909C57.7905 138.822 57.9893 137.889 58.3871 137.11C58.7848 136.328 59.3284 135.728 60.0178 135.31C60.7071 134.889 61.491 134.679 62.3693 134.679C62.9096 134.679 63.4134 134.757 63.8807 134.913C64.3513 135.065 64.7739 135.29 65.1484 135.589C65.523 135.884 65.8329 136.245 66.0781 136.673C66.3234 137.097 66.4891 137.582 66.5753 138.129ZM71.5108 145.154C70.7949 145.154 70.1702 144.99 69.6365 144.662C69.1029 144.334 68.6886 143.875 68.3936 143.285C68.0987 142.695 67.9512 142.005 67.9512 141.217C67.9512 140.424 68.0987 139.732 68.3936 139.138C68.6886 138.545 69.1029 138.085 69.6365 137.756C70.1702 137.428 70.7949 137.264 71.5108 137.264C72.2267 137.264 72.8515 137.428 73.3851 137.756C73.9187 138.085 74.333 138.545 74.628 139.138C74.923 139.732 75.0705 140.424 75.0705 141.217C75.0705 142.005 74.923 142.695 74.628 143.285C74.333 143.875 73.9187 144.334 73.3851 144.662C72.8515 144.99 72.2267 145.154 71.5108 145.154ZM71.5158 143.906C71.9798 143.906 72.3643 143.784 72.6692 143.538C72.9741 143.293 73.1995 142.967 73.3453 142.559C73.4945 142.151 73.5691 141.702 73.5691 141.212C73.5691 140.724 73.4945 140.277 73.3453 139.869C73.1995 139.458 72.9741 139.129 72.6692 138.88C72.3643 138.631 71.9798 138.507 71.5158 138.507C71.0485 138.507 70.6607 138.631 70.3525 138.88C70.0475 139.129 69.8205 139.458 69.6713 139.869C69.5255 140.277 69.4526 140.724 69.4526 141.212C69.4526 141.702 69.5255 142.151 69.6713 142.559C69.8205 142.967 70.0475 143.293 70.3525 143.538C70.6607 143.784 71.0485 143.906 71.5158 143.906ZM76.7298 145V137.364H78.1566V138.607H78.2511C78.4102 138.186 78.6703 137.857 79.0316 137.622C79.3929 137.384 79.8254 137.264 80.3292 137.264C80.8396 137.264 81.2672 137.384 81.6119 137.622C81.9599 137.861 82.2167 138.189 82.3825 138.607H82.462C82.6443 138.199 82.9343 137.874 83.332 137.632C83.7298 137.387 84.2037 137.264 84.7539 137.264C85.4466 137.264 86.0117 137.481 86.4492 137.915C86.89 138.35 87.1104 139.004 87.1104 139.879V145H85.6239V140.018C85.6239 139.501 85.4831 139.127 85.2013 138.895C84.9196 138.663 84.5832 138.547 84.1921 138.547C83.7082 138.547 83.332 138.696 83.0636 138.994C82.7951 139.289 82.6609 139.669 82.6609 140.133V145H81.1793V139.924C81.1793 139.51 81.0501 139.177 80.7915 138.925C80.533 138.673 80.1966 138.547 79.7823 138.547C79.5006 138.547 79.2404 138.621 79.0018 138.771C78.7665 138.916 78.5759 139.12 78.43 139.382C78.2875 139.644 78.2163 139.947 78.2163 140.292V145H76.7298ZM89.1028 145V137.364H90.5297V138.607H90.6241C90.7832 138.186 91.0434 137.857 91.4047 137.622C91.7659 137.384 92.1984 137.264 92.7022 137.264C93.2127 137.264 93.6402 137.384 93.9849 137.622C94.3329 137.861 94.5898 138.189 94.7555 138.607H94.835C95.0173 138.199 95.3074 137.874 95.7051 137.632C96.1028 137.387 96.5768 137.264 97.127 137.264C97.8197 137.264 98.3848 137.481 98.8223 137.915C99.2631 138.35 99.4835 139.004 99.4835 139.879V145H97.997V140.018C97.997 139.501 97.8561 139.127 97.5744 138.895C97.2927 138.663 96.9563 138.547 96.5652 138.547C96.0813 138.547 95.7051 138.696 95.4366 138.994C95.1681 139.289 95.0339 139.669 95.0339 140.133V145H93.5524V139.924C93.5524 139.51 93.4231 139.177 93.1646 138.925C92.9061 138.673 92.5697 138.547 92.1554 138.547C91.8736 138.547 91.6135 138.621 91.3748 138.771C91.1395 138.916 90.9489 139.12 90.8031 139.382C90.6606 139.644 90.5893 139.947 90.5893 140.292V145H89.1028ZM104.767 145.154C104.015 145.154 103.367 144.993 102.823 144.672C102.283 144.347 101.865 143.891 101.57 143.305C101.279 142.715 101.133 142.024 101.133 141.232C101.133 140.449 101.279 139.76 101.57 139.163C101.865 138.567 102.276 138.101 102.803 137.766C103.334 137.432 103.953 137.264 104.663 137.264C105.094 137.264 105.511 137.335 105.915 137.478C106.32 137.621 106.683 137.844 107.004 138.149C107.326 138.454 107.579 138.85 107.765 139.337C107.951 139.821 108.043 140.41 108.043 141.102V141.629H101.973V140.516H106.587C106.587 140.125 106.507 139.778 106.348 139.477C106.189 139.172 105.965 138.931 105.677 138.756C105.392 138.58 105.057 138.492 104.673 138.492C104.255 138.492 103.89 138.595 103.579 138.8C103.271 139.003 103.032 139.268 102.863 139.596C102.697 139.921 102.614 140.274 102.614 140.655V141.525C102.614 142.035 102.704 142.469 102.883 142.827C103.065 143.185 103.319 143.459 103.643 143.648C103.968 143.833 104.348 143.926 104.782 143.926C105.064 143.926 105.321 143.886 105.553 143.807C105.785 143.724 105.985 143.601 106.154 143.439C106.323 143.277 106.452 143.076 106.542 142.837L107.949 143.091C107.836 143.505 107.634 143.868 107.342 144.18C107.054 144.488 106.691 144.728 106.254 144.901C105.819 145.07 105.324 145.154 104.767 145.154ZM111.179 140.466V145H109.693V137.364H111.119V138.607H111.214C111.39 138.202 111.665 137.877 112.039 137.632C112.417 137.387 112.893 137.264 113.466 137.264C113.986 137.264 114.442 137.374 114.833 137.592C115.224 137.808 115.528 138.129 115.743 138.557C115.959 138.984 116.066 139.513 116.066 140.143V145H114.58V140.322C114.58 139.768 114.436 139.336 114.147 139.024C113.859 138.709 113.463 138.552 112.959 138.552C112.614 138.552 112.308 138.626 112.039 138.776C111.774 138.925 111.564 139.143 111.408 139.432C111.255 139.717 111.179 140.062 111.179 140.466ZM121.624 137.364V138.557H117.453V137.364H121.624ZM118.572 135.534H120.058V142.758C120.058 143.046 120.102 143.263 120.188 143.409C120.274 143.552 120.385 143.649 120.521 143.702C120.66 143.752 120.811 143.777 120.973 143.777C121.093 143.777 121.197 143.769 121.286 143.752C121.376 143.736 121.445 143.722 121.495 143.712L121.764 144.94C121.677 144.973 121.555 145.007 121.396 145.04C121.237 145.076 121.038 145.096 120.799 145.099C120.408 145.106 120.044 145.036 119.705 144.891C119.367 144.745 119.094 144.519 118.885 144.214C118.676 143.91 118.572 143.527 118.572 143.066V135.534ZM128.868 139.228L127.521 139.467C127.464 139.294 127.375 139.13 127.252 138.974C127.133 138.819 126.971 138.691 126.765 138.592C126.56 138.492 126.303 138.442 125.994 138.442C125.574 138.442 125.222 138.537 124.941 138.726C124.659 138.911 124.518 139.152 124.518 139.447C124.518 139.702 124.612 139.907 124.801 140.063C124.99 140.219 125.295 140.347 125.716 140.446L126.929 140.724C127.632 140.887 128.155 141.137 128.5 141.475C128.845 141.813 129.017 142.252 129.017 142.793C129.017 143.25 128.885 143.658 128.619 144.016C128.358 144.37 127.991 144.649 127.521 144.851C127.053 145.053 126.512 145.154 125.895 145.154C125.04 145.154 124.342 144.972 123.802 144.607C123.262 144.239 122.93 143.717 122.808 143.041L124.244 142.822C124.334 143.197 124.518 143.48 124.796 143.673C125.075 143.862 125.438 143.956 125.885 143.956C126.372 143.956 126.762 143.855 127.053 143.653C127.345 143.447 127.491 143.197 127.491 142.902C127.491 142.663 127.401 142.463 127.222 142.3C127.047 142.138 126.777 142.015 126.412 141.933L125.119 141.649C124.407 141.487 123.88 141.228 123.539 140.874C123.2 140.519 123.031 140.07 123.031 139.526C123.031 139.076 123.157 138.681 123.409 138.343C123.661 138.005 124.009 137.741 124.453 137.553C124.897 137.36 125.406 137.264 125.98 137.264C126.805 137.264 127.454 137.443 127.928 137.801C128.402 138.156 128.716 138.631 128.868 139.228Z" fill="#374151"/>
<path d="M65.1932 158C65.0838 157.665 64.9396 157.365 64.7607 157.1C64.585 156.832 64.3745 156.603 64.1293 156.414C63.8873 156.225 63.6122 156.081 63.304 155.982C62.9957 155.882 62.6577 155.832 62.2898 155.832C61.6866 155.832 61.138 155.988 60.6442 156.3C60.1503 156.611 59.7576 157.07 59.4659 157.677C59.1742 158.283 59.0284 159.027 59.0284 159.909C59.0284 160.791 59.1759 161.535 59.4709 162.141C59.7659 162.748 60.1652 163.207 60.669 163.518C61.1728 163.83 61.7396 163.986 62.3693 163.986C62.9527 163.986 63.4664 163.862 63.9105 163.613C64.358 163.361 64.706 163.006 64.9545 162.549C65.2064 162.088 65.3324 161.546 65.3324 160.923L65.7102 161.003H62.6477V159.909H66.5256V161.003C66.5256 161.841 66.3466 162.571 65.9886 163.19C65.634 163.81 65.1435 164.291 64.517 164.632C63.8939 164.97 63.178 165.139 62.3693 165.139C61.4678 165.139 60.6757 164.927 59.9929 164.503C59.3134 164.079 58.7831 163.475 58.402 162.693C58.0241 161.911 57.8352 160.983 57.8352 159.909C57.8352 159.104 57.9429 158.379 58.1584 157.737C58.3771 157.09 58.6854 156.54 59.0831 156.086C59.4808 155.632 59.9515 155.284 60.495 155.042C61.0386 154.8 61.6368 154.679 62.2898 154.679C62.8267 154.679 63.3272 154.76 63.7912 154.923C64.2585 155.082 64.6745 155.309 65.0391 155.604C65.407 155.895 65.7135 156.245 65.9588 156.653C66.2041 157.057 66.3731 157.506 66.4659 158H65.1932ZM71.6799 165.159C70.9441 165.159 70.3094 164.997 69.7757 164.672C69.2454 164.344 68.8361 163.886 68.5478 163.3C68.2627 162.71 68.1202 162.024 68.1202 161.241C68.1202 160.459 68.2627 159.77 68.5478 159.173C68.8361 158.573 69.2372 158.106 69.7509 157.771C70.2679 157.433 70.8712 157.264 71.5605 157.264C71.9583 157.264 72.351 157.33 72.7388 157.463C73.1266 157.596 73.4796 157.811 73.7978 158.109C74.1159 158.404 74.3695 158.795 74.5584 159.283C74.7473 159.77 74.8418 160.37 74.8418 161.082V161.58H68.9554V160.565H73.6486C73.6486 160.134 73.5624 159.75 73.3901 159.412C73.2211 159.074 72.9791 158.807 72.6642 158.612C72.3527 158.416 71.9848 158.318 71.5605 158.318C71.0932 158.318 70.6889 158.434 70.3475 158.666C70.0094 158.895 69.7492 159.193 69.5669 159.561C69.3846 159.929 69.2935 160.323 69.2935 160.744V161.42C69.2935 161.997 69.3929 162.486 69.5918 162.887C69.794 163.285 70.074 163.588 70.432 163.797C70.79 164.002 71.2059 164.105 71.6799 164.105C71.9881 164.105 72.2665 164.062 72.5151 163.976C72.767 163.886 72.9841 163.754 73.1664 163.578C73.3487 163.399 73.4895 163.177 73.589 162.912L74.7225 163.23C74.6032 163.615 74.4026 163.953 74.1209 164.244C73.8392 164.533 73.4912 164.758 73.0769 164.92C72.6626 165.08 72.1969 165.159 71.6799 165.159ZM79.9476 157.364V158.358H75.9902V157.364H79.9476ZM77.1436 155.534H78.3169V162.812C78.3169 163.144 78.365 163.393 78.4611 163.558C78.5605 163.721 78.6865 163.83 78.839 163.886C78.9947 163.939 79.1588 163.966 79.3311 163.966C79.4604 163.966 79.5665 163.959 79.6493 163.946C79.7322 163.929 79.7985 163.916 79.8482 163.906L80.0868 164.96C80.0073 164.99 79.8962 165.02 79.7537 165.05C79.6112 165.083 79.4306 165.099 79.2118 165.099C78.8804 165.099 78.5556 165.028 78.2374 164.886C77.9225 164.743 77.6607 164.526 77.4519 164.234C77.2464 163.943 77.1436 163.575 77.1436 163.131V155.534ZM86.8233 160.406V165H85.65V157.364H86.7836V158.557H86.883C87.062 158.169 87.3337 157.857 87.6983 157.622C88.0629 157.384 88.5336 157.264 89.1103 157.264C89.6273 157.264 90.0797 157.37 90.4675 157.582C90.8553 157.791 91.1569 158.109 91.3723 158.537C91.5878 158.961 91.6955 159.498 91.6955 160.148V165H90.5222V160.227C90.5222 159.627 90.3664 159.16 90.0549 158.825C89.7433 158.487 89.3158 158.318 88.7722 158.318C88.3977 158.318 88.0629 158.399 87.7679 158.562C87.4763 158.724 87.2459 158.961 87.0769 159.273C86.9078 159.584 86.8233 159.962 86.8233 160.406ZM96.9418 165.159C96.2524 165.159 95.6475 164.995 95.1271 164.667C94.6101 164.339 94.2057 163.88 93.9141 163.29C93.6257 162.7 93.4815 162.01 93.4815 161.222C93.4815 160.426 93.6257 159.732 93.9141 159.138C94.2057 158.545 94.6101 158.085 95.1271 157.756C95.6475 157.428 96.2524 157.264 96.9418 157.264C97.6312 157.264 98.2344 157.428 98.7514 157.756C99.2718 158.085 99.6761 158.545 99.9645 159.138C100.256 159.732 100.402 160.426 100.402 161.222C100.402 162.01 100.256 162.7 99.9645 163.29C99.6761 163.88 99.2718 164.339 98.7514 164.667C98.2344 164.995 97.6312 165.159 96.9418 165.159ZM96.9418 164.105C97.4654 164.105 97.8963 163.971 98.2344 163.702C98.5724 163.434 98.8227 163.081 98.9851 162.643C99.1475 162.206 99.2287 161.732 99.2287 161.222C99.2287 160.711 99.1475 160.236 98.9851 159.795C98.8227 159.354 98.5724 158.998 98.2344 158.726C97.8963 158.454 97.4654 158.318 96.9418 158.318C96.4181 158.318 95.9872 158.454 95.6491 158.726C95.3111 158.998 95.0608 159.354 94.8984 159.795C94.736 160.236 94.6548 160.711 94.6548 161.222C94.6548 161.732 94.736 162.206 94.8984 162.643C95.0608 163.081 95.3111 163.434 95.6491 163.702C95.9872 163.971 96.4181 164.105 96.9418 164.105ZM105.514 157.364V158.358H101.557V157.364H105.514ZM102.71 155.534H103.883V162.812C103.883 163.144 103.931 163.393 104.028 163.558C104.127 163.721 104.253 163.83 104.405 163.886C104.561 163.939 104.725 163.966 104.898 163.966C105.027 163.966 105.133 163.959 105.216 163.946C105.299 163.929 105.365 163.916 105.415 163.906L105.653 164.96C105.574 164.99 105.463 165.02 105.32 165.05C105.178 165.083 104.997 165.099 104.778 165.099C104.447 165.099 104.122 165.028 103.804 164.886C103.489 164.743 103.227 164.526 103.018 164.234C102.813 163.943 102.71 163.575 102.71 163.131V155.534ZM107.279 165V157.364H108.452V165H107.279ZM107.876 156.091C107.647 156.091 107.45 156.013 107.284 155.857C107.122 155.701 107.04 155.514 107.04 155.295C107.04 155.077 107.122 154.889 107.284 154.734C107.45 154.578 107.647 154.5 107.876 154.5C108.104 154.5 108.3 154.578 108.462 154.734C108.628 154.889 108.711 155.077 108.711 155.295C108.711 155.514 108.628 155.701 108.462 155.857C108.3 156.013 108.104 156.091 107.876 156.091ZM114.002 157.364V158.358H109.885V157.364H114.002ZM111.118 165V156.31C111.118 155.872 111.221 155.508 111.426 155.216C111.632 154.924 111.899 154.705 112.227 154.56C112.555 154.414 112.901 154.341 113.266 154.341C113.554 154.341 113.79 154.364 113.972 154.411C114.154 154.457 114.29 154.5 114.38 154.54L114.042 155.554C113.982 155.534 113.899 155.509 113.793 155.479C113.69 155.45 113.554 155.435 113.385 155.435C112.998 155.435 112.717 155.532 112.545 155.728C112.376 155.924 112.292 156.21 112.292 156.588V165H111.118ZM115.646 165V157.364H116.819V165H115.646ZM116.243 156.091C116.014 156.091 115.817 156.013 115.651 155.857C115.489 155.701 115.407 155.514 115.407 155.295C115.407 155.077 115.489 154.889 115.651 154.734C115.817 154.578 116.014 154.5 116.243 154.5C116.471 154.5 116.667 154.578 116.829 154.734C116.995 154.889 117.078 155.077 117.078 155.295C117.078 155.514 116.995 155.701 116.829 155.857C116.667 156.013 116.471 156.091 116.243 156.091ZM122.17 165.159C121.434 165.159 120.8 164.997 120.266 164.672C119.736 164.344 119.326 163.886 119.038 163.3C118.753 162.71 118.61 162.024 118.61 161.241C118.61 160.459 118.753 159.77 119.038 159.173C119.326 158.573 119.727 158.106 120.241 157.771C120.758 157.433 121.361 157.264 122.051 157.264C122.449 157.264 122.841 157.33 123.229 157.463C123.617 157.596 123.97 157.811 124.288 158.109C124.606 158.404 124.86 158.795 125.049 159.283C125.238 159.77 125.332 160.37 125.332 161.082V161.58H119.446V160.565H124.139C124.139 160.134 124.053 159.75 123.88 159.412C123.711 159.074 123.469 158.807 123.154 158.612C122.843 158.416 122.475 158.318 122.051 158.318C121.583 158.318 121.179 158.434 120.838 158.666C120.5 158.895 120.239 159.193 120.057 159.561C119.875 159.929 119.784 160.323 119.784 160.744V161.42C119.784 161.997 119.883 162.486 120.082 162.887C120.284 163.285 120.564 163.588 120.922 163.797C121.28 164.002 121.696 164.105 122.17 164.105C122.478 164.105 122.757 164.062 123.005 163.976C123.257 163.886 123.474 163.754 123.657 163.578C123.839 163.399 123.98 163.177 124.079 162.912L125.213 163.23C125.093 163.615 124.893 163.953 124.611 164.244C124.329 164.533 123.981 164.758 123.567 164.92C123.153 165.08 122.687 165.159 122.17 165.159ZM130 165.159C129.364 165.159 128.802 164.998 128.315 164.677C127.828 164.352 127.447 163.895 127.172 163.305C126.896 162.711 126.759 162.01 126.759 161.202C126.759 160.4 126.896 159.704 127.172 159.114C127.447 158.524 127.829 158.068 128.32 157.746C128.81 157.425 129.377 157.264 130.02 157.264C130.517 157.264 130.91 157.347 131.199 157.513C131.49 157.675 131.712 157.861 131.865 158.07C132.02 158.275 132.141 158.444 132.228 158.577H132.327V154.818H133.5V165H132.367V163.827H132.228C132.141 163.966 132.019 164.142 131.86 164.354C131.701 164.562 131.474 164.75 131.179 164.915C130.884 165.078 130.491 165.159 130 165.159ZM130.159 164.105C130.63 164.105 131.028 163.982 131.353 163.737C131.677 163.489 131.924 163.146 132.093 162.708C132.262 162.267 132.347 161.759 132.347 161.182C132.347 160.612 132.264 160.113 132.098 159.685C131.933 159.254 131.687 158.92 131.363 158.681C131.038 158.439 130.637 158.318 130.159 158.318C129.662 158.318 129.248 158.446 128.917 158.701C128.588 158.953 128.342 159.296 128.176 159.73C128.013 160.161 127.932 160.645 127.932 161.182C127.932 161.725 128.015 162.219 128.181 162.663C128.35 163.104 128.598 163.455 128.926 163.717C129.258 163.976 129.669 164.105 130.159 164.105ZM141.48 165L139.153 157.364H140.386L142.037 163.21H142.116L143.747 157.364H145L146.61 163.19H146.69L148.341 157.364H149.574L147.247 165H146.093L144.423 159.134H144.304L142.633 165H141.48ZM152.298 160.406V165H151.125V154.818H152.298V158.557H152.397C152.576 158.162 152.845 157.849 153.203 157.617C153.564 157.382 154.045 157.264 154.645 157.264C155.165 157.264 155.621 157.369 156.012 157.577C156.403 157.783 156.706 158.099 156.922 158.527C157.14 158.951 157.25 159.491 157.25 160.148V165H156.076V160.227C156.076 159.621 155.919 159.152 155.604 158.82C155.292 158.486 154.86 158.318 154.306 158.318C153.922 158.318 153.577 158.399 153.272 158.562C152.971 158.724 152.732 158.961 152.556 159.273C152.384 159.584 152.298 159.962 152.298 160.406ZM162.598 165.159C161.862 165.159 161.227 164.997 160.694 164.672C160.163 164.344 159.754 163.886 159.466 163.3C159.181 162.71 159.038 162.024 159.038 161.241C159.038 160.459 159.181 159.77 159.466 159.173C159.754 158.573 160.155 158.106 160.669 157.771C161.186 157.433 161.789 157.264 162.479 157.264C162.876 157.264 163.269 157.33 163.657 157.463C164.045 157.596 164.398 157.811 164.716 158.109C165.034 158.404 165.287 158.795 165.476 159.283C165.665 159.77 165.76 160.37 165.76 161.082V161.58H159.873V160.565H164.567C164.567 160.134 164.48 159.75 164.308 159.412C164.139 159.074 163.897 158.807 163.582 158.612C163.271 158.416 162.903 158.318 162.479 158.318C162.011 158.318 161.607 158.434 161.265 158.666C160.927 158.895 160.667 159.193 160.485 159.561C160.303 159.929 160.211 160.323 160.211 160.744V161.42C160.211 161.997 160.311 162.486 160.51 162.887C160.712 163.285 160.992 163.588 161.35 163.797C161.708 164.002 162.124 164.105 162.598 164.105C162.906 164.105 163.184 164.062 163.433 163.976C163.685 163.886 163.902 163.754 164.084 163.578C164.267 163.399 164.407 163.177 164.507 162.912L165.64 163.23C165.521 163.615 165.321 163.953 165.039 164.244C164.757 164.533 164.409 164.758 163.995 164.92C163.581 165.08 163.115 165.159 162.598 165.159ZM168.718 160.406V165H167.545V157.364H168.678V158.557H168.778C168.956 158.169 169.228 157.857 169.593 157.622C169.957 157.384 170.428 157.264 171.005 157.264C171.522 157.264 171.974 157.37 172.362 157.582C172.75 157.791 173.051 158.109 173.267 158.537C173.482 158.961 173.59 159.498 173.59 160.148V165H172.417V160.227C172.417 159.627 172.261 159.16 171.949 158.825C171.638 158.487 171.21 158.318 170.667 158.318C170.292 158.318 169.957 158.399 169.662 158.562C169.371 158.724 169.14 158.961 168.971 159.273C168.802 159.584 168.718 159.962 168.718 160.406ZM185.081 159.074L184.027 159.372C183.96 159.196 183.863 159.026 183.733 158.86C183.607 158.691 183.435 158.552 183.216 158.442C182.998 158.333 182.717 158.278 182.376 158.278C181.909 158.278 181.519 158.386 181.208 158.602C180.9 158.814 180.745 159.084 180.745 159.412C180.745 159.704 180.851 159.934 181.064 160.103C181.276 160.272 181.607 160.413 182.058 160.526L183.191 160.804C183.874 160.97 184.383 161.223 184.718 161.565C185.052 161.903 185.22 162.339 185.22 162.872C185.22 163.31 185.094 163.701 184.842 164.045C184.593 164.39 184.245 164.662 183.798 164.861C183.35 165.06 182.83 165.159 182.237 165.159C181.458 165.159 180.813 164.99 180.303 164.652C179.792 164.314 179.469 163.82 179.333 163.17L180.447 162.892C180.553 163.303 180.754 163.611 181.049 163.817C181.347 164.022 181.736 164.125 182.217 164.125C182.764 164.125 183.198 164.009 183.52 163.777C183.844 163.542 184.007 163.26 184.007 162.932C184.007 162.667 183.914 162.445 183.728 162.266C183.543 162.083 183.258 161.947 182.873 161.858L181.6 161.56C180.901 161.394 180.387 161.137 180.059 160.789C179.734 160.438 179.572 159.999 179.572 159.472C179.572 159.041 179.693 158.66 179.935 158.328C180.18 157.997 180.513 157.737 180.934 157.548C181.359 157.359 181.839 157.264 182.376 157.264C183.132 157.264 183.725 157.43 184.156 157.761C184.59 158.093 184.898 158.53 185.081 159.074ZM190.088 165.159C189.399 165.159 188.794 164.995 188.274 164.667C187.757 164.339 187.352 163.88 187.061 163.29C186.772 162.7 186.628 162.01 186.628 161.222C186.628 160.426 186.772 159.732 187.061 159.138C187.352 158.545 187.757 158.085 188.274 157.756C188.794 157.428 189.399 157.264 190.088 157.264C190.778 157.264 191.381 157.428 191.898 157.756C192.418 158.085 192.823 158.545 193.111 159.138C193.403 159.732 193.548 160.426 193.548 161.222C193.548 162.01 193.403 162.7 193.111 163.29C192.823 163.88 192.418 164.339 191.898 164.667C191.381 164.995 190.778 165.159 190.088 165.159ZM190.088 164.105C190.612 164.105 191.043 163.971 191.381 163.702C191.719 163.434 191.969 163.081 192.132 162.643C192.294 162.206 192.375 161.732 192.375 161.222C192.375 160.711 192.294 160.236 192.132 159.795C191.969 159.354 191.719 158.998 191.381 158.726C191.043 158.454 190.612 158.318 190.088 158.318C189.565 158.318 189.134 158.454 188.796 158.726C188.458 158.998 188.207 159.354 188.045 159.795C187.883 160.236 187.801 160.711 187.801 161.222C187.801 161.732 187.883 162.206 188.045 162.643C188.207 163.081 188.458 163.434 188.796 163.702C189.134 163.971 189.565 164.105 190.088 164.105ZM195.339 165V157.364H196.473V158.557H196.572C196.732 158.149 196.988 157.833 197.343 157.607C197.698 157.379 198.124 157.264 198.621 157.264C199.125 157.264 199.544 157.379 199.879 157.607C200.217 157.833 200.48 158.149 200.669 158.557H200.749C200.944 158.162 201.237 157.849 201.629 157.617C202.02 157.382 202.489 157.264 203.036 157.264C203.718 157.264 204.277 157.478 204.711 157.906C205.145 158.33 205.362 158.991 205.362 159.889V165H204.189V159.889C204.189 159.326 204.035 158.923 203.727 158.681C203.418 158.439 203.055 158.318 202.638 158.318C202.101 158.318 201.685 158.481 201.39 158.805C201.095 159.127 200.947 159.535 200.947 160.028V165H199.754V159.77C199.754 159.336 199.613 158.986 199.332 158.721C199.05 158.452 198.687 158.318 198.243 158.318C197.938 158.318 197.653 158.399 197.388 158.562C197.126 158.724 196.914 158.95 196.751 159.238C196.592 159.523 196.513 159.853 196.513 160.227V165H195.339ZM210.709 165.159C209.973 165.159 209.339 164.997 208.805 164.672C208.275 164.344 207.865 163.886 207.577 163.3C207.292 162.71 207.15 162.024 207.15 161.241C207.15 160.459 207.292 159.77 207.577 159.173C207.865 158.573 208.266 158.106 208.78 157.771C209.297 157.433 209.9 157.264 210.59 157.264C210.988 157.264 211.38 157.33 211.768 157.463C212.156 157.596 212.509 157.811 212.827 158.109C213.145 158.404 213.399 158.795 213.588 159.283C213.777 159.77 213.871 160.37 213.871 161.082V161.58H207.985V160.565H212.678C212.678 160.134 212.592 159.75 212.419 159.412C212.25 159.074 212.008 158.807 211.694 158.612C211.382 158.416 211.014 158.318 210.59 158.318C210.123 158.318 209.718 158.434 209.377 158.666C209.039 158.895 208.779 159.193 208.596 159.561C208.414 159.929 208.323 160.323 208.323 160.744V161.42C208.323 161.997 208.422 162.486 208.621 162.887C208.823 163.285 209.103 163.588 209.461 163.797C209.819 164.002 210.235 164.105 210.709 164.105C211.017 164.105 211.296 164.062 211.544 163.976C211.796 163.886 212.013 163.754 212.196 163.578C212.378 163.399 212.519 163.177 212.618 162.912L213.752 163.23C213.632 163.615 213.432 163.953 213.15 164.244C212.868 164.533 212.52 164.758 212.106 164.92C211.692 165.08 211.226 165.159 210.709 165.159ZM218.758 165.159C218.069 165.159 217.464 164.995 216.944 164.667C216.426 164.339 216.022 163.88 215.73 163.29C215.442 162.7 215.298 162.01 215.298 161.222C215.298 160.426 215.442 159.732 215.73 159.138C216.022 158.545 216.426 158.085 216.944 157.756C217.464 157.428 218.069 157.264 218.758 157.264C219.448 157.264 220.051 157.428 220.568 157.756C221.088 158.085 221.493 158.545 221.781 159.138C222.073 159.732 222.218 160.426 222.218 161.222C222.218 162.01 222.073 162.7 221.781 163.29C221.493 163.88 221.088 164.339 220.568 164.667C220.051 164.995 219.448 165.159 218.758 165.159ZM218.758 164.105C219.282 164.105 219.713 163.971 220.051 163.702C220.389 163.434 220.639 163.081 220.801 162.643C220.964 162.206 221.045 161.732 221.045 161.222C221.045 160.711 220.964 160.236 220.801 159.795C220.639 159.354 220.389 158.998 220.051 158.726C219.713 158.454 219.282 158.318 218.758 158.318C218.234 158.318 217.804 158.454 217.466 158.726C217.127 158.998 216.877 159.354 216.715 159.795C216.552 160.236 216.471 160.711 216.471 161.222C216.471 161.732 216.552 162.206 216.715 162.643C216.877 163.081 217.127 163.434 217.466 163.702C217.804 163.971 218.234 164.105 218.758 164.105ZM225.183 160.406V165H224.009V157.364H225.143V158.557H225.242C225.421 158.169 225.693 157.857 226.058 157.622C226.422 157.384 226.893 157.264 227.47 157.264C227.987 157.264 228.439 157.37 228.827 157.582C229.215 157.791 229.516 158.109 229.732 158.537C229.947 158.961 230.055 159.498 230.055 160.148V165H228.882V160.227C228.882 159.627 228.726 159.16 228.414 158.825C228.103 158.487 227.675 158.318 227.132 158.318C226.757 158.318 226.422 158.399 226.127 158.562C225.836 158.724 225.605 158.961 225.436 159.273C225.267 159.584 225.183 159.962 225.183 160.406ZM235.401 165.159C234.665 165.159 234.03 164.997 233.496 164.672C232.966 164.344 232.557 163.886 232.268 163.3C231.983 162.71 231.841 162.024 231.841 161.241C231.841 160.459 231.983 159.77 232.268 159.173C232.557 158.573 232.958 158.106 233.472 157.771C233.989 157.433 234.592 157.264 235.281 157.264C235.679 157.264 236.072 157.33 236.46 157.463C236.847 157.596 237.2 157.811 237.518 158.109C237.837 158.404 238.09 158.795 238.279 159.283C238.468 159.77 238.562 160.37 238.562 161.082V161.58H232.676V160.565H237.369C237.369 160.134 237.283 159.75 237.111 159.412C236.942 159.074 236.7 158.807 236.385 158.612C236.073 158.416 235.705 158.318 235.281 158.318C234.814 158.318 234.41 158.434 234.068 158.666C233.73 158.895 233.47 159.193 233.288 159.561C233.105 159.929 233.014 160.323 233.014 160.744V161.42C233.014 161.997 233.114 162.486 233.312 162.887C233.515 163.285 233.795 163.588 234.153 163.797C234.511 164.002 234.927 164.105 235.401 164.105C235.709 164.105 235.987 164.062 236.236 163.976C236.488 163.886 236.705 163.754 236.887 163.578C237.069 163.399 237.21 163.177 237.31 162.912L238.443 163.23C238.324 163.615 238.123 163.953 237.842 164.244C237.56 164.533 237.212 164.758 236.798 164.92C236.383 165.08 235.918 165.159 235.401 165.159ZM245.756 159.074L244.702 159.372C244.636 159.196 244.538 159.026 244.409 158.86C244.283 158.691 244.111 158.552 243.892 158.442C243.673 158.333 243.393 158.278 243.052 158.278C242.585 158.278 242.195 158.386 241.884 158.602C241.575 158.814 241.421 159.084 241.421 159.412C241.421 159.704 241.527 159.934 241.739 160.103C241.951 160.272 242.283 160.413 242.734 160.526L243.867 160.804C244.55 160.97 245.059 161.223 245.393 161.565C245.728 161.903 245.896 162.339 245.896 162.872C245.896 163.31 245.77 163.701 245.518 164.045C245.269 164.39 244.921 164.662 244.474 164.861C244.026 165.06 243.506 165.159 242.913 165.159C242.134 165.159 241.489 164.99 240.979 164.652C240.468 164.314 240.145 163.82 240.009 163.17L241.123 162.892C241.229 163.303 241.429 163.611 241.724 163.817C242.023 164.022 242.412 164.125 242.893 164.125C243.44 164.125 243.874 164.009 244.195 163.777C244.52 163.542 244.683 163.26 244.683 162.932C244.683 162.667 244.59 162.445 244.404 162.266C244.219 162.083 243.933 161.947 243.549 161.858L242.276 161.56C241.577 161.394 241.063 161.137 240.735 160.789C240.41 160.438 240.248 159.999 240.248 159.472C240.248 159.041 240.369 158.66 240.611 158.328C240.856 157.997 241.189 157.737 241.61 157.548C242.034 157.359 242.515 157.264 243.052 157.264C243.808 157.264 244.401 157.43 244.832 157.761C245.266 158.093 245.574 158.53 245.756 159.074ZM251.599 167.864V157.364H252.733V158.577H252.872C252.958 158.444 253.077 158.275 253.23 158.07C253.386 157.861 253.608 157.675 253.896 157.513C254.188 157.347 254.582 157.264 255.079 157.264C255.722 157.264 256.289 157.425 256.78 157.746C257.27 158.068 257.653 158.524 257.928 159.114C258.203 159.704 258.341 160.4 258.341 161.202C258.341 162.01 258.203 162.711 257.928 163.305C257.653 163.895 257.272 164.352 256.785 164.677C256.297 164.998 255.736 165.159 255.099 165.159C254.609 165.159 254.216 165.078 253.921 164.915C253.626 164.75 253.399 164.562 253.24 164.354C253.081 164.142 252.958 163.966 252.872 163.827H252.773V167.864H251.599ZM252.753 161.182C252.753 161.759 252.837 162.267 253.006 162.708C253.175 163.146 253.422 163.489 253.747 163.737C254.072 163.982 254.47 164.105 254.94 164.105C255.431 164.105 255.84 163.976 256.168 163.717C256.5 163.455 256.748 163.104 256.914 162.663C257.083 162.219 257.167 161.725 257.167 161.182C257.167 160.645 257.085 160.161 256.919 159.73C256.756 159.296 256.51 158.953 256.178 158.701C255.85 158.446 255.437 158.318 254.94 158.318C254.463 158.318 254.062 158.439 253.737 158.681C253.412 158.92 253.167 159.254 253.001 159.685C252.836 160.113 252.753 160.612 252.753 161.182ZM263.233 165.159C262.543 165.159 261.939 164.995 261.418 164.667C260.901 164.339 260.497 163.88 260.205 163.29C259.917 162.7 259.773 162.01 259.773 161.222C259.773 160.426 259.917 159.732 260.205 159.138C260.497 158.545 260.901 158.085 261.418 157.756C261.939 157.428 262.543 157.264 263.233 157.264C263.922 157.264 264.525 157.428 265.042 157.756C265.563 158.085 265.967 158.545 266.256 159.138C266.547 159.732 266.693 160.426 266.693 161.222C266.693 162.01 266.547 162.7 266.256 163.29C265.967 163.88 265.563 164.339 265.042 164.667C264.525 164.995 263.922 165.159 263.233 165.159ZM263.233 164.105C263.756 164.105 264.187 163.971 264.525 163.702C264.863 163.434 265.114 163.081 265.276 162.643C265.439 162.206 265.52 161.732 265.52 161.222C265.52 160.711 265.439 160.236 265.276 159.795C265.114 159.354 264.863 158.998 264.525 158.726C264.187 158.454 263.756 158.318 263.233 158.318C262.709 158.318 262.278 158.454 261.94 158.726C261.602 158.998 261.352 159.354 261.189 159.795C261.027 160.236 260.946 160.711 260.946 161.222C260.946 161.732 261.027 162.206 261.189 162.643C261.352 163.081 261.602 163.434 261.94 163.702C262.278 163.971 262.709 164.105 263.233 164.105ZM273.893 159.074L272.839 159.372C272.773 159.196 272.675 159.026 272.546 158.86C272.42 158.691 272.248 158.552 272.029 158.442C271.81 158.333 271.53 158.278 271.189 158.278C270.721 158.278 270.332 158.386 270.02 158.602C269.712 158.814 269.558 159.084 269.558 159.412C269.558 159.704 269.664 159.934 269.876 160.103C270.088 160.272 270.42 160.413 270.87 160.526L272.004 160.804C272.687 160.97 273.195 161.223 273.53 161.565C273.865 161.903 274.032 162.339 274.032 162.872C274.032 163.31 273.906 163.701 273.654 164.045C273.406 164.39 273.058 164.662 272.61 164.861C272.163 165.06 271.643 165.159 271.049 165.159C270.27 165.159 269.626 164.99 269.115 164.652C268.605 164.314 268.282 163.82 268.146 163.17L269.26 162.892C269.366 163.303 269.566 163.611 269.861 163.817C270.159 164.022 270.549 164.125 271.029 164.125C271.576 164.125 272.011 164.009 272.332 163.777C272.657 163.542 272.819 163.26 272.819 162.932C272.819 162.667 272.726 162.445 272.541 162.266C272.355 162.083 272.07 161.947 271.686 161.858L270.413 161.56C269.714 161.394 269.2 161.137 268.872 160.789C268.547 160.438 268.385 159.999 268.385 159.472C268.385 159.041 268.506 158.66 268.748 158.328C268.993 157.997 269.326 157.737 269.747 157.548C270.171 157.359 270.652 157.264 271.189 157.264C271.944 157.264 272.538 157.43 272.968 157.761C273.403 158.093 273.711 158.53 273.893 159.074ZM279.119 157.364V158.358H275.162V157.364H279.119ZM276.316 155.534H277.489V162.812C277.489 163.144 277.537 163.393 277.633 163.558C277.732 163.721 277.858 163.83 278.011 163.886C278.167 163.939 278.331 163.966 278.503 163.966C278.632 163.966 278.738 163.959 278.821 163.946C278.904 163.929 278.97 163.916 279.02 163.906L279.259 164.96C279.179 164.99 279.068 165.02 278.926 165.05C278.783 165.083 278.602 165.099 278.384 165.099C278.052 165.099 277.727 165.028 277.409 164.886C277.094 164.743 276.833 164.526 276.624 164.234C276.418 163.943 276.316 163.575 276.316 163.131V155.534ZM286.157 159.074L285.103 159.372C285.037 159.196 284.939 159.026 284.809 158.86C284.684 158.691 284.511 158.552 284.292 158.442C284.074 158.333 283.794 158.278 283.452 158.278C282.985 158.278 282.595 158.386 282.284 158.602C281.976 158.814 281.822 159.084 281.822 159.412C281.822 159.704 281.928 159.934 282.14 160.103C282.352 160.272 282.683 160.413 283.134 160.526L284.268 160.804C284.95 160.97 285.459 161.223 285.794 161.565C286.129 161.903 286.296 162.339 286.296 162.872C286.296 163.31 286.17 163.701 285.918 164.045C285.67 164.39 285.322 164.662 284.874 164.861C284.427 165.06 283.906 165.159 283.313 165.159C282.534 165.159 281.89 164.99 281.379 164.652C280.869 164.314 280.546 163.82 280.41 163.17L281.523 162.892C281.629 163.303 281.83 163.611 282.125 163.817C282.423 164.022 282.813 164.125 283.293 164.125C283.84 164.125 284.274 164.009 284.596 163.777C284.921 163.542 285.083 163.26 285.083 162.932C285.083 162.667 284.99 162.445 284.805 162.266C284.619 162.083 284.334 161.947 283.949 161.858L282.677 161.56C281.977 161.394 281.464 161.137 281.135 160.789C280.811 160.438 280.648 159.999 280.648 159.472C280.648 159.041 280.769 158.66 281.011 158.328C281.256 157.997 281.59 157.737 282.01 157.548C282.435 157.359 282.915 157.264 283.452 157.264C284.208 157.264 284.801 157.43 285.232 157.761C285.666 158.093 285.974 158.53 286.157 159.074ZM60.321 185.179C59.8371 185.179 59.398 185.088 59.0036 184.906C58.6091 184.72 58.2959 184.453 58.0639 184.105C57.8319 183.754 57.7159 183.33 57.7159 182.832C57.7159 182.395 57.8021 182.04 57.9744 181.768C58.1468 181.493 58.3771 181.278 58.6655 181.122C58.9538 180.966 59.272 180.85 59.62 180.774C59.9714 180.695 60.3243 180.632 60.679 180.585C61.143 180.526 61.5192 180.481 61.8075 180.451C62.0992 180.418 62.3113 180.363 62.4439 180.287C62.5798 180.211 62.6477 180.078 62.6477 179.889V179.849C62.6477 179.359 62.5135 178.978 62.245 178.706C61.9799 178.434 61.5772 178.298 61.0369 178.298C60.4768 178.298 60.0376 178.421 59.7195 178.666C59.4013 178.911 59.1776 179.173 59.0483 179.452L57.9347 179.054C58.1335 178.59 58.3987 178.229 58.7301 177.97C59.0649 177.708 59.4295 177.526 59.8239 177.423C60.2216 177.317 60.6127 177.264 60.9972 177.264C61.2424 177.264 61.5241 177.294 61.8423 177.354C62.1638 177.41 62.4737 177.528 62.772 177.707C63.0736 177.886 63.3239 178.156 63.5227 178.517C63.7216 178.878 63.821 179.362 63.821 179.969V185H62.6477V183.966H62.5881C62.5085 184.132 62.3759 184.309 62.1903 184.498C62.0047 184.687 61.7578 184.848 61.4496 184.98C61.1413 185.113 60.7652 185.179 60.321 185.179ZM60.5 184.125C60.964 184.125 61.3551 184.034 61.6733 183.852C61.9948 183.669 62.2367 183.434 62.3991 183.146C62.5649 182.857 62.6477 182.554 62.6477 182.236V181.162C62.598 181.222 62.4886 181.276 62.3196 181.326C62.1539 181.372 61.9616 181.414 61.7429 181.45C61.5275 181.483 61.317 181.513 61.1115 181.54C60.9093 181.563 60.7453 181.583 60.6193 181.599C60.3144 181.639 60.0294 181.704 59.7642 181.793C59.5024 181.879 59.2902 182.01 59.1278 182.186C58.9688 182.358 58.8892 182.594 58.8892 182.892C58.8892 183.3 59.04 183.608 59.3416 183.817C59.6465 184.022 60.0327 184.125 60.5 184.125ZM73.0023 185.159C72.2864 185.159 71.6699 184.99 71.1529 184.652C70.6358 184.314 70.2381 183.848 69.9597 183.255C69.6813 182.662 69.5421 181.984 69.5421 181.222C69.5421 180.446 69.6846 179.762 69.9696 179.168C70.258 178.572 70.659 178.106 71.1728 177.771C71.6898 177.433 72.293 177.264 72.9824 177.264C73.5194 177.264 74.0033 177.364 74.4341 177.562C74.865 177.761 75.218 178.04 75.4931 178.398C75.7682 178.756 75.9389 179.173 76.0051 179.651H74.8319C74.7424 179.303 74.5435 178.994 74.2353 178.726C73.9303 178.454 73.5194 178.318 73.0023 178.318C72.5449 178.318 72.1439 178.437 71.7992 178.676C71.4578 178.911 71.191 179.245 70.9988 179.675C70.8098 180.103 70.7154 180.605 70.7154 181.182C70.7154 181.772 70.8082 182.286 70.9938 182.723C71.1827 183.161 71.4479 183.5 71.7892 183.742C72.1339 183.984 72.5383 184.105 73.0023 184.105C73.3072 184.105 73.584 184.052 73.8326 183.946C74.0811 183.84 74.2916 183.688 74.464 183.489C74.6363 183.29 74.7589 183.051 74.8319 182.773H76.0051C75.9389 183.223 75.7748 183.629 75.513 183.991C75.2544 184.349 74.9114 184.634 74.4838 184.846C74.0596 185.055 73.5658 185.159 73.0023 185.159ZM80.8226 185.159C80.1332 185.159 79.5284 184.995 79.008 184.667C78.4909 184.339 78.0866 183.88 77.7949 183.29C77.5066 182.7 77.3624 182.01 77.3624 181.222C77.3624 180.426 77.5066 179.732 77.7949 179.138C78.0866 178.545 78.4909 178.085 79.008 177.756C79.5284 177.428 80.1332 177.264 80.8226 177.264C81.512 177.264 82.1152 177.428 82.6323 177.756C83.1526 178.085 83.557 178.545 83.8453 179.138C84.137 179.732 84.2828 180.426 84.2828 181.222C84.2828 182.01 84.137 182.7 83.8453 183.29C83.557 183.88 83.1526 184.339 82.6323 184.667C82.1152 184.995 81.512 185.159 80.8226 185.159ZM80.8226 184.105C81.3463 184.105 81.7772 183.971 82.1152 183.702C82.4533 183.434 82.7035 183.081 82.8659 182.643C83.0284 182.206 83.1096 181.732 83.1096 181.222C83.1096 180.711 83.0284 180.236 82.8659 179.795C82.7035 179.354 82.4533 178.998 82.1152 178.726C81.7772 178.454 81.3463 178.318 80.8226 178.318C80.2989 178.318 79.8681 178.454 79.53 178.726C79.1919 178.998 78.9417 179.354 78.7793 179.795C78.6169 180.236 78.5357 180.711 78.5357 181.222C78.5357 181.732 78.6169 182.206 78.7793 182.643C78.9417 183.081 79.1919 183.434 79.53 183.702C79.8681 183.971 80.2989 184.105 80.8226 184.105ZM86.0739 185V177.364H87.2074V178.557H87.3068C87.4659 178.149 87.7228 177.833 88.0774 177.607C88.4321 177.379 88.858 177.264 89.3551 177.264C89.8589 177.264 90.2782 177.379 90.6129 177.607C90.951 177.833 91.2145 178.149 91.4034 178.557H91.483C91.6785 178.162 91.9718 177.849 92.3629 177.617C92.754 177.382 93.223 177.264 93.7699 177.264C94.4527 177.264 95.0111 177.478 95.4453 177.906C95.8795 178.33 96.0966 178.991 96.0966 179.889V185H94.9233V179.889C94.9233 179.326 94.7692 178.923 94.4609 178.681C94.1527 178.439 93.7898 178.318 93.3722 178.318C92.8352 178.318 92.4193 178.481 92.1243 178.805C91.8293 179.127 91.6818 179.535 91.6818 180.028V185H90.4886V179.77C90.4886 179.336 90.3478 178.986 90.0661 178.721C89.7843 178.452 89.4214 178.318 88.9773 178.318C88.6723 178.318 88.3873 178.399 88.1222 178.562C87.8603 178.724 87.6482 178.95 87.4858 179.238C87.3267 179.523 87.2472 179.853 87.2472 180.227V185H86.0739ZM98.2418 185V177.364H99.3754V178.557H99.4748C99.6339 178.149 99.8907 177.833 100.245 177.607C100.6 177.379 101.026 177.264 101.523 177.264C102.027 177.264 102.446 177.379 102.781 177.607C103.119 177.833 103.382 178.149 103.571 178.557H103.651C103.846 178.162 104.14 177.849 104.531 177.617C104.922 177.382 105.391 177.264 105.938 177.264C106.621 177.264 107.179 177.478 107.613 177.906C108.047 178.33 108.265 178.991 108.265 179.889V185H107.091V179.889C107.091 179.326 106.937 178.923 106.629 178.681C106.321 178.439 105.958 178.318 105.54 178.318C105.003 178.318 104.587 178.481 104.292 178.805C103.997 179.127 103.85 179.535 103.85 180.028V185H102.657V179.77C102.657 179.336 102.516 178.986 102.234 178.721C101.952 178.452 101.589 178.318 101.145 178.318C100.84 178.318 100.555 178.399 100.29 178.562C100.028 178.724 99.8162 178.95 99.6538 179.238C99.4947 179.523 99.4151 179.853 99.4151 180.227V185H98.2418ZM113.612 185.159C112.876 185.159 112.241 184.997 111.707 184.672C111.177 184.344 110.768 183.886 110.479 183.3C110.194 182.71 110.052 182.024 110.052 181.241C110.052 180.459 110.194 179.77 110.479 179.173C110.768 178.573 111.169 178.106 111.683 177.771C112.2 177.433 112.803 177.264 113.492 177.264C113.89 177.264 114.283 177.33 114.67 177.463C115.058 177.596 115.411 177.811 115.729 178.109C116.048 178.404 116.301 178.795 116.49 179.283C116.679 179.77 116.773 180.37 116.773 181.082V181.58H110.887V180.565H115.58C115.58 180.134 115.494 179.75 115.322 179.412C115.153 179.074 114.911 178.807 114.596 178.612C114.284 178.416 113.916 178.318 113.492 178.318C113.025 178.318 112.621 178.434 112.279 178.666C111.941 178.895 111.681 179.193 111.499 179.561C111.316 179.929 111.225 180.323 111.225 180.744V181.42C111.225 181.997 111.325 182.486 111.523 182.887C111.726 183.285 112.006 183.588 112.364 183.797C112.722 184.002 113.138 184.105 113.612 184.105C113.92 184.105 114.198 184.062 114.447 183.976C114.699 183.886 114.916 183.754 115.098 183.578C115.28 183.399 115.421 183.177 115.521 182.912L116.654 183.23C116.535 183.615 116.334 183.953 116.053 184.244C115.771 184.533 115.423 184.758 115.009 184.92C114.594 185.08 114.129 185.159 113.612 185.159ZM119.732 180.406V185H118.558V177.364H119.692V178.557H119.791C119.97 178.169 120.242 177.857 120.607 177.622C120.971 177.384 121.442 177.264 122.018 177.264C122.536 177.264 122.988 177.37 123.376 177.582C123.763 177.791 124.065 178.109 124.281 178.537C124.496 178.961 124.604 179.498 124.604 180.148V185H123.43V180.227C123.43 179.627 123.275 179.16 122.963 178.825C122.652 178.487 122.224 178.318 121.68 178.318C121.306 178.318 120.971 178.399 120.676 178.562C120.384 178.724 120.154 178.961 119.985 179.273C119.816 179.584 119.732 179.962 119.732 180.406ZM130.069 177.364V178.358H126.111V177.364H130.069ZM127.265 175.534H128.438V182.812C128.438 183.144 128.486 183.393 128.582 183.558C128.682 183.721 128.808 183.83 128.96 183.886C129.116 183.939 129.28 183.966 129.452 183.966C129.581 183.966 129.688 183.959 129.77 183.946C129.853 183.929 129.92 183.916 129.969 183.906L130.208 184.96C130.128 184.99 130.017 185.02 129.875 185.05C129.732 185.083 129.552 185.099 129.333 185.099C129.001 185.099 128.677 185.028 128.358 184.886C128.044 184.743 127.782 184.526 127.573 184.234C127.367 183.943 127.265 183.575 127.265 183.131V175.534ZM138.873 185.159C138.184 185.159 137.579 184.995 137.059 184.667C136.542 184.339 136.137 183.88 135.846 183.29C135.557 182.7 135.413 182.01 135.413 181.222C135.413 180.426 135.557 179.732 135.846 179.138C136.137 178.545 136.542 178.085 137.059 177.756C137.579 177.428 138.184 177.264 138.873 177.264C139.563 177.264 140.166 177.428 140.683 177.756C141.203 178.085 141.608 178.545 141.896 179.138C142.188 179.732 142.334 180.426 142.334 181.222C142.334 182.01 142.188 182.7 141.896 183.29C141.608 183.88 141.203 184.339 140.683 184.667C140.166 184.995 139.563 185.159 138.873 185.159ZM138.873 184.105C139.397 184.105 139.828 183.971 140.166 183.702C140.504 183.434 140.754 183.081 140.917 182.643C141.079 182.206 141.16 181.732 141.16 181.222C141.16 180.711 141.079 180.236 140.917 179.795C140.754 179.354 140.504 178.998 140.166 178.726C139.828 178.454 139.397 178.318 138.873 178.318C138.35 178.318 137.919 178.454 137.581 178.726C137.243 178.998 136.992 179.354 136.83 179.795C136.668 180.236 136.586 180.711 136.586 181.222C136.586 181.732 136.668 182.206 136.83 182.643C136.992 183.081 137.243 183.434 137.581 183.702C137.919 183.971 138.35 184.105 138.873 184.105ZM145.298 180.406V185H144.125V177.364H145.258V178.557H145.358C145.537 178.169 145.808 177.857 146.173 177.622C146.538 177.384 147.008 177.264 147.585 177.264C148.102 177.264 148.554 177.37 148.942 177.582C149.33 177.791 149.632 178.109 149.847 178.537C150.062 178.961 150.17 179.498 150.17 180.148V185H148.997V180.227C148.997 179.627 148.841 179.16 148.529 178.825C148.218 178.487 147.79 178.318 147.247 178.318C146.872 178.318 146.538 178.399 146.243 178.562C145.951 178.724 145.721 178.961 145.551 179.273C145.382 179.584 145.298 179.962 145.298 180.406ZM158.499 185.179C158.015 185.179 157.576 185.088 157.181 184.906C156.787 184.72 156.474 184.453 156.242 184.105C156.01 183.754 155.894 183.33 155.894 182.832C155.894 182.395 155.98 182.04 156.152 181.768C156.325 181.493 156.555 181.278 156.843 181.122C157.132 180.966 157.45 180.85 157.798 180.774C158.149 180.695 158.502 180.632 158.857 180.585C159.321 180.526 159.697 180.481 159.985 180.451C160.277 180.418 160.489 180.363 160.622 180.287C160.758 180.211 160.825 180.078 160.825 179.889V179.849C160.825 179.359 160.691 178.978 160.423 178.706C160.158 178.434 159.755 178.298 159.215 178.298C158.655 178.298 158.215 178.421 157.897 178.666C157.579 178.911 157.355 179.173 157.226 179.452L156.112 179.054C156.311 178.59 156.576 178.229 156.908 177.97C157.243 177.708 157.607 177.526 158.002 177.423C158.399 177.317 158.79 177.264 159.175 177.264C159.42 177.264 159.702 177.294 160.02 177.354C160.342 177.41 160.651 177.528 160.95 177.707C161.251 177.886 161.502 178.156 161.7 178.517C161.899 178.878 161.999 179.362 161.999 179.969V185H160.825V183.966H160.766C160.686 184.132 160.554 184.309 160.368 184.498C160.182 184.687 159.936 184.848 159.627 184.98C159.319 185.113 158.943 185.179 158.499 185.179ZM158.678 184.125C159.142 184.125 159.533 184.034 159.851 183.852C160.173 183.669 160.414 183.434 160.577 183.146C160.743 182.857 160.825 182.554 160.825 182.236V181.162C160.776 181.222 160.666 181.276 160.497 181.326C160.332 181.372 160.139 181.414 159.921 181.45C159.705 181.483 159.495 181.513 159.289 181.54C159.087 181.563 158.923 181.583 158.797 181.599C158.492 181.639 158.207 181.704 157.942 181.793C157.68 181.879 157.468 182.01 157.306 182.186C157.146 182.358 157.067 182.594 157.067 182.892C157.067 183.3 157.218 183.608 157.519 183.817C157.824 184.022 158.21 184.125 158.678 184.125ZM168.078 187.864V177.364H169.211V178.577H169.35C169.437 178.444 169.556 178.275 169.708 178.07C169.864 177.861 170.086 177.675 170.375 177.513C170.666 177.347 171.061 177.264 171.558 177.264C172.201 177.264 172.768 177.425 173.258 177.746C173.749 178.068 174.132 178.524 174.407 179.114C174.682 179.704 174.819 180.4 174.819 181.202C174.819 182.01 174.682 182.711 174.407 183.305C174.132 183.895 173.75 184.352 173.263 184.677C172.776 184.998 172.214 185.159 171.578 185.159C171.087 185.159 170.694 185.078 170.4 184.915C170.105 184.75 169.877 184.562 169.718 184.354C169.559 184.142 169.437 183.966 169.35 183.827H169.251V187.864H168.078ZM169.231 181.182C169.231 181.759 169.316 182.267 169.485 182.708C169.654 183.146 169.901 183.489 170.225 183.737C170.55 183.982 170.948 184.105 171.419 184.105C171.909 184.105 172.319 183.976 172.647 183.717C172.978 183.455 173.227 183.104 173.392 182.663C173.561 182.219 173.646 181.725 173.646 181.182C173.646 180.645 173.563 180.161 173.397 179.73C173.235 179.296 172.988 178.953 172.657 178.701C172.328 178.446 171.916 178.318 171.419 178.318C170.941 178.318 170.54 178.439 170.216 178.681C169.891 178.92 169.645 179.254 169.48 179.685C169.314 180.113 169.231 180.612 169.231 181.182ZM179.711 185.159C179.022 185.159 178.417 184.995 177.897 184.667C177.38 184.339 176.975 183.88 176.684 183.29C176.395 182.7 176.251 182.01 176.251 181.222C176.251 180.426 176.395 179.732 176.684 179.138C176.975 178.545 177.38 178.085 177.897 177.756C178.417 177.428 179.022 177.264 179.711 177.264C180.401 177.264 181.004 177.428 181.521 177.756C182.041 178.085 182.446 178.545 182.734 179.138C183.026 179.732 183.172 180.426 183.172 181.222C183.172 182.01 183.026 182.7 182.734 183.29C182.446 183.88 182.041 184.339 181.521 184.667C181.004 184.995 180.401 185.159 179.711 185.159ZM179.711 184.105C180.235 184.105 180.666 183.971 181.004 183.702C181.342 183.434 181.592 183.081 181.755 182.643C181.917 182.206 181.998 181.732 181.998 181.222C181.998 180.711 181.917 180.236 181.755 179.795C181.592 179.354 181.342 178.998 181.004 178.726C180.666 178.454 180.235 178.318 179.711 178.318C179.188 178.318 178.757 178.454 178.419 178.726C178.081 178.998 177.83 179.354 177.668 179.795C177.506 180.236 177.424 180.711 177.424 181.222C177.424 181.732 177.506 182.206 177.668 182.643C177.83 183.081 178.081 183.434 178.419 183.702C178.757 183.971 179.188 184.105 179.711 184.105ZM190.372 179.074L189.318 179.372C189.251 179.196 189.154 179.026 189.024 178.86C188.898 178.691 188.726 178.552 188.507 178.442C188.289 178.333 188.008 178.278 187.667 178.278C187.2 178.278 186.81 178.386 186.499 178.602C186.191 178.814 186.036 179.084 186.036 179.412C186.036 179.704 186.142 179.934 186.355 180.103C186.567 180.272 186.898 180.413 187.349 180.526L188.482 180.804C189.165 180.97 189.674 181.223 190.009 181.565C190.343 181.903 190.511 182.339 190.511 182.872C190.511 183.31 190.385 183.701 190.133 184.045C189.884 184.39 189.536 184.662 189.089 184.861C188.642 185.06 188.121 185.159 187.528 185.159C186.749 185.159 186.104 184.99 185.594 184.652C185.084 184.314 184.76 183.82 184.624 183.17L185.738 182.892C185.844 183.303 186.045 183.611 186.34 183.817C186.638 184.022 187.027 184.125 187.508 184.125C188.055 184.125 188.489 184.009 188.811 183.777C189.135 183.542 189.298 183.26 189.298 182.932C189.298 182.667 189.205 182.445 189.019 182.266C188.834 182.083 188.549 181.947 188.164 181.858L186.892 181.56C186.192 181.394 185.678 181.137 185.35 180.789C185.026 180.438 184.863 179.999 184.863 179.472C184.863 179.041 184.984 178.66 185.226 178.328C185.471 177.997 185.804 177.737 186.225 177.548C186.65 177.359 187.13 177.264 187.667 177.264C188.423 177.264 189.016 177.43 189.447 177.761C189.881 178.093 190.189 178.53 190.372 179.074ZM195.598 177.364V178.358H191.641V177.364H195.598ZM192.794 175.534H193.967V182.812C193.967 183.144 194.015 183.393 194.112 183.558C194.211 183.721 194.337 183.83 194.489 183.886C194.645 183.939 194.809 183.966 194.982 183.966C195.111 183.966 195.217 183.959 195.3 183.946C195.383 183.929 195.449 183.916 195.499 183.906L195.737 184.96C195.658 184.99 195.547 185.02 195.404 185.05C195.262 185.083 195.081 185.099 194.862 185.099C194.531 185.099 194.206 185.028 193.888 184.886C193.573 184.743 193.311 184.526 193.102 184.234C192.897 183.943 192.794 183.575 192.794 183.131V175.534ZM197.363 185V177.364H198.536V185H197.363ZM197.96 176.091C197.731 176.091 197.534 176.013 197.368 175.857C197.205 175.701 197.124 175.514 197.124 175.295C197.124 175.077 197.205 174.889 197.368 174.734C197.534 174.578 197.731 174.5 197.96 174.5C198.188 174.5 198.384 174.578 198.546 174.734C198.712 174.889 198.795 175.077 198.795 175.295C198.795 175.514 198.712 175.701 198.546 175.857C198.384 176.013 198.188 176.091 197.96 176.091ZM201.858 180.406V185H200.685V177.364H201.819V178.557H201.918C202.097 178.169 202.369 177.857 202.733 177.622C203.098 177.384 203.569 177.264 204.145 177.264C204.662 177.264 205.115 177.37 205.503 177.582C205.89 177.791 206.192 178.109 206.407 178.537C206.623 178.961 206.731 179.498 206.731 180.148V185H205.557V180.227C205.557 179.627 205.402 179.16 205.09 178.825C204.778 178.487 204.351 178.318 203.807 178.318C203.433 178.318 203.098 178.399 202.803 178.562C202.511 178.724 202.281 178.961 202.112 179.273C201.943 179.584 201.858 179.962 201.858 180.406ZM211.957 188.023C211.39 188.023 210.903 187.95 210.495 187.804C210.088 187.661 209.748 187.473 209.476 187.237C209.208 187.005 208.994 186.757 208.835 186.491L209.77 185.835C209.876 185.974 210.01 186.134 210.172 186.312C210.335 186.495 210.557 186.652 210.838 186.785C211.123 186.921 211.496 186.989 211.957 186.989C212.574 186.989 213.082 186.839 213.483 186.541C213.884 186.243 214.085 185.776 214.085 185.139V183.588H213.985C213.899 183.727 213.777 183.9 213.618 184.105C213.462 184.307 213.236 184.488 212.941 184.647C212.65 184.803 212.255 184.881 211.758 184.881C211.142 184.881 210.588 184.735 210.098 184.443C209.61 184.152 209.224 183.727 208.939 183.17C208.658 182.614 208.517 181.937 208.517 181.142C208.517 180.36 208.654 179.679 208.929 179.099C209.204 178.515 209.587 178.065 210.078 177.746C210.568 177.425 211.135 177.264 211.778 177.264C212.275 177.264 212.67 177.347 212.961 177.513C213.256 177.675 213.482 177.861 213.637 178.07C213.797 178.275 213.919 178.444 214.005 178.577H214.125V177.364H215.258V185.219C215.258 185.875 215.109 186.409 214.811 186.82C214.516 187.234 214.118 187.537 213.618 187.729C213.12 187.925 212.567 188.023 211.957 188.023ZM211.917 183.827C212.388 183.827 212.786 183.719 213.11 183.504C213.435 183.288 213.682 182.978 213.851 182.574C214.02 182.17 214.105 181.686 214.105 181.122C214.105 180.572 214.022 180.086 213.856 179.665C213.69 179.245 213.445 178.915 213.12 178.676C212.796 178.437 212.395 178.318 211.917 178.318C211.42 178.318 211.006 178.444 210.674 178.696C210.346 178.948 210.099 179.286 209.934 179.71C209.771 180.134 209.69 180.605 209.69 181.122C209.69 181.652 209.773 182.121 209.939 182.529C210.108 182.933 210.356 183.252 210.684 183.484C211.016 183.712 211.427 183.827 211.917 183.827ZM218.261 185.08C218.016 185.08 217.805 184.992 217.63 184.816C217.454 184.64 217.366 184.43 217.366 184.185C217.366 183.939 217.454 183.729 217.63 183.553C217.805 183.378 218.016 183.29 218.261 183.29C218.506 183.29 218.717 183.378 218.892 183.553C219.068 183.729 219.156 183.939 219.156 184.185C219.156 184.347 219.114 184.496 219.032 184.632C218.952 184.768 218.844 184.877 218.708 184.96C218.576 185.04 218.427 185.08 218.261 185.08Z" fill="#6B7280"/>
</svg>
