<svg width="320" height="320" viewBox="0 0 320 320" fill="none" xmlns="http://www.w3.org/2000/svg">
<g filter="url(#filter0_dd_2623_17073)">
<rect x="18" y="39" width="284" height="243" rx="8" fill="white"/>
<path fill-rule="evenodd" clip-rule="evenodd" d="M41.707 64.207C41.5195 64.3945 41.2652 64.4998 41 64.4998C40.7348 64.4998 40.4805 64.3945 40.293 64.207L36.293 60.207C36.1055 60.0195 36.0002 59.7651 36.0002 59.5C36.0002 59.2348 36.1055 58.9805 36.293 58.793L40.293 54.793C40.4816 54.6108 40.7342 54.51 40.9964 54.5123C41.2586 54.5146 41.5094 54.6198 41.6948 54.8052C41.8802 54.9906 41.9854 55.2414 41.9877 55.5036C41.99 55.7658 41.8892 56.0184 41.707 56.207L39.414 58.5H51C51.2652 58.5 51.5196 58.6053 51.7071 58.7929C51.8946 58.9804 52 59.2348 52 59.5C52 59.7652 51.8946 60.0196 51.7071 60.2071C51.5196 60.3946 51.2652 60.5 51 60.5H39.414L41.707 62.793C41.8945 62.9805 41.9998 63.2348 41.9998 63.5C41.9998 63.7651 41.8945 64.0195 41.707 64.207Z" fill="#111928"/>
<path d="M133.767 53.7727H135.59V59.858C135.59 60.4205 135.464 60.9091 135.211 61.3239C134.961 61.7386 134.613 62.0582 134.167 62.2827C133.721 62.5071 133.203 62.6193 132.612 62.6193C132.086 62.6193 131.609 62.527 131.18 62.3423C130.754 62.1548 130.416 61.8707 130.166 61.4901C129.916 61.1065 129.792 60.625 129.795 60.0455H131.632C131.637 60.2756 131.684 60.473 131.772 60.6378C131.863 60.7997 131.987 60.9247 132.143 61.0128C132.302 61.098 132.49 61.1406 132.705 61.1406C132.933 61.1406 133.124 61.0923 133.281 60.9957C133.44 60.8963 133.561 60.7514 133.643 60.5611C133.725 60.3707 133.767 60.1364 133.767 59.858V53.7727ZM141.279 59.7131V55.9545H143.095V62.5H141.352V61.3111H141.284C141.136 61.6946 140.89 62.0028 140.546 62.2358C140.205 62.4687 139.789 62.5852 139.298 62.5852C138.86 62.5852 138.475 62.4858 138.143 62.2869C137.811 62.0881 137.551 61.8054 137.363 61.4389C137.178 61.0724 137.085 60.6335 137.082 60.1222V55.9545H138.897V59.7983C138.9 60.1847 139.004 60.4901 139.208 60.7145C139.413 60.9389 139.687 61.0511 140.031 61.0511C140.249 61.0511 140.454 61.0014 140.644 60.902C140.835 60.7997 140.988 60.6491 141.105 60.4503C141.224 60.2514 141.282 60.0057 141.279 59.7131ZM146.362 58.7159V62.5H144.547V55.9545H146.277V57.1094H146.354C146.498 56.7287 146.741 56.4276 147.082 56.206C147.423 55.9815 147.836 55.8693 148.322 55.8693C148.777 55.8693 149.173 55.9688 149.511 56.1676C149.849 56.3665 150.112 56.6506 150.3 57.0199C150.487 57.3864 150.581 57.8239 150.581 58.3324V62.5H148.765V58.6562C148.768 58.2557 148.666 57.9432 148.459 57.7188C148.251 57.4915 147.966 57.3778 147.602 57.3778C147.358 57.3778 147.142 57.4304 146.954 57.5355C146.77 57.6406 146.625 57.794 146.52 57.9957C146.417 58.1946 146.365 58.4347 146.362 58.7159ZM154.994 62.6278C154.321 62.6278 153.742 62.4915 153.256 62.2188C152.773 61.9432 152.401 61.554 152.139 61.0511C151.878 60.5455 151.747 59.9474 151.747 59.2571C151.747 58.5838 151.878 57.9929 152.139 57.4844C152.401 56.9759 152.769 56.5795 153.243 56.2955C153.72 56.0114 154.28 55.8693 154.922 55.8693C155.354 55.8693 155.756 55.9389 156.128 56.0781C156.503 56.2145 156.83 56.4205 157.108 56.696C157.389 56.9716 157.608 57.3182 157.764 57.7358C157.921 58.1506 157.999 58.6364 157.999 59.1932V59.6918H152.472V58.5668H156.29C156.29 58.3054 156.233 58.0739 156.119 57.8722C156.006 57.6705 155.848 57.5128 155.646 57.3991C155.448 57.2827 155.216 57.2244 154.952 57.2244C154.676 57.2244 154.432 57.2884 154.219 57.4162C154.009 57.5412 153.844 57.7102 153.725 57.9233C153.605 58.1335 153.544 58.3679 153.541 58.6264V59.696C153.541 60.0199 153.601 60.2997 153.72 60.5355C153.843 60.7713 154.014 60.9531 154.236 61.081C154.458 61.2088 154.72 61.2727 155.024 61.2727C155.226 61.2727 155.411 61.2443 155.578 61.1875C155.746 61.1307 155.889 61.0455 156.009 60.9318C156.128 60.8182 156.219 60.679 156.281 60.5142L157.96 60.625C157.875 61.0284 157.7 61.3807 157.436 61.6818C157.175 61.9801 156.837 62.2131 156.422 62.3807C156.01 62.5455 155.534 62.6278 154.994 62.6278ZM161.944 62.5V61.1705L165.05 58.294C165.314 58.0384 165.536 57.8082 165.715 57.6037C165.897 57.3991 166.035 57.1989 166.128 57.0028C166.222 56.804 166.269 56.5895 166.269 56.3594C166.269 56.1037 166.211 55.8835 166.094 55.6989C165.978 55.5114 165.819 55.3679 165.617 55.2685C165.415 55.1662 165.187 55.1151 164.931 55.1151C164.664 55.1151 164.431 55.169 164.232 55.277C164.033 55.3849 163.88 55.5398 163.772 55.7415C163.664 55.9432 163.61 56.1832 163.61 56.4616H161.858C161.858 55.8906 161.988 55.3949 162.246 54.9744C162.505 54.554 162.867 54.2287 163.333 53.9986C163.799 53.7685 164.336 53.6534 164.944 53.6534C165.569 53.6534 166.113 53.7642 166.576 53.9858C167.042 54.2045 167.404 54.5085 167.662 54.8977C167.921 55.2869 168.05 55.733 168.05 56.2358C168.05 56.5653 167.985 56.8906 167.854 57.2116C167.726 57.5327 167.498 57.8892 167.168 58.2812C166.839 58.6705 166.374 59.1378 165.775 59.6832L164.501 60.9318V60.9915H168.165V62.5H161.944ZM172.924 62.6918C172.191 62.6889 171.561 62.5085 171.032 62.1506C170.507 61.7926 170.102 61.2741 169.818 60.5952C169.536 59.9162 169.397 59.0994 169.4 58.1449C169.4 57.1932 169.541 56.3821 169.822 55.7116C170.106 55.0412 170.511 54.5312 171.036 54.1818C171.565 53.8295 172.194 53.6534 172.924 53.6534C173.654 53.6534 174.282 53.8295 174.808 54.1818C175.336 54.5341 175.742 55.0455 176.026 55.7159C176.311 56.3835 176.451 57.1932 176.448 58.1449C176.448 59.1023 176.306 59.9205 176.022 60.5994C175.741 61.2784 175.338 61.7969 174.812 62.1548C174.286 62.5128 173.657 62.6918 172.924 62.6918ZM172.924 61.1619C173.424 61.1619 173.823 60.9105 174.122 60.4077C174.42 59.9048 174.568 59.1506 174.565 58.1449C174.565 57.483 174.497 56.9318 174.36 56.4915C174.227 56.0511 174.036 55.7202 173.789 55.4986C173.545 55.277 173.257 55.1662 172.924 55.1662C172.427 55.1662 172.029 55.4148 171.731 55.9119C171.433 56.4091 171.282 57.1534 171.279 58.1449C171.279 58.8153 171.346 59.375 171.48 59.8239C171.616 60.2699 171.808 60.6051 172.055 60.8295C172.302 61.0511 172.592 61.1619 172.924 61.1619ZM177.764 62.5V61.1705L180.871 58.294C181.135 58.0384 181.356 57.8082 181.535 57.6037C181.717 57.3991 181.855 57.1989 181.949 57.0028C182.042 56.804 182.089 56.5895 182.089 56.3594C182.089 56.1037 182.031 55.8835 181.915 55.6989C181.798 55.5114 181.639 55.3679 181.437 55.2685C181.236 55.1662 181.007 55.1151 180.751 55.1151C180.484 55.1151 180.251 55.169 180.052 55.277C179.854 55.3849 179.7 55.5398 179.592 55.7415C179.484 55.9432 179.43 56.1832 179.43 56.4616H177.679C177.679 55.8906 177.808 55.3949 178.067 54.9744C178.325 54.554 178.687 54.2287 179.153 53.9986C179.619 53.7685 180.156 53.6534 180.764 53.6534C181.389 53.6534 181.933 53.7642 182.396 53.9858C182.862 54.2045 183.224 54.5085 183.483 54.8977C183.741 55.2869 183.871 55.733 183.871 56.2358C183.871 56.5653 183.805 56.8906 183.675 57.2116C183.547 57.5327 183.318 57.8892 182.988 58.2812C182.659 58.6705 182.194 59.1378 181.595 59.6832L180.321 60.9318V60.9915H183.986V62.5H177.764ZM189.119 53.7727V62.5H187.274V55.5241H187.223L185.225 56.777V55.1406L187.385 53.7727H189.119Z" fill="#111928"/>
<path fill-rule="evenodd" clip-rule="evenodd" d="M278.293 54.793C278.481 54.6056 278.735 54.5002 279 54.5002C279.265 54.5002 279.519 54.6056 279.707 54.793L283.707 58.793C283.894 58.9806 284 59.2349 284 59.5C284 59.7652 283.894 60.0195 283.707 60.207L279.707 64.207C279.518 64.3892 279.266 64.49 279.004 64.4877C278.741 64.4854 278.491 64.3803 278.305 64.1948C278.12 64.0094 278.015 63.7586 278.012 63.4964C278.01 63.2342 278.111 62.9816 278.293 62.793L280.586 60.5H269C268.735 60.5 268.48 60.3947 268.293 60.2071C268.105 60.0196 268 59.7652 268 59.5C268 59.2348 268.105 58.9805 268.293 58.7929C268.48 58.6054 268.735 58.5 269 58.5H280.586L278.293 56.207C278.106 56.0195 278 55.7652 278 55.5C278 55.2349 278.106 54.9806 278.293 54.793V54.793Z" fill="#111928"/>
<g clip-path="url(#clip0_2623_17073)">
<path d="M46.4006 94.1719C46.3608 93.7997 46.1932 93.5099 45.8977 93.3026C45.6051 93.0952 45.2244 92.9915 44.7557 92.9915C44.4261 92.9915 44.1435 93.0412 43.9077 93.1406C43.6719 93.2401 43.4915 93.375 43.3665 93.5455C43.2415 93.7159 43.1776 93.9105 43.1747 94.1293C43.1747 94.3111 43.2159 94.4687 43.2983 94.6023C43.3835 94.7358 43.4986 94.8494 43.6435 94.9432C43.7884 95.0341 43.9489 95.1108 44.125 95.1733C44.3011 95.2358 44.4787 95.2884 44.6577 95.331L45.4759 95.5355C45.8054 95.6122 46.1222 95.7159 46.4261 95.8466C46.733 95.9773 47.0071 96.142 47.2486 96.3409C47.4929 96.5398 47.6861 96.7798 47.8281 97.0611C47.9702 97.3423 48.0412 97.6719 48.0412 98.0497C48.0412 98.5611 47.9105 99.0114 47.6491 99.4006C47.3878 99.7869 47.0099 100.089 46.5156 100.308C46.0241 100.524 45.429 100.632 44.7301 100.632C44.0511 100.632 43.4616 100.527 42.9616 100.317C42.4645 100.107 42.0753 99.7997 41.794 99.3963C41.5156 98.9929 41.3651 98.5014 41.3423 97.9219H42.8977C42.9205 98.2259 43.0142 98.4787 43.179 98.6804C43.3438 98.8821 43.5582 99.0327 43.8224 99.1321C44.0895 99.2315 44.3878 99.2812 44.7173 99.2812C45.0611 99.2812 45.3622 99.2301 45.6207 99.1278C45.8821 99.0227 46.0866 98.8778 46.2344 98.6932C46.3821 98.5057 46.4574 98.2869 46.4602 98.0369C46.4574 97.8097 46.3906 97.6222 46.2599 97.4744C46.1293 97.3239 45.946 97.1989 45.7102 97.0994C45.4773 96.9972 45.2045 96.9062 44.892 96.8267L43.8991 96.571C43.1804 96.3864 42.6122 96.1065 42.1946 95.7315C41.7798 95.3537 41.5724 94.8523 41.5724 94.2273C41.5724 93.7131 41.7116 93.2628 41.9901 92.8764C42.2713 92.4901 42.6534 92.1903 43.1364 91.9773C43.6193 91.7614 44.1662 91.6534 44.777 91.6534C45.3963 91.6534 45.9389 91.7614 46.4048 91.9773C46.8736 92.1903 47.2415 92.4872 47.5085 92.8679C47.7756 93.2457 47.9134 93.6804 47.9219 94.1719H46.4006ZM53.5543 97.7472V93.9545H55.0969V100.5H53.6012V99.3366H53.533C53.3853 99.7031 53.1424 100.003 52.8043 100.236C52.4691 100.469 52.0558 100.585 51.5643 100.585C51.1353 100.585 50.756 100.49 50.4265 100.3C50.0998 100.107 49.8441 99.8267 49.6594 99.4602C49.4748 99.0909 49.3825 98.6449 49.3825 98.1222V93.9545H50.9251V97.8835C50.9251 98.2983 51.0387 98.6278 51.266 98.8722C51.4933 99.1165 51.7915 99.2386 52.1609 99.2386C52.3881 99.2386 52.6083 99.1832 52.8214 99.0724C53.0344 98.9616 53.2092 98.7969 53.3455 98.5781C53.4847 98.3565 53.5543 98.0795 53.5543 97.7472ZM58.2259 96.6648V100.5H56.6832V93.9545H58.1577V95.0668H58.2344C58.3849 94.7003 58.625 94.4091 58.9545 94.1932C59.2869 93.9773 59.6974 93.8693 60.1861 93.8693C60.6378 93.8693 61.0313 93.9659 61.3665 94.1591C61.7045 94.3523 61.9659 94.6321 62.1506 94.9986C62.3381 95.3651 62.4304 95.8097 62.4276 96.3324V100.5H60.8849V96.571C60.8849 96.1335 60.7713 95.7912 60.544 95.544C60.3196 95.2969 60.0085 95.1733 59.6108 95.1733C59.3409 95.1733 59.1009 95.233 58.8906 95.3523C58.6832 95.4687 58.5199 95.6378 58.4006 95.8594C58.2841 96.081 58.2259 96.3494 58.2259 96.6648Z" fill="#6B7280"/>
<path d="M76.1167 91.7727H78.0513L80.6422 98.0966H80.7445L83.3354 91.7727H85.2701V100.5H83.753V94.5043H83.6721L81.2601 100.474H80.1266L77.7147 94.4915H77.6337V100.5H76.1167V91.7727ZM89.7786 100.628C89.1394 100.628 88.5854 100.487 88.1167 100.206C87.6479 99.9247 87.2843 99.5312 87.0257 99.0256C86.7701 98.5199 86.6422 97.929 86.6422 97.2528C86.6422 96.5767 86.7701 95.9844 87.0257 95.4759C87.2843 94.9673 87.6479 94.5724 88.1167 94.2912C88.5854 94.0099 89.1394 93.8693 89.7786 93.8693C90.4178 93.8693 90.9718 94.0099 91.4405 94.2912C91.9093 94.5724 92.2715 94.9673 92.5272 95.4759C92.7857 95.9844 92.915 96.5767 92.915 97.2528C92.915 97.929 92.7857 98.5199 92.5272 99.0256C92.2715 99.5312 91.9093 99.9247 91.4405 100.206C90.9718 100.487 90.4178 100.628 89.7786 100.628ZM89.7871 99.392C90.1337 99.392 90.4235 99.2969 90.6564 99.1065C90.8894 98.9134 91.0627 98.6548 91.1763 98.331C91.2928 98.0071 91.351 97.6463 91.351 97.2486C91.351 96.848 91.2928 96.4858 91.1763 96.1619C91.0627 95.8352 90.8894 95.5753 90.6564 95.3821C90.4235 95.1889 90.1337 95.0923 89.7871 95.0923C89.432 95.0923 89.1365 95.1889 88.9007 95.3821C88.6678 95.5753 88.4931 95.8352 88.3766 96.1619C88.263 96.4858 88.2061 96.848 88.2061 97.2486C88.2061 97.6463 88.263 98.0071 88.3766 98.331C88.4931 98.6548 88.6678 98.9134 88.9007 99.1065C89.1365 99.2969 89.432 99.392 89.7871 99.392ZM95.7669 96.6648V100.5H94.2243V93.9545H95.6987V95.0668H95.7754C95.926 94.7003 96.166 94.4091 96.4956 94.1932C96.8279 93.9773 97.2385 93.8693 97.7271 93.8693C98.1788 93.8693 98.5723 93.9659 98.9075 94.1591C99.2456 94.3523 99.5069 94.6321 99.6916 94.9986C99.8791 95.3651 99.9714 95.8097 99.9686 96.3324V100.5H98.426V96.571C98.426 96.1335 98.3123 95.7912 98.085 95.544C97.8606 95.2969 97.5495 95.1733 97.1518 95.1733C96.8819 95.1733 96.6419 95.233 96.4316 95.3523C96.2243 95.4687 96.0609 95.6378 95.9416 95.8594C95.8251 96.081 95.7669 96.3494 95.7669 96.6648Z" fill="#6B7280"/>
<path d="M113.755 93.098V91.7727H120.718V93.098H118.02V100.5H116.452V93.098H113.755ZM125.273 97.7472V93.9545H126.816V100.5H125.32V99.3366H125.252C125.104 99.7031 124.861 100.003 124.523 100.236C124.188 100.469 123.775 100.585 123.283 100.585C122.854 100.585 122.475 100.49 122.145 100.3C121.819 100.107 121.563 99.8267 121.378 99.4602C121.194 99.0909 121.101 98.6449 121.101 98.1222V93.9545H122.644V97.8835C122.644 98.2983 122.757 98.6278 122.985 98.8722C123.212 99.1165 123.51 99.2386 123.88 99.2386C124.107 99.2386 124.327 99.1832 124.54 99.0724C124.753 98.9616 124.928 98.7969 125.064 98.5781C125.203 98.3565 125.273 98.0795 125.273 97.7472ZM131.3 100.628C130.643 100.628 130.077 100.491 129.599 100.219C129.125 99.9432 128.76 99.554 128.504 99.0511C128.249 98.5455 128.121 97.9503 128.121 97.2656C128.121 96.5923 128.249 96.0014 128.504 95.4929C128.763 94.9815 129.124 94.5838 129.587 94.2997C130.05 94.0128 130.594 93.8693 131.219 93.8693C131.622 93.8693 132.003 93.9347 132.361 94.0653C132.722 94.1932 133.04 94.392 133.315 94.6619C133.594 94.9318 133.813 95.2756 133.972 95.6932C134.131 96.108 134.21 96.6023 134.21 97.1761V97.6491H128.845V96.6094H132.732C132.729 96.3139 132.665 96.0511 132.54 95.821C132.415 95.5881 132.24 95.4048 132.016 95.2713C131.794 95.1378 131.536 95.071 131.24 95.071C130.925 95.071 130.648 95.1477 130.409 95.3011C130.17 95.4517 129.984 95.6506 129.851 95.8977C129.72 96.142 129.653 96.4105 129.651 96.7031V97.6108C129.651 97.9915 129.72 98.3182 129.859 98.5909C129.999 98.8608 130.193 99.0682 130.443 99.2131C130.693 99.3551 130.986 99.4261 131.321 99.4261C131.545 99.4261 131.749 99.3949 131.93 99.3324C132.112 99.267 132.27 99.1719 132.403 99.0469C132.537 98.9219 132.638 98.767 132.706 98.5824L134.146 98.7443C134.055 99.125 133.882 99.4574 133.626 99.7415C133.374 100.023 133.05 100.241 132.655 100.398C132.26 100.551 131.808 100.628 131.3 100.628Z" fill="#6B7280"/>
<path d="M149.654 100.5L147.191 91.7727H148.892L150.464 98.1861H150.545L152.224 91.7727H153.771L155.454 98.1903H155.531L157.103 91.7727H158.804L156.341 100.5H154.781L153.034 94.3764H152.966L151.214 100.5H149.654ZM162.061 100.628C161.405 100.628 160.838 100.491 160.361 100.219C159.887 99.9432 159.522 99.554 159.266 99.0511C159.01 98.5455 158.882 97.9503 158.882 97.2656C158.882 96.5923 159.01 96.0014 159.266 95.4929C159.525 94.9815 159.885 94.5838 160.348 94.2997C160.811 94.0128 161.355 93.8693 161.98 93.8693C162.384 93.8693 162.765 93.9347 163.123 94.0653C163.483 94.1932 163.801 94.392 164.077 94.6619C164.355 94.9318 164.574 95.2756 164.733 95.6932C164.892 96.108 164.972 96.6023 164.972 97.1761V97.6491H159.607V96.6094H163.493C163.49 96.3139 163.426 96.0511 163.301 95.821C163.176 95.5881 163.002 95.4048 162.777 95.2713C162.556 95.1378 162.297 95.071 162.002 95.071C161.686 95.071 161.409 95.1477 161.171 95.3011C160.932 95.4517 160.746 95.6506 160.613 95.8977C160.482 96.142 160.415 96.4105 160.412 96.7031V97.6108C160.412 97.9915 160.482 98.3182 160.621 98.5909C160.76 98.8608 160.955 99.0682 161.205 99.2131C161.455 99.3551 161.748 99.4261 162.083 99.4261C162.307 99.4261 162.51 99.3949 162.692 99.3324C162.874 99.267 163.032 99.1719 163.165 99.0469C163.299 98.9219 163.4 98.767 163.468 98.5824L164.908 98.7443C164.817 99.125 164.644 99.4574 164.388 99.7415C164.135 100.023 163.811 100.241 163.417 100.398C163.022 100.551 162.57 100.628 162.061 100.628ZM168.706 100.615C168.192 100.615 167.732 100.483 167.325 100.219C166.919 99.9545 166.598 99.571 166.362 99.0682C166.126 98.5653 166.009 97.9545 166.009 97.2358C166.009 96.5085 166.128 95.8949 166.366 95.3949C166.608 94.892 166.933 94.5128 167.342 94.2571C167.751 93.9986 168.207 93.8693 168.71 93.8693C169.094 93.8693 169.409 93.9347 169.656 94.0653C169.903 94.1932 170.099 94.348 170.244 94.5298C170.389 94.7088 170.501 94.8778 170.581 95.0369H170.645V91.7727H172.192V100.5H170.675V99.4688H170.581C170.501 99.6278 170.386 99.7969 170.236 99.9759C170.085 100.152 169.886 100.303 169.639 100.428C169.392 100.553 169.081 100.615 168.706 100.615ZM169.136 99.3494C169.463 99.3494 169.741 99.2614 169.972 99.0852C170.202 98.9062 170.376 98.6577 170.496 98.3395C170.615 98.0213 170.675 97.6506 170.675 97.2273C170.675 96.804 170.615 96.4361 170.496 96.1236C170.379 95.8111 170.206 95.5682 169.976 95.3949C169.749 95.2216 169.469 95.1349 169.136 95.1349C168.793 95.1349 168.506 95.2244 168.276 95.4034C168.045 95.5824 167.872 95.8295 167.756 96.1449C167.639 96.4602 167.581 96.821 167.581 97.2273C167.581 97.6364 167.639 98.0014 167.756 98.3224C167.875 98.6406 168.05 98.892 168.28 99.0767C168.513 99.2585 168.798 99.3494 169.136 99.3494Z" fill="#6B7280"/>
<path d="M185.186 93.098V91.7727H192.149V93.098H189.452V100.5H187.884V93.098H185.186ZM194.966 96.6648V100.5H193.423V91.7727H194.932V95.0668H195.009C195.162 94.6974 195.399 94.4062 195.72 94.1932C196.044 93.9773 196.456 93.8693 196.956 93.8693C197.411 93.8693 197.807 93.9645 198.145 94.1548C198.483 94.3452 198.744 94.6236 198.929 94.9901C199.117 95.3565 199.21 95.804 199.21 96.3324V100.5H197.668V96.571C197.668 96.1307 197.554 95.7884 197.327 95.544C197.102 95.2969 196.787 95.1733 196.381 95.1733C196.108 95.1733 195.864 95.233 195.648 95.3523C195.435 95.4687 195.267 95.6378 195.145 95.8594C195.026 96.081 194.966 96.3494 194.966 96.6648ZM204.955 97.7472V93.9545H206.497V100.5H205.002V99.3366H204.933C204.786 99.7031 204.543 100.003 204.205 100.236C203.869 100.469 203.456 100.585 202.965 100.585C202.536 100.585 202.156 100.49 201.827 100.3C201.5 100.107 201.244 99.8267 201.06 99.4602C200.875 99.0909 200.783 98.6449 200.783 98.1222V93.9545H202.325V97.8835C202.325 98.2983 202.439 98.6278 202.666 98.8722C202.894 99.1165 203.192 99.2386 203.561 99.2386C203.789 99.2386 204.009 99.1832 204.222 99.0724C204.435 98.9616 204.61 98.7969 204.746 98.5781C204.885 98.3565 204.955 98.0795 204.955 97.7472Z" fill="#6B7280"/>
<path d="M225.449 100.5V91.7727H231.04V93.098H227.03V95.4673H230.656V96.7926H227.03V100.5H225.449ZM232.318 100.5V93.9545H233.814V95.0455H233.882C234.001 94.6676 234.206 94.3764 234.496 94.1719C234.788 93.9645 235.122 93.8608 235.497 93.8608C235.582 93.8608 235.677 93.8651 235.782 93.8736C235.89 93.8793 235.98 93.8892 236.051 93.9034V95.3224C235.986 95.2997 235.882 95.2798 235.74 95.2628C235.601 95.2429 235.466 95.233 235.335 95.233C235.054 95.233 234.801 95.294 234.577 95.4162C234.355 95.5355 234.18 95.7017 234.052 95.9148C233.925 96.1278 233.861 96.3736 233.861 96.652V100.5H232.318ZM237.076 100.5V93.9545H238.618V100.5H237.076ZM237.851 93.0256C237.607 93.0256 237.397 92.9446 237.221 92.7827C237.045 92.6179 236.956 92.4205 236.956 92.1903C236.956 91.9574 237.045 91.7599 237.221 91.598C237.397 91.4332 237.607 91.3509 237.851 91.3509C238.099 91.3509 238.309 91.4332 238.482 91.598C238.658 91.7599 238.746 91.9574 238.746 92.1903C238.746 92.4205 238.658 92.6179 238.482 92.7827C238.309 92.9446 238.099 93.0256 237.851 93.0256Z" fill="#6B7280"/>
<path d="M263.983 94.1719C263.943 93.7997 263.775 93.5099 263.48 93.3026C263.187 93.0952 262.806 92.9915 262.338 92.9915C262.008 92.9915 261.725 93.0412 261.49 93.1406C261.254 93.2401 261.074 93.375 260.949 93.5455C260.824 93.7159 260.76 93.9105 260.757 94.1293C260.757 94.3111 260.798 94.4687 260.88 94.6023C260.966 94.7358 261.081 94.8494 261.225 94.9432C261.37 95.0341 261.531 95.1108 261.707 95.1733C261.883 95.2358 262.061 95.2884 262.24 95.331L263.058 95.5355C263.387 95.6122 263.704 95.7159 264.008 95.8466C264.315 95.9773 264.589 96.142 264.831 96.3409C265.075 96.5398 265.268 96.7798 265.41 97.0611C265.552 97.3423 265.623 97.6719 265.623 98.0497C265.623 98.5611 265.493 99.0114 265.231 99.4006C264.97 99.7869 264.592 100.089 264.098 100.308C263.606 100.524 263.011 100.632 262.312 100.632C261.633 100.632 261.044 100.527 260.544 100.317C260.047 100.107 259.657 99.7997 259.376 99.3963C259.098 98.9929 258.947 98.5014 258.924 97.9219H260.48C260.502 98.2259 260.596 98.4787 260.761 98.6804C260.926 98.8821 261.14 99.0327 261.404 99.1321C261.672 99.2315 261.97 99.2812 262.299 99.2812C262.643 99.2812 262.944 99.2301 263.203 99.1278C263.464 99.0227 263.669 98.8778 263.816 98.6932C263.964 98.5057 264.039 98.2869 264.042 98.0369C264.039 97.8097 263.973 97.6222 263.842 97.4744C263.711 97.3239 263.528 97.1989 263.292 97.0994C263.059 96.9972 262.787 96.9062 262.474 96.8267L261.481 96.571C260.762 96.3864 260.194 96.1065 259.777 95.7315C259.362 95.3537 259.154 94.8523 259.154 94.2273C259.154 93.7131 259.294 93.2628 259.572 92.8764C259.853 92.4901 260.235 92.1903 260.718 91.9773C261.201 91.7614 261.748 91.6534 262.359 91.6534C262.978 91.6534 263.521 91.7614 263.987 91.9773C264.456 92.1903 264.824 92.4872 265.091 92.8679C265.358 93.2457 265.495 93.6804 265.504 94.1719H263.983ZM268.848 100.632C268.433 100.632 268.06 100.558 267.727 100.411C267.398 100.26 267.136 100.038 266.943 99.7457C266.753 99.4531 266.658 99.0923 266.658 98.6634C266.658 98.294 266.726 97.9886 266.862 97.7472C266.999 97.5057 267.185 97.3125 267.42 97.1676C267.656 97.0227 267.922 96.9134 268.217 96.8395C268.516 96.7628 268.824 96.7074 269.142 96.6733C269.526 96.6335 269.837 96.598 270.075 96.5668C270.314 96.5327 270.487 96.4815 270.595 96.4134C270.706 96.3423 270.761 96.233 270.761 96.0852V96.0597C270.761 95.7386 270.666 95.4901 270.476 95.3139C270.286 95.1378 270.011 95.0497 269.653 95.0497C269.276 95.0497 268.976 95.1321 268.754 95.2969C268.536 95.4616 268.388 95.6562 268.311 95.8807L266.871 95.6761C266.984 95.2784 267.172 94.946 267.433 94.679C267.695 94.4091 268.014 94.2074 268.392 94.0739C268.77 93.9375 269.188 93.8693 269.645 93.8693C269.96 93.8693 270.274 93.9062 270.587 93.9801C270.899 94.054 271.185 94.1761 271.443 94.3466C271.702 94.5142 271.909 94.7429 272.065 95.0327C272.224 95.3224 272.304 95.6847 272.304 96.1193V100.5H270.821V99.6009H270.77C270.676 99.7827 270.544 99.9531 270.374 100.112C270.206 100.268 269.994 100.395 269.739 100.491C269.486 100.585 269.189 100.632 268.848 100.632ZM269.249 99.4986C269.558 99.4986 269.827 99.4375 270.054 99.3153C270.281 99.1903 270.456 99.0256 270.578 98.821C270.703 98.6165 270.766 98.3935 270.766 98.152V97.3807C270.717 97.4205 270.635 97.4574 270.518 97.4915C270.405 97.5256 270.277 97.5554 270.135 97.581C269.993 97.6065 269.852 97.6293 269.713 97.6491C269.574 97.669 269.453 97.6861 269.351 97.7003C269.121 97.7315 268.915 97.7827 268.733 97.8537C268.551 97.9247 268.408 98.0241 268.303 98.152C268.197 98.277 268.145 98.4389 268.145 98.6378C268.145 98.9219 268.249 99.1364 268.456 99.2812C268.663 99.4261 268.928 99.4986 269.249 99.4986ZM277.124 93.9545V95.1477H273.361V93.9545H277.124ZM274.29 92.3864H275.832V98.5312C275.832 98.7386 275.864 98.8977 275.926 99.0085C275.991 99.1165 276.077 99.1903 276.182 99.2301C276.287 99.2699 276.403 99.2898 276.531 99.2898C276.628 99.2898 276.716 99.2827 276.795 99.2685C276.878 99.2543 276.94 99.2415 276.983 99.2301L277.243 100.436C277.161 100.464 277.043 100.496 276.889 100.53C276.739 100.564 276.554 100.584 276.335 100.589C275.949 100.601 275.601 100.543 275.291 100.415C274.982 100.284 274.736 100.082 274.554 99.8097C274.375 99.5369 274.287 99.196 274.29 98.7869V92.3864Z" fill="#6B7280"/>
</g>
<g clip-path="url(#clip1_2623_17073)">
<path d="M53.1825 124.773V133.5H52.1257V125.881H52.0746L49.9439 127.295V126.222L52.1257 124.773H53.1825Z" fill="#111827"/>
<path d="M85.2706 133.5V132.733L88.1513 129.58C88.4893 129.21 88.7678 128.889 88.9865 128.616C89.2053 128.341 89.3672 128.082 89.4723 127.841C89.5803 127.597 89.6342 127.341 89.6342 127.074C89.6342 126.767 89.5604 126.501 89.4126 126.277C89.2678 126.053 89.0689 125.879 88.8161 125.757C88.5632 125.635 88.2791 125.574 87.9638 125.574C87.6286 125.574 87.3359 125.643 87.0859 125.783C86.8388 125.919 86.647 126.111 86.5107 126.358C86.3771 126.605 86.3104 126.895 86.3104 127.227H85.3047C85.3047 126.716 85.4226 126.267 85.6584 125.881C85.8942 125.494 86.2152 125.193 86.6214 124.977C87.0305 124.761 87.4893 124.653 87.9979 124.653C88.5092 124.653 88.9624 124.761 89.3572 124.977C89.7521 125.193 90.0618 125.484 90.2862 125.851C90.5107 126.217 90.6229 126.625 90.6229 127.074C90.6229 127.395 90.5646 127.709 90.4482 128.016C90.3345 128.32 90.1357 128.659 89.8516 129.034C89.5703 129.406 89.1797 129.861 88.6797 130.398L86.7195 132.494V132.562H90.7763V133.5H85.2706Z" fill="#111827"/>
<path d="M124.032 133.619C123.469 133.619 122.968 133.523 122.528 133.33C122.09 133.136 121.742 132.868 121.484 132.524C121.228 132.178 121.089 131.776 121.066 131.318H122.14C122.163 131.599 122.259 131.842 122.43 132.047C122.6 132.249 122.823 132.405 123.099 132.516C123.374 132.626 123.68 132.682 124.015 132.682C124.39 132.682 124.722 132.616 125.012 132.486C125.302 132.355 125.529 132.173 125.694 131.94C125.859 131.707 125.941 131.438 125.941 131.131C125.941 130.81 125.862 130.527 125.702 130.283C125.543 130.036 125.31 129.842 125.004 129.703C124.697 129.564 124.322 129.494 123.879 129.494H123.18V128.557H123.879C124.225 128.557 124.529 128.494 124.79 128.369C125.055 128.244 125.261 128.068 125.408 127.841C125.559 127.614 125.634 127.347 125.634 127.04C125.634 126.744 125.569 126.487 125.438 126.268C125.308 126.05 125.123 125.879 124.884 125.757C124.648 125.635 124.37 125.574 124.049 125.574C123.748 125.574 123.464 125.629 123.197 125.74C122.933 125.848 122.717 126.006 122.549 126.213C122.381 126.418 122.29 126.665 122.276 126.955H121.254C121.271 126.497 121.408 126.097 121.667 125.753C121.925 125.406 122.263 125.136 122.681 124.943C123.102 124.75 123.563 124.653 124.066 124.653C124.606 124.653 125.069 124.763 125.455 124.982C125.842 125.197 126.138 125.483 126.346 125.838C126.553 126.193 126.657 126.577 126.657 126.989C126.657 127.48 126.528 127.899 126.269 128.246C126.013 128.592 125.665 128.832 125.225 128.966V129.034C125.776 129.125 126.207 129.359 126.516 129.737C126.826 130.112 126.981 130.577 126.981 131.131C126.981 131.605 126.852 132.031 126.593 132.409C126.337 132.784 125.988 133.08 125.545 133.295C125.102 133.511 124.597 133.619 124.032 133.619Z" fill="#111827"/>
<path d="M156.849 131.71V130.841L160.684 124.773H161.315V126.119H160.889L157.991 130.705V130.773H163.156V131.71H156.849ZM160.957 133.5V131.446V131.041V124.773H161.963V133.5H160.957Z" fill="#111827"/>
<path d="M195.98 133.619C195.48 133.619 195.03 133.52 194.629 133.321C194.229 133.122 193.908 132.849 193.666 132.503C193.425 132.156 193.293 131.761 193.27 131.318H194.293C194.333 131.713 194.512 132.04 194.83 132.298C195.151 132.554 195.534 132.682 195.98 132.682C196.338 132.682 196.656 132.598 196.935 132.43C197.216 132.263 197.436 132.033 197.595 131.74C197.757 131.445 197.838 131.111 197.838 130.739C197.838 130.358 197.754 130.018 197.587 129.72C197.422 129.419 197.195 129.182 196.905 129.009C196.615 128.835 196.284 128.747 195.912 128.744C195.645 128.741 195.371 128.783 195.09 128.868C194.808 128.95 194.577 129.057 194.395 129.188L193.406 129.068L193.935 124.773H198.469V125.71H194.821L194.514 128.284H194.566C194.744 128.142 194.969 128.024 195.239 127.93C195.509 127.837 195.79 127.79 196.083 127.79C196.617 127.79 197.093 127.918 197.51 128.173C197.931 128.426 198.26 128.773 198.499 129.213C198.74 129.653 198.861 130.156 198.861 130.722C198.861 131.278 198.736 131.776 198.486 132.213C198.239 132.648 197.898 132.991 197.463 133.244C197.029 133.494 196.534 133.619 195.98 133.619Z" fill="#111827"/>
<path d="M232.057 133.619C231.699 133.614 231.341 133.545 230.983 133.415C230.625 133.284 230.298 133.064 230.003 132.754C229.708 132.442 229.47 132.02 229.291 131.489C229.112 130.955 229.023 130.284 229.023 129.477C229.023 128.705 229.095 128.02 229.24 127.423C229.385 126.824 229.595 126.32 229.871 125.911C230.146 125.499 230.479 125.186 230.868 124.973C231.26 124.76 231.702 124.653 232.193 124.653C232.682 124.653 233.117 124.751 233.497 124.947C233.881 125.141 234.193 125.411 234.435 125.757C234.676 126.104 234.833 126.503 234.904 126.955H233.864C233.767 126.562 233.58 126.237 233.301 125.979C233.023 125.72 232.654 125.591 232.193 125.591C231.517 125.591 230.985 125.885 230.595 126.473C230.209 127.061 230.014 127.886 230.012 128.949H230.08C230.239 128.707 230.428 128.501 230.646 128.331C230.868 128.158 231.112 128.024 231.379 127.93C231.646 127.837 231.929 127.79 232.227 127.79C232.727 127.79 233.185 127.915 233.6 128.165C234.014 128.412 234.347 128.754 234.597 129.192C234.847 129.626 234.972 130.125 234.972 130.688C234.972 131.227 234.851 131.722 234.61 132.17C234.368 132.616 234.029 132.972 233.591 133.236C233.156 133.497 232.645 133.625 232.057 133.619ZM232.057 132.682C232.415 132.682 232.736 132.592 233.02 132.413C233.307 132.234 233.533 131.994 233.698 131.693C233.865 131.392 233.949 131.057 233.949 130.688C233.949 130.327 233.868 129.999 233.706 129.703C233.547 129.405 233.327 129.168 233.046 128.991C232.767 128.815 232.449 128.727 232.091 128.727C231.821 128.727 231.57 128.781 231.337 128.889C231.104 128.994 230.899 129.139 230.723 129.324C230.55 129.509 230.414 129.72 230.314 129.959C230.215 130.195 230.165 130.443 230.165 130.705C230.165 131.051 230.246 131.375 230.408 131.676C230.573 131.977 230.797 132.22 231.081 132.405C231.368 132.589 231.693 132.682 232.057 132.682Z" fill="#111827"/>
<path d="M265.748 133.5L269.652 125.778V125.71H265.152V124.773H270.743V125.761L266.856 133.5H265.748Z" fill="#111827"/>
</g>
<g clip-path="url(#clip2_2623_17073)">
<path d="M52.0016 165.619C51.4164 165.619 50.8993 165.516 50.4505 165.308C50.0044 165.098 49.6564 164.81 49.4064 164.443C49.1564 164.074 49.0328 163.653 49.0357 163.182C49.0328 162.812 49.1053 162.472 49.253 162.159C49.4007 161.844 49.6025 161.581 49.8581 161.371C50.1167 161.158 50.405 161.023 50.7232 160.966V160.915C50.3056 160.807 49.9732 160.572 49.726 160.212C49.4789 159.848 49.3567 159.435 49.3596 158.972C49.3567 158.528 49.4689 158.132 49.6962 157.783C49.9235 157.433 50.236 157.158 50.6337 156.956C51.0343 156.754 51.4902 156.653 52.0016 156.653C52.5073 156.653 52.959 156.754 53.3567 156.956C53.7544 157.158 54.0669 157.433 54.2942 157.783C54.5243 158.132 54.6408 158.528 54.6436 158.972C54.6408 159.435 54.5144 159.848 54.2644 160.212C54.0172 160.572 53.6891 160.807 53.28 160.915V160.966C53.5953 161.023 53.8794 161.158 54.1323 161.371C54.3851 161.581 54.5868 161.844 54.7374 162.159C54.888 162.472 54.9647 162.812 54.9675 163.182C54.9647 163.653 54.8368 164.074 54.584 164.443C54.334 164.81 53.986 165.098 53.54 165.308C53.0968 165.516 52.584 165.619 52.0016 165.619ZM52.0016 164.682C52.3965 164.682 52.7374 164.618 53.0243 164.49C53.3113 164.362 53.5328 164.182 53.6891 163.949C53.8453 163.716 53.9249 163.443 53.9277 163.131C53.9249 162.801 53.8397 162.51 53.6721 162.257C53.5044 162.004 53.2757 161.805 52.986 161.661C52.699 161.516 52.3709 161.443 52.0016 161.443C51.6294 161.443 51.2971 161.516 51.0044 161.661C50.7147 161.805 50.486 162.004 50.3184 162.257C50.1536 162.51 50.0726 162.801 50.0755 163.131C50.0726 163.443 50.1479 163.716 50.3013 163.949C50.4576 164.182 50.6806 164.362 50.9703 164.49C51.2601 164.618 51.6039 164.682 52.0016 164.682ZM52.0016 160.54C52.3141 160.54 52.5911 160.477 52.8326 160.352C53.0769 160.227 53.2686 160.053 53.4078 159.828C53.5471 159.604 53.6181 159.341 53.6209 159.04C53.6181 158.744 53.5485 158.487 53.4121 158.268C53.2757 158.047 53.0868 157.876 52.8453 157.757C52.6039 157.635 52.3226 157.574 52.0016 157.574C51.6749 157.574 51.3894 157.635 51.1451 157.757C50.9007 157.876 50.7118 158.047 50.5783 158.268C50.4448 158.487 50.3794 158.744 50.3823 159.04C50.3794 159.341 50.4462 159.604 50.5826 159.828C50.7218 160.053 50.9135 160.227 51.1578 160.352C51.4022 160.477 51.6834 160.54 52.0016 160.54Z" fill="#111928"/>
<path d="M87.9377 156.653C88.2956 156.656 88.6536 156.724 89.0115 156.858C89.3695 156.991 89.6962 157.213 89.9917 157.523C90.2871 157.83 90.5243 158.249 90.7033 158.78C90.8823 159.311 90.9718 159.977 90.9718 160.778C90.9718 161.554 90.8979 162.243 90.7502 162.845C90.6053 163.445 90.3951 163.95 90.1195 164.362C89.8468 164.774 89.5144 165.087 89.1223 165.3C88.7331 165.513 88.2928 165.619 87.8013 165.619C87.3127 165.619 86.8766 165.523 86.4931 165.33C86.1124 165.134 85.7999 164.862 85.5556 164.516C85.3141 164.166 85.1593 163.761 85.0911 163.301H86.1309C86.2246 163.702 86.4107 164.033 86.6891 164.294C86.9703 164.553 87.3411 164.682 87.8013 164.682C88.4746 164.682 89.0059 164.388 89.3951 163.8C89.7871 163.212 89.9831 162.381 89.9831 161.307H89.915C89.7559 161.545 89.5669 161.751 89.3482 161.925C89.1294 162.098 88.8865 162.232 88.6195 162.325C88.3525 162.419 88.0684 162.466 87.7672 162.466C87.2672 162.466 86.8084 162.342 86.3908 162.095C85.976 161.845 85.6436 161.503 85.3936 161.068C85.1465 160.631 85.0229 160.131 85.0229 159.568C85.0229 159.034 85.1422 158.545 85.3809 158.102C85.6223 157.656 85.9604 157.301 86.3951 157.037C86.8326 156.773 87.3468 156.645 87.9377 156.653ZM87.9377 157.591C87.5797 157.591 87.2573 157.68 86.9703 157.859C86.6863 158.036 86.4604 158.274 86.2928 158.575C86.128 158.874 86.0456 159.205 86.0456 159.568C86.0456 159.932 86.1252 160.263 86.2843 160.561C86.4462 160.857 86.6664 161.092 86.9448 161.268C87.226 161.442 87.5456 161.528 87.9036 161.528C88.1735 161.528 88.4249 161.476 88.6578 161.371C88.8908 161.263 89.0939 161.116 89.2672 160.932C89.4434 160.744 89.5811 160.533 89.6806 160.297C89.78 160.058 89.8297 159.81 89.8297 159.551C89.8297 159.21 89.7473 158.891 89.5826 158.592C89.4206 158.294 89.1962 158.053 88.9093 157.868C88.6252 157.683 88.3013 157.591 87.9377 157.591Z" fill="#111928"/>
<path d="M121.433 156.773V165.5H120.376V157.881H120.325L118.194 159.295V158.222L120.376 156.773H121.433ZM126.789 165.619C126.147 165.619 125.6 165.445 125.148 165.095C124.697 164.743 124.352 164.233 124.113 163.565C123.874 162.895 123.755 162.085 123.755 161.136C123.755 160.193 123.874 159.388 124.113 158.72C124.354 158.05 124.701 157.538 125.153 157.186C125.607 156.831 126.153 156.653 126.789 156.653C127.425 156.653 127.969 156.831 128.421 157.186C128.876 157.538 129.222 158.05 129.461 158.72C129.702 159.388 129.823 160.193 129.823 161.136C129.823 162.085 129.704 162.895 129.465 163.565C129.227 164.233 128.881 164.743 128.43 165.095C127.978 165.445 127.431 165.619 126.789 165.619ZM126.789 164.682C127.425 164.682 127.92 164.375 128.272 163.761C128.624 163.148 128.8 162.273 128.8 161.136C128.8 160.381 128.719 159.737 128.558 159.206C128.398 158.675 128.168 158.27 127.867 157.991C127.569 157.713 127.21 157.574 126.789 157.574C126.158 157.574 125.665 157.885 125.31 158.507C124.955 159.126 124.778 160.003 124.778 161.136C124.778 161.892 124.857 162.534 125.016 163.062C125.175 163.591 125.404 163.993 125.702 164.268C126.004 164.544 126.366 164.682 126.789 164.682Z" fill="#111928"/>
<path d="M158.393 156.773V165.5H157.337V157.881H157.286L155.155 159.295V158.222L157.337 156.773H158.393ZM163.972 156.773V165.5H162.915V157.881H162.864L160.733 159.295V158.222L162.915 156.773H163.972Z" fill="#111928"/>
<path d="M193.55 156.773V165.5H192.493V157.881H192.442L190.311 159.295V158.222L192.493 156.773H193.55ZM196.06 165.5V164.733L198.94 161.58C199.278 161.21 199.557 160.889 199.776 160.616C199.994 160.341 200.156 160.082 200.261 159.841C200.369 159.597 200.423 159.341 200.423 159.074C200.423 158.767 200.349 158.501 200.202 158.277C200.057 158.053 199.858 157.879 199.605 157.757C199.352 157.635 199.068 157.574 198.753 157.574C198.418 157.574 198.125 157.643 197.875 157.783C197.628 157.919 197.436 158.111 197.3 158.358C197.166 158.605 197.099 158.895 197.099 159.227H196.094C196.094 158.716 196.212 158.267 196.447 157.881C196.683 157.494 197.004 157.193 197.411 156.977C197.82 156.761 198.278 156.653 198.787 156.653C199.298 156.653 199.751 156.761 200.146 156.977C200.541 157.193 200.851 157.484 201.075 157.851C201.3 158.217 201.412 158.625 201.412 159.074C201.412 159.395 201.354 159.709 201.237 160.016C201.124 160.32 200.925 160.659 200.641 161.034C200.359 161.406 199.969 161.861 199.469 162.398L197.509 164.494V164.562H201.565V165.5H196.06Z" fill="#111928"/>
<path d="M229.362 156.773V165.5H228.305V157.881H228.254L226.124 159.295V158.222L228.305 156.773H229.362ZM234.821 165.619C234.259 165.619 233.757 165.523 233.317 165.33C232.879 165.136 232.531 164.868 232.273 164.524C232.017 164.178 231.878 163.776 231.855 163.318H232.929C232.952 163.599 233.048 163.842 233.219 164.047C233.389 164.249 233.612 164.405 233.888 164.516C234.163 164.626 234.469 164.682 234.804 164.682C235.179 164.682 235.511 164.616 235.801 164.486C236.091 164.355 236.318 164.173 236.483 163.94C236.648 163.707 236.73 163.438 236.73 163.131C236.73 162.81 236.651 162.527 236.491 162.283C236.332 162.036 236.099 161.842 235.793 161.703C235.486 161.564 235.111 161.494 234.668 161.494H233.969V160.557H234.668C235.014 160.557 235.318 160.494 235.58 160.369C235.844 160.244 236.05 160.068 236.197 159.841C236.348 159.614 236.423 159.347 236.423 159.04C236.423 158.744 236.358 158.487 236.227 158.268C236.097 158.05 235.912 157.879 235.673 157.757C235.438 157.635 235.159 157.574 234.838 157.574C234.537 157.574 234.253 157.629 233.986 157.74C233.722 157.848 233.506 158.006 233.338 158.213C233.17 158.418 233.08 158.665 233.065 158.955H232.043C232.06 158.497 232.197 158.097 232.456 157.753C232.714 157.406 233.053 157.136 233.47 156.943C233.891 156.75 234.352 156.653 234.855 156.653C235.395 156.653 235.858 156.763 236.244 156.982C236.631 157.197 236.928 157.483 237.135 157.838C237.342 158.193 237.446 158.577 237.446 158.989C237.446 159.48 237.317 159.899 237.058 160.246C236.803 160.592 236.455 160.832 236.014 160.966V161.034C236.565 161.125 236.996 161.359 237.305 161.737C237.615 162.112 237.77 162.577 237.77 163.131C237.77 163.605 237.641 164.031 237.382 164.409C237.126 164.784 236.777 165.08 236.334 165.295C235.891 165.511 235.386 165.619 234.821 165.619Z" fill="#111928"/>
<path d="M265.333 156.773V165.5H264.276V157.881H264.225L262.094 159.295V158.222L264.276 156.773H265.333ZM267.638 163.71V162.841L271.474 156.773H272.104V158.119H271.678L268.78 162.705V162.773H273.945V163.71H267.638ZM271.746 165.5V163.446V163.041V156.773H272.752V165.5H271.746Z" fill="#111928"/>
</g>
<g clip-path="url(#clip3_2623_17073)">
<path d="M49.5321 188.773V197.5H48.4753V189.881H48.4242L46.2935 191.295V190.222L48.4753 188.773H49.5321ZM54.7694 197.619C54.2694 197.619 53.8191 197.52 53.4185 197.321C53.0179 197.122 52.6969 196.849 52.4554 196.503C52.214 196.156 52.0819 195.761 52.0591 195.318H53.0819C53.1216 195.713 53.3006 196.04 53.6188 196.298C53.9398 196.554 54.3233 196.682 54.7694 196.682C55.1273 196.682 55.4455 196.598 55.7239 196.43C56.0051 196.263 56.2253 196.033 56.3844 195.74C56.5463 195.445 56.6273 195.111 56.6273 194.739C56.6273 194.358 56.5435 194.018 56.3759 193.72C56.2111 193.419 55.9838 193.182 55.6941 193.009C55.4043 192.835 55.0733 192.747 54.7012 192.744C54.4341 192.741 54.16 192.783 53.8787 192.868C53.5975 192.95 53.3659 193.057 53.1841 193.188L52.1955 193.068L52.7239 188.773H57.258V189.71H53.6103L53.3034 192.284H53.3546C53.5336 192.142 53.758 192.024 54.0279 191.93C54.2978 191.837 54.579 191.79 54.8716 191.79C55.4057 191.79 55.8816 191.918 56.2992 192.173C56.7196 192.426 57.0492 192.773 57.2878 193.213C57.5293 193.653 57.65 194.156 57.65 194.722C57.65 195.278 57.525 195.776 57.275 196.213C57.0279 196.648 56.687 196.991 56.2523 197.244C55.8176 197.494 55.3233 197.619 54.7694 197.619Z" fill="#111928"/>
<path d="M85.4384 188.773V197.5H84.3816V189.881H84.3304L82.1998 191.295V190.222L84.3816 188.773H85.4384ZM90.8461 197.619C90.4881 197.614 90.1301 197.545 89.7722 197.415C89.4142 197.284 89.0875 197.064 88.7921 196.754C88.4966 196.442 88.2594 196.02 88.0804 195.489C87.9015 194.955 87.812 194.284 87.812 193.477C87.812 192.705 87.8844 192.02 88.0293 191.423C88.1742 190.824 88.3844 190.32 88.66 189.911C88.9355 189.499 89.2679 189.186 89.6571 188.973C90.0492 188.76 90.4909 188.653 90.9824 188.653C91.4711 188.653 91.9057 188.751 92.2864 188.947C92.6699 189.141 92.9824 189.411 93.2239 189.757C93.4654 190.104 93.6216 190.503 93.6926 190.955H92.6529C92.5563 190.562 92.3688 190.237 92.0904 189.979C91.812 189.72 91.4426 189.591 90.9824 189.591C90.3063 189.591 89.7736 189.885 89.3844 190.473C88.998 191.061 88.8034 191.886 88.8006 192.949H88.8688C89.0279 192.707 89.2168 192.501 89.4355 192.331C89.6571 192.158 89.9015 192.024 90.1685 191.93C90.4355 191.837 90.7182 191.79 91.0165 191.79C91.5165 191.79 91.9739 191.915 92.3887 192.165C92.8034 192.412 93.1358 192.754 93.3858 193.192C93.6358 193.626 93.7608 194.125 93.7608 194.688C93.7608 195.227 93.6401 195.722 93.3986 196.17C93.1571 196.616 92.8176 196.972 92.3801 197.236C91.9455 197.497 91.4341 197.625 90.8461 197.619ZM90.8461 196.682C91.204 196.682 91.525 196.592 91.8091 196.413C92.0961 196.234 92.3219 195.994 92.4867 195.693C92.6543 195.392 92.7381 195.057 92.7381 194.688C92.7381 194.327 92.6571 193.999 92.4952 193.703C92.3361 193.405 92.1159 193.168 91.8347 192.991C91.5563 192.815 91.2381 192.727 90.8801 192.727C90.6103 192.727 90.3588 192.781 90.1259 192.889C89.8929 192.994 89.6884 193.139 89.5123 193.324C89.339 193.509 89.2026 193.72 89.1032 193.959C89.0037 194.195 88.954 194.443 88.954 194.705C88.954 195.051 89.035 195.375 89.1969 195.676C89.3617 195.977 89.5861 196.22 89.8702 196.405C90.1571 196.589 90.4824 196.682 90.8461 196.682Z" fill="#111928"/>
<path d="M121.755 188.773V197.5H120.698V189.881H120.647L118.516 191.295V190.222L120.698 188.773H121.755ZM124.537 197.5L128.441 189.778V189.71H123.941V188.773H129.532V189.761L125.645 197.5H124.537Z" fill="#111928"/>
<path d="M157.485 188.773V197.5H156.428V189.881H156.377L154.247 191.295V190.222L156.428 188.773H157.485ZM162.791 197.619C162.205 197.619 161.688 197.516 161.24 197.308C160.794 197.098 160.445 196.81 160.195 196.443C159.945 196.074 159.822 195.653 159.825 195.182C159.822 194.812 159.894 194.472 160.042 194.159C160.19 193.844 160.392 193.581 160.647 193.371C160.906 193.158 161.194 193.023 161.512 192.966V192.915C161.095 192.807 160.762 192.572 160.515 192.212C160.268 191.848 160.146 191.435 160.149 190.972C160.146 190.528 160.258 190.132 160.485 189.783C160.713 189.433 161.025 189.158 161.423 188.956C161.823 188.754 162.279 188.653 162.791 188.653C163.296 188.653 163.748 188.754 164.146 188.956C164.544 189.158 164.856 189.433 165.083 189.783C165.313 190.132 165.43 190.528 165.433 190.972C165.43 191.435 165.303 191.848 165.053 192.212C164.806 192.572 164.478 192.807 164.069 192.915V192.966C164.384 193.023 164.669 193.158 164.921 193.371C165.174 193.581 165.376 193.844 165.526 194.159C165.677 194.472 165.754 194.812 165.757 195.182C165.754 195.653 165.626 196.074 165.373 196.443C165.123 196.81 164.775 197.098 164.329 197.308C163.886 197.516 163.373 197.619 162.791 197.619ZM162.791 196.682C163.186 196.682 163.526 196.618 163.813 196.49C164.1 196.362 164.322 196.182 164.478 195.949C164.634 195.716 164.714 195.443 164.717 195.131C164.714 194.801 164.629 194.51 164.461 194.257C164.294 194.004 164.065 193.805 163.775 193.661C163.488 193.516 163.16 193.443 162.791 193.443C162.419 193.443 162.086 193.516 161.794 193.661C161.504 193.805 161.275 194.004 161.107 194.257C160.943 194.51 160.862 194.801 160.865 195.131C160.862 195.443 160.937 195.716 161.09 195.949C161.247 196.182 161.47 196.362 161.759 196.49C162.049 196.618 162.393 196.682 162.791 196.682ZM162.791 192.54C163.103 192.54 163.38 192.477 163.622 192.352C163.866 192.227 164.058 192.053 164.197 191.828C164.336 191.604 164.407 191.341 164.41 191.04C164.407 190.744 164.338 190.487 164.201 190.268C164.065 190.047 163.876 189.876 163.634 189.757C163.393 189.635 163.112 189.574 162.791 189.574C162.464 189.574 162.178 189.635 161.934 189.757C161.69 189.876 161.501 190.047 161.367 190.268C161.234 190.487 161.169 190.744 161.171 191.04C161.169 191.341 161.235 191.604 161.372 191.828C161.511 192.053 161.703 192.227 161.947 192.352C162.191 192.477 162.472 192.54 162.791 192.54Z" fill="#111928"/>
<path d="M193.438 188.773V197.5H192.382V189.881H192.33L190.2 191.295V190.222L192.382 188.773H193.438ZM198.727 188.653C199.085 188.656 199.443 188.724 199.801 188.858C200.159 188.991 200.485 189.213 200.781 189.523C201.076 189.83 201.313 190.249 201.492 190.78C201.671 191.311 201.761 191.977 201.761 192.778C201.761 193.554 201.687 194.243 201.539 194.845C201.394 195.445 201.184 195.95 200.909 196.362C200.636 196.774 200.303 197.087 199.911 197.3C199.522 197.513 199.082 197.619 198.59 197.619C198.102 197.619 197.666 197.523 197.282 197.33C196.901 197.134 196.589 196.862 196.345 196.516C196.103 196.166 195.948 195.761 195.88 195.301H196.92C197.014 195.702 197.2 196.033 197.478 196.294C197.759 196.553 198.13 196.682 198.59 196.682C199.264 196.682 199.795 196.388 200.184 195.8C200.576 195.212 200.772 194.381 200.772 193.307H200.704C200.545 193.545 200.356 193.751 200.137 193.925C199.919 194.098 199.676 194.232 199.409 194.325C199.142 194.419 198.857 194.466 198.556 194.466C198.056 194.466 197.597 194.342 197.18 194.095C196.765 193.845 196.433 193.503 196.183 193.068C195.936 192.631 195.812 192.131 195.812 191.568C195.812 191.034 195.931 190.545 196.17 190.102C196.411 189.656 196.749 189.301 197.184 189.037C197.622 188.773 198.136 188.645 198.727 188.653ZM198.727 189.591C198.369 189.591 198.046 189.68 197.759 189.859C197.475 190.036 197.249 190.274 197.082 190.575C196.917 190.874 196.835 191.205 196.835 191.568C196.835 191.932 196.914 192.263 197.073 192.561C197.235 192.857 197.455 193.092 197.734 193.268C198.015 193.442 198.335 193.528 198.693 193.528C198.963 193.528 199.214 193.476 199.447 193.371C199.68 193.263 199.883 193.116 200.056 192.932C200.232 192.744 200.37 192.533 200.47 192.297C200.569 192.058 200.619 191.81 200.619 191.551C200.619 191.21 200.536 190.891 200.372 190.592C200.21 190.294 199.985 190.053 199.698 189.868C199.414 189.683 199.09 189.591 198.727 189.591Z" fill="#111928"/>
<path d="M225.521 197.5V196.733L228.401 193.58C228.739 193.21 229.018 192.889 229.237 192.616C229.455 192.341 229.617 192.082 229.722 191.841C229.83 191.597 229.884 191.341 229.884 191.074C229.884 190.767 229.81 190.501 229.663 190.277C229.518 190.053 229.319 189.879 229.066 189.757C228.813 189.635 228.529 189.574 228.214 189.574C227.879 189.574 227.586 189.643 227.336 189.783C227.089 189.919 226.897 190.111 226.761 190.358C226.627 190.605 226.56 190.895 226.56 191.227H225.555C225.555 190.716 225.673 190.267 225.908 189.881C226.144 189.494 226.465 189.193 226.871 188.977C227.281 188.761 227.739 188.653 228.248 188.653C228.759 188.653 229.212 188.761 229.607 188.977C230.002 189.193 230.312 189.484 230.536 189.851C230.761 190.217 230.873 190.625 230.873 191.074C230.873 191.395 230.815 191.709 230.698 192.016C230.585 192.32 230.386 192.659 230.102 193.034C229.82 193.406 229.43 193.861 228.93 194.398L226.969 196.494V196.562H231.026V197.5H225.521ZM235.633 197.619C234.991 197.619 234.444 197.445 233.992 197.095C233.54 196.743 233.195 196.233 232.957 195.565C232.718 194.895 232.599 194.085 232.599 193.136C232.599 192.193 232.718 191.388 232.957 190.72C233.198 190.05 233.545 189.538 233.996 189.186C234.451 188.831 234.996 188.653 235.633 188.653C236.269 188.653 236.813 188.831 237.265 189.186C237.719 189.538 238.066 190.05 238.305 190.72C238.546 191.388 238.667 192.193 238.667 193.136C238.667 194.085 238.548 194.895 238.309 195.565C238.07 196.233 237.725 196.743 237.273 197.095C236.822 197.445 236.275 197.619 235.633 197.619ZM235.633 196.682C236.269 196.682 236.763 196.375 237.116 195.761C237.468 195.148 237.644 194.273 237.644 193.136C237.644 192.381 237.563 191.737 237.401 191.206C237.242 190.675 237.012 190.27 236.711 189.991C236.413 189.713 236.053 189.574 235.633 189.574C235.002 189.574 234.509 189.885 234.154 190.507C233.799 191.126 233.621 192.003 233.621 193.136C233.621 193.892 233.701 194.534 233.86 195.062C234.019 195.591 234.248 195.993 234.546 196.268C234.847 196.544 235.21 196.682 235.633 196.682Z" fill="#111928"/>
<path d="M262.482 197.5V196.733L265.362 193.58C265.7 193.21 265.979 192.889 266.197 192.616C266.416 192.341 266.578 192.082 266.683 191.841C266.791 191.597 266.845 191.341 266.845 191.074C266.845 190.767 266.771 190.501 266.624 190.277C266.479 190.053 266.28 189.879 266.027 189.757C265.774 189.635 265.49 189.574 265.175 189.574C264.839 189.574 264.547 189.643 264.297 189.783C264.05 189.919 263.858 190.111 263.722 190.358C263.588 190.605 263.521 190.895 263.521 191.227H262.516C262.516 190.716 262.634 190.267 262.869 189.881C263.105 189.494 263.426 189.193 263.832 188.977C264.241 188.761 264.7 188.653 265.209 188.653C265.72 188.653 266.173 188.761 266.568 188.977C266.963 189.193 267.273 189.484 267.497 189.851C267.722 190.217 267.834 190.625 267.834 191.074C267.834 191.395 267.776 191.709 267.659 192.016C267.545 192.32 267.347 192.659 267.062 193.034C266.781 193.406 266.391 193.861 265.891 194.398L263.93 196.494V196.562H267.987V197.5H262.482ZM272.815 188.773V197.5H271.759V189.881H271.707L269.577 191.295V190.222L271.759 188.773H272.815Z" fill="#111928"/>
</g>
<g clip-path="url(#clip4_2623_17073)">
<path d="M45.6378 229.5V228.733L48.5185 225.58C48.8565 225.21 49.1349 224.889 49.3537 224.616C49.5724 224.341 49.7344 224.082 49.8395 223.841C49.9474 223.597 50.0014 223.341 50.0014 223.074C50.0014 222.767 49.9276 222.501 49.7798 222.277C49.6349 222.053 49.4361 221.879 49.1832 221.757C48.9304 221.635 48.6463 221.574 48.331 221.574C47.9957 221.574 47.7031 221.643 47.4531 221.783C47.206 221.919 47.0142 222.111 46.8778 222.358C46.7443 222.605 46.6776 222.895 46.6776 223.227H45.6719C45.6719 222.716 45.7898 222.267 46.0256 221.881C46.2614 221.494 46.5824 221.193 46.9886 220.977C47.3977 220.761 47.8565 220.653 48.3651 220.653C48.8764 220.653 49.3295 220.761 49.7244 220.977C50.1193 221.193 50.429 221.484 50.6534 221.851C50.8778 222.217 50.9901 222.625 50.9901 223.074C50.9901 223.395 50.9318 223.709 50.8153 224.016C50.7017 224.32 50.5028 224.659 50.2188 225.034C49.9375 225.406 49.5469 225.861 49.0469 226.398L47.0866 228.494V228.562H51.1435V229.5H45.6378ZM52.9034 229.5V228.733L55.7841 225.58C56.1222 225.21 56.4006 224.889 56.6193 224.616C56.8381 224.341 57 224.082 57.1051 223.841C57.2131 223.597 57.267 223.341 57.267 223.074C57.267 222.767 57.1932 222.501 57.0455 222.277C56.9006 222.053 56.7017 221.879 56.4489 221.757C56.196 221.635 55.9119 221.574 55.5966 221.574C55.2614 221.574 54.9688 221.643 54.7188 221.783C54.4716 221.919 54.2798 222.111 54.1435 222.358C54.0099 222.605 53.9432 222.895 53.9432 223.227H52.9375C52.9375 222.716 53.0554 222.267 53.2912 221.881C53.527 221.494 53.848 221.193 54.2543 220.977C54.6634 220.761 55.1222 220.653 55.6307 220.653C56.142 220.653 56.5952 220.761 56.9901 220.977C57.3849 221.193 57.6946 221.484 57.919 221.851C58.1435 222.217 58.2557 222.625 58.2557 223.074C58.2557 223.395 58.1974 223.709 58.081 224.016C57.9673 224.32 57.7685 224.659 57.4844 225.034C57.2031 225.406 56.8125 225.861 56.3125 226.398L54.3523 228.494V228.562H58.4091V229.5H52.9034Z" fill="#111928"/>
<path d="M81.4503 229.5V228.733L84.331 225.58C84.669 225.21 84.9474 224.889 85.1662 224.616C85.3849 224.341 85.5469 224.082 85.652 223.841C85.7599 223.597 85.8139 223.341 85.8139 223.074C85.8139 222.767 85.7401 222.501 85.5923 222.277C85.4474 222.053 85.2486 221.879 84.9957 221.757C84.7429 221.635 84.4588 221.574 84.1435 221.574C83.8082 221.574 83.5156 221.643 83.2656 221.783C83.0185 221.919 82.8267 222.111 82.6903 222.358C82.5568 222.605 82.4901 222.895 82.4901 223.227H81.4844C81.4844 222.716 81.6023 222.267 81.8381 221.881C82.0739 221.494 82.3949 221.193 82.8011 220.977C83.2102 220.761 83.669 220.653 84.1776 220.653C84.6889 220.653 85.142 220.761 85.5369 220.977C85.9318 221.193 86.2415 221.484 86.4659 221.851C86.6903 222.217 86.8026 222.625 86.8026 223.074C86.8026 223.395 86.7443 223.709 86.6278 224.016C86.5142 224.32 86.3153 224.659 86.0312 225.034C85.75 225.406 85.3594 225.861 84.8594 226.398L82.8991 228.494V228.562H86.956V229.5H81.4503ZM91.6648 229.619C91.1023 229.619 90.6009 229.523 90.1605 229.33C89.723 229.136 89.375 228.868 89.1165 228.524C88.8608 228.178 88.7216 227.776 88.6989 227.318H89.7727C89.7955 227.599 89.892 227.842 90.0625 228.047C90.233 228.249 90.456 228.405 90.7315 228.516C91.0071 228.626 91.3125 228.682 91.6477 228.682C92.0227 228.682 92.3551 228.616 92.6449 228.486C92.9347 228.355 93.1619 228.173 93.3267 227.94C93.4915 227.707 93.5739 227.438 93.5739 227.131C93.5739 226.81 93.4943 226.527 93.3352 226.283C93.1761 226.036 92.9432 225.842 92.6364 225.703C92.3295 225.564 91.9545 225.494 91.5114 225.494H90.8125V224.557H91.5114C91.858 224.557 92.1619 224.494 92.4233 224.369C92.6875 224.244 92.8935 224.068 93.0412 223.841C93.1918 223.614 93.267 223.347 93.267 223.04C93.267 222.744 93.2017 222.487 93.071 222.268C92.9403 222.05 92.7557 221.879 92.517 221.757C92.2813 221.635 92.0028 221.574 91.6818 221.574C91.3807 221.574 91.0966 221.629 90.8295 221.74C90.5653 221.848 90.3494 222.006 90.1818 222.213C90.0142 222.418 89.9233 222.665 89.9091 222.955H88.8864C88.9034 222.497 89.0412 222.097 89.2997 221.753C89.5582 221.406 89.8963 221.136 90.3139 220.943C90.7344 220.75 91.196 220.653 91.6989 220.653C92.2386 220.653 92.7017 220.763 93.0881 220.982C93.4744 221.197 93.7713 221.483 93.9787 221.838C94.1861 222.193 94.2898 222.577 94.2898 222.989C94.2898 223.48 94.1605 223.899 93.902 224.246C93.6463 224.592 93.2983 224.832 92.858 224.966V225.034C93.4091 225.125 93.8395 225.359 94.1491 225.737C94.4588 226.112 94.6136 226.577 94.6136 227.131C94.6136 227.605 94.4844 228.031 94.2259 228.409C93.9702 228.784 93.6207 229.08 93.1776 229.295C92.7344 229.511 92.2301 229.619 91.6648 229.619Z" fill="#111928"/>
<path d="M117.515 229.5V228.733L120.395 225.58C120.733 225.21 121.012 224.889 121.231 224.616C121.449 224.341 121.611 224.082 121.716 223.841C121.824 223.597 121.878 223.341 121.878 223.074C121.878 222.767 121.805 222.501 121.657 222.277C121.512 222.053 121.313 221.879 121.06 221.757C120.807 221.635 120.523 221.574 120.208 221.574C119.873 221.574 119.58 221.643 119.33 221.783C119.083 221.919 118.891 222.111 118.755 222.358C118.621 222.605 118.555 222.895 118.555 223.227H117.549C117.549 222.716 117.667 222.267 117.903 221.881C118.138 221.494 118.459 221.193 118.866 220.977C119.275 220.761 119.733 220.653 120.242 220.653C120.753 220.653 121.206 220.761 121.601 220.977C121.996 221.193 122.306 221.484 122.53 221.851C122.755 222.217 122.867 222.625 122.867 223.074C122.867 223.395 122.809 223.709 122.692 224.016C122.579 224.32 122.38 224.659 122.096 225.034C121.814 225.406 121.424 225.861 120.924 226.398L118.964 228.494V228.562H123.02V229.5H117.515ZM124.388 227.71V226.841L128.224 220.773H128.854V222.119H128.428L125.53 226.705V226.773H130.695V227.71H124.388ZM128.496 229.5V227.446V227.041V220.773H129.502V229.5H128.496Z" fill="#111928"/>
<rect x="142.5" y="211" width="35" height="29" rx="7.5" fill="#1A56DB"/>
<path d="M155.847 229.619C155.211 229.619 154.644 229.51 154.147 229.291C153.653 229.07 153.262 228.766 152.975 228.379C152.691 227.99 152.545 227.541 152.536 227.033H154.394C154.406 227.246 154.475 227.433 154.603 227.595C154.734 227.754 154.907 227.878 155.123 227.966C155.339 228.054 155.582 228.098 155.852 228.098C156.133 228.098 156.381 228.048 156.597 227.949C156.813 227.849 156.982 227.712 157.104 227.536C157.227 227.359 157.288 227.156 157.288 226.926C157.288 226.693 157.222 226.487 157.092 226.308C156.964 226.126 156.779 225.984 156.538 225.882C156.299 225.78 156.015 225.729 155.685 225.729H154.871V224.374H155.685C155.964 224.374 156.21 224.325 156.423 224.229C156.638 224.132 156.806 223.999 156.925 223.828C157.045 223.655 157.104 223.453 157.104 223.223C157.104 223.004 157.052 222.812 156.947 222.648C156.844 222.48 156.7 222.349 156.512 222.256C156.327 222.162 156.112 222.115 155.864 222.115C155.614 222.115 155.386 222.161 155.178 222.251C154.971 222.339 154.805 222.466 154.68 222.631C154.555 222.795 154.488 222.989 154.479 223.21H152.711C152.719 222.707 152.863 222.264 153.141 221.881C153.42 221.497 153.795 221.197 154.266 220.982C154.741 220.763 155.276 220.653 155.873 220.653C156.475 220.653 157.002 220.763 157.454 220.982C157.906 221.2 158.256 221.496 158.506 221.868C158.759 222.237 158.884 222.652 158.881 223.112C158.884 223.601 158.732 224.009 158.425 224.335C158.121 224.662 157.725 224.869 157.237 224.957V225.026C157.879 225.108 158.367 225.331 158.702 225.695C159.04 226.055 159.208 226.507 159.205 227.05C159.208 227.547 159.065 227.989 158.775 228.375C158.488 228.761 158.092 229.065 157.586 229.287C157.08 229.509 156.501 229.619 155.847 229.619ZM163.953 229.692C163.221 229.689 162.59 229.509 162.061 229.151C161.536 228.793 161.131 228.274 160.847 227.595C160.566 226.916 160.426 226.099 160.429 225.145C160.429 224.193 160.57 223.382 160.851 222.712C161.135 222.041 161.54 221.531 162.066 221.182C162.594 220.83 163.223 220.653 163.953 220.653C164.684 220.653 165.311 220.83 165.837 221.182C166.365 221.534 166.772 222.045 167.056 222.716C167.34 223.384 167.48 224.193 167.478 225.145C167.478 226.102 167.336 226.92 167.051 227.599C166.77 228.278 166.367 228.797 165.841 229.155C165.316 229.513 164.686 229.692 163.953 229.692ZM163.953 228.162C164.453 228.162 164.853 227.911 165.151 227.408C165.449 226.905 165.597 226.151 165.594 225.145C165.594 224.483 165.526 223.932 165.39 223.491C165.256 223.051 165.066 222.72 164.819 222.499C164.574 222.277 164.286 222.166 163.953 222.166C163.456 222.166 163.059 222.415 162.76 222.912C162.462 223.409 162.311 224.153 162.309 225.145C162.309 225.815 162.375 226.375 162.509 226.824C162.645 227.27 162.837 227.605 163.084 227.83C163.331 228.051 163.621 228.162 163.953 228.162Z" fill="white"/>
<rect x="142.5" y="211" width="35" height="29" rx="7.5" stroke="#1A56DB"/>
<path d="M189.526 229.5V228.733L192.407 225.58C192.745 225.21 193.024 224.889 193.242 224.616C193.461 224.341 193.623 224.082 193.728 223.841C193.836 223.597 193.89 223.341 193.89 223.074C193.89 222.767 193.816 222.501 193.669 222.277C193.524 222.053 193.325 221.879 193.072 221.757C192.819 221.635 192.535 221.574 192.22 221.574C191.884 221.574 191.592 221.643 191.342 221.783C191.095 221.919 190.903 222.111 190.767 222.358C190.633 222.605 190.566 222.895 190.566 223.227H189.561C189.561 222.716 189.678 222.267 189.914 221.881C190.15 221.494 190.471 221.193 190.877 220.977C191.286 220.761 191.745 220.653 192.254 220.653C192.765 220.653 193.218 220.761 193.613 220.977C194.008 221.193 194.318 221.484 194.542 221.851C194.767 222.217 194.879 222.625 194.879 223.074C194.879 223.395 194.82 223.709 194.704 224.016C194.59 224.32 194.392 224.659 194.107 225.034C193.826 225.406 193.436 225.861 192.936 226.398L190.975 228.494V228.562H195.032V229.5H189.526ZM199.69 229.619C199.332 229.614 198.974 229.545 198.616 229.415C198.258 229.284 197.931 229.064 197.636 228.754C197.34 228.442 197.103 228.02 196.924 227.489C196.745 226.955 196.656 226.284 196.656 225.477C196.656 224.705 196.728 224.02 196.873 223.423C197.018 222.824 197.228 222.32 197.504 221.911C197.779 221.499 198.112 221.186 198.501 220.973C198.893 220.76 199.335 220.653 199.826 220.653C200.315 220.653 200.749 220.751 201.13 220.947C201.514 221.141 201.826 221.411 202.068 221.757C202.309 222.104 202.465 222.503 202.536 222.955H201.497C201.4 222.562 201.213 222.237 200.934 221.979C200.656 221.72 200.286 221.591 199.826 221.591C199.15 221.591 198.617 221.885 198.228 222.473C197.842 223.061 197.647 223.886 197.644 224.949H197.713C197.872 224.707 198.061 224.501 198.279 224.331C198.501 224.158 198.745 224.024 199.012 223.93C199.279 223.837 199.562 223.79 199.86 223.79C200.36 223.79 200.818 223.915 201.232 224.165C201.647 224.412 201.98 224.754 202.23 225.192C202.48 225.626 202.605 226.125 202.605 226.688C202.605 227.227 202.484 227.722 202.242 228.17C202.001 228.616 201.661 228.972 201.224 229.236C200.789 229.497 200.278 229.625 199.69 229.619ZM199.69 228.682C200.048 228.682 200.369 228.592 200.653 228.413C200.94 228.234 201.166 227.994 201.33 227.693C201.498 227.392 201.582 227.057 201.582 226.688C201.582 226.327 201.501 225.999 201.339 225.703C201.18 225.405 200.96 225.168 200.678 224.991C200.4 224.815 200.082 224.727 199.724 224.727C199.454 224.727 199.203 224.781 198.97 224.889C198.737 224.994 198.532 225.139 198.356 225.324C198.183 225.509 198.046 225.72 197.947 225.959C197.847 226.195 197.798 226.443 197.798 226.705C197.798 227.051 197.879 227.375 198.041 227.676C198.205 227.977 198.43 228.22 198.714 228.405C199.001 228.589 199.326 228.682 199.69 228.682Z" fill="#111928"/>
<path d="M225.843 229.5V228.733L228.724 225.58C229.062 225.21 229.34 224.889 229.559 224.616C229.778 224.341 229.939 224.082 230.045 223.841C230.153 223.597 230.206 223.341 230.206 223.074C230.206 222.767 230.133 222.501 229.985 222.277C229.84 222.053 229.641 221.879 229.388 221.757C229.135 221.635 228.851 221.574 228.536 221.574C228.201 221.574 227.908 221.643 227.658 221.783C227.411 221.919 227.219 222.111 227.083 222.358C226.949 222.605 226.883 222.895 226.883 223.227H225.877C225.877 222.716 225.995 222.267 226.231 221.881C226.466 221.494 226.787 221.193 227.194 220.977C227.603 220.761 228.062 220.653 228.57 220.653C229.081 220.653 229.535 220.761 229.93 220.977C230.324 221.193 230.634 221.484 230.858 221.851C231.083 222.217 231.195 222.625 231.195 223.074C231.195 223.395 231.137 223.709 231.02 224.016C230.907 224.32 230.708 224.659 230.424 225.034C230.143 225.406 229.752 225.861 229.252 226.398L227.292 228.494V228.562H231.349V229.5H225.843ZM233.381 229.5L237.285 221.778V221.71H232.785V220.773H238.376V221.761L234.489 229.5H233.381Z" fill="#111928"/>
<path d="M261.573 229.5V228.733L264.454 225.58C264.792 225.21 265.07 224.889 265.289 224.616C265.508 224.341 265.67 224.082 265.775 223.841C265.883 223.597 265.937 223.341 265.937 223.074C265.937 222.767 265.863 222.501 265.715 222.277C265.57 222.053 265.372 221.879 265.119 221.757C264.866 221.635 264.582 221.574 264.267 221.574C263.931 221.574 263.639 221.643 263.389 221.783C263.142 221.919 262.95 222.111 262.813 222.358C262.68 222.605 262.613 222.895 262.613 223.227H261.607C261.607 222.716 261.725 222.267 261.961 221.881C262.197 221.494 262.518 221.193 262.924 220.977C263.333 220.761 263.792 220.653 264.301 220.653C264.812 220.653 265.265 220.761 265.66 220.977C266.055 221.193 266.365 221.484 266.589 221.851C266.813 222.217 266.926 222.625 266.926 223.074C266.926 223.395 266.867 223.709 266.751 224.016C266.637 224.32 266.438 224.659 266.154 225.034C265.873 225.406 265.482 225.861 264.982 226.398L263.022 228.494V228.562H267.079V229.5H261.573ZM271.634 229.619C271.049 229.619 270.532 229.516 270.083 229.308C269.637 229.098 269.289 228.81 269.039 228.443C268.789 228.074 268.666 227.653 268.669 227.182C268.666 226.812 268.738 226.472 268.886 226.159C269.034 225.844 269.235 225.581 269.491 225.371C269.749 225.158 270.038 225.023 270.356 224.966V224.915C269.938 224.807 269.606 224.572 269.359 224.212C269.112 223.848 268.99 223.435 268.992 222.972C268.99 222.528 269.102 222.132 269.329 221.783C269.556 221.433 269.869 221.158 270.267 220.956C270.667 220.754 271.123 220.653 271.634 220.653C272.14 220.653 272.592 220.754 272.99 220.956C273.387 221.158 273.7 221.433 273.927 221.783C274.157 222.132 274.274 222.528 274.276 222.972C274.274 223.435 274.147 223.848 273.897 224.212C273.65 224.572 273.322 224.807 272.913 224.915V224.966C273.228 225.023 273.512 225.158 273.765 225.371C274.018 225.581 274.22 225.844 274.37 226.159C274.521 226.472 274.597 226.812 274.6 227.182C274.597 227.653 274.47 228.074 274.217 228.443C273.967 228.81 273.619 229.098 273.173 229.308C272.73 229.516 272.217 229.619 271.634 229.619ZM271.634 228.682C272.029 228.682 272.37 228.618 272.657 228.49C272.944 228.362 273.166 228.182 273.322 227.949C273.478 227.716 273.558 227.443 273.561 227.131C273.558 226.801 273.472 226.51 273.305 226.257C273.137 226.004 272.909 225.805 272.619 225.661C272.332 225.516 272.004 225.443 271.634 225.443C271.262 225.443 270.93 225.516 270.637 225.661C270.347 225.805 270.119 226.004 269.951 226.257C269.786 226.51 269.705 226.801 269.708 227.131C269.705 227.443 269.781 227.716 269.934 227.949C270.09 228.182 270.313 228.362 270.603 228.49C270.893 228.618 271.237 228.682 271.634 228.682ZM271.634 224.54C271.947 224.54 272.224 224.477 272.465 224.352C272.71 224.227 272.901 224.053 273.041 223.828C273.18 223.604 273.251 223.341 273.254 223.04C273.251 222.744 273.181 222.487 273.045 222.268C272.909 222.047 272.72 221.876 272.478 221.757C272.237 221.635 271.955 221.574 271.634 221.574C271.308 221.574 271.022 221.635 270.778 221.757C270.534 221.876 270.345 222.047 270.211 222.268C270.078 222.487 270.012 222.744 270.015 223.04C270.012 223.341 270.079 223.604 270.215 223.828C270.355 224.053 270.546 224.227 270.791 224.352C271.035 224.477 271.316 224.54 271.634 224.54Z" fill="#111928"/>
</g>
<g clip-path="url(#clip5_2623_17073)">
<path d="M45.5265 261.5V260.733L48.4071 257.58C48.7452 257.21 49.0236 256.889 49.2424 256.616C49.4611 256.341 49.623 256.082 49.7282 255.841C49.8361 255.597 49.8901 255.341 49.8901 255.074C49.8901 254.767 49.8162 254.501 49.6685 254.277C49.5236 254.053 49.3248 253.879 49.0719 253.757C48.8191 253.635 48.535 253.574 48.2196 253.574C47.8844 253.574 47.5918 253.643 47.3418 253.783C47.0946 253.919 46.9029 254.111 46.7665 254.358C46.633 254.605 46.5662 254.895 46.5662 255.227H45.5605C45.5605 254.716 45.6784 254.267 45.9142 253.881C46.15 253.494 46.4711 253.193 46.8773 252.977C47.2864 252.761 47.7452 252.653 48.2537 252.653C48.7651 252.653 49.2182 252.761 49.6131 252.977C50.008 253.193 50.3176 253.484 50.5421 253.851C50.7665 254.217 50.8787 254.625 50.8787 255.074C50.8787 255.395 50.8205 255.709 50.704 256.016C50.5904 256.32 50.3915 256.659 50.1074 257.034C49.8262 257.406 49.4355 257.861 48.9355 258.398L46.9753 260.494V260.562H51.0321V261.5H45.5265ZM55.5705 252.653C55.9284 252.656 56.2864 252.724 56.6444 252.858C57.0023 252.991 57.329 253.213 57.6245 253.523C57.9199 253.83 58.1571 254.249 58.3361 254.78C58.5151 255.311 58.6046 255.977 58.6046 256.778C58.6046 257.554 58.5307 258.243 58.383 258.845C58.2381 259.445 58.0279 259.95 57.7523 260.362C57.4796 260.774 57.1472 261.087 56.7551 261.3C56.3659 261.513 55.9256 261.619 55.4341 261.619C54.9455 261.619 54.5094 261.523 54.1259 261.33C53.7452 261.134 53.4327 260.862 53.1884 260.516C52.9469 260.166 52.7921 259.761 52.7239 259.301H53.7637C53.8574 259.702 54.0435 260.033 54.3219 260.294C54.6032 260.553 54.9739 260.682 55.4341 260.682C56.1074 260.682 56.6387 260.388 57.0279 259.8C57.4199 259.212 57.6159 258.381 57.6159 257.307H57.5478C57.3887 257.545 57.1998 257.751 56.981 257.925C56.7623 258.098 56.5194 258.232 56.2523 258.325C55.9853 258.419 55.7012 258.466 55.4 258.466C54.9 258.466 54.4412 258.342 54.0236 258.095C53.6088 257.845 53.2765 257.503 53.0265 257.068C52.7793 256.631 52.6557 256.131 52.6557 255.568C52.6557 255.034 52.775 254.545 53.0137 254.102C53.2551 253.656 53.5932 253.301 54.0279 253.037C54.4654 252.773 54.9796 252.645 55.5705 252.653ZM55.5705 253.591C55.2125 253.591 54.8901 253.68 54.6032 253.859C54.3191 254.036 54.0932 254.274 53.9256 254.575C53.7608 254.874 53.6784 255.205 53.6784 255.568C53.6784 255.932 53.758 256.263 53.9171 256.561C54.079 256.857 54.2992 257.092 54.5776 257.268C54.8588 257.442 55.1784 257.528 55.5364 257.528C55.8063 257.528 56.0577 257.476 56.2907 257.371C56.5236 257.263 56.7267 257.116 56.9 256.932C57.0762 256.744 57.214 256.533 57.3134 256.297C57.4128 256.058 57.4625 255.81 57.4625 255.551C57.4625 255.21 57.3801 254.891 57.2154 254.592C57.0534 254.294 56.829 254.053 56.5421 253.868C56.258 253.683 55.9341 253.591 55.5705 253.591Z" fill="#111827"/>
<path d="M84.282 261.619C83.7195 261.619 83.218 261.523 82.7777 261.33C82.3402 261.136 81.9922 260.868 81.7337 260.524C81.478 260.178 81.3388 259.776 81.3161 259.318H82.3899C82.4126 259.599 82.5092 259.842 82.6797 260.047C82.8501 260.249 83.0732 260.405 83.3487 260.516C83.6243 260.626 83.9297 260.682 84.2649 260.682C84.6399 260.682 84.9723 260.616 85.2621 260.486C85.5518 260.355 85.7791 260.173 85.9439 259.94C86.1087 259.707 86.1911 259.438 86.1911 259.131C86.1911 258.81 86.1115 258.527 85.9524 258.283C85.7933 258.036 85.5604 257.842 85.2536 257.703C84.9467 257.564 84.5717 257.494 84.1286 257.494H83.4297V256.557H84.1286C84.4751 256.557 84.7791 256.494 85.0405 256.369C85.3047 256.244 85.5107 256.068 85.6584 255.841C85.8089 255.614 85.8842 255.347 85.8842 255.04C85.8842 254.744 85.8189 254.487 85.6882 254.268C85.5575 254.05 85.3729 253.879 85.1342 253.757C84.8984 253.635 84.62 253.574 84.299 253.574C83.9979 253.574 83.7138 253.629 83.4467 253.74C83.1825 253.848 82.9666 254.006 82.799 254.213C82.6314 254.418 82.5405 254.665 82.5263 254.955H81.5036C81.5206 254.497 81.6584 254.097 81.9169 253.753C82.1754 253.406 82.5135 253.136 82.9311 252.943C83.3516 252.75 83.8132 252.653 84.3161 252.653C84.8558 252.653 85.3189 252.763 85.7053 252.982C86.0916 253.197 86.3885 253.483 86.5959 253.838C86.8033 254.193 86.907 254.577 86.907 254.989C86.907 255.48 86.7777 255.899 86.5192 256.246C86.2635 256.592 85.9155 256.832 85.4751 256.966V257.034C86.0263 257.125 86.4567 257.359 86.7663 257.737C87.076 258.112 87.2308 258.577 87.2308 259.131C87.2308 259.605 87.1016 260.031 86.843 260.409C86.5874 260.784 86.2379 261.08 85.7947 261.295C85.3516 261.511 84.8473 261.619 84.282 261.619ZM91.8203 261.619C91.1783 261.619 90.6314 261.445 90.1797 261.095C89.728 260.743 89.3828 260.233 89.1442 259.565C88.9055 258.895 88.7862 258.085 88.7862 257.136C88.7862 256.193 88.9055 255.388 89.1442 254.72C89.3857 254.05 89.7322 253.538 90.1839 253.186C90.6385 252.831 91.1839 252.653 91.8203 252.653C92.4567 252.653 93.0007 252.831 93.4524 253.186C93.907 253.538 94.2536 254.05 94.4922 254.72C94.7337 255.388 94.8544 256.193 94.8544 257.136C94.8544 258.085 94.7351 258.895 94.4964 259.565C94.2578 260.233 93.9126 260.743 93.4609 261.095C93.0092 261.445 92.4624 261.619 91.8203 261.619ZM91.8203 260.682C92.4567 260.682 92.951 260.375 93.3033 259.761C93.6555 259.148 93.8317 258.273 93.8317 257.136C93.8317 256.381 93.7507 255.737 93.5888 255.206C93.4297 254.675 93.1996 254.27 92.8984 253.991C92.6001 253.713 92.2408 253.574 91.8203 253.574C91.1896 253.574 90.6967 253.885 90.3416 254.507C89.9865 255.126 89.8089 256.003 89.8089 257.136C89.8089 257.892 89.8885 258.534 90.0476 259.062C90.2067 259.591 90.4354 259.993 90.7337 260.268C91.0348 260.544 91.397 260.682 91.8203 260.682Z" fill="#111928"/>
<path d="M125.183 252.773V261.5H124.126V253.881H124.075L121.944 255.295V254.222L124.126 252.773H125.183Z" fill="#9CA3AF"/>
<path d="M157.271 261.5V260.733L160.151 257.58C160.489 257.21 160.768 256.889 160.987 256.616C161.205 256.341 161.367 256.082 161.472 255.841C161.58 255.597 161.634 255.341 161.634 255.074C161.634 254.767 161.56 254.501 161.413 254.277C161.268 254.053 161.069 253.879 160.816 253.757C160.563 253.635 160.279 253.574 159.964 253.574C159.629 253.574 159.336 253.643 159.086 253.783C158.839 253.919 158.647 254.111 158.511 254.358C158.377 254.605 158.31 254.895 158.31 255.227H157.305C157.305 254.716 157.423 254.267 157.658 253.881C157.894 253.494 158.215 253.193 158.621 252.977C159.031 252.761 159.489 252.653 159.998 252.653C160.509 252.653 160.962 252.761 161.357 252.977C161.752 253.193 162.062 253.484 162.286 253.851C162.511 254.217 162.623 254.625 162.623 255.074C162.623 255.395 162.565 255.709 162.448 256.016C162.335 256.32 162.136 256.659 161.852 257.034C161.57 257.406 161.18 257.861 160.68 258.398L158.719 260.494V260.562H162.776V261.5H157.271Z" fill="#9CA3AF"/>
<path d="M196.032 261.619C195.469 261.619 194.968 261.523 194.528 261.33C194.09 261.136 193.742 260.868 193.484 260.524C193.228 260.178 193.089 259.776 193.066 259.318H194.14C194.163 259.599 194.259 259.842 194.43 260.047C194.6 260.249 194.823 260.405 195.099 260.516C195.374 260.626 195.68 260.682 196.015 260.682C196.39 260.682 196.722 260.616 197.012 260.486C197.302 260.355 197.529 260.173 197.694 259.94C197.859 259.707 197.941 259.438 197.941 259.131C197.941 258.81 197.862 258.527 197.702 258.283C197.543 258.036 197.31 257.842 197.004 257.703C196.697 257.564 196.322 257.494 195.879 257.494H195.18V256.557H195.879C196.225 256.557 196.529 256.494 196.79 256.369C197.055 256.244 197.261 256.068 197.408 255.841C197.559 255.614 197.634 255.347 197.634 255.04C197.634 254.744 197.569 254.487 197.438 254.268C197.308 254.05 197.123 253.879 196.884 253.757C196.648 253.635 196.37 253.574 196.049 253.574C195.748 253.574 195.464 253.629 195.197 253.74C194.933 253.848 194.717 254.006 194.549 254.213C194.381 254.418 194.29 254.665 194.276 254.955H193.254C193.271 254.497 193.408 254.097 193.667 253.753C193.925 253.406 194.263 253.136 194.681 252.943C195.102 252.75 195.563 252.653 196.066 252.653C196.606 252.653 197.069 252.763 197.455 252.982C197.842 253.197 198.138 253.483 198.346 253.838C198.553 254.193 198.657 254.577 198.657 254.989C198.657 255.48 198.528 255.899 198.269 256.246C198.013 256.592 197.665 256.832 197.225 256.966V257.034C197.776 257.125 198.207 257.359 198.516 257.737C198.826 258.112 198.981 258.577 198.981 259.131C198.981 259.605 198.852 260.031 198.593 260.409C198.337 260.784 197.988 261.08 197.545 261.295C197.102 261.511 196.597 261.619 196.032 261.619Z" fill="#9CA3AF"/>
<path d="M228.849 259.71V258.841L232.684 252.773H233.315V254.119H232.889L229.991 258.705V258.773H235.156V259.71H228.849ZM232.957 261.5V259.446V259.041V252.773H233.963V261.5H232.957Z" fill="#9CA3AF"/>
<path d="M267.98 261.619C267.48 261.619 267.03 261.52 266.629 261.321C266.229 261.122 265.908 260.849 265.666 260.503C265.425 260.156 265.293 259.761 265.27 259.318H266.293C266.333 259.713 266.512 260.04 266.83 260.298C267.151 260.554 267.534 260.682 267.98 260.682C268.338 260.682 268.656 260.598 268.935 260.43C269.216 260.263 269.436 260.033 269.595 259.74C269.757 259.445 269.838 259.111 269.838 258.739C269.838 258.358 269.754 258.018 269.587 257.72C269.422 257.419 269.195 257.182 268.905 257.009C268.615 256.835 268.284 256.747 267.912 256.744C267.645 256.741 267.371 256.783 267.09 256.868C266.808 256.95 266.577 257.057 266.395 257.188L265.406 257.068L265.935 252.773H270.469V253.71H266.821L266.514 256.284H266.566C266.744 256.142 266.969 256.024 267.239 255.93C267.509 255.837 267.79 255.79 268.083 255.79C268.617 255.79 269.093 255.918 269.51 256.173C269.931 256.426 270.26 256.773 270.499 257.213C270.74 257.653 270.861 258.156 270.861 258.722C270.861 259.278 270.736 259.776 270.486 260.213C270.239 260.648 269.898 260.991 269.463 261.244C269.029 261.494 268.534 261.619 267.98 261.619Z" fill="#9CA3AF"/>
</g>
</g>
<defs>
<filter id="filter0_dd_2623_17073" x="15" y="37" width="290" height="249" filterUnits="userSpaceOnUse" color-interpolation-filters="sRGB">
<feFlood flood-opacity="0" result="BackgroundImageFix"/>
<feColorMatrix in="SourceAlpha" type="matrix" values="0 0 0 0 0 0 0 0 0 0 0 0 0 0 0 0 0 0 127 0" result="hardAlpha"/>
<feMorphology radius="1" operator="erode" in="SourceAlpha" result="effect1_dropShadow_2623_17073"/>
<feOffset dy="1"/>
<feGaussianBlur stdDeviation="1"/>
<feColorMatrix type="matrix" values="0 0 0 0 0 0 0 0 0 0 0 0 0 0 0 0 0 0 0.1 0"/>
<feBlend mode="normal" in2="BackgroundImageFix" result="effect1_dropShadow_2623_17073"/>
<feColorMatrix in="SourceAlpha" type="matrix" values="0 0 0 0 0 0 0 0 0 0 0 0 0 0 0 0 0 0 127 0" result="hardAlpha"/>
<feOffset dy="1"/>
<feGaussianBlur stdDeviation="1.5"/>
<feColorMatrix type="matrix" values="0 0 0 0 0 0 0 0 0 0 0 0 0 0 0 0 0 0 0.1 0"/>
<feBlend mode="normal" in2="effect1_dropShadow_2623_17073" result="effect2_dropShadow_2623_17073"/>
<feBlend mode="normal" in="SourceGraphic" in2="effect2_dropShadow_2623_17073" result="shape"/>
</filter>
<clipPath id="clip0_2623_17073">
<rect width="252" height="34" fill="white" transform="translate(34 79.5)"/>
</clipPath>
<clipPath id="clip1_2623_17073">
<rect width="252" height="32" fill="white" transform="translate(34 113.5)"/>
</clipPath>
<clipPath id="clip2_2623_17073">
<rect width="252" height="32" fill="white" transform="translate(34 145.5)"/>
</clipPath>
<clipPath id="clip3_2623_17073">
<rect width="252" height="32" fill="white" transform="translate(34 177.5)"/>
</clipPath>
<clipPath id="clip4_2623_17073">
<rect width="252" height="32" fill="white" transform="translate(34 209.5)"/>
</clipPath>
<clipPath id="clip5_2623_17073">
<rect width="252" height="32" fill="white" transform="translate(34 241.5)"/>
</clipPath>
</defs>
</svg>
