<svg width="320" height="320" viewBox="0 0 320 320" fill="none" xmlns="http://www.w3.org/2000/svg">
<g filter="url(#filter0_ddd_2623_17420)">
<path d="M48 110C48 106.686 50.6863 104 54 104H266C269.314 104 272 106.686 272 110V254C272 257.314 269.314 260 266 260H54C50.6863 260 48 257.314 48 254V110Z" fill="white"/>
<path d="M65.233 132V121.818H71.3778V122.912H66.4659V126.352H71.0597V127.446H66.4659V130.906H71.4574V132H65.233ZM76.3246 132.159C75.6882 132.159 75.1264 131.998 74.6392 131.677C74.152 131.352 73.7708 130.895 73.4957 130.305C73.2206 129.711 73.0831 129.01 73.0831 128.202C73.0831 127.4 73.2206 126.704 73.4957 126.114C73.7708 125.524 74.1536 125.068 74.6442 124.746C75.1347 124.425 75.7015 124.264 76.3445 124.264C76.8416 124.264 77.2344 124.347 77.5227 124.513C77.8144 124.675 78.0365 124.861 78.1889 125.07C78.3447 125.275 78.4657 125.444 78.5518 125.577H78.6513V121.818H79.8246V132H78.6911V130.827H78.5518C78.4657 130.966 78.343 131.142 78.1839 131.354C78.0249 131.562 77.7978 131.75 77.5028 131.915C77.2079 132.078 76.8151 132.159 76.3246 132.159ZM76.4837 131.105C76.9543 131.105 77.352 130.982 77.6768 130.737C78.0017 130.489 78.2486 130.146 78.4176 129.708C78.5866 129.267 78.6712 128.759 78.6712 128.182C78.6712 127.612 78.5883 127.113 78.4226 126.685C78.2569 126.254 78.0116 125.92 77.6868 125.681C77.362 125.439 76.9609 125.318 76.4837 125.318C75.9865 125.318 75.5722 125.446 75.2408 125.701C74.9126 125.953 74.6657 126.296 74.5 126.73C74.3376 127.161 74.2564 127.645 74.2564 128.182C74.2564 128.725 74.3393 129.219 74.505 129.663C74.674 130.104 74.9226 130.455 75.2507 130.717C75.5821 130.976 75.9931 131.105 76.4837 131.105ZM82.1364 132V124.364H83.3097V132H82.1364ZM82.733 123.091C82.5043 123.091 82.3071 123.013 82.1413 122.857C81.9789 122.701 81.8977 122.514 81.8977 122.295C81.8977 122.077 81.9789 121.889 82.1413 121.734C82.3071 121.578 82.5043 121.5 82.733 121.5C82.9616 121.5 83.1572 121.578 83.3196 121.734C83.4853 121.889 83.5682 122.077 83.5682 122.295C83.5682 122.514 83.4853 122.701 83.3196 122.857C83.1572 123.013 82.9616 123.091 82.733 123.091ZM88.7797 124.364V125.358H84.8223V124.364H88.7797ZM85.9757 122.534H87.149V129.812C87.149 130.144 87.197 130.393 87.2931 130.558C87.3926 130.721 87.5185 130.83 87.671 130.886C87.8268 130.939 87.9908 130.966 88.1632 130.966C88.2924 130.966 88.3985 130.959 88.4814 130.946C88.5642 130.929 88.6305 130.916 88.6802 130.906L88.9189 131.96C88.8393 131.99 88.7283 132.02 88.5858 132.05C88.4432 132.083 88.2626 132.099 88.0439 132.099C87.7124 132.099 87.3876 132.028 87.0694 131.886C86.7546 131.743 86.4927 131.526 86.2839 131.234C86.0784 130.943 85.9757 130.575 85.9757 130.131V122.534Z" fill="#111827"/>
<path d="M68.375 169H65.233V158.818H68.5142C69.5019 158.818 70.3471 159.022 71.0497 159.43C71.7524 159.834 72.291 160.416 72.6655 161.175C73.04 161.93 73.2273 162.835 73.2273 163.889C73.2273 164.95 73.0384 165.863 72.6605 166.629C72.2827 167.391 71.7325 167.978 71.0099 168.388C70.2874 168.796 69.4091 169 68.375 169ZM66.4659 167.906H68.2955C69.1373 167.906 69.835 167.744 70.3885 167.419C70.942 167.094 71.3546 166.632 71.6264 166.032C71.8982 165.432 72.0341 164.718 72.0341 163.889C72.0341 163.067 71.8999 162.36 71.6314 161.766C71.3629 161.17 70.9619 160.712 70.4283 160.394C69.8946 160.073 69.2301 159.912 68.4347 159.912H66.4659V167.906ZM79.9489 165.878V161.364H81.1222V169H79.9489V167.707H79.8693C79.6903 168.095 79.4119 168.425 79.0341 168.697C78.6563 168.965 78.179 169.099 77.6023 169.099C77.125 169.099 76.7008 168.995 76.3295 168.786C75.9583 168.574 75.6667 168.256 75.4545 167.832C75.2424 167.404 75.1364 166.866 75.1364 166.216V161.364H76.3097V166.136C76.3097 166.693 76.4654 167.137 76.777 167.469C77.0919 167.8 77.4929 167.966 77.9801 167.966C78.2718 167.966 78.5684 167.891 78.87 167.742C79.175 167.593 79.4302 167.364 79.6357 167.056C79.8445 166.748 79.9489 166.355 79.9489 165.878ZM83.2711 171.864V161.364H84.4047V162.577H84.5439C84.63 162.444 84.7493 162.275 84.9018 162.07C85.0576 161.861 85.2797 161.675 85.568 161.513C85.8597 161.347 86.2541 161.264 86.7512 161.264C87.3942 161.264 87.961 161.425 88.4515 161.746C88.9421 162.068 89.3249 162.524 89.6 163.114C89.8751 163.704 90.0126 164.4 90.0126 165.202C90.0126 166.01 89.8751 166.711 89.6 167.305C89.3249 167.895 88.9437 168.352 88.4565 168.677C87.9693 168.998 87.4075 169.159 86.7711 169.159C86.2806 169.159 85.8878 169.078 85.5929 168.915C85.2979 168.75 85.0708 168.562 84.9118 168.354C84.7527 168.142 84.63 167.966 84.5439 167.827H84.4444V171.864H83.2711ZM84.4245 165.182C84.4245 165.759 84.5091 166.267 84.6781 166.708C84.8471 167.146 85.094 167.489 85.4189 167.737C85.7437 167.982 86.1414 168.105 86.612 168.105C87.1026 168.105 87.5119 167.976 87.84 167.717C88.1715 167.455 88.42 167.104 88.5858 166.663C88.7548 166.219 88.8393 165.725 88.8393 165.182C88.8393 164.645 88.7565 164.161 88.5907 163.73C88.4283 163.296 88.1814 162.953 87.85 162.701C87.5218 162.446 87.1092 162.318 86.612 162.318C86.1348 162.318 85.7337 162.439 85.4089 162.681C85.0841 162.92 84.8388 163.254 84.6731 163.685C84.5074 164.113 84.4245 164.612 84.4245 165.182ZM92.9757 158.818V169H91.8024V158.818H92.9757ZM95.1246 169V161.364H96.2979V169H95.1246ZM95.7212 160.091C95.4925 160.091 95.2953 160.013 95.1296 159.857C94.9672 159.701 94.886 159.514 94.886 159.295C94.886 159.077 94.9672 158.889 95.1296 158.734C95.2953 158.578 95.4925 158.5 95.7212 158.5C95.9499 158.5 96.1455 158.578 96.3079 158.734C96.4736 158.889 96.5565 159.077 96.5565 159.295C96.5565 159.514 96.4736 159.701 96.3079 159.857C96.1455 160.013 95.9499 160.091 95.7212 160.091ZM101.549 169.159C100.833 169.159 100.217 168.99 99.6998 168.652C99.1827 168.314 98.785 167.848 98.5066 167.255C98.2282 166.662 98.089 165.984 98.089 165.222C98.089 164.446 98.2315 163.762 98.5165 163.168C98.8049 162.572 99.2059 162.106 99.7196 161.771C100.237 161.433 100.84 161.264 101.529 161.264C102.066 161.264 102.55 161.364 102.981 161.562C103.412 161.761 103.765 162.04 104.04 162.398C104.315 162.756 104.486 163.173 104.552 163.651H103.379C103.289 163.303 103.09 162.994 102.782 162.726C102.477 162.454 102.066 162.318 101.549 162.318C101.092 162.318 100.691 162.437 100.346 162.676C100.005 162.911 99.7379 163.245 99.5456 163.675C99.3567 164.103 99.2623 164.605 99.2623 165.182C99.2623 165.772 99.3551 166.286 99.5407 166.723C99.7296 167.161 99.9947 167.5 100.336 167.742C100.681 167.984 101.085 168.105 101.549 168.105C101.854 168.105 102.131 168.052 102.379 167.946C102.628 167.84 102.838 167.688 103.011 167.489C103.183 167.29 103.306 167.051 103.379 166.773H104.552C104.486 167.223 104.322 167.629 104.06 167.991C103.801 168.349 103.458 168.634 103.031 168.846C102.606 169.055 102.113 169.159 101.549 169.159ZM108.514 169.179C108.03 169.179 107.591 169.088 107.197 168.906C106.802 168.72 106.489 168.453 106.257 168.105C106.025 167.754 105.909 167.33 105.909 166.832C105.909 166.395 105.995 166.04 106.168 165.768C106.34 165.493 106.57 165.278 106.859 165.122C107.147 164.966 107.465 164.85 107.813 164.774C108.165 164.695 108.518 164.632 108.872 164.585C109.336 164.526 109.713 164.481 110.001 164.451C110.293 164.418 110.505 164.363 110.637 164.287C110.773 164.211 110.841 164.078 110.841 163.889V163.849C110.841 163.359 110.707 162.978 110.438 162.706C110.173 162.434 109.771 162.298 109.23 162.298C108.67 162.298 108.231 162.421 107.913 162.666C107.595 162.911 107.371 163.173 107.242 163.452L106.128 163.054C106.327 162.59 106.592 162.229 106.923 161.97C107.258 161.708 107.623 161.526 108.017 161.423C108.415 161.317 108.806 161.264 109.191 161.264C109.436 161.264 109.718 161.294 110.036 161.354C110.357 161.41 110.667 161.528 110.965 161.707C111.267 161.886 111.517 162.156 111.716 162.517C111.915 162.878 112.014 163.362 112.014 163.969V169H110.841V167.966H110.781C110.702 168.132 110.569 168.309 110.384 168.498C110.198 168.687 109.951 168.848 109.643 168.98C109.335 169.113 108.959 169.179 108.514 169.179ZM108.693 168.125C109.157 168.125 109.548 168.034 109.867 167.852C110.188 167.669 110.43 167.434 110.593 167.146C110.758 166.857 110.841 166.554 110.841 166.236V165.162C110.791 165.222 110.682 165.276 110.513 165.326C110.347 165.372 110.155 165.414 109.936 165.45C109.721 165.483 109.51 165.513 109.305 165.54C109.103 165.563 108.939 165.583 108.813 165.599C108.508 165.639 108.223 165.704 107.958 165.793C107.696 165.879 107.484 166.01 107.321 166.186C107.162 166.358 107.083 166.594 107.083 166.892C107.083 167.3 107.233 167.608 107.535 167.817C107.84 168.022 108.226 168.125 108.693 168.125ZM117.477 161.364V162.358H113.52V161.364H117.477ZM114.673 159.534H115.846V166.812C115.846 167.144 115.894 167.393 115.99 167.558C116.09 167.721 116.216 167.83 116.368 167.886C116.524 167.939 116.688 167.966 116.86 167.966C116.99 167.966 117.096 167.959 117.179 167.946C117.261 167.929 117.328 167.916 117.377 167.906L117.616 168.96C117.537 168.99 117.426 169.02 117.283 169.05C117.141 169.083 116.96 169.099 116.741 169.099C116.41 169.099 116.085 169.028 115.767 168.886C115.452 168.743 115.19 168.526 114.981 168.234C114.776 167.943 114.673 167.575 114.673 167.131V159.534ZM122.362 169.159C121.626 169.159 120.991 168.997 120.457 168.672C119.927 168.344 119.518 167.886 119.229 167.3C118.944 166.71 118.802 166.024 118.802 165.241C118.802 164.459 118.944 163.77 119.229 163.173C119.518 162.573 119.919 162.106 120.433 161.771C120.95 161.433 121.553 161.264 122.242 161.264C122.64 161.264 123.033 161.33 123.42 161.463C123.808 161.596 124.161 161.811 124.479 162.109C124.798 162.404 125.051 162.795 125.24 163.283C125.429 163.77 125.523 164.37 125.523 165.082V165.58H119.637V164.565H124.33C124.33 164.134 124.244 163.75 124.072 163.412C123.903 163.074 123.661 162.807 123.346 162.612C123.034 162.416 122.666 162.318 122.242 162.318C121.775 162.318 121.371 162.434 121.029 162.666C120.691 162.895 120.431 163.193 120.249 163.561C120.066 163.929 119.975 164.323 119.975 164.744V165.42C119.975 165.997 120.075 166.486 120.273 166.887C120.476 167.285 120.756 167.588 121.114 167.797C121.472 168.002 121.888 168.105 122.362 168.105C122.67 168.105 122.948 168.062 123.197 167.976C123.449 167.886 123.666 167.754 123.848 167.578C124.03 167.399 124.171 167.177 124.271 166.912L125.404 167.23C125.285 167.615 125.084 167.953 124.803 168.244C124.521 168.533 124.173 168.758 123.759 168.92C123.344 169.08 122.879 169.159 122.362 169.159Z" fill="#111827"/>
<path d="M65.6506 206H64.358L68.0966 195.818H69.3693L73.108 206H71.8153L68.7727 197.429H68.6932L65.6506 206ZM66.1278 202.023H71.3381V203.116H66.1278V202.023ZM74.5348 206V198.364H75.6683V199.517H75.7479C75.8871 199.139 76.139 198.833 76.5036 198.597C76.8681 198.362 77.2791 198.244 77.7365 198.244C77.8227 198.244 77.9304 198.246 78.0597 198.249C78.1889 198.253 78.2867 198.258 78.353 198.264V199.457C78.3132 199.447 78.2221 199.433 78.0795 199.413C77.9403 199.389 77.7929 199.378 77.6371 199.378C77.2659 199.378 76.9344 199.456 76.6428 199.612C76.3544 199.764 76.1257 199.976 75.9567 200.248C75.791 200.516 75.7081 200.823 75.7081 201.168V206H74.5348ZM82.6136 206.159C81.8977 206.159 81.2813 205.99 80.7642 205.652C80.2472 205.314 79.8494 204.848 79.571 204.255C79.2926 203.662 79.1534 202.984 79.1534 202.222C79.1534 201.446 79.2959 200.762 79.581 200.168C79.8693 199.572 80.2704 199.106 80.7841 198.771C81.3011 198.433 81.9044 198.264 82.5938 198.264C83.1307 198.264 83.6146 198.364 84.0455 198.562C84.4763 198.761 84.8293 199.04 85.1044 199.398C85.3795 199.756 85.5502 200.173 85.6165 200.651H84.4432C84.3537 200.303 84.1548 199.994 83.8466 199.726C83.5417 199.454 83.1307 199.318 82.6136 199.318C82.1563 199.318 81.7552 199.437 81.4105 199.676C81.0691 199.911 80.8023 200.245 80.6101 200.675C80.4212 201.103 80.3267 201.605 80.3267 202.182C80.3267 202.772 80.4195 203.286 80.6051 203.723C80.794 204.161 81.0592 204.5 81.4006 204.742C81.7453 204.984 82.1496 205.105 82.6136 205.105C82.9186 205.105 83.1953 205.052 83.4439 204.946C83.6925 204.84 83.9029 204.688 84.0753 204.489C84.2476 204.29 84.3703 204.051 84.4432 203.773H85.6165C85.5502 204.223 85.3861 204.629 85.1243 204.991C84.8658 205.349 84.5227 205.634 84.0952 205.846C83.6709 206.055 83.1771 206.159 82.6136 206.159ZM88.505 201.406V206H87.3317V195.818H88.505V199.557H88.6044C88.7834 199.162 89.0518 198.849 89.4098 198.617C89.7711 198.382 90.2517 198.264 90.8516 198.264C91.3719 198.264 91.8277 198.369 92.2188 198.577C92.6098 198.783 92.9131 199.099 93.1286 199.527C93.3473 199.951 93.4567 200.491 93.4567 201.148V206H92.2834V201.227C92.2834 200.621 92.1259 200.152 91.8111 199.82C91.4995 199.486 91.067 199.318 90.5135 199.318C90.129 199.318 89.7843 199.399 89.4794 199.562C89.1778 199.724 88.9392 199.961 88.7635 200.273C88.5911 200.584 88.505 200.962 88.505 201.406ZM95.6032 206V198.364H96.7765V206H95.6032ZM96.1998 197.091C95.9711 197.091 95.7739 197.013 95.6081 196.857C95.4457 196.701 95.3645 196.514 95.3645 196.295C95.3645 196.077 95.4457 195.889 95.6081 195.734C95.7739 195.578 95.9711 195.5 96.1998 195.5C96.4284 195.5 96.624 195.578 96.7864 195.734C96.9521 195.889 97.035 196.077 97.035 196.295C97.035 196.514 96.9521 196.701 96.7864 196.857C96.624 197.013 96.4284 197.091 96.1998 197.091ZM105.17 198.364L102.346 206H101.153L98.3288 198.364H99.6016L101.71 204.449H101.789L103.897 198.364H105.17ZM109.647 206.159C108.911 206.159 108.276 205.997 107.743 205.672C107.212 205.344 106.803 204.886 106.515 204.3C106.23 203.71 106.087 203.024 106.087 202.241C106.087 201.459 106.23 200.77 106.515 200.173C106.803 199.573 107.204 199.106 107.718 198.771C108.235 198.433 108.838 198.264 109.527 198.264C109.925 198.264 110.318 198.33 110.706 198.463C111.093 198.596 111.446 198.811 111.765 199.109C112.083 199.404 112.336 199.795 112.525 200.283C112.714 200.77 112.809 201.37 112.809 202.082V202.58H106.922V201.565H111.615C111.615 201.134 111.529 200.75 111.357 200.412C111.188 200.074 110.946 199.807 110.631 199.612C110.319 199.416 109.952 199.318 109.527 199.318C109.06 199.318 108.656 199.434 108.314 199.666C107.976 199.895 107.716 200.193 107.534 200.561C107.351 200.929 107.26 201.323 107.26 201.744V202.42C107.26 202.997 107.36 203.486 107.559 203.887C107.761 204.285 108.041 204.588 108.399 204.797C108.757 205.002 109.173 205.105 109.647 205.105C109.955 205.105 110.233 205.062 110.482 204.976C110.734 204.886 110.951 204.754 111.133 204.578C111.315 204.399 111.456 204.177 111.556 203.912L112.689 204.23C112.57 204.615 112.369 204.953 112.088 205.244C111.806 205.533 111.458 205.758 111.044 205.92C110.629 206.08 110.164 206.159 109.647 206.159Z" fill="#111827"/>
<path d="M65.233 232.818H66.7045L70.1648 241.27H70.2841L73.7443 232.818H75.2159V243H74.0625V235.264H73.9631L70.7812 243H69.6676L66.4858 235.264H66.3864V243H65.233V232.818ZM80.6312 243.159C79.9418 243.159 79.3369 242.995 78.8166 242.667C78.2995 242.339 77.8952 241.88 77.6035 241.29C77.3152 240.7 77.171 240.01 77.171 239.222C77.171 238.426 77.3152 237.732 77.6035 237.138C77.8952 236.545 78.2995 236.085 78.8166 235.756C79.3369 235.428 79.9418 235.264 80.6312 235.264C81.3206 235.264 81.9238 235.428 82.4409 235.756C82.9612 236.085 83.3656 236.545 83.6539 237.138C83.9456 237.732 84.0914 238.426 84.0914 239.222C84.0914 240.01 83.9456 240.7 83.6539 241.29C83.3656 241.88 82.9612 242.339 82.4409 242.667C81.9238 242.995 81.3206 243.159 80.6312 243.159ZM80.6312 242.105C81.1549 242.105 81.5858 241.971 81.9238 241.702C82.2619 241.434 82.5121 241.081 82.6745 240.643C82.8369 240.206 82.9181 239.732 82.9181 239.222C82.9181 238.711 82.8369 238.236 82.6745 237.795C82.5121 237.354 82.2619 236.998 81.9238 236.726C81.5858 236.454 81.1549 236.318 80.6312 236.318C80.1075 236.318 79.6767 236.454 79.3386 236.726C79.0005 236.998 78.7503 237.354 78.5879 237.795C78.4255 238.236 78.3443 238.711 78.3443 239.222C78.3443 239.732 78.4255 240.206 78.5879 240.643C78.7503 241.081 79.0005 241.434 79.3386 241.702C79.6767 241.971 80.1075 242.105 80.6312 242.105ZM91.8533 235.364L89.0295 243H87.8363L85.0124 235.364H86.2852L88.3931 241.449H88.4727L90.5806 235.364H91.8533ZM96.3303 243.159C95.5945 243.159 94.9598 242.997 94.4261 242.672C93.8958 242.344 93.4865 241.886 93.1982 241.3C92.9131 240.71 92.7706 240.024 92.7706 239.241C92.7706 238.459 92.9131 237.77 93.1982 237.173C93.4865 236.573 93.8875 236.106 94.4013 235.771C94.9183 235.433 95.5215 235.264 96.2109 235.264C96.6087 235.264 97.0014 235.33 97.3892 235.463C97.777 235.596 98.13 235.811 98.4482 236.109C98.7663 236.404 99.0199 236.795 99.2088 237.283C99.3977 237.77 99.4922 238.37 99.4922 239.082V239.58H93.6058V238.565H98.299C98.299 238.134 98.2128 237.75 98.0405 237.412C97.8714 237.074 97.6295 236.807 97.3146 236.612C97.0031 236.416 96.6352 236.318 96.2109 236.318C95.7436 236.318 95.3393 236.434 94.9979 236.666C94.6598 236.895 94.3996 237.193 94.2173 237.561C94.035 237.929 93.9439 238.323 93.9439 238.744V239.42C93.9439 239.997 94.0433 240.486 94.2422 240.887C94.4444 241.285 94.7244 241.588 95.0824 241.797C95.4403 242.002 95.8563 242.105 96.3303 242.105C96.6385 242.105 96.9169 242.062 97.1655 241.976C97.4174 241.886 97.6345 241.754 97.8168 241.578C97.9991 241.399 98.1399 241.177 98.2393 240.912L99.3729 241.23C99.2536 241.615 99.053 241.953 98.7713 242.244C98.4896 242.533 98.1416 242.758 97.7273 242.92C97.313 243.08 96.8473 243.159 96.3303 243.159Z" fill="#111827"/>
</g>
<path d="M160 58C160 54.134 163.134 51 167 51H265C268.866 51 272 54.134 272 58V89C272 92.866 268.866 96 265 96H167C163.134 96 160 92.866 160 89V58Z" fill="white"/>
<path d="M184.963 73.9091C184.963 74.9962 184.764 75.9309 184.366 76.7131C183.969 77.492 183.424 78.0919 182.731 78.5128C182.041 78.9304 181.258 79.1392 180.379 79.1392C179.498 79.1392 178.71 78.9304 178.018 78.5128C177.328 78.0919 176.785 77.4903 176.387 76.7081C175.989 75.9259 175.79 74.9929 175.79 73.9091C175.79 72.822 175.989 71.889 176.387 71.1101C176.785 70.3279 177.328 69.728 178.018 69.3104C178.71 68.8894 179.498 68.679 180.379 68.679C181.258 68.679 182.041 68.8894 182.731 69.3104C183.424 69.728 183.969 70.3279 184.366 71.1101C184.764 71.889 184.963 72.822 184.963 73.9091ZM183.442 73.9091C183.442 73.0805 183.308 72.3828 183.039 71.8161C182.774 71.246 182.409 70.8151 181.945 70.5234C181.485 70.2285 180.963 70.081 180.379 70.081C179.793 70.081 179.269 70.2285 178.808 70.5234C178.348 70.8151 177.983 71.246 177.714 71.8161C177.449 72.3828 177.317 73.0805 177.317 73.9091C177.317 74.7377 177.449 75.437 177.714 76.0071C177.983 76.5739 178.348 77.0047 178.808 77.2997C179.269 77.5914 179.793 77.7372 180.379 77.7372C180.963 77.7372 181.485 77.5914 181.945 77.2997C182.409 77.0047 182.774 76.5739 183.039 76.0071C183.308 75.437 183.442 74.7377 183.442 73.9091ZM186.759 81.8636V71.3636H188.211V72.6016H188.335C188.421 72.4425 188.546 72.2585 188.708 72.0497C188.87 71.8409 189.096 71.6586 189.384 71.5028C189.672 71.3438 190.054 71.2642 190.528 71.2642C191.144 71.2642 191.694 71.42 192.178 71.7315C192.662 72.0431 193.041 72.4922 193.317 73.0788C193.595 73.6655 193.734 74.3714 193.734 75.1967C193.734 76.022 193.597 76.7296 193.322 77.3196C193.046 77.9062 192.669 78.3587 192.188 78.6768C191.707 78.9917 191.159 79.1491 190.542 79.1491C190.078 79.1491 189.699 79.0713 189.404 78.9155C189.112 78.7597 188.884 78.5774 188.718 78.3686C188.552 78.1598 188.425 77.9742 188.335 77.8118H188.246V81.8636H186.759ZM188.216 75.1818C188.216 75.7187 188.294 76.1894 188.449 76.5938C188.605 76.9981 188.831 77.3146 189.126 77.5433C189.421 77.7687 189.782 77.8814 190.209 77.8814C190.653 77.8814 191.025 77.7637 191.323 77.5284C191.621 77.2898 191.847 76.9666 191.999 76.5589C192.155 76.1513 192.233 75.6922 192.233 75.1818C192.233 74.678 192.157 74.2256 192.004 73.8246C191.855 73.4235 191.63 73.107 191.328 72.875C191.03 72.643 190.657 72.527 190.209 72.527C189.778 72.527 189.414 72.638 189.116 72.8601C188.821 73.0821 188.597 73.392 188.444 73.7898C188.292 74.1875 188.216 74.6515 188.216 75.1818ZM198.964 71.3636V72.5568H194.793V71.3636H198.964ZM195.912 69.5341H197.398V76.7578C197.398 77.0462 197.441 77.2633 197.528 77.4091C197.614 77.5516 197.725 77.6494 197.861 77.7024C198 77.7521 198.151 77.777 198.313 77.777C198.432 77.777 198.537 77.7687 198.626 77.7521C198.716 77.7356 198.785 77.7223 198.835 77.7124L199.104 78.9403C199.017 78.9735 198.895 79.0066 198.736 79.0398C198.577 79.0762 198.378 79.0961 198.139 79.0994C197.748 79.1061 197.383 79.0365 197.045 78.8906C196.707 78.7448 196.434 78.5194 196.225 78.2145C196.016 77.9096 195.912 77.5268 195.912 77.0661V69.5341ZM200.609 79V71.3636H202.095V79H200.609ZM201.359 70.1854C201.101 70.1854 200.879 70.0992 200.693 69.9268C200.511 69.7512 200.42 69.5424 200.42 69.3004C200.42 69.0552 200.511 68.8464 200.693 68.674C200.879 68.4983 201.101 68.4105 201.359 68.4105C201.618 68.4105 201.838 68.4983 202.021 68.674C202.206 68.8464 202.299 69.0552 202.299 69.3004C202.299 69.5424 202.206 69.7512 202.021 69.9268C201.838 70.0992 201.618 70.1854 201.359 70.1854ZM207.312 79.1541C206.596 79.1541 205.971 78.9901 205.437 78.6619C204.904 78.3338 204.489 77.8748 204.194 77.2848C203.899 76.6948 203.752 76.0054 203.752 75.2166C203.752 74.4245 203.899 73.7318 204.194 73.1385C204.489 72.5452 204.904 72.0845 205.437 71.7564C205.971 71.4283 206.596 71.2642 207.312 71.2642C208.028 71.2642 208.652 71.4283 209.186 71.7564C209.72 72.0845 210.134 72.5452 210.429 73.1385C210.724 73.7318 210.871 74.4245 210.871 75.2166C210.871 76.0054 210.724 76.6948 210.429 77.2848C210.134 77.8748 209.72 78.3338 209.186 78.6619C208.652 78.9901 208.028 79.1541 207.312 79.1541ZM207.317 77.9062C207.781 77.9062 208.165 77.7836 208.47 77.5384C208.775 77.2931 209 76.9666 209.146 76.5589C209.295 76.1513 209.37 75.7022 209.37 75.2116C209.37 74.7244 209.295 74.277 209.146 73.8693C209 73.4583 208.775 73.1286 208.47 72.88C208.165 72.6314 207.781 72.5071 207.317 72.5071C206.849 72.5071 206.461 72.6314 206.153 72.88C205.848 73.1286 205.621 73.4583 205.472 73.8693C205.326 74.277 205.253 74.7244 205.253 75.2116C205.253 75.7022 205.326 76.1513 205.472 76.5589C205.621 76.9666 205.848 77.2931 206.153 77.5384C206.461 77.7836 206.849 77.9062 207.317 77.9062ZM214.017 74.4659V79H212.531V71.3636H213.957V72.6065H214.052C214.228 72.2022 214.503 71.8774 214.877 71.6321C215.255 71.3868 215.731 71.2642 216.304 71.2642C216.824 71.2642 217.28 71.3736 217.671 71.5923C218.062 71.8078 218.366 72.1293 218.581 72.5568C218.796 72.9844 218.904 73.513 218.904 74.1428V79H217.418V74.3217C217.418 73.7682 217.273 73.3357 216.985 73.0241C216.697 72.7093 216.301 72.5518 215.797 72.5518C215.452 72.5518 215.146 72.6264 214.877 72.7756C214.612 72.9247 214.402 73.1435 214.246 73.4318C214.093 73.7169 214.017 74.0616 214.017 74.4659ZM226.62 73.228L225.273 73.4666C225.216 73.2943 225.127 73.1302 225.004 72.9744C224.885 72.8187 224.723 72.6911 224.517 72.5916C224.312 72.4922 224.055 72.4425 223.746 72.4425C223.326 72.4425 222.974 72.5369 222.692 72.7259C222.411 72.9115 222.27 73.1518 222.27 73.4467C222.27 73.7019 222.364 73.9074 222.553 74.0632C222.742 74.219 223.047 74.3466 223.468 74.446L224.681 74.7244C225.384 74.8868 225.907 75.1371 226.252 75.4751C226.597 75.8132 226.769 76.2524 226.769 76.7926C226.769 77.25 226.637 77.6577 226.371 78.0156C226.11 78.3703 225.743 78.6487 225.273 78.8509C224.805 79.053 224.263 79.1541 223.647 79.1541C222.792 79.1541 222.094 78.9718 221.554 78.6072C221.014 78.2393 220.682 77.7173 220.56 77.0412L221.996 76.8224C222.086 77.197 222.27 77.4804 222.548 77.6726C222.827 77.8615 223.19 77.956 223.637 77.956C224.124 77.956 224.514 77.8549 224.805 77.6527C225.097 77.4472 225.243 77.197 225.243 76.902C225.243 76.6634 225.153 76.4628 224.974 76.3004C224.799 76.138 224.529 76.0154 224.164 75.9325L222.871 75.6491C222.159 75.4867 221.632 75.2282 221.29 74.8736C220.952 74.5189 220.783 74.0698 220.783 73.5263C220.783 73.0755 220.909 72.6811 221.161 72.343C221.413 72.005 221.761 71.7415 222.205 71.5526C222.649 71.3603 223.158 71.2642 223.732 71.2642C224.557 71.2642 225.206 71.4432 225.68 71.8011C226.154 72.1558 226.468 72.6314 226.62 73.228Z" fill="#374151"/>
<path d="M245 71.5L249 75.5L253 71.5" stroke="#374151" stroke-width="2" stroke-linecap="round" stroke-linejoin="round"/>
<path d="M167 52H265V50H167V52ZM271 58V89H273V58H271ZM265 95H167V97H265V95ZM161 89V58H159V89H161ZM167 95C163.686 95 161 92.3137 161 89H159C159 93.4183 162.582 97 167 97V95ZM271 89C271 92.3137 268.314 95 265 95V97C269.418 97 273 93.4183 273 89H271ZM265 52C268.314 52 271 54.6863 271 58H273C273 53.5817 269.418 50 265 50V52ZM167 50C162.582 50 159 53.5817 159 58H161C161 54.6863 163.686 52 167 52V50Z" fill="#D1D5DB"/>
<defs>
<filter id="filter0_ddd_2623_17420" x="36" y="102" width="248" height="180" filterUnits="userSpaceOnUse" color-interpolation-filters="sRGB">
<feFlood flood-opacity="0" result="BackgroundImageFix"/>
<feColorMatrix in="SourceAlpha" type="matrix" values="0 0 0 0 0 0 0 0 0 0 0 0 0 0 0 0 0 0 127 0" result="hardAlpha"/>
<feMorphology radius="2" operator="erode" in="SourceAlpha" result="effect1_dropShadow_2623_17420"/>
<feOffset dy="4"/>
<feGaussianBlur stdDeviation="3"/>
<feComposite in2="hardAlpha" operator="out"/>
<feColorMatrix type="matrix" values="0 0 0 0 0 0 0 0 0 0 0 0 0 0 0 0 0 0 0.05 0"/>
<feBlend mode="normal" in2="BackgroundImageFix" result="effect1_dropShadow_2623_17420"/>
<feColorMatrix in="SourceAlpha" type="matrix" values="0 0 0 0 0 0 0 0 0 0 0 0 0 0 0 0 0 0 127 0" result="hardAlpha"/>
<feMorphology radius="3" operator="erode" in="SourceAlpha" result="effect2_dropShadow_2623_17420"/>
<feOffset dy="10"/>
<feGaussianBlur stdDeviation="7.5"/>
<feComposite in2="hardAlpha" operator="out"/>
<feColorMatrix type="matrix" values="0 0 0 0 0 0 0 0 0 0 0 0 0 0 0 0 0 0 0.1 0"/>
<feBlend mode="normal" in2="effect1_dropShadow_2623_17420" result="effect2_dropShadow_2623_17420"/>
<feColorMatrix in="SourceAlpha" type="matrix" values="0 0 0 0 0 0 0 0 0 0 0 0 0 0 0 0 0 0 127 0" result="hardAlpha"/>
<feMorphology radius="1" operator="dilate" in="SourceAlpha" result="effect3_dropShadow_2623_17420"/>
<feOffset/>
<feComposite in2="hardAlpha" operator="out"/>
<feColorMatrix type="matrix" values="0 0 0 0 0 0 0 0 0 0 0 0 0 0 0 0 0 0 0.05 0"/>
<feBlend mode="normal" in2="effect2_dropShadow_2623_17420" result="effect3_dropShadow_2623_17420"/>
<feBlend mode="normal" in="SourceGraphic" in2="effect3_dropShadow_2623_17420" result="shape"/>
</filter>
</defs>
</svg>
