<svg width="320" height="320" viewBox="0 0 320 320" fill="none" xmlns="http://www.w3.org/2000/svg">
<path d="M20.1186 134V123.818H21.6548V132.678H26.2685V134H20.1186ZM30.1239 134.169C29.64 134.169 29.2025 134.08 28.8114 133.901C28.4203 133.718 28.1104 133.455 27.8817 133.11C27.6564 132.765 27.5437 132.343 27.5437 131.842C27.5437 131.411 27.6265 131.057 27.7923 130.778C27.958 130.5 28.1817 130.28 28.4634 130.117C28.7451 129.955 29.06 129.832 29.408 129.749C29.756 129.666 30.1107 129.603 30.4719 129.56C30.9293 129.507 31.3005 129.464 31.5856 129.431C31.8706 129.395 32.0778 129.337 32.207 129.257C32.3363 129.178 32.4009 129.048 32.4009 128.869V128.835C32.4009 128.4 32.2783 128.064 32.033 127.825C31.7911 127.587 31.4298 127.467 30.9492 127.467C30.4487 127.467 30.0543 127.578 29.766 127.8C29.4809 128.019 29.2837 128.263 29.1744 128.531L27.7773 128.213C27.9431 127.749 28.185 127.375 28.5032 127.089C28.8247 126.801 29.1942 126.592 29.6119 126.463C30.0295 126.33 30.4686 126.264 30.9293 126.264C31.2343 126.264 31.5574 126.301 31.8988 126.374C32.2435 126.443 32.565 126.572 32.8633 126.761C33.1649 126.95 33.4118 127.22 33.604 127.572C33.7963 127.92 33.8924 128.372 33.8924 128.929V134H32.4407V132.956H32.381C32.2849 133.148 32.1407 133.337 31.9485 133.523C31.7563 133.708 31.5094 133.862 31.2077 133.985C30.9061 134.108 30.5449 134.169 30.1239 134.169ZM30.4471 132.976C30.8581 132.976 31.2094 132.895 31.5011 132.732C31.796 132.57 32.0198 132.358 32.1722 132.096C32.328 131.831 32.4059 131.547 32.4059 131.246V130.261C32.3529 130.314 32.2501 130.364 32.0977 130.411C31.9485 130.454 31.7778 130.492 31.5856 130.525C31.3933 130.555 31.2061 130.583 31.0238 130.609C30.8415 130.633 30.689 130.652 30.5664 130.669C30.2781 130.705 30.0146 130.767 29.7759 130.853C29.5406 130.939 29.3517 131.063 29.2092 131.226C29.07 131.385 29.0004 131.597 29.0004 131.862C29.0004 132.23 29.1362 132.509 29.408 132.697C29.6798 132.883 30.0262 132.976 30.4471 132.976ZM35.9917 134V123.818H37.4782V127.602H37.5676C37.6538 127.442 37.7781 127.259 37.9405 127.05C38.1029 126.841 38.3283 126.659 38.6167 126.503C38.905 126.344 39.2862 126.264 39.7601 126.264C40.3766 126.264 40.9268 126.42 41.4107 126.732C41.8946 127.043 42.2741 127.492 42.5492 128.079C42.8276 128.665 42.9668 129.371 42.9668 130.197C42.9668 131.022 42.8292 131.73 42.5542 132.32C42.2791 132.906 41.9012 133.359 41.4206 133.677C40.94 133.992 40.3915 134.149 39.775 134.149C39.311 134.149 38.9315 134.071 38.6365 133.915C38.3449 133.76 38.1162 133.577 37.9505 133.369C37.7847 133.16 37.6571 132.974 37.5676 132.812H37.4434V134H35.9917ZM37.4483 130.182C37.4483 130.719 37.5262 131.189 37.682 131.594C37.8378 131.998 38.0632 132.315 38.3581 132.543C38.6531 132.769 39.0144 132.881 39.4419 132.881C39.8861 132.881 40.2573 132.764 40.5556 132.528C40.8539 132.29 41.0792 131.967 41.2317 131.559C41.3875 131.151 41.4654 130.692 41.4654 130.182C41.4654 129.678 41.3891 129.226 41.2367 128.825C41.0875 128.424 40.8622 128.107 40.5605 127.875C40.2623 127.643 39.8894 127.527 39.4419 127.527C39.0111 127.527 38.6465 127.638 38.3482 127.86C38.0532 128.082 37.8295 128.392 37.677 128.79C37.5246 129.187 37.4483 129.652 37.4483 130.182ZM47.9272 134.154C47.1748 134.154 46.5269 133.993 45.9833 133.672C45.4431 133.347 45.0254 132.891 44.7305 132.305C44.4388 131.715 44.293 131.024 44.293 130.232C44.293 129.449 44.4388 128.76 44.7305 128.163C45.0254 127.567 45.4364 127.101 45.9634 126.766C46.4937 126.432 47.1135 126.264 47.8228 126.264C48.2537 126.264 48.6713 126.335 49.0756 126.478C49.48 126.621 49.8429 126.844 50.1644 127.149C50.4859 127.454 50.7395 127.85 50.9251 128.337C51.1107 128.821 51.2035 129.41 51.2035 130.102V130.629H45.1332V129.516H49.7468C49.7468 129.125 49.6673 128.778 49.5082 128.477C49.3491 128.172 49.1254 127.931 48.837 127.756C48.552 127.58 48.2172 127.492 47.8327 127.492C47.4151 127.492 47.0505 127.595 46.739 127.8C46.4308 128.003 46.1921 128.268 46.0231 128.596C45.8574 128.921 45.7745 129.274 45.7745 129.655V130.525C45.7745 131.035 45.864 131.469 46.043 131.827C46.2253 132.185 46.4788 132.459 46.8036 132.648C47.1284 132.833 47.5079 132.926 47.9421 132.926C48.2238 132.926 48.4807 132.886 48.7127 132.807C48.9447 132.724 49.1452 132.601 49.3143 132.439C49.4833 132.277 49.6126 132.076 49.7021 131.837L51.109 132.091C50.9963 132.505 50.7942 132.868 50.5025 133.18C50.2141 133.488 49.8512 133.728 49.4137 133.901C48.9795 134.07 48.484 134.154 47.9272 134.154ZM54.3393 123.818V134H52.8528V123.818H54.3393Z" fill="#111827"/>
<path d="M19 151C19 147.686 21.6863 145 25 145H295C298.314 145 301 147.686 301 151V177C301 180.314 298.314 183 295 183H25C21.6863 183 19 180.314 19 177V151Z" fill="white"/>
<path d="M32.233 169V158.818H35.6733C36.4721 158.818 37.125 158.962 37.6321 159.251C38.1425 159.536 38.5204 159.922 38.7656 160.409C39.0109 160.896 39.1335 161.44 39.1335 162.04C39.1335 162.64 39.0109 163.185 38.7656 163.675C38.5237 164.166 38.1491 164.557 37.642 164.849C37.1349 165.137 36.4853 165.281 35.6932 165.281H33.2273V164.188H35.6534C36.2003 164.188 36.6394 164.093 36.9709 163.904C37.3023 163.715 37.5426 163.46 37.6918 163.138C37.8442 162.814 37.9205 162.447 37.9205 162.04C37.9205 161.632 37.8442 161.268 37.6918 160.946C37.5426 160.625 37.3007 160.373 36.9659 160.19C36.6312 160.005 36.187 159.912 35.6335 159.912H33.4659V169H32.233ZM42.1339 158.818V169H40.9606V158.818H42.1339ZM46.53 169.179C46.0461 169.179 45.6069 169.088 45.2125 168.906C44.8181 168.72 44.5049 168.453 44.2729 168.105C44.0409 167.754 43.9249 167.33 43.9249 166.832C43.9249 166.395 44.0111 166.04 44.1834 165.768C44.3558 165.493 44.5861 165.278 44.8745 165.122C45.1628 164.966 45.481 164.85 45.829 164.774C46.1803 164.695 46.5333 164.632 46.888 164.585C47.352 164.526 47.7282 164.481 48.0165 164.451C48.3082 164.418 48.5203 164.363 48.6529 164.287C48.7888 164.211 48.8567 164.078 48.8567 163.889V163.849C48.8567 163.359 48.7225 162.978 48.454 162.706C48.1889 162.434 47.7862 162.298 47.2459 162.298C46.6858 162.298 46.2466 162.421 45.9284 162.666C45.6103 162.911 45.3865 163.173 45.2573 163.452L44.1436 163.054C44.3425 162.59 44.6077 162.229 44.9391 161.97C45.2739 161.708 45.6384 161.526 46.0328 161.423C46.4306 161.317 46.8217 161.264 47.2061 161.264C47.4514 161.264 47.7331 161.294 48.0513 161.354C48.3728 161.41 48.6827 161.528 48.981 161.707C49.2826 161.886 49.5328 162.156 49.7317 162.517C49.9306 162.878 50.03 163.362 50.03 163.969V169H48.8567V167.966H48.7971C48.7175 168.132 48.5849 168.309 48.3993 168.498C48.2137 168.687 47.9668 168.848 47.6586 168.98C47.3503 169.113 46.9741 169.179 46.53 169.179ZM46.709 168.125C47.173 168.125 47.5641 168.034 47.8823 167.852C48.2038 167.669 48.4457 167.434 48.6081 167.146C48.7739 166.857 48.8567 166.554 48.8567 166.236V165.162C48.807 165.222 48.6976 165.276 48.5286 165.326C48.3629 165.372 48.1706 165.414 47.9519 165.45C47.7364 165.483 47.526 165.513 47.3205 165.54C47.1183 165.563 46.9542 165.583 46.8283 165.599C46.5234 165.639 46.2383 165.704 45.9732 165.793C45.7114 165.879 45.4992 166.01 45.3368 166.186C45.1777 166.358 45.0982 166.594 45.0982 166.892C45.0982 167.3 45.249 167.608 45.5506 167.817C45.8555 168.022 46.2417 168.125 46.709 168.125ZM55.2738 169.159C54.5579 169.159 53.9414 168.99 53.4244 168.652C52.9073 168.314 52.5096 167.848 52.2312 167.255C51.9528 166.662 51.8136 165.984 51.8136 165.222C51.8136 164.446 51.9561 163.762 52.2411 163.168C52.5295 162.572 52.9305 162.106 53.4442 161.771C53.9613 161.433 54.5645 161.264 55.2539 161.264C55.7908 161.264 56.2747 161.364 56.7056 161.562C57.1365 161.761 57.4895 162.04 57.7646 162.398C58.0397 162.756 58.2103 163.173 58.2766 163.651H57.1033C57.0138 163.303 56.815 162.994 56.5067 162.726C56.2018 162.454 55.7908 162.318 55.2738 162.318C54.8164 162.318 54.4154 162.437 54.0707 162.676C53.7293 162.911 53.4625 163.245 53.2702 163.675C53.0813 164.103 52.9869 164.605 52.9869 165.182C52.9869 165.772 53.0797 166.286 53.2653 166.723C53.4542 167.161 53.7193 167.5 54.0607 167.742C54.4054 167.984 54.8098 168.105 55.2738 168.105C55.5787 168.105 55.8555 168.052 56.104 167.946C56.3526 167.84 56.5631 167.688 56.7354 167.489C56.9078 167.29 57.0304 167.051 57.1033 166.773H58.2766C58.2103 167.223 58.0463 167.629 57.7844 167.991C57.5259 168.349 57.1829 168.634 56.7553 168.846C56.3311 169.055 55.8372 169.159 55.2738 169.159ZM63.1935 169.159C62.4577 169.159 61.823 168.997 61.2894 168.672C60.7591 168.344 60.3498 167.886 60.0614 167.3C59.7764 166.71 59.6339 166.024 59.6339 165.241C59.6339 164.459 59.7764 163.77 60.0614 163.173C60.3498 162.573 60.7508 162.106 61.2646 161.771C61.7816 161.433 62.3848 161.264 63.0742 161.264C63.4719 161.264 63.8647 161.33 64.2525 161.463C64.6403 161.596 64.9933 161.811 65.3114 162.109C65.6296 162.404 65.8832 162.795 66.0721 163.283C66.261 163.77 66.3555 164.37 66.3555 165.082V165.58H60.4691V164.565H65.1623C65.1623 164.134 65.0761 163.75 64.9038 163.412C64.7347 163.074 64.4928 162.807 64.1779 162.612C63.8664 162.416 63.4985 162.318 63.0742 162.318C62.6069 162.318 62.2025 162.434 61.8612 162.666C61.5231 162.895 61.2629 163.193 61.0806 163.561C60.8983 163.929 60.8072 164.323 60.8072 164.744V165.42C60.8072 165.997 60.9066 166.486 61.1055 166.887C61.3076 167.285 61.5877 167.588 61.9457 167.797C62.3036 168.002 62.7196 168.105 63.1935 168.105C63.5018 168.105 63.7802 168.062 64.0288 167.976C64.2807 167.886 64.4978 167.754 64.68 167.578C64.8623 167.399 65.0032 167.177 65.1026 166.912L66.2362 167.23C66.1168 167.615 65.9163 167.953 65.6346 168.244C65.3529 168.533 65.0049 168.758 64.5906 168.92C64.1763 169.08 63.7106 169.159 63.1935 169.159ZM69.3136 164.406V169H68.1403V158.818H69.3136V162.557H69.413C69.592 162.162 69.8604 161.849 70.2184 161.617C70.5797 161.382 71.0603 161.264 71.6602 161.264C72.1805 161.264 72.6362 161.369 73.0273 161.577C73.4184 161.783 73.7217 162.099 73.9371 162.527C74.1559 162.951 74.2653 163.491 74.2653 164.148V169H73.092V164.227C73.092 163.621 72.9345 163.152 72.6197 162.82C72.3081 162.486 71.8756 162.318 71.3221 162.318C70.9376 162.318 70.5929 162.399 70.288 162.562C69.9864 162.724 69.7478 162.961 69.5721 163.273C69.3997 163.584 69.3136 163.962 69.3136 164.406ZM79.514 169.159C78.8246 169.159 78.2198 168.995 77.6994 168.667C77.1824 168.339 76.778 167.88 76.4863 167.29C76.198 166.7 76.0538 166.01 76.0538 165.222C76.0538 164.426 76.198 163.732 76.4863 163.138C76.778 162.545 77.1824 162.085 77.6994 161.756C78.2198 161.428 78.8246 161.264 79.514 161.264C80.2034 161.264 80.8066 161.428 81.3237 161.756C81.844 162.085 82.2484 162.545 82.5368 163.138C82.8284 163.732 82.9743 164.426 82.9743 165.222C82.9743 166.01 82.8284 166.7 82.5368 167.29C82.2484 167.88 81.844 168.339 81.3237 168.667C80.8066 168.995 80.2034 169.159 79.514 169.159ZM79.514 168.105C80.0377 168.105 80.4686 167.971 80.8066 167.702C81.1447 167.434 81.3949 167.081 81.5574 166.643C81.7198 166.206 81.801 165.732 81.801 165.222C81.801 164.711 81.7198 164.236 81.5574 163.795C81.3949 163.354 81.1447 162.998 80.8066 162.726C80.4686 162.454 80.0377 162.318 79.514 162.318C78.9904 162.318 78.5595 162.454 78.2214 162.726C77.8833 162.998 77.6331 163.354 77.4707 163.795C77.3083 164.236 77.2271 164.711 77.2271 165.222C77.2271 165.732 77.3083 166.206 77.4707 166.643C77.6331 167.081 77.8833 167.434 78.2214 167.702C78.5595 167.971 78.9904 168.105 79.514 168.105ZM85.9386 158.818V169H84.7653V158.818H85.9386ZM90.9711 169.159C90.3347 169.159 89.7729 168.998 89.2857 168.677C88.7985 168.352 88.4173 167.895 88.1422 167.305C87.8671 166.711 87.7296 166.01 87.7296 165.202C87.7296 164.4 87.8671 163.704 88.1422 163.114C88.4173 162.524 88.8001 162.068 89.2907 161.746C89.7812 161.425 90.348 161.264 90.9909 161.264C91.4881 161.264 91.8809 161.347 92.1692 161.513C92.4609 161.675 92.6829 161.861 92.8354 162.07C92.9912 162.275 93.1122 162.444 93.1983 162.577H93.2978V158.818H94.4711V169H93.3375V167.827H93.1983C93.1122 167.966 92.9895 168.142 92.8304 168.354C92.6713 168.562 92.4443 168.75 92.1493 168.915C91.8543 169.078 91.4616 169.159 90.9711 169.159ZM91.1301 168.105C91.6008 168.105 91.9985 167.982 92.3233 167.737C92.6481 167.489 92.8951 167.146 93.0641 166.708C93.2331 166.267 93.3176 165.759 93.3176 165.182C93.3176 164.612 93.2348 164.113 93.0691 163.685C92.9034 163.254 92.6581 162.92 92.3333 162.681C92.0085 162.439 91.6074 162.318 91.1301 162.318C90.633 162.318 90.2187 162.446 89.8873 162.701C89.5591 162.953 89.3122 163.296 89.1465 163.73C88.9841 164.161 88.9029 164.645 88.9029 165.182C88.9029 165.725 88.9857 166.219 89.1515 166.663C89.3205 167.104 89.5691 167.455 89.8972 167.717C90.2286 167.976 90.6396 168.105 91.1301 168.105ZM99.9846 169.159C99.2488 169.159 98.6141 168.997 98.0804 168.672C97.5501 168.344 97.1408 167.886 96.8525 167.3C96.5674 166.71 96.4249 166.024 96.4249 165.241C96.4249 164.459 96.5674 163.77 96.8525 163.173C97.1408 162.573 97.5418 162.106 98.0556 161.771C98.5726 161.433 99.1758 161.264 99.8652 161.264C100.263 161.264 100.656 161.33 101.044 161.463C101.431 161.596 101.784 161.811 102.102 162.109C102.421 162.404 102.674 162.795 102.863 163.283C103.052 163.77 103.146 164.37 103.146 165.082V165.58H97.2601V164.565H101.953C101.953 164.134 101.867 163.75 101.695 163.412C101.526 163.074 101.284 162.807 100.969 162.612C100.657 162.416 100.289 162.318 99.8652 162.318C99.3979 162.318 98.9935 162.434 98.6522 162.666C98.3141 162.895 98.0539 163.193 97.8716 163.561C97.6893 163.929 97.5982 164.323 97.5982 164.744V165.42C97.5982 165.997 97.6976 166.486 97.8965 166.887C98.0987 167.285 98.3787 167.588 98.7367 167.797C99.0946 168.002 99.5106 168.105 99.9846 168.105C100.293 168.105 100.571 168.062 100.82 167.976C101.072 167.886 101.289 167.754 101.471 167.578C101.653 167.399 101.794 167.177 101.894 166.912L103.027 167.23C102.908 167.615 102.707 167.953 102.426 168.244C102.144 168.533 101.796 168.758 101.382 168.92C100.967 169.08 100.502 169.159 99.9846 169.159ZM104.931 169V161.364H106.065V162.517H106.144C106.284 162.139 106.535 161.833 106.9 161.597C107.265 161.362 107.676 161.244 108.133 161.244C108.219 161.244 108.327 161.246 108.456 161.249C108.585 161.253 108.683 161.258 108.749 161.264V162.457C108.71 162.447 108.619 162.433 108.476 162.413C108.337 162.389 108.189 162.378 108.034 162.378C107.662 162.378 107.331 162.456 107.039 162.612C106.751 162.764 106.522 162.976 106.353 163.248C106.187 163.516 106.105 163.823 106.105 164.168V169H104.931Z" fill="#6B7280"/>
<path d="M25 146H295V144H25V146ZM300 151V177H302V151H300ZM295 182H25V184H295V182ZM20 177V151H18V177H20ZM25 182C22.2386 182 20 179.761 20 177H18C18 180.866 21.134 184 25 184V182ZM300 177C300 179.761 297.761 182 295 182V184C298.866 184 302 180.866 302 177H300ZM295 146C297.761 146 300 148.239 300 151H302C302 147.134 298.866 144 295 144V146ZM25 144C21.134 144 18 147.134 18 151H20C20 148.239 22.2386 146 25 146V144Z" fill="#D1D5DB"/>
</svg>
