<svg width="320" height="320" viewBox="0 0 320 320" fill="none" xmlns="http://www.w3.org/2000/svg">
<g filter="url(#filter0_dd_2623_17566)">
<rect x="35" y="93" width="254" height="128" rx="8" fill="white"/>
<path d="M51.8807 126V118.727H52.7614V125.219H56.142V126H51.8807ZM59.608 126.114C59.1155 126.114 58.6835 125.996 58.3118 125.762C57.9425 125.528 57.6536 125.2 57.4453 124.778C57.2393 124.357 57.1364 123.865 57.1364 123.301C57.1364 122.733 57.2393 122.237 57.4453 121.813C57.6536 121.389 57.9425 121.06 58.3118 120.826C58.6835 120.592 59.1155 120.474 59.608 120.474C60.1004 120.474 60.5313 120.592 60.9006 120.826C61.2723 121.06 61.5611 121.389 61.767 121.813C61.9754 122.237 62.0795 122.733 62.0795 123.301C62.0795 123.865 61.9754 124.357 61.767 124.778C61.5611 125.2 61.2723 125.528 60.9006 125.762C60.5313 125.996 60.1004 126.114 59.608 126.114ZM59.608 125.361C59.982 125.361 60.2898 125.265 60.5312 125.073C60.7727 124.881 60.9515 124.629 61.0675 124.317C61.1835 124.004 61.2415 123.666 61.2415 123.301C61.2415 122.937 61.1835 122.597 61.0675 122.282C60.9515 121.967 60.7727 121.713 60.5312 121.518C60.2898 121.324 59.982 121.227 59.608 121.227C59.2339 121.227 58.9261 121.324 58.6847 121.518C58.4432 121.713 58.2644 121.967 58.1484 122.282C58.0324 122.597 57.9744 122.937 57.9744 123.301C57.9744 123.666 58.0324 124.004 58.1484 124.317C58.2644 124.629 58.4432 124.881 58.6847 125.073C58.9261 125.265 59.2339 125.361 59.608 125.361ZM63.3588 126V120.545H64.1685V121.369H64.2253C64.3248 121.099 64.5047 120.88 64.7651 120.712C65.0255 120.544 65.3191 120.46 65.6458 120.46C65.7073 120.46 65.7843 120.461 65.8766 120.464C65.9689 120.466 66.0388 120.47 66.0861 120.474V121.327C66.0577 121.32 65.9926 121.309 65.8908 121.295C65.7914 121.278 65.686 121.27 65.5748 121.27C65.3096 121.27 65.0729 121.326 64.8645 121.437C64.6586 121.546 64.4952 121.697 64.3745 121.891C64.2561 122.083 64.1969 122.302 64.1969 122.548V126H63.3588ZM69.2005 126.114C68.6749 126.114 68.2215 125.998 67.8404 125.766C67.4616 125.531 67.1692 125.205 66.9632 124.786C66.7596 124.364 66.6578 123.874 66.6578 123.315C66.6578 122.757 66.7596 122.264 66.9632 121.838C67.1692 121.41 67.4557 121.076 67.8226 120.837C68.1919 120.595 68.6228 120.474 69.1152 120.474C69.3993 120.474 69.6799 120.522 69.9569 120.616C70.2338 120.711 70.486 120.865 70.7132 121.078C70.9405 121.289 71.1216 121.568 71.2566 121.916C71.3915 122.264 71.459 122.693 71.459 123.202V123.557H67.2544V122.832H70.6067C70.6067 122.525 70.5452 122.25 70.4221 122.009C70.3013 121.767 70.1285 121.576 69.9036 121.437C69.681 121.297 69.4183 121.227 69.1152 121.227C68.7814 121.227 68.4926 121.31 68.2488 121.476C68.0073 121.639 67.8214 121.852 67.6912 122.115C67.561 122.378 67.4959 122.66 67.4959 122.96V123.443C67.4959 123.855 67.5669 124.204 67.709 124.491C67.8534 124.775 68.0534 124.991 68.3091 125.141C68.5648 125.287 68.8619 125.361 69.2005 125.361C69.4206 125.361 69.6195 125.33 69.7971 125.268C69.977 125.205 70.132 125.11 70.2623 124.984C70.3925 124.857 70.4931 124.698 70.5641 124.509L71.3738 124.736C71.2885 125.01 71.1453 125.252 70.9441 125.46C70.7428 125.666 70.4943 125.827 70.1983 125.943C69.9024 126.057 69.5698 126.114 69.2005 126.114ZM72.7338 126V120.545H73.5435V121.398H73.6145C73.7282 121.107 73.9116 120.88 74.165 120.719C74.4183 120.556 74.7225 120.474 75.0776 120.474C75.4374 120.474 75.7369 120.556 75.976 120.719C76.2175 120.88 76.4057 121.107 76.5407 121.398H76.5975C76.7372 121.116 76.9467 120.892 77.226 120.727C77.5054 120.558 77.8404 120.474 78.231 120.474C78.7187 120.474 79.1176 120.627 79.4277 120.933C79.7379 121.236 79.8929 121.708 79.8929 122.349V126H79.0549V122.349C79.0549 121.947 78.9448 121.659 78.7246 121.487C78.5044 121.314 78.2452 121.227 77.9469 121.227C77.5634 121.227 77.2663 121.343 77.0556 121.575C76.8449 121.805 76.7395 122.096 76.7395 122.449V126H75.8873V122.264C75.8873 121.954 75.7866 121.704 75.5854 121.515C75.3842 121.323 75.1249 121.227 74.8077 121.227C74.5899 121.227 74.3863 121.285 74.1969 121.401C74.0099 121.517 73.8584 121.678 73.7424 121.884C73.6287 122.088 73.5719 122.323 73.5719 122.591V126H72.7338ZM84.2377 126V120.545H85.0758V126H84.2377ZM84.6639 119.636C84.5005 119.636 84.3597 119.581 84.2413 119.469C84.1253 119.358 84.0673 119.224 84.0673 119.068C84.0673 118.912 84.1253 118.778 84.2413 118.667C84.3597 118.556 84.5005 118.5 84.6639 118.5C84.8272 118.5 84.9669 118.556 85.0829 118.667C85.2013 118.778 85.2605 118.912 85.2605 119.068C85.2605 119.224 85.2013 119.358 85.0829 119.469C84.9669 119.581 84.8272 119.636 84.6639 119.636ZM86.6108 128.045V120.545H87.4205V121.412H87.5199C87.5814 121.317 87.6667 121.196 87.7756 121.05C87.8868 120.901 88.0455 120.768 88.2514 120.652C88.4598 120.534 88.7415 120.474 89.0966 120.474C89.5559 120.474 89.9607 120.589 90.3111 120.819C90.6615 121.049 90.9349 121.374 91.1314 121.795C91.3279 122.217 91.4261 122.714 91.4261 123.287C91.4261 123.865 91.3279 124.365 91.1314 124.789C90.9349 125.21 90.6626 125.537 90.3146 125.769C89.9666 125.999 89.5653 126.114 89.1108 126.114C88.7604 126.114 88.4799 126.056 88.2692 125.94C88.0585 125.821 87.8963 125.687 87.7827 125.538C87.669 125.387 87.5814 125.261 87.5199 125.162H87.4489V128.045H86.6108ZM87.4347 123.273C87.4347 123.685 87.495 124.048 87.6158 124.363C87.7365 124.675 87.9129 124.92 88.1449 125.098C88.3769 125.273 88.661 125.361 88.9972 125.361C89.3475 125.361 89.6399 125.268 89.8743 125.084C90.111 124.897 90.2886 124.646 90.407 124.331C90.5277 124.014 90.5881 123.661 90.5881 123.273C90.5881 122.889 90.5289 122.544 90.4105 122.236C90.2945 121.926 90.1181 121.681 89.8814 121.501C89.647 121.318 89.3523 121.227 88.9972 121.227C88.6563 121.227 88.3698 121.314 88.1378 121.487C87.9058 121.657 87.7306 121.896 87.6122 122.204C87.4938 122.509 87.4347 122.866 87.4347 123.273ZM96.5682 121.767L95.8153 121.98C95.768 121.855 95.6982 121.733 95.6058 121.614C95.5159 121.494 95.3928 121.394 95.2365 121.316C95.0803 121.238 94.8802 121.199 94.6364 121.199C94.3026 121.199 94.0244 121.276 93.8018 121.43C93.5817 121.581 93.4716 121.774 93.4716 122.009C93.4716 122.217 93.5473 122.381 93.6989 122.502C93.8504 122.623 94.0871 122.723 94.4091 122.804L95.2188 123.003C95.7064 123.121 96.0698 123.302 96.3089 123.546C96.5481 123.788 96.6676 124.099 96.6676 124.48C96.6676 124.793 96.5777 125.072 96.3977 125.318C96.2202 125.564 95.9716 125.759 95.652 125.901C95.3324 126.043 94.9607 126.114 94.5369 126.114C93.9806 126.114 93.5201 125.993 93.1555 125.751C92.791 125.51 92.5601 125.157 92.4631 124.693L93.2585 124.494C93.3343 124.788 93.4775 125.008 93.6882 125.155C93.9013 125.302 94.1795 125.375 94.5227 125.375C94.9134 125.375 95.2235 125.292 95.4531 125.126C95.6851 124.958 95.8011 124.757 95.8011 124.523C95.8011 124.333 95.7348 124.175 95.6023 124.047C95.4697 123.917 95.2661 123.82 94.9915 123.756L94.0824 123.543C93.5829 123.424 93.2159 123.241 92.9815 122.992C92.7495 122.741 92.6335 122.428 92.6335 122.051C92.6335 121.743 92.7199 121.471 92.8928 121.234C93.0679 120.998 93.3059 120.812 93.6065 120.677C93.9096 120.542 94.2528 120.474 94.6364 120.474C95.1761 120.474 95.5999 120.593 95.9077 120.83C96.2178 121.066 96.438 121.379 96.5682 121.767ZM101.367 123.77V120.545H102.205V126H101.367V125.077H101.31C101.182 125.354 100.983 125.589 100.713 125.783C100.443 125.975 100.102 126.071 99.6905 126.071C99.3496 126.071 99.0466 125.996 98.7814 125.847C98.5163 125.696 98.3079 125.469 98.1564 125.165C98.0049 124.86 97.9292 124.475 97.9292 124.011V120.545H98.7672V123.955C98.7672 124.352 98.8785 124.67 99.101 124.906C99.3259 125.143 99.6124 125.261 99.9604 125.261C100.169 125.261 100.381 125.208 100.596 125.102C100.814 124.995 100.996 124.832 101.143 124.612C101.292 124.391 101.367 124.111 101.367 123.77ZM103.74 126V120.545H104.549V121.398H104.62C104.734 121.107 104.917 120.88 105.171 120.719C105.424 120.556 105.728 120.474 106.083 120.474C106.443 120.474 106.743 120.556 106.982 120.719C107.223 120.88 107.412 121.107 107.547 121.398H107.603C107.743 121.116 107.953 120.892 108.232 120.727C108.511 120.558 108.846 120.474 109.237 120.474C109.725 120.474 110.123 120.627 110.434 120.933C110.744 121.236 110.899 121.708 110.899 122.349V126H110.061V122.349C110.061 121.947 109.951 121.659 109.73 121.487C109.51 121.314 109.251 121.227 108.953 121.227C108.569 121.227 108.272 121.343 108.061 121.575C107.851 121.805 107.745 122.096 107.745 122.449V126H106.893V122.264C106.893 121.954 106.792 121.704 106.591 121.515C106.39 121.323 106.131 121.227 105.814 121.227C105.596 121.227 105.392 121.285 105.203 121.401C105.016 121.517 104.864 121.678 104.748 121.884C104.635 122.088 104.578 122.323 104.578 122.591V126H103.74ZM117.303 126.114C116.849 126.114 116.447 125.999 116.099 125.769C115.751 125.537 115.479 125.21 115.283 124.789C115.086 124.365 114.988 123.865 114.988 123.287C114.988 122.714 115.086 122.217 115.283 121.795C115.479 121.374 115.753 121.049 116.103 120.819C116.453 120.589 116.858 120.474 117.317 120.474C117.673 120.474 117.953 120.534 118.159 120.652C118.367 120.768 118.526 120.901 118.635 121.05C118.746 121.196 118.833 121.317 118.894 121.412H118.965V118.727H119.803V126H118.994V125.162H118.894C118.833 125.261 118.745 125.387 118.631 125.538C118.518 125.687 118.356 125.821 118.145 125.94C117.934 126.056 117.654 126.114 117.303 126.114ZM117.417 125.361C117.753 125.361 118.037 125.273 118.269 125.098C118.501 124.92 118.678 124.675 118.798 124.363C118.919 124.048 118.979 123.685 118.979 123.273C118.979 122.866 118.92 122.509 118.802 122.204C118.683 121.896 118.508 121.657 118.276 121.487C118.044 121.314 117.758 121.227 117.417 121.227C117.062 121.227 116.766 121.318 116.529 121.501C116.295 121.681 116.118 121.926 116 122.236C115.884 122.544 115.826 122.889 115.826 123.273C115.826 123.661 115.885 124.014 116.004 124.331C116.124 124.646 116.302 124.897 116.536 125.084C116.773 125.268 117.067 125.361 117.417 125.361ZM123.67 126.114C123.178 126.114 122.746 125.996 122.374 125.762C122.005 125.528 121.716 125.2 121.508 124.778C121.302 124.357 121.199 123.865 121.199 123.301C121.199 122.733 121.302 122.237 121.508 121.813C121.716 121.389 122.005 121.06 122.374 120.826C122.746 120.592 123.178 120.474 123.67 120.474C124.163 120.474 124.594 120.592 124.963 120.826C125.335 121.06 125.624 121.389 125.83 121.813C126.038 122.237 126.142 122.733 126.142 123.301C126.142 123.865 126.038 124.357 125.83 124.778C125.624 125.2 125.335 125.528 124.963 125.762C124.594 125.996 124.163 126.114 123.67 126.114ZM123.67 125.361C124.045 125.361 124.352 125.265 124.594 125.073C124.835 124.881 125.014 124.629 125.13 124.317C125.246 124.004 125.304 123.666 125.304 123.301C125.304 122.937 125.246 122.597 125.13 122.282C125.014 121.967 124.835 121.713 124.594 121.518C124.352 121.324 124.045 121.227 123.67 121.227C123.296 121.227 122.989 121.324 122.747 121.518C122.506 121.713 122.327 121.967 122.211 122.282C122.095 122.597 122.037 122.937 122.037 123.301C122.037 123.666 122.095 124.004 122.211 124.317C122.327 124.629 122.506 124.881 122.747 125.073C122.989 125.265 123.296 125.361 123.67 125.361ZM128.259 118.727V126H127.421V118.727H128.259ZM132.01 126.114C131.518 126.114 131.086 125.996 130.714 125.762C130.345 125.528 130.056 125.2 129.848 124.778C129.642 124.357 129.539 123.865 129.539 123.301C129.539 122.733 129.642 122.237 129.848 121.813C130.056 121.389 130.345 121.06 130.714 120.826C131.086 120.592 131.518 120.474 132.01 120.474C132.503 120.474 132.934 120.592 133.303 120.826C133.675 121.06 133.963 121.389 134.169 121.813C134.378 122.237 134.482 122.733 134.482 123.301C134.482 123.865 134.378 124.357 134.169 124.778C133.963 125.2 133.675 125.528 133.303 125.762C132.934 125.996 132.503 126.114 132.01 126.114ZM132.01 125.361C132.384 125.361 132.692 125.265 132.934 125.073C133.175 124.881 133.354 124.629 133.47 124.317C133.586 124.004 133.644 123.666 133.644 123.301C133.644 122.937 133.586 122.597 133.47 122.282C133.354 121.967 133.175 121.713 132.934 121.518C132.692 121.324 132.384 121.227 132.01 121.227C131.636 121.227 131.328 121.324 131.087 121.518C130.846 121.713 130.667 121.967 130.551 122.282C130.435 122.597 130.377 122.937 130.377 123.301C130.377 123.666 130.435 124.004 130.551 124.317C130.667 124.629 130.846 124.881 131.087 125.073C131.328 125.265 131.636 125.361 132.01 125.361ZM135.761 126V120.545H136.571V121.369H136.628C136.727 121.099 136.907 120.88 137.167 120.712C137.428 120.544 137.721 120.46 138.048 120.46C138.11 120.46 138.187 120.461 138.279 120.464C138.371 120.466 138.441 120.47 138.488 120.474V121.327C138.46 121.32 138.395 121.309 138.293 121.295C138.194 121.278 138.088 121.27 137.977 121.27C137.712 121.27 137.475 121.326 137.267 121.437C137.061 121.546 136.898 121.697 136.777 121.891C136.658 122.083 136.599 122.302 136.599 122.548V126H135.761ZM146.158 121.767L145.405 121.98C145.358 121.855 145.288 121.733 145.196 121.614C145.106 121.494 144.983 121.394 144.826 121.316C144.67 121.238 144.47 121.199 144.226 121.199C143.892 121.199 143.614 121.276 143.392 121.43C143.172 121.581 143.061 121.774 143.061 122.009C143.061 122.217 143.137 122.381 143.289 122.502C143.44 122.623 143.677 122.723 143.999 122.804L144.809 123.003C145.296 123.121 145.66 123.302 145.899 123.546C146.138 123.788 146.257 124.099 146.257 124.48C146.257 124.793 146.167 125.072 145.988 125.318C145.81 125.564 145.561 125.759 145.242 125.901C144.922 126.043 144.551 126.114 144.127 126.114C143.57 126.114 143.11 125.993 142.745 125.751C142.381 125.51 142.15 125.157 142.053 124.693L142.848 124.494C142.924 124.788 143.067 125.008 143.278 125.155C143.491 125.302 143.769 125.375 144.113 125.375C144.503 125.375 144.813 125.292 145.043 125.126C145.275 124.958 145.391 124.757 145.391 124.523C145.391 124.333 145.325 124.175 145.192 124.047C145.06 123.917 144.856 123.82 144.581 123.756L143.672 123.543C143.173 123.424 142.806 123.241 142.571 122.992C142.339 122.741 142.223 122.428 142.223 122.051C142.223 121.743 142.31 121.471 142.483 121.234C142.658 120.998 142.896 120.812 143.196 120.677C143.499 120.542 143.843 120.474 144.226 120.474C144.766 120.474 145.19 120.593 145.498 120.83C145.808 121.066 146.028 121.379 146.158 121.767ZM147.519 126V120.545H148.357V126H147.519ZM147.945 119.636C147.782 119.636 147.641 119.581 147.523 119.469C147.407 119.358 147.349 119.224 147.349 119.068C147.349 118.912 147.407 118.778 147.523 118.667C147.641 118.556 147.782 118.5 147.945 118.5C148.108 118.5 148.248 118.556 148.364 118.667C148.483 118.778 148.542 118.912 148.542 119.068C148.542 119.224 148.483 119.358 148.364 119.469C148.248 119.581 148.108 119.636 147.945 119.636ZM152.264 120.545V121.256H149.438V120.545H152.264ZM150.261 119.239H151.099V124.438C151.099 124.674 151.134 124.852 151.202 124.97C151.273 125.086 151.363 125.164 151.472 125.205C151.584 125.242 151.701 125.261 151.824 125.261C151.916 125.261 151.992 125.257 152.051 125.247C152.11 125.235 152.158 125.226 152.193 125.219L152.364 125.972C152.307 125.993 152.228 126.014 152.126 126.036C152.024 126.059 151.895 126.071 151.739 126.071C151.502 126.071 151.27 126.02 151.043 125.918C150.818 125.817 150.631 125.661 150.482 125.453C150.335 125.245 150.261 124.982 150.261 124.665V119.239ZM157.942 126.128C157.597 126.128 157.283 126.063 157.001 125.933C156.72 125.8 156.496 125.609 156.33 125.361C156.165 125.11 156.082 124.807 156.082 124.452C156.082 124.139 156.143 123.886 156.266 123.692C156.389 123.495 156.554 123.341 156.76 123.23C156.966 123.119 157.193 123.036 157.442 122.982C157.693 122.925 157.945 122.88 158.198 122.847C158.53 122.804 158.798 122.772 159.004 122.751C159.213 122.727 159.364 122.688 159.459 122.634C159.556 122.579 159.604 122.484 159.604 122.349V122.321C159.604 121.971 159.509 121.698 159.317 121.504C159.127 121.31 158.84 121.213 158.454 121.213C158.054 121.213 157.74 121.301 157.513 121.476C157.286 121.651 157.126 121.838 157.033 122.037L156.238 121.753C156.38 121.421 156.569 121.163 156.806 120.979C157.045 120.792 157.306 120.661 157.587 120.588C157.871 120.512 158.151 120.474 158.425 120.474C158.601 120.474 158.802 120.496 159.029 120.538C159.259 120.579 159.48 120.663 159.693 120.79C159.909 120.918 160.087 121.111 160.229 121.369C160.371 121.627 160.442 121.973 160.442 122.406V126H159.604V125.261H159.562C159.505 125.38 159.41 125.506 159.278 125.641C159.145 125.776 158.969 125.891 158.749 125.986C158.528 126.08 158.26 126.128 157.942 126.128ZM158.07 125.375C158.402 125.375 158.681 125.31 158.908 125.18C159.138 125.049 159.311 124.881 159.427 124.675C159.545 124.469 159.604 124.253 159.604 124.026V123.259C159.569 123.301 159.491 123.34 159.37 123.376C159.252 123.409 159.114 123.438 158.958 123.464C158.804 123.488 158.654 123.509 158.507 123.528C158.363 123.545 158.246 123.559 158.156 123.571C157.938 123.599 157.734 123.646 157.545 123.71C157.358 123.771 157.206 123.865 157.09 123.99C156.977 124.113 156.92 124.281 156.92 124.494C156.92 124.786 157.027 125.006 157.243 125.155C157.461 125.302 157.737 125.375 158.07 125.375ZM161.972 126V120.545H162.782V121.398H162.853C162.966 121.107 163.15 120.88 163.403 120.719C163.657 120.556 163.961 120.474 164.316 120.474C164.676 120.474 164.975 120.556 165.214 120.719C165.456 120.88 165.644 121.107 165.779 121.398H165.836C165.975 121.116 166.185 120.892 166.464 120.727C166.744 120.558 167.079 120.474 167.469 120.474C167.957 120.474 168.356 120.627 168.666 120.933C168.976 121.236 169.131 121.708 169.131 122.349V126H168.293V122.349C168.293 121.947 168.183 121.659 167.963 121.487C167.743 121.314 167.483 121.227 167.185 121.227C166.802 121.227 166.505 121.343 166.294 121.575C166.083 121.805 165.978 122.096 165.978 122.449V126H165.126V122.264C165.126 121.954 165.025 121.704 164.824 121.515C164.622 121.323 164.363 121.227 164.046 121.227C163.828 121.227 163.625 121.285 163.435 121.401C163.248 121.517 163.097 121.678 162.981 121.884C162.867 122.088 162.81 122.323 162.81 122.591V126H161.972ZM172.95 126.114C172.425 126.114 171.972 125.998 171.59 125.766C171.212 125.531 170.919 125.205 170.713 124.786C170.51 124.364 170.408 123.874 170.408 123.315C170.408 122.757 170.51 122.264 170.713 121.838C170.919 121.41 171.206 121.076 171.573 120.837C171.942 120.595 172.373 120.474 172.865 120.474C173.149 120.474 173.43 120.522 173.707 120.616C173.984 120.711 174.236 120.865 174.463 121.078C174.691 121.289 174.872 121.568 175.007 121.916C175.142 122.264 175.209 122.693 175.209 123.202V123.557H171.004V122.832H174.357C174.357 122.525 174.295 122.25 174.172 122.009C174.051 121.767 173.878 121.576 173.654 121.437C173.431 121.297 173.168 121.227 172.865 121.227C172.531 121.227 172.243 121.31 171.999 121.476C171.757 121.639 171.571 121.852 171.441 122.115C171.311 122.378 171.246 122.66 171.246 122.96V123.443C171.246 123.855 171.317 124.204 171.459 124.491C171.603 124.775 171.803 124.991 172.059 125.141C172.315 125.287 172.612 125.361 172.95 125.361C173.171 125.361 173.369 125.33 173.547 125.268C173.727 125.205 173.882 125.11 174.012 124.984C174.142 124.857 174.243 124.698 174.314 124.509L175.124 124.736C175.039 125.01 174.895 125.252 174.694 125.46C174.493 125.666 174.244 125.827 173.948 125.943C173.652 126.057 173.32 126.114 172.95 126.114ZM178.856 120.545V121.256H176.029V120.545H178.856ZM176.853 119.239H177.691V124.438C177.691 124.674 177.726 124.852 177.794 124.97C177.865 125.086 177.955 125.164 178.064 125.205C178.175 125.242 178.293 125.261 178.416 125.261C178.508 125.261 178.584 125.257 178.643 125.247C178.702 125.235 178.749 125.226 178.785 125.219L178.955 125.972C178.899 125.993 178.819 126.014 178.718 126.036C178.616 126.059 178.487 126.071 178.33 126.071C178.094 126.071 177.862 126.02 177.634 125.918C177.41 125.817 177.222 125.661 177.073 125.453C176.927 125.245 176.853 124.982 176.853 124.665V119.239ZM181.367 125.006L181.31 125.389C181.27 125.659 181.208 125.948 181.125 126.256C181.045 126.563 180.961 126.853 180.873 127.126C180.785 127.398 180.713 127.615 180.656 127.776H180.017C180.048 127.624 180.088 127.424 180.138 127.175C180.188 126.927 180.237 126.649 180.287 126.341C180.339 126.036 180.382 125.723 180.415 125.403L180.458 125.006H181.367ZM187.948 126.114C187.436 126.114 186.996 125.993 186.627 125.751C186.257 125.51 185.973 125.177 185.775 124.754C185.576 124.33 185.476 123.846 185.476 123.301C185.476 122.747 185.578 122.258 185.782 121.835C185.988 121.408 186.274 121.076 186.641 120.837C187.01 120.595 187.441 120.474 187.934 120.474C188.317 120.474 188.663 120.545 188.971 120.688C189.278 120.83 189.53 121.028 189.727 121.284C189.923 121.54 190.045 121.838 190.093 122.179H189.255C189.191 121.93 189.049 121.71 188.828 121.518C188.611 121.324 188.317 121.227 187.948 121.227C187.621 121.227 187.335 121.312 187.088 121.483C186.845 121.651 186.654 121.889 186.517 122.197C186.382 122.502 186.314 122.861 186.314 123.273C186.314 123.694 186.381 124.061 186.513 124.374C186.648 124.686 186.837 124.929 187.081 125.102C187.328 125.274 187.616 125.361 187.948 125.361C188.166 125.361 188.363 125.323 188.541 125.247C188.718 125.171 188.869 125.062 188.992 124.92C189.115 124.778 189.203 124.608 189.255 124.409H190.093C190.045 124.731 189.928 125.021 189.741 125.279C189.556 125.535 189.311 125.738 189.006 125.89C188.703 126.039 188.35 126.114 187.948 126.114ZM193.534 126.114C193.041 126.114 192.609 125.996 192.238 125.762C191.868 125.528 191.579 125.2 191.371 124.778C191.165 124.357 191.062 123.865 191.062 123.301C191.062 122.733 191.165 122.237 191.371 121.813C191.579 121.389 191.868 121.06 192.238 120.826C192.609 120.592 193.041 120.474 193.534 120.474C194.026 120.474 194.457 120.592 194.826 120.826C195.198 121.06 195.487 121.389 195.693 121.813C195.901 122.237 196.005 122.733 196.005 123.301C196.005 123.865 195.901 124.357 195.693 124.778C195.487 125.2 195.198 125.528 194.826 125.762C194.457 125.996 194.026 126.114 193.534 126.114ZM193.534 125.361C193.908 125.361 194.216 125.265 194.457 125.073C194.699 124.881 194.877 124.629 194.993 124.317C195.109 124.004 195.167 123.666 195.167 123.301C195.167 122.937 195.109 122.597 194.993 122.282C194.877 121.967 194.699 121.713 194.457 121.518C194.216 121.324 193.908 121.227 193.534 121.227C193.16 121.227 192.852 121.324 192.61 121.518C192.369 121.713 192.19 121.967 192.074 122.282C191.958 122.597 191.9 122.937 191.9 123.301C191.9 123.666 191.958 124.004 192.074 124.317C192.19 124.629 192.369 124.881 192.61 125.073C192.852 125.265 193.16 125.361 193.534 125.361ZM198.123 122.719V126H197.285V120.545H198.094V121.398H198.165C198.293 121.121 198.487 120.898 198.748 120.73C199.008 120.56 199.344 120.474 199.756 120.474C200.126 120.474 200.449 120.55 200.726 120.702C201.003 120.851 201.218 121.078 201.372 121.384C201.526 121.687 201.603 122.07 201.603 122.534V126H200.765V122.591C200.765 122.162 200.653 121.829 200.431 121.589C200.208 121.348 199.903 121.227 199.515 121.227C199.247 121.227 199.008 121.285 198.797 121.401C198.589 121.517 198.425 121.687 198.304 121.909C198.183 122.132 198.123 122.402 198.123 122.719ZM206.998 121.767L206.245 121.98C206.198 121.855 206.128 121.733 206.036 121.614C205.946 121.494 205.822 121.394 205.666 121.316C205.51 121.238 205.31 121.199 205.066 121.199C204.732 121.199 204.454 121.276 204.232 121.43C204.011 121.581 203.901 121.774 203.901 122.009C203.901 122.217 203.977 122.381 204.129 122.502C204.28 122.623 204.517 122.723 204.839 122.804L205.648 123.003C206.136 123.121 206.5 123.302 206.739 123.546C206.978 123.788 207.097 124.099 207.097 124.48C207.097 124.793 207.007 125.072 206.827 125.318C206.65 125.564 206.401 125.759 206.082 125.901C205.762 126.043 205.39 126.114 204.967 126.114C204.41 126.114 203.95 125.993 203.585 125.751C203.221 125.51 202.99 125.157 202.893 124.693L203.688 124.494C203.764 124.788 203.907 125.008 204.118 125.155C204.331 125.302 204.609 125.375 204.952 125.375C205.343 125.375 205.653 125.292 205.883 125.126C206.115 124.958 206.231 124.757 206.231 124.523C206.231 124.333 206.165 124.175 206.032 124.047C205.899 123.917 205.696 123.82 205.421 123.756L204.512 123.543C204.013 123.424 203.646 123.241 203.411 122.992C203.179 122.741 203.063 122.428 203.063 122.051C203.063 121.743 203.15 121.471 203.322 121.234C203.498 120.998 203.736 120.812 204.036 120.677C204.339 120.542 204.683 120.474 205.066 120.474C205.606 120.474 206.03 120.593 206.337 120.83C206.647 121.066 206.868 121.379 206.998 121.767ZM210.646 126.114C210.12 126.114 209.667 125.998 209.286 125.766C208.907 125.531 208.615 125.205 208.409 124.786C208.205 124.364 208.103 123.874 208.103 123.315C208.103 122.757 208.205 122.264 208.409 121.838C208.615 121.41 208.901 121.076 209.268 120.837C209.637 120.595 210.068 120.474 210.561 120.474C210.845 120.474 211.125 120.522 211.402 120.616C211.679 120.711 211.931 120.865 212.159 121.078C212.386 121.289 212.567 121.568 212.702 121.916C212.837 122.264 212.904 122.693 212.904 123.202V123.557H208.7V122.832H212.052C212.052 122.525 211.99 122.25 211.867 122.009C211.747 121.767 211.574 121.576 211.349 121.437C211.126 121.297 210.864 121.227 210.561 121.227C210.227 121.227 209.938 121.31 209.694 121.476C209.453 121.639 209.267 121.852 209.137 122.115C209.006 122.378 208.941 122.66 208.941 122.96V123.443C208.941 123.855 209.012 124.204 209.154 124.491C209.299 124.775 209.499 124.991 209.754 125.141C210.01 125.287 210.307 125.361 210.646 125.361C210.866 125.361 211.065 125.33 211.242 125.268C211.422 125.205 211.577 125.11 211.708 124.984C211.838 124.857 211.938 124.698 212.009 124.509L212.819 124.736C212.734 125.01 212.591 125.252 212.389 125.46C212.188 125.666 211.94 125.827 211.644 125.943C211.348 126.057 211.015 126.114 210.646 126.114ZM216.395 126.114C215.884 126.114 215.443 125.993 215.074 125.751C214.705 125.51 214.421 125.177 214.222 124.754C214.023 124.33 213.923 123.846 213.923 123.301C213.923 122.747 214.025 122.258 214.229 121.835C214.435 121.408 214.721 121.076 215.088 120.837C215.458 120.595 215.888 120.474 216.381 120.474C216.764 120.474 217.11 120.545 217.418 120.688C217.726 120.83 217.978 121.028 218.174 121.284C218.371 121.54 218.493 121.838 218.54 122.179H217.702C217.638 121.93 217.496 121.71 217.276 121.518C217.058 121.324 216.764 121.227 216.395 121.227C216.068 121.227 215.782 121.312 215.536 121.483C215.292 121.651 215.101 121.889 214.964 122.197C214.829 122.502 214.762 122.861 214.762 123.273C214.762 123.694 214.828 124.061 214.96 124.374C215.095 124.686 215.285 124.929 215.529 125.102C215.775 125.274 216.064 125.361 216.395 125.361C216.613 125.361 216.811 125.323 216.988 125.247C217.166 125.171 217.316 125.062 217.439 124.92C217.562 124.778 217.65 124.608 217.702 124.409H218.54C218.493 124.731 218.375 125.021 218.188 125.279C218.004 125.535 217.759 125.738 217.453 125.89C217.15 126.039 216.798 126.114 216.395 126.114ZM222.137 120.545V121.256H219.311V120.545H222.137ZM220.134 119.239H220.972V124.438C220.972 124.674 221.007 124.852 221.075 124.97C221.146 125.086 221.236 125.164 221.345 125.205C221.457 125.242 221.574 125.261 221.697 125.261C221.789 125.261 221.865 125.257 221.924 125.247C221.983 125.235 222.031 125.226 222.066 125.219L222.237 125.972C222.18 125.993 222.101 126.014 221.999 126.036C221.897 126.059 221.768 126.071 221.612 126.071C221.375 126.071 221.143 126.02 220.916 125.918C220.691 125.817 220.504 125.661 220.355 125.453C220.208 125.245 220.134 124.982 220.134 124.665V119.239ZM225.626 126.114C225.101 126.114 224.647 125.998 224.266 125.766C223.887 125.531 223.595 125.205 223.389 124.786C223.185 124.364 223.084 123.874 223.084 123.315C223.084 122.757 223.185 122.264 223.389 121.838C223.595 121.41 223.881 121.076 224.248 120.837C224.618 120.595 225.049 120.474 225.541 120.474C225.825 120.474 226.106 120.522 226.383 120.616C226.66 120.711 226.912 120.865 227.139 121.078C227.366 121.289 227.547 121.568 227.682 121.916C227.817 122.264 227.885 122.693 227.885 123.202V123.557H223.68V122.832H227.032C227.032 122.525 226.971 122.25 226.848 122.009C226.727 121.767 226.554 121.576 226.329 121.437C226.107 121.297 225.844 121.227 225.541 121.227C225.207 121.227 224.918 121.31 224.675 121.476C224.433 121.639 224.247 121.852 224.117 122.115C223.987 122.378 223.922 122.66 223.922 122.96V123.443C223.922 123.855 223.993 124.204 224.135 124.491C224.279 124.775 224.479 124.991 224.735 125.141C224.991 125.287 225.288 125.361 225.626 125.361C225.846 125.361 226.045 125.33 226.223 125.268C226.403 125.205 226.558 125.11 226.688 124.984C226.818 124.857 226.919 124.698 226.99 124.509L227.8 124.736C227.714 125.01 227.571 125.252 227.37 125.46C227.169 125.666 226.92 125.827 226.624 125.943C226.328 126.057 225.996 126.114 225.626 126.114ZM231.532 120.545V121.256H228.705V120.545H231.532ZM229.529 119.239H230.367V124.438C230.367 124.674 230.401 124.852 230.47 124.97C230.541 125.086 230.631 125.164 230.74 125.205C230.851 125.242 230.968 125.261 231.091 125.261C231.184 125.261 231.26 125.257 231.319 125.247C231.378 125.235 231.425 125.226 231.461 125.219L231.631 125.972C231.574 125.993 231.495 126.014 231.393 126.036C231.291 126.059 231.162 126.071 231.006 126.071C230.769 126.071 230.537 126.02 230.31 125.918C230.085 125.817 229.898 125.661 229.749 125.453C229.602 125.245 229.529 124.982 229.529 124.665V119.239ZM236.23 123.77V120.545H237.068V126H236.23V125.077H236.173C236.045 125.354 235.846 125.589 235.577 125.783C235.307 125.975 234.966 126.071 234.554 126.071C234.213 126.071 233.91 125.996 233.645 125.847C233.38 125.696 233.171 125.469 233.02 125.165C232.868 124.86 232.792 124.475 232.792 124.011V120.545H233.631V123.955C233.631 124.352 233.742 124.67 233.964 124.906C234.189 125.143 234.476 125.261 234.824 125.261C235.032 125.261 235.244 125.208 235.459 125.102C235.677 124.995 235.859 124.832 236.006 124.612C236.155 124.391 236.23 124.111 236.23 123.77ZM238.603 126V120.545H239.413V121.369H239.469C239.569 121.099 239.749 120.88 240.009 120.712C240.27 120.544 240.563 120.46 240.89 120.46C240.951 120.46 241.028 120.461 241.121 120.464C241.213 120.466 241.283 120.47 241.33 120.474V121.327C241.302 121.32 241.237 121.309 241.135 121.295C241.036 121.278 240.93 121.27 240.819 121.27C240.554 121.27 240.317 121.326 240.109 121.437C239.903 121.546 239.739 121.697 239.619 121.891C239.5 122.083 239.441 122.302 239.441 122.548V126H238.603ZM53.3722 144.128C53.0265 144.128 52.7128 144.063 52.4311 143.933C52.1494 143.8 51.9257 143.609 51.7599 143.361C51.5942 143.11 51.5114 142.807 51.5114 142.452C51.5114 142.139 51.5729 141.886 51.696 141.692C51.8191 141.495 51.9837 141.341 52.1896 141.23C52.3956 141.119 52.6229 141.036 52.8714 140.982C53.1224 140.925 53.3745 140.88 53.6278 140.847C53.9593 140.804 54.228 140.772 54.4339 140.751C54.6423 140.727 54.7938 140.688 54.8885 140.634C54.9856 140.579 55.0341 140.484 55.0341 140.349V140.321C55.0341 139.971 54.9382 139.698 54.7464 139.504C54.5571 139.31 54.2694 139.213 53.8835 139.213C53.4834 139.213 53.1697 139.301 52.9425 139.476C52.7152 139.651 52.5554 139.838 52.4631 140.037L51.6676 139.753C51.8097 139.421 51.9991 139.163 52.2358 138.979C52.4749 138.792 52.7353 138.661 53.017 138.588C53.3011 138.512 53.5805 138.474 53.8551 138.474C54.0303 138.474 54.2315 138.496 54.4588 138.538C54.6884 138.579 54.9098 138.663 55.1229 138.79C55.3383 138.918 55.517 139.111 55.6591 139.369C55.8011 139.627 55.8722 139.973 55.8722 140.406V144H55.0341V143.261H54.9915C54.9347 143.38 54.84 143.506 54.7074 143.641C54.5748 143.776 54.3984 143.891 54.1783 143.986C53.9581 144.08 53.6894 144.128 53.3722 144.128ZM53.5 143.375C53.8314 143.375 54.1108 143.31 54.3381 143.18C54.5677 143.049 54.7405 142.881 54.8565 142.675C54.9749 142.469 55.0341 142.253 55.0341 142.026V141.259C54.9986 141.301 54.9205 141.34 54.7997 141.376C54.6813 141.409 54.544 141.438 54.3878 141.464C54.2339 141.488 54.0836 141.509 53.9368 141.528C53.7924 141.545 53.6752 141.559 53.5852 141.571C53.3674 141.599 53.1638 141.646 52.9744 141.71C52.7874 141.771 52.6359 141.865 52.5199 141.99C52.4063 142.113 52.3494 142.281 52.3494 142.494C52.3494 142.786 52.4571 143.006 52.6726 143.155C52.8904 143.302 53.1662 143.375 53.5 143.375ZM59.4615 144.114C59.0069 144.114 58.6056 143.999 58.2576 143.769C57.9096 143.537 57.6374 143.21 57.4409 142.789C57.2444 142.365 57.1461 141.865 57.1461 141.287C57.1461 140.714 57.2444 140.217 57.4409 139.795C57.6374 139.374 57.9108 139.049 58.2612 138.819C58.6116 138.589 59.0164 138.474 59.4757 138.474C59.8308 138.474 60.1113 138.534 60.3173 138.652C60.5256 138.768 60.6842 138.901 60.7931 139.05C60.9044 139.196 60.9908 139.317 61.0524 139.412H61.1234V136.727H61.9615V144H61.1518V143.162H61.0524C60.9908 143.261 60.9032 143.387 60.7896 143.538C60.676 143.687 60.5138 143.821 60.3031 143.94C60.0924 144.056 59.8118 144.114 59.4615 144.114ZM59.5751 143.361C59.9113 143.361 60.1954 143.273 60.4274 143.098C60.6594 142.92 60.8358 142.675 60.9565 142.363C61.0772 142.048 61.1376 141.685 61.1376 141.273C61.1376 140.866 61.0784 140.509 60.96 140.204C60.8417 139.896 60.6665 139.657 60.4345 139.487C60.2025 139.314 59.916 139.227 59.5751 139.227C59.22 139.227 58.9241 139.318 58.6873 139.501C58.4529 139.681 58.2766 139.926 58.1582 140.236C58.0422 140.544 57.9842 140.889 57.9842 141.273C57.9842 141.661 58.0434 142.014 58.1618 142.331C58.2825 142.646 58.46 142.897 58.6944 143.084C58.9312 143.268 59.2247 143.361 59.5751 143.361ZM63.6127 144V138.545H64.4508V144H63.6127ZM64.0389 137.636C63.8755 137.636 63.7347 137.581 63.6163 137.469C63.5003 137.358 63.4423 137.224 63.4423 137.068C63.4423 136.912 63.5003 136.778 63.6163 136.667C63.7347 136.556 63.8755 136.5 64.0389 136.5C64.2022 136.5 64.3419 136.556 64.4579 136.667C64.5763 136.778 64.6355 136.912 64.6355 137.068C64.6355 137.224 64.5763 137.358 64.4579 137.469C64.3419 137.581 64.2022 137.636 64.0389 137.636ZM65.9858 146.045V138.545H66.7955V139.412H66.8949C66.9564 139.317 67.0417 139.196 67.1506 139.05C67.2618 138.901 67.4205 138.768 67.6264 138.652C67.8348 138.534 68.1165 138.474 68.4716 138.474C68.9309 138.474 69.3357 138.589 69.6861 138.819C70.0365 139.049 70.3099 139.374 70.5064 139.795C70.7029 140.217 70.8011 140.714 70.8011 141.287C70.8011 141.865 70.7029 142.365 70.5064 142.789C70.3099 143.21 70.0376 143.537 69.6896 143.769C69.3416 143.999 68.9403 144.114 68.4858 144.114C68.1354 144.114 67.8549 144.056 67.6442 143.94C67.4335 143.821 67.2713 143.687 67.1577 143.538C67.044 143.387 66.9564 143.261 66.8949 143.162H66.8239V146.045H65.9858ZM66.8097 141.273C66.8097 141.685 66.87 142.048 66.9908 142.363C67.1115 142.675 67.2879 142.92 67.5199 143.098C67.7519 143.273 68.036 143.361 68.3722 143.361C68.7225 143.361 69.0149 143.268 69.2493 143.084C69.486 142.897 69.6636 142.646 69.782 142.331C69.9027 142.014 69.9631 141.661 69.9631 141.273C69.9631 140.889 69.9039 140.544 69.7855 140.236C69.6695 139.926 69.4931 139.681 69.2564 139.501C69.022 139.318 68.7273 139.227 68.3722 139.227C68.0313 139.227 67.7448 139.314 67.5128 139.487C67.2808 139.657 67.1056 139.896 66.9872 140.204C66.8688 140.509 66.8097 140.866 66.8097 141.273ZM72.0795 144V138.545H72.9176V144H72.0795ZM72.5057 137.636C72.3423 137.636 72.2015 137.581 72.0831 137.469C71.9671 137.358 71.9091 137.224 71.9091 137.068C71.9091 136.912 71.9671 136.778 72.0831 136.667C72.2015 136.556 72.3423 136.5 72.5057 136.5C72.669 136.5 72.8087 136.556 72.9247 136.667C73.0431 136.778 73.1023 136.912 73.1023 137.068C73.1023 137.224 73.0431 137.358 72.9247 137.469C72.8087 137.581 72.669 137.636 72.5057 137.636ZM78.3162 139.767L77.5634 139.98C77.516 139.855 77.4462 139.733 77.3539 139.614C77.2639 139.494 77.1408 139.394 76.9846 139.316C76.8283 139.238 76.6283 139.199 76.3844 139.199C76.0506 139.199 75.7724 139.276 75.5499 139.43C75.3297 139.581 75.2196 139.774 75.2196 140.009C75.2196 140.217 75.2954 140.381 75.4469 140.502C75.5984 140.623 75.8352 140.723 76.1571 140.804L76.9668 141.003C77.4545 141.121 77.8179 141.302 78.057 141.546C78.2961 141.788 78.4157 142.099 78.4157 142.48C78.4157 142.793 78.3257 143.072 78.1458 143.318C77.9682 143.564 77.7196 143.759 77.4 143.901C77.0804 144.043 76.7087 144.114 76.285 144.114C75.7286 144.114 75.2682 143.993 74.9036 143.751C74.539 143.51 74.3082 143.157 74.2111 142.693L75.0066 142.494C75.0823 142.788 75.2256 143.008 75.4363 143.155C75.6493 143.302 75.9275 143.375 76.2708 143.375C76.6614 143.375 76.9715 143.292 77.2012 143.126C77.4332 142.958 77.5492 142.757 77.5492 142.523C77.5492 142.333 77.4829 142.175 77.3503 142.047C77.2177 141.917 77.0141 141.82 76.7395 141.756L75.8304 141.543C75.3309 141.424 74.964 141.241 74.7296 140.992C74.4976 140.741 74.3816 140.428 74.3816 140.051C74.3816 139.743 74.468 139.471 74.6408 139.234C74.816 138.998 75.0539 138.812 75.3546 138.677C75.6576 138.542 76.0009 138.474 76.3844 138.474C76.9242 138.474 77.348 138.593 77.6557 138.83C77.9658 139.066 78.186 139.379 78.3162 139.767ZM81.8931 144.114C81.3817 144.114 80.9414 143.993 80.5721 143.751C80.2028 143.51 79.9187 143.177 79.7198 142.754C79.521 142.33 79.4215 141.846 79.4215 141.301C79.4215 140.747 79.5233 140.258 79.7269 139.835C79.9329 139.408 80.2193 139.076 80.5863 138.837C80.9556 138.595 81.3865 138.474 81.8789 138.474C82.2624 138.474 82.6081 138.545 82.9158 138.688C83.2236 138.83 83.4757 139.028 83.6722 139.284C83.8687 139.54 83.9906 139.838 84.038 140.179H83.1999C83.136 139.93 82.994 139.71 82.7738 139.518C82.556 139.324 82.2624 139.227 81.8931 139.227C81.5664 139.227 81.2799 139.312 81.0337 139.483C80.7899 139.651 80.5993 139.889 80.462 140.197C80.3271 140.502 80.2596 140.861 80.2596 141.273C80.2596 141.694 80.3259 142.061 80.4585 142.374C80.5934 142.686 80.7828 142.929 81.0266 143.102C81.2728 143.274 81.5617 143.361 81.8931 143.361C82.1109 143.361 82.3086 143.323 82.4862 143.247C82.6637 143.171 82.814 143.062 82.9371 142.92C83.0603 142.778 83.1478 142.608 83.1999 142.409H84.038C83.9906 142.731 83.8735 143.021 83.6864 143.279C83.5018 143.535 83.2567 143.738 82.9513 143.89C82.6483 144.039 82.2956 144.114 81.8931 144.114ZM85.2631 144V138.545H86.1012V144H85.2631ZM85.6893 137.636C85.5259 137.636 85.3851 137.581 85.2667 137.469C85.1507 137.358 85.0927 137.224 85.0927 137.068C85.0927 136.912 85.1507 136.778 85.2667 136.667C85.3851 136.556 85.5259 136.5 85.6893 136.5C85.8526 136.5 85.9923 136.556 86.1083 136.667C86.2267 136.778 86.2859 136.912 86.2859 137.068C86.2859 137.224 86.2267 137.358 86.1083 137.469C85.9923 137.581 85.8526 137.636 85.6893 137.636ZM88.4743 140.719V144H87.6362V138.545H88.4458V139.398H88.5169C88.6447 139.121 88.8388 138.898 89.0993 138.73C89.3597 138.56 89.6958 138.474 90.1078 138.474C90.4771 138.474 90.8002 138.55 91.0772 138.702C91.3542 138.851 91.5697 139.078 91.7235 139.384C91.8774 139.687 91.9544 140.07 91.9544 140.534V144H91.1163V140.591C91.1163 140.162 91.005 139.829 90.7825 139.589C90.56 139.348 90.2546 139.227 89.8663 139.227C89.5988 139.227 89.3597 139.285 89.149 139.401C88.9406 139.517 88.7761 139.687 88.6554 139.909C88.5346 140.132 88.4743 140.402 88.4743 140.719ZM95.6875 146.159C95.2827 146.159 94.9347 146.107 94.6435 146.003C94.3523 145.901 94.1096 145.766 93.9155 145.598C93.7237 145.432 93.571 145.255 93.4574 145.065L94.125 144.597C94.2008 144.696 94.2966 144.81 94.4126 144.938C94.5286 145.068 94.6873 145.18 94.8885 145.275C95.0921 145.372 95.3584 145.42 95.6875 145.42C96.1278 145.42 96.4912 145.314 96.7777 145.101C97.0642 144.888 97.2074 144.554 97.2074 144.099V142.991H97.1364C97.0748 143.091 96.9872 143.214 96.8736 143.361C96.7623 143.505 96.6013 143.634 96.3906 143.748C96.1823 143.859 95.9006 143.915 95.5455 143.915C95.1051 143.915 94.7098 143.811 94.3594 143.602C94.0114 143.394 93.7356 143.091 93.532 142.693C93.3307 142.295 93.2301 141.812 93.2301 141.244C93.2301 140.686 93.3284 140.199 93.5249 139.785C93.7214 139.368 93.9948 139.046 94.3452 138.819C94.6955 138.589 95.1004 138.474 95.5597 138.474C95.9148 138.474 96.1965 138.534 96.4048 138.652C96.6155 138.768 96.7765 138.901 96.8878 139.05C97.0014 139.196 97.089 139.317 97.1506 139.412H97.2358V138.545H98.0455V144.156C98.0455 144.625 97.9389 145.006 97.7259 145.3C97.5152 145.596 97.2311 145.812 96.8736 145.95C96.5185 146.089 96.1231 146.159 95.6875 146.159ZM95.6591 143.162C95.9953 143.162 96.2794 143.085 96.5114 142.931C96.7434 142.777 96.9197 142.556 97.0405 142.267C97.1612 141.978 97.2216 141.633 97.2216 141.23C97.2216 140.837 97.1624 140.49 97.044 140.19C96.9257 139.889 96.7505 139.653 96.5185 139.483C96.2865 139.312 96 139.227 95.6591 139.227C95.304 139.227 95.008 139.317 94.7713 139.497C94.5369 139.677 94.3606 139.919 94.2422 140.222C94.1262 140.525 94.0682 140.861 94.0682 141.23C94.0682 141.609 94.1274 141.944 94.2457 142.235C94.3665 142.524 94.544 142.751 94.7784 142.917C95.0152 143.08 95.3087 143.162 95.6591 143.162ZM104.679 144.114C104.153 144.114 103.7 143.998 103.319 143.766C102.94 143.531 102.648 143.205 102.442 142.786C102.238 142.364 102.136 141.874 102.136 141.315C102.136 140.757 102.238 140.264 102.442 139.838C102.648 139.41 102.934 139.076 103.301 138.837C103.67 138.595 104.101 138.474 104.594 138.474C104.878 138.474 105.158 138.522 105.435 138.616C105.712 138.711 105.964 138.865 106.192 139.078C106.419 139.289 106.6 139.568 106.735 139.916C106.87 140.264 106.938 140.693 106.938 141.202V141.557H102.733V140.832H106.085C106.085 140.525 106.024 140.25 105.901 140.009C105.78 139.767 105.607 139.576 105.382 139.437C105.16 139.297 104.897 139.227 104.594 139.227C104.26 139.227 103.971 139.31 103.727 139.476C103.486 139.639 103.3 139.852 103.17 140.115C103.04 140.378 102.974 140.66 102.974 140.96V141.443C102.974 141.855 103.045 142.204 103.188 142.491C103.332 142.775 103.532 142.991 103.788 143.141C104.043 143.287 104.34 143.361 104.679 143.361C104.899 143.361 105.098 143.33 105.276 143.268C105.455 143.205 105.611 143.11 105.741 142.984C105.871 142.857 105.972 142.698 106.043 142.509L106.852 142.736C106.767 143.01 106.624 143.252 106.423 143.46C106.221 143.666 105.973 143.827 105.677 143.943C105.381 144.057 105.048 144.114 104.679 144.114ZM109.05 136.727V144H108.212V136.727H109.05ZM110.585 144V138.545H111.423V144H110.585ZM111.012 137.636C110.848 137.636 110.707 137.581 110.589 137.469C110.473 137.358 110.415 137.224 110.415 137.068C110.415 136.912 110.473 136.778 110.589 136.667C110.707 136.556 110.848 136.5 111.012 136.5C111.175 136.5 111.315 136.556 111.431 136.667C111.549 136.778 111.608 136.912 111.608 137.068C111.608 137.224 111.549 137.358 111.431 137.469C111.315 137.581 111.175 137.636 111.012 137.636ZM115.331 138.545V139.256H112.504V138.545H115.331ZM113.328 137.239H114.166V142.438C114.166 142.674 114.2 142.852 114.269 142.97C114.34 143.086 114.43 143.164 114.539 143.205C114.65 143.242 114.767 143.261 114.89 143.261C114.983 143.261 115.058 143.257 115.118 143.247C115.177 143.235 115.224 143.226 115.26 143.219L115.43 143.972C115.373 143.993 115.294 144.014 115.192 144.036C115.09 144.059 114.961 144.071 114.805 144.071C114.568 144.071 114.336 144.02 114.109 143.918C113.884 143.817 113.697 143.661 113.548 143.453C113.401 143.245 113.328 142.982 113.328 142.665V137.239ZM117.841 143.006L117.784 143.389C117.744 143.659 117.683 143.948 117.6 144.256C117.519 144.563 117.435 144.853 117.348 145.126C117.26 145.398 117.188 145.615 117.131 145.776H116.492C116.523 145.624 116.563 145.424 116.613 145.175C116.662 144.927 116.712 144.649 116.762 144.341C116.814 144.036 116.856 143.723 116.89 143.403L116.932 143.006H117.841ZM126.07 139.767L125.317 139.98C125.27 139.855 125.2 139.733 125.108 139.614C125.018 139.494 124.895 139.394 124.738 139.316C124.582 139.238 124.382 139.199 124.138 139.199C123.805 139.199 123.526 139.276 123.304 139.43C123.084 139.581 122.974 139.774 122.974 140.009C122.974 140.217 123.049 140.381 123.201 140.502C123.352 140.623 123.589 140.723 123.911 140.804L124.721 141.003C125.208 141.121 125.572 141.302 125.811 141.546C126.05 141.788 126.17 142.099 126.17 142.48C126.17 142.793 126.08 143.072 125.9 143.318C125.722 143.564 125.474 143.759 125.154 143.901C124.834 144.043 124.463 144.114 124.039 144.114C123.483 144.114 123.022 143.993 122.657 143.751C122.293 143.51 122.062 143.157 121.965 142.693L122.76 142.494C122.836 142.788 122.979 143.008 123.19 143.155C123.403 143.302 123.681 143.375 124.025 143.375C124.415 143.375 124.725 143.292 124.955 143.126C125.187 142.958 125.303 142.757 125.303 142.523C125.303 142.333 125.237 142.175 125.104 142.047C124.972 141.917 124.768 141.82 124.493 141.756L123.584 141.543C123.085 141.424 122.718 141.241 122.483 140.992C122.251 140.741 122.135 140.428 122.135 140.051C122.135 139.743 122.222 139.471 122.395 139.234C122.57 138.998 122.808 138.812 123.108 138.677C123.412 138.542 123.755 138.474 124.138 138.474C124.678 138.474 125.102 138.593 125.41 138.83C125.72 139.066 125.94 139.379 126.07 139.767ZM129.718 144.114C129.192 144.114 128.739 143.998 128.358 143.766C127.979 143.531 127.687 143.205 127.481 142.786C127.277 142.364 127.175 141.874 127.175 141.315C127.175 140.757 127.277 140.264 127.481 139.838C127.687 139.41 127.973 139.076 128.34 138.837C128.71 138.595 129.14 138.474 129.633 138.474C129.917 138.474 130.197 138.522 130.474 138.616C130.751 138.711 131.004 138.865 131.231 139.078C131.458 139.289 131.639 139.568 131.774 139.916C131.909 140.264 131.977 140.693 131.977 141.202V141.557H127.772V140.832H131.124C131.124 140.525 131.063 140.25 130.94 140.009C130.819 139.767 130.646 139.576 130.421 139.437C130.199 139.297 129.936 139.227 129.633 139.227C129.299 139.227 129.01 139.31 128.766 139.476C128.525 139.639 128.339 139.852 128.209 140.115C128.079 140.378 128.013 140.66 128.013 140.96V141.443C128.013 141.855 128.085 142.204 128.227 142.491C128.371 142.775 128.571 142.991 128.827 143.141C129.082 143.287 129.379 143.361 129.718 143.361C129.938 143.361 130.137 143.33 130.315 143.268C130.495 143.205 130.65 143.11 130.78 142.984C130.91 142.857 131.011 142.698 131.082 142.509L131.891 142.736C131.806 143.01 131.663 143.252 131.462 143.46C131.26 143.666 131.012 143.827 130.716 143.943C130.42 144.057 130.087 144.114 129.718 144.114ZM135.311 144.114C134.857 144.114 134.455 143.999 134.107 143.769C133.759 143.537 133.487 143.21 133.29 142.789C133.094 142.365 132.996 141.865 132.996 141.287C132.996 140.714 133.094 140.217 133.29 139.795C133.487 139.374 133.76 139.049 134.111 138.819C134.461 138.589 134.866 138.474 135.325 138.474C135.68 138.474 135.961 138.534 136.167 138.652C136.375 138.768 136.534 138.901 136.643 139.05C136.754 139.196 136.84 139.317 136.902 139.412H136.973V136.727H137.811V144H137.001V143.162H136.902C136.84 143.261 136.753 143.387 136.639 143.538C136.526 143.687 136.363 143.821 136.153 143.94C135.942 144.056 135.661 144.114 135.311 144.114ZM135.425 143.361C135.761 143.361 136.045 143.273 136.277 143.098C136.509 142.92 136.685 142.675 136.806 142.363C136.927 142.048 136.987 141.685 136.987 141.273C136.987 140.866 136.928 140.509 136.81 140.204C136.691 139.896 136.516 139.657 136.284 139.487C136.052 139.314 135.766 139.227 135.425 139.227C135.07 139.227 134.774 139.318 134.537 139.501C134.303 139.681 134.126 139.926 134.008 140.236C133.892 140.544 133.834 140.889 133.834 141.273C133.834 141.661 133.893 142.014 134.011 142.331C134.132 142.646 134.31 142.897 134.544 143.084C134.781 143.268 135.074 143.361 135.425 143.361ZM144.335 144.114C143.88 144.114 143.479 143.999 143.131 143.769C142.783 143.537 142.51 143.21 142.314 142.789C142.117 142.365 142.019 141.865 142.019 141.287C142.019 140.714 142.117 140.217 142.314 139.795C142.51 139.374 142.784 139.049 143.134 138.819C143.485 138.589 143.889 138.474 144.349 138.474C144.704 138.474 144.984 138.534 145.19 138.652C145.399 138.768 145.557 138.901 145.666 139.05C145.777 139.196 145.864 139.317 145.925 139.412H145.996V136.727H146.835V144H146.025V143.162H145.925C145.864 143.261 145.776 143.387 145.663 143.538C145.549 143.687 145.387 143.821 145.176 143.94C144.965 144.056 144.685 144.114 144.335 144.114ZM144.448 143.361C144.784 143.361 145.068 143.273 145.3 143.098C145.532 142.92 145.709 142.675 145.83 142.363C145.95 142.048 146.011 141.685 146.011 141.273C146.011 140.866 145.951 140.509 145.833 140.204C145.715 139.896 145.54 139.657 145.308 139.487C145.076 139.314 144.789 139.227 144.448 139.227C144.093 139.227 143.797 139.318 143.56 139.501C143.326 139.681 143.15 139.926 143.031 140.236C142.915 140.544 142.857 140.889 142.857 141.273C142.857 141.661 142.916 142.014 143.035 142.331C143.156 142.646 143.333 142.897 143.567 143.084C143.804 143.268 144.098 143.361 144.448 143.361ZM150.702 144.114C150.209 144.114 149.777 143.996 149.406 143.762C149.036 143.528 148.747 143.2 148.539 142.778C148.333 142.357 148.23 141.865 148.23 141.301C148.23 140.733 148.333 140.237 148.539 139.813C148.747 139.389 149.036 139.06 149.406 138.826C149.777 138.592 150.209 138.474 150.702 138.474C151.194 138.474 151.625 138.592 151.994 138.826C152.366 139.06 152.655 139.389 152.861 139.813C153.069 140.237 153.173 140.733 153.173 141.301C153.173 141.865 153.069 142.357 152.861 142.778C152.655 143.2 152.366 143.528 151.994 143.762C151.625 143.996 151.194 144.114 150.702 144.114ZM150.702 143.361C151.076 143.361 151.384 143.265 151.625 143.073C151.866 142.881 152.045 142.629 152.161 142.317C152.277 142.004 152.335 141.666 152.335 141.301C152.335 140.937 152.277 140.597 152.161 140.282C152.045 139.967 151.866 139.713 151.625 139.518C151.384 139.324 151.076 139.227 150.702 139.227C150.328 139.227 150.02 139.324 149.778 139.518C149.537 139.713 149.358 139.967 149.242 140.282C149.126 140.597 149.068 140.937 149.068 141.301C149.068 141.666 149.126 142.004 149.242 142.317C149.358 142.629 149.537 142.881 149.778 143.073C150.02 143.265 150.328 143.361 150.702 143.361ZM159.552 144.114C159.026 144.114 158.573 143.998 158.192 143.766C157.813 143.531 157.521 143.205 157.315 142.786C157.111 142.364 157.009 141.874 157.009 141.315C157.009 140.757 157.111 140.264 157.315 139.838C157.521 139.41 157.807 139.076 158.174 138.837C158.544 138.595 158.974 138.474 159.467 138.474C159.751 138.474 160.031 138.522 160.308 138.616C160.585 138.711 160.838 138.865 161.065 139.078C161.292 139.289 161.473 139.568 161.608 139.916C161.743 140.264 161.811 140.693 161.811 141.202V141.557H157.606V140.832H160.958C160.958 140.525 160.897 140.25 160.774 140.009C160.653 139.767 160.48 139.576 160.255 139.437C160.033 139.297 159.77 139.227 159.467 139.227C159.133 139.227 158.844 139.31 158.6 139.476C158.359 139.639 158.173 139.852 158.043 140.115C157.913 140.378 157.847 140.66 157.847 140.96V141.443C157.847 141.855 157.919 142.204 158.061 142.491C158.205 142.775 158.405 142.991 158.661 143.141C158.916 143.287 159.213 143.361 159.552 143.361C159.772 143.361 159.971 143.33 160.149 143.268C160.329 143.205 160.484 143.11 160.614 142.984C160.744 142.857 160.845 142.698 160.916 142.509L161.725 142.736C161.64 143.01 161.497 143.252 161.296 143.46C161.094 143.666 160.846 143.827 160.55 143.943C160.254 144.057 159.921 144.114 159.552 144.114ZM163.085 144V138.545H163.923V144H163.085ZM163.512 137.636C163.348 137.636 163.207 137.581 163.089 137.469C162.973 137.358 162.915 137.224 162.915 137.068C162.915 136.912 162.973 136.778 163.089 136.667C163.207 136.556 163.348 136.5 163.512 136.5C163.675 136.5 163.815 136.556 163.931 136.667C164.049 136.778 164.108 136.912 164.108 137.068C164.108 137.224 164.049 137.358 163.931 137.469C163.815 137.581 163.675 137.636 163.512 137.636ZM168.896 141.77V138.545H169.734V144H168.896V143.077H168.839C168.711 143.354 168.512 143.589 168.243 143.783C167.973 143.975 167.632 144.071 167.22 144.071C166.879 144.071 166.576 143.996 166.311 143.847C166.046 143.696 165.837 143.469 165.686 143.165C165.534 142.86 165.458 142.475 165.458 142.011V138.545H166.297V141.955C166.297 142.352 166.408 142.67 166.63 142.906C166.855 143.143 167.142 143.261 167.49 143.261C167.698 143.261 167.91 143.208 168.125 143.102C168.343 142.995 168.525 142.832 168.672 142.612C168.821 142.391 168.896 142.111 168.896 141.77ZM175.133 139.767L174.38 139.98C174.332 139.855 174.263 139.733 174.17 139.614C174.08 139.494 173.957 139.394 173.801 139.316C173.645 139.238 173.445 139.199 173.201 139.199C172.867 139.199 172.589 139.276 172.366 139.43C172.146 139.581 172.036 139.774 172.036 140.009C172.036 140.217 172.112 140.381 172.263 140.502C172.415 140.623 172.652 140.723 172.974 140.804L173.783 141.003C174.271 141.121 174.634 141.302 174.873 141.546C175.113 141.788 175.232 142.099 175.232 142.48C175.232 142.793 175.142 143.072 174.962 143.318C174.785 143.564 174.536 143.759 174.216 143.901C173.897 144.043 173.525 144.114 173.101 144.114C172.545 144.114 172.085 143.993 171.72 143.751C171.355 143.51 171.125 143.157 171.028 142.693L171.823 142.494C171.899 142.788 172.042 143.008 172.253 143.155C172.466 143.302 172.744 143.375 173.087 143.375C173.478 143.375 173.788 143.292 174.018 143.126C174.25 142.958 174.366 142.757 174.366 142.523C174.366 142.333 174.299 142.175 174.167 142.047C174.034 141.917 173.831 141.82 173.556 141.756L172.647 141.543C172.147 141.424 171.78 141.241 171.546 140.992C171.314 140.741 171.198 140.428 171.198 140.051C171.198 139.743 171.284 139.471 171.457 139.234C171.632 138.998 171.87 138.812 172.171 138.677C172.474 138.542 172.817 138.474 173.201 138.474C173.741 138.474 174.164 138.593 174.472 138.83C174.782 139.066 175.002 139.379 175.133 139.767ZM176.494 144V138.545H177.303V139.398H177.374C177.488 139.107 177.671 138.88 177.925 138.719C178.178 138.556 178.482 138.474 178.837 138.474C179.197 138.474 179.497 138.556 179.736 138.719C179.977 138.88 180.165 139.107 180.3 139.398H180.357C180.497 139.116 180.706 138.892 180.986 138.727C181.265 138.558 181.6 138.474 181.991 138.474C182.478 138.474 182.877 138.627 183.188 138.933C183.498 139.236 183.653 139.708 183.653 140.349V144H182.815V140.349C182.815 139.947 182.705 139.659 182.484 139.487C182.264 139.314 182.005 139.227 181.707 139.227C181.323 139.227 181.026 139.343 180.815 139.575C180.605 139.805 180.499 140.096 180.499 140.449V144H179.647V140.264C179.647 139.954 179.546 139.704 179.345 139.515C179.144 139.323 178.885 139.227 178.567 139.227C178.35 139.227 178.146 139.285 177.957 139.401C177.77 139.517 177.618 139.678 177.502 139.884C177.388 140.088 177.332 140.323 177.332 140.591V144H176.494ZM187.401 144.114C186.908 144.114 186.476 143.996 186.105 143.762C185.735 143.528 185.447 143.2 185.238 142.778C185.032 142.357 184.929 141.865 184.929 141.301C184.929 140.733 185.032 140.237 185.238 139.813C185.447 139.389 185.735 139.06 186.105 138.826C186.476 138.592 186.908 138.474 187.401 138.474C187.893 138.474 188.324 138.592 188.694 138.826C189.065 139.06 189.354 139.389 189.56 139.813C189.768 140.237 189.873 140.733 189.873 141.301C189.873 141.865 189.768 142.357 189.56 142.778C189.354 143.2 189.065 143.528 188.694 143.762C188.324 143.996 187.893 144.114 187.401 144.114ZM187.401 143.361C187.775 143.361 188.083 143.265 188.324 143.073C188.566 142.881 188.744 142.629 188.86 142.317C188.976 142.004 189.034 141.666 189.034 141.301C189.034 140.937 188.976 140.597 188.86 140.282C188.744 139.967 188.566 139.713 188.324 139.518C188.083 139.324 187.775 139.227 187.401 139.227C187.027 139.227 186.719 139.324 186.478 139.518C186.236 139.713 186.057 139.967 185.941 140.282C185.825 140.597 185.767 140.937 185.767 141.301C185.767 141.666 185.825 142.004 185.941 142.317C186.057 142.629 186.236 142.881 186.478 143.073C186.719 143.265 187.027 143.361 187.401 143.361ZM193.211 144.114C192.757 144.114 192.356 143.999 192.008 143.769C191.66 143.537 191.387 143.21 191.191 142.789C190.994 142.365 190.896 141.865 190.896 141.287C190.896 140.714 190.994 140.217 191.191 139.795C191.387 139.374 191.661 139.049 192.011 138.819C192.362 138.589 192.766 138.474 193.226 138.474C193.581 138.474 193.861 138.534 194.067 138.652C194.276 138.768 194.434 138.901 194.543 139.05C194.654 139.196 194.741 139.317 194.802 139.412H194.873V136.727H195.711V144H194.902V143.162H194.802C194.741 143.261 194.653 143.387 194.54 143.538C194.426 143.687 194.264 143.821 194.053 143.94C193.842 144.056 193.562 144.114 193.211 144.114ZM193.325 143.361C193.661 143.361 193.945 143.273 194.177 143.098C194.409 142.92 194.586 142.675 194.706 142.363C194.827 142.048 194.888 141.685 194.888 141.273C194.888 140.866 194.828 140.509 194.71 140.204C194.592 139.896 194.416 139.657 194.184 139.487C193.952 139.314 193.666 139.227 193.325 139.227C192.97 139.227 192.674 139.318 192.437 139.501C192.203 139.681 192.027 139.926 191.908 140.236C191.792 140.544 191.734 140.889 191.734 141.273C191.734 141.661 191.793 142.014 191.912 142.331C192.032 142.646 192.21 142.897 192.444 143.084C192.681 143.268 192.975 143.361 193.325 143.361ZM202.547 138.545V139.256H199.721V138.545H202.547ZM200.545 137.239H201.383V142.438C201.383 142.674 201.417 142.852 201.486 142.97C201.557 143.086 201.647 143.164 201.756 143.205C201.867 143.242 201.984 143.261 202.107 143.261C202.199 143.261 202.275 143.257 202.334 143.247C202.394 143.235 202.441 143.226 202.476 143.219L202.647 143.972C202.59 143.993 202.511 144.014 202.409 144.036C202.307 144.059 202.178 144.071 202.022 144.071C201.785 144.071 201.553 144.02 201.326 143.918C201.101 143.817 200.914 143.661 200.765 143.453C200.618 143.245 200.545 142.982 200.545 142.665V137.239ZM206.036 144.114C205.511 144.114 205.057 143.998 204.676 143.766C204.298 143.531 204.005 143.205 203.799 142.786C203.596 142.364 203.494 141.874 203.494 141.315C203.494 140.757 203.596 140.264 203.799 139.838C204.005 139.41 204.292 139.076 204.659 138.837C205.028 138.595 205.459 138.474 205.951 138.474C206.235 138.474 206.516 138.522 206.793 138.616C207.07 138.711 207.322 138.865 207.549 139.078C207.776 139.289 207.958 139.568 208.093 139.916C208.227 140.264 208.295 140.693 208.295 141.202V141.557H204.09V140.832H207.443C207.443 140.525 207.381 140.25 207.258 140.009C207.137 139.767 206.964 139.576 206.74 139.437C206.517 139.297 206.254 139.227 205.951 139.227C205.617 139.227 205.329 139.31 205.085 139.476C204.843 139.639 204.657 139.852 204.527 140.115C204.397 140.378 204.332 140.66 204.332 140.96V141.443C204.332 141.855 204.403 142.204 204.545 142.491C204.689 142.775 204.889 142.991 205.145 143.141C205.401 143.287 205.698 143.361 206.036 143.361C206.257 143.361 206.455 143.33 206.633 143.268C206.813 143.205 206.968 143.11 207.098 142.984C207.228 142.857 207.329 142.698 207.4 142.509L208.21 142.736C208.124 143.01 207.981 143.252 207.78 143.46C207.579 143.666 207.33 143.827 207.034 143.943C206.738 144.057 206.406 144.114 206.036 144.114ZM209.57 144V138.545H210.379V139.398H210.45C210.564 139.107 210.748 138.88 211.001 138.719C211.254 138.556 211.558 138.474 211.914 138.474C212.273 138.474 212.573 138.556 212.812 138.719C213.053 138.88 213.242 139.107 213.377 139.398H213.433C213.573 139.116 213.783 138.892 214.062 138.727C214.341 138.558 214.676 138.474 215.067 138.474C215.555 138.474 215.954 138.627 216.264 138.933C216.574 139.236 216.729 139.708 216.729 140.349V144H215.891V140.349C215.891 139.947 215.781 139.659 215.561 139.487C215.34 139.314 215.081 139.227 214.783 139.227C214.399 139.227 214.102 139.343 213.892 139.575C213.681 139.805 213.575 140.096 213.575 140.449V144H212.723V140.264C212.723 139.954 212.623 139.704 212.421 139.515C212.22 139.323 211.961 139.227 211.644 139.227C211.426 139.227 211.222 139.285 211.033 139.401C210.846 139.517 210.694 139.678 210.578 139.884C210.465 140.088 210.408 140.323 210.408 140.591V144H209.57ZM218.261 146.045V138.545H219.071V139.412H219.17C219.232 139.317 219.317 139.196 219.426 139.05C219.537 138.901 219.696 138.768 219.902 138.652C220.11 138.534 220.392 138.474 220.747 138.474C221.206 138.474 221.611 138.589 221.961 138.819C222.312 139.049 222.585 139.374 222.782 139.795C222.978 140.217 223.077 140.714 223.077 141.287C223.077 141.865 222.978 142.365 222.782 142.789C222.585 143.21 222.313 143.537 221.965 143.769C221.617 143.999 221.216 144.114 220.761 144.114C220.411 144.114 220.13 144.056 219.92 143.94C219.709 143.821 219.547 143.687 219.433 143.538C219.319 143.387 219.232 143.261 219.17 143.162H219.099V146.045H218.261ZM219.085 141.273C219.085 141.685 219.145 142.048 219.266 142.363C219.387 142.675 219.563 142.92 219.795 143.098C220.027 143.273 220.311 143.361 220.648 143.361C220.998 143.361 221.29 143.268 221.525 143.084C221.761 142.897 221.939 142.646 222.057 142.331C222.178 142.014 222.238 141.661 222.238 141.273C222.238 140.889 222.179 140.544 222.061 140.236C221.945 139.926 221.769 139.681 221.532 139.501C221.297 139.318 221.003 139.227 220.648 139.227C220.307 139.227 220.02 139.314 219.788 139.487C219.556 139.657 219.381 139.896 219.263 140.204C219.144 140.509 219.085 140.866 219.085 141.273ZM226.571 144.114C226.078 144.114 225.646 143.996 225.275 143.762C224.905 143.528 224.617 143.2 224.408 142.778C224.202 142.357 224.099 141.865 224.099 141.301C224.099 140.733 224.202 140.237 224.408 139.813C224.617 139.389 224.905 139.06 225.275 138.826C225.646 138.592 226.078 138.474 226.571 138.474C227.063 138.474 227.494 138.592 227.863 138.826C228.235 139.06 228.524 139.389 228.73 139.813C228.938 140.237 229.042 140.733 229.042 141.301C229.042 141.865 228.938 142.357 228.73 142.778C228.524 143.2 228.235 143.528 227.863 143.762C227.494 143.996 227.063 144.114 226.571 144.114ZM226.571 143.361C226.945 143.361 227.253 143.265 227.494 143.073C227.736 142.881 227.914 142.629 228.03 142.317C228.146 142.004 228.204 141.666 228.204 141.301C228.204 140.937 228.146 140.597 228.03 140.282C227.914 139.967 227.736 139.713 227.494 139.518C227.253 139.324 226.945 139.227 226.571 139.227C226.197 139.227 225.889 139.324 225.648 139.518C225.406 139.713 225.227 139.967 225.111 140.282C224.995 140.597 224.937 140.937 224.937 141.301C224.937 141.666 224.995 142.004 225.111 142.317C225.227 142.629 225.406 142.881 225.648 143.073C225.889 143.265 226.197 143.361 226.571 143.361ZM230.322 144V138.545H231.131V139.369H231.188C231.288 139.099 231.468 138.88 231.728 138.712C231.988 138.544 232.282 138.46 232.609 138.46C232.67 138.46 232.747 138.461 232.839 138.464C232.932 138.466 233.002 138.47 233.049 138.474V139.327C233.021 139.32 232.955 139.309 232.854 139.295C232.754 139.278 232.649 139.27 232.538 139.27C232.272 139.27 232.036 139.326 231.827 139.437C231.621 139.546 231.458 139.697 231.337 139.891C231.219 140.083 231.16 140.302 231.16 140.548V144H230.322ZM51.767 162V156.545H52.6051V162H51.767ZM52.1932 155.636C52.0298 155.636 51.889 155.581 51.7706 155.469C51.6546 155.358 51.5966 155.224 51.5966 155.068C51.5966 154.912 51.6546 154.778 51.7706 154.667C51.889 154.556 52.0298 154.5 52.1932 154.5C52.3565 154.5 52.4962 154.556 52.6122 154.667C52.7306 154.778 52.7898 154.912 52.7898 155.068C52.7898 155.224 52.7306 155.358 52.6122 155.469C52.4962 155.581 52.3565 155.636 52.1932 155.636ZM54.9782 158.719V162H54.1401V156.545H54.9498V157.398H55.0208C55.1486 157.121 55.3427 156.898 55.6032 156.73C55.8636 156.56 56.1998 156.474 56.6117 156.474C56.981 156.474 57.3042 156.55 57.5811 156.702C57.8581 156.851 58.0736 157.078 58.2275 157.384C58.3813 157.687 58.4583 158.07 58.4583 158.534V162H57.6202V158.591C57.6202 158.162 57.5089 157.829 57.2864 157.589C57.0639 157.348 56.7585 157.227 56.3702 157.227C56.1027 157.227 55.8636 157.285 55.6529 157.401C55.4445 157.517 55.28 157.687 55.1593 157.909C55.0385 158.132 54.9782 158.402 54.9782 158.719ZM62.2056 162.114C61.6942 162.114 61.2539 161.993 60.8846 161.751C60.5153 161.51 60.2312 161.177 60.0323 160.754C59.8335 160.33 59.734 159.846 59.734 159.301C59.734 158.747 59.8358 158.258 60.0394 157.835C60.2454 157.408 60.5318 157.076 60.8988 156.837C61.2681 156.595 61.699 156.474 62.1914 156.474C62.5749 156.474 62.9206 156.545 63.2283 156.688C63.5361 156.83 63.7882 157.028 63.9847 157.284C64.1812 157.54 64.3031 157.838 64.3505 158.179H63.5124C63.4485 157.93 63.3065 157.71 63.0863 157.518C62.8685 157.324 62.5749 157.227 62.2056 157.227C61.8789 157.227 61.5924 157.312 61.3462 157.483C61.1024 157.651 60.9118 157.889 60.7745 158.197C60.6396 158.502 60.5721 158.861 60.5721 159.273C60.5721 159.694 60.6384 160.061 60.771 160.374C60.9059 160.686 61.0953 160.929 61.3391 161.102C61.5853 161.274 61.8742 161.361 62.2056 161.361C62.4234 161.361 62.6211 161.323 62.7987 161.247C62.9762 161.171 63.1265 161.062 63.2496 160.92C63.3728 160.778 63.4603 160.608 63.5124 160.409H64.3505C64.3031 160.731 64.186 161.021 63.9989 161.279C63.8143 161.535 63.5692 161.738 63.2638 161.89C62.9608 162.039 62.6081 162.114 62.2056 162.114ZM65.5756 162V156.545H66.4137V162H65.5756ZM66.0018 155.636C65.8384 155.636 65.6976 155.581 65.5792 155.469C65.4632 155.358 65.4052 155.224 65.4052 155.068C65.4052 154.912 65.4632 154.778 65.5792 154.667C65.6976 154.556 65.8384 154.5 66.0018 154.5C66.1651 154.5 66.3048 154.556 66.4208 154.667C66.5392 154.778 66.5984 154.912 66.5984 155.068C66.5984 155.224 66.5392 155.358 66.4208 155.469C66.3048 155.581 66.1651 155.636 66.0018 155.636ZM70.0083 162.114C69.5538 162.114 69.1525 161.999 68.8045 161.769C68.4565 161.537 68.1842 161.21 67.9877 160.789C67.7913 160.365 67.693 159.865 67.693 159.287C67.693 158.714 67.7913 158.217 67.9877 157.795C68.1842 157.374 68.4577 157.049 68.8081 156.819C69.1584 156.589 69.5633 156.474 70.0225 156.474C70.3777 156.474 70.6582 156.534 70.8642 156.652C71.0725 156.768 71.2311 156.901 71.34 157.05C71.4513 157.196 71.5377 157.317 71.5993 157.412H71.6703V154.727H72.5083V162H71.6987V161.162H71.5993C71.5377 161.261 71.4501 161.387 71.3365 161.538C71.2228 161.687 71.0607 161.821 70.85 161.94C70.6393 162.056 70.3587 162.114 70.0083 162.114ZM70.122 161.361C70.4582 161.361 70.7422 161.273 70.9743 161.098C71.2063 160.92 71.3826 160.675 71.5034 160.363C71.6241 160.048 71.6845 159.685 71.6845 159.273C71.6845 158.866 71.6253 158.509 71.5069 158.204C71.3886 157.896 71.2134 157.657 70.9814 157.487C70.7493 157.314 70.4629 157.227 70.122 157.227C69.7669 157.227 69.4709 157.318 69.2342 157.501C68.9998 157.681 68.8234 157.926 68.7051 158.236C68.5891 158.544 68.5311 158.889 68.5311 159.273C68.5311 159.661 68.5903 160.014 68.7086 160.331C68.8294 160.646 69.0069 160.897 69.2413 161.084C69.478 161.268 69.7716 161.361 70.122 161.361ZM74.1596 162V156.545H74.9977V162H74.1596ZM74.5858 155.636C74.4224 155.636 74.2815 155.581 74.1632 155.469C74.0472 155.358 73.9892 155.224 73.9892 155.068C73.9892 154.912 74.0472 154.778 74.1632 154.667C74.2815 154.556 74.4224 154.5 74.5858 154.5C74.7491 154.5 74.8888 154.556 75.0048 154.667C75.1232 154.778 75.1824 154.912 75.1824 155.068C75.1824 155.224 75.1232 155.358 75.0048 155.469C74.8888 155.581 74.7491 155.636 74.5858 155.636ZM78.5923 162.114C78.1378 162.114 77.7365 161.999 77.3885 161.769C77.0405 161.537 76.7682 161.21 76.5717 160.789C76.3752 160.365 76.277 159.865 76.277 159.287C76.277 158.714 76.3752 158.217 76.5717 157.795C76.7682 157.374 77.0417 157.049 77.392 156.819C77.7424 156.589 78.1473 156.474 78.6065 156.474C78.9616 156.474 79.2422 156.534 79.4482 156.652C79.6565 156.768 79.8151 156.901 79.924 157.05C80.0353 157.196 80.1217 157.317 80.1832 157.412H80.2543V154.727H81.0923V162H80.2827V161.162H80.1832C80.1217 161.261 80.0341 161.387 79.9205 161.538C79.8068 161.687 79.6446 161.821 79.4339 161.94C79.2232 162.056 78.9427 162.114 78.5923 162.114ZM78.706 161.361C79.0421 161.361 79.3262 161.273 79.5582 161.098C79.7902 160.92 79.9666 160.675 80.0874 160.363C80.2081 160.048 80.2685 159.685 80.2685 159.273C80.2685 158.866 80.2093 158.509 80.0909 158.204C79.9725 157.896 79.7973 157.657 79.5653 157.487C79.3333 157.314 79.0469 157.227 78.706 157.227C78.3509 157.227 78.0549 157.318 77.8182 157.501C77.5838 157.681 77.4074 157.926 77.2891 158.236C77.1731 158.544 77.1151 158.889 77.1151 159.273C77.1151 159.661 77.1742 160.014 77.2926 160.331C77.4134 160.646 77.5909 160.897 77.8253 161.084C78.062 161.268 78.3556 161.361 78.706 161.361ZM86.1811 159.77V156.545H87.0192V162H86.1811V161.077H86.1243C85.9964 161.354 85.7976 161.589 85.5277 161.783C85.2578 161.975 84.9169 162.071 84.505 162.071C84.1641 162.071 83.861 161.996 83.5959 161.847C83.3307 161.696 83.1224 161.469 82.9709 161.165C82.8194 160.86 82.7436 160.475 82.7436 160.011V156.545H83.5817V159.955C83.5817 160.352 83.6929 160.67 83.9155 160.906C84.1404 161.143 84.4268 161.261 84.7749 161.261C84.9832 161.261 85.1951 161.208 85.4105 161.102C85.6283 160.995 85.8106 160.832 85.9574 160.612C86.1065 160.391 86.1811 160.111 86.1811 159.77ZM89.3922 158.719V162H88.5542V156.545H89.3638V157.398H89.4348C89.5627 157.121 89.7568 156.898 90.0172 156.73C90.2776 156.56 90.6138 156.474 91.0257 156.474C91.3951 156.474 91.7182 156.55 91.9952 156.702C92.2722 156.851 92.4876 157.078 92.6415 157.384C92.7954 157.687 92.8723 158.07 92.8723 158.534V162H92.0343V158.591C92.0343 158.162 91.923 157.829 91.7005 157.589C91.4779 157.348 91.1725 157.227 90.7843 157.227C90.5167 157.227 90.2776 157.285 90.0669 157.401C89.8586 157.517 89.6941 157.687 89.5733 157.909C89.4526 158.132 89.3922 158.402 89.3922 158.719ZM96.7759 156.545V157.256H93.9492V156.545H96.7759ZM94.7731 155.239H95.6112V160.438C95.6112 160.674 95.6455 160.852 95.7141 160.97C95.7852 161.086 95.8751 161.164 95.984 161.205C96.0953 161.242 96.2125 161.261 96.3356 161.261C96.4279 161.261 96.5037 161.257 96.5629 161.247C96.622 161.235 96.6694 161.226 96.7049 161.219L96.8754 161.972C96.8185 161.993 96.7392 162.014 96.6374 162.036C96.5356 162.059 96.4066 162.071 96.2504 162.071C96.0136 162.071 95.7816 162.02 95.5543 161.918C95.3294 161.817 95.1424 161.661 94.9933 161.453C94.8465 161.245 94.7731 160.982 94.7731 160.665V155.239ZM104.287 159.77V156.545H105.125V162H104.287V161.077H104.23C104.102 161.354 103.903 161.589 103.633 161.783C103.363 161.975 103.022 162.071 102.61 162.071C102.27 162.071 101.967 161.996 101.701 161.847C101.436 161.696 101.228 161.469 101.076 161.165C100.925 160.86 100.849 160.475 100.849 160.011V156.545H101.687V159.955C101.687 160.352 101.798 160.67 102.021 160.906C102.246 161.143 102.532 161.261 102.88 161.261C103.089 161.261 103.301 161.208 103.516 161.102C103.734 160.995 103.916 160.832 104.063 160.612C104.212 160.391 104.287 160.111 104.287 159.77ZM109.032 156.545V157.256H106.205V156.545H109.032ZM107.029 155.239H107.867V160.438C107.867 160.674 107.901 160.852 107.97 160.97C108.041 161.086 108.131 161.164 108.24 161.205C108.351 161.242 108.468 161.261 108.591 161.261C108.684 161.261 108.76 161.257 108.819 161.247C108.878 161.235 108.925 161.226 108.961 161.219L109.131 161.972C109.074 161.993 108.995 162.014 108.893 162.036C108.791 162.059 108.662 162.071 108.506 162.071C108.269 162.071 108.037 162.02 107.81 161.918C107.585 161.817 107.398 161.661 107.249 161.453C107.102 161.245 107.029 160.982 107.029 160.665V155.239ZM113.943 154.727V162H113.105V154.727H113.943ZM117.083 162.128C116.737 162.128 116.424 162.063 116.142 161.933C115.86 161.8 115.637 161.609 115.471 161.361C115.305 161.11 115.222 160.807 115.222 160.452C115.222 160.139 115.284 159.886 115.407 159.692C115.53 159.495 115.695 159.341 115.901 159.23C116.107 159.119 116.334 159.036 116.582 158.982C116.833 158.925 117.085 158.88 117.339 158.847C117.67 158.804 117.939 158.772 118.145 158.751C118.353 158.727 118.505 158.688 118.599 158.634C118.696 158.579 118.745 158.484 118.745 158.349V158.321C118.745 157.971 118.649 157.698 118.457 157.504C118.268 157.31 117.98 157.213 117.594 157.213C117.194 157.213 116.881 157.301 116.653 157.476C116.426 157.651 116.266 157.838 116.174 158.037L115.379 157.753C115.521 157.421 115.71 157.163 115.947 156.979C116.186 156.792 116.446 156.661 116.728 156.588C117.012 156.512 117.291 156.474 117.566 156.474C117.741 156.474 117.942 156.496 118.17 156.538C118.399 156.579 118.621 156.663 118.834 156.79C119.049 156.918 119.228 157.111 119.37 157.369C119.512 157.627 119.583 157.973 119.583 158.406V162H118.745V161.261H118.702C118.646 161.38 118.551 161.506 118.418 161.641C118.286 161.776 118.109 161.891 117.889 161.986C117.669 162.08 117.4 162.128 117.083 162.128ZM117.211 161.375C117.542 161.375 117.822 161.31 118.049 161.18C118.279 161.049 118.451 160.881 118.567 160.675C118.686 160.469 118.745 160.253 118.745 160.026V159.259C118.71 159.301 118.631 159.34 118.511 159.376C118.392 159.409 118.255 159.438 118.099 159.464C117.945 159.488 117.795 159.509 117.648 159.528C117.503 159.545 117.386 159.559 117.296 159.571C117.078 159.599 116.875 159.646 116.685 159.71C116.498 159.771 116.347 159.865 116.231 159.99C116.117 160.113 116.06 160.281 116.06 160.494C116.06 160.786 116.168 161.006 116.384 161.155C116.601 161.302 116.877 161.375 117.211 161.375ZM121.226 162V154.727H122.064V157.412H122.135C122.197 157.317 122.282 157.196 122.391 157.05C122.502 156.901 122.661 156.768 122.867 156.652C123.075 156.534 123.357 156.474 123.712 156.474C124.171 156.474 124.576 156.589 124.927 156.819C125.277 157.049 125.55 157.374 125.747 157.795C125.943 158.217 126.042 158.714 126.042 159.287C126.042 159.865 125.943 160.365 125.747 160.789C125.55 161.21 125.278 161.537 124.93 161.769C124.582 161.999 124.181 162.114 123.726 162.114C123.376 162.114 123.095 162.056 122.885 161.94C122.674 161.821 122.512 161.687 122.398 161.538C122.285 161.387 122.197 161.261 122.135 161.162H122.036V162H121.226ZM122.05 159.273C122.05 159.685 122.111 160.048 122.231 160.363C122.352 160.675 122.528 160.92 122.76 161.098C122.992 161.273 123.277 161.361 123.613 161.361C123.963 161.361 124.256 161.268 124.49 161.084C124.727 160.897 124.904 160.646 125.023 160.331C125.143 160.014 125.204 159.661 125.204 159.273C125.204 158.889 125.144 158.544 125.026 158.236C124.91 157.926 124.734 157.681 124.497 157.501C124.263 157.318 123.968 157.227 123.613 157.227C123.272 157.227 122.985 157.314 122.753 157.487C122.521 157.657 122.346 157.896 122.228 158.204C122.109 158.509 122.05 158.866 122.05 159.273ZM129.54 162.114C129.047 162.114 128.615 161.996 128.243 161.762C127.874 161.528 127.585 161.2 127.377 160.778C127.171 160.357 127.068 159.865 127.068 159.301C127.068 158.733 127.171 158.237 127.377 157.813C127.585 157.389 127.874 157.06 128.243 156.826C128.615 156.592 129.047 156.474 129.54 156.474C130.032 156.474 130.463 156.592 130.832 156.826C131.204 157.06 131.493 157.389 131.699 157.813C131.907 158.237 132.011 158.733 132.011 159.301C132.011 159.865 131.907 160.357 131.699 160.778C131.493 161.2 131.204 161.528 130.832 161.762C130.463 161.996 130.032 162.114 129.54 162.114ZM129.54 161.361C129.914 161.361 130.221 161.265 130.463 161.073C130.704 160.881 130.883 160.629 130.999 160.317C131.115 160.004 131.173 159.666 131.173 159.301C131.173 158.937 131.115 158.597 130.999 158.282C130.883 157.967 130.704 157.713 130.463 157.518C130.221 157.324 129.914 157.227 129.54 157.227C129.166 157.227 128.858 157.324 128.616 157.518C128.375 157.713 128.196 157.967 128.08 158.282C127.964 158.597 127.906 158.937 127.906 159.301C127.906 159.666 127.964 160.004 128.08 160.317C128.196 160.629 128.375 160.881 128.616 161.073C128.858 161.265 129.166 161.361 129.54 161.361ZM133.29 162V156.545H134.1V157.369H134.157C134.256 157.099 134.436 156.88 134.697 156.712C134.957 156.544 135.251 156.46 135.577 156.46C135.639 156.46 135.716 156.461 135.808 156.464C135.901 156.466 135.97 156.47 136.018 156.474V157.327C135.989 157.32 135.924 157.309 135.822 157.295C135.723 157.278 135.618 157.27 135.506 157.27C135.241 157.27 135.004 157.326 134.796 157.437C134.59 157.546 134.427 157.697 134.306 157.891C134.188 158.083 134.129 158.302 134.129 158.548V162H133.29ZM139.132 162.114C138.607 162.114 138.153 161.998 137.772 161.766C137.393 161.531 137.101 161.205 136.895 160.786C136.691 160.364 136.589 159.874 136.589 159.315C136.589 158.757 136.691 158.264 136.895 157.838C137.101 157.41 137.387 157.076 137.754 156.837C138.124 156.595 138.554 156.474 139.047 156.474C139.331 156.474 139.612 156.522 139.888 156.616C140.165 156.711 140.418 156.865 140.645 157.078C140.872 157.289 141.053 157.568 141.188 157.916C141.323 158.264 141.391 158.693 141.391 159.202V159.557H137.186V158.832H140.538C140.538 158.525 140.477 158.25 140.354 158.009C140.233 157.767 140.06 157.576 139.835 157.437C139.613 157.297 139.35 157.227 139.047 157.227C138.713 157.227 138.424 157.31 138.18 157.476C137.939 157.639 137.753 157.852 137.623 158.115C137.493 158.378 137.428 158.66 137.428 158.96V159.443C137.428 159.855 137.499 160.204 137.641 160.491C137.785 160.775 137.985 160.991 138.241 161.141C138.496 161.287 138.794 161.361 139.132 161.361C139.352 161.361 139.551 161.33 139.729 161.268C139.909 161.205 140.064 161.11 140.194 160.984C140.324 160.857 140.425 160.698 140.496 160.509L141.305 160.736C141.22 161.01 141.077 161.252 140.876 161.46C140.674 161.666 140.426 161.827 140.13 161.943C139.834 162.057 139.501 162.114 139.132 162.114ZM147.765 162.114C147.239 162.114 146.786 161.998 146.405 161.766C146.026 161.531 145.734 161.205 145.528 160.786C145.324 160.364 145.222 159.874 145.222 159.315C145.222 158.757 145.324 158.264 145.528 157.838C145.734 157.41 146.02 157.076 146.387 156.837C146.756 156.595 147.187 156.474 147.68 156.474C147.964 156.474 148.244 156.522 148.521 156.616C148.798 156.711 149.05 156.865 149.278 157.078C149.505 157.289 149.686 157.568 149.821 157.916C149.956 158.264 150.023 158.693 150.023 159.202V159.557H145.819V158.832H149.171C149.171 158.525 149.11 158.25 148.987 158.009C148.866 157.767 148.693 157.576 148.468 157.437C148.246 157.297 147.983 157.227 147.68 157.227C147.346 157.227 147.057 157.31 146.813 157.476C146.572 157.639 146.386 157.852 146.256 158.115C146.125 158.378 146.06 158.66 146.06 158.96V159.443C146.06 159.855 146.131 160.204 146.273 160.491C146.418 160.775 146.618 160.991 146.874 161.141C147.129 161.287 147.426 161.361 147.765 161.361C147.985 161.361 148.184 161.33 148.362 161.268C148.541 161.205 148.696 161.11 148.827 160.984C148.957 160.857 149.058 160.698 149.129 160.509L149.938 160.736C149.853 161.01 149.71 161.252 149.509 161.46C149.307 161.666 149.059 161.827 148.763 161.943C148.467 162.057 148.134 162.114 147.765 162.114ZM153.67 156.545V157.256H150.844V156.545H153.67ZM151.668 155.239H152.506V160.438C152.506 160.674 152.54 160.852 152.609 160.97C152.68 161.086 152.77 161.164 152.879 161.205C152.99 161.242 153.107 161.261 153.23 161.261C153.322 161.261 153.398 161.257 153.457 161.247C153.517 161.235 153.564 161.226 153.599 161.219L153.77 161.972C153.713 161.993 153.634 162.014 153.532 162.036C153.43 162.059 153.301 162.071 153.145 162.071C152.908 162.071 152.676 162.02 152.449 161.918C152.224 161.817 152.037 161.661 151.888 161.453C151.741 161.245 151.668 160.982 151.668 160.665V155.239ZM159.803 162.114C159.349 162.114 158.947 161.999 158.599 161.769C158.251 161.537 157.979 161.21 157.783 160.789C157.586 160.365 157.488 159.865 157.488 159.287C157.488 158.714 157.586 158.217 157.783 157.795C157.979 157.374 158.253 157.049 158.603 156.819C158.953 156.589 159.358 156.474 159.817 156.474C160.173 156.474 160.453 156.534 160.659 156.652C160.867 156.768 161.026 156.901 161.135 157.05C161.246 157.196 161.333 157.317 161.394 157.412H161.465V154.727H162.303V162H161.494V161.162H161.394C161.333 161.261 161.245 161.387 161.131 161.538C161.018 161.687 160.856 161.821 160.645 161.94C160.434 162.056 160.154 162.114 159.803 162.114ZM159.917 161.361C160.253 161.361 160.537 161.273 160.769 161.098C161.001 160.92 161.178 160.675 161.298 160.363C161.419 160.048 161.479 159.685 161.479 159.273C161.479 158.866 161.42 158.509 161.302 158.204C161.183 157.896 161.008 157.657 160.776 157.487C160.544 157.314 160.258 157.227 159.917 157.227C159.562 157.227 159.266 157.318 159.029 157.501C158.795 157.681 158.618 157.926 158.5 158.236C158.384 158.544 158.326 158.889 158.326 159.273C158.326 159.661 158.385 160.014 158.504 160.331C158.624 160.646 158.802 160.897 159.036 161.084C159.273 161.268 159.567 161.361 159.917 161.361ZM166.17 162.114C165.678 162.114 165.246 161.996 164.874 161.762C164.505 161.528 164.216 161.2 164.008 160.778C163.802 160.357 163.699 159.865 163.699 159.301C163.699 158.733 163.802 158.237 164.008 157.813C164.216 157.389 164.505 157.06 164.874 156.826C165.246 156.592 165.678 156.474 166.17 156.474C166.663 156.474 167.094 156.592 167.463 156.826C167.835 157.06 168.124 157.389 168.33 157.813C168.538 158.237 168.642 158.733 168.642 159.301C168.642 159.865 168.538 160.357 168.33 160.778C168.124 161.2 167.835 161.528 167.463 161.762C167.094 161.996 166.663 162.114 166.17 162.114ZM166.17 161.361C166.545 161.361 166.852 161.265 167.094 161.073C167.335 160.881 167.514 160.629 167.63 160.317C167.746 160.004 167.804 159.666 167.804 159.301C167.804 158.937 167.746 158.597 167.63 158.282C167.514 157.967 167.335 157.713 167.094 157.518C166.852 157.324 166.545 157.227 166.17 157.227C165.796 157.227 165.489 157.324 165.247 157.518C165.006 157.713 164.827 157.967 164.711 158.282C164.595 158.597 164.537 158.937 164.537 159.301C164.537 159.666 164.595 160.004 164.711 160.317C164.827 160.629 165.006 160.881 165.247 161.073C165.489 161.265 165.796 161.361 166.17 161.361ZM170.759 154.727V162H169.921V154.727H170.759ZM174.51 162.114C174.018 162.114 173.586 161.996 173.214 161.762C172.845 161.528 172.556 161.2 172.348 160.778C172.142 160.357 172.039 159.865 172.039 159.301C172.039 158.733 172.142 158.237 172.348 157.813C172.556 157.389 172.845 157.06 173.214 156.826C173.586 156.592 174.018 156.474 174.51 156.474C175.003 156.474 175.434 156.592 175.803 156.826C176.175 157.06 176.463 157.389 176.669 157.813C176.878 158.237 176.982 158.733 176.982 159.301C176.982 159.865 176.878 160.357 176.669 160.778C176.463 161.2 176.175 161.528 175.803 161.762C175.434 161.996 175.003 162.114 174.51 162.114ZM174.51 161.361C174.884 161.361 175.192 161.265 175.434 161.073C175.675 160.881 175.854 160.629 175.97 160.317C176.086 160.004 176.144 159.666 176.144 159.301C176.144 158.937 176.086 158.597 175.97 158.282C175.854 157.967 175.675 157.713 175.434 157.518C175.192 157.324 174.884 157.227 174.51 157.227C174.136 157.227 173.828 157.324 173.587 157.518C173.346 157.713 173.167 157.967 173.051 158.282C172.935 158.597 172.877 158.937 172.877 159.301C172.877 159.666 172.935 160.004 173.051 160.317C173.167 160.629 173.346 160.881 173.587 161.073C173.828 161.265 174.136 161.361 174.51 161.361ZM178.261 162V156.545H179.071V157.369H179.128C179.227 157.099 179.407 156.88 179.667 156.712C179.928 156.544 180.221 156.46 180.548 156.46C180.61 156.46 180.687 156.461 180.779 156.464C180.871 156.466 180.941 156.47 180.988 156.474V157.327C180.96 157.32 180.895 157.309 180.793 157.295C180.694 157.278 180.588 157.27 180.477 157.27C180.212 157.27 179.975 157.326 179.767 157.437C179.561 157.546 179.398 157.697 179.277 157.891C179.158 158.083 179.099 158.302 179.099 158.548V162H178.261ZM184.103 162.114C183.577 162.114 183.124 161.998 182.743 161.766C182.364 161.531 182.072 161.205 181.866 160.786C181.662 160.364 181.56 159.874 181.56 159.315C181.56 158.757 181.662 158.264 181.866 157.838C182.072 157.41 182.358 157.076 182.725 156.837C183.094 156.595 183.525 156.474 184.018 156.474C184.302 156.474 184.582 156.522 184.859 156.616C185.136 156.711 185.388 156.865 185.616 157.078C185.843 157.289 186.024 157.568 186.159 157.916C186.294 158.264 186.361 158.693 186.361 159.202V159.557H182.157V158.832H185.509C185.509 158.525 185.448 158.25 185.324 158.009C185.204 157.767 185.031 157.576 184.806 157.437C184.583 157.297 184.321 157.227 184.018 157.227C183.684 157.227 183.395 157.31 183.151 157.476C182.91 157.639 182.724 157.852 182.594 158.115C182.463 158.378 182.398 158.66 182.398 158.96V159.443C182.398 159.855 182.469 160.204 182.611 160.491C182.756 160.775 182.956 160.991 183.211 161.141C183.467 161.287 183.764 161.361 184.103 161.361C184.323 161.361 184.522 161.33 184.699 161.268C184.879 161.205 185.034 161.11 185.165 160.984C185.295 160.857 185.395 160.698 185.466 160.509L186.276 160.736C186.191 161.01 186.048 161.252 185.846 161.46C185.645 161.666 185.397 161.827 185.101 161.943C184.805 162.057 184.472 162.114 184.103 162.114Z" fill="#111827"/>
<path d="M35 183H289V220C289 224.418 285.418 228 281 228H43C38.5817 228 35 224.418 35 220V183Z" fill="#F9FAFB"/>
<path d="M152 195C152 192.791 153.791 191 156 191H210C212.209 191 214 192.791 214 195V217C214 219.209 212.209 221 210 221H156C153.791 221 152 219.209 152 217V195Z" fill="white"/>
<path d="M171.207 204.111H169.878C169.827 203.827 169.732 203.577 169.592 203.361C169.453 203.145 169.283 202.962 169.081 202.811C168.879 202.661 168.653 202.547 168.403 202.47C168.156 202.393 167.893 202.355 167.615 202.355C167.112 202.355 166.662 202.482 166.264 202.734C165.869 202.987 165.557 203.358 165.327 203.847C165.099 204.335 164.986 204.932 164.986 205.636C164.986 206.347 165.099 206.946 165.327 207.435C165.557 207.923 165.871 208.293 166.268 208.543C166.666 208.793 167.114 208.918 167.611 208.918C167.886 208.918 168.148 208.881 168.395 208.807C168.645 208.73 168.871 208.618 169.072 208.47C169.274 208.322 169.445 208.142 169.584 207.929C169.726 207.713 169.824 207.466 169.878 207.188L171.207 207.192C171.136 207.621 170.999 208.016 170.794 208.376C170.592 208.734 170.332 209.044 170.014 209.305C169.699 209.564 169.338 209.764 168.932 209.906C168.526 210.048 168.082 210.119 167.602 210.119C166.847 210.119 166.173 209.94 165.582 209.582C164.991 209.222 164.526 208.706 164.185 208.036C163.847 207.365 163.678 206.565 163.678 205.636C163.678 204.705 163.848 203.905 164.189 203.237C164.53 202.567 164.996 202.053 165.587 201.695C166.178 201.334 166.849 201.153 167.602 201.153C168.065 201.153 168.497 201.22 168.898 201.354C169.301 201.484 169.663 201.678 169.984 201.933C170.305 202.186 170.571 202.496 170.781 202.862C170.991 203.226 171.134 203.642 171.207 204.111ZM174.586 210.145C174.171 210.145 173.796 210.068 173.461 209.915C173.125 209.759 172.86 209.533 172.664 209.237C172.471 208.942 172.374 208.58 172.374 208.151C172.374 207.781 172.445 207.477 172.587 207.239C172.729 207 172.921 206.811 173.162 206.672C173.404 206.533 173.674 206.428 173.972 206.357C174.27 206.286 174.574 206.232 174.884 206.195C175.276 206.149 175.594 206.112 175.838 206.084C176.083 206.053 176.26 206.003 176.371 205.935C176.482 205.866 176.537 205.756 176.537 205.602V205.572C176.537 205.2 176.432 204.912 176.222 204.707C176.015 204.503 175.705 204.401 175.293 204.401C174.864 204.401 174.526 204.496 174.279 204.686C174.034 204.874 173.865 205.082 173.772 205.312L172.574 205.04C172.716 204.642 172.924 204.321 173.196 204.077C173.472 203.83 173.789 203.651 174.147 203.54C174.505 203.426 174.881 203.369 175.276 203.369C175.537 203.369 175.814 203.401 176.107 203.463C176.402 203.523 176.678 203.634 176.934 203.795C177.192 203.957 177.404 204.189 177.569 204.49C177.733 204.788 177.816 205.176 177.816 205.653V210H176.571V209.105H176.52C176.438 209.27 176.314 209.432 176.15 209.591C175.985 209.75 175.773 209.882 175.515 209.987C175.256 210.092 174.946 210.145 174.586 210.145ZM174.863 209.122C175.215 209.122 175.516 209.053 175.766 208.913C176.019 208.774 176.211 208.592 176.341 208.368C176.475 208.141 176.542 207.898 176.542 207.639V206.795C176.496 206.841 176.408 206.884 176.277 206.923C176.15 206.96 176.003 206.993 175.838 207.021C175.674 207.047 175.513 207.071 175.357 207.094C175.201 207.114 175.07 207.131 174.965 207.145C174.718 207.176 174.492 207.229 174.287 207.303C174.086 207.376 173.924 207.483 173.801 207.622C173.682 207.759 173.623 207.94 173.623 208.168C173.623 208.483 173.739 208.722 173.972 208.884C174.205 209.043 174.502 209.122 174.863 209.122ZM180.787 206.114V210H179.513V203.455H180.736V204.52H180.817C180.967 204.173 181.203 203.895 181.524 203.685C181.848 203.474 182.256 203.369 182.747 203.369C183.193 203.369 183.584 203.463 183.919 203.651C184.254 203.835 184.514 204.111 184.699 204.477C184.884 204.844 184.976 205.297 184.976 205.837V210H183.702V205.99C183.702 205.516 183.578 205.145 183.331 204.878C183.084 204.608 182.744 204.473 182.312 204.473C182.017 204.473 181.754 204.537 181.524 204.665C181.297 204.793 181.116 204.98 180.983 205.227C180.852 205.472 180.787 205.767 180.787 206.114ZM189.442 210.132C188.808 210.132 188.263 209.989 187.805 209.702C187.351 209.412 187.001 209.013 186.757 208.504C186.513 207.996 186.391 207.413 186.391 206.757C186.391 206.092 186.516 205.506 186.766 204.997C187.016 204.486 187.368 204.087 187.822 203.8C188.277 203.513 188.813 203.369 189.429 203.369C189.926 203.369 190.369 203.462 190.759 203.646C191.148 203.828 191.462 204.084 191.7 204.413C191.942 204.743 192.085 205.128 192.131 205.568H190.891C190.822 205.261 190.666 204.997 190.422 204.776C190.18 204.554 189.857 204.443 189.45 204.443C189.095 204.443 188.784 204.537 188.517 204.724C188.253 204.909 188.047 205.173 187.899 205.517C187.751 205.858 187.678 206.261 187.678 206.727C187.678 207.205 187.75 207.616 187.895 207.963C188.04 208.31 188.244 208.578 188.509 208.768C188.776 208.959 189.089 209.054 189.45 209.054C189.692 209.054 189.911 209.01 190.107 208.922C190.305 208.831 190.472 208.702 190.605 208.534C190.741 208.366 190.837 208.165 190.891 207.929H192.131C192.085 208.352 191.947 208.73 191.717 209.062C191.487 209.395 191.179 209.656 190.793 209.847C190.409 210.037 189.959 210.132 189.442 210.132ZM196.314 210.132C195.669 210.132 195.114 209.994 194.648 209.719C194.185 209.44 193.827 209.05 193.574 208.547C193.324 208.041 193.199 207.449 193.199 206.77C193.199 206.099 193.324 205.509 193.574 204.997C193.827 204.486 194.179 204.087 194.631 203.8C195.086 203.513 195.617 203.369 196.225 203.369C196.594 203.369 196.952 203.43 197.299 203.553C197.645 203.675 197.956 203.866 198.232 204.128C198.507 204.389 198.725 204.729 198.884 205.146C199.043 205.561 199.123 206.065 199.123 206.659V207.111H193.919V206.156H197.874C197.874 205.821 197.806 205.524 197.669 205.266C197.533 205.004 197.341 204.798 197.094 204.648C196.85 204.497 196.563 204.422 196.233 204.422C195.875 204.422 195.563 204.51 195.296 204.686C195.032 204.859 194.827 205.087 194.682 205.368C194.54 205.646 194.469 205.949 194.469 206.276V207.021C194.469 207.459 194.546 207.831 194.699 208.138C194.855 208.445 195.073 208.679 195.351 208.841C195.63 209 195.955 209.08 196.327 209.08C196.569 209.08 196.789 209.045 196.988 208.977C197.186 208.906 197.358 208.801 197.503 208.662C197.648 208.523 197.759 208.351 197.836 208.146L199.042 208.364C198.945 208.719 198.772 209.03 198.522 209.297C198.275 209.561 197.963 209.767 197.588 209.915C197.216 210.06 196.792 210.132 196.314 210.132ZM201.81 201.273V210H200.536V201.273H201.81Z" fill="#374151"/>
<path d="M156 191.5H210V190.5H156V191.5ZM213.5 195V217H214.5V195H213.5ZM210 220.5H156V221.5H210V220.5ZM152.5 217V195H151.5V217H152.5ZM156 220.5C154.067 220.5 152.5 218.933 152.5 217H151.5C151.5 219.485 153.515 221.5 156 221.5V220.5ZM213.5 217C213.5 218.933 211.933 220.5 210 220.5V221.5C212.485 221.5 214.5 219.485 214.5 217H213.5ZM210 191.5C211.933 191.5 213.5 193.067 213.5 195H214.5C214.5 192.515 212.485 190.5 210 190.5V191.5ZM156 190.5C153.515 190.5 151.5 192.515 151.5 195H152.5C152.5 193.067 154.067 191.5 156 191.5V190.5Z" fill="#D1D5DB"/>
<g filter="url(#filter1_d_2623_17566)">
<path d="M225 195C225 192.791 226.791 191 229 191H271C273.209 191 275 192.791 275 195V217C275 219.209 273.209 221 271 221H229C226.791 221 225 219.209 225 217V195Z" fill="#0080FF"/>
<path d="M241.719 203.565C241.673 203.162 241.486 202.849 241.156 202.628C240.827 202.403 240.412 202.291 239.912 202.291C239.554 202.291 239.244 202.348 238.983 202.462C238.722 202.572 238.518 202.726 238.374 202.922C238.232 203.115 238.161 203.335 238.161 203.582C238.161 203.79 238.209 203.969 238.305 204.119C238.405 204.27 238.534 204.396 238.693 204.499C238.855 204.598 239.028 204.682 239.213 204.75C239.398 204.815 239.575 204.869 239.746 204.912L240.598 205.134C240.876 205.202 241.162 205.294 241.455 205.411C241.747 205.527 242.018 205.68 242.268 205.871C242.518 206.061 242.72 206.297 242.874 206.578C243.03 206.859 243.108 207.196 243.108 207.588C243.108 208.082 242.98 208.521 242.724 208.905C242.472 209.288 242.104 209.591 241.621 209.812C241.141 210.034 240.56 210.145 239.878 210.145C239.224 210.145 238.659 210.041 238.182 209.834C237.705 209.626 237.331 209.332 237.061 208.952C236.791 208.568 236.642 208.114 236.614 207.588H237.935C237.96 207.903 238.063 208.166 238.241 208.376C238.423 208.584 238.655 208.739 238.936 208.841C239.22 208.94 239.531 208.99 239.869 208.99C240.241 208.99 240.572 208.932 240.862 208.815C241.155 208.696 241.385 208.531 241.553 208.321C241.72 208.108 241.804 207.859 241.804 207.575C241.804 207.317 241.73 207.105 241.582 206.94C241.438 206.776 241.24 206.639 240.99 206.531C240.743 206.423 240.463 206.328 240.151 206.246L239.119 205.964C238.42 205.774 237.866 205.494 237.457 205.125C237.051 204.756 236.848 204.267 236.848 203.659C236.848 203.156 236.984 202.717 237.257 202.342C237.53 201.967 237.899 201.676 238.365 201.469C238.831 201.259 239.357 201.153 239.942 201.153C240.533 201.153 241.054 201.257 241.506 201.464C241.96 201.672 242.318 201.957 242.58 202.321C242.841 202.682 242.977 203.097 242.989 203.565H241.719ZM246.484 210.145C246.069 210.145 245.694 210.068 245.359 209.915C245.024 209.759 244.758 209.533 244.562 209.237C244.369 208.942 244.272 208.58 244.272 208.151C244.272 207.781 244.343 207.477 244.485 207.239C244.627 207 244.819 206.811 245.061 206.672C245.302 206.533 245.572 206.428 245.87 206.357C246.169 206.286 246.473 206.232 246.782 206.195C247.174 206.149 247.493 206.112 247.737 206.084C247.981 206.053 248.159 206.003 248.27 205.935C248.38 205.866 248.436 205.756 248.436 205.602V205.572C248.436 205.2 248.331 204.912 248.12 204.707C247.913 204.503 247.603 204.401 247.191 204.401C246.762 204.401 246.424 204.496 246.177 204.686C245.933 204.874 245.764 205.082 245.67 205.312L244.473 205.04C244.615 204.642 244.822 204.321 245.095 204.077C245.37 203.83 245.687 203.651 246.045 203.54C246.403 203.426 246.779 203.369 247.174 203.369C247.436 203.369 247.713 203.401 248.005 203.463C248.301 203.523 248.576 203.634 248.832 203.795C249.091 203.957 249.302 204.189 249.467 204.49C249.632 204.788 249.714 205.176 249.714 205.653V210H248.47V209.105H248.419C248.336 209.27 248.213 209.432 248.048 209.591C247.883 209.75 247.672 209.882 247.413 209.987C247.154 210.092 246.845 210.145 246.484 210.145ZM246.761 209.122C247.113 209.122 247.414 209.053 247.664 208.913C247.917 208.774 248.109 208.592 248.24 208.368C248.373 208.141 248.44 207.898 248.44 207.639V206.795C248.395 206.841 248.306 206.884 248.176 206.923C248.048 206.96 247.902 206.993 247.737 207.021C247.572 207.047 247.412 207.071 247.255 207.094C247.099 207.114 246.968 207.131 246.863 207.145C246.616 207.176 246.39 207.229 246.186 207.303C245.984 207.376 245.822 207.483 245.7 207.622C245.581 207.759 245.521 207.94 245.521 208.168C245.521 208.483 245.637 208.722 245.87 208.884C246.103 209.043 246.4 209.122 246.761 209.122ZM256.776 203.455L254.403 210H253.039L250.661 203.455H252.029L253.687 208.491H253.755L255.408 203.455H256.776ZM260.572 210.132C259.927 210.132 259.372 209.994 258.906 209.719C258.443 209.44 258.085 209.05 257.832 208.547C257.582 208.041 257.457 207.449 257.457 206.77C257.457 206.099 257.582 205.509 257.832 204.997C258.085 204.486 258.437 204.087 258.889 203.8C259.343 203.513 259.875 203.369 260.483 203.369C260.852 203.369 261.21 203.43 261.556 203.553C261.903 203.675 262.214 203.866 262.49 204.128C262.765 204.389 262.983 204.729 263.142 205.146C263.301 205.561 263.38 206.065 263.38 206.659V207.111H258.177V206.156H262.132C262.132 205.821 262.064 205.524 261.927 205.266C261.791 205.004 261.599 204.798 261.352 204.648C261.108 204.497 260.821 204.422 260.491 204.422C260.133 204.422 259.821 204.51 259.554 204.686C259.289 204.859 259.085 205.087 258.94 205.368C258.798 205.646 258.727 205.949 258.727 206.276V207.021C258.727 207.459 258.804 207.831 258.957 208.138C259.113 208.445 259.331 208.679 259.609 208.841C259.887 209 260.213 209.08 260.585 209.08C260.826 209.08 261.047 209.045 261.245 208.977C261.444 208.906 261.616 208.801 261.761 208.662C261.906 208.523 262.017 208.351 262.093 208.146L263.299 208.364C263.203 208.719 263.029 209.03 262.779 209.297C262.532 209.561 262.221 209.767 261.846 209.915C261.474 210.06 261.049 210.132 260.572 210.132Z" fill="white"/>
</g>
<g clip-path="url(#clip0_2623_17566)">
<path d="M270.958 113.075C270.948 113.066 270.94 113.054 270.935 113.042C270.93 113.029 270.927 113.016 270.927 113.002C270.927 112.988 270.93 112.975 270.935 112.962C270.94 112.95 270.948 112.938 270.958 112.929L274.817 109.067C274.875 109.009 274.922 108.94 274.953 108.864C274.985 108.788 275.001 108.707 275.001 108.625C275.001 108.543 274.985 108.461 274.953 108.386C274.922 108.31 274.875 108.241 274.817 108.183C274.699 108.067 274.54 108.002 274.375 108.002C274.21 108.002 274.051 108.067 273.933 108.183L270.075 112.042C270.065 112.052 270.054 112.06 270.041 112.065C270.028 112.071 270.014 112.073 270 112.073C269.986 112.073 269.972 112.071 269.959 112.065C269.946 112.06 269.935 112.052 269.925 112.042L266.067 108.183C265.949 108.067 265.79 108.002 265.625 108.002C265.46 108.002 265.301 108.067 265.183 108.183C265.125 108.241 265.078 108.31 265.047 108.386C265.015 108.461 264.999 108.543 264.999 108.625C264.999 108.707 265.015 108.788 265.047 108.864C265.078 108.94 265.125 109.009 265.183 109.067L269.042 112.929C269.052 112.938 269.06 112.95 269.065 112.962C269.07 112.975 269.073 112.988 269.073 113.002C269.073 113.016 269.07 113.029 269.065 113.042C269.06 113.054 269.052 113.066 269.042 113.075L265.183 116.933C265.125 116.991 265.078 117.06 265.047 117.136C265.015 117.211 264.999 117.293 264.999 117.375C264.999 117.457 265.015 117.538 265.047 117.614C265.078 117.69 265.125 117.759 265.183 117.817C265.301 117.933 265.46 117.998 265.625 117.998C265.79 117.998 265.949 117.933 266.067 117.817L269.925 113.958C269.935 113.948 269.946 113.94 269.959 113.935C269.972 113.929 269.986 113.926 270 113.926C270.014 113.926 270.028 113.929 270.041 113.935C270.054 113.94 270.065 113.948 270.075 113.958L273.933 117.817C274.051 117.933 274.21 117.998 274.375 117.998C274.54 117.998 274.699 117.933 274.817 117.817C274.875 117.759 274.922 117.69 274.953 117.614C274.985 117.538 275.001 117.457 275.001 117.375C275.001 117.293 274.985 117.211 274.953 117.136C274.922 117.06 274.875 116.991 274.817 116.933L270.958 113.075Z" fill="#9CA3AF"/>
</g>
</g>
<defs>
<filter id="filter0_dd_2623_17566" x="19" y="91" width="282" height="159" filterUnits="userSpaceOnUse" color-interpolation-filters="sRGB">
<feFlood flood-opacity="0" result="BackgroundImageFix"/>
<feColorMatrix in="SourceAlpha" type="matrix" values="0 0 0 0 0 0 0 0 0 0 0 0 0 0 0 0 0 0 127 0" result="hardAlpha"/>
<feMorphology radius="2" operator="erode" in="SourceAlpha" result="effect1_dropShadow_2623_17566"/>
<feOffset dy="4"/>
<feGaussianBlur stdDeviation="3"/>
<feColorMatrix type="matrix" values="0 0 0 0 0 0 0 0 0 0 0 0 0 0 0 0 0 0 0.05 0"/>
<feBlend mode="normal" in2="BackgroundImageFix" result="effect1_dropShadow_2623_17566"/>
<feColorMatrix in="SourceAlpha" type="matrix" values="0 0 0 0 0 0 0 0 0 0 0 0 0 0 0 0 0 0 127 0" result="hardAlpha"/>
<feMorphology radius="3" operator="erode" in="SourceAlpha" result="effect2_dropShadow_2623_17566"/>
<feOffset dy="10"/>
<feGaussianBlur stdDeviation="7.5"/>
<feColorMatrix type="matrix" values="0 0 0 0 0 0 0 0 0 0 0 0 0 0 0 0 0 0 0.1 0"/>
<feBlend mode="normal" in2="effect1_dropShadow_2623_17566" result="effect2_dropShadow_2623_17566"/>
<feBlend mode="normal" in="SourceGraphic" in2="effect2_dropShadow_2623_17566" result="shape"/>
</filter>
<filter id="filter1_d_2623_17566" x="223" y="190" width="54" height="34" filterUnits="userSpaceOnUse" color-interpolation-filters="sRGB">
<feFlood flood-opacity="0" result="BackgroundImageFix"/>
<feColorMatrix in="SourceAlpha" type="matrix" values="0 0 0 0 0 0 0 0 0 0 0 0 0 0 0 0 0 0 127 0" result="hardAlpha"/>
<feOffset dy="1"/>
<feGaussianBlur stdDeviation="1"/>
<feColorMatrix type="matrix" values="0 0 0 0 0 0 0 0 0 0 0 0 0 0 0 0 0 0 0.05 0"/>
<feBlend mode="normal" in2="BackgroundImageFix" result="effect1_dropShadow_2623_17566"/>
<feBlend mode="normal" in="SourceGraphic" in2="effect1_dropShadow_2623_17566" result="shape"/>
</filter>
<clipPath id="clip0_2623_17566">
<rect width="10" height="10" fill="white" transform="translate(265 108)"/>
</clipPath>
</defs>
</svg>
