<svg width="320" height="320" viewBox="0 0 320 320" fill="none" xmlns="http://www.w3.org/2000/svg">
<g filter="url(#filter0_ddd_2623_17639)">
<rect x="31" y="103" width="254" height="115" rx="8" fill="white"/>
</g>
<path d="M73.7216 186.273L76.1506 193.381H76.2486L78.6776 186.273H80.1009L76.9602 195H75.4389L72.2983 186.273H73.7216ZM81.2589 195V188.455H82.533V195H81.2589ZM81.9023 187.445C81.6808 187.445 81.4904 187.371 81.3313 187.223C81.1751 187.072 81.0969 186.893 81.0969 186.686C81.0969 186.476 81.1751 186.297 81.3313 186.149C81.4904 185.999 81.6808 185.923 81.9023 185.923C82.1239 185.923 82.3129 185.999 82.4691 186.149C82.6282 186.297 82.7077 186.476 82.7077 186.686C82.7077 186.893 82.6282 187.072 82.4691 187.223C82.3129 187.371 82.1239 187.445 81.9023 187.445ZM87.0682 195.132C86.4233 195.132 85.8679 194.994 85.402 194.719C84.9389 194.44 84.581 194.05 84.3281 193.547C84.0781 193.041 83.9531 192.449 83.9531 191.77C83.9531 191.099 84.0781 190.509 84.3281 189.997C84.581 189.486 84.9332 189.087 85.3849 188.8C85.8395 188.513 86.3707 188.369 86.9787 188.369C87.348 188.369 87.706 188.43 88.0526 188.553C88.3991 188.675 88.7102 188.866 88.9858 189.128C89.2614 189.389 89.4787 189.729 89.6378 190.146C89.7969 190.561 89.8764 191.065 89.8764 191.659V192.111H84.6733V191.156H88.6278C88.6278 190.821 88.5597 190.524 88.4233 190.266C88.2869 190.004 88.0952 189.798 87.848 189.648C87.6037 189.497 87.3168 189.422 86.9872 189.422C86.6293 189.422 86.3168 189.51 86.0497 189.686C85.7855 189.859 85.581 190.087 85.4361 190.368C85.294 190.646 85.223 190.949 85.223 191.276V192.021C85.223 192.459 85.2997 192.831 85.4531 193.138C85.6094 193.445 85.8267 193.679 86.1051 193.841C86.3835 194 86.7088 194.08 87.081 194.08C87.3224 194.08 87.5426 194.045 87.7415 193.977C87.9403 193.906 88.1122 193.801 88.2571 193.662C88.402 193.523 88.5128 193.351 88.5895 193.146L89.7955 193.364C89.6989 193.719 89.5256 194.03 89.2756 194.297C89.0284 194.561 88.7173 194.767 88.3423 194.915C87.9702 195.06 87.5455 195.132 87.0682 195.132ZM92.6974 195L90.7713 188.455H92.0881L93.3707 193.261H93.4347L94.7216 188.455H96.0384L97.3168 193.24H97.3807L98.6548 188.455H99.9716L98.0497 195H96.75L95.4205 190.274H95.3224L93.9929 195H92.6974Z" fill="#0080FF"/>
<g clip-path="url(#clip0_2623_17639)">
<path d="M264.171 124.553C264.164 124.546 264.158 124.538 264.154 124.529C264.151 124.52 264.149 124.511 264.149 124.501C264.149 124.492 264.151 124.482 264.154 124.474C264.158 124.465 264.164 124.457 264.171 124.45L266.872 121.747C266.913 121.706 266.945 121.658 266.967 121.605C266.989 121.552 267.001 121.495 267.001 121.438C267.001 121.38 266.989 121.323 266.967 121.27C266.945 121.217 266.913 121.169 266.872 121.128C266.789 121.047 266.678 121.002 266.562 121.002C266.447 121.002 266.336 121.047 266.253 121.128L263.552 123.829C263.546 123.836 263.538 123.842 263.529 123.846C263.519 123.85 263.51 123.851 263.5 123.851C263.49 123.851 263.48 123.85 263.471 123.846C263.462 123.842 263.454 123.836 263.447 123.829L260.747 121.128C260.664 121.047 260.553 121.002 260.437 121.002C260.322 121.002 260.211 121.047 260.128 121.128C260.087 121.169 260.055 121.217 260.033 121.27C260.011 121.323 259.999 121.38 259.999 121.438C259.999 121.495 260.011 121.552 260.033 121.605C260.055 121.658 260.087 121.706 260.128 121.747L262.829 124.45C262.836 124.457 262.842 124.465 262.845 124.474C262.849 124.482 262.851 124.492 262.851 124.501C262.851 124.511 262.849 124.52 262.845 124.529C262.842 124.538 262.836 124.546 262.829 124.553L260.128 127.253C260.087 127.294 260.055 127.342 260.033 127.395C260.011 127.448 259.999 127.505 259.999 127.563C259.999 127.62 260.011 127.677 260.033 127.73C260.055 127.783 260.087 127.831 260.128 127.872C260.211 127.953 260.322 127.998 260.437 127.998C260.553 127.998 260.664 127.953 260.747 127.872L263.447 125.171C263.454 125.164 263.462 125.158 263.471 125.154C263.48 125.151 263.49 125.149 263.5 125.149C263.51 125.149 263.519 125.151 263.529 125.154C263.538 125.158 263.546 125.164 263.552 125.171L266.253 127.872C266.336 127.953 266.447 127.998 266.562 127.998C266.678 127.998 266.789 127.953 266.872 127.872C266.913 127.831 266.945 127.783 266.967 127.73C266.989 127.677 267.001 127.62 267.001 127.563C267.001 127.505 266.989 127.448 266.967 127.395C266.945 127.342 266.913 127.294 266.872 127.253L264.171 124.553Z" fill="#9CA3AF"/>
</g>
<g clip-path="url(#clip1_2623_17639)">
<path d="M53 122C51.6155 122 50.2622 122.411 49.111 123.18C47.9599 123.949 47.0627 125.042 46.5328 126.321C46.003 127.6 45.8644 129.008 46.1345 130.366C46.4046 131.723 47.0713 132.971 48.0503 133.95C49.0292 134.929 50.2765 135.595 51.6344 135.865C52.9922 136.136 54.3997 135.997 55.6788 135.467C56.9579 134.937 58.0511 134.04 58.8203 132.889C59.5895 131.738 60 130.384 60 129C60 127.143 59.2625 125.363 57.9498 124.05C56.637 122.737 54.8565 122 53 122V122ZM57.0425 126.783L53.0467 132.202C53.0002 132.266 52.9414 132.319 52.8737 132.359C52.8061 132.399 52.7311 132.425 52.6532 132.436C52.5753 132.446 52.4961 132.441 52.4204 132.419C52.3446 132.398 52.2739 132.362 52.2125 132.313L49.36 130.032C49.3001 129.984 49.2503 129.925 49.2134 129.857C49.1766 129.79 49.1534 129.716 49.1453 129.639C49.1371 129.563 49.1442 129.486 49.166 129.412C49.1879 129.338 49.224 129.27 49.2725 129.21C49.3694 129.092 49.5086 129.017 49.6601 129.001C49.8116 128.985 49.9635 129.028 50.0833 129.122L52.4633 131.024L56.1033 126.083C56.1952 125.96 56.3318 125.878 56.4836 125.856C56.6354 125.833 56.7901 125.87 56.9142 125.961C56.9772 126.006 57.0306 126.063 57.0712 126.129C57.1118 126.195 57.1389 126.269 57.1509 126.345C57.1628 126.422 57.1594 126.5 57.1408 126.575C57.1222 126.65 57.0888 126.721 57.0425 126.783V126.783Z" fill="#16A34A"/>
</g>
<path d="M72.9588 133V124.273H76.0696C76.7457 124.273 77.3068 124.389 77.7528 124.622C78.2017 124.855 78.5369 125.178 78.7585 125.589C78.9801 125.999 79.0909 126.472 79.0909 127.009C79.0909 127.543 78.9787 128.013 78.7543 128.419C78.5327 128.822 78.1974 129.136 77.7486 129.361C77.3026 129.585 76.7415 129.697 76.0653 129.697H73.7088V128.564H75.946C76.3722 128.564 76.7188 128.503 76.9858 128.381C77.2557 128.259 77.4531 128.081 77.5781 127.848C77.7031 127.615 77.7656 127.335 77.7656 127.009C77.7656 126.679 77.7017 126.393 77.5739 126.152C77.4489 125.911 77.2514 125.726 76.9815 125.598C76.7145 125.467 76.3636 125.402 75.929 125.402H74.2756V133H72.9588ZM77.267 129.062L79.4233 133H77.9233L75.8097 129.062H77.267ZM83.266 133.132C82.6523 133.132 82.1168 132.991 81.6594 132.71C81.2021 132.429 80.8469 132.036 80.5941 131.53C80.3413 131.024 80.2148 130.433 80.2148 129.757C80.2148 129.078 80.3413 128.484 80.5941 127.976C80.8469 127.467 81.2021 127.072 81.6594 126.791C82.1168 126.51 82.6523 126.369 83.266 126.369C83.8796 126.369 84.4151 126.51 84.8725 126.791C85.3299 127.072 85.685 127.467 85.9379 127.976C86.1907 128.484 86.3171 129.078 86.3171 129.757C86.3171 130.433 86.1907 131.024 85.9379 131.53C85.685 132.036 85.3299 132.429 84.8725 132.71C84.4151 132.991 83.8796 133.132 83.266 133.132ZM83.2702 132.062C83.668 132.062 83.9975 131.957 84.2589 131.747C84.5202 131.537 84.7134 131.257 84.8384 130.908C84.9663 130.558 85.0302 130.173 85.0302 129.753C85.0302 129.335 84.9663 128.952 84.8384 128.602C84.7134 128.25 84.5202 127.967 84.2589 127.754C83.9975 127.541 83.668 127.435 83.2702 127.435C82.8697 127.435 82.5373 127.541 82.2731 127.754C82.0117 127.967 81.8171 128.25 81.6893 128.602C81.5643 128.952 81.5018 129.335 81.5018 129.753C81.5018 130.173 81.5643 130.558 81.6893 130.908C81.8171 131.257 82.0117 131.537 82.2731 131.747C82.5373 131.957 82.8697 132.062 83.2702 132.062ZM90.4964 133.132C89.8629 133.132 89.3175 132.989 88.8601 132.702C88.4055 132.412 88.0561 132.013 87.8118 131.504C87.5675 130.996 87.4453 130.413 87.4453 129.757C87.4453 129.092 87.5703 128.506 87.8203 127.997C88.0703 127.486 88.4226 127.087 88.8771 126.8C89.3317 126.513 89.8672 126.369 90.4837 126.369C90.9808 126.369 91.424 126.462 91.8132 126.646C92.2024 126.828 92.5163 127.084 92.755 127.413C92.9964 127.743 93.1399 128.128 93.1854 128.568H91.9453C91.8771 128.261 91.7209 127.997 91.4766 127.776C91.2351 127.554 90.9112 127.443 90.505 127.443C90.1499 127.443 89.8388 127.537 89.5717 127.724C89.3075 127.909 89.1016 128.173 88.9538 128.517C88.8061 128.858 88.7322 129.261 88.7322 129.727C88.7322 130.205 88.8047 130.616 88.9496 130.963C89.0945 131.31 89.299 131.578 89.5632 131.768C89.8303 131.959 90.1442 132.054 90.505 132.054C90.7464 132.054 90.9652 132.01 91.1612 131.922C91.3601 131.831 91.5263 131.702 91.6598 131.534C91.7962 131.366 91.8913 131.165 91.9453 130.929H93.1854C93.1399 131.352 93.0021 131.73 92.772 132.062C92.5419 132.395 92.2337 132.656 91.8473 132.847C91.4638 133.037 91.0135 133.132 90.4964 133.132ZM95.7198 130.78L95.7113 129.224H95.9329L98.5408 126.455H100.066L97.092 129.608H96.8917L95.7198 130.78ZM94.5479 133V124.273H95.8221V133H94.5479ZM98.6815 133L96.3377 129.889L97.2156 128.999L100.245 133H98.6815ZM103.779 133.132C103.134 133.132 102.579 132.994 102.113 132.719C101.65 132.44 101.292 132.05 101.039 131.547C100.789 131.041 100.664 130.449 100.664 129.77C100.664 129.099 100.789 128.509 101.039 127.997C101.292 127.486 101.644 127.087 102.096 126.8C102.55 126.513 103.082 126.369 103.69 126.369C104.059 126.369 104.417 126.43 104.763 126.553C105.11 126.675 105.421 126.866 105.697 127.128C105.972 127.389 106.19 127.729 106.349 128.146C106.508 128.561 106.587 129.065 106.587 129.659V130.111H101.384V129.156H105.339C105.339 128.821 105.271 128.524 105.134 128.266C104.998 128.004 104.806 127.798 104.559 127.648C104.315 127.497 104.028 127.422 103.698 127.422C103.34 127.422 103.028 127.51 102.761 127.686C102.496 127.859 102.292 128.087 102.147 128.368C102.005 128.646 101.934 128.949 101.934 129.276V130.021C101.934 130.459 102.011 130.831 102.164 131.138C102.32 131.445 102.538 131.679 102.816 131.841C103.094 132 103.42 132.08 103.792 132.08C104.033 132.08 104.254 132.045 104.452 131.977C104.651 131.906 104.823 131.801 104.968 131.662C105.113 131.523 105.224 131.351 105.3 131.146L106.506 131.364C106.41 131.719 106.237 132.03 105.987 132.297C105.739 132.561 105.428 132.767 105.053 132.915C104.681 133.06 104.256 133.132 103.779 133.132ZM111.056 126.455V127.477H107.481V126.455H111.056ZM108.44 124.886H109.714V131.078C109.714 131.325 109.751 131.511 109.825 131.636C109.899 131.759 109.994 131.842 110.11 131.888C110.23 131.93 110.359 131.952 110.498 131.952C110.6 131.952 110.69 131.945 110.767 131.93C110.843 131.916 110.903 131.905 110.946 131.896L111.176 132.949C111.102 132.977 110.997 133.006 110.86 133.034C110.724 133.065 110.554 133.082 110.349 133.085C110.014 133.091 109.701 133.031 109.412 132.906C109.122 132.781 108.887 132.588 108.708 132.327C108.529 132.065 108.44 131.737 108.44 131.342V124.886ZM112.709 133V124.273H115.905C116.524 124.273 117.037 124.375 117.443 124.58C117.849 124.781 118.153 125.055 118.355 125.402C118.557 125.746 118.658 126.134 118.658 126.565C118.658 126.929 118.591 127.236 118.457 127.486C118.324 127.733 118.145 127.932 117.92 128.082C117.699 128.23 117.455 128.338 117.188 128.406V128.491C117.477 128.506 117.76 128.599 118.036 128.773C118.314 128.943 118.544 129.186 118.726 129.501C118.908 129.817 118.999 130.2 118.999 130.652C118.999 131.098 118.893 131.499 118.683 131.854C118.476 132.206 118.155 132.486 117.72 132.693C117.286 132.898 116.73 133 116.054 133H112.709ZM114.026 131.871H115.926C116.557 131.871 117.009 131.749 117.281 131.504C117.554 131.26 117.69 130.955 117.69 130.588C117.69 130.312 117.621 130.06 117.482 129.83C117.342 129.599 117.143 129.416 116.885 129.28C116.629 129.143 116.325 129.075 115.973 129.075H114.026V131.871ZM114.026 128.048H115.79C116.085 128.048 116.351 127.991 116.587 127.878C116.825 127.764 117.014 127.605 117.153 127.401C117.295 127.193 117.366 126.949 117.366 126.668C117.366 126.307 117.24 126.004 116.987 125.76C116.734 125.516 116.347 125.393 115.824 125.393H114.026V128.048ZM123.215 133.132C122.602 133.132 122.066 132.991 121.609 132.71C121.151 132.429 120.796 132.036 120.543 131.53C120.29 131.024 120.164 130.433 120.164 129.757C120.164 129.078 120.29 128.484 120.543 127.976C120.796 127.467 121.151 127.072 121.609 126.791C122.066 126.51 122.602 126.369 123.215 126.369C123.829 126.369 124.364 126.51 124.822 126.791C125.279 127.072 125.634 127.467 125.887 127.976C126.14 128.484 126.266 129.078 126.266 129.757C126.266 130.433 126.14 131.024 125.887 131.53C125.634 132.036 125.279 132.429 124.822 132.71C124.364 132.991 123.829 133.132 123.215 133.132ZM123.219 132.062C123.617 132.062 123.947 131.957 124.208 131.747C124.469 131.537 124.663 131.257 124.788 130.908C124.915 130.558 124.979 130.173 124.979 129.753C124.979 129.335 124.915 128.952 124.788 128.602C124.663 128.25 124.469 127.967 124.208 127.754C123.947 127.541 123.617 127.435 123.219 127.435C122.819 127.435 122.487 127.541 122.222 127.754C121.961 127.967 121.766 128.25 121.638 128.602C121.513 128.952 121.451 129.335 121.451 129.753C121.451 130.173 121.513 130.558 121.638 130.908C121.766 131.257 121.961 131.537 122.222 131.747C122.487 131.957 122.819 132.062 123.219 132.062ZM130.744 126.455V127.477H127.169V126.455H130.744ZM128.127 124.886H129.402V131.078C129.402 131.325 129.439 131.511 129.512 131.636C129.586 131.759 129.681 131.842 129.798 131.888C129.917 131.93 130.047 131.952 130.186 131.952C130.288 131.952 130.377 131.945 130.454 131.93C130.531 131.916 130.591 131.905 130.633 131.896L130.863 132.949C130.789 132.977 130.684 133.006 130.548 133.034C130.412 133.065 130.241 133.082 130.037 133.085C129.701 133.091 129.389 133.031 129.099 132.906C128.809 132.781 128.575 132.588 128.396 132.327C128.217 132.065 128.127 131.737 128.127 131.342V124.886ZM138.086 133.132C137.453 133.132 136.907 132.989 136.45 132.702C135.995 132.412 135.646 132.013 135.402 131.504C135.157 130.996 135.035 130.413 135.035 129.757C135.035 129.092 135.16 128.506 135.41 127.997C135.66 127.486 136.012 127.087 136.467 126.8C136.922 126.513 137.457 126.369 138.074 126.369C138.571 126.369 139.014 126.462 139.403 126.646C139.792 126.828 140.106 127.084 140.345 127.413C140.586 127.743 140.73 128.128 140.775 128.568H139.535C139.467 128.261 139.311 127.997 139.066 127.776C138.825 127.554 138.501 127.443 138.095 127.443C137.74 127.443 137.429 127.537 137.162 127.724C136.897 127.909 136.691 128.173 136.544 128.517C136.396 128.858 136.322 129.261 136.322 129.727C136.322 130.205 136.395 130.616 136.539 130.963C136.684 131.31 136.889 131.578 137.153 131.768C137.42 131.959 137.734 132.054 138.095 132.054C138.336 132.054 138.555 132.01 138.751 131.922C138.95 131.831 139.116 131.702 139.25 131.534C139.386 131.366 139.481 131.165 139.535 130.929H140.775C140.73 131.352 140.592 131.73 140.362 132.062C140.132 132.395 139.824 132.656 139.437 132.847C139.054 133.037 138.603 133.132 138.086 133.132ZM142.138 133V126.455H143.369V127.494H143.438C143.557 127.142 143.767 126.865 144.068 126.663C144.372 126.459 144.716 126.357 145.099 126.357C145.179 126.357 145.273 126.359 145.381 126.365C145.491 126.371 145.578 126.378 145.641 126.386V127.605C145.589 127.591 145.499 127.575 145.368 127.558C145.237 127.538 145.107 127.528 144.976 127.528C144.675 127.528 144.406 127.592 144.17 127.72C143.938 127.845 143.753 128.02 143.616 128.244C143.48 128.466 143.412 128.719 143.412 129.003V133H142.138ZM149.33 133.132C148.685 133.132 148.13 132.994 147.664 132.719C147.201 132.44 146.843 132.05 146.59 131.547C146.34 131.041 146.215 130.449 146.215 129.77C146.215 129.099 146.34 128.509 146.59 127.997C146.843 127.486 147.195 127.087 147.647 126.8C148.101 126.513 148.632 126.369 149.24 126.369C149.61 126.369 149.968 126.43 150.314 126.553C150.661 126.675 150.972 126.866 151.248 127.128C151.523 127.389 151.74 127.729 151.9 128.146C152.059 128.561 152.138 129.065 152.138 129.659V130.111H146.935V129.156H150.89C150.89 128.821 150.821 128.524 150.685 128.266C150.549 128.004 150.357 127.798 150.11 127.648C149.865 127.497 149.578 127.422 149.249 127.422C148.891 127.422 148.578 127.51 148.311 127.686C148.047 127.859 147.843 128.087 147.698 128.368C147.556 128.646 147.485 128.949 147.485 129.276V130.021C147.485 130.459 147.561 130.831 147.715 131.138C147.871 131.445 148.088 131.679 148.367 131.841C148.645 132 148.971 132.08 149.343 132.08C149.584 132.08 149.804 132.045 150.003 131.977C150.202 131.906 150.374 131.801 150.519 131.662C150.664 131.523 150.775 131.351 150.851 131.146L152.057 131.364C151.961 131.719 151.787 132.03 151.537 132.297C151.29 132.561 150.979 132.767 150.604 132.915C150.232 133.06 149.807 133.132 149.33 133.132ZM155.457 133.145C155.042 133.145 154.667 133.068 154.332 132.915C153.996 132.759 153.731 132.533 153.535 132.237C153.342 131.942 153.245 131.58 153.245 131.151C153.245 130.781 153.316 130.477 153.458 130.239C153.6 130 153.792 129.811 154.033 129.672C154.275 129.533 154.545 129.428 154.843 129.357C155.141 129.286 155.445 129.232 155.755 129.195C156.147 129.149 156.465 129.112 156.71 129.084C156.954 129.053 157.131 129.003 157.242 128.935C157.353 128.866 157.408 128.756 157.408 128.602V128.572C157.408 128.2 157.303 127.912 157.093 127.707C156.886 127.503 156.576 127.401 156.164 127.401C155.735 127.401 155.397 127.496 155.15 127.686C154.906 127.874 154.737 128.082 154.643 128.312L153.445 128.04C153.587 127.642 153.795 127.321 154.067 127.077C154.343 126.83 154.66 126.651 155.018 126.54C155.376 126.426 155.752 126.369 156.147 126.369C156.408 126.369 156.685 126.401 156.978 126.463C157.273 126.523 157.549 126.634 157.805 126.795C158.063 126.957 158.275 127.189 158.44 127.49C158.604 127.788 158.687 128.176 158.687 128.653V133H157.442V132.105H157.391C157.309 132.27 157.185 132.432 157.021 132.591C156.856 132.75 156.644 132.882 156.386 132.987C156.127 133.092 155.817 133.145 155.457 133.145ZM155.734 132.122C156.086 132.122 156.387 132.053 156.637 131.913C156.89 131.774 157.082 131.592 157.212 131.368C157.346 131.141 157.413 130.898 157.413 130.639V129.795C157.367 129.841 157.279 129.884 157.148 129.923C157.021 129.96 156.874 129.993 156.71 130.021C156.545 130.047 156.384 130.071 156.228 130.094C156.072 130.114 155.941 130.131 155.836 130.145C155.589 130.176 155.363 130.229 155.158 130.303C154.957 130.376 154.795 130.483 154.673 130.622C154.553 130.759 154.494 130.94 154.494 131.168C154.494 131.483 154.61 131.722 154.843 131.884C155.076 132.043 155.373 132.122 155.734 132.122ZM163.439 126.455V127.477H159.864V126.455H163.439ZM160.823 124.886H162.097V131.078C162.097 131.325 162.134 131.511 162.208 131.636C162.282 131.759 162.377 131.842 162.493 131.888C162.613 131.93 162.742 131.952 162.881 131.952C162.983 131.952 163.073 131.945 163.15 131.93C163.226 131.916 163.286 131.905 163.328 131.896L163.559 132.949C163.485 132.977 163.38 133.006 163.243 133.034C163.107 133.065 162.936 133.082 162.732 133.085C162.397 133.091 162.084 133.031 161.794 132.906C161.505 132.781 161.27 132.588 161.091 132.327C160.912 132.065 160.823 131.737 160.823 131.342V124.886ZM167.599 133.132C166.955 133.132 166.399 132.994 165.933 132.719C165.47 132.44 165.112 132.05 164.859 131.547C164.609 131.041 164.484 130.449 164.484 129.77C164.484 129.099 164.609 128.509 164.859 127.997C165.112 127.486 165.464 127.087 165.916 126.8C166.371 126.513 166.902 126.369 167.51 126.369C167.879 126.369 168.237 126.43 168.584 126.553C168.93 126.675 169.241 126.866 169.517 127.128C169.793 127.389 170.01 127.729 170.169 128.146C170.328 128.561 170.408 129.065 170.408 129.659V130.111H165.205V129.156H169.159C169.159 128.821 169.091 128.524 168.955 128.266C168.818 128.004 168.626 127.798 168.379 127.648C168.135 127.497 167.848 127.422 167.518 127.422C167.161 127.422 166.848 127.51 166.581 127.686C166.317 127.859 166.112 128.087 165.967 128.368C165.825 128.646 165.754 128.949 165.754 129.276V130.021C165.754 130.459 165.831 130.831 165.984 131.138C166.141 131.445 166.358 131.679 166.636 131.841C166.915 132 167.24 132.08 167.612 132.08C167.854 132.08 168.074 132.045 168.273 131.977C168.472 131.906 168.643 131.801 168.788 131.662C168.933 131.523 169.044 131.351 169.121 131.146L170.327 131.364C170.23 131.719 170.057 132.03 169.807 132.297C169.56 132.561 169.249 132.767 168.874 132.915C168.501 133.06 168.077 133.132 167.599 133.132ZM174.272 133.128C173.743 133.128 173.272 132.993 172.857 132.723C172.445 132.45 172.121 132.062 171.885 131.56C171.652 131.054 171.536 130.447 171.536 129.74C171.536 129.033 171.654 128.428 171.89 127.925C172.128 127.422 172.455 127.037 172.87 126.77C173.284 126.503 173.755 126.369 174.28 126.369C174.686 126.369 175.013 126.438 175.26 126.574C175.51 126.707 175.703 126.864 175.84 127.043C175.979 127.222 176.087 127.379 176.164 127.516H176.24V124.273H177.515V133H176.27V131.982H176.164C176.087 132.121 175.976 132.28 175.831 132.459C175.689 132.638 175.493 132.794 175.243 132.928C174.993 133.061 174.669 133.128 174.272 133.128ZM174.553 132.041C174.919 132.041 175.229 131.945 175.482 131.751C175.738 131.555 175.931 131.284 176.061 130.938C176.195 130.591 176.262 130.187 176.262 129.727C176.262 129.273 176.196 128.875 176.066 128.534C175.935 128.193 175.743 127.928 175.49 127.737C175.238 127.547 174.925 127.452 174.553 127.452C174.169 127.452 173.85 127.551 173.594 127.75C173.338 127.949 173.145 128.22 173.015 128.564C172.887 128.908 172.823 129.295 172.823 129.727C172.823 130.165 172.888 130.558 173.019 130.908C173.15 131.257 173.343 131.534 173.598 131.739C173.857 131.94 174.175 132.041 174.553 132.041ZM180.94 124.273L180.829 130.49H179.648L179.538 124.273H180.94ZM180.241 133.081C180.005 133.081 179.803 132.999 179.636 132.834C179.468 132.666 179.386 132.464 179.388 132.229C179.386 131.996 179.468 131.797 179.636 131.632C179.803 131.464 180.005 131.381 180.241 131.381C180.471 131.381 180.67 131.464 180.837 131.632C181.005 131.797 181.09 131.996 181.093 132.229C181.09 132.385 181.049 132.528 180.969 132.659C180.893 132.787 180.79 132.889 180.663 132.966C180.535 133.043 180.394 133.081 180.241 133.081Z" fill="#111827"/>
<path d="M72.3068 146.273H73.517L75.9375 150.347H76.0398L78.4602 146.273H79.6705L76.517 151.403V155H75.4602V151.403L72.3068 146.273ZM82.6342 155.136C82.0433 155.136 81.5249 154.996 81.0788 154.714C80.6357 154.433 80.2891 154.04 80.0391 153.534C79.7919 153.028 79.6683 152.437 79.6683 151.761C79.6683 151.08 79.7919 150.484 80.0391 149.976C80.2891 149.467 80.6357 149.072 81.0788 148.791C81.5249 148.51 82.0433 148.369 82.6342 148.369C83.2251 148.369 83.7422 148.51 84.1854 148.791C84.6314 149.072 84.978 149.467 85.2251 149.976C85.4751 150.484 85.6001 151.08 85.6001 151.761C85.6001 152.437 85.4751 153.028 85.2251 153.534C84.978 154.04 84.6314 154.433 84.1854 154.714C83.7422 154.996 83.2251 155.136 82.6342 155.136ZM82.6342 154.233C83.0831 154.233 83.4524 154.118 83.7422 153.888C84.032 153.658 84.2464 153.355 84.3857 152.98C84.5249 152.605 84.5945 152.199 84.5945 151.761C84.5945 151.324 84.5249 150.916 84.3857 150.538C84.2464 150.161 84.032 149.855 83.7422 149.622C83.4524 149.389 83.0831 149.273 82.6342 149.273C82.1854 149.273 81.8161 149.389 81.5263 149.622C81.2365 149.855 81.022 150.161 80.8828 150.538C80.7436 150.916 80.674 151.324 80.674 151.761C80.674 152.199 80.7436 152.605 80.8828 152.98C81.022 153.355 81.2365 153.658 81.5263 153.888C81.8161 154.118 82.1854 154.233 82.6342 154.233ZM91.2603 152.324V148.455H92.266V155H91.2603V153.892H91.1921C91.0387 154.224 90.8001 154.507 90.4762 154.74C90.1523 154.97 89.7433 155.085 89.2489 155.085C88.8398 155.085 88.4762 154.996 88.158 154.817C87.8398 154.635 87.5898 154.362 87.408 153.999C87.2262 153.632 87.1353 153.17 87.1353 152.614V148.455H88.141V152.545C88.141 153.023 88.2745 153.403 88.5415 153.688C88.8114 153.972 89.1552 154.114 89.5728 154.114C89.8228 154.114 90.0771 154.05 90.3356 153.922C90.5969 153.794 90.8157 153.598 90.9918 153.334C91.1708 153.07 91.2603 152.733 91.2603 152.324ZM100.142 155.136C99.5284 155.136 99 154.991 98.5568 154.702C98.1136 154.412 97.7727 154.013 97.5341 153.504C97.2955 152.996 97.1761 152.415 97.1761 151.761C97.1761 151.097 97.2983 150.51 97.5426 150.001C97.7898 149.49 98.1335 149.091 98.5739 148.804C99.017 148.514 99.5341 148.369 100.125 148.369C100.585 148.369 101 148.455 101.369 148.625C101.739 148.795 102.041 149.034 102.277 149.341C102.513 149.648 102.659 150.006 102.716 150.415H101.71C101.634 150.116 101.463 149.852 101.199 149.622C100.938 149.389 100.585 149.273 100.142 149.273C99.75 149.273 99.4063 149.375 99.1108 149.58C98.8182 149.781 98.5895 150.067 98.4247 150.436C98.2628 150.803 98.1818 151.233 98.1818 151.727C98.1818 152.233 98.2614 152.673 98.4205 153.048C98.5824 153.423 98.8097 153.714 99.1023 153.922C99.3977 154.129 99.7443 154.233 100.142 154.233C100.403 154.233 100.641 154.188 100.854 154.097C101.067 154.006 101.247 153.875 101.395 153.705C101.543 153.534 101.648 153.33 101.71 153.091H102.716C102.659 153.477 102.518 153.825 102.294 154.135C102.072 154.442 101.778 154.686 101.412 154.868C101.048 155.047 100.625 155.136 100.142 155.136ZM106.112 155.153C105.697 155.153 105.321 155.075 104.983 154.919C104.645 154.76 104.376 154.531 104.178 154.233C103.979 153.932 103.879 153.568 103.879 153.142C103.879 152.767 103.953 152.463 104.101 152.23C104.249 151.994 104.446 151.81 104.693 151.676C104.94 151.543 105.213 151.443 105.511 151.378C105.813 151.31 106.115 151.256 106.419 151.216C106.817 151.165 107.139 151.126 107.386 151.101C107.636 151.072 107.818 151.026 107.932 150.96C108.048 150.895 108.107 150.781 108.107 150.619V150.585C108.107 150.165 107.991 149.838 107.761 149.605C107.534 149.372 107.189 149.256 106.726 149.256C106.246 149.256 105.869 149.361 105.597 149.571C105.324 149.781 105.132 150.006 105.021 150.244L104.067 149.903C104.237 149.506 104.464 149.196 104.749 148.974C105.036 148.75 105.348 148.594 105.686 148.506C106.027 148.415 106.362 148.369 106.692 148.369C106.902 148.369 107.143 148.395 107.416 148.446C107.692 148.494 107.957 148.595 108.213 148.749C108.472 148.902 108.686 149.134 108.857 149.443C109.027 149.753 109.112 150.168 109.112 150.688V155H108.107V154.114H108.055C107.987 154.256 107.874 154.408 107.714 154.57C107.555 154.732 107.344 154.869 107.08 154.983C106.815 155.097 106.493 155.153 106.112 155.153ZM106.266 154.25C106.663 154.25 106.999 154.172 107.271 154.016C107.547 153.859 107.754 153.658 107.893 153.411C108.036 153.163 108.107 152.903 108.107 152.631V151.71C108.064 151.761 107.97 151.808 107.825 151.851C107.683 151.891 107.518 151.926 107.331 151.957C107.146 151.986 106.966 152.011 106.79 152.034C106.616 152.054 106.476 152.071 106.368 152.085C106.107 152.119 105.862 152.175 105.635 152.251C105.411 152.325 105.229 152.437 105.089 152.588C104.953 152.736 104.885 152.937 104.885 153.193C104.885 153.543 105.014 153.807 105.273 153.986C105.534 154.162 105.865 154.25 106.266 154.25ZM111.953 151.062V155H110.948V148.455H111.919V149.477H112.005C112.158 149.145 112.391 148.878 112.703 148.676C113.016 148.472 113.419 148.369 113.914 148.369C114.357 148.369 114.745 148.46 115.077 148.642C115.409 148.821 115.668 149.094 115.853 149.46C116.037 149.824 116.13 150.284 116.13 150.841V155H115.124V150.909C115.124 150.395 114.99 149.994 114.723 149.707C114.456 149.418 114.09 149.273 113.624 149.273C113.303 149.273 113.016 149.342 112.763 149.482C112.513 149.621 112.316 149.824 112.171 150.091C112.026 150.358 111.953 150.682 111.953 151.062ZM122.348 151.062V155H121.342V148.455H122.314V149.477H122.399C122.553 149.145 122.786 148.878 123.098 148.676C123.411 148.472 123.814 148.369 124.308 148.369C124.751 148.369 125.139 148.46 125.472 148.642C125.804 148.821 126.063 149.094 126.247 149.46C126.432 149.824 126.524 150.284 126.524 150.841V155H125.518V150.909C125.518 150.395 125.385 149.994 125.118 149.707C124.851 149.418 124.484 149.273 124.018 149.273C123.697 149.273 123.411 149.342 123.158 149.482C122.908 149.621 122.71 149.824 122.565 150.091C122.42 150.358 122.348 150.682 122.348 151.062ZM131.021 155.136C130.43 155.136 129.912 154.996 129.466 154.714C129.022 154.433 128.676 154.04 128.426 153.534C128.179 153.028 128.055 152.437 128.055 151.761C128.055 151.08 128.179 150.484 128.426 149.976C128.676 149.467 129.022 149.072 129.466 148.791C129.912 148.51 130.43 148.369 131.021 148.369C131.612 148.369 132.129 148.51 132.572 148.791C133.018 149.072 133.365 149.467 133.612 149.976C133.862 150.484 133.987 151.08 133.987 151.761C133.987 152.437 133.862 153.028 133.612 153.534C133.365 154.04 133.018 154.433 132.572 154.714C132.129 154.996 131.612 155.136 131.021 155.136ZM131.021 154.233C131.47 154.233 131.839 154.118 132.129 153.888C132.419 153.658 132.633 153.355 132.772 152.98C132.912 152.605 132.981 152.199 132.981 151.761C132.981 151.324 132.912 150.916 132.772 150.538C132.633 150.161 132.419 149.855 132.129 149.622C131.839 149.389 131.47 149.273 131.021 149.273C130.572 149.273 130.203 149.389 129.913 149.622C129.623 149.855 129.409 150.161 129.27 150.538C129.13 150.916 129.061 151.324 129.061 151.761C129.061 152.199 129.13 152.605 129.27 152.98C129.409 153.355 129.623 153.658 129.913 153.888C130.203 154.118 130.572 154.233 131.021 154.233ZM136.782 155L134.788 148.455H135.845L137.26 153.466H137.328L138.725 148.455H139.799L141.18 153.449H141.248L142.663 148.455H143.72L141.725 155H140.737L139.305 149.972H139.203L137.771 155H136.782ZM153.777 148.455L151.356 155H150.333L147.913 148.455H149.004L150.811 153.67H150.879L152.686 148.455H153.777ZM155.104 155V148.455H156.11V155H155.104ZM155.615 147.364C155.419 147.364 155.25 147.297 155.108 147.163C154.969 147.03 154.9 146.869 154.9 146.682C154.9 146.494 154.969 146.334 155.108 146.2C155.25 146.067 155.419 146 155.615 146C155.811 146 155.979 146.067 156.118 146.2C156.26 146.334 156.331 146.494 156.331 146.682C156.331 146.869 156.26 147.03 156.118 147.163C155.979 147.297 155.811 147.364 155.615 147.364ZM160.696 155.136C160.065 155.136 159.521 154.997 159.064 154.719C158.609 154.438 158.259 154.045 158.011 153.543C157.767 153.037 157.645 152.449 157.645 151.778C157.645 151.108 157.767 150.517 158.011 150.006C158.259 149.491 158.602 149.091 159.043 148.804C159.486 148.514 160.003 148.369 160.594 148.369C160.935 148.369 161.271 148.426 161.604 148.54C161.936 148.653 162.239 148.838 162.511 149.094C162.784 149.347 163.001 149.682 163.163 150.099C163.325 150.517 163.406 151.031 163.406 151.642V152.068H158.361V151.199H162.384C162.384 150.83 162.31 150.5 162.162 150.21C162.017 149.92 161.81 149.692 161.54 149.524C161.273 149.357 160.957 149.273 160.594 149.273C160.193 149.273 159.847 149.372 159.554 149.571C159.264 149.767 159.041 150.023 158.885 150.338C158.729 150.653 158.651 150.991 158.651 151.352V151.932C158.651 152.426 158.736 152.845 158.906 153.189C159.08 153.53 159.32 153.79 159.626 153.969C159.933 154.145 160.29 154.233 160.696 154.233C160.96 154.233 161.199 154.196 161.412 154.122C161.628 154.045 161.814 153.932 161.97 153.781C162.126 153.628 162.247 153.437 162.332 153.21L163.304 153.483C163.202 153.812 163.03 154.102 162.788 154.352C162.547 154.599 162.249 154.793 161.893 154.932C161.538 155.068 161.139 155.136 160.696 155.136ZM166.419 155L164.425 148.455H165.482L166.896 153.466H166.964L168.362 148.455H169.436L170.817 153.449H170.885L172.3 148.455H173.357L171.362 155H170.374L168.942 149.972H168.839L167.408 155H166.419ZM179.987 155.153C179.572 155.153 179.196 155.075 178.858 154.919C178.52 154.76 178.251 154.531 178.053 154.233C177.854 153.932 177.754 153.568 177.754 153.142C177.754 152.767 177.828 152.463 177.976 152.23C178.124 151.994 178.321 151.81 178.568 151.676C178.815 151.543 179.088 151.443 179.386 151.378C179.688 151.31 179.99 151.256 180.294 151.216C180.692 151.165 181.014 151.126 181.261 151.101C181.511 151.072 181.693 151.026 181.807 150.96C181.923 150.895 181.982 150.781 181.982 150.619V150.585C181.982 150.165 181.866 149.838 181.636 149.605C181.409 149.372 181.064 149.256 180.601 149.256C180.121 149.256 179.744 149.361 179.472 149.571C179.199 149.781 179.007 150.006 178.896 150.244L177.942 149.903C178.112 149.506 178.339 149.196 178.624 148.974C178.911 148.75 179.223 148.594 179.561 148.506C179.902 148.415 180.237 148.369 180.567 148.369C180.777 148.369 181.018 148.395 181.291 148.446C181.567 148.494 181.832 148.595 182.088 148.749C182.347 148.902 182.561 149.134 182.732 149.443C182.902 149.753 182.987 150.168 182.987 150.688V155H181.982V154.114H181.93C181.862 154.256 181.749 154.408 181.589 154.57C181.43 154.732 181.219 154.869 180.955 154.983C180.69 155.097 180.368 155.153 179.987 155.153ZM180.141 154.25C180.538 154.25 180.874 154.172 181.146 154.016C181.422 153.859 181.629 153.658 181.768 153.411C181.911 153.163 181.982 152.903 181.982 152.631V151.71C181.939 151.761 181.845 151.808 181.7 151.851C181.558 151.891 181.393 151.926 181.206 151.957C181.021 151.986 180.841 152.011 180.665 152.034C180.491 152.054 180.351 152.071 180.243 152.085C179.982 152.119 179.737 152.175 179.51 152.251C179.286 152.325 179.104 152.437 178.964 152.588C178.828 152.736 178.76 152.937 178.76 153.193C178.76 153.543 178.889 153.807 179.148 153.986C179.409 154.162 179.74 154.25 180.141 154.25ZM185.828 151.062V155H184.823V148.455H185.794V149.477H185.88C186.033 149.145 186.266 148.878 186.578 148.676C186.891 148.472 187.294 148.369 187.789 148.369C188.232 148.369 188.62 148.46 188.952 148.642C189.284 148.821 189.543 149.094 189.728 149.46C189.912 149.824 190.005 150.284 190.005 150.841V155H188.999V150.909C188.999 150.395 188.865 149.994 188.598 149.707C188.331 149.418 187.965 149.273 187.499 149.273C187.178 149.273 186.891 149.342 186.638 149.482C186.388 149.621 186.191 149.824 186.046 150.091C185.901 150.358 185.828 150.682 185.828 151.062ZM194.314 155.136C193.768 155.136 193.287 154.999 192.869 154.723C192.452 154.445 192.125 154.053 191.889 153.547C191.653 153.038 191.536 152.438 191.536 151.744C191.536 151.057 191.653 150.46 191.889 149.955C192.125 149.449 192.453 149.058 192.874 148.783C193.294 148.507 193.78 148.369 194.331 148.369C194.757 148.369 195.094 148.44 195.341 148.582C195.591 148.722 195.781 148.881 195.912 149.06C196.045 149.236 196.149 149.381 196.223 149.494H196.308V146.273H197.314V155H196.342V153.994H196.223C196.149 154.114 196.044 154.264 195.908 154.446C195.771 154.625 195.577 154.786 195.324 154.928C195.071 155.067 194.734 155.136 194.314 155.136ZM194.45 154.233C194.854 154.233 195.195 154.128 195.473 153.918C195.751 153.705 195.963 153.411 196.108 153.036C196.253 152.658 196.325 152.222 196.325 151.727C196.325 151.239 196.254 150.811 196.112 150.445C195.97 150.075 195.76 149.788 195.482 149.584C195.203 149.376 194.859 149.273 194.45 149.273C194.024 149.273 193.669 149.382 193.385 149.601C193.104 149.817 192.892 150.111 192.75 150.483C192.611 150.852 192.541 151.267 192.541 151.727C192.541 152.193 192.612 152.616 192.754 152.997C192.899 153.375 193.112 153.676 193.393 153.901C193.678 154.122 194.03 154.233 194.45 154.233ZM202.67 155V148.455H203.642V149.443H203.71C203.83 149.119 204.045 148.857 204.358 148.655C204.67 148.453 205.023 148.352 205.415 148.352C205.489 148.352 205.581 148.354 205.692 148.357C205.803 148.359 205.886 148.364 205.943 148.369V149.392C205.909 149.384 205.831 149.371 205.709 149.354C205.589 149.334 205.463 149.324 205.33 149.324C205.011 149.324 204.727 149.391 204.477 149.524C204.23 149.655 204.034 149.837 203.889 150.07C203.747 150.3 203.676 150.562 203.676 150.858V155H202.67ZM211.26 152.324V148.455H212.266V155H211.26V153.892H211.192C211.039 154.224 210.8 154.507 210.476 154.74C210.152 154.97 209.743 155.085 209.249 155.085C208.84 155.085 208.476 154.996 208.158 154.817C207.84 154.635 207.59 154.362 207.408 153.999C207.226 153.632 207.135 153.17 207.135 152.614V148.455H208.141V152.545C208.141 153.023 208.275 153.403 208.542 153.688C208.811 153.972 209.155 154.114 209.573 154.114C209.823 154.114 210.077 154.05 210.336 153.922C210.597 153.794 210.816 153.598 210.992 153.334C211.171 153.07 211.26 152.733 211.26 152.324ZM215.114 151.062V155H214.108V148.455H215.08V149.477H215.165C215.318 149.145 215.551 148.878 215.864 148.676C216.176 148.472 216.58 148.369 217.074 148.369C217.517 148.369 217.905 148.46 218.237 148.642C218.57 148.821 218.828 149.094 219.013 149.46C219.197 149.824 219.29 150.284 219.29 150.841V155H218.284V150.909C218.284 150.395 218.151 149.994 217.884 149.707C217.616 149.418 217.25 149.273 216.784 149.273C216.463 149.273 216.176 149.342 215.923 149.482C215.673 149.621 215.476 149.824 215.331 150.091C215.186 150.358 215.114 150.682 215.114 151.062ZM227.349 148.455V149.307H223.957V148.455H227.349ZM224.946 146.886H225.951V153.125C225.951 153.409 225.993 153.622 226.075 153.764C226.16 153.903 226.268 153.997 226.399 154.045C226.532 154.091 226.673 154.114 226.821 154.114C226.931 154.114 227.022 154.108 227.093 154.097C227.164 154.082 227.221 154.071 227.264 154.062L227.468 154.966C227.4 154.991 227.305 155.017 227.183 155.043C227.061 155.071 226.906 155.085 226.718 155.085C226.434 155.085 226.156 155.024 225.883 154.902C225.613 154.78 225.389 154.594 225.21 154.344C225.034 154.094 224.946 153.778 224.946 153.398V146.886ZM230.008 151.062V155H229.002V146.273H230.008V149.477H230.093C230.247 149.139 230.477 148.871 230.784 148.672C231.093 148.47 231.505 148.369 232.02 148.369C232.466 148.369 232.856 148.459 233.191 148.638C233.527 148.814 233.787 149.085 233.971 149.452C234.159 149.815 234.252 150.278 234.252 150.841V155H233.247V150.909C233.247 150.389 233.112 149.987 232.842 149.703C232.575 149.416 232.204 149.273 231.73 149.273C231.4 149.273 231.105 149.342 230.843 149.482C230.585 149.621 230.38 149.824 230.23 150.091C230.082 150.358 230.008 150.682 230.008 151.062ZM236.092 155V148.455H237.098V155H236.092ZM236.604 147.364C236.408 147.364 236.239 147.297 236.097 147.163C235.957 147.03 235.888 146.869 235.888 146.682C235.888 146.494 235.957 146.334 236.097 146.2C236.239 146.067 236.408 146 236.604 146C236.8 146 236.967 146.067 237.107 146.2C237.249 146.334 237.32 146.494 237.32 146.682C237.32 146.869 237.249 147.03 237.107 147.163C236.967 147.297 236.8 147.364 236.604 147.364ZM243.576 149.92L242.673 150.176C242.616 150.026 242.532 149.879 242.422 149.737C242.314 149.592 242.166 149.473 241.978 149.379C241.791 149.286 241.551 149.239 241.258 149.239C240.858 149.239 240.524 149.331 240.257 149.516C239.993 149.697 239.86 149.929 239.86 150.21C239.86 150.46 239.951 150.658 240.133 150.803C240.315 150.947 240.599 151.068 240.985 151.165L241.957 151.403C242.542 151.545 242.978 151.763 243.265 152.055C243.552 152.345 243.696 152.719 243.696 153.176C243.696 153.551 243.588 153.886 243.372 154.182C243.159 154.477 242.86 154.71 242.477 154.881C242.093 155.051 241.647 155.136 241.139 155.136C240.471 155.136 239.919 154.991 239.481 154.702C239.044 154.412 238.767 153.989 238.65 153.432L239.605 153.193C239.696 153.545 239.868 153.81 240.12 153.986C240.376 154.162 240.71 154.25 241.122 154.25C241.591 154.25 241.963 154.151 242.238 153.952C242.517 153.75 242.656 153.509 242.656 153.227C242.656 153 242.576 152.81 242.417 152.656C242.258 152.5 242.014 152.384 241.684 152.307L240.593 152.051C239.994 151.909 239.554 151.689 239.272 151.391C238.994 151.089 238.855 150.713 238.855 150.261C238.855 149.892 238.958 149.565 239.166 149.281C239.376 148.997 239.662 148.774 240.022 148.612C240.386 148.45 240.798 148.369 241.258 148.369C241.906 148.369 242.414 148.511 242.784 148.795C243.156 149.08 243.42 149.455 243.576 149.92ZM73.0568 171V162.273H76.0057C76.6875 162.273 77.2472 162.389 77.6847 162.622C78.1222 162.852 78.446 163.169 78.6562 163.572C78.8665 163.976 78.9716 164.435 78.9716 164.949C78.9716 165.463 78.8665 165.919 78.6562 166.317C78.446 166.714 78.1236 167.027 77.6889 167.254C77.2543 167.479 76.6989 167.591 76.0227 167.591H73.6364V166.636H75.9886C76.4545 166.636 76.8295 166.568 77.1136 166.432C77.4006 166.295 77.608 166.102 77.7358 165.852C77.8665 165.599 77.9318 165.298 77.9318 164.949C77.9318 164.599 77.8665 164.294 77.7358 164.033C77.6051 163.771 77.3963 163.57 77.1094 163.428C76.8224 163.283 76.4432 163.21 75.9716 163.21H74.1136V171H73.0568ZM77.1648 167.08L79.3125 171H78.0852L75.9716 167.08H77.1648ZM83.185 171.136C82.5941 171.136 82.0756 170.996 81.6296 170.714C81.1864 170.433 80.8398 170.04 80.5898 169.534C80.3427 169.028 80.2191 168.437 80.2191 167.761C80.2191 167.08 80.3427 166.484 80.5898 165.976C80.8398 165.467 81.1864 165.072 81.6296 164.791C82.0756 164.51 82.5941 164.369 83.185 164.369C83.7759 164.369 84.293 164.51 84.7362 164.791C85.1822 165.072 85.5288 165.467 85.7759 165.976C86.0259 166.484 86.1509 167.08 86.1509 167.761C86.1509 168.437 86.0259 169.028 85.7759 169.534C85.5288 170.04 85.1822 170.433 84.7362 170.714C84.293 170.996 83.7759 171.136 83.185 171.136ZM83.185 170.233C83.6339 170.233 84.0032 170.118 84.293 169.888C84.5827 169.658 84.7972 169.355 84.9364 168.98C85.0756 168.605 85.1452 168.199 85.1452 167.761C85.1452 167.324 85.0756 166.916 84.9364 166.538C84.7972 166.161 84.5827 165.855 84.293 165.622C84.0032 165.389 83.6339 165.273 83.185 165.273C82.7362 165.273 82.3668 165.389 82.0771 165.622C81.7873 165.855 81.5728 166.161 81.4336 166.538C81.2944 166.916 81.2248 167.324 81.2248 167.761C81.2248 168.199 81.2944 168.605 81.4336 168.98C81.5728 169.355 81.7873 169.658 82.0771 169.888C82.3668 170.118 82.7362 170.233 83.185 170.233ZM90.3452 171.136C89.7315 171.136 89.2031 170.991 88.7599 170.702C88.3168 170.412 87.9759 170.013 87.7372 169.504C87.4986 168.996 87.3793 168.415 87.3793 167.761C87.3793 167.097 87.5014 166.51 87.7457 166.001C87.9929 165.49 88.3366 165.091 88.777 164.804C89.2202 164.514 89.7372 164.369 90.3281 164.369C90.7884 164.369 91.2031 164.455 91.5724 164.625C91.9418 164.795 92.2443 165.034 92.4801 165.341C92.7159 165.648 92.8622 166.006 92.919 166.415H91.9134C91.8366 166.116 91.6662 165.852 91.402 165.622C91.1406 165.389 90.7884 165.273 90.3452 165.273C89.9531 165.273 89.6094 165.375 89.3139 165.58C89.0213 165.781 88.7926 166.067 88.6278 166.436C88.4659 166.803 88.3849 167.233 88.3849 167.727C88.3849 168.233 88.4645 168.673 88.6236 169.048C88.7855 169.423 89.0128 169.714 89.3054 169.922C89.6009 170.129 89.9474 170.233 90.3452 170.233C90.6065 170.233 90.8438 170.188 91.0568 170.097C91.2699 170.006 91.4503 169.875 91.598 169.705C91.7457 169.534 91.8509 169.33 91.9134 169.091H92.919C92.8622 169.477 92.7216 169.825 92.4972 170.135C92.2756 170.442 91.9815 170.686 91.6151 170.868C91.2514 171.047 90.8281 171.136 90.3452 171.136ZM95.3267 168.614L95.3097 167.369H95.5142L98.3778 164.455H99.6222L96.571 167.54H96.4858L95.3267 168.614ZM94.3892 171V162.273H95.3949V171H94.3892ZM98.5483 171L95.9915 167.761L96.7074 167.062L99.8267 171H98.5483ZM103.391 171.136C102.761 171.136 102.217 170.997 101.759 170.719C101.305 170.438 100.954 170.045 100.707 169.543C100.462 169.037 100.34 168.449 100.34 167.778C100.34 167.108 100.462 166.517 100.707 166.006C100.954 165.491 101.298 165.091 101.738 164.804C102.181 164.514 102.698 164.369 103.289 164.369C103.63 164.369 103.967 164.426 104.299 164.54C104.631 164.653 104.934 164.838 105.207 165.094C105.479 165.347 105.697 165.682 105.859 166.099C106.021 166.517 106.102 167.031 106.102 167.642V168.068H101.056V167.199H105.079C105.079 166.83 105.005 166.5 104.857 166.21C104.712 165.92 104.505 165.692 104.235 165.524C103.968 165.357 103.653 165.273 103.289 165.273C102.888 165.273 102.542 165.372 102.249 165.571C101.96 165.767 101.737 166.023 101.58 166.338C101.424 166.653 101.346 166.991 101.346 167.352V167.932C101.346 168.426 101.431 168.845 101.602 169.189C101.775 169.53 102.015 169.79 102.322 169.969C102.629 170.145 102.985 170.233 103.391 170.233C103.656 170.233 103.894 170.196 104.107 170.122C104.323 170.045 104.509 169.932 104.665 169.781C104.822 169.628 104.942 169.437 105.028 169.21L105.999 169.483C105.897 169.812 105.725 170.102 105.484 170.352C105.242 170.599 104.944 170.793 104.589 170.932C104.234 171.068 103.835 171.136 103.391 171.136ZM110.478 164.455V165.307H107.086V164.455H110.478ZM108.075 162.886H109.08V169.125C109.08 169.409 109.121 169.622 109.204 169.764C109.289 169.903 109.397 169.997 109.528 170.045C109.661 170.091 109.802 170.114 109.95 170.114C110.06 170.114 110.151 170.108 110.222 170.097C110.293 170.082 110.35 170.071 110.393 170.062L110.597 170.966C110.529 170.991 110.434 171.017 110.312 171.043C110.19 171.071 110.035 171.085 109.847 171.085C109.563 171.085 109.285 171.024 109.012 170.902C108.742 170.78 108.518 170.594 108.339 170.344C108.163 170.094 108.075 169.778 108.075 169.398V162.886ZM112.268 171V162.273H115.319C115.927 162.273 116.428 162.378 116.823 162.588C117.218 162.795 117.512 163.075 117.705 163.428C117.898 163.777 117.995 164.165 117.995 164.591C117.995 164.966 117.928 165.276 117.795 165.52C117.664 165.764 117.491 165.957 117.275 166.099C117.062 166.241 116.83 166.347 116.58 166.415V166.5C116.847 166.517 117.116 166.611 117.386 166.781C117.656 166.952 117.881 167.196 118.063 167.514C118.245 167.832 118.336 168.222 118.336 168.682C118.336 169.119 118.237 169.513 118.038 169.862C117.839 170.212 117.525 170.489 117.096 170.693C116.667 170.898 116.109 171 115.421 171H112.268ZM113.325 170.062H115.421C116.112 170.062 116.602 169.929 116.891 169.662C117.184 169.392 117.33 169.065 117.33 168.682C117.33 168.386 117.255 168.114 117.104 167.864C116.954 167.611 116.739 167.409 116.461 167.259C116.183 167.105 115.853 167.028 115.472 167.028H113.325V170.062ZM113.325 166.108H115.285C115.603 166.108 115.89 166.045 116.146 165.92C116.404 165.795 116.609 165.619 116.759 165.392C116.913 165.165 116.989 164.898 116.989 164.591C116.989 164.207 116.856 163.882 116.589 163.615C116.322 163.345 115.898 163.21 115.319 163.21H113.325V166.108ZM122.595 171.136C122.004 171.136 121.486 170.996 121.04 170.714C120.597 170.433 120.25 170.04 120 169.534C119.753 169.028 119.629 168.437 119.629 167.761C119.629 167.08 119.753 166.484 120 165.976C120.25 165.467 120.597 165.072 121.04 164.791C121.486 164.51 122.004 164.369 122.595 164.369C123.186 164.369 123.703 164.51 124.146 164.791C124.592 165.072 124.939 165.467 125.186 165.976C125.436 166.484 125.561 167.08 125.561 167.761C125.561 168.437 125.436 169.028 125.186 169.534C124.939 170.04 124.592 170.433 124.146 170.714C123.703 170.996 123.186 171.136 122.595 171.136ZM122.595 170.233C123.044 170.233 123.413 170.118 123.703 169.888C123.993 169.658 124.207 169.355 124.347 168.98C124.486 168.605 124.555 168.199 124.555 167.761C124.555 167.324 124.486 166.916 124.347 166.538C124.207 166.161 123.993 165.855 123.703 165.622C123.413 165.389 123.044 165.273 122.595 165.273C122.146 165.273 121.777 165.389 121.487 165.622C121.197 165.855 120.983 166.161 120.844 166.538C120.705 166.916 120.635 167.324 120.635 167.761C120.635 168.199 120.705 168.605 120.844 168.98C120.983 169.355 121.197 169.658 121.487 169.888C121.777 170.118 122.146 170.233 122.595 170.233ZM129.943 164.455V165.307H126.551V164.455H129.943ZM127.539 162.886H128.545V169.125C128.545 169.409 128.586 169.622 128.669 169.764C128.754 169.903 128.862 169.997 128.993 170.045C129.126 170.091 129.267 170.114 129.414 170.114C129.525 170.114 129.616 170.108 129.687 170.097C129.758 170.082 129.815 170.071 129.858 170.062L130.062 170.966C129.994 170.991 129.899 171.017 129.777 171.043C129.654 171.071 129.5 171.085 129.312 171.085C129.028 171.085 128.75 171.024 128.477 170.902C128.207 170.78 127.983 170.594 127.804 170.344C127.627 170.094 127.539 169.778 127.539 169.398V162.886Z" fill="#6B7280"/>
<path d="M117.784 195H114.959V186.273H117.874C118.729 186.273 119.463 186.447 120.077 186.797C120.69 187.143 121.161 187.642 121.487 188.293C121.817 188.94 121.982 189.717 121.982 190.624C121.982 191.533 121.815 192.314 121.483 192.967C121.153 193.621 120.676 194.124 120.051 194.476C119.426 194.825 118.67 195 117.784 195ZM116.276 193.849H117.712C118.376 193.849 118.929 193.724 119.369 193.474C119.81 193.222 120.139 192.857 120.358 192.379C120.577 191.899 120.686 191.314 120.686 190.624C120.686 189.939 120.577 189.358 120.358 188.881C120.142 188.403 119.82 188.041 119.391 187.794C118.962 187.547 118.429 187.423 117.793 187.423H116.276V193.849ZM123.517 195V188.455H124.791V195H123.517ZM124.16 187.445C123.939 187.445 123.748 187.371 123.589 187.223C123.433 187.072 123.355 186.893 123.355 186.686C123.355 186.476 123.433 186.297 123.589 186.149C123.748 185.999 123.939 185.923 124.16 185.923C124.382 185.923 124.571 185.999 124.727 186.149C124.886 186.297 124.966 186.476 124.966 186.686C124.966 186.893 124.886 187.072 124.727 187.223C124.571 187.371 124.382 187.445 124.16 187.445ZM131.41 190.053L130.255 190.257C130.207 190.109 130.13 189.969 130.025 189.835C129.923 189.702 129.783 189.592 129.607 189.507C129.431 189.422 129.211 189.379 128.947 189.379C128.586 189.379 128.285 189.46 128.043 189.622C127.802 189.781 127.681 189.987 127.681 190.24C127.681 190.459 127.762 190.635 127.924 190.768C128.086 190.902 128.347 191.011 128.708 191.097L129.748 191.335C130.35 191.474 130.799 191.689 131.094 191.979C131.39 192.268 131.538 192.645 131.538 193.108C131.538 193.5 131.424 193.849 131.197 194.156C130.972 194.46 130.658 194.699 130.255 194.872C129.854 195.045 129.39 195.132 128.862 195.132C128.129 195.132 127.531 194.976 127.067 194.663C126.604 194.348 126.32 193.901 126.215 193.321L127.447 193.134C127.523 193.455 127.681 193.697 127.92 193.862C128.158 194.024 128.469 194.105 128.853 194.105C129.271 194.105 129.604 194.018 129.854 193.845C130.104 193.669 130.229 193.455 130.229 193.202C130.229 192.997 130.153 192.825 129.999 192.686C129.849 192.547 129.617 192.442 129.305 192.371L128.197 192.128C127.586 191.989 127.134 191.767 126.842 191.463C126.552 191.159 126.407 190.774 126.407 190.308C126.407 189.922 126.515 189.584 126.731 189.294C126.947 189.004 127.245 188.778 127.626 188.616C128.006 188.452 128.442 188.369 128.934 188.369C129.641 188.369 130.198 188.523 130.604 188.83C131.011 189.134 131.279 189.541 131.41 190.053ZM132.939 195V188.455H134.162V189.52H134.243C134.379 189.159 134.602 188.878 134.912 188.676C135.221 188.472 135.592 188.369 136.024 188.369C136.461 188.369 136.828 188.472 137.123 188.676C137.422 188.881 137.642 189.162 137.784 189.52H137.852C138.008 189.17 138.257 188.892 138.598 188.685C138.939 188.474 139.345 188.369 139.816 188.369C140.41 188.369 140.895 188.555 141.27 188.928C141.647 189.3 141.836 189.861 141.836 190.611V195H140.562V190.73C140.562 190.287 140.441 189.966 140.2 189.767C139.958 189.568 139.67 189.469 139.335 189.469C138.92 189.469 138.598 189.597 138.368 189.852C138.137 190.105 138.022 190.43 138.022 190.828V195H136.752V190.649C136.752 190.294 136.642 190.009 136.42 189.793C136.199 189.577 135.91 189.469 135.555 189.469C135.314 189.469 135.091 189.533 134.886 189.661C134.684 189.786 134.521 189.96 134.396 190.185C134.274 190.409 134.213 190.669 134.213 190.964V195H132.939ZM143.544 195V188.455H144.818V195H143.544ZM144.188 187.445C143.966 187.445 143.776 187.371 143.616 187.223C143.46 187.072 143.382 186.893 143.382 186.686C143.382 186.476 143.46 186.297 143.616 186.149C143.776 185.999 143.966 185.923 144.188 185.923C144.409 185.923 144.598 185.999 144.754 186.149C144.913 186.297 144.993 186.476 144.993 186.686C144.993 186.893 144.913 187.072 144.754 187.223C144.598 187.371 144.409 187.445 144.188 187.445ZM151.437 190.053L150.282 190.257C150.234 190.109 150.157 189.969 150.052 189.835C149.95 189.702 149.811 189.592 149.635 189.507C149.458 189.422 149.238 189.379 148.974 189.379C148.613 189.379 148.312 189.46 148.071 189.622C147.829 189.781 147.708 189.987 147.708 190.24C147.708 190.459 147.789 190.635 147.951 190.768C148.113 190.902 148.375 191.011 148.735 191.097L149.775 191.335C150.377 191.474 150.826 191.689 151.122 191.979C151.417 192.268 151.565 192.645 151.565 193.108C151.565 193.5 151.451 193.849 151.224 194.156C151 194.46 150.686 194.699 150.282 194.872C149.882 195.045 149.417 195.132 148.889 195.132C148.156 195.132 147.558 194.976 147.095 194.663C146.632 194.348 146.348 193.901 146.243 193.321L147.474 193.134C147.551 193.455 147.708 193.697 147.947 193.862C148.186 194.024 148.497 194.105 148.88 194.105C149.298 194.105 149.632 194.018 149.882 193.845C150.132 193.669 150.257 193.455 150.257 193.202C150.257 192.997 150.18 192.825 150.027 192.686C149.876 192.547 149.645 192.442 149.332 192.371L148.224 192.128C147.613 191.989 147.162 191.767 146.869 191.463C146.579 191.159 146.434 190.774 146.434 190.308C146.434 189.922 146.542 189.584 146.758 189.294C146.974 189.004 147.272 188.778 147.653 188.616C148.034 188.452 148.47 188.369 148.961 188.369C149.669 188.369 150.225 188.523 150.632 188.83C151.038 189.134 151.306 189.541 151.437 190.053ZM157.871 190.053L156.716 190.257C156.668 190.109 156.591 189.969 156.486 189.835C156.384 189.702 156.244 189.592 156.068 189.507C155.892 189.422 155.672 189.379 155.408 189.379C155.047 189.379 154.746 189.46 154.504 189.622C154.263 189.781 154.142 189.987 154.142 190.24C154.142 190.459 154.223 190.635 154.385 190.768C154.547 190.902 154.808 191.011 155.169 191.097L156.209 191.335C156.811 191.474 157.26 191.689 157.555 191.979C157.851 192.268 157.999 192.645 157.999 193.108C157.999 193.5 157.885 193.849 157.658 194.156C157.433 194.46 157.119 194.699 156.716 194.872C156.315 195.045 155.851 195.132 155.322 195.132C154.589 195.132 153.991 194.976 153.528 194.663C153.065 194.348 152.781 193.901 152.676 193.321L153.908 193.134C153.984 193.455 154.142 193.697 154.381 193.862C154.619 194.024 154.93 194.105 155.314 194.105C155.732 194.105 156.065 194.018 156.315 193.845C156.565 193.669 156.69 193.455 156.69 193.202C156.69 192.997 156.614 192.825 156.46 192.686C156.31 192.547 156.078 192.442 155.766 192.371L154.658 192.128C154.047 191.989 153.595 191.767 153.303 191.463C153.013 191.159 152.868 190.774 152.868 190.308C152.868 189.922 152.976 189.584 153.192 189.294C153.408 189.004 153.706 188.778 154.087 188.616C154.467 188.452 154.903 188.369 155.395 188.369C156.102 188.369 156.659 188.523 157.065 188.83C157.472 189.134 157.74 189.541 157.871 190.053Z" fill="#6B7280"/>
<defs>
<filter id="filter0_ddd_2623_17639" x="19" y="101" width="278" height="139" filterUnits="userSpaceOnUse" color-interpolation-filters="sRGB">
<feFlood flood-opacity="0" result="BackgroundImageFix"/>
<feColorMatrix in="SourceAlpha" type="matrix" values="0 0 0 0 0 0 0 0 0 0 0 0 0 0 0 0 0 0 127 0" result="hardAlpha"/>
<feMorphology radius="2" operator="erode" in="SourceAlpha" result="effect1_dropShadow_2623_17639"/>
<feOffset dy="4"/>
<feGaussianBlur stdDeviation="3"/>
<feComposite in2="hardAlpha" operator="out"/>
<feColorMatrix type="matrix" values="0 0 0 0 0 0 0 0 0 0 0 0 0 0 0 0 0 0 0.05 0"/>
<feBlend mode="normal" in2="BackgroundImageFix" result="effect1_dropShadow_2623_17639"/>
<feColorMatrix in="SourceAlpha" type="matrix" values="0 0 0 0 0 0 0 0 0 0 0 0 0 0 0 0 0 0 127 0" result="hardAlpha"/>
<feMorphology radius="3" operator="erode" in="SourceAlpha" result="effect2_dropShadow_2623_17639"/>
<feOffset dy="10"/>
<feGaussianBlur stdDeviation="7.5"/>
<feComposite in2="hardAlpha" operator="out"/>
<feColorMatrix type="matrix" values="0 0 0 0 0 0 0 0 0 0 0 0 0 0 0 0 0 0 0.1 0"/>
<feBlend mode="normal" in2="effect1_dropShadow_2623_17639" result="effect2_dropShadow_2623_17639"/>
<feColorMatrix in="SourceAlpha" type="matrix" values="0 0 0 0 0 0 0 0 0 0 0 0 0 0 0 0 0 0 127 0" result="hardAlpha"/>
<feMorphology radius="1" operator="dilate" in="SourceAlpha" result="effect3_dropShadow_2623_17639"/>
<feOffset/>
<feComposite in2="hardAlpha" operator="out"/>
<feColorMatrix type="matrix" values="0 0 0 0 0 0 0 0 0 0 0 0 0 0 0 0 0 0 0.05 0"/>
<feBlend mode="normal" in2="effect2_dropShadow_2623_17639" result="effect3_dropShadow_2623_17639"/>
<feBlend mode="normal" in="SourceGraphic" in2="effect3_dropShadow_2623_17639" result="shape"/>
</filter>
<clipPath id="clip0_2623_17639">
<rect width="7" height="7" fill="white" transform="translate(260 121)"/>
</clipPath>
<clipPath id="clip1_2623_17639">
<rect width="14" height="14" fill="white" transform="translate(46 122)"/>
</clipPath>
</defs>
</svg>
