<svg width="320" height="320" viewBox="0 0 320 320" fill="none" xmlns="http://www.w3.org/2000/svg">
<g filter="url(#filter0_d_2623_17676)">
<path d="M40 147C40 143.686 42.6863 141 46 141H80V180H46C42.6863 180 40 177.314 40 174V147Z" fill="white"/>
<path d="M62 156.5L58 160.5L62 164.5" stroke="#6B7280" stroke-width="2" stroke-linecap="round" stroke-linejoin="round"/>
<path d="M40 147C40 143.686 42.6863 141 46 141H80V180H46C42.6863 180 40 177.314 40 174V147Z" stroke="#D1D5DB"/>
<path d="M80.5 141.5H119.5V179.5H80.5V141.5Z" fill="#EBF5FF"/>
<path d="M101.342 155.818V166H99.8011V157.359H99.7415L97.3054 158.95V157.479L99.8459 155.818H101.342Z" fill="#0080FF"/>
<path d="M80.5 141.5H119.5V179.5H80.5V141.5Z" stroke="#0080FF"/>
<path d="M120 141H160V180H120V141Z" fill="white"/>
<path d="M136.479 166V164.886L139.925 161.317C140.293 160.929 140.596 160.589 140.835 160.298C141.076 160.003 141.257 159.723 141.376 159.457C141.496 159.192 141.555 158.911 141.555 158.612C141.555 158.274 141.476 157.982 141.317 157.737C141.158 157.489 140.941 157.298 140.665 157.165C140.39 157.03 140.08 156.962 139.736 156.962C139.371 156.962 139.053 157.036 138.781 157.185C138.509 157.335 138.301 157.545 138.155 157.817C138.009 158.089 137.936 158.407 137.936 158.771H136.469C136.469 158.152 136.612 157.61 136.897 157.146C137.182 156.682 137.573 156.322 138.07 156.067C138.567 155.808 139.133 155.679 139.766 155.679C140.405 155.679 140.969 155.807 141.456 156.062C141.946 156.314 142.329 156.658 142.604 157.096C142.879 157.53 143.017 158.021 143.017 158.567C143.017 158.945 142.946 159.315 142.803 159.676C142.664 160.037 142.42 160.44 142.072 160.884C141.724 161.325 141.241 161.86 140.621 162.49L138.597 164.608V164.683H143.181V166H136.479Z" fill="#374151"/>
<path d="M120 141H160V180H120V141Z" stroke="#D1D5DB"/>
<path d="M160 141H200V180H160V141Z" fill="white"/>
<path d="M179.524 166.139C178.841 166.139 178.232 166.022 177.695 165.786C177.161 165.551 176.738 165.224 176.427 164.807C176.119 164.386 175.953 163.899 175.93 163.345H177.491C177.511 163.647 177.612 163.909 177.794 164.131C177.98 164.349 178.222 164.518 178.52 164.638C178.818 164.757 179.15 164.817 179.514 164.817C179.915 164.817 180.27 164.747 180.578 164.608C180.89 164.469 181.133 164.275 181.309 164.026C181.485 163.774 181.572 163.484 181.572 163.156C181.572 162.815 181.485 162.515 181.309 162.256C181.137 161.995 180.883 161.789 180.548 161.64C180.217 161.491 179.816 161.416 179.345 161.416H178.485V160.163H179.345C179.723 160.163 180.054 160.095 180.339 159.96C180.628 159.824 180.853 159.635 181.016 159.393C181.178 159.147 181.259 158.861 181.259 158.533C181.259 158.218 181.188 157.944 181.045 157.712C180.906 157.477 180.707 157.293 180.449 157.161C180.194 157.028 179.892 156.962 179.544 156.962C179.213 156.962 178.903 157.023 178.614 157.146C178.329 157.265 178.097 157.437 177.918 157.663C177.739 157.885 177.643 158.152 177.63 158.463H176.143C176.16 157.913 176.322 157.429 176.631 157.011C176.942 156.594 177.353 156.267 177.864 156.032C178.374 155.797 178.941 155.679 179.564 155.679C180.217 155.679 180.78 155.807 181.254 156.062C181.732 156.314 182.099 156.65 182.358 157.071C182.62 157.492 182.749 157.953 182.746 158.453C182.749 159.023 182.59 159.507 182.268 159.905C181.95 160.303 181.526 160.569 180.996 160.705V160.785C181.672 160.888 182.196 161.156 182.567 161.59C182.941 162.024 183.127 162.563 183.124 163.206C183.127 163.766 182.971 164.268 182.656 164.712C182.345 165.156 181.919 165.506 181.379 165.761C180.838 166.013 180.22 166.139 179.524 166.139Z" fill="#374151"/>
<path d="M160 141H200V180H160V141Z" stroke="#D1D5DB"/>
<path d="M200 141H240V180H200V141Z" fill="white"/>
<path d="M215.766 164.011V162.768L220.165 155.818H221.145V157.648H220.523L217.376 162.629V162.709H223.407V164.011H215.766ZM220.593 166V163.634L220.603 163.067V155.818H222.06V166H220.593Z" fill="#374151"/>
<path d="M200 141H240V180H200V141Z" stroke="#D1D5DB"/>
<path d="M240 141H274C277.314 141 280 143.686 280 147V174C280 177.314 277.314 180 274 180H240V141Z" fill="white"/>
<path d="M258 164.5L262 160.5L258 156.5" stroke="#6B7280" stroke-width="2" stroke-linecap="round" stroke-linejoin="round"/>
<path d="M240 141H274C277.314 141 280 143.686 280 147V174C280 177.314 277.314 180 274 180H240V141Z" stroke="#D1D5DB"/>
</g>
<defs>
<filter id="filter0_d_2623_17676" x="37.5" y="139.5" width="245" height="44" filterUnits="userSpaceOnUse" color-interpolation-filters="sRGB">
<feFlood flood-opacity="0" result="BackgroundImageFix"/>
<feColorMatrix in="SourceAlpha" type="matrix" values="0 0 0 0 0 0 0 0 0 0 0 0 0 0 0 0 0 0 127 0" result="hardAlpha"/>
<feOffset dy="1"/>
<feGaussianBlur stdDeviation="1"/>
<feColorMatrix type="matrix" values="0 0 0 0 0 0 0 0 0 0 0 0 0 0 0 0 0 0 0.05 0"/>
<feBlend mode="normal" in2="BackgroundImageFix" result="effect1_dropShadow_2623_17676"/>
<feBlend mode="normal" in="SourceGraphic" in2="effect1_dropShadow_2623_17676" result="shape"/>
</filter>
</defs>
</svg>
