<svg width="320" height="320" viewBox="0 0 320 320" fill="none" xmlns="http://www.w3.org/2000/svg">
<path d="M100 160C100 155.582 103.582 152 108 152V152C112.418 152 116 155.582 116 160V160C116 164.418 112.418 168 108 168V168C103.582 168 100 164.418 100 160V160Z" fill="white"/>
<path d="M108 167C104.134 167 101 163.866 101 160H99C99 164.971 103.029 169 108 169V167ZM115 160C115 163.866 111.866 167 108 167V169C112.971 169 117 164.971 117 160H115ZM108 153C111.866 153 115 156.134 115 160H117C117 155.029 112.971 151 108 151V153ZM108 151C103.029 151 99 155.029 99 160H101C101 156.134 104.134 153 108 153V151Z" fill="#D1D5DB"/>
<path d="M125.119 165V154.818H128.748C129.537 154.818 130.191 154.954 130.712 155.226C131.235 155.498 131.626 155.874 131.885 156.354C132.143 156.832 132.273 157.384 132.273 158.01C132.273 158.633 132.142 159.182 131.88 159.656C131.621 160.126 131.23 160.492 130.707 160.754C130.186 161.016 129.532 161.147 128.743 161.147H125.994V159.825H128.604C129.101 159.825 129.505 159.753 129.817 159.611C130.132 159.468 130.362 159.261 130.508 158.989C130.654 158.718 130.727 158.391 130.727 158.01C130.727 157.625 130.652 157.292 130.503 157.011C130.357 156.729 130.127 156.513 129.812 156.364C129.5 156.212 129.091 156.136 128.584 156.136H126.655V165H125.119ZM130.145 160.406L132.661 165H130.911L128.445 160.406H130.145ZM137.218 165.154C136.466 165.154 135.818 164.993 135.274 164.672C134.734 164.347 134.316 163.891 134.021 163.305C133.73 162.715 133.584 162.024 133.584 161.232C133.584 160.449 133.73 159.76 134.021 159.163C134.316 158.567 134.727 158.101 135.254 157.766C135.785 157.432 136.405 157.264 137.114 157.264C137.545 157.264 137.962 157.335 138.367 157.478C138.771 157.621 139.134 157.844 139.455 158.149C139.777 158.454 140.03 158.85 140.216 159.337C140.402 159.821 140.494 160.41 140.494 161.102V161.629H134.424V160.516H139.038C139.038 160.125 138.958 159.778 138.799 159.477C138.64 159.172 138.416 158.931 138.128 158.756C137.843 158.58 137.508 158.492 137.124 158.492C136.706 158.492 136.342 158.595 136.03 158.8C135.722 159.003 135.483 159.268 135.314 159.596C135.148 159.921 135.066 160.274 135.066 160.655V161.525C135.066 162.035 135.155 162.469 135.334 162.827C135.516 163.185 135.77 163.459 136.095 163.648C136.419 163.833 136.799 163.926 137.233 163.926C137.515 163.926 137.772 163.886 138.004 163.807C138.236 163.724 138.436 163.601 138.605 163.439C138.774 163.277 138.904 163.076 138.993 162.837L140.4 163.091C140.287 163.505 140.085 163.868 139.794 164.18C139.505 164.488 139.142 164.728 138.705 164.901C138.271 165.07 137.775 165.154 137.218 165.154ZM142.144 165V157.364H143.571V158.607H143.665C143.824 158.186 144.084 157.857 144.446 157.622C144.807 157.384 145.239 157.264 145.743 157.264C146.254 157.264 146.681 157.384 147.026 157.622C147.374 157.861 147.631 158.189 147.797 158.607H147.876C148.058 158.199 148.348 157.874 148.746 157.632C149.144 157.387 149.618 157.264 150.168 157.264C150.861 157.264 151.426 157.481 151.863 157.915C152.304 158.35 152.525 159.004 152.525 159.879V165H151.038V160.018C151.038 159.501 150.897 159.127 150.615 158.895C150.334 158.663 149.997 158.547 149.606 158.547C149.122 158.547 148.746 158.696 148.478 158.994C148.209 159.289 148.075 159.669 148.075 160.133V165H146.593V159.924C146.593 159.51 146.464 159.177 146.206 158.925C145.947 158.673 145.611 158.547 145.196 158.547C144.915 158.547 144.654 158.621 144.416 158.771C144.181 158.916 143.99 159.12 143.844 159.382C143.702 159.644 143.63 159.947 143.63 160.292V165H142.144ZM157.808 165.154C157.056 165.154 156.408 164.993 155.864 164.672C155.324 164.347 154.906 163.891 154.611 163.305C154.32 162.715 154.174 162.024 154.174 161.232C154.174 160.449 154.32 159.76 154.611 159.163C154.906 158.567 155.317 158.101 155.844 157.766C156.375 157.432 156.994 157.264 157.704 157.264C158.135 157.264 158.552 157.335 158.956 157.478C159.361 157.621 159.724 157.844 160.045 158.149C160.367 158.454 160.62 158.85 160.806 159.337C160.992 159.821 161.084 160.41 161.084 161.102V161.629H155.014V160.516H159.628C159.628 160.125 159.548 159.778 159.389 159.477C159.23 159.172 159.006 158.931 158.718 158.756C158.433 158.58 158.098 158.492 157.714 158.492C157.296 158.492 156.931 158.595 156.62 158.8C156.312 159.003 156.073 159.268 155.904 159.596C155.738 159.921 155.655 160.274 155.655 160.655V161.525C155.655 162.035 155.745 162.469 155.924 162.827C156.106 163.185 156.36 163.459 156.684 163.648C157.009 163.833 157.389 163.926 157.823 163.926C158.105 163.926 158.362 163.886 158.594 163.807C158.826 163.724 159.026 163.601 159.195 163.439C159.364 163.277 159.493 163.076 159.583 162.837L160.99 163.091C160.877 163.505 160.675 163.868 160.383 164.18C160.095 164.488 159.732 164.728 159.295 164.901C158.86 165.07 158.365 165.154 157.808 165.154ZM162.734 165V157.364H164.161V158.607H164.255C164.414 158.186 164.674 157.857 165.036 157.622C165.397 157.384 165.829 157.264 166.333 157.264C166.844 157.264 167.271 157.384 167.616 157.622C167.964 157.861 168.221 158.189 168.386 158.607H168.466C168.648 158.199 168.938 157.874 169.336 157.632C169.734 157.387 170.208 157.264 170.758 157.264C171.451 157.264 172.016 157.481 172.453 157.915C172.894 158.35 173.114 159.004 173.114 159.879V165H171.628V160.018C171.628 159.501 171.487 159.127 171.205 158.895C170.924 158.663 170.587 158.547 170.196 158.547C169.712 158.547 169.336 158.696 169.067 158.994C168.799 159.289 168.665 159.669 168.665 160.133V165H167.183V159.924C167.183 159.51 167.054 159.177 166.795 158.925C166.537 158.673 166.201 158.547 165.786 158.547C165.504 158.547 165.244 158.621 165.006 158.771C164.77 158.916 164.58 159.12 164.434 159.382C164.291 159.644 164.22 159.947 164.22 160.292V165H162.734ZM175.226 165V154.818H176.713V158.602H176.802C176.888 158.442 177.012 158.259 177.175 158.05C177.337 157.841 177.563 157.659 177.851 157.503C178.139 157.344 178.521 157.264 178.994 157.264C179.611 157.264 180.161 157.42 180.645 157.732C181.129 158.043 181.508 158.492 181.784 159.079C182.062 159.665 182.201 160.371 182.201 161.197C182.201 162.022 182.064 162.73 181.789 163.32C181.513 163.906 181.136 164.359 180.655 164.677C180.174 164.992 179.626 165.149 179.009 165.149C178.545 165.149 178.166 165.071 177.871 164.915C177.579 164.76 177.351 164.577 177.185 164.369C177.019 164.16 176.892 163.974 176.802 163.812H176.678V165H175.226ZM176.683 161.182C176.683 161.719 176.761 162.189 176.916 162.594C177.072 162.998 177.298 163.315 177.593 163.543C177.887 163.769 178.249 163.881 178.676 163.881C179.12 163.881 179.492 163.764 179.79 163.528C180.088 163.29 180.314 162.967 180.466 162.559C180.622 162.151 180.7 161.692 180.7 161.182C180.7 160.678 180.624 160.226 180.471 159.825C180.322 159.424 180.097 159.107 179.795 158.875C179.497 158.643 179.124 158.527 178.676 158.527C178.245 158.527 177.881 158.638 177.583 158.86C177.288 159.082 177.064 159.392 176.911 159.79C176.759 160.187 176.683 160.652 176.683 161.182ZM187.162 165.154C186.409 165.154 185.761 164.993 185.218 164.672C184.677 164.347 184.26 163.891 183.965 163.305C183.673 162.715 183.527 162.024 183.527 161.232C183.527 160.449 183.673 159.76 183.965 159.163C184.26 158.567 184.671 158.101 185.198 157.766C185.728 157.432 186.348 157.264 187.057 157.264C187.488 157.264 187.906 157.335 188.31 157.478C188.714 157.621 189.077 157.844 189.399 158.149C189.72 158.454 189.974 158.85 190.159 159.337C190.345 159.821 190.438 160.41 190.438 161.102V161.629H184.368V160.516H188.981C188.981 160.125 188.902 159.778 188.743 159.477C188.583 159.172 188.36 158.931 188.071 158.756C187.786 158.58 187.452 158.492 187.067 158.492C186.65 158.492 186.285 158.595 185.973 158.8C185.665 159.003 185.426 159.268 185.257 159.596C185.092 159.921 185.009 160.274 185.009 160.655V161.525C185.009 162.035 185.098 162.469 185.277 162.827C185.46 163.185 185.713 163.459 186.038 163.648C186.363 163.833 186.742 163.926 187.176 163.926C187.458 163.926 187.715 163.886 187.947 163.807C188.179 163.724 188.38 163.601 188.549 163.439C188.718 163.277 188.847 163.076 188.936 162.837L190.343 163.091C190.231 163.505 190.029 163.868 189.737 164.18C189.449 164.488 189.086 164.728 188.648 164.901C188.214 165.07 187.718 165.154 187.162 165.154ZM192.087 165V157.364H193.524V158.577H193.604C193.743 158.166 193.988 157.843 194.339 157.607C194.694 157.369 195.095 157.249 195.542 157.249C195.635 157.249 195.745 157.253 195.871 157.259C196 157.266 196.101 157.274 196.174 157.284V158.706C196.114 158.689 196.008 158.671 195.856 158.651C195.703 158.628 195.551 158.616 195.398 158.616C195.047 158.616 194.734 158.691 194.459 158.84C194.187 158.986 193.971 159.19 193.812 159.452C193.653 159.71 193.574 160.005 193.574 160.337V165H192.087ZM201.165 165V157.364H202.592V158.607H202.687C202.846 158.186 203.106 157.857 203.467 157.622C203.828 157.384 204.261 157.264 204.765 157.264C205.275 157.264 205.703 157.384 206.047 157.622C206.395 157.861 206.652 158.189 206.818 158.607H206.898C207.08 158.199 207.37 157.874 207.768 157.632C208.165 157.387 208.639 157.264 209.189 157.264C209.882 157.264 210.447 157.481 210.885 157.915C211.326 158.35 211.546 159.004 211.546 159.879V165H210.059V160.018C210.059 159.501 209.919 159.127 209.637 158.895C209.355 158.663 209.019 158.547 208.628 158.547C208.144 158.547 207.768 158.696 207.499 158.994C207.231 159.289 207.096 159.669 207.096 160.133V165H205.615V159.924C205.615 159.51 205.486 159.177 205.227 158.925C204.969 158.673 204.632 158.547 204.218 158.547C203.936 158.547 203.676 158.621 203.437 158.771C203.202 158.916 203.011 159.12 202.866 159.382C202.723 159.644 202.652 159.947 202.652 160.292V165H201.165ZM216.83 165.154C216.077 165.154 215.429 164.993 214.886 164.672C214.345 164.347 213.928 163.891 213.633 163.305C213.341 162.715 213.195 162.024 213.195 161.232C213.195 160.449 213.341 159.76 213.633 159.163C213.928 158.567 214.339 158.101 214.866 157.766C215.396 157.432 216.016 157.264 216.725 157.264C217.156 157.264 217.574 157.335 217.978 157.478C218.382 157.621 218.745 157.844 219.067 158.149C219.388 158.454 219.642 158.85 219.827 159.337C220.013 159.821 220.106 160.41 220.106 161.102V161.629H214.036V160.516H218.649C218.649 160.125 218.57 159.778 218.411 159.477C218.251 159.172 218.028 158.931 217.739 158.756C217.454 158.58 217.12 158.492 216.735 158.492C216.317 158.492 215.953 158.595 215.641 158.8C215.333 159.003 215.094 159.268 214.925 159.596C214.76 159.921 214.677 160.274 214.677 160.655V161.525C214.677 162.035 214.766 162.469 214.945 162.827C215.128 163.185 215.381 163.459 215.706 163.648C216.031 163.833 216.41 163.926 216.844 163.926C217.126 163.926 217.383 163.886 217.615 163.807C217.847 163.724 218.048 163.601 218.217 163.439C218.386 163.277 218.515 163.076 218.604 162.837L220.011 163.091C219.899 163.505 219.696 163.868 219.405 164.18C219.116 164.488 218.754 164.728 218.316 164.901C217.882 165.07 217.386 165.154 216.83 165.154Z" fill="#374151"/>
</svg>
