<svg width="320" height="320" viewBox="0 0 320 320" fill="none" xmlns="http://www.w3.org/2000/svg">
<path d="M20.1186 62V51.8182H21.6548V60.6776H26.2685V62H20.1186ZM30.1239 62.169C29.64 62.169 29.2025 62.0795 28.8114 61.9006C28.4203 61.7183 28.1104 61.4548 27.8817 61.1101C27.6564 60.7654 27.5437 60.3428 27.5437 59.8423C27.5437 59.4115 27.6265 59.0568 27.7923 58.7784C27.958 58.5 28.1817 58.2796 28.4634 58.1172C28.7451 57.9548 29.06 57.8321 29.408 57.7493C29.756 57.6664 30.1107 57.6035 30.4719 57.5604C30.9293 57.5073 31.3005 57.4643 31.5856 57.4311C31.8706 57.3946 32.0778 57.3366 32.207 57.2571C32.3363 57.1776 32.4009 57.0483 32.4009 56.8693V56.8345C32.4009 56.4003 32.2783 56.0639 32.033 55.8253C31.7911 55.5866 31.4298 55.4673 30.9492 55.4673C30.4487 55.4673 30.0543 55.5784 29.766 55.8004C29.4809 56.0192 29.2837 56.2628 29.1744 56.5312L27.7773 56.2131C27.9431 55.7491 28.185 55.3745 28.5032 55.0895C28.8247 54.8011 29.1942 54.5923 29.6119 54.4631C30.0295 54.3305 30.4686 54.2642 30.9293 54.2642C31.2343 54.2642 31.5574 54.3007 31.8988 54.3736C32.2435 54.4432 32.565 54.5724 32.8633 54.7614C33.1649 54.9503 33.4118 55.2204 33.604 55.5717C33.7963 55.9197 33.8924 56.3722 33.8924 56.929V62H32.4407V60.956H32.381C32.2849 61.1482 32.1407 61.3371 31.9485 61.5227C31.7563 61.7083 31.5094 61.8625 31.2077 61.9851C30.9061 62.1077 30.5449 62.169 30.1239 62.169ZM30.4471 60.9759C30.8581 60.9759 31.2094 60.8946 31.5011 60.7322C31.796 60.5698 32.0198 60.3577 32.1722 60.0959C32.328 59.8307 32.4059 59.5473 32.4059 59.2457V58.2614C32.3529 58.3144 32.2501 58.3641 32.0977 58.4105C31.9485 58.4536 31.7778 58.4917 31.5856 58.5249C31.3933 58.5547 31.2061 58.5829 31.0238 58.6094C30.8415 58.6326 30.689 58.6525 30.5664 58.669C30.2781 58.7055 30.0146 58.7668 29.7759 58.853C29.5406 58.9392 29.3517 59.0634 29.2092 59.2259C29.07 59.3849 29.0004 59.5971 29.0004 59.8622C29.0004 60.2301 29.1362 60.5085 29.408 60.6974C29.6798 60.883 30.0262 60.9759 30.4471 60.9759ZM35.9917 62V51.8182H37.4782V55.6016H37.5676C37.6538 55.4425 37.7781 55.2585 37.9405 55.0497C38.1029 54.8409 38.3283 54.6586 38.6167 54.5028C38.905 54.3438 39.2862 54.2642 39.7601 54.2642C40.3766 54.2642 40.9268 54.42 41.4107 54.7315C41.8946 55.0431 42.2741 55.4922 42.5492 56.0788C42.8276 56.6655 42.9668 57.3714 42.9668 58.1967C42.9668 59.022 42.8292 59.7296 42.5542 60.3196C42.2791 60.9062 41.9012 61.3587 41.4206 61.6768C40.94 61.9917 40.3915 62.1491 39.775 62.1491C39.311 62.1491 38.9315 62.0713 38.6365 61.9155C38.3449 61.7597 38.1162 61.5774 37.9505 61.3686C37.7847 61.1598 37.6571 60.9742 37.5676 60.8118H37.4434V62H35.9917ZM37.4483 58.1818C37.4483 58.7187 37.5262 59.1894 37.682 59.5938C37.8378 59.9981 38.0632 60.3146 38.3581 60.5433C38.6531 60.7687 39.0144 60.8814 39.4419 60.8814C39.8861 60.8814 40.2573 60.7637 40.5556 60.5284C40.8539 60.2898 41.0792 59.9666 41.2317 59.5589C41.3875 59.1513 41.4654 58.6922 41.4654 58.1818C41.4654 57.678 41.3891 57.2256 41.2367 56.8246C41.0875 56.4235 40.8622 56.107 40.5605 55.875C40.2623 55.643 39.8894 55.527 39.4419 55.527C39.0111 55.527 38.6465 55.638 38.3482 55.8601C38.0532 56.0821 37.8295 56.392 37.677 56.7898C37.5246 57.1875 37.4483 57.6515 37.4483 58.1818ZM47.9272 62.1541C47.1748 62.1541 46.5269 61.9934 45.9833 61.6719C45.4431 61.3471 45.0254 60.8913 44.7305 60.3047C44.4388 59.7147 44.293 59.0237 44.293 58.2315C44.293 57.4493 44.4388 56.7599 44.7305 56.1634C45.0254 55.5668 45.4364 55.1011 45.9634 54.7663C46.4937 54.4316 47.1135 54.2642 47.8228 54.2642C48.2537 54.2642 48.6713 54.3355 49.0756 54.478C49.48 54.6205 49.8429 54.8442 50.1644 55.1491C50.4859 55.4541 50.7395 55.8501 50.9251 56.3374C51.1107 56.8213 51.2035 57.4096 51.2035 58.1023V58.6293H45.1332V57.5156H49.7468C49.7468 57.1245 49.6673 56.7782 49.5082 56.4766C49.3491 56.1716 49.1254 55.9313 48.837 55.7557C48.552 55.58 48.2172 55.4922 47.8327 55.4922C47.4151 55.4922 47.0505 55.5949 46.739 55.8004C46.4308 56.0026 46.1921 56.2678 46.0231 56.5959C45.8574 56.9207 45.7745 57.2737 45.7745 57.6548V58.5249C45.7745 59.0353 45.864 59.4695 46.043 59.8274C46.2253 60.1854 46.4788 60.4588 46.8036 60.6477C47.1284 60.8333 47.5079 60.9261 47.9421 60.9261C48.2238 60.9261 48.4807 60.8864 48.7127 60.8068C48.9447 60.724 49.1452 60.6013 49.3143 60.4389C49.4833 60.2765 49.6126 60.076 49.7021 59.8374L51.109 60.0909C50.9963 60.5052 50.7942 60.8681 50.5025 61.1797C50.2141 61.4879 49.8512 61.7282 49.4137 61.9006C48.9795 62.0696 48.484 62.1541 47.9272 62.1541ZM54.3393 51.8182V62H52.8528V51.8182H54.3393Z" fill="black"/>
<g filter="url(#filter0_dd_3120_61317)">
<rect x="19" y="73" width="282" height="38" rx="6" fill="white"/>
<path d="M36.8011 89.3636C36.7415 88.8598 36.4995 88.4688 36.0753 88.1903C35.651 87.9119 35.1307 87.7727 34.5142 87.7727C34.0634 87.7727 33.669 87.8456 33.331 87.9915C32.9962 88.1373 32.7344 88.3378 32.5455 88.593C32.3598 88.8482 32.267 89.1383 32.267 89.4631C32.267 89.7348 32.3317 89.9685 32.4609 90.1641C32.5935 90.3563 32.7625 90.517 32.968 90.6463C33.1735 90.7723 33.389 90.8767 33.6143 90.9595C33.8397 91.0391 34.0469 91.1037 34.2358 91.1534L35.2699 91.4318C35.535 91.5014 35.83 91.5975 36.1548 91.7202C36.483 91.8428 36.7962 92.0102 37.0945 92.2223C37.3961 92.4311 37.6446 92.6996 37.8402 93.0277C38.0357 93.3558 38.1335 93.7585 38.1335 94.2358C38.1335 94.786 37.9893 95.2831 37.701 95.7273C37.416 96.1714 36.9983 96.5244 36.4482 96.7862C35.9013 97.0481 35.2367 97.179 34.4545 97.179C33.7254 97.179 33.094 97.0613 32.5604 96.826C32.0301 96.5907 31.6125 96.2625 31.3075 95.8416C31.0059 95.4207 30.8352 94.9318 30.7955 94.375H32.0682C32.1013 94.7595 32.2306 95.0777 32.456 95.3295C32.6847 95.5781 32.973 95.7637 33.321 95.8864C33.6723 96.0057 34.0502 96.0653 34.4545 96.0653C34.9252 96.0653 35.3478 95.9891 35.7223 95.8366C36.0968 95.6809 36.3935 95.4654 36.6122 95.1903C36.831 94.9119 36.9403 94.5871 36.9403 94.2159C36.9403 93.8778 36.8459 93.6027 36.657 93.3906C36.468 93.1785 36.2195 93.0062 35.9112 92.8736C35.603 92.741 35.2699 92.625 34.9119 92.5256L33.6591 92.1676C32.8636 91.9389 32.2339 91.6125 31.7699 91.1882C31.3059 90.764 31.0739 90.2088 31.0739 89.5227C31.0739 88.9527 31.228 88.4555 31.5362 88.0312C31.8478 87.6037 32.2654 87.2723 32.7891 87.0369C33.3161 86.7983 33.9044 86.679 34.554 86.679C35.2102 86.679 35.7936 86.7966 36.304 87.032C36.8144 87.264 37.2188 87.5821 37.517 87.9865C37.8187 88.3909 37.9777 88.8499 37.9943 89.3636H36.8011ZM43.2033 97.1591C42.4675 97.1591 41.8328 96.9967 41.2992 96.6719C40.7689 96.3438 40.3596 95.8864 40.0712 95.2997C39.7862 94.7098 39.6436 94.0237 39.6436 93.2415C39.6436 92.4593 39.7862 91.7699 40.0712 91.1733C40.3596 90.5734 40.7606 90.1061 41.2743 89.7713C41.7914 89.4332 42.3946 89.2642 43.084 89.2642C43.4817 89.2642 43.8745 89.3305 44.2623 89.4631C44.65 89.5956 45.003 89.8111 45.3212 90.1094C45.6394 90.4044 45.8929 90.7955 46.0819 91.2827C46.2708 91.7699 46.3652 92.3698 46.3652 93.0824V93.5795H40.4789V92.5653H45.1721C45.1721 92.1345 45.0859 91.75 44.9135 91.4119C44.7445 91.0739 44.5025 90.8071 44.1877 90.6115C43.8761 90.416 43.5082 90.3182 43.084 90.3182C42.6167 90.3182 42.2123 90.4342 41.8709 90.6662C41.5328 90.8949 41.2727 91.1932 41.0904 91.5611C40.9081 91.929 40.8169 92.3234 40.8169 92.7443V93.4205C40.8169 93.9972 40.9164 94.486 41.1152 94.8871C41.3174 95.2848 41.5975 95.5881 41.9554 95.7969C42.3134 96.0024 42.7293 96.1051 43.2033 96.1051C43.5115 96.1051 43.79 96.062 44.0385 95.9759C44.2904 95.8864 44.5075 95.7538 44.6898 95.5781C44.8721 95.3991 45.013 95.1771 45.1124 94.9119L46.2459 95.2301C46.1266 95.6146 45.9261 95.9527 45.6444 96.2443C45.3626 96.5327 45.0146 96.758 44.6003 96.9205C44.186 97.0795 43.7203 97.1591 43.2033 97.1591ZM49.3233 86.8182V97H48.15V86.8182H49.3233ZM54.674 97.1591C53.9382 97.1591 53.3035 96.9967 52.7699 96.6719C52.2396 96.3438 51.8303 95.8864 51.5419 95.2997C51.2569 94.7098 51.1143 94.0237 51.1143 93.2415C51.1143 92.4593 51.2569 91.7699 51.5419 91.1733C51.8303 90.5734 52.2313 90.1061 52.745 89.7713C53.2621 89.4332 53.8653 89.2642 54.5547 89.2642C54.9524 89.2642 55.3452 89.3305 55.733 89.4631C56.1207 89.5956 56.4737 89.8111 56.7919 90.1094C57.1101 90.4044 57.3636 90.7955 57.5526 91.2827C57.7415 91.7699 57.8359 92.3698 57.8359 93.0824V93.5795H51.9496V92.5653H56.6428C56.6428 92.1345 56.5566 91.75 56.3842 91.4119C56.2152 91.0739 55.9732 90.8071 55.6584 90.6115C55.3468 90.416 54.9789 90.3182 54.5547 90.3182C54.0874 90.3182 53.683 90.4342 53.3416 90.6662C53.0036 90.8949 52.7434 91.1932 52.5611 91.5611C52.3788 91.929 52.2876 92.3234 52.2876 92.7443V93.4205C52.2876 93.9972 52.3871 94.486 52.5859 94.8871C52.7881 95.2848 53.0682 95.5881 53.4261 95.7969C53.7841 96.0024 54.2 96.1051 54.674 96.1051C54.9822 96.1051 55.2607 96.062 55.5092 95.9759C55.7611 95.8864 55.9782 95.7538 56.1605 95.5781C56.3428 95.3991 56.4837 95.1771 56.5831 94.9119L57.7166 95.2301C57.5973 95.6146 57.3968 95.9527 57.1151 96.2443C56.8333 96.5327 56.4853 96.758 56.071 96.9205C55.6567 97.0795 55.1911 97.1591 54.674 97.1591ZM62.723 97.1591C62.0071 97.1591 61.3906 96.9901 60.8736 96.652C60.3565 96.3139 59.9588 95.8482 59.6804 95.255C59.402 94.6617 59.2628 93.9839 59.2628 93.2216C59.2628 92.446 59.4053 91.7616 59.6903 91.1683C59.9787 90.5717 60.3797 90.1061 60.8935 89.7713C61.4105 89.4332 62.0137 89.2642 62.7031 89.2642C63.2401 89.2642 63.724 89.3636 64.1548 89.5625C64.5857 89.7614 64.9387 90.0398 65.2138 90.3977C65.4889 90.7557 65.6596 91.1733 65.7259 91.6506H64.5526C64.4631 91.3026 64.2642 90.9943 63.956 90.7259C63.651 90.4541 63.2401 90.3182 62.723 90.3182C62.2656 90.3182 61.8646 90.4375 61.5199 90.6761C61.1785 90.9115 60.9117 91.2446 60.7195 91.6754C60.5305 92.103 60.4361 92.6051 60.4361 93.1818C60.4361 93.7718 60.5289 94.2855 60.7145 94.723C60.9034 95.1605 61.1686 95.5002 61.5099 95.7422C61.8546 95.9841 62.259 96.1051 62.723 96.1051C63.0279 96.1051 63.3047 96.0521 63.5533 95.946C63.8018 95.84 64.0123 95.6875 64.1847 95.4886C64.357 95.2898 64.4796 95.0511 64.5526 94.7727H65.7259C65.6596 95.2235 65.4955 95.6295 65.2337 95.9908C64.9751 96.3487 64.6321 96.6338 64.2045 96.8459C63.7803 97.0547 63.2865 97.1591 62.723 97.1591ZM70.7621 89.3636V90.358H66.8047V89.3636H70.7621ZM67.9581 87.5341H69.1314V94.8125C69.1314 95.1439 69.1795 95.3925 69.2756 95.5582C69.375 95.7206 69.5009 95.83 69.6534 95.8864C69.8092 95.9394 69.9732 95.9659 70.1456 95.9659C70.2749 95.9659 70.3809 95.9593 70.4638 95.946C70.5466 95.9295 70.6129 95.9162 70.6626 95.9062L70.9013 96.9602C70.8217 96.9901 70.7107 97.0199 70.5682 97.0497C70.4257 97.0829 70.245 97.0994 70.0263 97.0994C69.6948 97.0994 69.37 97.0282 69.0518 96.8857C68.737 96.7431 68.4751 96.526 68.2663 96.2344C68.0608 95.9427 67.9581 95.5748 67.9581 95.1307V87.5341Z" fill="#6B7280"/>
<path d="M276 90L280 94L284 90" stroke="#6B7280" stroke-width="2" stroke-linecap="round" stroke-linejoin="round"/>
<rect x="19.5" y="73.5" width="281" height="37" rx="5.5" stroke="#2563EB"/>
</g>
<g filter="url(#filter1_ddd_3120_61317)">
<path d="M19 126C19 122.686 21.6863 120 25 120H295C298.314 120 301 122.686 301 126V270C301 273.314 298.314 276 295 276H25C21.6863 276 19 273.314 19 270V126Z" fill="white"/>
<path d="M34.0824 148L31.2983 137.818H32.5511L34.679 146.111H34.7784L36.946 137.818H38.3381L40.5057 146.111H40.6051L42.733 137.818H43.9858L41.2017 148H39.929L37.6818 139.886H37.6023L35.3551 148H34.0824ZM46.8991 148.179C46.4152 148.179 45.9761 148.088 45.5817 147.906C45.1873 147.72 44.8741 147.453 44.642 147.105C44.41 146.754 44.294 146.33 44.294 145.832C44.294 145.395 44.3802 145.04 44.5526 144.768C44.7249 144.493 44.9553 144.278 45.2436 144.122C45.532 143.966 45.8501 143.85 46.1982 143.774C46.5495 143.695 46.9025 143.632 47.2571 143.585C47.7211 143.526 48.0973 143.481 48.3857 143.451C48.6773 143.418 48.8894 143.363 49.022 143.287C49.1579 143.211 49.2259 143.078 49.2259 142.889V142.849C49.2259 142.359 49.0916 141.978 48.8232 141.706C48.558 141.434 48.1553 141.298 47.6151 141.298C47.0549 141.298 46.6158 141.421 46.2976 141.666C45.9794 141.911 45.7557 142.173 45.6264 142.452L44.5128 142.054C44.7116 141.59 44.9768 141.229 45.3082 140.97C45.643 140.708 46.0076 140.526 46.402 140.423C46.7997 140.317 47.1908 140.264 47.5753 140.264C47.8205 140.264 48.1023 140.294 48.4205 140.354C48.742 140.41 49.0518 140.528 49.3501 140.707C49.6518 140.886 49.902 141.156 50.1009 141.517C50.2997 141.878 50.3991 142.362 50.3991 142.969V148H49.2259V146.966H49.1662C49.0866 147.132 48.9541 147.309 48.7685 147.498C48.5829 147.687 48.3359 147.848 48.0277 147.98C47.7195 148.113 47.3433 148.179 46.8991 148.179ZM47.0781 147.125C47.5421 147.125 47.9332 147.034 48.2514 146.852C48.5729 146.669 48.8149 146.434 48.9773 146.146C49.143 145.857 49.2259 145.554 49.2259 145.236V144.162C49.1761 144.222 49.0668 144.276 48.8977 144.326C48.732 144.372 48.5398 144.414 48.321 144.45C48.1056 144.483 47.8951 144.513 47.6896 144.54C47.4875 144.563 47.3234 144.583 47.1974 144.599C46.8925 144.639 46.6075 144.704 46.3423 144.793C46.0805 144.879 45.8684 145.01 45.706 145.186C45.5469 145.358 45.4673 145.594 45.4673 145.892C45.4673 146.3 45.6181 146.608 45.9197 146.817C46.2247 147.022 46.6108 147.125 47.0781 147.125ZM55.4242 148.159C54.7878 148.159 54.226 147.998 53.7388 147.677C53.2516 147.352 52.8704 146.895 52.5953 146.305C52.3203 145.711 52.1827 145.01 52.1827 144.202C52.1827 143.4 52.3203 142.704 52.5953 142.114C52.8704 141.524 53.2533 141.068 53.7438 140.746C54.2343 140.425 54.8011 140.264 55.4441 140.264C55.9412 140.264 56.334 140.347 56.6223 140.513C56.914 140.675 57.1361 140.861 57.2885 141.07C57.4443 141.275 57.5653 141.444 57.6515 141.577H57.7509V137.818H58.9242V148H57.7907V146.827H57.6515C57.5653 146.966 57.4426 147.142 57.2836 147.354C57.1245 147.562 56.8974 147.75 56.6025 147.915C56.3075 148.078 55.9147 148.159 55.4242 148.159ZM55.5833 147.105C56.0539 147.105 56.4516 146.982 56.7765 146.737C57.1013 146.489 57.3482 146.146 57.5172 145.708C57.6863 145.267 57.7708 144.759 57.7708 144.182C57.7708 143.612 57.6879 143.113 57.5222 142.685C57.3565 142.254 57.1112 141.92 56.7864 141.681C56.4616 141.439 56.0605 141.318 55.5833 141.318C55.0861 141.318 54.6718 141.446 54.3404 141.701C54.0123 141.953 53.7653 142.296 53.5996 142.73C53.4372 143.161 53.356 143.645 53.356 144.182C53.356 144.725 53.4389 145.219 53.6046 145.663C53.7736 146.104 54.0222 146.455 54.3503 146.717C54.6818 146.976 55.0927 147.105 55.5833 147.105ZM64.4377 148.159C63.7019 148.159 63.0672 147.997 62.5336 147.672C62.0033 147.344 61.5939 146.886 61.3056 146.3C61.0205 145.71 60.878 145.024 60.878 144.241C60.878 143.459 61.0205 142.77 61.3056 142.173C61.5939 141.573 61.995 141.106 62.5087 140.771C63.0257 140.433 63.629 140.264 64.3184 140.264C64.7161 140.264 65.1088 140.33 65.4966 140.463C65.8844 140.596 66.2374 140.811 66.5556 141.109C66.8738 141.404 67.1273 141.795 67.3162 142.283C67.5051 142.77 67.5996 143.37 67.5996 144.082V144.58H61.7132V143.565H66.4064C66.4064 143.134 66.3203 142.75 66.1479 142.412C65.9789 142.074 65.7369 141.807 65.4221 141.612C65.1105 141.416 64.7426 141.318 64.3184 141.318C63.851 141.318 63.4467 141.434 63.1053 141.666C62.7672 141.895 62.507 142.193 62.3248 142.561C62.1425 142.929 62.0513 143.323 62.0513 143.744V144.42C62.0513 144.997 62.1507 145.486 62.3496 145.887C62.5518 146.285 62.8319 146.588 63.1898 146.797C63.5478 147.002 63.9637 147.105 64.4377 147.105C64.7459 147.105 65.0243 147.062 65.2729 146.976C65.5248 146.886 65.7419 146.754 65.9242 146.578C66.1065 146.399 66.2473 146.177 66.3468 145.912L67.4803 146.23C67.361 146.615 67.1605 146.953 66.8787 147.244C66.597 147.533 66.249 147.758 65.8347 147.92C65.4204 148.08 64.9547 148.159 64.4377 148.159ZM81.6742 141H80.4412C80.3683 140.645 80.2407 140.334 80.0584 140.065C79.8794 139.797 79.6607 139.571 79.4022 139.389C79.147 139.204 78.8636 139.064 78.552 138.972C78.2405 138.879 77.9157 138.832 77.5776 138.832C76.9611 138.832 76.4026 138.988 75.9022 139.3C75.405 139.611 75.0089 140.07 74.714 140.677C74.4223 141.283 74.2765 142.027 74.2765 142.909C74.2765 143.791 74.4223 144.535 74.714 145.141C75.0089 145.748 75.405 146.207 75.9022 146.518C76.4026 146.83 76.9611 146.986 77.5776 146.986C77.9157 146.986 78.2405 146.939 78.552 146.847C78.8636 146.754 79.147 146.616 79.4022 146.434C79.6607 146.248 79.8794 146.021 80.0584 145.753C80.2407 145.481 80.3683 145.17 80.4412 144.818H81.6742C81.5814 145.339 81.4123 145.804 81.1671 146.215C80.9218 146.626 80.6169 146.976 80.2523 147.264C79.8877 147.549 79.4784 147.766 79.0243 147.915C78.5736 148.065 78.0913 148.139 77.5776 148.139C76.7092 148.139 75.937 147.927 75.2608 147.503C74.5847 147.079 74.0527 146.475 73.665 145.693C73.2772 144.911 73.0833 143.983 73.0833 142.909C73.0833 141.835 73.2772 140.907 73.665 140.125C74.0527 139.343 74.5847 138.74 75.2608 138.315C75.937 137.891 76.7092 137.679 77.5776 137.679C78.0913 137.679 78.5736 137.754 79.0243 137.903C79.4784 138.052 79.8877 138.271 80.2523 138.559C80.6169 138.844 80.9218 139.192 81.1671 139.603C81.4123 140.011 81.5814 140.476 81.6742 141ZM86.6097 148.159C85.9203 148.159 85.3155 147.995 84.7951 147.667C84.2781 147.339 83.8737 146.88 83.582 146.29C83.2937 145.7 83.1495 145.01 83.1495 144.222C83.1495 143.426 83.2937 142.732 83.582 142.138C83.8737 141.545 84.2781 141.085 84.7951 140.756C85.3155 140.428 85.9203 140.264 86.6097 140.264C87.2991 140.264 87.9023 140.428 88.4194 140.756C88.9397 141.085 89.3441 141.545 89.6325 142.138C89.9241 142.732 90.07 143.426 90.07 144.222C90.07 145.01 89.9241 145.7 89.6325 146.29C89.3441 146.88 88.9397 147.339 88.4194 147.667C87.9023 147.995 87.2991 148.159 86.6097 148.159ZM86.6097 147.105C87.1334 147.105 87.5643 146.971 87.9023 146.702C88.2404 146.434 88.4906 146.081 88.6531 145.643C88.8155 145.206 88.8967 144.732 88.8967 144.222C88.8967 143.711 88.8155 143.236 88.6531 142.795C88.4906 142.354 88.2404 141.998 87.9023 141.726C87.5643 141.454 87.1334 141.318 86.6097 141.318C86.0861 141.318 85.6552 141.454 85.3171 141.726C84.979 141.998 84.7288 142.354 84.5664 142.795C84.404 143.236 84.3228 143.711 84.3228 144.222C84.3228 144.732 84.404 145.206 84.5664 145.643C84.7288 146.081 84.979 146.434 85.3171 146.702C85.6552 146.971 86.0861 147.105 86.6097 147.105ZM94.9632 148.159C94.2739 148.159 93.669 147.995 93.1486 147.667C92.6316 147.339 92.2272 146.88 91.9355 146.29C91.6472 145.7 91.503 145.01 91.503 144.222C91.503 143.426 91.6472 142.732 91.9355 142.138C92.2272 141.545 92.6316 141.085 93.1486 140.756C93.669 140.428 94.2739 140.264 94.9632 140.264C95.6526 140.264 96.2559 140.428 96.7729 140.756C97.2933 141.085 97.6976 141.545 97.986 142.138C98.2776 142.732 98.4235 143.426 98.4235 144.222C98.4235 145.01 98.2776 145.7 97.986 146.29C97.6976 146.88 97.2933 147.339 96.7729 147.667C96.2559 147.995 95.6526 148.159 94.9632 148.159ZM94.9632 147.105C95.4869 147.105 95.9178 146.971 96.2559 146.702C96.5939 146.434 96.8442 146.081 97.0066 145.643C97.169 145.206 97.2502 144.732 97.2502 144.222C97.2502 143.711 97.169 143.236 97.0066 142.795C96.8442 142.354 96.5939 141.998 96.2559 141.726C95.9178 141.454 95.4869 141.318 94.9632 141.318C94.4396 141.318 94.0087 141.454 93.6706 141.726C93.3326 141.998 93.0823 142.354 92.9199 142.795C92.7575 143.236 92.6763 143.711 92.6763 144.222C92.6763 144.732 92.7575 145.206 92.9199 145.643C93.0823 146.081 93.3326 146.434 93.6706 146.702C94.0087 146.971 94.4396 147.105 94.9632 147.105ZM100.214 150.864V140.364H101.348V141.577H101.487C101.573 141.444 101.693 141.275 101.845 141.07C102.001 140.861 102.223 140.675 102.511 140.513C102.803 140.347 103.197 140.264 103.695 140.264C104.338 140.264 104.904 140.425 105.395 140.746C105.885 141.068 106.268 141.524 106.543 142.114C106.818 142.704 106.956 143.4 106.956 144.202C106.956 145.01 106.818 145.711 106.543 146.305C106.268 146.895 105.887 147.352 105.4 147.677C104.913 147.998 104.351 148.159 103.714 148.159C103.224 148.159 102.831 148.078 102.536 147.915C102.241 147.75 102.014 147.562 101.855 147.354C101.696 147.142 101.573 146.966 101.487 146.827H101.388V150.864H100.214ZM101.368 144.182C101.368 144.759 101.452 145.267 101.621 145.708C101.79 146.146 102.037 146.489 102.362 146.737C102.687 146.982 103.085 147.105 103.555 147.105C104.046 147.105 104.455 146.976 104.783 146.717C105.115 146.455 105.363 146.104 105.529 145.663C105.698 145.219 105.783 144.725 105.783 144.182C105.783 143.645 105.7 143.161 105.534 142.73C105.372 142.296 105.125 141.953 104.793 141.701C104.465 141.446 104.053 141.318 103.555 141.318C103.078 141.318 102.677 141.439 102.352 141.681C102.027 141.92 101.782 142.254 101.616 142.685C101.451 143.113 101.368 143.612 101.368 144.182ZM111.947 148.159C111.212 148.159 110.577 147.997 110.043 147.672C109.513 147.344 109.104 146.886 108.815 146.3C108.53 145.71 108.388 145.024 108.388 144.241C108.388 143.459 108.53 142.77 108.815 142.173C109.104 141.573 109.505 141.106 110.018 140.771C110.536 140.433 111.139 140.264 111.828 140.264C112.226 140.264 112.619 140.33 113.006 140.463C113.394 140.596 113.747 140.811 114.065 141.109C114.384 141.404 114.637 141.795 114.826 142.283C115.015 142.77 115.109 143.37 115.109 144.082V144.58H109.223V143.565H113.916C113.916 143.134 113.83 142.75 113.658 142.412C113.489 142.074 113.247 141.807 112.932 141.612C112.62 141.416 112.252 141.318 111.828 141.318C111.361 141.318 110.956 141.434 110.615 141.666C110.277 141.895 110.017 142.193 109.835 142.561C109.652 142.929 109.561 143.323 109.561 143.744V144.42C109.561 144.997 109.661 145.486 109.859 145.887C110.062 146.285 110.342 146.588 110.7 146.797C111.058 147.002 111.473 147.105 111.947 147.105C112.256 147.105 112.534 147.062 112.783 146.976C113.035 146.886 113.252 146.754 113.434 146.578C113.616 146.399 113.757 146.177 113.857 145.912L114.99 146.23C114.871 146.615 114.67 146.953 114.388 147.244C114.107 147.533 113.759 147.758 113.344 147.92C112.93 148.08 112.464 148.159 111.947 148.159ZM116.894 148V140.364H118.028V141.517H118.107C118.246 141.139 118.498 140.833 118.863 140.597C119.228 140.362 119.638 140.244 120.096 140.244C120.182 140.244 120.29 140.246 120.419 140.249C120.548 140.253 120.646 140.258 120.712 140.264V141.457C120.673 141.447 120.581 141.433 120.439 141.413C120.3 141.389 120.152 141.378 119.996 141.378C119.625 141.378 119.294 141.456 119.002 141.612C118.714 141.764 118.485 141.976 118.316 142.248C118.15 142.516 118.067 142.823 118.067 143.168V148H116.894Z" fill="#111827"/>
<path d="M32.6506 186H31.358L35.0966 175.818H36.3693L40.108 186H38.8153L35.7727 177.429H35.6932L32.6506 186ZM33.1278 182.023H38.3381V183.116H33.1278V182.023ZM41.5348 186V178.364H42.6683V179.517H42.7479C42.8871 179.139 43.139 178.833 43.5036 178.597C43.8681 178.362 44.2791 178.244 44.7365 178.244C44.8227 178.244 44.9304 178.246 45.0597 178.249C45.1889 178.253 45.2867 178.258 45.353 178.264V179.457C45.3132 179.447 45.2221 179.433 45.0795 179.413C44.9403 179.389 44.7929 179.378 44.6371 179.378C44.2659 179.378 43.9344 179.456 43.6428 179.612C43.3544 179.764 43.1257 179.976 42.9567 180.248C42.791 180.516 42.7081 180.823 42.7081 181.168V186H41.5348ZM47.9171 175.818V186H46.7438V175.818H47.9171ZM53.2678 186.159C52.532 186.159 51.8973 185.997 51.3636 185.672C50.8333 185.344 50.424 184.886 50.1357 184.3C49.8506 183.71 49.7081 183.024 49.7081 182.241C49.7081 181.459 49.8506 180.77 50.1357 180.173C50.424 179.573 50.825 179.106 51.3388 178.771C51.8558 178.433 52.459 178.264 53.1484 178.264C53.5462 178.264 53.9389 178.33 54.3267 178.463C54.7145 178.596 55.0675 178.811 55.3857 179.109C55.7038 179.404 55.9574 179.795 56.1463 180.283C56.3352 180.77 56.4297 181.37 56.4297 182.082V182.58H50.5433V181.565H55.2365C55.2365 181.134 55.1503 180.75 54.978 180.412C54.8089 180.074 54.567 179.807 54.2521 179.612C53.9406 179.416 53.5727 179.318 53.1484 179.318C52.6811 179.318 52.2768 179.434 51.9354 179.666C51.5973 179.895 51.3371 180.193 51.1548 180.561C50.9725 180.929 50.8814 181.323 50.8814 181.744V182.42C50.8814 182.997 50.9808 183.486 51.1797 183.887C51.3819 184.285 51.6619 184.588 52.0199 184.797C52.3778 185.002 52.7938 185.105 53.2678 185.105C53.576 185.105 53.8544 185.062 54.103 184.976C54.3549 184.886 54.572 184.754 54.7543 184.578C54.9366 184.399 55.0774 184.177 55.1768 183.912L56.3104 184.23C56.1911 184.615 55.9905 184.953 55.7088 185.244C55.4271 185.533 55.0791 185.758 54.6648 185.92C54.2505 186.08 53.7848 186.159 53.2678 186.159ZM59.3878 181.406V186H58.2145V178.364H59.348V179.557H59.4474C59.6264 179.169 59.8982 178.857 60.2628 178.622C60.6274 178.384 61.098 178.264 61.6747 178.264C62.1918 178.264 62.6442 178.37 63.032 178.582C63.4197 178.791 63.7214 179.109 63.9368 179.537C64.1522 179.961 64.2599 180.498 64.2599 181.148V186H63.0866V181.227C63.0866 180.627 62.9309 180.16 62.6193 179.825C62.3078 179.487 61.8802 179.318 61.3366 179.318C60.9621 179.318 60.6274 179.399 60.3324 179.562C60.0407 179.724 59.8104 179.961 59.6413 180.273C59.4723 180.584 59.3878 180.962 59.3878 181.406ZM69.6056 186.159C68.8699 186.159 68.2351 185.997 67.7015 185.672C67.1712 185.344 66.7619 184.886 66.4735 184.3C66.1885 183.71 66.046 183.024 66.046 182.241C66.046 181.459 66.1885 180.77 66.4735 180.173C66.7619 179.573 67.1629 179.106 67.6767 178.771C68.1937 178.433 68.7969 178.264 69.4863 178.264C69.8841 178.264 70.2768 178.33 70.6646 178.463C71.0524 178.596 71.4054 178.811 71.7235 179.109C72.0417 179.404 72.2953 179.795 72.4842 180.283C72.6731 180.77 72.7676 181.37 72.7676 182.082V182.58H66.8812V181.565H71.5744C71.5744 181.134 71.4882 180.75 71.3159 180.412C71.1468 180.074 70.9049 179.807 70.59 179.612C70.2785 179.416 69.9106 179.318 69.4863 179.318C69.019 179.318 68.6146 179.434 68.2733 179.666C67.9352 179.895 67.675 180.193 67.4927 180.561C67.3104 180.929 67.2193 181.323 67.2193 181.744V182.42C67.2193 182.997 67.3187 183.486 67.5176 183.887C67.7198 184.285 67.9998 184.588 68.3578 184.797C68.7157 185.002 69.1317 185.105 69.6056 185.105C69.9139 185.105 70.1923 185.062 70.4409 184.976C70.6928 184.886 70.9099 184.754 71.0922 184.578C71.2744 184.399 71.4153 184.177 71.5147 183.912L72.6483 184.23C72.5289 184.615 72.3284 184.953 72.0467 185.244C71.765 185.533 71.417 185.758 71.0027 185.92C70.5884 186.08 70.1227 186.159 69.6056 186.159ZM78.649 175.818H80.1206L83.5808 184.27H83.7001L87.1603 175.818H88.6319V186H87.4785V178.264H87.3791L84.1973 186H83.0836L79.9018 178.264H79.8024V186H78.649V175.818ZM94.0472 186.159C93.3313 186.159 92.7148 185.99 92.1978 185.652C91.6808 185.314 91.283 184.848 91.0046 184.255C90.7262 183.662 90.587 182.984 90.587 182.222C90.587 181.446 90.7295 180.762 91.0146 180.168C91.3029 179.572 91.704 179.106 92.2177 178.771C92.7347 178.433 93.3379 178.264 94.0273 178.264C94.5643 178.264 95.0482 178.364 95.479 178.562C95.9099 178.761 96.2629 179.04 96.538 179.398C96.8131 179.756 96.9838 180.173 97.0501 180.651H95.8768C95.7873 180.303 95.5884 179.994 95.2802 179.726C94.9753 179.454 94.5643 179.318 94.0472 179.318C93.5898 179.318 93.1888 179.437 92.8441 179.676C92.5027 179.911 92.2359 180.245 92.0437 180.675C91.8548 181.103 91.7603 181.605 91.7603 182.182C91.7603 182.772 91.8531 183.286 92.0387 183.723C92.2276 184.161 92.4928 184.5 92.8342 184.742C93.1789 184.984 93.5832 185.105 94.0472 185.105C94.3522 185.105 94.6289 185.052 94.8775 184.946C95.1261 184.84 95.3365 184.688 95.5089 184.489C95.6812 184.29 95.8039 184.051 95.8768 183.773H97.0501C96.9838 184.223 96.8197 184.629 96.5579 184.991C96.2994 185.349 95.9563 185.634 95.5288 185.846C95.1045 186.055 94.6107 186.159 94.0472 186.159ZM101.868 186.159C101.152 186.159 100.535 185.99 100.018 185.652C99.5011 185.314 99.1033 184.848 98.8249 184.255C98.5465 183.662 98.4073 182.984 98.4073 182.222C98.4073 181.446 98.5498 180.762 98.8349 180.168C99.1232 179.572 99.5243 179.106 100.038 178.771C100.555 178.433 101.158 178.264 101.848 178.264C102.385 178.264 102.868 178.364 103.299 178.562C103.73 178.761 104.083 179.04 104.358 179.398C104.633 179.756 104.804 180.173 104.87 180.651H103.697C103.608 180.303 103.409 179.994 103.1 179.726C102.796 179.454 102.385 179.318 101.868 179.318C101.41 179.318 101.009 179.437 100.664 179.676C100.323 179.911 100.056 180.245 99.864 180.675C99.6751 181.103 99.5806 181.605 99.5806 182.182C99.5806 182.772 99.6734 183.286 99.859 183.723C100.048 184.161 100.313 184.5 100.654 184.742C100.999 184.984 101.404 185.105 101.868 185.105C102.172 185.105 102.449 185.052 102.698 184.946C102.946 184.84 103.157 184.688 103.329 184.489C103.502 184.29 103.624 184.051 103.697 183.773H104.87C104.804 184.223 104.64 184.629 104.378 184.991C104.12 185.349 103.777 185.634 103.349 185.846C102.925 186.055 102.431 186.159 101.868 186.159ZM109.688 186.159C108.998 186.159 108.394 185.995 107.873 185.667C107.356 185.339 106.952 184.88 106.66 184.29C106.372 183.7 106.228 183.01 106.228 182.222C106.228 181.426 106.372 180.732 106.66 180.138C106.952 179.545 107.356 179.085 107.873 178.756C108.394 178.428 108.998 178.264 109.688 178.264C110.377 178.264 110.98 178.428 111.498 178.756C112.018 179.085 112.422 179.545 112.711 180.138C113.002 180.732 113.148 181.426 113.148 182.222C113.148 183.01 113.002 183.7 112.711 184.29C112.422 184.88 112.018 185.339 111.498 185.667C110.98 185.995 110.377 186.159 109.688 186.159ZM109.688 185.105C110.212 185.105 110.642 184.971 110.98 184.702C111.319 184.434 111.569 184.081 111.731 183.643C111.894 183.206 111.975 182.732 111.975 182.222C111.975 181.711 111.894 181.236 111.731 180.795C111.569 180.354 111.319 179.998 110.98 179.726C110.642 179.454 110.212 179.318 109.688 179.318C109.164 179.318 108.733 179.454 108.395 179.726C108.057 179.998 107.807 180.354 107.645 180.795C107.482 181.236 107.401 181.711 107.401 182.222C107.401 182.732 107.482 183.206 107.645 183.643C107.807 184.081 108.057 184.434 108.395 184.702C108.733 184.971 109.164 185.105 109.688 185.105ZM115.421 188.864C115.222 188.864 115.045 188.847 114.889 188.814C114.734 188.784 114.626 188.754 114.566 188.724L114.865 187.69C115.15 187.763 115.401 187.79 115.62 187.77C115.839 187.75 116.033 187.652 116.202 187.477C116.374 187.304 116.532 187.024 116.674 186.636L116.893 186.04L114.069 178.364H115.342L117.45 184.449H117.529L119.637 178.364H120.91L117.669 187.114C117.523 187.508 117.342 187.835 117.127 188.093C116.911 188.355 116.661 188.549 116.376 188.675C116.094 188.801 115.776 188.864 115.421 188.864Z" fill="#111827"/>
<rect width="282" height="38" transform="translate(19 200)" fill="#2563EB"/>
<path d="M35.375 224H32.233V213.818H35.5142C36.5019 213.818 37.3471 214.022 38.0497 214.43C38.7524 214.834 39.291 215.416 39.6655 216.175C40.04 216.93 40.2273 217.835 40.2273 218.889C40.2273 219.95 40.0384 220.863 39.6605 221.629C39.2827 222.391 38.7325 222.978 38.0099 223.388C37.2874 223.796 36.4091 224 35.375 224ZM33.4659 222.906H35.2955C36.1373 222.906 36.835 222.744 37.3885 222.419C37.942 222.094 38.3546 221.632 38.6264 221.032C38.8982 220.432 39.0341 219.718 39.0341 218.889C39.0341 218.067 38.8999 217.36 38.6314 216.766C38.3629 216.17 37.9619 215.712 37.4283 215.394C36.8946 215.073 36.2301 214.912 35.4347 214.912H33.4659V222.906ZM45.3381 224.159C44.6023 224.159 43.9676 223.997 43.4339 223.672C42.9036 223.344 42.4943 222.886 42.206 222.3C41.9209 221.71 41.7784 221.024 41.7784 220.241C41.7784 219.459 41.9209 218.77 42.206 218.173C42.4943 217.573 42.8954 217.106 43.4091 216.771C43.9261 216.433 44.5294 216.264 45.2188 216.264C45.6165 216.264 46.0092 216.33 46.397 216.463C46.7848 216.596 47.1378 216.811 47.456 217.109C47.7741 217.404 48.0277 217.795 48.2166 218.283C48.4055 218.77 48.5 219.37 48.5 220.082V220.58H42.6136V219.565H47.3068C47.3068 219.134 47.2206 218.75 47.0483 218.412C46.8793 218.074 46.6373 217.807 46.3224 217.612C46.0109 217.416 45.643 217.318 45.2188 217.318C44.7514 217.318 44.3471 217.434 44.0057 217.666C43.6676 217.895 43.4074 218.193 43.2251 218.561C43.0429 218.929 42.9517 219.323 42.9517 219.744V220.42C42.9517 220.997 43.0511 221.486 43.25 221.887C43.4522 222.285 43.7322 222.588 44.0902 222.797C44.4482 223.002 44.8641 223.105 45.3381 223.105C45.6463 223.105 45.9247 223.062 46.1733 222.976C46.4252 222.886 46.6423 222.754 46.8246 222.578C47.0069 222.399 47.1477 222.177 47.2472 221.912L48.3807 222.23C48.2614 222.615 48.0608 222.953 47.7791 223.244C47.4974 223.533 47.1494 223.758 46.7351 223.92C46.3208 224.08 45.8551 224.159 45.3381 224.159ZM56.2967 216.364L53.4728 224H52.2797L49.4558 216.364H50.7285L52.8365 222.449H52.916L55.024 216.364H56.2967ZM60.6742 224.159C59.9848 224.159 59.3799 223.995 58.8596 223.667C58.3425 223.339 57.9382 222.88 57.6465 222.29C57.3581 221.7 57.214 221.01 57.214 220.222C57.214 219.426 57.3581 218.732 57.6465 218.138C57.9382 217.545 58.3425 217.085 58.8596 216.756C59.3799 216.428 59.9848 216.264 60.6742 216.264C61.3636 216.264 61.9668 216.428 62.4838 216.756C63.0042 217.085 63.4086 217.545 63.6969 218.138C63.9886 218.732 64.1344 219.426 64.1344 220.222C64.1344 221.01 63.9886 221.7 63.6969 222.29C63.4086 222.88 63.0042 223.339 62.4838 223.667C61.9668 223.995 61.3636 224.159 60.6742 224.159ZM60.6742 223.105C61.1979 223.105 61.6287 222.971 61.9668 222.702C62.3049 222.434 62.5551 222.081 62.7175 221.643C62.8799 221.206 62.9611 220.732 62.9611 220.222C62.9611 219.711 62.8799 219.236 62.7175 218.795C62.5551 218.354 62.3049 217.998 61.9668 217.726C61.6287 217.454 61.1979 217.318 60.6742 217.318C60.1505 217.318 59.7196 217.454 59.3816 217.726C59.0435 217.998 58.7933 218.354 58.6309 218.795C58.4685 219.236 58.3873 219.711 58.3873 220.222C58.3873 220.732 58.4685 221.206 58.6309 221.643C58.7933 222.081 59.0435 222.434 59.3816 222.702C59.7196 222.971 60.1505 223.105 60.6742 223.105ZM67.0987 219.406V224H65.9254V216.364H67.0589V217.557H67.1584C67.3374 217.169 67.6091 216.857 67.9737 216.622C68.3383 216.384 68.8089 216.264 69.3857 216.264C69.9027 216.264 70.3551 216.37 70.7429 216.582C71.1307 216.791 71.4323 217.109 71.6477 217.537C71.8632 217.961 71.9709 218.498 71.9709 219.148V224H70.7976V219.227C70.7976 218.627 70.6418 218.16 70.3303 217.825C70.0187 217.487 69.5911 217.318 69.0476 217.318C68.6731 217.318 68.3383 217.399 68.0433 217.562C67.7517 217.724 67.5213 217.961 67.3523 218.273C67.1832 218.584 67.0987 218.962 67.0987 219.406ZM80.0609 224L77.2768 213.818H78.5297L80.6575 222.111H80.7569L82.9245 213.818H84.3166L86.4842 222.111H86.5836L88.7115 213.818H89.9643L87.1802 224H85.9075L83.6603 215.886H83.5808L81.3336 224H80.0609ZM93.8322 224.159C93.0964 224.159 92.4617 223.997 91.9281 223.672C91.3978 223.344 90.9885 222.886 90.7001 222.3C90.4151 221.71 90.2725 221.024 90.2725 220.241C90.2725 219.459 90.4151 218.77 90.7001 218.173C90.9885 217.573 91.3895 217.106 91.9032 216.771C92.4203 216.433 93.0235 216.264 93.7129 216.264C94.1106 216.264 94.5034 216.33 94.8912 216.463C95.2789 216.596 95.6319 216.811 95.9501 217.109C96.2683 217.404 96.5218 217.795 96.7108 218.283C96.8997 218.77 96.9941 219.37 96.9941 220.082V220.58H91.1078V219.565H95.801C95.801 219.134 95.7148 218.75 95.5424 218.412C95.3734 218.074 95.1315 217.807 94.8166 217.612C94.505 217.416 94.1371 217.318 93.7129 217.318C93.2456 217.318 92.8412 217.434 92.4998 217.666C92.1618 217.895 91.9016 218.193 91.7193 218.561C91.537 218.929 91.4458 219.323 91.4458 219.744V220.42C91.4458 220.997 91.5453 221.486 91.7441 221.887C91.9463 222.285 92.2264 222.588 92.5843 222.797C92.9423 223.002 93.3583 223.105 93.8322 223.105C94.1404 223.105 94.4189 223.062 94.6674 222.976C94.9193 222.886 95.1364 222.754 95.3187 222.578C95.501 222.399 95.6419 222.177 95.7413 221.912L96.8748 222.23C96.7555 222.615 96.555 222.953 96.2733 223.244C95.9915 223.533 95.6435 223.758 95.2292 223.92C94.8149 224.08 94.3493 224.159 93.8322 224.159ZM98.938 224V213.818H100.111V217.577H100.211C100.297 217.444 100.416 217.275 100.569 217.07C100.724 216.861 100.947 216.675 101.235 216.513C101.527 216.347 101.921 216.264 102.418 216.264C103.061 216.264 103.628 216.425 104.118 216.746C104.609 217.068 104.992 217.524 105.267 218.114C105.542 218.704 105.68 219.4 105.68 220.202C105.68 221.01 105.542 221.711 105.267 222.305C104.992 222.895 104.611 223.352 104.123 223.677C103.636 223.998 103.074 224.159 102.438 224.159C101.948 224.159 101.555 224.078 101.26 223.915C100.965 223.75 100.738 223.562 100.579 223.354C100.42 223.142 100.297 222.966 100.211 222.827H100.072V224H98.938ZM100.091 220.182C100.091 220.759 100.176 221.267 100.345 221.708C100.514 222.146 100.761 222.489 101.086 222.737C101.411 222.982 101.808 223.105 102.279 223.105C102.769 223.105 103.179 222.976 103.507 222.717C103.838 222.455 104.087 222.104 104.253 221.663C104.422 221.219 104.506 220.725 104.506 220.182C104.506 219.645 104.423 219.161 104.258 218.73C104.095 218.296 103.848 217.953 103.517 217.701C103.189 217.446 102.776 217.318 102.279 217.318C101.802 217.318 101.401 217.439 101.076 217.681C100.751 217.92 100.506 218.254 100.34 218.685C100.174 219.113 100.091 219.612 100.091 220.182ZM107.633 224V213.818H108.807V217.577H108.906C108.992 217.444 109.112 217.275 109.264 217.07C109.42 216.861 109.642 216.675 109.93 216.513C110.222 216.347 110.616 216.264 111.113 216.264C111.756 216.264 112.323 216.425 112.814 216.746C113.304 217.068 113.687 217.524 113.962 218.114C114.237 218.704 114.375 219.4 114.375 220.202C114.375 221.01 114.237 221.711 113.962 222.305C113.687 222.895 113.306 223.352 112.819 223.677C112.331 223.998 111.77 224.159 111.133 224.159C110.643 224.159 110.25 224.078 109.955 223.915C109.66 223.75 109.433 223.562 109.274 223.354C109.115 223.142 108.992 222.966 108.906 222.827H108.767V224H107.633ZM108.787 220.182C108.787 220.759 108.871 221.267 109.04 221.708C109.209 222.146 109.456 222.489 109.781 222.737C110.106 222.982 110.504 223.105 110.974 223.105C111.465 223.105 111.874 222.976 112.202 222.717C112.534 222.455 112.782 222.104 112.948 221.663C113.117 221.219 113.202 220.725 113.202 220.182C113.202 219.645 113.119 219.161 112.953 218.73C112.791 218.296 112.544 217.953 112.212 217.701C111.884 217.446 111.471 217.318 110.974 217.318C110.497 217.318 110.096 217.439 109.771 217.681C109.446 217.92 109.201 218.254 109.035 218.685C108.87 219.113 108.787 219.612 108.787 220.182Z" fill="white"/>
<path d="M31.6761 252.912V251.818H39.3125V252.912H36.1108V262H34.8778V252.912H31.6761ZM43.0511 262.159C42.3617 262.159 41.7569 261.995 41.2365 261.667C40.7195 261.339 40.3151 260.88 40.0234 260.29C39.7351 259.7 39.5909 259.01 39.5909 258.222C39.5909 257.426 39.7351 256.732 40.0234 256.138C40.3151 255.545 40.7195 255.085 41.2365 254.756C41.7569 254.428 42.3617 254.264 43.0511 254.264C43.7405 254.264 44.3438 254.428 44.8608 254.756C45.3812 255.085 45.7855 255.545 46.0739 256.138C46.3655 256.732 46.5114 257.426 46.5114 258.222C46.5114 259.01 46.3655 259.7 46.0739 260.29C45.7855 260.88 45.3812 261.339 44.8608 261.667C44.3438 261.995 43.7405 262.159 43.0511 262.159ZM43.0511 261.105C43.5748 261.105 44.0057 260.971 44.3438 260.702C44.6818 260.434 44.9321 260.081 45.0945 259.643C45.2569 259.206 45.3381 258.732 45.3381 258.222C45.3381 257.711 45.2569 257.236 45.0945 256.795C44.9321 256.354 44.6818 255.998 44.3438 255.726C44.0057 255.454 43.5748 255.318 43.0511 255.318C42.5275 255.318 42.0966 255.454 41.7585 255.726C41.4205 255.998 41.1702 256.354 41.0078 256.795C40.8454 257.236 40.7642 257.711 40.7642 258.222C40.7642 258.732 40.8454 259.206 41.0078 259.643C41.1702 260.081 41.4205 260.434 41.7585 260.702C42.0966 260.971 42.5275 261.105 43.0511 261.105ZM48.3024 262V254.364H49.4359V255.557H49.5353C49.6944 255.149 49.9513 254.833 50.3059 254.607C50.6606 254.379 51.0865 254.264 51.5836 254.264C52.0874 254.264 52.5067 254.379 52.8414 254.607C53.1795 254.833 53.443 255.149 53.6319 255.557H53.7115C53.907 255.162 54.2003 254.849 54.5914 254.617C54.9825 254.382 55.4515 254.264 55.9984 254.264C56.6812 254.264 57.2396 254.478 57.6738 254.906C58.108 255.33 58.3251 255.991 58.3251 256.889V262H57.1518V256.889C57.1518 256.326 56.9977 255.923 56.6895 255.681C56.3812 255.439 56.0183 255.318 55.6007 255.318C55.0637 255.318 54.6478 255.481 54.3528 255.805C54.0578 256.127 53.9103 256.535 53.9103 257.028V262H52.7172V256.77C52.7172 256.336 52.5763 255.986 52.2946 255.721C52.0128 255.452 51.6499 255.318 51.2058 255.318C50.9009 255.318 50.6158 255.399 50.3507 255.562C50.0888 255.724 49.8767 255.95 49.7143 256.238C49.5552 256.523 49.4757 256.853 49.4757 257.227V262H48.3024ZM72.7601 255H71.5272C71.4543 254.645 71.3266 254.334 71.1444 254.065C70.9654 253.797 70.7466 253.571 70.4881 253.389C70.2329 253.204 69.9495 253.064 69.638 252.972C69.3264 252.879 69.0016 252.832 68.6635 252.832C68.0471 252.832 67.4886 252.988 66.9881 253.3C66.4909 253.611 66.0949 254.07 65.7999 254.677C65.5082 255.283 65.3624 256.027 65.3624 256.909C65.3624 257.791 65.5082 258.535 65.7999 259.141C66.0949 259.748 66.4909 260.207 66.9881 260.518C67.4886 260.83 68.0471 260.986 68.6635 260.986C69.0016 260.986 69.3264 260.939 69.638 260.847C69.9495 260.754 70.2329 260.616 70.4881 260.434C70.7466 260.248 70.9654 260.021 71.1444 259.753C71.3266 259.481 71.4543 259.17 71.5272 258.818H72.7601C72.6673 259.339 72.4983 259.804 72.253 260.215C72.0078 260.626 71.7028 260.976 71.3382 261.264C70.9737 261.549 70.5643 261.766 70.1103 261.915C69.6595 262.065 69.1773 262.139 68.6635 262.139C67.7952 262.139 67.0229 261.927 66.3468 261.503C65.6706 261.079 65.1387 260.475 64.7509 259.693C64.3631 258.911 64.1692 257.983 64.1692 256.909C64.1692 255.835 64.3631 254.907 64.7509 254.125C65.1387 253.343 65.6706 252.74 66.3468 252.315C67.0229 251.891 67.7952 251.679 68.6635 251.679C69.1773 251.679 69.6595 251.754 70.1103 251.903C70.5643 252.052 70.9737 252.271 71.3382 252.559C71.7028 252.844 72.0078 253.192 72.253 253.603C72.4983 254.011 72.6673 254.476 72.7601 255ZM77.6957 262.159C77.0063 262.159 76.4014 261.995 75.881 261.667C75.364 261.339 74.9596 260.88 74.668 260.29C74.3796 259.7 74.2354 259.01 74.2354 258.222C74.2354 257.426 74.3796 256.732 74.668 256.138C74.9596 255.545 75.364 255.085 75.881 254.756C76.4014 254.428 77.0063 254.264 77.6957 254.264C78.3851 254.264 78.9883 254.428 79.5053 254.756C80.0257 255.085 80.43 255.545 80.7184 256.138C81.0101 256.732 81.1559 257.426 81.1559 258.222C81.1559 259.01 81.0101 259.7 80.7184 260.29C80.43 260.88 80.0257 261.339 79.5053 261.667C78.9883 261.995 78.3851 262.159 77.6957 262.159ZM77.6957 261.105C78.2193 261.105 78.6502 260.971 78.9883 260.702C79.3263 260.434 79.5766 260.081 79.739 259.643C79.9014 259.206 79.9826 258.732 79.9826 258.222C79.9826 257.711 79.9014 257.236 79.739 256.795C79.5766 256.354 79.3263 255.998 78.9883 255.726C78.6502 255.454 78.2193 255.318 77.6957 255.318C77.172 255.318 76.7411 255.454 76.4031 255.726C76.065 255.998 75.8147 256.354 75.6523 256.795C75.4899 257.236 75.4087 257.711 75.4087 258.222C75.4087 258.732 75.4899 259.206 75.6523 259.643C75.8147 260.081 76.065 260.434 76.4031 260.702C76.7411 260.971 77.172 261.105 77.6957 261.105ZM86.0492 262.159C85.3598 262.159 84.7549 261.995 84.2346 261.667C83.7175 261.339 83.3132 260.88 83.0215 260.29C82.7331 259.7 82.589 259.01 82.589 258.222C82.589 257.426 82.7331 256.732 83.0215 256.138C83.3132 255.545 83.7175 255.085 84.2346 254.756C84.7549 254.428 85.3598 254.264 86.0492 254.264C86.7386 254.264 87.3418 254.428 87.8588 254.756C88.3792 255.085 88.7836 255.545 89.0719 256.138C89.3636 256.732 89.5094 257.426 89.5094 258.222C89.5094 259.01 89.3636 259.7 89.0719 260.29C88.7836 260.88 88.3792 261.339 87.8588 261.667C87.3418 261.995 86.7386 262.159 86.0492 262.159ZM86.0492 261.105C86.5729 261.105 87.0037 260.971 87.3418 260.702C87.6799 260.434 87.9301 260.081 88.0925 259.643C88.2549 259.206 88.3361 258.732 88.3361 258.222C88.3361 257.711 88.2549 257.236 88.0925 256.795C87.9301 256.354 87.6799 255.998 87.3418 255.726C87.0037 255.454 86.5729 255.318 86.0492 255.318C85.5255 255.318 85.0946 255.454 84.7566 255.726C84.4185 255.998 84.1683 256.354 84.0059 256.795C83.8435 257.236 83.7623 257.711 83.7623 258.222C83.7623 258.732 83.8435 259.206 84.0059 259.643C84.1683 260.081 84.4185 260.434 84.7566 260.702C85.0946 260.971 85.5255 261.105 86.0492 261.105ZM92.3942 259.216L92.3743 257.764H92.6129L95.9538 254.364H97.4055L93.8459 257.963H93.7464L92.3942 259.216ZM91.3004 262V251.818H92.4737V262H91.3004ZM96.1527 262L93.1697 258.222L94.005 257.406L97.6442 262H96.1527Z" fill="#111827"/>
</g>
<defs>
<filter id="filter0_dd_3120_61317" x="17" y="72" width="286" height="42" filterUnits="userSpaceOnUse" color-interpolation-filters="sRGB">
<feFlood flood-opacity="0" result="BackgroundImageFix"/>
<feColorMatrix in="SourceAlpha" type="matrix" values="0 0 0 0 0 0 0 0 0 0 0 0 0 0 0 0 0 0 127 0" result="hardAlpha"/>
<feMorphology radius="1" operator="dilate" in="SourceAlpha" result="effect1_dropShadow_3120_61317"/>
<feOffset/>
<feColorMatrix type="matrix" values="0 0 0 0 0.145098 0 0 0 0 0.388235 0 0 0 0 0.921569 0 0 0 1 0"/>
<feBlend mode="normal" in2="BackgroundImageFix" result="effect1_dropShadow_3120_61317"/>
<feColorMatrix in="SourceAlpha" type="matrix" values="0 0 0 0 0 0 0 0 0 0 0 0 0 0 0 0 0 0 127 0" result="hardAlpha"/>
<feOffset dy="1"/>
<feGaussianBlur stdDeviation="1"/>
<feComposite in2="hardAlpha" operator="out"/>
<feColorMatrix type="matrix" values="0 0 0 0 0 0 0 0 0 0 0 0 0 0 0 0 0 0 0.05 0"/>
<feBlend mode="normal" in2="effect1_dropShadow_3120_61317" result="effect2_dropShadow_3120_61317"/>
<feBlend mode="normal" in="SourceGraphic" in2="effect2_dropShadow_3120_61317" result="shape"/>
</filter>
<filter id="filter1_ddd_3120_61317" x="7" y="118" width="306" height="180" filterUnits="userSpaceOnUse" color-interpolation-filters="sRGB">
<feFlood flood-opacity="0" result="BackgroundImageFix"/>
<feColorMatrix in="SourceAlpha" type="matrix" values="0 0 0 0 0 0 0 0 0 0 0 0 0 0 0 0 0 0 127 0" result="hardAlpha"/>
<feMorphology radius="2" operator="erode" in="SourceAlpha" result="effect1_dropShadow_3120_61317"/>
<feOffset dy="4"/>
<feGaussianBlur stdDeviation="3"/>
<feColorMatrix type="matrix" values="0 0 0 0 0 0 0 0 0 0 0 0 0 0 0 0 0 0 0.05 0"/>
<feBlend mode="normal" in2="BackgroundImageFix" result="effect1_dropShadow_3120_61317"/>
<feColorMatrix in="SourceAlpha" type="matrix" values="0 0 0 0 0 0 0 0 0 0 0 0 0 0 0 0 0 0 127 0" result="hardAlpha"/>
<feMorphology radius="3" operator="erode" in="SourceAlpha" result="effect2_dropShadow_3120_61317"/>
<feOffset dy="10"/>
<feGaussianBlur stdDeviation="7.5"/>
<feColorMatrix type="matrix" values="0 0 0 0 0 0 0 0 0 0 0 0 0 0 0 0 0 0 0.1 0"/>
<feBlend mode="normal" in2="effect1_dropShadow_3120_61317" result="effect2_dropShadow_3120_61317"/>
<feColorMatrix in="SourceAlpha" type="matrix" values="0 0 0 0 0 0 0 0 0 0 0 0 0 0 0 0 0 0 127 0" result="hardAlpha"/>
<feMorphology radius="1" operator="dilate" in="SourceAlpha" result="effect3_dropShadow_3120_61317"/>
<feOffset/>
<feColorMatrix type="matrix" values="0 0 0 0 0 0 0 0 0 0 0 0 0 0 0 0 0 0 0.05 0"/>
<feBlend mode="normal" in2="effect2_dropShadow_3120_61317" result="effect3_dropShadow_3120_61317"/>
<feBlend mode="normal" in="SourceGraphic" in2="effect3_dropShadow_3120_61317" result="shape"/>
</filter>
</defs>
</svg>
