<svg width="320" height="320" viewBox="0 0 320 320" fill="none" xmlns="http://www.w3.org/2000/svg">
<rect x="12" y="46" width="296" height="249" fill="#6B7280" fill-opacity="0.75"/>
<g clip-path="url(#clip0_3120_61376)">
<g clip-path="url(#clip1_3120_61376)" filter="url(#filter0_dd_3120_61376)">
<rect width="181" height="249" transform="translate(127 46)" fill="white"/>
<path d="M151.959 88V79.2727H155.07C155.749 79.2727 156.311 79.3963 156.757 79.6435C157.203 79.8906 157.537 80.2287 157.759 80.6577C157.98 81.0838 158.091 81.5639 158.091 82.098C158.091 82.6349 157.979 83.1179 157.754 83.5469C157.533 83.973 157.197 84.3111 156.749 84.5611C156.303 84.8082 155.741 84.9318 155.065 84.9318H152.926V83.8153H154.946C155.375 83.8153 155.723 83.7415 155.99 83.5938C156.257 83.4432 156.453 83.2386 156.578 82.9801C156.703 82.7216 156.766 82.4276 156.766 82.098C156.766 81.7685 156.703 81.4759 156.578 81.2202C156.453 80.9645 156.256 80.7642 155.986 80.6193C155.719 80.4744 155.366 80.402 154.929 80.402H153.276V88H151.959ZM161.379 88.1449C160.964 88.1449 160.589 88.0682 160.254 87.9148C159.918 87.7585 159.653 87.5327 159.457 87.2372C159.263 86.9418 159.167 86.5795 159.167 86.1506C159.167 85.7812 159.238 85.4773 159.38 85.2386C159.522 85 159.714 84.8111 159.955 84.6719C160.197 84.5327 160.467 84.4276 160.765 84.3565C161.063 84.2855 161.367 84.2315 161.677 84.1946C162.069 84.1491 162.387 84.1122 162.631 84.0838C162.876 84.0526 163.053 84.0028 163.164 83.9347C163.275 83.8665 163.33 83.7557 163.33 83.6023V83.5724C163.33 83.2003 163.225 82.9119 163.015 82.7074C162.808 82.5028 162.498 82.4006 162.086 82.4006C161.657 82.4006 161.319 82.4957 161.072 82.6861C160.827 82.8736 160.658 83.0824 160.565 83.3125L159.367 83.0398C159.509 82.642 159.717 82.321 159.989 82.0767C160.265 81.8295 160.582 81.6506 160.94 81.5398C161.298 81.4261 161.674 81.3693 162.069 81.3693C162.33 81.3693 162.607 81.4006 162.9 81.4631C163.195 81.5227 163.471 81.6335 163.727 81.7955C163.985 81.9574 164.197 82.1889 164.362 82.4901C164.526 82.7884 164.609 83.1761 164.609 83.6534V88H163.364V87.1051H163.313C163.231 87.2699 163.107 87.4318 162.942 87.5909C162.778 87.75 162.566 87.8821 162.308 87.9872C162.049 88.0923 161.739 88.1449 161.379 88.1449ZM161.656 87.1222C162.008 87.1222 162.309 87.0526 162.559 86.9134C162.812 86.7741 163.004 86.5923 163.134 86.3679C163.268 86.1406 163.335 85.8977 163.335 85.6392V84.7955C163.289 84.8409 163.201 84.8835 163.07 84.9233C162.942 84.9602 162.796 84.9929 162.631 85.0213C162.467 85.0469 162.306 85.071 162.15 85.0938C161.994 85.1136 161.863 85.1307 161.758 85.1449C161.511 85.1761 161.285 85.2287 161.08 85.3026C160.879 85.3764 160.717 85.483 160.594 85.6222C160.475 85.7585 160.415 85.9403 160.415 86.1676C160.415 86.483 160.532 86.7216 160.765 86.8835C160.998 87.0426 161.295 87.1222 161.656 87.1222ZM167.58 84.1136V88H166.306V81.4545H167.529V82.5199H167.61C167.76 82.1733 167.996 81.8949 168.317 81.6847C168.641 81.4744 169.049 81.3693 169.54 81.3693C169.986 81.3693 170.377 81.4631 170.712 81.6506C171.047 81.8352 171.307 82.1108 171.492 82.4773C171.676 82.8437 171.769 83.2969 171.769 83.8366V88H170.495V83.9901C170.495 83.5156 170.371 83.1449 170.124 82.8778C169.877 82.608 169.537 82.473 169.105 82.473C168.81 82.473 168.547 82.5369 168.317 82.6648C168.09 82.7926 167.909 82.9801 167.776 83.2273C167.645 83.4716 167.58 83.767 167.58 84.1136ZM176.299 88.1321C175.654 88.1321 175.098 87.9943 174.632 87.7188C174.169 87.4403 173.811 87.0497 173.559 86.5469C173.309 86.0412 173.184 85.4489 173.184 84.7699C173.184 84.0994 173.309 83.5085 173.559 82.9972C173.811 82.4858 174.164 82.0866 174.615 81.7997C175.07 81.5128 175.601 81.3693 176.209 81.3693C176.578 81.3693 176.936 81.4304 177.283 81.5526C177.63 81.6747 177.941 81.8665 178.216 82.1278C178.492 82.3892 178.709 82.7287 178.868 83.1463C179.027 83.5611 179.107 84.0653 179.107 84.6591V85.1108H173.904V84.1562H177.858C177.858 83.821 177.79 83.5241 177.654 83.2656C177.517 83.0043 177.326 82.7983 177.078 82.6477C176.834 82.4972 176.547 82.4219 176.218 82.4219C175.86 82.4219 175.547 82.5099 175.28 82.6861C175.016 82.8594 174.811 83.0866 174.667 83.3679C174.525 83.6463 174.453 83.9489 174.453 84.2756V85.0213C174.453 85.4588 174.53 85.831 174.684 86.1378C174.84 86.4446 175.057 86.679 175.336 86.8409C175.614 87 175.939 87.0795 176.311 87.0795C176.553 87.0795 176.773 87.0455 176.972 86.9773C177.171 86.9062 177.343 86.8011 177.488 86.6619C177.632 86.5227 177.743 86.3509 177.82 86.1463L179.026 86.3636C178.929 86.7187 178.756 87.0298 178.506 87.2969C178.259 87.5611 177.948 87.767 177.573 87.9148C177.201 88.0597 176.776 88.1321 176.299 88.1321ZM181.795 79.2727V88H180.521V79.2727H181.795ZM189.74 81.4545V82.4773H186.165V81.4545H189.74ZM187.124 79.8864H188.398V86.0781C188.398 86.3253 188.435 86.5114 188.509 86.6364C188.582 86.7585 188.678 86.8423 188.794 86.8878C188.913 86.9304 189.043 86.9517 189.182 86.9517C189.284 86.9517 189.374 86.9446 189.45 86.9304C189.527 86.9162 189.587 86.9048 189.629 86.8963L189.859 87.9489C189.786 87.9773 189.68 88.0057 189.544 88.0341C189.408 88.0653 189.237 88.0824 189.033 88.0852C188.697 88.0909 188.385 88.0312 188.095 87.9062C187.805 87.7812 187.571 87.5881 187.392 87.3267C187.213 87.0653 187.124 86.7372 187.124 86.3423V79.8864ZM191.15 88V81.4545H192.424V88H191.15ZM191.793 80.4446C191.571 80.4446 191.381 80.3707 191.222 80.223C191.066 80.0724 190.988 79.8935 190.988 79.6861C190.988 79.4759 191.066 79.2969 191.222 79.1491C191.381 78.9986 191.571 78.9233 191.793 78.9233C192.015 78.9233 192.203 78.9986 192.36 79.1491C192.519 79.2969 192.598 79.4759 192.598 79.6861C192.598 79.8935 192.519 80.0724 192.36 80.223C192.203 80.3707 192.015 80.4446 191.793 80.4446ZM197.193 81.4545V82.4773H193.618V81.4545H197.193ZM194.577 79.8864H195.851V86.0781C195.851 86.3253 195.888 86.5114 195.962 86.6364C196.036 86.7585 196.131 86.8423 196.247 86.8878C196.366 86.9304 196.496 86.9517 196.635 86.9517C196.737 86.9517 196.827 86.9446 196.903 86.9304C196.98 86.9162 197.04 86.9048 197.082 86.8963L197.312 87.9489C197.239 87.9773 197.134 88.0057 196.997 88.0341C196.861 88.0653 196.69 88.0824 196.486 88.0852C196.151 88.0909 195.838 88.0312 195.548 87.9062C195.259 87.7812 195.024 87.5881 194.845 87.3267C194.666 87.0653 194.577 86.7372 194.577 86.3423V79.8864ZM200.017 79.2727V88H198.743V79.2727H200.017ZM204.553 88.1321C203.908 88.1321 203.352 87.9943 202.886 87.7188C202.423 87.4403 202.065 87.0497 201.812 86.5469C201.562 86.0412 201.438 85.4489 201.438 84.7699C201.438 84.0994 201.562 83.5085 201.812 82.9972C202.065 82.4858 202.418 82.0866 202.869 81.7997C203.324 81.5128 203.855 81.3693 204.463 81.3693C204.832 81.3693 205.19 81.4304 205.537 81.5526C205.884 81.6747 206.195 81.8665 206.47 82.1278C206.746 82.3892 206.963 82.7287 207.122 83.1463C207.281 83.5611 207.361 84.0653 207.361 84.6591V85.1108H202.158V84.1562H206.112C206.112 83.821 206.044 83.5241 205.908 83.2656C205.771 83.0043 205.58 82.7983 205.332 82.6477C205.088 82.4972 204.801 82.4219 204.472 82.4219C204.114 82.4219 203.801 82.5099 203.534 82.6861C203.27 82.8594 203.065 83.0866 202.92 83.3679C202.778 83.6463 202.707 83.9489 202.707 84.2756V85.0213C202.707 85.4588 202.784 85.831 202.938 86.1378C203.094 86.4446 203.311 86.679 203.589 86.8409C203.868 87 204.193 87.0795 204.565 87.0795C204.807 87.0795 205.027 87.0455 205.226 86.9773C205.425 86.9062 205.597 86.8011 205.741 86.6619C205.886 86.5227 205.997 86.3509 206.074 86.1463L207.28 86.3636C207.183 86.7187 207.01 87.0298 206.76 87.2969C206.513 87.5611 206.202 87.767 205.827 87.9148C205.455 88.0597 205.03 88.1321 204.553 88.1321Z" fill="#111827"/>
<g clip-path="url(#clip2_3120_61376)">
<path d="M279.15 84.09C279.138 84.0788 279.129 84.0652 279.122 84.0502C279.115 84.0351 279.112 84.0189 279.112 84.0025C279.112 83.9861 279.115 83.9699 279.122 83.9548C279.129 83.9398 279.138 83.9262 279.15 83.915L283.78 79.28C283.85 79.2107 283.906 79.1282 283.944 79.0372C283.982 78.9462 284.001 78.8486 284.001 78.75C284.001 78.6514 283.982 78.5538 283.944 78.4628C283.906 78.3718 283.85 78.2893 283.78 78.22C283.639 78.0807 283.448 78.0027 283.25 78.0027C283.052 78.0027 282.861 78.0807 282.72 78.22L278.09 82.85C278.078 82.8621 278.064 82.8717 278.049 82.8783C278.033 82.8848 278.017 82.8882 278 82.8882C277.983 82.8882 277.967 82.8848 277.951 82.8783C277.936 82.8717 277.922 82.8621 277.91 82.85L273.28 78.22C273.139 78.0807 272.948 78.0027 272.75 78.0027C272.552 78.0027 272.361 78.0807 272.22 78.22C272.15 78.2893 272.094 78.3718 272.056 78.4628C272.018 78.5538 271.999 78.6514 271.999 78.75C271.999 78.8486 272.018 78.9462 272.056 79.0372C272.094 79.1282 272.15 79.2107 272.22 79.28L276.85 83.915C276.862 83.9262 276.871 83.9398 276.878 83.9548C276.885 83.9699 276.888 83.9861 276.888 84.0025C276.888 84.0189 276.885 84.0351 276.878 84.0502C276.871 84.0652 276.862 84.0788 276.85 84.09L272.22 88.72C272.15 88.7893 272.094 88.8718 272.056 88.9628C272.018 89.0538 271.999 89.1514 271.999 89.25C271.999 89.3486 272.018 89.4462 272.056 89.5372C272.094 89.6282 272.15 89.7107 272.22 89.78C272.361 89.9192 272.552 89.9973 272.75 89.9973C272.948 89.9973 273.139 89.9192 273.28 89.78L277.91 85.15C277.922 85.1379 277.936 85.1283 277.951 85.1217C277.967 85.1151 277.983 85.1117 278 85.1117C278.017 85.1117 278.033 85.1151 278.049 85.1217C278.064 85.1283 278.078 85.1379 278.09 85.15L282.72 89.78C282.861 89.9192 283.052 89.9973 283.25 89.9973C283.448 89.9973 283.639 89.9192 283.78 89.78C283.85 89.7107 283.906 89.6282 283.944 89.5372C283.982 89.4462 284.001 89.3486 284.001 89.25C284.001 89.1514 283.982 89.0538 283.944 88.9628C283.906 88.8718 283.85 88.7893 283.78 88.72L279.15 84.09Z" fill="#9CA3AF"/>
</g>
<path d="M151 108V107H150V108H151ZM284 108H285V107H284V108ZM284 440V441H285V440H284ZM151 440H150V441H151V440ZM150 108V110.964H152V108H150ZM150 116.893V122.821H152V116.893H150ZM150 128.75V134.679H152V128.75H150ZM150 140.607V146.536H152V140.607H150ZM150 152.464V158.393H152V152.464H150ZM150 164.321V170.25H152V164.321H150ZM150 176.179V182.107H152V176.179H150ZM150 188.036V193.964H152V188.036H150ZM150 199.893V205.821H152V199.893H150ZM150 211.75V217.679H152V211.75H150ZM150 223.607V229.536H152V223.607H150ZM150 235.464V241.393H152V235.464H150ZM150 247.321V253.25H152V247.321H150ZM150 259.179V265.107H152V259.179H150ZM150 271.036V276.964H152V271.036H150ZM150 282.893V288.821H152V282.893H150ZM150 294.75V300.679H152V294.75H150ZM150 306.607V312.536H152V306.607H150ZM150 318.464V324.393H152V318.464H150ZM150 330.321V336.25H152V330.321H150ZM150 342.179V348.107H152V342.179H150ZM150 354.036V359.964H152V354.036H150ZM150 365.893V371.821H152V365.893H150ZM150 377.75V383.679H152V377.75H150ZM150 389.607V395.536H152V389.607H150ZM150 401.464V407.393H152V401.464H150ZM150 413.321V419.25H152V413.321H150ZM150 425.178V431.107H152V425.178H150ZM150 437.036V440H152V437.036H150ZM151 441H154.023V439H151V441ZM160.068 441H166.114V439H160.068V441ZM172.159 441H178.205V439H172.159V441ZM184.25 441H190.295V439H184.25V441ZM196.341 441H202.386V439H196.341V441ZM208.432 441H214.477V439H208.432V441ZM220.523 441H226.568V439H220.523V441ZM232.614 441H238.659V439H232.614V441ZM244.705 441H250.75V439H244.705V441ZM256.795 441H262.841V439H256.795V441ZM268.886 441H274.932V439H268.886V441ZM280.977 441H284V439H280.977V441ZM285 440V437.036H283V440H285ZM285 431.107V425.179H283V431.107H285ZM285 419.25V413.321H283V419.25H285ZM285 407.393V401.464H283V407.393H285ZM285 395.536V389.607H283V395.536H285ZM285 383.679V377.75H283V383.679H285ZM285 371.821V365.893H283V371.821H285ZM285 359.964V354.036H283V359.964H285ZM285 348.107V342.179H283V348.107H285ZM285 336.25V330.321H283V336.25H285ZM285 324.393V318.464H283V324.393H285ZM285 312.536V306.607H283V312.536H285ZM285 300.679V294.75H283V300.679H285ZM285 288.821V282.893H283V288.821H285ZM285 276.964V271.036H283V276.964H285ZM285 265.107V259.179H283V265.107H285ZM285 253.25V247.321H283V253.25H285ZM285 241.393V235.464H283V241.393H285ZM285 229.536V223.607H283V229.536H285ZM285 217.679V211.75H283V217.679H285ZM285 205.821V199.893H283V205.821H285ZM285 193.964V188.036H283V193.964H285ZM285 182.107V176.179H283V182.107H285ZM285 170.25V164.321H283V170.25H285ZM285 158.393V152.464H283V158.393H285ZM285 146.536V140.607H283V146.536H285ZM285 134.679V128.75H283V134.679H285ZM285 122.822V116.893H283V122.822H285ZM285 110.964V108H283V110.964H285ZM284 107H280.977V109H284V107ZM274.932 107H268.886V109H274.932V107ZM262.841 107H256.795V109H262.841V107ZM250.75 107H244.705V109H250.75V107ZM238.659 107H232.614V109H238.659V107ZM226.568 107H220.523V109H226.568V107ZM214.477 107H208.432V109H214.477V107ZM202.386 107H196.341V109H202.386V107ZM190.295 107H184.25V109H190.295V107ZM178.205 107H172.159V109H178.205V107ZM166.114 107H160.068V109H166.114V107ZM154.023 107H151V109H154.023V107ZM151 108V106H149V108H151ZM284 108H286V106H284V108ZM284 440V442H286V440H284ZM151 440H149V442H151V440ZM149 108V110.964H153V108H149ZM149 116.893V122.821H153V116.893H149ZM149 128.75V134.679H153V128.75H149ZM149 140.607V146.536H153V140.607H149ZM149 152.464V158.393H153V152.464H149ZM149 164.321V170.25H153V164.321H149ZM149 176.179V182.107H153V176.179H149ZM149 188.036V193.964H153V188.036H149ZM149 199.893V205.821H153V199.893H149ZM149 211.75V217.679H153V211.75H149ZM149 223.607V229.536H153V223.607H149ZM149 235.464V241.393H153V235.464H149ZM149 247.321V253.25H153V247.321H149ZM149 259.179V265.107H153V259.179H149ZM149 271.036V276.964H153V271.036H149ZM149 282.893V288.821H153V282.893H149ZM149 294.75V300.679H153V294.75H149ZM149 306.607V312.536H153V306.607H149ZM149 318.464V324.393H153V318.464H149ZM149 330.321V336.25H153V330.321H149ZM149 342.179V348.107H153V342.179H149ZM149 354.036V359.964H153V354.036H149ZM149 365.893V371.821H153V365.893H149ZM149 377.75V383.679H153V377.75H149ZM149 389.607V395.536H153V389.607H149ZM149 401.464V407.393H153V401.464H149ZM149 413.321V419.25H153V413.321H149ZM149 425.178V431.107H153V425.178H149ZM149 437.036V440H153V437.036H149ZM151 442H154.023V438H151V442ZM160.068 442H166.114V438H160.068V442ZM172.159 442H178.205V438H172.159V442ZM184.25 442H190.295V438H184.25V442ZM196.341 442H202.386V438H196.341V442ZM208.432 442H214.477V438H208.432V442ZM220.523 442H226.568V438H220.523V442ZM232.614 442H238.659V438H232.614V442ZM244.705 442H250.75V438H244.705V442ZM256.795 442H262.841V438H256.795V442ZM268.886 442H274.932V438H268.886V442ZM280.977 442H284V438H280.977V442ZM286 440V437.036H282V440H286ZM286 431.107V425.179H282V431.107H286ZM286 419.25V413.321H282V419.25H286ZM286 407.393V401.464H282V407.393H286ZM286 395.536V389.607H282V395.536H286ZM286 383.679V377.75H282V383.679H286ZM286 371.821V365.893H282V371.821H286ZM286 359.964V354.036H282V359.964H286ZM286 348.107V342.179H282V348.107H286ZM286 336.25V330.321H282V336.25H286ZM286 324.393V318.464H282V324.393H286ZM286 312.536V306.607H282V312.536H286ZM286 300.679V294.75H282V300.679H286ZM286 288.821V282.893H282V288.821H286ZM286 276.964V271.036H282V276.964H286ZM286 265.107V259.179H282V265.107H286ZM286 253.25V247.321H282V253.25H286ZM286 241.393V235.464H282V241.393H286ZM286 229.536V223.607H282V229.536H286ZM286 217.679V211.75H282V217.679H286ZM286 205.821V199.893H282V205.821H286ZM286 193.964V188.036H282V193.964H286ZM286 182.107V176.179H282V182.107H286ZM286 170.25V164.321H282V170.25H286ZM286 158.393V152.464H282V158.393H286ZM286 146.536V140.607H282V146.536H286ZM286 134.679V128.75H282V134.679H286ZM286 122.822V116.893H282V122.822H286ZM286 110.964V108H282V110.964H286ZM284 106H280.977V110H284V106ZM274.932 106H268.886V110H274.932V106ZM262.841 106H256.795V110H262.841V106ZM250.75 106H244.705V110H250.75V106ZM238.659 106H232.614V110H238.659V106ZM226.568 106H220.523V110H226.568V106ZM214.477 106H208.432V110H214.477V106ZM202.386 106H196.341V110H202.386V106ZM190.295 106H184.25V110H190.295V106ZM178.205 106H172.159V110H178.205V106ZM166.114 106H160.068V110H166.114V106ZM154.023 106H151V110H154.023V106Z" fill="#E5E7EB"/>
</g>
</g>
<defs>
<filter id="filter0_dd_3120_61376" x="107" y="46" width="221" height="289" filterUnits="userSpaceOnUse" color-interpolation-filters="sRGB">
<feFlood flood-opacity="0" result="BackgroundImageFix"/>
<feColorMatrix in="SourceAlpha" type="matrix" values="0 0 0 0 0 0 0 0 0 0 0 0 0 0 0 0 0 0 127 0" result="hardAlpha"/>
<feMorphology radius="5" operator="erode" in="SourceAlpha" result="effect1_dropShadow_3120_61376"/>
<feOffset dy="10"/>
<feGaussianBlur stdDeviation="5"/>
<feColorMatrix type="matrix" values="0 0 0 0 0 0 0 0 0 0 0 0 0 0 0 0 0 0 0.04 0"/>
<feBlend mode="normal" in2="BackgroundImageFix" result="effect1_dropShadow_3120_61376"/>
<feColorMatrix in="SourceAlpha" type="matrix" values="0 0 0 0 0 0 0 0 0 0 0 0 0 0 0 0 0 0 127 0" result="hardAlpha"/>
<feMorphology radius="5" operator="erode" in="SourceAlpha" result="effect2_dropShadow_3120_61376"/>
<feOffset dy="20"/>
<feGaussianBlur stdDeviation="12.5"/>
<feColorMatrix type="matrix" values="0 0 0 0 0 0 0 0 0 0 0 0 0 0 0 0 0 0 0.1 0"/>
<feBlend mode="normal" in2="effect1_dropShadow_3120_61376" result="effect2_dropShadow_3120_61376"/>
<feBlend mode="normal" in="SourceGraphic" in2="effect2_dropShadow_3120_61376" result="shape"/>
</filter>
<clipPath id="clip0_3120_61376">
<rect width="221" height="249" fill="white" transform="translate(87 46)"/>
</clipPath>
<clipPath id="clip1_3120_61376">
<rect width="181" height="249" fill="white" transform="translate(127 46)"/>
</clipPath>
<clipPath id="clip2_3120_61376">
<rect width="12" height="12" fill="white" transform="translate(272 78)"/>
</clipPath>
</defs>
</svg>
