<svg width="320" height="320" viewBox="0 0 320 320" fill="none" xmlns="http://www.w3.org/2000/svg">
<g clip-path="url(#clip0_3623_61223)">
<line x1="45" y1="165.5" x2="291" y2="165.5" stroke="#D1D5DB"/>
<line y1="-0.5" x2="22.1924" y2="-0.5" transform="matrix(0.675906 0.736988 -0.675906 0.736988 135 133)" stroke="#D1D5DB"/>
<line y1="-0.5" x2="22.1924" y2="-0.5" transform="matrix(0.675906 -0.736988 -0.675906 -0.736988 135 165)" stroke="#D1D5DB"/>
<circle cx="52.5" cy="150.5" r="7.5" fill="white" stroke="#2563EB"/>
<path d="M52.767 148.182V154H51.8864V149.062H51.8523L50.4602 149.972V149.131L51.9119 148.182H52.767Z" fill="#2563EB"/>
<path d="M74.4716 150.074H73.5852C73.5511 149.884 73.4877 149.718 73.3949 149.574C73.3021 149.43 73.1884 149.308 73.054 149.207C72.9195 149.107 72.7689 149.031 72.6023 148.98C72.4375 148.929 72.2623 148.903 72.0767 148.903C71.7415 148.903 71.4413 148.988 71.1761 149.156C70.9129 149.325 70.7045 149.572 70.5511 149.898C70.3996 150.223 70.3239 150.621 70.3239 151.091C70.3239 151.564 70.3996 151.964 70.5511 152.29C70.7045 152.616 70.9138 152.862 71.179 153.028C71.4441 153.195 71.7424 153.278 72.0739 153.278C72.2576 153.278 72.4318 153.254 72.5966 153.205C72.7633 153.153 72.9138 153.079 73.0483 152.98C73.1828 152.882 73.2964 152.761 73.3892 152.619C73.4839 152.475 73.5492 152.311 73.5852 152.125L74.4716 152.128C74.4242 152.414 74.3324 152.677 74.196 152.918C74.0616 153.156 73.8883 153.363 73.6761 153.537C73.4659 153.709 73.2254 153.843 72.9545 153.938C72.6837 154.032 72.3883 154.08 72.0682 154.08C71.5644 154.08 71.1155 153.96 70.7216 153.722C70.3277 153.481 70.017 153.137 69.7898 152.69C69.5644 152.243 69.4517 151.71 69.4517 151.091C69.4517 150.47 69.5653 149.937 69.7926 149.491C70.0199 149.045 70.3305 148.702 70.7244 148.463C71.1184 148.223 71.5663 148.102 72.0682 148.102C72.3769 148.102 72.6648 148.147 72.9318 148.236C73.2008 148.323 73.4422 148.452 73.6562 148.622C73.8703 148.791 74.0473 148.997 74.1875 149.241C74.3277 149.484 74.4223 149.761 74.4716 150.074ZM77.2919 154.088C76.8828 154.088 76.5258 153.994 76.2209 153.807C75.916 153.619 75.6792 153.357 75.5107 153.02C75.3421 152.683 75.2578 152.289 75.2578 151.838C75.2578 151.385 75.3421 150.99 75.5107 150.651C75.6792 150.312 75.916 150.048 76.2209 149.861C76.5258 149.673 76.8828 149.58 77.2919 149.58C77.701 149.58 78.058 149.673 78.3629 149.861C78.6679 150.048 78.9046 150.312 79.0732 150.651C79.2417 150.99 79.326 151.385 79.326 151.838C79.326 152.289 79.2417 152.683 79.0732 153.02C78.9046 153.357 78.6679 153.619 78.3629 153.807C78.058 153.994 77.701 154.088 77.2919 154.088ZM77.2947 153.375C77.5599 153.375 77.7796 153.305 77.9538 153.165C78.1281 153.025 78.2569 152.838 78.3402 152.605C78.4254 152.372 78.468 152.116 78.468 151.835C78.468 151.557 78.4254 151.301 78.3402 151.068C78.2569 150.833 78.1281 150.645 77.9538 150.503C77.7796 150.361 77.5599 150.29 77.2947 150.29C77.0277 150.29 76.8061 150.361 76.63 150.503C76.4557 150.645 76.326 150.833 76.2408 151.068C76.1574 151.301 76.1158 151.557 76.1158 151.835C76.1158 152.116 76.1574 152.372 76.2408 152.605C76.326 152.838 76.4557 153.025 76.63 153.165C76.8061 153.305 77.0277 153.375 77.2947 153.375ZM81.1236 151.409V154H80.2741V149.636H81.0895V150.347H81.1435C81.2438 150.116 81.401 149.93 81.6151 149.79C81.831 149.65 82.1027 149.58 82.4304 149.58C82.7277 149.58 82.9882 149.642 83.2116 149.767C83.4351 149.89 83.6084 150.074 83.7315 150.318C83.8546 150.562 83.9162 150.865 83.9162 151.224V154H83.0668V151.327C83.0668 151.01 82.9844 150.763 82.8196 150.585C82.6548 150.405 82.4285 150.315 82.1406 150.315C81.9437 150.315 81.7685 150.358 81.6151 150.443C81.4635 150.528 81.3433 150.653 81.2543 150.818C81.1671 150.981 81.1236 151.178 81.1236 151.409ZM85.9048 151.409V154H85.0554V149.636H85.8707V150.347H85.9247C86.0251 150.116 86.1823 149.93 86.3963 149.79C86.6122 149.65 86.884 149.58 87.2116 149.58C87.509 149.58 87.7694 149.642 87.9929 149.767C88.2164 149.89 88.3897 150.074 88.5128 150.318C88.6359 150.562 88.6974 150.865 88.6974 151.224V154H87.848V151.327C87.848 151.01 87.7656 150.763 87.6009 150.585C87.4361 150.405 87.2098 150.315 86.9219 150.315C86.7249 150.315 86.5497 150.358 86.3963 150.443C86.2448 150.528 86.1245 150.653 86.0355 150.818C85.9484 150.981 85.9048 151.178 85.9048 151.409ZM91.7173 154.088C91.2874 154.088 90.9171 153.996 90.6065 153.812C90.2978 153.627 90.0592 153.366 89.8906 153.031C89.724 152.694 89.6406 152.299 89.6406 151.847C89.6406 151.4 89.724 151.006 89.8906 150.665C90.0592 150.324 90.294 150.058 90.5952 149.866C90.8982 149.675 91.2524 149.58 91.6577 149.58C91.9039 149.58 92.1425 149.62 92.3736 149.702C92.6046 149.783 92.812 149.911 92.9957 150.085C93.1795 150.259 93.3243 150.486 93.4304 150.764C93.5365 151.041 93.5895 151.377 93.5895 151.773V152.074H90.1207V151.438H92.7571C92.7571 151.214 92.7116 151.016 92.6207 150.844C92.5298 150.67 92.402 150.532 92.2372 150.432C92.0743 150.331 91.883 150.281 91.6634 150.281C91.4247 150.281 91.2164 150.34 91.0384 150.457C90.8622 150.573 90.7259 150.724 90.6293 150.912C90.5346 151.098 90.4872 151.299 90.4872 151.517V152.014C90.4872 152.306 90.5384 152.554 90.6406 152.759C90.7448 152.963 90.8897 153.119 91.0753 153.227C91.2609 153.333 91.4777 153.386 91.7259 153.386C91.8868 153.386 92.0336 153.364 92.1662 153.318C92.2988 153.271 92.4134 153.201 92.5099 153.108C92.6065 153.015 92.6804 152.901 92.7315 152.764L93.5355 152.909C93.4711 153.146 93.3556 153.353 93.1889 153.531C93.0241 153.707 92.8168 153.845 92.5668 153.943C92.3187 154.04 92.0355 154.088 91.7173 154.088ZM96.37 154.088C95.9477 154.088 95.584 153.992 95.2791 153.801C94.9761 153.608 94.7431 153.342 94.5803 153.003C94.4174 152.664 94.3359 152.276 94.3359 151.838C94.3359 151.395 94.4193 151.004 94.5859 150.665C94.7526 150.324 94.9875 150.058 95.2905 149.866C95.5935 149.675 95.9505 149.58 96.3615 149.58C96.6929 149.58 96.9884 149.641 97.2479 149.764C97.5073 149.885 97.7166 150.056 97.8757 150.276C98.0367 150.495 98.1323 150.752 98.1626 151.045H97.3359C97.2905 150.841 97.1863 150.665 97.0234 150.517C96.8625 150.369 96.6465 150.295 96.3757 150.295C96.139 150.295 95.9316 150.358 95.7536 150.483C95.5774 150.606 95.4401 150.782 95.3416 151.011C95.2431 151.239 95.1939 151.508 95.1939 151.818C95.1939 152.136 95.2422 152.411 95.3388 152.642C95.4354 152.873 95.5717 153.052 95.7479 153.179C95.9259 153.306 96.1352 153.369 96.3757 153.369C96.5367 153.369 96.6825 153.34 96.8132 153.281C96.9458 153.221 97.0566 153.134 97.1456 153.023C97.2365 152.911 97.3 152.777 97.3359 152.619H98.1626C98.1323 152.902 98.0405 153.153 97.8871 153.375C97.7337 153.597 97.5282 153.771 97.2706 153.898C97.0149 154.025 96.7147 154.088 96.37 154.088ZM101.108 149.636V150.318H98.7244V149.636H101.108ZM99.3636 148.591H100.213V152.719C100.213 152.884 100.238 153.008 100.287 153.091C100.336 153.172 100.4 153.228 100.477 153.259C100.557 153.287 100.643 153.301 100.736 153.301C100.804 153.301 100.864 153.296 100.915 153.287C100.966 153.277 101.006 153.27 101.034 153.264L101.188 153.966C101.138 153.985 101.068 154.004 100.977 154.023C100.886 154.044 100.773 154.055 100.636 154.057C100.413 154.061 100.205 154.021 100.011 153.938C99.8182 153.854 99.6619 153.725 99.5426 153.551C99.4233 153.377 99.3636 153.158 99.3636 152.895V148.591ZM107.435 150.702L106.665 150.838C106.633 150.74 106.581 150.646 106.511 150.557C106.443 150.468 106.35 150.395 106.233 150.338C106.116 150.281 105.969 150.253 105.793 150.253C105.552 150.253 105.351 150.307 105.19 150.415C105.029 150.521 104.949 150.658 104.949 150.827C104.949 150.973 105.003 151.09 105.111 151.179C105.219 151.268 105.393 151.341 105.634 151.398L106.327 151.557C106.728 151.65 107.027 151.793 107.224 151.986C107.421 152.179 107.52 152.43 107.52 152.739C107.52 153 107.444 153.233 107.293 153.438C107.143 153.64 106.934 153.799 106.665 153.915C106.398 154.03 106.088 154.088 105.736 154.088C105.247 154.088 104.848 153.984 104.54 153.776C104.231 153.565 104.042 153.267 103.972 152.881L104.793 152.756C104.844 152.97 104.949 153.132 105.108 153.241C105.267 153.349 105.474 153.403 105.73 153.403C106.009 153.403 106.231 153.346 106.398 153.23C106.564 153.113 106.648 152.97 106.648 152.801C106.648 152.665 106.597 152.55 106.494 152.457C106.394 152.365 106.24 152.295 106.031 152.247L105.293 152.085C104.885 151.992 104.584 151.845 104.389 151.642C104.196 151.439 104.099 151.183 104.099 150.872C104.099 150.615 104.171 150.389 104.315 150.196C104.459 150.003 104.658 149.852 104.912 149.744C105.166 149.634 105.456 149.58 105.784 149.58C106.256 149.58 106.627 149.682 106.898 149.886C107.169 150.089 107.348 150.361 107.435 150.702ZM110.292 154.088C109.883 154.088 109.526 153.994 109.221 153.807C108.916 153.619 108.679 153.357 108.511 153.02C108.342 152.683 108.258 152.289 108.258 151.838C108.258 151.385 108.342 150.99 108.511 150.651C108.679 150.312 108.916 150.048 109.221 149.861C109.526 149.673 109.883 149.58 110.292 149.58C110.701 149.58 111.058 149.673 111.363 149.861C111.668 150.048 111.905 150.312 112.073 150.651C112.242 150.99 112.326 151.385 112.326 151.838C112.326 152.289 112.242 152.683 112.073 153.02C111.905 153.357 111.668 153.619 111.363 153.807C111.058 153.994 110.701 154.088 110.292 154.088ZM110.295 153.375C110.56 153.375 110.78 153.305 110.954 153.165C111.128 153.025 111.257 152.838 111.34 152.605C111.425 152.372 111.468 152.116 111.468 151.835C111.468 151.557 111.425 151.301 111.34 151.068C111.257 150.833 111.128 150.645 110.954 150.503C110.78 150.361 110.56 150.29 110.295 150.29C110.028 150.29 109.806 150.361 109.63 150.503C109.456 150.645 109.326 150.833 109.241 151.068C109.157 151.301 109.116 151.557 109.116 151.835C109.116 152.116 109.157 152.372 109.241 152.605C109.326 152.838 109.456 153.025 109.63 153.165C109.806 153.305 110.028 153.375 110.295 153.375ZM116.038 152.19V149.636H116.891V154H116.055V153.244H116.01C115.91 153.477 115.749 153.671 115.527 153.827C115.307 153.98 115.034 154.057 114.706 154.057C114.426 154.057 114.178 153.995 113.962 153.872C113.748 153.747 113.579 153.562 113.456 153.318C113.335 153.074 113.274 152.772 113.274 152.412V149.636H114.124V152.31C114.124 152.607 114.206 152.844 114.371 153.02C114.536 153.196 114.75 153.284 115.013 153.284C115.172 153.284 115.33 153.244 115.487 153.165C115.646 153.085 115.778 152.965 115.882 152.804C115.988 152.643 116.04 152.438 116.038 152.19ZM118.032 154V149.636H118.853V150.33H118.898C118.978 150.095 119.118 149.91 119.319 149.776C119.522 149.639 119.751 149.571 120.006 149.571C120.059 149.571 120.122 149.573 120.194 149.577C120.268 149.58 120.326 149.585 120.367 149.591V150.403C120.333 150.394 120.272 150.384 120.185 150.372C120.098 150.359 120.011 150.352 119.924 150.352C119.723 150.352 119.544 150.395 119.387 150.48C119.232 150.563 119.109 150.68 119.018 150.83C118.927 150.977 118.881 151.146 118.881 151.335V154H118.032ZM122.784 154.088C122.362 154.088 121.998 153.992 121.693 153.801C121.39 153.608 121.157 153.342 120.994 153.003C120.831 152.664 120.75 152.276 120.75 151.838C120.75 151.395 120.833 151.004 121 150.665C121.167 150.324 121.402 150.058 121.705 149.866C122.008 149.675 122.365 149.58 122.776 149.58C123.107 149.58 123.402 149.641 123.662 149.764C123.921 149.885 124.131 150.056 124.29 150.276C124.451 150.495 124.546 150.752 124.577 151.045H123.75C123.705 150.841 123.6 150.665 123.438 150.517C123.277 150.369 123.061 150.295 122.79 150.295C122.553 150.295 122.346 150.358 122.168 150.483C121.991 150.606 121.854 150.782 121.756 151.011C121.657 151.239 121.608 151.508 121.608 151.818C121.608 152.136 121.656 152.411 121.753 152.642C121.849 152.873 121.986 153.052 122.162 153.179C122.34 153.306 122.549 153.369 122.79 153.369C122.951 153.369 123.097 153.34 123.227 153.281C123.36 153.221 123.471 153.134 123.56 153.023C123.651 152.911 123.714 152.777 123.75 152.619H124.577C124.546 152.902 124.455 153.153 124.301 153.375C124.148 153.597 123.942 153.771 123.685 153.898C123.429 154.025 123.129 154.088 122.784 154.088ZM127.366 154.088C126.936 154.088 126.566 153.996 126.255 153.812C125.946 153.627 125.708 153.366 125.539 153.031C125.372 152.694 125.289 152.299 125.289 151.847C125.289 151.4 125.372 151.006 125.539 150.665C125.708 150.324 125.942 150.058 126.244 149.866C126.547 149.675 126.901 149.58 127.306 149.58C127.552 149.58 127.791 149.62 128.022 149.702C128.253 149.783 128.46 149.911 128.644 150.085C128.828 150.259 128.973 150.486 129.079 150.764C129.185 151.041 129.238 151.377 129.238 151.773V152.074H125.769V151.438H128.406C128.406 151.214 128.36 151.016 128.269 150.844C128.178 150.67 128.05 150.532 127.886 150.432C127.723 150.331 127.531 150.281 127.312 150.281C127.073 150.281 126.865 150.34 126.687 150.457C126.511 150.573 126.374 150.724 126.278 150.912C126.183 151.098 126.136 151.299 126.136 151.517V152.014C126.136 152.306 126.187 152.554 126.289 152.759C126.393 152.963 126.538 153.119 126.724 153.227C126.909 153.333 127.126 153.386 127.374 153.386C127.535 153.386 127.682 153.364 127.815 153.318C127.947 153.271 128.062 153.201 128.158 153.108C128.255 153.015 128.329 152.901 128.38 152.764L129.184 152.909C129.12 153.146 129.004 153.353 128.837 153.531C128.673 153.707 128.465 153.845 128.215 153.943C127.967 154.04 127.684 154.088 127.366 154.088Z" fill="#2563EB"/>
<circle cx="167.5" cy="150.5" r="7.5" fill="white" stroke="#D1D5DB"/>
<path d="M165.56 154V153.364L167.528 151.324C167.739 151.102 167.912 150.908 168.048 150.741C168.187 150.573 168.29 150.413 168.358 150.261C168.426 150.11 168.46 149.949 168.46 149.778C168.46 149.585 168.415 149.419 168.324 149.278C168.233 149.136 168.109 149.027 167.952 148.952C167.795 148.874 167.617 148.835 167.42 148.835C167.212 148.835 167.03 148.878 166.875 148.963C166.72 149.048 166.6 149.169 166.517 149.324C166.434 149.479 166.392 149.661 166.392 149.869H165.554C165.554 149.515 165.635 149.205 165.798 148.94C165.961 148.675 166.185 148.47 166.469 148.324C166.753 148.176 167.076 148.102 167.438 148.102C167.803 148.102 168.125 148.175 168.403 148.321C168.684 148.465 168.902 148.662 169.06 148.912C169.217 149.16 169.295 149.44 169.295 149.753C169.295 149.969 169.255 150.18 169.173 150.386C169.094 150.593 168.955 150.823 168.756 151.077C168.557 151.329 168.28 151.634 167.926 151.994L166.77 153.205V153.247H169.389V154H165.56Z" fill="#6B7280"/>
<path d="M189.472 150.074H188.585C188.551 149.884 188.488 149.718 188.395 149.574C188.302 149.43 188.188 149.308 188.054 149.207C187.92 149.107 187.769 149.031 187.602 148.98C187.438 148.929 187.262 148.903 187.077 148.903C186.741 148.903 186.441 148.988 186.176 149.156C185.913 149.325 185.705 149.572 185.551 149.898C185.4 150.223 185.324 150.621 185.324 151.091C185.324 151.564 185.4 151.964 185.551 152.29C185.705 152.616 185.914 152.862 186.179 153.028C186.444 153.195 186.742 153.278 187.074 153.278C187.258 153.278 187.432 153.254 187.597 153.205C187.763 153.153 187.914 153.079 188.048 152.98C188.183 152.882 188.296 152.761 188.389 152.619C188.484 152.475 188.549 152.311 188.585 152.125L189.472 152.128C189.424 152.414 189.332 152.677 189.196 152.918C189.062 153.156 188.888 153.363 188.676 153.537C188.466 153.709 188.225 153.843 187.955 153.938C187.684 154.032 187.388 154.08 187.068 154.08C186.564 154.08 186.116 153.96 185.722 153.722C185.328 153.481 185.017 153.137 184.79 152.69C184.564 152.243 184.452 151.71 184.452 151.091C184.452 150.47 184.565 149.937 184.793 149.491C185.02 149.045 185.33 148.702 185.724 148.463C186.118 148.223 186.566 148.102 187.068 148.102C187.377 148.102 187.665 148.147 187.932 148.236C188.201 148.323 188.442 148.452 188.656 148.622C188.87 148.791 189.047 148.997 189.188 149.241C189.328 149.484 189.422 149.761 189.472 150.074ZM192.292 154.088C191.883 154.088 191.526 153.994 191.221 153.807C190.916 153.619 190.679 153.357 190.511 153.02C190.342 152.683 190.258 152.289 190.258 151.838C190.258 151.385 190.342 150.99 190.511 150.651C190.679 150.312 190.916 150.048 191.221 149.861C191.526 149.673 191.883 149.58 192.292 149.58C192.701 149.58 193.058 149.673 193.363 149.861C193.668 150.048 193.905 150.312 194.073 150.651C194.242 150.99 194.326 151.385 194.326 151.838C194.326 152.289 194.242 152.683 194.073 153.02C193.905 153.357 193.668 153.619 193.363 153.807C193.058 153.994 192.701 154.088 192.292 154.088ZM192.295 153.375C192.56 153.375 192.78 153.305 192.954 153.165C193.128 153.025 193.257 152.838 193.34 152.605C193.425 152.372 193.468 152.116 193.468 151.835C193.468 151.557 193.425 151.301 193.34 151.068C193.257 150.833 193.128 150.645 192.954 150.503C192.78 150.361 192.56 150.29 192.295 150.29C192.028 150.29 191.806 150.361 191.63 150.503C191.456 150.645 191.326 150.833 191.241 151.068C191.157 151.301 191.116 151.557 191.116 151.835C191.116 152.116 191.157 152.372 191.241 152.605C191.326 152.838 191.456 153.025 191.63 153.165C191.806 153.305 192.028 153.375 192.295 153.375ZM196.124 151.409V154H195.274V149.636H196.089V150.347H196.143C196.244 150.116 196.401 149.93 196.615 149.79C196.831 149.65 197.103 149.58 197.43 149.58C197.728 149.58 197.988 149.642 198.212 149.767C198.435 149.89 198.608 150.074 198.732 150.318C198.855 150.562 198.916 150.865 198.916 151.224V154H198.067V151.327C198.067 151.01 197.984 150.763 197.82 150.585C197.655 150.405 197.429 150.315 197.141 150.315C196.944 150.315 196.768 150.358 196.615 150.443C196.464 150.528 196.343 150.653 196.254 150.818C196.167 150.981 196.124 151.178 196.124 151.409ZM200.905 151.409V154H200.055V149.636H200.871V150.347H200.925C201.025 150.116 201.182 149.93 201.396 149.79C201.612 149.65 201.884 149.58 202.212 149.58C202.509 149.58 202.769 149.642 202.993 149.767C203.216 149.89 203.39 150.074 203.513 150.318C203.636 150.562 203.697 150.865 203.697 151.224V154H202.848V151.327C202.848 151.01 202.766 150.763 202.601 150.585C202.436 150.405 202.21 150.315 201.922 150.315C201.725 150.315 201.55 150.358 201.396 150.443C201.245 150.528 201.125 150.653 201.036 150.818C200.948 150.981 200.905 151.178 200.905 151.409ZM206.717 154.088C206.287 154.088 205.917 153.996 205.607 153.812C205.298 153.627 205.059 153.366 204.891 153.031C204.724 152.694 204.641 152.299 204.641 151.847C204.641 151.4 204.724 151.006 204.891 150.665C205.059 150.324 205.294 150.058 205.595 149.866C205.898 149.675 206.252 149.58 206.658 149.58C206.904 149.58 207.143 149.62 207.374 149.702C207.605 149.783 207.812 149.911 207.996 150.085C208.179 150.259 208.324 150.486 208.43 150.764C208.536 151.041 208.589 151.377 208.589 151.773V152.074H205.121V151.438H207.757C207.757 151.214 207.712 151.016 207.621 150.844C207.53 150.67 207.402 150.532 207.237 150.432C207.074 150.331 206.883 150.281 206.663 150.281C206.425 150.281 206.216 150.34 206.038 150.457C205.862 150.573 205.726 150.724 205.629 150.912C205.535 151.098 205.487 151.299 205.487 151.517V152.014C205.487 152.306 205.538 152.554 205.641 152.759C205.745 152.963 205.89 153.119 206.075 153.227C206.261 153.333 206.478 153.386 206.726 153.386C206.887 153.386 207.034 153.364 207.166 153.318C207.299 153.271 207.413 153.201 207.51 153.108C207.607 153.015 207.68 152.901 207.732 152.764L208.536 152.909C208.471 153.146 208.356 153.353 208.189 153.531C208.024 153.707 207.817 153.845 207.567 153.943C207.319 154.04 207.036 154.088 206.717 154.088ZM211.37 154.088C210.948 154.088 210.584 153.992 210.279 153.801C209.976 153.608 209.743 153.342 209.58 153.003C209.417 152.664 209.336 152.276 209.336 151.838C209.336 151.395 209.419 151.004 209.586 150.665C209.753 150.324 209.987 150.058 210.29 149.866C210.594 149.675 210.951 149.58 211.362 149.58C211.693 149.58 211.988 149.641 212.248 149.764C212.507 149.885 212.717 150.056 212.876 150.276C213.037 150.495 213.132 150.752 213.163 151.045H212.336C212.29 150.841 212.186 150.665 212.023 150.517C211.862 150.369 211.647 150.295 211.376 150.295C211.139 150.295 210.932 150.358 210.754 150.483C210.577 150.606 210.44 150.782 210.342 151.011C210.243 151.239 210.194 151.508 210.194 151.818C210.194 152.136 210.242 152.411 210.339 152.642C210.435 152.873 210.572 153.052 210.748 153.179C210.926 153.306 211.135 153.369 211.376 153.369C211.537 153.369 211.683 153.34 211.813 153.281C211.946 153.221 212.057 153.134 212.146 153.023C212.237 152.911 212.3 152.777 212.336 152.619H213.163C213.132 152.902 213.04 153.153 212.887 153.375C212.734 153.597 212.528 153.771 212.271 153.898C212.015 154.025 211.715 154.088 211.37 154.088ZM216.108 149.636V150.318H213.724V149.636H216.108ZM214.364 148.591H215.213V152.719C215.213 152.884 215.238 153.008 215.287 153.091C215.336 153.172 215.4 153.228 215.477 153.259C215.557 153.287 215.643 153.301 215.736 153.301C215.804 153.301 215.864 153.296 215.915 153.287C215.966 153.277 216.006 153.27 216.034 153.264L216.188 153.966C216.138 153.985 216.068 154.004 215.977 154.023C215.886 154.044 215.773 154.055 215.636 154.057C215.413 154.061 215.205 154.021 215.011 153.938C214.818 153.854 214.662 153.725 214.543 153.551C214.423 153.377 214.364 153.158 214.364 152.895V148.591ZM220.798 154.085C220.446 154.085 220.132 153.995 219.855 153.815C219.58 153.634 219.365 153.375 219.207 153.04C219.052 152.703 218.974 152.298 218.974 151.827C218.974 151.355 219.053 150.952 219.21 150.616C219.369 150.281 219.587 150.025 219.864 149.847C220.14 149.669 220.454 149.58 220.804 149.58C221.075 149.58 221.293 149.625 221.457 149.716C221.624 149.805 221.753 149.909 221.844 150.028C221.937 150.148 222.009 150.253 222.06 150.344H222.111V148.182H222.96V154H222.131V153.321H222.06C222.009 153.414 221.935 153.52 221.838 153.639C221.743 153.759 221.613 153.863 221.446 153.952C221.279 154.041 221.063 154.085 220.798 154.085ZM220.986 153.361C221.23 153.361 221.437 153.296 221.605 153.168C221.776 153.037 221.904 152.856 221.991 152.625C222.08 152.394 222.125 152.125 222.125 151.818C222.125 151.515 222.081 151.25 221.994 151.023C221.907 150.795 221.779 150.618 221.611 150.491C221.442 150.365 221.234 150.301 220.986 150.301C220.73 150.301 220.517 150.367 220.347 150.5C220.176 150.633 220.047 150.813 219.96 151.043C219.875 151.272 219.832 151.53 219.832 151.818C219.832 152.11 219.876 152.372 219.963 152.605C220.05 152.838 220.179 153.023 220.349 153.159C220.522 153.294 220.734 153.361 220.986 153.361ZM226.053 154.088C225.623 154.088 225.253 153.996 224.942 153.812C224.634 153.627 224.395 153.366 224.227 153.031C224.06 152.694 223.977 152.299 223.977 151.847C223.977 151.4 224.06 151.006 224.227 150.665C224.395 150.324 224.63 150.058 224.931 149.866C225.234 149.675 225.588 149.58 225.994 149.58C226.24 149.58 226.478 149.62 226.71 149.702C226.941 149.783 227.148 149.911 227.332 150.085C227.515 150.259 227.66 150.486 227.766 150.764C227.872 151.041 227.925 151.377 227.925 151.773V152.074H224.457V151.438H227.093C227.093 151.214 227.048 151.016 226.957 150.844C226.866 150.67 226.738 150.532 226.573 150.432C226.41 150.331 226.219 150.281 225.999 150.281C225.761 150.281 225.552 150.34 225.374 150.457C225.198 150.573 225.062 150.724 224.965 150.912C224.871 151.098 224.823 151.299 224.823 151.517V152.014C224.823 152.306 224.874 152.554 224.977 152.759C225.081 152.963 225.226 153.119 225.411 153.227C225.597 153.333 225.814 153.386 226.062 153.386C226.223 153.386 226.37 153.364 226.502 153.318C226.635 153.271 226.749 153.201 226.846 153.108C226.942 153.015 227.016 152.901 227.067 152.764L227.871 152.909C227.807 153.146 227.692 153.353 227.525 153.531C227.36 153.707 227.153 153.845 226.903 153.943C226.655 154.04 226.371 154.088 226.053 154.088ZM232.138 150.702L231.368 150.838C231.336 150.74 231.285 150.646 231.214 150.557C231.146 150.468 231.054 150.395 230.936 150.338C230.819 150.281 230.672 150.253 230.496 150.253C230.255 150.253 230.054 150.307 229.893 150.415C229.732 150.521 229.652 150.658 229.652 150.827C229.652 150.973 229.706 151.09 229.814 151.179C229.922 151.268 230.096 151.341 230.337 151.398L231.03 151.557C231.431 151.65 231.731 151.793 231.928 151.986C232.125 152.179 232.223 152.43 232.223 152.739C232.223 153 232.147 153.233 231.996 153.438C231.846 153.64 231.637 153.799 231.368 153.915C231.101 154.03 230.791 154.088 230.439 154.088C229.95 154.088 229.552 153.984 229.243 153.776C228.934 153.565 228.745 153.267 228.675 152.881L229.496 152.756C229.547 152.97 229.652 153.132 229.811 153.241C229.97 153.349 230.178 153.403 230.433 153.403C230.712 153.403 230.934 153.346 231.101 153.23C231.268 153.113 231.351 152.97 231.351 152.801C231.351 152.665 231.3 152.55 231.197 152.457C231.097 152.365 230.943 152.295 230.734 152.247L229.996 152.085C229.589 151.992 229.287 151.845 229.092 151.642C228.899 151.439 228.803 151.183 228.803 150.872C228.803 150.615 228.875 150.389 229.018 150.196C229.162 150.003 229.361 149.852 229.615 149.744C229.869 149.634 230.16 149.58 230.487 149.58C230.959 149.58 231.33 149.682 231.601 149.886C231.872 150.089 232.051 150.361 232.138 150.702ZM235.194 149.636V150.318H232.81V149.636H235.194ZM233.45 148.591H234.299V152.719C234.299 152.884 234.324 153.008 234.373 153.091C234.422 153.172 234.486 153.228 234.563 153.259C234.643 153.287 234.729 153.301 234.822 153.301C234.89 153.301 234.95 153.296 235.001 153.287C235.052 153.277 235.092 153.27 235.12 153.264L235.273 153.966C235.224 153.985 235.154 154.004 235.063 154.023C234.972 154.044 234.859 154.055 234.722 154.057C234.499 154.061 234.29 154.021 234.097 153.938C233.904 153.854 233.748 153.725 233.629 153.551C233.509 153.377 233.45 153.158 233.45 152.895V148.591ZM236.134 154V149.636H236.983V154H236.134ZM236.562 148.963C236.415 148.963 236.288 148.914 236.182 148.815C236.078 148.715 236.026 148.596 236.026 148.457C236.026 148.317 236.078 148.198 236.182 148.099C236.288 147.999 236.415 147.949 236.562 147.949C236.71 147.949 236.836 147.999 236.94 148.099C237.046 148.198 237.099 148.317 237.099 148.457C237.099 148.596 237.046 148.715 236.94 148.815C236.836 148.914 236.71 148.963 236.562 148.963ZM238.975 151.409V154H238.126V149.636H238.941V150.347H238.995C239.095 150.116 239.253 149.93 239.467 149.79C239.683 149.65 239.954 149.58 240.282 149.58C240.579 149.58 240.84 149.642 241.063 149.767C241.287 149.89 241.46 150.074 241.583 150.318C241.706 150.562 241.768 150.865 241.768 151.224V154H240.918V151.327C240.918 151.01 240.836 150.763 240.671 150.585C240.506 150.405 240.28 150.315 239.992 150.315C239.795 150.315 239.62 150.358 239.467 150.443C239.315 150.528 239.195 150.653 239.106 150.818C239.019 150.981 238.975 151.178 238.975 151.409ZM244.177 154.097C243.9 154.097 243.65 154.045 243.427 153.943C243.203 153.839 243.026 153.688 242.896 153.491C242.767 153.295 242.702 153.053 242.702 152.767C242.702 152.521 242.75 152.318 242.844 152.159C242.939 152 243.067 151.874 243.228 151.781C243.389 151.688 243.569 151.618 243.768 151.571C243.967 151.524 244.169 151.488 244.376 151.463C244.637 151.433 244.849 151.408 245.012 151.389C245.175 151.368 245.293 151.335 245.367 151.29C245.441 151.244 245.478 151.17 245.478 151.068V151.048C245.478 150.8 245.408 150.608 245.268 150.472C245.129 150.335 244.923 150.267 244.648 150.267C244.362 150.267 244.137 150.33 243.972 150.457C243.809 150.582 243.697 150.722 243.634 150.875L242.836 150.693C242.931 150.428 243.069 150.214 243.251 150.051C243.434 149.886 243.646 149.767 243.884 149.693C244.123 149.617 244.374 149.58 244.637 149.58C244.811 149.58 244.996 149.6 245.191 149.642C245.388 149.682 245.572 149.756 245.742 149.864C245.915 149.972 246.056 150.126 246.165 150.327C246.275 150.526 246.33 150.784 246.33 151.102V154H245.501V153.403H245.467C245.412 153.513 245.329 153.621 245.219 153.727C245.11 153.833 244.969 153.921 244.796 153.991C244.624 154.062 244.417 154.097 244.177 154.097ZM244.362 153.415C244.596 153.415 244.797 153.368 244.964 153.276C245.132 153.183 245.26 153.062 245.347 152.912C245.436 152.76 245.481 152.598 245.481 152.426V151.864C245.451 151.894 245.392 151.922 245.305 151.949C245.219 151.973 245.122 151.995 245.012 152.014C244.902 152.031 244.795 152.047 244.691 152.062C244.587 152.076 244.5 152.087 244.43 152.097C244.265 152.117 244.114 152.152 243.978 152.202C243.844 152.251 243.736 152.322 243.654 152.415C243.575 152.506 243.535 152.627 243.535 152.778C243.535 152.989 243.612 153.148 243.768 153.256C243.923 153.362 244.121 153.415 244.362 153.415ZM249.499 149.636V150.318H247.115V149.636H249.499ZM247.754 148.591H248.604V152.719C248.604 152.884 248.628 153.008 248.678 153.091C248.727 153.172 248.79 153.228 248.868 153.259C248.947 153.287 249.034 153.301 249.126 153.301C249.195 153.301 249.254 153.296 249.305 153.287C249.357 153.277 249.396 153.27 249.425 153.264L249.578 153.966C249.529 153.985 249.459 154.004 249.368 154.023C249.277 154.044 249.163 154.055 249.027 154.057C248.804 154.061 248.595 154.021 248.402 153.938C248.209 153.854 248.053 153.725 247.933 153.551C247.814 153.377 247.754 153.158 247.754 152.895V148.591ZM250.438 154V149.636H251.288V154H250.438ZM250.867 148.963C250.719 148.963 250.593 148.914 250.487 148.815C250.382 148.715 250.33 148.596 250.33 148.457C250.33 148.317 250.382 148.198 250.487 148.099C250.593 147.999 250.719 147.949 250.867 147.949C251.015 147.949 251.141 147.999 251.245 148.099C251.351 148.198 251.404 148.317 251.404 148.457C251.404 148.596 251.351 148.715 251.245 148.815C251.141 148.914 251.015 148.963 250.867 148.963ZM254.268 154.088C253.859 154.088 253.502 153.994 253.197 153.807C252.893 153.619 252.656 153.357 252.487 153.02C252.319 152.683 252.234 152.289 252.234 151.838C252.234 151.385 252.319 150.99 252.487 150.651C252.656 150.312 252.893 150.048 253.197 149.861C253.502 149.673 253.859 149.58 254.268 149.58C254.678 149.58 255.035 149.673 255.339 149.861C255.644 150.048 255.881 150.312 256.05 150.651C256.218 150.99 256.303 151.385 256.303 151.838C256.303 152.289 256.218 152.683 256.05 153.02C255.881 153.357 255.644 153.619 255.339 153.807C255.035 153.994 254.678 154.088 254.268 154.088ZM254.271 153.375C254.536 153.375 254.756 153.305 254.93 153.165C255.105 153.025 255.233 152.838 255.317 152.605C255.402 152.372 255.445 152.116 255.445 151.835C255.445 151.557 255.402 151.301 255.317 151.068C255.233 150.833 255.105 150.645 254.93 150.503C254.756 150.361 254.536 150.29 254.271 150.29C254.004 150.29 253.783 150.361 253.607 150.503C253.432 150.645 253.303 150.833 253.217 151.068C253.134 151.301 253.092 151.557 253.092 151.835C253.092 152.116 253.134 152.372 253.217 152.605C253.303 152.838 253.432 153.025 253.607 153.165C253.783 153.305 254.004 153.375 254.271 153.375ZM258.1 151.409V154H257.251V149.636H258.066V150.347H258.12C258.22 150.116 258.378 149.93 258.592 149.79C258.808 149.65 259.079 149.58 259.407 149.58C259.704 149.58 259.965 149.642 260.188 149.767C260.412 149.89 260.585 150.074 260.708 150.318C260.831 150.562 260.893 150.865 260.893 151.224V154H260.043V151.327C260.043 151.01 259.961 150.763 259.796 150.585C259.631 150.405 259.405 150.315 259.117 150.315C258.92 150.315 258.745 150.358 258.592 150.443C258.44 150.528 258.32 150.653 258.231 150.818C258.144 150.981 258.1 151.178 258.1 151.409Z" fill="#6B7280"/>
</g>
<defs>
<clipPath id="clip0_3623_61223">
<rect width="320" height="320" fill="white"/>
</clipPath>
</defs>
</svg>
