<svg width="320" height="320" viewBox="0 0 320 320" fill="none" xmlns="http://www.w3.org/2000/svg">
<g filter="url(#filter0_d_2623_17722)">
<path d="M40 147C40 143.686 42.6863 141 46 141H80V180H46C42.6863 180 40 177.314 40 174V147Z" fill="white"/>
<path d="M62 156.5L58 160.5L62 164.5" stroke="#6B7280" stroke-width="2" stroke-linecap="round" stroke-linejoin="round"/>
<path d="M40 147C40 143.686 42.6863 141 46 141H80V180H46C42.6863 180 40 177.314 40 174V147Z" stroke="#D1D5DB"/>
<path d="M80.5 141.5H119.5V179.5H80.5V141.5Z" fill="#EBF5FF"/>
<path d="M101.342 155.818V166H99.8011V157.359H99.7415L97.3054 158.95V157.479L99.8459 155.818H101.342Z" fill="#0080FF"/>
<path d="M80.5 141.5H119.5V179.5H80.5V141.5Z" stroke="#0080FF"/>
<path d="M120 141H160V180H120V141Z" fill="white"/>
<path d="M136.479 166V164.886L139.925 161.317C140.293 160.929 140.596 160.589 140.835 160.298C141.076 160.003 141.257 159.723 141.376 159.457C141.496 159.192 141.555 158.911 141.555 158.612C141.555 158.274 141.476 157.982 141.317 157.737C141.158 157.489 140.941 157.298 140.665 157.165C140.39 157.03 140.08 156.962 139.736 156.962C139.371 156.962 139.053 157.036 138.781 157.185C138.509 157.335 138.301 157.545 138.155 157.817C138.009 158.089 137.936 158.407 137.936 158.771H136.469C136.469 158.152 136.612 157.61 136.897 157.146C137.182 156.682 137.573 156.322 138.07 156.067C138.567 155.808 139.133 155.679 139.766 155.679C140.405 155.679 140.969 155.807 141.456 156.062C141.946 156.314 142.329 156.658 142.604 157.096C142.879 157.53 143.017 158.021 143.017 158.567C143.017 158.945 142.946 159.315 142.803 159.676C142.664 160.037 142.42 160.44 142.072 160.884C141.724 161.325 141.241 161.86 140.621 162.49L138.597 164.608V164.683H143.181V166H136.479Z" fill="#374151"/>
<path d="M120 141H160V180H120V141Z" stroke="#D1D5DB"/>
<path d="M160 141H200V180H160V141Z" fill="white"/>
<path d="M179.524 166.139C178.841 166.139 178.232 166.022 177.695 165.786C177.161 165.551 176.738 165.224 176.427 164.807C176.119 164.386 175.953 163.899 175.93 163.345H177.491C177.511 163.647 177.612 163.909 177.794 164.131C177.98 164.349 178.222 164.518 178.52 164.638C178.818 164.757 179.15 164.817 179.514 164.817C179.915 164.817 180.27 164.747 180.578 164.608C180.89 164.469 181.133 164.275 181.309 164.026C181.485 163.774 181.572 163.484 181.572 163.156C181.572 162.815 181.485 162.515 181.309 162.256C181.137 161.995 180.883 161.789 180.548 161.64C180.217 161.491 179.816 161.416 179.345 161.416H178.485V160.163H179.345C179.723 160.163 180.054 160.095 180.339 159.96C180.628 159.824 180.853 159.635 181.016 159.393C181.178 159.147 181.259 158.861 181.259 158.533C181.259 158.218 181.188 157.944 181.045 157.712C180.906 157.477 180.707 157.293 180.449 157.161C180.194 157.028 179.892 156.962 179.544 156.962C179.213 156.962 178.903 157.023 178.614 157.146C178.329 157.265 178.097 157.437 177.918 157.663C177.739 157.885 177.643 158.152 177.63 158.463H176.143C176.16 157.913 176.322 157.429 176.631 157.011C176.942 156.594 177.353 156.267 177.864 156.032C178.374 155.797 178.941 155.679 179.564 155.679C180.217 155.679 180.78 155.807 181.254 156.062C181.732 156.314 182.099 156.65 182.358 157.071C182.62 157.492 182.749 157.953 182.746 158.453C182.749 159.023 182.59 159.507 182.268 159.905C181.95 160.303 181.526 160.569 180.996 160.705V160.785C181.672 160.888 182.196 161.156 182.567 161.59C182.941 162.024 183.127 162.563 183.124 163.206C183.127 163.766 182.971 164.268 182.656 164.712C182.345 165.156 181.919 165.506 181.379 165.761C180.838 166.013 180.22 166.139 179.524 166.139Z" fill="#374151"/>
<path d="M160 141H200V180H160V141Z" stroke="#D1D5DB"/>
<path d="M200 141H240V180H200V141Z" fill="white"/>
<path d="M215.766 164.011V162.768L220.165 155.818H221.145V157.648H220.523L217.376 162.629V162.709H223.407V164.011H215.766ZM220.593 166V163.634L220.603 163.067V155.818H222.06V166H220.593Z" fill="#374151"/>
<path d="M200 141H240V180H200V141Z" stroke="#D1D5DB"/>
<path d="M240 141H274C277.314 141 280 143.686 280 147V174C280 177.314 277.314 180 274 180H240V141Z" fill="white"/>
<path d="M258 164.5L262 160.5L258 156.5" stroke="#6B7280" stroke-width="2" stroke-linecap="round" stroke-linejoin="round"/>
<path d="M240 141H274C277.314 141 280 143.686 280 147V174C280 177.314 277.314 180 274 180H240V141Z" stroke="#D1D5DB"/>
</g>
<g filter="url(#filter1_dd_2623_17722)">
<rect x="21" y="67" width="278" height="186" rx="8" fill="white"/>
<path d="M21 73C21 69.6863 23.6863 67 27 67H150C153.314 67 156 69.6863 156 73V101C156 104.314 153.314 107 150 107H27C23.6863 107 21 104.314 21 101V73Z" fill="#F9FAFB"/>
<path d="M53.0028 82.2727V91H51.7926L47.3565 84.5994H47.2756V91H45.9588V82.2727H47.1776L51.6179 88.6818H51.6989V82.2727H53.0028ZM56.2609 91H54.8631L58.0038 82.2727H59.5251L62.6657 91H61.268L58.8006 83.858H58.7325L56.2609 91ZM56.4952 87.5824H61.0293V88.6903H56.4952V87.5824ZM64.526 82.2727H66.124L68.9024 89.0568H69.0047L71.7831 82.2727H73.3811V91H72.1283V84.6847H72.0473L69.4734 90.9872H68.4337L65.8598 84.6804H65.7788V91H64.526V82.2727ZM75.8955 91V82.2727H81.3671V83.4062H77.2123V86.0653H81.0816V87.1946H77.2123V89.8665H81.4183V91H75.8955Z" fill="#6B7280"/>
<rect x="21" y="107" width="135" height="1" fill="#E5E7EB"/>
<path d="M52.9148 138.818H54.1477V145.56C54.1477 146.256 53.9837 146.877 53.6555 147.424C53.3307 147.968 52.8717 148.397 52.2784 148.712C51.6851 149.023 50.9891 149.179 50.1903 149.179C49.3916 149.179 48.6955 149.023 48.1023 148.712C47.509 148.397 47.0483 147.968 46.7202 147.424C46.3954 146.877 46.233 146.256 46.233 145.56V138.818H47.4659V145.46C47.4659 145.957 47.5753 146.4 47.794 146.788C48.0128 147.172 48.3243 147.475 48.7287 147.697C49.1364 147.916 49.6236 148.026 50.1903 148.026C50.7571 148.026 51.2443 147.916 51.652 147.697C52.0597 147.475 52.3712 147.172 52.5866 146.788C52.8054 146.4 52.9148 145.957 52.9148 145.46V138.818ZM61.8599 143.074L60.8059 143.372C60.7396 143.196 60.6419 143.026 60.5126 142.86C60.3867 142.691 60.2143 142.552 59.9956 142.442C59.7768 142.333 59.4967 142.278 59.1554 142.278C58.688 142.278 58.2986 142.386 57.987 142.602C57.6788 142.814 57.5247 143.084 57.5247 143.412C57.5247 143.704 57.6307 143.934 57.8429 144.103C58.055 144.272 58.3864 144.413 58.8372 144.526L59.9707 144.804C60.6535 144.97 61.1622 145.223 61.497 145.565C61.8317 145.903 61.9991 146.339 61.9991 146.872C61.9991 147.31 61.8732 147.701 61.6213 148.045C61.3727 148.39 61.0247 148.662 60.5772 148.861C60.1298 149.06 59.6094 149.159 59.0162 149.159C58.2373 149.159 57.5926 148.99 57.0822 148.652C56.5718 148.314 56.2486 147.82 56.1127 147.17L57.2264 146.892C57.3324 147.303 57.533 147.611 57.8279 147.817C58.1262 148.022 58.5157 148.125 58.9963 148.125C59.5431 148.125 59.9773 148.009 60.2988 147.777C60.6236 147.542 60.786 147.26 60.786 146.932C60.786 146.667 60.6932 146.445 60.5076 146.266C60.322 146.083 60.037 145.947 59.6525 145.858L58.3798 145.56C57.6805 145.394 57.1667 145.137 56.8386 144.789C56.5138 144.438 56.3514 143.999 56.3514 143.472C56.3514 143.041 56.4724 142.66 56.7143 142.328C56.9596 141.997 57.2927 141.737 57.7136 141.548C58.1378 141.359 58.6184 141.264 59.1554 141.264C59.911 141.264 60.5043 141.43 60.9352 141.761C61.3694 142.093 61.6776 142.53 61.8599 143.074ZM66.967 149.159C66.2312 149.159 65.5965 148.997 65.0629 148.672C64.5326 148.344 64.1232 147.886 63.8349 147.3C63.5498 146.71 63.4073 146.024 63.4073 145.241C63.4073 144.459 63.5498 143.77 63.8349 143.173C64.1232 142.573 64.5243 142.106 65.038 141.771C65.555 141.433 66.1583 141.264 66.8477 141.264C67.2454 141.264 67.6381 141.33 68.0259 141.463C68.4137 141.596 68.7667 141.811 69.0849 142.109C69.4031 142.404 69.6566 142.795 69.8455 143.283C70.0344 143.77 70.1289 144.37 70.1289 145.082V145.58H64.2425V144.565H68.9357C68.9357 144.134 68.8496 143.75 68.6772 143.412C68.5082 143.074 68.2662 142.807 67.9513 142.612C67.6398 142.416 67.2719 142.318 66.8477 142.318C66.3803 142.318 65.976 142.434 65.6346 142.666C65.2965 142.895 65.0363 143.193 64.854 143.561C64.6718 143.929 64.5806 144.323 64.5806 144.744V145.42C64.5806 145.997 64.68 146.486 64.8789 146.887C65.0811 147.285 65.3612 147.588 65.7191 147.797C66.0771 148.002 66.493 148.105 66.967 148.105C67.2752 148.105 67.5536 148.062 67.8022 147.976C68.0541 147.886 68.2712 147.754 68.4535 147.578C68.6358 147.399 68.7766 147.177 68.8761 146.912L70.0096 147.23C69.8903 147.615 69.6897 147.953 69.408 148.244C69.1263 148.533 68.7783 148.758 68.364 148.92C67.9497 149.08 67.484 149.159 66.967 149.159ZM71.9137 149V141.364H73.0472V142.517H73.1268C73.266 142.139 73.5179 141.833 73.8825 141.597C74.247 141.362 74.658 141.244 75.1154 141.244C75.2016 141.244 75.3093 141.246 75.4386 141.249C75.5678 141.253 75.6656 141.258 75.7319 141.264V142.457C75.6921 142.447 75.601 142.433 75.4585 142.413C75.3192 142.389 75.1718 142.378 75.016 142.378C74.6448 142.378 74.3133 142.456 74.0217 142.612C73.7333 142.764 73.5046 142.976 73.3356 143.248C73.1699 143.516 73.087 143.823 73.087 144.168V149H71.9137ZM84.6199 138.818V149H83.3869V140.111H83.3272L80.8414 141.761V140.509L83.3869 138.818H84.6199Z" fill="#6B7280"/>
<rect x="21" y="180" width="135" height="1" fill="#E5E7EB"/>
<path d="M52.9148 211.818H54.1477V218.56C54.1477 219.256 53.9837 219.877 53.6555 220.424C53.3307 220.968 52.8717 221.397 52.2784 221.712C51.6851 222.023 50.9891 222.179 50.1903 222.179C49.3916 222.179 48.6955 222.023 48.1023 221.712C47.509 221.397 47.0483 220.968 46.7202 220.424C46.3954 219.877 46.233 219.256 46.233 218.56V211.818H47.4659V218.46C47.4659 218.957 47.5753 219.4 47.794 219.788C48.0128 220.172 48.3243 220.475 48.7287 220.697C49.1364 220.916 49.6236 221.026 50.1903 221.026C50.7571 221.026 51.2443 220.916 51.652 220.697C52.0597 220.475 52.3712 220.172 52.5866 219.788C52.8054 219.4 52.9148 218.957 52.9148 218.46V211.818ZM61.8599 216.074L60.8059 216.372C60.7396 216.196 60.6419 216.026 60.5126 215.86C60.3867 215.691 60.2143 215.552 59.9956 215.442C59.7768 215.333 59.4967 215.278 59.1554 215.278C58.688 215.278 58.2986 215.386 57.987 215.602C57.6788 215.814 57.5247 216.084 57.5247 216.412C57.5247 216.704 57.6307 216.934 57.8429 217.103C58.055 217.272 58.3864 217.413 58.8372 217.526L59.9707 217.804C60.6535 217.97 61.1622 218.223 61.497 218.565C61.8317 218.903 61.9991 219.339 61.9991 219.872C61.9991 220.31 61.8732 220.701 61.6213 221.045C61.3727 221.39 61.0247 221.662 60.5772 221.861C60.1298 222.06 59.6094 222.159 59.0162 222.159C58.2373 222.159 57.5926 221.99 57.0822 221.652C56.5718 221.314 56.2486 220.82 56.1127 220.17L57.2264 219.892C57.3324 220.303 57.533 220.611 57.8279 220.817C58.1262 221.022 58.5157 221.125 58.9963 221.125C59.5431 221.125 59.9773 221.009 60.2988 220.777C60.6236 220.542 60.786 220.26 60.786 219.932C60.786 219.667 60.6932 219.445 60.5076 219.266C60.322 219.083 60.037 218.947 59.6525 218.858L58.3798 218.56C57.6805 218.394 57.1667 218.137 56.8386 217.789C56.5138 217.438 56.3514 216.999 56.3514 216.472C56.3514 216.041 56.4724 215.66 56.7143 215.328C56.9596 214.997 57.2927 214.737 57.7136 214.548C58.1378 214.359 58.6184 214.264 59.1554 214.264C59.911 214.264 60.5043 214.43 60.9352 214.761C61.3694 215.093 61.6776 215.53 61.8599 216.074ZM66.967 222.159C66.2312 222.159 65.5965 221.997 65.0629 221.672C64.5326 221.344 64.1232 220.886 63.8349 220.3C63.5498 219.71 63.4073 219.024 63.4073 218.241C63.4073 217.459 63.5498 216.77 63.8349 216.173C64.1232 215.573 64.5243 215.106 65.038 214.771C65.555 214.433 66.1583 214.264 66.8477 214.264C67.2454 214.264 67.6381 214.33 68.0259 214.463C68.4137 214.596 68.7667 214.811 69.0849 215.109C69.4031 215.404 69.6566 215.795 69.8455 216.283C70.0344 216.77 70.1289 217.37 70.1289 218.082V218.58H64.2425V217.565H68.9357C68.9357 217.134 68.8496 216.75 68.6772 216.412C68.5082 216.074 68.2662 215.807 67.9513 215.612C67.6398 215.416 67.2719 215.318 66.8477 215.318C66.3803 215.318 65.976 215.434 65.6346 215.666C65.2965 215.895 65.0363 216.193 64.854 216.561C64.6718 216.929 64.5806 217.323 64.5806 217.744V218.42C64.5806 218.997 64.68 219.486 64.8789 219.887C65.0811 220.285 65.3612 220.588 65.7191 220.797C66.0771 221.002 66.493 221.105 66.967 221.105C67.2752 221.105 67.5536 221.062 67.8022 220.976C68.0541 220.886 68.2712 220.754 68.4535 220.578C68.6358 220.399 68.7766 220.177 68.8761 219.912L70.0096 220.23C69.8903 220.615 69.6897 220.953 69.408 221.244C69.1263 221.533 68.7783 221.758 68.364 221.92C67.9497 222.08 67.484 222.159 66.967 222.159ZM71.9137 222V214.364H73.0472V215.517H73.1268C73.266 215.139 73.5179 214.833 73.8825 214.597C74.247 214.362 74.658 214.244 75.1154 214.244C75.2016 214.244 75.3093 214.246 75.4386 214.249C75.5678 214.253 75.6656 214.258 75.7319 214.264V215.457C75.6921 215.447 75.601 215.433 75.4585 215.413C75.3192 215.389 75.1718 215.378 75.016 215.378C74.6448 215.378 74.3133 215.456 74.0217 215.612C73.7333 215.764 73.5046 215.976 73.3356 216.248C73.1699 216.516 73.087 216.823 73.087 217.168V222H71.9137ZM81.0403 222V221.105L84.4011 217.426C84.7955 216.995 85.1203 216.621 85.3755 216.303C85.6307 215.981 85.8197 215.679 85.9423 215.398C86.0682 215.113 86.1312 214.814 86.1312 214.503C86.1312 214.145 86.045 213.835 85.8727 213.573C85.7037 213.311 85.4717 213.109 85.1767 212.967C84.8817 212.824 84.5502 212.753 84.1824 212.753C83.7913 212.753 83.4499 212.834 83.1582 212.996C82.8699 213.156 82.6461 213.379 82.487 213.668C82.3313 213.956 82.2534 214.294 82.2534 214.682H81.0801C81.0801 214.085 81.2176 213.562 81.4927 213.111C81.7678 212.66 82.1423 212.309 82.6163 212.057C83.0936 211.805 83.6288 211.679 84.2221 211.679C84.8187 211.679 85.3474 211.805 85.8081 212.057C86.2688 212.309 86.63 212.648 86.8919 213.076C87.1537 213.504 87.2846 213.979 87.2846 214.503C87.2846 214.877 87.2167 215.244 87.0808 215.602C86.9482 215.956 86.7162 216.352 86.3848 216.79C86.0566 217.224 85.6009 217.754 85.0176 218.381L82.7306 220.827V220.906H87.4636V222H81.0403Z" fill="#6B7280"/>
<path d="M156 73C156 69.6863 158.686 67 162 67H293C296.314 67 299 69.6863 299 73V101C299 104.314 296.314 107 293 107H162C158.686 107 156 104.314 156 101V73Z" fill="#F9FAFB"/>
<path d="M185.719 84.5653C185.673 84.1619 185.486 83.8494 185.156 83.6278C184.827 83.4034 184.412 83.2912 183.912 83.2912C183.554 83.2912 183.244 83.348 182.983 83.4616C182.722 83.5724 182.518 83.7259 182.374 83.9219C182.232 84.1151 182.161 84.3352 182.161 84.5824C182.161 84.7898 182.209 84.9687 182.305 85.1193C182.405 85.2699 182.534 85.3963 182.693 85.4986C182.855 85.598 183.028 85.6818 183.213 85.75C183.398 85.8153 183.575 85.8693 183.746 85.9119L184.598 86.1335C184.876 86.2017 185.162 86.294 185.455 86.4105C185.747 86.527 186.018 86.6804 186.268 86.8707C186.518 87.0611 186.72 87.2969 186.874 87.5781C187.03 87.8594 187.108 88.196 187.108 88.5881C187.108 89.0824 186.98 89.5213 186.724 89.9048C186.472 90.2884 186.104 90.5909 185.621 90.8125C185.141 91.0341 184.56 91.1449 183.878 91.1449C183.224 91.1449 182.659 91.0412 182.182 90.8338C181.705 90.6264 181.331 90.3324 181.061 89.9517C180.791 89.5682 180.642 89.1136 180.614 88.5881H181.935C181.96 88.9034 182.063 89.1662 182.241 89.3764C182.423 89.5838 182.655 89.7386 182.936 89.8409C183.22 89.9403 183.531 89.9901 183.869 89.9901C184.241 89.9901 184.572 89.9318 184.862 89.8153C185.155 89.696 185.385 89.5312 185.553 89.321C185.72 89.108 185.804 88.8594 185.804 88.5753C185.804 88.3168 185.73 88.1051 185.582 87.9403C185.438 87.7756 185.24 87.6392 184.99 87.5312C184.743 87.4233 184.463 87.3281 184.151 87.2457L183.119 86.9645C182.42 86.7741 181.866 86.4943 181.457 86.125C181.051 85.7557 180.848 85.267 180.848 84.6591C180.848 84.1562 180.984 83.7173 181.257 83.3423C181.53 82.9673 181.899 82.6761 182.365 82.4688C182.831 82.2585 183.357 82.1534 183.942 82.1534C184.533 82.1534 185.054 82.2571 185.506 82.4645C185.96 82.6719 186.318 82.9574 186.58 83.321C186.841 83.6818 186.977 84.0966 186.989 84.5653H185.719ZM188.851 83.4062V82.2727H195.605V83.4062H192.882V91H191.57V83.4062H188.851ZM197.404 91H196.006L199.147 82.2727H200.668L203.809 91H202.411L199.944 83.858H199.875L197.404 91ZM197.638 87.5824H202.172V88.6903H197.638V87.5824ZM204.207 83.4062V82.2727H210.962V83.4062H208.239V91H206.926V83.4062H204.207ZM218.666 82.2727H219.987V88.0128C219.987 88.6236 219.844 89.1648 219.557 89.6364C219.27 90.1051 218.867 90.4744 218.347 90.7443C217.827 91.0114 217.217 91.1449 216.519 91.1449C215.823 91.1449 215.215 91.0114 214.695 90.7443C214.175 90.4744 213.771 90.1051 213.485 89.6364C213.198 89.1648 213.054 88.6236 213.054 88.0128V82.2727H214.371V87.9062C214.371 88.3011 214.458 88.652 214.631 88.9588C214.807 89.2656 215.056 89.5071 215.377 89.6832C215.698 89.8565 216.078 89.9432 216.519 89.9432C216.962 89.9432 217.344 89.8565 217.665 89.6832C217.989 89.5071 218.236 89.2656 218.406 88.9588C218.58 88.652 218.666 88.3011 218.666 87.9062V82.2727ZM227.262 84.5653C227.216 84.1619 227.029 83.8494 226.699 83.6278C226.37 83.4034 225.955 83.2912 225.455 83.2912C225.097 83.2912 224.787 83.348 224.526 83.4616C224.265 83.5724 224.061 83.7259 223.917 83.9219C223.775 84.1151 223.703 84.3352 223.703 84.5824C223.703 84.7898 223.752 84.9687 223.848 85.1193C223.948 85.2699 224.077 85.3963 224.236 85.4986C224.398 85.598 224.571 85.6818 224.756 85.75C224.941 85.8153 225.118 85.8693 225.289 85.9119L226.141 86.1335C226.419 86.2017 226.705 86.294 226.998 86.4105C227.29 86.527 227.561 86.6804 227.811 86.8707C228.061 87.0611 228.263 87.2969 228.417 87.5781C228.573 87.8594 228.651 88.196 228.651 88.5881C228.651 89.0824 228.523 89.5213 228.267 89.9048C228.015 90.2884 227.647 90.5909 227.164 90.8125C226.684 91.0341 226.103 91.1449 225.421 91.1449C224.767 91.1449 224.202 91.0412 223.725 90.8338C223.248 90.6264 222.874 90.3324 222.604 89.9517C222.334 89.5682 222.185 89.1136 222.157 88.5881H223.478C223.503 88.9034 223.605 89.1662 223.784 89.3764C223.966 89.5838 224.198 89.7386 224.479 89.8409C224.763 89.9403 225.074 89.9901 225.412 89.9901C225.784 89.9901 226.115 89.9318 226.405 89.8153C226.698 89.696 226.928 89.5312 227.096 89.321C227.263 89.108 227.347 88.8594 227.347 88.5753C227.347 88.3168 227.273 88.1051 227.125 87.9403C226.98 87.7756 226.783 87.6392 226.533 87.5312C226.286 87.4233 226.006 87.3281 225.694 87.2457L224.662 86.9645C223.963 86.7741 223.409 86.4943 223 86.125C222.594 85.7557 222.391 85.267 222.391 84.6591C222.391 84.1562 222.527 83.7173 222.8 83.3423C223.073 82.9673 223.442 82.6761 223.908 82.4688C224.374 82.2585 224.9 82.1534 225.485 82.1534C226.076 82.1534 226.597 82.2571 227.049 82.4645C227.503 82.6719 227.861 82.9574 228.123 83.321C228.384 83.6818 228.52 84.0966 228.532 84.5653H227.262Z" fill="#6B7280"/>
<rect x="156" y="107" width="143" height="1" fill="#E5E7EB"/>
<path d="M180 144C180 137.925 184.925 133 191 133H230C236.075 133 241 137.925 241 144V144C241 150.075 236.075 155 230 155H191C184.925 155 180 150.075 180 144V144Z" fill="#DCFCE7"/>
<path d="M191.719 141.565C191.673 141.162 191.486 140.849 191.156 140.628C190.827 140.403 190.412 140.291 189.912 140.291C189.554 140.291 189.244 140.348 188.983 140.462C188.722 140.572 188.518 140.726 188.374 140.922C188.232 141.115 188.161 141.335 188.161 141.582C188.161 141.79 188.209 141.969 188.305 142.119C188.405 142.27 188.534 142.396 188.693 142.499C188.855 142.598 189.028 142.682 189.213 142.75C189.398 142.815 189.575 142.869 189.746 142.912L190.598 143.134C190.876 143.202 191.162 143.294 191.455 143.411C191.747 143.527 192.018 143.68 192.268 143.871C192.518 144.061 192.72 144.297 192.874 144.578C193.03 144.859 193.108 145.196 193.108 145.588C193.108 146.082 192.98 146.521 192.724 146.905C192.472 147.288 192.104 147.591 191.621 147.812C191.141 148.034 190.56 148.145 189.878 148.145C189.224 148.145 188.659 148.041 188.182 147.834C187.705 147.626 187.331 147.332 187.061 146.952C186.791 146.568 186.642 146.114 186.614 145.588H187.935C187.96 145.903 188.063 146.166 188.241 146.376C188.423 146.584 188.655 146.739 188.936 146.841C189.22 146.94 189.531 146.99 189.869 146.99C190.241 146.99 190.572 146.932 190.862 146.815C191.155 146.696 191.385 146.531 191.553 146.321C191.72 146.108 191.804 145.859 191.804 145.575C191.804 145.317 191.73 145.105 191.582 144.94C191.438 144.776 191.24 144.639 190.99 144.531C190.743 144.423 190.463 144.328 190.151 144.246L189.119 143.964C188.42 143.774 187.866 143.494 187.457 143.125C187.051 142.756 186.848 142.267 186.848 141.659C186.848 141.156 186.984 140.717 187.257 140.342C187.53 139.967 187.899 139.676 188.365 139.469C188.831 139.259 189.357 139.153 189.942 139.153C190.533 139.153 191.054 139.257 191.506 139.464C191.96 139.672 192.318 139.957 192.58 140.321C192.841 140.682 192.977 141.097 192.989 141.565H191.719ZM198.725 145.286V141.455H200.004V148H198.751V146.866H198.683C198.532 147.216 198.291 147.507 197.958 147.74C197.629 147.97 197.218 148.085 196.727 148.085C196.306 148.085 195.934 147.993 195.61 147.808C195.289 147.621 195.037 147.344 194.852 146.977C194.67 146.611 194.579 146.158 194.579 145.618V141.455H195.853V145.464C195.853 145.911 195.977 146.266 196.224 146.53C196.471 146.794 196.792 146.926 197.187 146.926C197.426 146.926 197.663 146.866 197.899 146.747C198.137 146.628 198.335 146.447 198.491 146.206C198.65 145.964 198.728 145.658 198.725 145.286ZM204.473 148.132C203.839 148.132 203.294 147.989 202.837 147.702C202.382 147.412 202.033 147.013 201.788 146.504C201.544 145.996 201.422 145.413 201.422 144.757C201.422 144.092 201.547 143.506 201.797 142.997C202.047 142.486 202.399 142.087 202.854 141.8C203.308 141.513 203.844 141.369 204.46 141.369C204.957 141.369 205.401 141.462 205.79 141.646C206.179 141.828 206.493 142.084 206.732 142.413C206.973 142.743 207.116 143.128 207.162 143.568H205.922C205.854 143.261 205.697 142.997 205.453 142.776C205.212 142.554 204.888 142.443 204.482 142.443C204.126 142.443 203.815 142.537 203.548 142.724C203.284 142.909 203.078 143.173 202.93 143.517C202.783 143.858 202.709 144.261 202.709 144.727C202.709 145.205 202.781 145.616 202.926 145.963C203.071 146.31 203.276 146.578 203.54 146.768C203.807 146.959 204.121 147.054 204.482 147.054C204.723 147.054 204.942 147.01 205.138 146.922C205.337 146.831 205.503 146.702 205.636 146.534C205.773 146.366 205.868 146.165 205.922 145.929H207.162C207.116 146.352 206.979 146.73 206.749 147.062C206.518 147.395 206.21 147.656 205.824 147.847C205.44 148.037 204.99 148.132 204.473 148.132ZM211.282 148.132C210.648 148.132 210.103 147.989 209.645 147.702C209.191 147.412 208.841 147.013 208.597 146.504C208.353 145.996 208.23 145.413 208.23 144.757C208.23 144.092 208.355 143.506 208.605 142.997C208.855 142.486 209.208 142.087 209.662 141.8C210.117 141.513 210.652 141.369 211.269 141.369C211.766 141.369 212.209 141.462 212.598 141.646C212.988 141.828 213.301 142.084 213.54 142.413C213.782 142.743 213.925 143.128 213.971 143.568H212.73C212.662 143.261 212.506 142.997 212.262 142.776C212.02 142.554 211.696 142.443 211.29 142.443C210.935 142.443 210.624 142.537 210.357 142.724C210.093 142.909 209.887 143.173 209.739 143.517C209.591 143.858 209.517 144.261 209.517 144.727C209.517 145.205 209.59 145.616 209.735 145.963C209.88 146.31 210.084 146.578 210.348 146.768C210.615 146.959 210.929 147.054 211.29 147.054C211.532 147.054 211.75 147.01 211.946 146.922C212.145 146.831 212.311 146.702 212.445 146.534C212.581 146.366 212.676 146.165 212.73 145.929H213.971C213.925 146.352 213.787 146.73 213.557 147.062C213.327 147.395 213.019 147.656 212.632 147.847C212.249 148.037 211.799 148.132 211.282 148.132ZM218.154 148.132C217.509 148.132 216.954 147.994 216.488 147.719C216.025 147.44 215.667 147.05 215.414 146.547C215.164 146.041 215.039 145.449 215.039 144.77C215.039 144.099 215.164 143.509 215.414 142.997C215.667 142.486 216.019 142.087 216.471 141.8C216.925 141.513 217.457 141.369 218.065 141.369C218.434 141.369 218.792 141.43 219.138 141.553C219.485 141.675 219.796 141.866 220.072 142.128C220.347 142.389 220.565 142.729 220.724 143.146C220.883 143.561 220.962 144.065 220.962 144.659V145.111H215.759V144.156H219.714C219.714 143.821 219.646 143.524 219.509 143.266C219.373 143.004 219.181 142.798 218.934 142.648C218.69 142.497 218.403 142.422 218.073 142.422C217.715 142.422 217.403 142.51 217.136 142.686C216.871 142.859 216.667 143.087 216.522 143.368C216.38 143.646 216.309 143.949 216.309 144.276V145.021C216.309 145.459 216.386 145.831 216.539 146.138C216.695 146.445 216.913 146.679 217.191 146.841C217.469 147 217.795 147.08 218.167 147.08C218.408 147.08 218.629 147.045 218.827 146.977C219.026 146.906 219.198 146.801 219.343 146.662C219.488 146.523 219.599 146.351 219.675 146.146L220.881 146.364C220.785 146.719 220.612 147.03 220.362 147.297C220.114 147.561 219.803 147.767 219.428 147.915C219.056 148.06 218.631 148.132 218.154 148.132ZM227.281 143.053L226.126 143.257C226.078 143.109 226.001 142.969 225.896 142.835C225.794 142.702 225.654 142.592 225.478 142.507C225.302 142.422 225.082 142.379 224.818 142.379C224.457 142.379 224.156 142.46 223.914 142.622C223.673 142.781 223.552 142.987 223.552 143.24C223.552 143.459 223.633 143.635 223.795 143.768C223.957 143.902 224.218 144.011 224.579 144.097L225.619 144.335C226.221 144.474 226.67 144.689 226.966 144.979C227.261 145.268 227.409 145.645 227.409 146.108C227.409 146.5 227.295 146.849 227.068 147.156C226.843 147.46 226.529 147.699 226.126 147.872C225.725 148.045 225.261 148.132 224.733 148.132C224 148.132 223.402 147.976 222.939 147.663C222.475 147.348 222.191 146.901 222.086 146.321L223.318 146.134C223.395 146.455 223.552 146.697 223.791 146.862C224.029 147.024 224.341 147.105 224.724 147.105C225.142 147.105 225.475 147.018 225.725 146.845C225.975 146.669 226.1 146.455 226.1 146.202C226.1 145.997 226.024 145.825 225.87 145.686C225.72 145.547 225.488 145.442 225.176 145.371L224.068 145.128C223.457 144.989 223.005 144.767 222.713 144.463C222.423 144.159 222.278 143.774 222.278 143.308C222.278 142.922 222.386 142.584 222.602 142.294C222.818 142.004 223.116 141.778 223.497 141.616C223.877 141.452 224.314 141.369 224.805 141.369C225.512 141.369 226.069 141.523 226.475 141.83C226.882 142.134 227.15 142.541 227.281 143.053ZM233.714 143.053L232.56 143.257C232.511 143.109 232.435 142.969 232.33 142.835C232.227 142.702 232.088 142.592 231.912 142.507C231.736 142.422 231.516 142.379 231.251 142.379C230.891 142.379 230.589 142.46 230.348 142.622C230.107 142.781 229.986 142.987 229.986 143.24C229.986 143.459 230.067 143.635 230.229 143.768C230.391 143.902 230.652 144.011 231.013 144.097L232.053 144.335C232.655 144.474 233.104 144.689 233.399 144.979C233.695 145.268 233.842 145.645 233.842 146.108C233.842 146.5 233.729 146.849 233.501 147.156C233.277 147.46 232.963 147.699 232.56 147.872C232.159 148.045 231.695 148.132 231.166 148.132C230.433 148.132 229.835 147.976 229.372 147.663C228.909 147.348 228.625 146.901 228.52 146.321L229.751 146.134C229.828 146.455 229.986 146.697 230.224 146.862C230.463 147.024 230.774 147.105 231.158 147.105C231.575 147.105 231.909 147.018 232.159 146.845C232.409 146.669 232.534 146.455 232.534 146.202C232.534 145.997 232.457 145.825 232.304 145.686C232.153 145.547 231.922 145.442 231.609 145.371L230.501 145.128C229.891 144.989 229.439 144.767 229.146 144.463C228.857 144.159 228.712 143.774 228.712 143.308C228.712 142.922 228.82 142.584 229.036 142.294C229.251 142.004 229.55 141.778 229.93 141.616C230.311 141.452 230.747 141.369 231.239 141.369C231.946 141.369 232.503 141.523 232.909 141.83C233.315 142.134 233.584 142.541 233.714 143.053Z" fill="#166534"/>
<rect x="156" y="180" width="143" height="1" fill="#E5E7EB"/>
<path d="M180 217C180 210.925 184.925 206 191 206H223C229.075 206 234 210.925 234 217V217C234 223.075 229.075 228 223 228H191C184.925 228 180 223.075 180 217V217Z" fill="#D1D5DB"/>
<path d="M194.003 212.273V221H192.793L188.357 214.599H188.276V221H186.959V212.273H188.178L192.618 218.682H192.699V212.273H194.003ZM198.642 221.132C197.998 221.132 197.442 220.994 196.976 220.719C196.513 220.44 196.155 220.05 195.902 219.547C195.652 219.041 195.527 218.449 195.527 217.77C195.527 217.099 195.652 216.509 195.902 215.997C196.155 215.486 196.507 215.087 196.959 214.8C197.414 214.513 197.945 214.369 198.553 214.369C198.922 214.369 199.28 214.43 199.627 214.553C199.973 214.675 200.284 214.866 200.56 215.128C200.836 215.389 201.053 215.729 201.212 216.146C201.371 216.561 201.451 217.065 201.451 217.659V218.111H196.248V217.156H200.202C200.202 216.821 200.134 216.524 199.998 216.266C199.861 216.004 199.669 215.798 199.422 215.648C199.178 215.497 198.891 215.422 198.561 215.422C198.203 215.422 197.891 215.51 197.624 215.686C197.36 215.859 197.155 216.087 197.01 216.368C196.868 216.646 196.797 216.949 196.797 217.276V218.021C196.797 218.459 196.874 218.831 197.027 219.138C197.184 219.445 197.401 219.679 197.679 219.841C197.958 220 198.283 220.08 198.655 220.08C198.897 220.08 199.117 220.045 199.316 219.977C199.515 219.906 199.686 219.801 199.831 219.662C199.976 219.523 200.087 219.351 200.164 219.146L201.37 219.364C201.273 219.719 201.1 220.03 200.85 220.297C200.603 220.561 200.292 220.767 199.917 220.915C199.544 221.06 199.12 221.132 198.642 221.132ZM207.011 218.286V214.455H208.289V221H207.036V219.866H206.968C206.817 220.216 206.576 220.507 206.244 220.74C205.914 220.97 205.504 221.085 205.012 221.085C204.592 221.085 204.219 220.993 203.896 220.808C203.575 220.621 203.322 220.344 203.137 219.977C202.955 219.611 202.864 219.158 202.864 218.618V214.455H204.138V218.464C204.138 218.911 204.262 219.266 204.509 219.53C204.756 219.794 205.077 219.926 205.472 219.926C205.711 219.926 205.948 219.866 206.184 219.747C206.423 219.628 206.62 219.447 206.776 219.206C206.935 218.964 207.013 218.658 207.011 218.286ZM213.056 214.455V215.477H209.481V214.455H213.056ZM210.44 212.886H211.714V219.078C211.714 219.325 211.751 219.511 211.825 219.636C211.899 219.759 211.994 219.842 212.11 219.888C212.23 219.93 212.359 219.952 212.498 219.952C212.6 219.952 212.69 219.945 212.767 219.93C212.843 219.916 212.903 219.905 212.946 219.896L213.176 220.949C213.102 220.977 212.997 221.006 212.86 221.034C212.724 221.065 212.554 221.082 212.349 221.085C212.014 221.091 211.701 221.031 211.412 220.906C211.122 220.781 210.887 220.588 210.708 220.327C210.529 220.065 210.44 219.737 210.44 219.342V212.886ZM214.466 221V214.455H215.697V215.494H215.766C215.885 215.142 216.095 214.865 216.396 214.663C216.7 214.459 217.044 214.357 217.428 214.357C217.507 214.357 217.601 214.359 217.709 214.365C217.82 214.371 217.906 214.378 217.969 214.386V215.605C217.918 215.591 217.827 215.575 217.696 215.558C217.565 215.538 217.435 215.528 217.304 215.528C217.003 215.528 216.734 215.592 216.499 215.72C216.266 215.845 216.081 216.02 215.945 216.244C215.808 216.466 215.74 216.719 215.74 217.003V221H214.466ZM220.918 221.145C220.503 221.145 220.128 221.068 219.793 220.915C219.457 220.759 219.192 220.533 218.996 220.237C218.803 219.942 218.706 219.58 218.706 219.151C218.706 218.781 218.777 218.477 218.919 218.239C219.061 218 219.253 217.811 219.494 217.672C219.736 217.533 220.006 217.428 220.304 217.357C220.602 217.286 220.906 217.232 221.216 217.195C221.608 217.149 221.926 217.112 222.17 217.084C222.415 217.053 222.592 217.003 222.703 216.935C222.814 216.866 222.869 216.756 222.869 216.602V216.572C222.869 216.2 222.764 215.912 222.554 215.707C222.347 215.503 222.037 215.401 221.625 215.401C221.196 215.401 220.858 215.496 220.611 215.686C220.366 215.874 220.197 216.082 220.104 216.312L218.906 216.04C219.048 215.642 219.256 215.321 219.528 215.077C219.804 214.83 220.121 214.651 220.479 214.54C220.837 214.426 221.213 214.369 221.608 214.369C221.869 214.369 222.146 214.401 222.439 214.463C222.734 214.523 223.01 214.634 223.266 214.795C223.524 214.957 223.736 215.189 223.901 215.49C224.065 215.788 224.148 216.176 224.148 216.653V221H222.903V220.105H222.852C222.77 220.27 222.646 220.432 222.482 220.591C222.317 220.75 222.105 220.882 221.847 220.987C221.588 221.092 221.278 221.145 220.918 221.145ZM221.195 220.122C221.547 220.122 221.848 220.053 222.098 219.913C222.351 219.774 222.543 219.592 222.673 219.368C222.807 219.141 222.874 218.898 222.874 218.639V217.795C222.828 217.841 222.74 217.884 222.609 217.923C222.482 217.96 222.335 217.993 222.17 218.021C222.006 218.047 221.845 218.071 221.689 218.094C221.533 218.114 221.402 218.131 221.297 218.145C221.05 218.176 220.824 218.229 220.619 218.303C220.418 218.376 220.256 218.483 220.134 218.622C220.014 218.759 219.955 218.94 219.955 219.168C219.955 219.483 220.071 219.722 220.304 219.884C220.537 220.043 220.834 220.122 221.195 220.122ZM227.119 212.273V221H225.845V212.273H227.119Z" fill="#1F2937"/>
</g>
<defs>
<filter id="filter0_d_2623_17722" x="37.5" y="139.5" width="245" height="44" filterUnits="userSpaceOnUse" color-interpolation-filters="sRGB">
<feFlood flood-opacity="0" result="BackgroundImageFix"/>
<feColorMatrix in="SourceAlpha" type="matrix" values="0 0 0 0 0 0 0 0 0 0 0 0 0 0 0 0 0 0 127 0" result="hardAlpha"/>
<feOffset dy="1"/>
<feGaussianBlur stdDeviation="1"/>
<feColorMatrix type="matrix" values="0 0 0 0 0 0 0 0 0 0 0 0 0 0 0 0 0 0 0.05 0"/>
<feBlend mode="normal" in2="BackgroundImageFix" result="effect1_dropShadow_2623_17722"/>
<feBlend mode="normal" in="SourceGraphic" in2="effect1_dropShadow_2623_17722" result="shape"/>
</filter>
<filter id="filter1_dd_2623_17722" x="18" y="65" width="284" height="192" filterUnits="userSpaceOnUse" color-interpolation-filters="sRGB">
<feFlood flood-opacity="0" result="BackgroundImageFix"/>
<feColorMatrix in="SourceAlpha" type="matrix" values="0 0 0 0 0 0 0 0 0 0 0 0 0 0 0 0 0 0 127 0" result="hardAlpha"/>
<feOffset dy="1"/>
<feGaussianBlur stdDeviation="1"/>
<feColorMatrix type="matrix" values="0 0 0 0 0 0 0 0 0 0 0 0 0 0 0 0 0 0 0.06 0"/>
<feBlend mode="normal" in2="BackgroundImageFix" result="effect1_dropShadow_2623_17722"/>
<feColorMatrix in="SourceAlpha" type="matrix" values="0 0 0 0 0 0 0 0 0 0 0 0 0 0 0 0 0 0 127 0" result="hardAlpha"/>
<feOffset dy="1"/>
<feGaussianBlur stdDeviation="1.5"/>
<feColorMatrix type="matrix" values="0 0 0 0 0 0 0 0 0 0 0 0 0 0 0 0 0 0 0.1 0"/>
<feBlend mode="normal" in2="effect1_dropShadow_2623_17722" result="effect2_dropShadow_2623_17722"/>
<feBlend mode="normal" in="SourceGraphic" in2="effect2_dropShadow_2623_17722" result="shape"/>
</filter>
</defs>
</svg>
