<svg width="320" height="320" viewBox="0 0 320 320" fill="none" xmlns="http://www.w3.org/2000/svg">
<g clip-path="url(#clip0_2623_18510)">
<path d="M32.9588 155.773H34.5568L37.3352 162.557H37.4375L40.2159 155.773H41.8139V164.5H40.5611V158.185H40.4801L37.9062 164.487H36.8665L34.2926 158.18H34.2116V164.5H32.9588V155.773ZM44.4315 166.955C44.2411 166.955 44.0678 166.939 43.9116 166.908C43.7553 166.879 43.6388 166.848 43.5621 166.814L43.869 165.77C44.1019 165.832 44.3093 165.859 44.4911 165.851C44.6729 165.842 44.8335 165.774 44.9727 165.646C45.1147 165.518 45.2397 165.31 45.3477 165.02L45.5053 164.585L43.1104 157.955H44.4741L46.1317 163.034H46.1999L47.8576 157.955H49.2255L46.5281 165.374C46.4031 165.714 46.244 166.003 46.0508 166.239C45.8576 166.477 45.6275 166.656 45.3604 166.776C45.0934 166.895 44.7837 166.955 44.4315 166.955ZM55.5036 164.645C55.0888 164.645 54.7138 164.568 54.3786 164.415C54.0433 164.259 53.7777 164.033 53.5817 163.737C53.3885 163.442 53.2919 163.08 53.2919 162.651C53.2919 162.281 53.3629 161.977 53.505 161.739C53.647 161.5 53.8388 161.311 54.0803 161.172C54.3217 161.033 54.5916 160.928 54.8899 160.857C55.1882 160.786 55.4922 160.732 55.8018 160.695C56.1939 160.649 56.5121 160.612 56.7564 160.584C57.0007 160.553 57.1783 160.503 57.2891 160.435C57.3999 160.366 57.4553 160.256 57.4553 160.102V160.072C57.4553 159.7 57.3501 159.412 57.1399 159.207C56.9325 159.003 56.6229 158.901 56.2109 158.901C55.782 158.901 55.4439 158.996 55.1967 159.186C54.9524 159.374 54.7834 159.582 54.6896 159.812L53.4922 159.54C53.6342 159.142 53.8416 158.821 54.1143 158.577C54.3899 158.33 54.7067 158.151 55.0646 158.04C55.4226 157.926 55.799 157.869 56.1939 157.869C56.4553 157.869 56.7322 157.901 57.0249 157.963C57.3203 158.023 57.5959 158.134 57.8516 158.295C58.1101 158.457 58.3217 158.689 58.4865 158.99C58.6513 159.288 58.7337 159.676 58.7337 160.153V164.5H57.4893V163.605H57.4382C57.3558 163.77 57.2322 163.932 57.0675 164.091C56.9027 164.25 56.6911 164.382 56.4325 164.487C56.174 164.592 55.8643 164.645 55.5036 164.645ZM55.7805 163.622C56.1328 163.622 56.4339 163.553 56.6839 163.413C56.9368 163.274 57.1286 163.092 57.2592 162.868C57.3928 162.641 57.4595 162.398 57.4595 162.139V161.295C57.4141 161.341 57.326 161.384 57.1953 161.423C57.0675 161.46 56.9212 161.493 56.7564 161.521C56.5916 161.547 56.4311 161.571 56.2749 161.594C56.1186 161.614 55.9879 161.631 55.8828 161.645C55.6357 161.676 55.4098 161.729 55.2053 161.803C55.0036 161.876 54.8416 161.983 54.7195 162.122C54.6001 162.259 54.5405 162.44 54.5405 162.668C54.5405 162.983 54.657 163.222 54.8899 163.384C55.1229 163.543 55.4197 163.622 55.7805 163.622ZM63.1879 164.632C62.5543 164.632 62.0089 164.489 61.5515 164.202C61.0969 163.912 60.7475 163.513 60.5032 163.004C60.2589 162.496 60.1367 161.913 60.1367 161.257C60.1367 160.592 60.2617 160.006 60.5117 159.497C60.7617 158.986 61.114 158.587 61.5685 158.3C62.0231 158.013 62.5586 157.869 63.1751 157.869C63.6722 157.869 64.1154 157.962 64.5046 158.146C64.8938 158.328 65.2077 158.584 65.4464 158.913C65.6879 159.243 65.8313 159.628 65.8768 160.068H64.6367C64.5685 159.761 64.4123 159.497 64.168 159.276C63.9265 159.054 63.6026 158.943 63.1964 158.943C62.8413 158.943 62.5302 159.037 62.2631 159.224C61.9989 159.409 61.793 159.673 61.6452 160.017C61.4975 160.358 61.4237 160.761 61.4237 161.227C61.4237 161.705 61.4961 162.116 61.641 162.463C61.7859 162.81 61.9904 163.078 62.2546 163.268C62.5217 163.459 62.8356 163.554 63.1964 163.554C63.4379 163.554 63.6566 163.51 63.8526 163.422C64.0515 163.331 64.2177 163.202 64.3512 163.034C64.4876 162.866 64.5827 162.665 64.6367 162.429H65.8768C65.8313 162.852 65.6935 163.23 65.4634 163.562C65.2333 163.895 64.9251 164.156 64.5387 164.347C64.1552 164.537 63.7049 164.632 63.1879 164.632ZM69.9964 164.632C69.3629 164.632 68.8175 164.489 68.3601 164.202C67.9055 163.912 67.5561 163.513 67.3118 163.004C67.0675 162.496 66.9453 161.913 66.9453 161.257C66.9453 160.592 67.0703 160.006 67.3203 159.497C67.5703 158.986 67.9226 158.587 68.3771 158.3C68.8317 158.013 69.3672 157.869 69.9837 157.869C70.4808 157.869 70.924 157.962 71.3132 158.146C71.7024 158.328 72.0163 158.584 72.255 158.913C72.4964 159.243 72.6399 159.628 72.6854 160.068H71.4453C71.3771 159.761 71.2209 159.497 70.9766 159.276C70.7351 159.054 70.4112 158.943 70.005 158.943C69.6499 158.943 69.3388 159.037 69.0717 159.224C68.8075 159.409 68.6016 159.673 68.4538 160.017C68.3061 160.358 68.2322 160.761 68.2322 161.227C68.2322 161.705 68.3047 162.116 68.4496 162.463C68.5945 162.81 68.799 163.078 69.0632 163.268C69.3303 163.459 69.6442 163.554 70.005 163.554C70.2464 163.554 70.4652 163.51 70.6612 163.422C70.8601 163.331 71.0263 163.202 71.1598 163.034C71.2962 162.866 71.3913 162.665 71.4453 162.429H72.6854C72.6399 162.852 72.5021 163.23 72.272 163.562C72.0419 163.895 71.7337 164.156 71.3473 164.347C70.9638 164.537 70.5135 164.632 69.9964 164.632ZM76.805 164.632C76.1914 164.632 75.6559 164.491 75.1985 164.21C74.7411 163.929 74.386 163.536 74.1332 163.03C73.8803 162.524 73.7539 161.933 73.7539 161.257C73.7539 160.578 73.8803 159.984 74.1332 159.476C74.386 158.967 74.7411 158.572 75.1985 158.291C75.6559 158.01 76.1914 157.869 76.805 157.869C77.4187 157.869 77.9542 158.01 78.4116 158.291C78.869 158.572 79.2241 158.967 79.4769 159.476C79.7298 159.984 79.8562 160.578 79.8562 161.257C79.8562 161.933 79.7298 162.524 79.4769 163.03C79.2241 163.536 78.869 163.929 78.4116 164.21C77.9542 164.491 77.4187 164.632 76.805 164.632ZM76.8093 163.562C77.207 163.562 77.5366 163.457 77.7979 163.247C78.0593 163.037 78.2525 162.757 78.3775 162.408C78.5053 162.058 78.5692 161.673 78.5692 161.253C78.5692 160.835 78.5053 160.452 78.3775 160.102C78.2525 159.75 78.0593 159.467 77.7979 159.254C77.5366 159.041 77.207 158.935 76.8093 158.935C76.4087 158.935 76.0763 159.041 75.8121 159.254C75.5508 159.467 75.3562 159.75 75.2283 160.102C75.1033 160.452 75.0408 160.835 75.0408 161.253C75.0408 161.673 75.1033 162.058 75.2283 162.408C75.3562 162.757 75.5508 163.037 75.8121 163.247C76.0763 163.457 76.4087 163.562 76.8093 163.562ZM85.4247 161.786V157.955H86.7031V164.5H85.4503V163.366H85.3821C85.2315 163.716 84.9901 164.007 84.6577 164.24C84.3281 164.47 83.9176 164.585 83.4261 164.585C83.0057 164.585 82.6335 164.493 82.3097 164.308C81.9886 164.121 81.7358 163.844 81.5511 163.477C81.3693 163.111 81.2784 162.658 81.2784 162.118V157.955H82.5526V161.964C82.5526 162.411 82.6761 162.766 82.9233 163.03C83.1705 163.294 83.4915 163.426 83.8864 163.426C84.125 163.426 84.3622 163.366 84.598 163.247C84.8366 163.128 85.0341 162.947 85.1903 162.706C85.3494 162.464 85.4276 162.158 85.4247 161.786ZM89.6893 160.614V164.5H88.4151V157.955H89.6381V159.02H89.7191C89.8697 158.673 90.1055 158.395 90.4265 158.185C90.7504 157.974 91.158 157.869 91.6495 157.869C92.0955 157.869 92.4862 157.963 92.8214 158.151C93.1566 158.335 93.4165 158.611 93.6012 158.977C93.7859 159.344 93.8782 159.797 93.8782 160.337V164.5H92.604V160.49C92.604 160.016 92.4805 159.645 92.2333 159.378C91.9862 159.108 91.6467 158.973 91.2148 158.973C90.9194 158.973 90.6566 159.037 90.4265 159.165C90.1992 159.293 90.0188 159.48 89.8853 159.727C89.7546 159.972 89.6893 160.267 89.6893 160.614ZM98.6424 157.955V158.977H95.0671V157.955H98.6424ZM96.0259 156.386H97.3001V162.578C97.3001 162.825 97.337 163.011 97.4109 163.136C97.4847 163.259 97.5799 163.342 97.6964 163.388C97.8157 163.43 97.945 163.452 98.0842 163.452C98.1864 163.452 98.2759 163.445 98.3526 163.43C98.4293 163.416 98.489 163.405 98.5316 163.396L98.7617 164.449C98.6879 164.477 98.5827 164.506 98.4464 164.534C98.31 164.565 98.1396 164.582 97.935 164.585C97.5998 164.591 97.2873 164.531 96.9975 164.406C96.7077 164.281 96.4734 164.088 96.2944 163.827C96.1154 163.565 96.0259 163.237 96.0259 162.842V156.386Z" fill="#6B7280"/>
<path d="M136.891 157.111H135.561C135.51 156.827 135.415 156.577 135.276 156.361C135.137 156.145 134.966 155.962 134.765 155.811C134.563 155.661 134.337 155.547 134.087 155.47C133.84 155.393 133.577 155.355 133.299 155.355C132.796 155.355 132.346 155.482 131.948 155.734C131.553 155.987 131.24 156.358 131.01 156.847C130.783 157.335 130.669 157.932 130.669 158.636C130.669 159.347 130.783 159.946 131.01 160.435C131.24 160.923 131.554 161.293 131.952 161.543C132.35 161.793 132.797 161.918 133.294 161.918C133.57 161.918 133.831 161.881 134.078 161.807C134.328 161.73 134.554 161.618 134.756 161.47C134.958 161.322 135.128 161.142 135.267 160.929C135.409 160.713 135.507 160.466 135.561 160.188L136.891 160.192C136.82 160.621 136.682 161.016 136.478 161.376C136.276 161.734 136.016 162.044 135.698 162.305C135.382 162.564 135.022 162.764 134.615 162.906C134.209 163.048 133.766 163.119 133.286 163.119C132.53 163.119 131.857 162.94 131.266 162.582C130.675 162.222 130.209 161.706 129.868 161.036C129.53 160.365 129.361 159.565 129.361 158.636C129.361 157.705 129.532 156.905 129.873 156.237C130.213 155.567 130.679 155.053 131.27 154.695C131.861 154.334 132.533 154.153 133.286 154.153C133.749 154.153 134.181 154.22 134.581 154.354C134.985 154.484 135.347 154.678 135.668 154.933C135.989 155.186 136.255 155.496 136.465 155.862C136.675 156.226 136.817 156.642 136.891 157.111ZM141.121 163.132C140.508 163.132 139.972 162.991 139.515 162.71C139.058 162.429 138.702 162.036 138.45 161.53C138.197 161.024 138.07 160.433 138.07 159.757C138.07 159.078 138.197 158.484 138.45 157.976C138.702 157.467 139.058 157.072 139.515 156.791C139.972 156.51 140.508 156.369 141.121 156.369C141.735 156.369 142.271 156.51 142.728 156.791C143.185 157.072 143.54 157.467 143.793 157.976C144.046 158.484 144.173 159.078 144.173 159.757C144.173 160.433 144.046 161.024 143.793 161.53C143.54 162.036 143.185 162.429 142.728 162.71C142.271 162.991 141.735 163.132 141.121 163.132ZM141.126 162.062C141.523 162.062 141.853 161.957 142.114 161.747C142.376 161.537 142.569 161.257 142.694 160.908C142.822 160.558 142.886 160.173 142.886 159.753C142.886 159.335 142.822 158.952 142.694 158.602C142.569 158.25 142.376 157.967 142.114 157.754C141.853 157.541 141.523 157.435 141.126 157.435C140.725 157.435 140.393 157.541 140.129 157.754C139.867 157.967 139.673 158.25 139.545 158.602C139.42 158.952 139.357 159.335 139.357 159.753C139.357 160.173 139.42 160.558 139.545 160.908C139.673 161.257 139.867 161.537 140.129 161.747C140.393 161.957 140.725 162.062 141.126 162.062ZM145.595 163V156.455H146.818V157.52H146.899C147.035 157.159 147.258 156.878 147.568 156.676C147.877 156.472 148.248 156.369 148.68 156.369C149.118 156.369 149.484 156.472 149.779 156.676C150.078 156.881 150.298 157.162 150.44 157.52H150.508C150.664 157.17 150.913 156.892 151.254 156.685C151.595 156.474 152.001 156.369 152.473 156.369C153.066 156.369 153.551 156.555 153.926 156.928C154.304 157.3 154.493 157.861 154.493 158.611V163H153.218V158.73C153.218 158.287 153.098 157.966 152.856 157.767C152.615 157.568 152.326 157.469 151.991 157.469C151.576 157.469 151.254 157.597 151.024 157.852C150.794 158.105 150.679 158.43 150.679 158.828V163H149.409V158.649C149.409 158.294 149.298 158.009 149.076 157.793C148.855 157.577 148.566 157.469 148.211 157.469C147.97 157.469 147.747 157.533 147.542 157.661C147.341 157.786 147.177 157.96 147.052 158.185C146.93 158.409 146.869 158.669 146.869 158.964V163H145.595ZM156.2 165.455V156.455H157.445V157.516H157.551C157.625 157.379 157.732 157.222 157.871 157.043C158.01 156.864 158.203 156.707 158.45 156.574C158.697 156.438 159.024 156.369 159.43 156.369C159.959 156.369 160.43 156.503 160.845 156.77C161.26 157.037 161.585 157.422 161.821 157.925C162.06 158.428 162.179 159.033 162.179 159.74C162.179 160.447 162.061 161.054 161.825 161.56C161.589 162.062 161.266 162.45 160.854 162.723C160.442 162.993 159.972 163.128 159.443 163.128C159.045 163.128 158.72 163.061 158.467 162.928C158.217 162.794 158.021 162.638 157.879 162.459C157.737 162.28 157.628 162.121 157.551 161.982H157.474V165.455H156.2ZM157.449 159.727C157.449 160.187 157.516 160.591 157.649 160.938C157.783 161.284 157.976 161.555 158.229 161.751C158.482 161.945 158.791 162.041 159.158 162.041C159.538 162.041 159.857 161.94 160.112 161.739C160.368 161.534 160.561 161.257 160.692 160.908C160.825 160.558 160.892 160.165 160.892 159.727C160.892 159.295 160.827 158.908 160.696 158.564C160.568 158.22 160.375 157.949 160.116 157.75C159.861 157.551 159.541 157.452 159.158 157.452C158.788 157.452 158.476 157.547 158.22 157.737C157.967 157.928 157.776 158.193 157.645 158.534C157.514 158.875 157.449 159.273 157.449 159.727ZM165.511 163.145C165.097 163.145 164.722 163.068 164.386 162.915C164.051 162.759 163.786 162.533 163.589 162.237C163.396 161.942 163.3 161.58 163.3 161.151C163.3 160.781 163.371 160.477 163.513 160.239C163.655 160 163.847 159.811 164.088 159.672C164.33 159.533 164.599 159.428 164.898 159.357C165.196 159.286 165.5 159.232 165.81 159.195C166.202 159.149 166.52 159.112 166.764 159.084C167.009 159.053 167.186 159.003 167.297 158.935C167.408 158.866 167.463 158.756 167.463 158.602V158.572C167.463 158.2 167.358 157.912 167.148 157.707C166.94 157.503 166.631 157.401 166.219 157.401C165.79 157.401 165.452 157.496 165.205 157.686C164.96 157.874 164.791 158.082 164.697 158.312L163.5 158.04C163.642 157.642 163.849 157.321 164.122 157.077C164.398 156.83 164.714 156.651 165.072 156.54C165.43 156.426 165.807 156.369 166.202 156.369C166.463 156.369 166.74 156.401 167.033 156.463C167.328 156.523 167.604 156.634 167.859 156.795C168.118 156.957 168.33 157.189 168.494 157.49C168.659 157.788 168.741 158.176 168.741 158.653V163H167.497V162.105H167.446C167.364 162.27 167.24 162.432 167.075 162.591C166.911 162.75 166.699 162.882 166.44 162.987C166.182 163.092 165.872 163.145 165.511 163.145ZM165.788 162.122C166.141 162.122 166.442 162.053 166.692 161.913C166.945 161.774 167.136 161.592 167.267 161.368C167.401 161.141 167.467 160.898 167.467 160.639V159.795C167.422 159.841 167.334 159.884 167.203 159.923C167.075 159.96 166.929 159.993 166.764 160.021C166.599 160.047 166.439 160.071 166.283 160.094C166.126 160.114 165.996 160.131 165.891 160.145C165.643 160.176 165.418 160.229 165.213 160.303C165.011 160.376 164.849 160.483 164.727 160.622C164.608 160.759 164.548 160.94 164.548 161.168C164.548 161.483 164.665 161.722 164.898 161.884C165.131 162.043 165.428 162.122 165.788 162.122ZM171.713 159.114V163H170.439V156.455H171.662V157.52H171.743C171.893 157.173 172.129 156.895 172.45 156.685C172.774 156.474 173.181 156.369 173.673 156.369C174.119 156.369 174.51 156.463 174.845 156.651C175.18 156.835 175.44 157.111 175.625 157.477C175.809 157.844 175.902 158.297 175.902 158.837V163H174.627V158.99C174.627 158.516 174.504 158.145 174.257 157.878C174.01 157.608 173.67 157.473 173.238 157.473C172.943 157.473 172.68 157.537 172.45 157.665C172.223 157.793 172.042 157.98 171.909 158.227C171.778 158.472 171.713 158.767 171.713 159.114ZM178.181 165.455C177.991 165.455 177.818 165.439 177.662 165.408C177.505 165.379 177.389 165.348 177.312 165.314L177.619 164.27C177.852 164.332 178.059 164.359 178.241 164.351C178.423 164.342 178.583 164.274 178.723 164.146C178.865 164.018 178.99 163.81 179.098 163.52L179.255 163.085L176.86 156.455H178.224L179.882 161.534H179.95L181.608 156.455H182.975L180.278 163.874C180.153 164.214 179.994 164.503 179.801 164.739C179.608 164.977 179.377 165.156 179.11 165.276C178.843 165.395 178.534 165.455 178.181 165.455Z" fill="#0080FF"/>
<path d="M112 185H200V186H112V185Z" fill="#0080FF"/>
<path d="M219.784 164.5H216.959V155.773H219.874C220.729 155.773 221.463 155.947 222.077 156.297C222.69 156.643 223.161 157.142 223.487 157.793C223.817 158.44 223.982 159.217 223.982 160.124C223.982 161.033 223.815 161.814 223.483 162.467C223.153 163.121 222.676 163.624 222.051 163.976C221.426 164.325 220.67 164.5 219.784 164.5ZM218.276 163.349H219.712C220.376 163.349 220.929 163.224 221.369 162.974C221.81 162.722 222.139 162.357 222.358 161.879C222.577 161.399 222.686 160.814 222.686 160.124C222.686 159.439 222.577 158.858 222.358 158.381C222.142 157.903 221.82 157.541 221.391 157.294C220.962 157.047 220.429 156.923 219.793 156.923H218.276V163.349ZM228.274 164.632C227.66 164.632 227.125 164.491 226.667 164.21C226.21 163.929 225.855 163.536 225.602 163.03C225.349 162.524 225.223 161.933 225.223 161.257C225.223 160.578 225.349 159.984 225.602 159.476C225.855 158.967 226.21 158.572 226.667 158.291C227.125 158.01 227.66 157.869 228.274 157.869C228.887 157.869 229.423 158.01 229.88 158.291C230.338 158.572 230.693 158.967 230.946 159.476C231.199 159.984 231.325 160.578 231.325 161.257C231.325 161.933 231.199 162.524 230.946 163.03C230.693 163.536 230.338 163.929 229.88 164.21C229.423 164.491 228.887 164.632 228.274 164.632ZM228.278 163.562C228.676 163.562 229.005 163.457 229.267 163.247C229.528 163.037 229.721 162.757 229.846 162.408C229.974 162.058 230.038 161.673 230.038 161.253C230.038 160.835 229.974 160.452 229.846 160.102C229.721 159.75 229.528 159.467 229.267 159.254C229.005 159.041 228.676 158.935 228.278 158.935C227.877 158.935 227.545 159.041 227.281 159.254C227.02 159.467 226.825 159.75 226.697 160.102C226.572 160.452 226.51 160.835 226.51 161.253C226.51 161.673 226.572 162.058 226.697 162.408C226.825 162.757 227.02 163.037 227.281 163.247C227.545 163.457 227.877 163.562 228.278 163.562ZM233.967 164.5L232.041 157.955H233.358L234.64 162.761H234.704L235.991 157.955H237.308L238.586 162.74H238.65L239.924 157.955H241.241L239.319 164.5H238.02L236.69 159.774H236.592L235.262 164.5H233.967ZM243.724 160.614V164.5H242.45V157.955H243.673V159.02H243.754C243.905 158.673 244.141 158.395 244.462 158.185C244.786 157.974 245.193 157.869 245.685 157.869C246.131 157.869 246.521 157.963 246.857 158.151C247.192 158.335 247.452 158.611 247.636 158.977C247.821 159.344 247.913 159.797 247.913 160.337V164.5H246.639V160.49C246.639 160.016 246.516 159.645 246.268 159.378C246.021 159.108 245.682 158.973 245.25 158.973C244.955 158.973 244.692 159.037 244.462 159.165C244.234 159.293 244.054 159.48 243.92 159.727C243.79 159.972 243.724 160.267 243.724 160.614ZM250.896 155.773V164.5H249.622V155.773H250.896ZM255.368 164.632C254.754 164.632 254.218 164.491 253.761 164.21C253.304 163.929 252.949 163.536 252.696 163.03C252.443 162.524 252.316 161.933 252.316 161.257C252.316 160.578 252.443 159.984 252.696 159.476C252.949 158.967 253.304 158.572 253.761 158.291C254.218 158.01 254.754 157.869 255.368 157.869C255.981 157.869 256.517 158.01 256.974 158.291C257.431 158.572 257.787 158.967 258.039 159.476C258.292 159.984 258.419 160.578 258.419 161.257C258.419 161.933 258.292 162.524 258.039 163.03C257.787 163.536 257.431 163.929 256.974 164.21C256.517 164.491 255.981 164.632 255.368 164.632ZM255.372 163.562C255.77 163.562 256.099 163.457 256.36 163.247C256.622 163.037 256.815 162.757 256.94 162.408C257.068 162.058 257.132 161.673 257.132 161.253C257.132 160.835 257.068 160.452 256.94 160.102C256.815 159.75 256.622 159.467 256.36 159.254C256.099 159.041 255.77 158.935 255.372 158.935C254.971 158.935 254.639 159.041 254.375 159.254C254.113 159.467 253.919 159.75 253.791 160.102C253.666 160.452 253.603 160.835 253.603 161.253C253.603 161.673 253.666 162.058 253.791 162.408C253.919 162.757 254.113 163.037 254.375 163.247C254.639 163.457 254.971 163.562 255.372 163.562ZM261.746 164.645C261.331 164.645 260.956 164.568 260.621 164.415C260.286 164.259 260.02 164.033 259.824 163.737C259.631 163.442 259.534 163.08 259.534 162.651C259.534 162.281 259.605 161.977 259.747 161.739C259.889 161.5 260.081 161.311 260.322 161.172C260.564 161.033 260.834 160.928 261.132 160.857C261.43 160.786 261.734 160.732 262.044 160.695C262.436 160.649 262.754 160.612 262.999 160.584C263.243 160.553 263.42 160.503 263.531 160.435C263.642 160.366 263.697 160.256 263.697 160.102V160.072C263.697 159.7 263.592 159.412 263.382 159.207C263.175 159.003 262.865 158.901 262.453 158.901C262.024 158.901 261.686 158.996 261.439 159.186C261.195 159.374 261.026 159.582 260.932 159.812L259.734 159.54C259.876 159.142 260.084 158.821 260.357 158.577C260.632 158.33 260.949 158.151 261.307 158.04C261.665 157.926 262.041 157.869 262.436 157.869C262.697 157.869 262.974 157.901 263.267 157.963C263.563 158.023 263.838 158.134 264.094 158.295C264.352 158.457 264.564 158.689 264.729 158.99C264.893 159.288 264.976 159.676 264.976 160.153V164.5H263.732V163.605H263.68C263.598 163.77 263.474 163.932 263.31 164.091C263.145 164.25 262.933 164.382 262.675 164.487C262.416 164.592 262.107 164.645 261.746 164.645ZM262.023 163.622C262.375 163.622 262.676 163.553 262.926 163.413C263.179 163.274 263.371 163.092 263.501 162.868C263.635 162.641 263.702 162.398 263.702 162.139V161.295C263.656 161.341 263.568 161.384 263.438 161.423C263.31 161.46 263.163 161.493 262.999 161.521C262.834 161.547 262.673 161.571 262.517 161.594C262.361 161.614 262.23 161.631 262.125 161.645C261.878 161.676 261.652 161.729 261.447 161.803C261.246 161.876 261.084 161.983 260.962 162.122C260.842 162.259 260.783 162.44 260.783 162.668C260.783 162.983 260.899 163.222 261.132 163.384C261.365 163.543 261.662 163.622 262.023 163.622ZM269.123 164.628C268.595 164.628 268.123 164.493 267.708 164.223C267.297 163.95 266.973 163.562 266.737 163.06C266.504 162.554 266.387 161.947 266.387 161.24C266.387 160.533 266.505 159.928 266.741 159.425C266.98 158.922 267.306 158.537 267.721 158.27C268.136 158.003 268.606 157.869 269.132 157.869C269.538 157.869 269.865 157.938 270.112 158.074C270.362 158.207 270.555 158.364 270.691 158.543C270.831 158.722 270.939 158.879 271.015 159.016H271.092V155.773H272.366V164.5H271.122V163.482H271.015C270.939 163.621 270.828 163.78 270.683 163.959C270.541 164.138 270.345 164.294 270.095 164.428C269.845 164.561 269.521 164.628 269.123 164.628ZM269.404 163.541C269.771 163.541 270.081 163.445 270.333 163.251C270.589 163.055 270.782 162.784 270.913 162.438C271.047 162.091 271.113 161.687 271.113 161.227C271.113 160.773 271.048 160.375 270.917 160.034C270.787 159.693 270.595 159.428 270.342 159.237C270.089 159.047 269.777 158.952 269.404 158.952C269.021 158.952 268.701 159.051 268.446 159.25C268.19 159.449 267.997 159.72 267.866 160.064C267.738 160.408 267.674 160.795 267.674 161.227C267.674 161.665 267.74 162.058 267.87 162.408C268.001 162.757 268.194 163.034 268.45 163.239C268.708 163.44 269.027 163.541 269.404 163.541ZM279.089 159.553L277.935 159.757C277.886 159.609 277.81 159.469 277.705 159.335C277.602 159.202 277.463 159.092 277.287 159.007C277.111 158.922 276.891 158.879 276.626 158.879C276.266 158.879 275.964 158.96 275.723 159.122C275.482 159.281 275.361 159.487 275.361 159.74C275.361 159.959 275.442 160.135 275.604 160.268C275.766 160.402 276.027 160.511 276.388 160.597L277.428 160.835C278.03 160.974 278.479 161.189 278.774 161.479C279.07 161.768 279.217 162.145 279.217 162.608C279.217 163 279.104 163.349 278.876 163.656C278.652 163.96 278.338 164.199 277.935 164.372C277.534 164.545 277.07 164.632 276.541 164.632C275.808 164.632 275.21 164.476 274.747 164.163C274.284 163.848 274 163.401 273.895 162.821L275.126 162.634C275.203 162.955 275.361 163.197 275.599 163.362C275.838 163.524 276.149 163.605 276.533 163.605C276.95 163.605 277.284 163.518 277.534 163.345C277.784 163.169 277.909 162.955 277.909 162.702C277.909 162.497 277.832 162.325 277.679 162.186C277.528 162.047 277.297 161.942 276.984 161.871L275.876 161.628C275.266 161.489 274.814 161.267 274.521 160.963C274.232 160.659 274.087 160.274 274.087 159.808C274.087 159.422 274.195 159.084 274.411 158.794C274.626 158.504 274.925 158.278 275.305 158.116C275.686 157.952 276.122 157.869 276.614 157.869C277.321 157.869 277.878 158.023 278.284 158.33C278.69 158.634 278.959 159.041 279.089 159.553Z" fill="#6B7280"/>
</g>
<defs>
<clipPath id="clip0_2623_18510">
<rect width="320" height="320" fill="white"/>
</clipPath>
</defs>
</svg>
