<svg width="320" height="320" viewBox="0 0 320 320" fill="none" xmlns="http://www.w3.org/2000/svg">
<g filter="url(#filter0_d_2623_18607)">
<rect x="55" y="122" width="211" height="76" rx="6" fill="white"/>
<path d="M68.0568 146V137.273H71.0057C71.6903 137.273 72.25 137.396 72.6847 137.643C73.1222 137.888 73.446 138.219 73.6562 138.636C73.8665 139.054 73.9716 139.52 73.9716 140.034C73.9716 140.548 73.8665 141.016 73.6562 141.436C73.4489 141.857 73.1278 142.192 72.6932 142.442C72.2585 142.689 71.7017 142.812 71.0227 142.812H68.9091V141.875H70.9886C71.4574 141.875 71.8338 141.794 72.1179 141.632C72.402 141.47 72.608 141.251 72.7358 140.976C72.8665 140.697 72.9318 140.384 72.9318 140.034C72.9318 139.685 72.8665 139.372 72.7358 139.097C72.608 138.821 72.4006 138.605 72.1136 138.449C71.8267 138.29 71.446 138.21 70.9716 138.21H69.1136V146H68.0568ZM76.5433 137.273V146H75.5376V137.273H76.5433ZM80.3114 146.153C79.8967 146.153 79.5202 146.075 79.1822 145.919C78.8441 145.76 78.5756 145.531 78.3768 145.233C78.1779 144.932 78.0785 144.568 78.0785 144.142C78.0785 143.767 78.1523 143.463 78.3001 143.23C78.4478 142.994 78.6452 142.81 78.8924 142.676C79.1396 142.543 79.4123 142.443 79.7106 142.378C80.0117 142.31 80.3143 142.256 80.6183 142.216C81.016 142.165 81.3384 142.126 81.5856 142.101C81.8356 142.072 82.0174 142.026 82.131 141.96C82.2475 141.895 82.3058 141.781 82.3058 141.619V141.585C82.3058 141.165 82.1907 140.838 81.9606 140.605C81.7333 140.372 81.3881 140.256 80.9251 140.256C80.445 140.256 80.0685 140.361 79.7958 140.571C79.5231 140.781 79.3313 141.006 79.2205 141.244L78.266 140.903C78.4364 140.506 78.6637 140.196 78.9478 139.974C79.2347 139.75 79.5472 139.594 79.8853 139.506C80.2262 139.415 80.5614 139.369 80.891 139.369C81.1012 139.369 81.3427 139.395 81.6154 139.446C81.891 139.494 82.1566 139.595 82.4123 139.749C82.6708 139.902 82.8853 140.134 83.0558 140.443C83.2262 140.753 83.3114 141.168 83.3114 141.688V146H82.3058V145.114H82.2546C82.1864 145.256 82.0728 145.408 81.9137 145.57C81.7546 145.732 81.543 145.869 81.2788 145.983C81.0146 146.097 80.6921 146.153 80.3114 146.153ZM80.4648 145.25C80.8626 145.25 81.1978 145.172 81.4705 145.016C81.7461 144.859 81.9535 144.658 82.0927 144.411C82.2347 144.163 82.3058 143.903 82.3058 143.631V142.71C82.2631 142.761 82.1694 142.808 82.0245 142.851C81.8825 142.891 81.7177 142.926 81.5302 142.957C81.3455 142.986 81.1651 143.011 80.989 143.034C80.8157 143.054 80.6751 143.071 80.5671 143.085C80.3058 143.119 80.0614 143.175 79.8342 143.251C79.6097 143.325 79.4279 143.437 79.2887 143.588C79.1523 143.736 79.0842 143.937 79.0842 144.193C79.0842 144.543 79.2134 144.807 79.4719 144.986C79.7333 145.162 80.0643 145.25 80.4648 145.25ZM87.8061 146.136C87.1925 146.136 86.6641 145.991 86.2209 145.702C85.7777 145.412 85.4368 145.013 85.1982 144.504C84.9595 143.996 84.8402 143.415 84.8402 142.761C84.8402 142.097 84.9624 141.51 85.2067 141.001C85.4538 140.49 85.7976 140.091 86.2379 139.804C86.6811 139.514 87.1982 139.369 87.7891 139.369C88.2493 139.369 88.6641 139.455 89.0334 139.625C89.4027 139.795 89.7053 140.034 89.9411 140.341C90.1768 140.648 90.3232 141.006 90.38 141.415H89.3743C89.2976 141.116 89.1271 140.852 88.8629 140.622C88.6016 140.389 88.2493 140.273 87.8061 140.273C87.4141 140.273 87.0703 140.375 86.7749 140.58C86.4822 140.781 86.2536 141.067 86.0888 141.436C85.9268 141.803 85.8459 142.233 85.8459 142.727C85.8459 143.233 85.9254 143.673 86.0845 144.048C86.2464 144.423 86.4737 144.714 86.7663 144.922C87.0618 145.129 87.4084 145.233 87.8061 145.233C88.0675 145.233 88.3047 145.188 88.5178 145.097C88.7308 145.006 88.9112 144.875 89.0589 144.705C89.2067 144.534 89.3118 144.33 89.3743 144.091H90.38C90.3232 144.477 90.1825 144.825 89.9581 145.135C89.7365 145.442 89.4425 145.686 89.076 145.868C88.7124 146.047 88.2891 146.136 87.8061 146.136ZM94.5945 146.136C93.9638 146.136 93.4197 145.997 92.9624 145.719C92.5078 145.438 92.157 145.045 91.9098 144.543C91.6655 144.037 91.5433 143.449 91.5433 142.778C91.5433 142.108 91.6655 141.517 91.9098 141.006C92.157 140.491 92.5007 140.091 92.9411 139.804C93.3842 139.514 93.9013 139.369 94.4922 139.369C94.8331 139.369 95.1697 139.426 95.5021 139.54C95.8345 139.653 96.1371 139.838 96.4098 140.094C96.6825 140.347 96.8999 140.682 97.0618 141.099C97.2237 141.517 97.3047 142.031 97.3047 142.642V143.068H92.2592V142.199H96.282C96.282 141.83 96.2081 141.5 96.0604 141.21C95.9155 140.92 95.7081 140.692 95.4382 140.524C95.1712 140.357 94.8558 140.273 94.4922 140.273C94.0916 140.273 93.745 140.372 93.4524 140.571C93.1626 140.767 92.9396 141.023 92.7834 141.338C92.6271 141.653 92.549 141.991 92.549 142.352V142.932C92.549 143.426 92.6342 143.845 92.8047 144.189C92.978 144.53 93.218 144.79 93.5249 144.969C93.8317 145.145 94.1882 145.233 94.5945 145.233C94.8587 145.233 95.0973 145.196 95.3104 145.122C95.5263 145.045 95.7124 144.932 95.8686 144.781C96.0249 144.628 96.1456 144.437 96.2308 144.21L97.2024 144.483C97.1001 144.812 96.9283 145.102 96.6868 145.352C96.4453 145.599 96.147 145.793 95.7919 145.932C95.4368 146.068 95.0376 146.136 94.5945 146.136ZM99.8402 142.062V146H98.8345V137.273H99.8402V140.477H99.9254C100.079 140.139 100.309 139.871 100.616 139.672C100.925 139.47 101.337 139.369 101.852 139.369C102.298 139.369 102.688 139.459 103.023 139.638C103.359 139.814 103.619 140.085 103.803 140.452C103.991 140.815 104.085 141.278 104.085 141.841V146H103.079V141.909C103.079 141.389 102.944 140.987 102.674 140.703C102.407 140.416 102.036 140.273 101.562 140.273C101.232 140.273 100.937 140.342 100.675 140.482C100.417 140.621 100.212 140.824 100.062 141.091C99.9141 141.358 99.8402 141.682 99.8402 142.062ZM108.583 146.136C107.993 146.136 107.474 145.996 107.028 145.714C106.585 145.433 106.238 145.04 105.988 144.534C105.741 144.028 105.618 143.437 105.618 142.761C105.618 142.08 105.741 141.484 105.988 140.976C106.238 140.467 106.585 140.072 107.028 139.791C107.474 139.51 107.993 139.369 108.583 139.369C109.174 139.369 109.691 139.51 110.135 139.791C110.581 140.072 110.927 140.467 111.174 140.976C111.424 141.484 111.549 142.08 111.549 142.761C111.549 143.437 111.424 144.028 111.174 144.534C110.927 145.04 110.581 145.433 110.135 145.714C109.691 145.996 109.174 146.136 108.583 146.136ZM108.583 145.233C109.032 145.233 109.402 145.118 109.691 144.888C109.981 144.658 110.196 144.355 110.335 143.98C110.474 143.605 110.544 143.199 110.544 142.761C110.544 142.324 110.474 141.916 110.335 141.538C110.196 141.161 109.981 140.855 109.691 140.622C109.402 140.389 109.032 140.273 108.583 140.273C108.135 140.273 107.765 140.389 107.475 140.622C107.186 140.855 106.971 141.161 106.832 141.538C106.693 141.916 106.623 142.324 106.623 142.761C106.623 143.199 106.693 143.605 106.832 143.98C106.971 144.355 107.186 144.658 107.475 144.888C107.765 145.118 108.135 145.233 108.583 145.233ZM114.09 137.273V146H113.085V137.273H114.09ZM118.404 146.136C117.858 146.136 117.377 145.999 116.959 145.723C116.542 145.445 116.215 145.053 115.979 144.547C115.743 144.038 115.625 143.438 115.625 142.744C115.625 142.057 115.743 141.46 115.979 140.955C116.215 140.449 116.543 140.058 116.963 139.783C117.384 139.507 117.87 139.369 118.421 139.369C118.847 139.369 119.184 139.44 119.431 139.582C119.681 139.722 119.871 139.881 120.002 140.06C120.135 140.236 120.239 140.381 120.313 140.494H120.398V137.273H121.404V146H120.432V144.994H120.313C120.239 145.114 120.134 145.264 119.998 145.446C119.861 145.625 119.667 145.786 119.414 145.928C119.161 146.067 118.824 146.136 118.404 146.136ZM118.54 145.233C118.944 145.233 119.284 145.128 119.563 144.918C119.841 144.705 120.053 144.411 120.198 144.036C120.343 143.658 120.415 143.222 120.415 142.727C120.415 142.239 120.344 141.811 120.202 141.445C120.06 141.075 119.85 140.788 119.571 140.584C119.293 140.376 118.949 140.273 118.54 140.273C118.114 140.273 117.759 140.382 117.475 140.601C117.194 140.817 116.982 141.111 116.84 141.483C116.701 141.852 116.631 142.267 116.631 142.727C116.631 143.193 116.702 143.616 116.844 143.997C116.989 144.375 117.202 144.676 117.483 144.901C117.767 145.122 118.12 145.233 118.54 145.233ZM126.13 146.136C125.499 146.136 124.955 145.997 124.498 145.719C124.043 145.438 123.692 145.045 123.445 144.543C123.201 144.037 123.078 143.449 123.078 142.778C123.078 142.108 123.201 141.517 123.445 141.006C123.692 140.491 124.036 140.091 124.476 139.804C124.919 139.514 125.436 139.369 126.027 139.369C126.368 139.369 126.705 139.426 127.037 139.54C127.37 139.653 127.672 139.838 127.945 140.094C128.218 140.347 128.435 140.682 128.597 141.099C128.759 141.517 128.84 142.031 128.84 142.642V143.068H123.794V142.199H127.817C127.817 141.83 127.743 141.5 127.596 141.21C127.451 140.92 127.243 140.692 126.973 140.524C126.706 140.357 126.391 140.273 126.027 140.273C125.627 140.273 125.28 140.372 124.988 140.571C124.698 140.767 124.475 141.023 124.319 141.338C124.162 141.653 124.084 141.991 124.084 142.352V142.932C124.084 143.426 124.169 143.845 124.34 144.189C124.513 144.53 124.753 144.79 125.06 144.969C125.367 145.145 125.723 145.233 126.13 145.233C126.394 145.233 126.632 145.196 126.846 145.122C127.061 145.045 127.248 144.932 127.404 144.781C127.56 144.628 127.681 144.437 127.766 144.21L128.738 144.483C128.635 144.812 128.463 145.102 128.222 145.352C127.98 145.599 127.682 145.793 127.327 145.932C126.972 146.068 126.573 146.136 126.13 146.136ZM130.37 146V139.455H131.341V140.443H131.409C131.529 140.119 131.745 139.857 132.057 139.655C132.37 139.453 132.722 139.352 133.114 139.352C133.188 139.352 133.28 139.354 133.391 139.357C133.502 139.359 133.586 139.364 133.642 139.369V140.392C133.608 140.384 133.53 140.371 133.408 140.354C133.289 140.334 133.162 140.324 133.029 140.324C132.711 140.324 132.426 140.391 132.176 140.524C131.929 140.655 131.733 140.837 131.588 141.07C131.446 141.3 131.375 141.562 131.375 141.858V146H130.37Z" fill="#6B7280"/>
<path fill-rule="evenodd" clip-rule="evenodd" d="M261.792 185.329L256.555 193.329C256.419 193.537 256.182 193.558 256.027 193.376C255.871 193.194 255.855 192.879 255.991 192.671L261.229 184.671C261.365 184.463 261.601 184.442 261.757 184.624C261.912 184.806 261.928 185.121 261.792 185.329ZM261.798 190.32L259.927 193.32C259.795 193.532 259.559 193.561 259.401 193.384C259.242 193.207 259.22 192.892 259.353 192.68L261.223 189.68C261.356 189.468 261.591 189.439 261.75 189.616C261.909 189.793 261.93 190.108 261.798 190.32Z" fill="#AEAEAE"/>
<rect x="55" y="122" width="211" height="76" rx="6" stroke="#D1D5DB"/>
</g>
<defs>
<filter id="filter0_d_2623_18607" x="52.5" y="120.5" width="216.248" height="82.5" filterUnits="userSpaceOnUse" color-interpolation-filters="sRGB">
<feFlood flood-opacity="0" result="BackgroundImageFix"/>
<feColorMatrix in="SourceAlpha" type="matrix" values="0 0 0 0 0 0 0 0 0 0 0 0 0 0 0 0 0 0 127 0" result="hardAlpha"/>
<feOffset dy="1"/>
<feGaussianBlur stdDeviation="1"/>
<feColorMatrix type="matrix" values="0 0 0 0 0 0 0 0 0 0 0 0 0 0 0 0 0 0 0.05 0"/>
<feBlend mode="normal" in2="BackgroundImageFix" result="effect1_dropShadow_2623_18607"/>
<feBlend mode="normal" in="SourceGraphic" in2="effect1_dropShadow_2623_18607" result="shape"/>
</filter>
</defs>
</svg>
