<svg width="320" height="320" viewBox="0 0 320 320" fill="none" xmlns="http://www.w3.org/2000/svg">
<rect x="142" y="150" width="36" height="20" rx="10" fill="#1A56DB"/>
<rect x="160" y="152" width="16" height="16" rx="8" fill="white"/>
<g filter="url(#filter0_dd_2623_18666)">
<rect x="91" y="141" width="139" height="39" rx="8" fill="#111928"/>
<path d="M142.861 157.21V156.273H149.406V157.21H146.662V165H145.605V157.21H142.861ZM152.611 165.136C152.02 165.136 151.501 164.996 151.055 164.714C150.612 164.433 150.266 164.04 150.016 163.534C149.768 163.028 149.645 162.437 149.645 161.761C149.645 161.08 149.768 160.484 150.016 159.976C150.266 159.467 150.612 159.072 151.055 158.791C151.501 158.51 152.02 158.369 152.611 158.369C153.202 158.369 153.719 158.51 154.162 158.791C154.608 159.072 154.955 159.467 155.202 159.976C155.452 160.484 155.577 161.08 155.577 161.761C155.577 162.437 155.452 163.028 155.202 163.534C154.955 164.04 154.608 164.433 154.162 164.714C153.719 164.996 153.202 165.136 152.611 165.136ZM152.611 164.233C153.06 164.233 153.429 164.118 153.719 163.888C154.009 163.658 154.223 163.355 154.362 162.98C154.501 162.605 154.571 162.199 154.571 161.761C154.571 161.324 154.501 160.916 154.362 160.538C154.223 160.161 154.009 159.855 153.719 159.622C153.429 159.389 153.06 159.273 152.611 159.273C152.162 159.273 151.793 159.389 151.503 159.622C151.213 159.855 150.999 160.161 150.859 160.538C150.72 160.916 150.651 161.324 150.651 161.761C150.651 162.199 150.72 162.605 150.859 162.98C150.999 163.355 151.213 163.658 151.503 163.888C151.793 164.118 152.162 164.233 152.611 164.233ZM159.771 165.136C159.18 165.136 158.662 164.996 158.216 164.714C157.772 164.433 157.426 164.04 157.176 163.534C156.929 163.028 156.805 162.437 156.805 161.761C156.805 161.08 156.929 160.484 157.176 159.976C157.426 159.467 157.772 159.072 158.216 158.791C158.662 158.51 159.18 158.369 159.771 158.369C160.362 158.369 160.879 158.51 161.322 158.791C161.768 159.072 162.115 159.467 162.362 159.976C162.612 160.484 162.737 161.08 162.737 161.761C162.737 162.437 162.612 163.028 162.362 163.534C162.115 164.04 161.768 164.433 161.322 164.714C160.879 164.996 160.362 165.136 159.771 165.136ZM159.771 164.233C160.22 164.233 160.589 164.118 160.879 163.888C161.169 163.658 161.383 163.355 161.522 162.98C161.662 162.605 161.731 162.199 161.731 161.761C161.731 161.324 161.662 160.916 161.522 160.538C161.383 160.161 161.169 159.855 160.879 159.622C160.589 159.389 160.22 159.273 159.771 159.273C159.322 159.273 158.953 159.389 158.663 159.622C158.373 159.855 158.159 160.161 158.02 160.538C157.88 160.916 157.811 161.324 157.811 161.761C157.811 162.199 157.88 162.605 158.02 162.98C158.159 163.355 158.373 163.658 158.663 163.888C158.953 164.118 159.322 164.233 159.771 164.233ZM165.278 156.273V165H164.272V156.273H165.278ZM169.966 158.455V159.307H166.574V158.455H169.966ZM167.563 156.886H168.569V163.125C168.569 163.409 168.61 163.622 168.692 163.764C168.777 163.903 168.885 163.997 169.016 164.045C169.15 164.091 169.29 164.114 169.438 164.114C169.549 164.114 169.64 164.108 169.711 164.097C169.782 164.082 169.838 164.071 169.881 164.062L170.086 164.966C170.017 164.991 169.922 165.017 169.8 165.043C169.678 165.071 169.523 165.085 169.336 165.085C169.051 165.085 168.773 165.024 168.5 164.902C168.23 164.78 168.006 164.594 167.827 164.344C167.651 164.094 167.563 163.778 167.563 163.398V156.886ZM171.479 165V158.455H172.485V165H171.479ZM171.99 157.364C171.794 157.364 171.625 157.297 171.483 157.163C171.344 157.03 171.275 156.869 171.275 156.682C171.275 156.494 171.344 156.334 171.483 156.2C171.625 156.067 171.794 156 171.99 156C172.186 156 172.354 156.067 172.493 156.2C172.635 156.334 172.706 156.494 172.706 156.682C172.706 156.869 172.635 157.03 172.493 157.163C172.354 157.297 172.186 157.364 171.99 157.364ZM174.327 167.455V158.455H175.298V159.494H175.418C175.491 159.381 175.594 159.236 175.724 159.06C175.858 158.881 176.048 158.722 176.295 158.582C176.545 158.44 176.884 158.369 177.31 158.369C177.861 158.369 178.347 158.507 178.767 158.783C179.188 159.058 179.516 159.449 179.751 159.955C179.987 160.46 180.105 161.057 180.105 161.744C180.105 162.438 179.987 163.038 179.751 163.547C179.516 164.053 179.189 164.445 178.771 164.723C178.354 164.999 177.872 165.136 177.327 165.136C176.906 165.136 176.57 165.067 176.317 164.928C176.064 164.786 175.869 164.625 175.733 164.446C175.597 164.264 175.491 164.114 175.418 163.994H175.332V167.455H174.327ZM175.315 161.727C175.315 162.222 175.388 162.658 175.533 163.036C175.678 163.411 175.889 163.705 176.168 163.918C176.446 164.128 176.787 164.233 177.19 164.233C177.611 164.233 177.962 164.122 178.243 163.901C178.527 163.676 178.74 163.375 178.882 162.997C179.027 162.616 179.099 162.193 179.099 161.727C179.099 161.267 179.028 160.852 178.886 160.483C178.747 160.111 178.536 159.817 178.251 159.601C177.97 159.382 177.616 159.273 177.19 159.273C176.781 159.273 176.438 159.376 176.159 159.584C175.881 159.788 175.67 160.075 175.528 160.445C175.386 160.811 175.315 161.239 175.315 161.727Z" fill="white"/>
<path d="M158.172 185.171L155.343 182.342C153.843 180.842 151.808 179.999 149.686 179.999H172.314C170.192 179.999 168.157 180.842 166.657 182.342L163.828 185.171C162.266 186.733 159.734 186.733 158.172 185.171Z" fill="#111928"/>
</g>
<defs>
<filter id="filter0_dd_2623_18666" x="88" y="139" width="145" height="51.3423" filterUnits="userSpaceOnUse" color-interpolation-filters="sRGB">
<feFlood flood-opacity="0" result="BackgroundImageFix"/>
<feColorMatrix in="SourceAlpha" type="matrix" values="0 0 0 0 0 0 0 0 0 0 0 0 0 0 0 0 0 0 127 0" result="hardAlpha"/>
<feOffset dy="1"/>
<feGaussianBlur stdDeviation="1.5"/>
<feColorMatrix type="matrix" values="0 0 0 0 0 0 0 0 0 0 0 0 0 0 0 0 0 0 0.1 0"/>
<feBlend mode="normal" in2="BackgroundImageFix" result="effect1_dropShadow_2623_18666"/>
<feColorMatrix in="SourceAlpha" type="matrix" values="0 0 0 0 0 0 0 0 0 0 0 0 0 0 0 0 0 0 127 0" result="hardAlpha"/>
<feOffset dy="1"/>
<feGaussianBlur stdDeviation="1"/>
<feColorMatrix type="matrix" values="0 0 0 0 0 0 0 0 0 0 0 0 0 0 0 0 0 0 0.06 0"/>
<feBlend mode="normal" in2="effect1_dropShadow_2623_18666" result="effect2_dropShadow_2623_18666"/>
<feBlend mode="normal" in="SourceGraphic" in2="effect2_dropShadow_2623_18666" result="shape"/>
</filter>
</defs>
</svg>
